<svg xmlns="http://www.w3.org/2000/svg" width="16" height="16"><path fill-rule="evenodd" clip-rule="evenodd" fill="#26ABE0" d="M15.3 0H.7C.3 0 0 .4 0 .7v14.6c0 .4.3.7.7.7h14.6c.3 0 .7-.3.7-.7V.7c-.1-.3-.4-.7-.7-.7z"/><path fill-rule="evenodd" clip-rule="evenodd" fill="#FFF" stroke="#FFF" stroke-width=".01" stroke-miterlimit="10" d="M13.5 4.6c-.4.2-.8.3-1.3.3.5-.3.8-.7 1-1.2-.4.3-.9.4-1.4.5-.4-.4-1-.7-1.7-.7-1.2 0-2.3 1-2.3 2.3 0 .2 0 .4.1.5C6 6.2 4.4 5.4 3.2 4c-.2.3-.3.7-.3 1.1 0 .7.4 1.4 1 1.9-.4 0-.7-.1-1-.3 0 1.1.8 2 1.8 2.2h-.6c-.1 0-.3 0-.4-.1.3.9 1.1 1.6 2.1 1.6-.7.6-1.7.9-2.8.9h-.5c1 .6 2.2 1 3.4 1 4.1 0 6.4-3.4 6.4-6.4v-.3c.5-.1.9-.5 1.2-1"/></svg>