<?xml version="1.0" encoding="utf-8"?>
<!-- Generator: Adobe Illustrator 13.0.0, SVG Export Plug-In . SVG Version: 6.00 Build 14948)  -->
<!DOCTYPE svg PUBLIC "-//W3C//DTD SVG 1.1//EN" "http://www.w3.org/Graphics/SVG/1.1/DTD/svg11.dtd">
<svg version="1.1" id="Layer_1" xmlns="http://www.w3.org/2000/svg" xmlns:xlink="http://www.w3.org/1999/xlink" x="0px" y="0px"
	 width="16px" height="16px" viewBox="0 0 16 16" enable-background="new 0 0 16 16" xml:space="preserve">
<g>
	<path fill-rule="evenodd" clip-rule="evenodd" fill="#0070B0" d="M15.3,0H0.7C0.3,0,0,0.4,0,0.7v14.6C0,15.7,0.3,16,0.7,16h14.6
		c0.3,0,0.7-0.3,0.7-0.7V0.7C15.9,0.4,15.6,0,15.3,0z"/>
	<path fill-rule="evenodd" clip-rule="evenodd" fill="#FFFFFF" d="M2.2,13.8V6.3c0-0.2,0.2-0.4,0.4-0.4h1.8c0.2,0,0.4,0.2,0.4,0.4
		v7.5c0,0.2-0.2,0.4-0.4,0.4H2.6C2.4,14.2,2.2,14.1,2.2,13.8z M6,13.9V6.3c0-0.2,0.2-0.4,0.4-0.4h1.9c0.2,0,0.4,0.2,0.4,0.4v0.7
		c0.4-0.7,1.1-1.2,2.5-1.2c3.1,0,3.1,2.9,3.1,4.5v3.6c0,0.2-0.2,0.4-0.4,0.4h-1.9c-0.2,0-0.4-0.2-0.4-0.4v-3.5
		c0-0.5,0.1-2.3-1.4-2.3C8.9,8,8.7,9.2,8.6,9.8v4.1c0,0.2-0.2,0.4-0.4,0.4H6.4C6.2,14.2,6,14.1,6,13.9z M1.8,3.5
		c0-0.9,0.8-1.7,1.7-1.7c0.9,0,1.7,0.8,1.7,1.7c0,0.9-0.8,1.7-1.7,1.7C2.6,5.2,1.8,4.4,1.8,3.5z"/>
</g>
</svg>
