<?xml version="1.0" encoding="utf-8"?>
<!-- Generator: Adobe Illustrator 13.0.0, SVG Export Plug-In . SVG Version: 6.00 Build 14948)  -->
<!DOCTYPE svg PUBLIC "-//W3C//DTD SVG 1.1//EN" "http://www.w3.org/Graphics/SVG/1.1/DTD/svg11.dtd">
<svg version="1.1" id="Layer_1" xmlns="http://www.w3.org/2000/svg" xmlns:xlink="http://www.w3.org/1999/xlink" x="0px" y="0px"
	 width="16px" height="16px" viewBox="0 0 16 16" enable-background="new 0 0 16 16" xml:space="preserve">
<path fill-rule="evenodd" clip-rule="evenodd" fill="#26ABE0" d="M15.3,0H0.7C0.3,0,0,0.4,0,0.7v14.6C0,15.7,0.3,16,0.7,16h14.6
	c0.3,0,0.7-0.3,0.7-0.7V0.7C15.9,0.4,15.6,0,15.3,0z"/>
<path fill-rule="evenodd" clip-rule="evenodd" fill="#FFFFFF" stroke="#FFFFFF" stroke-width="1.000000e-002" stroke-miterlimit="10" d="
	M13.5,4.6c-0.4,0.2-0.8,0.3-1.3,0.3c0.5-0.3,0.8-0.7,1-1.2c-0.4,0.3-0.9,0.4-1.4,0.5c-0.4-0.4-1-0.7-1.7-0.7c-1.2,0-2.3,1-2.3,2.3
	c0,0.2,0,0.4,0.1,0.5C6,6.2,4.4,5.4,3.2,4C3,4.3,2.9,4.7,2.9,5.1c0,0.7,0.4,1.4,1,1.9c-0.4,0-0.7-0.1-1-0.3l0,0c0,1.1,0.8,2,1.8,2.2
	C4.5,8.9,4.3,8.9,4.1,8.9c-0.1,0-0.3,0-0.4-0.1c0.3,0.9,1.1,1.6,2.1,1.6c-0.7,0.6-1.7,0.9-2.8,0.9c-0.2,0-0.3,0-0.5,0
	c1,0.6,2.2,1,3.4,1c4.1,0,6.4-3.4,6.4-6.4c0-0.1,0-0.2,0-0.3C12.8,5.5,13.2,5.1,13.5,4.6"/>
</svg>
