<svg xmlns="http://www.w3.org/2000/svg" width="16" height="16"><g fill-rule="evenodd" clip-rule="evenodd"><path fill="#0070B0" d="M15.3 0H.7C.3 0 0 .4 0 .7v14.6c0 .4.3.7.7.7h14.6c.3 0 .7-.3.7-.7V.7c-.1-.3-.4-.7-.7-.7z"/><path fill="#FFF" d="M2.2 13.8V6.3c0-.2.2-.4.4-.4h1.8c.2 0 .4.2.4.4v7.5c0 .2-.2.4-.4.4H2.6c-.2 0-.4-.1-.4-.4zm3.8.1V6.3c0-.2.2-.4.4-.4h1.9c.2 0 .4.2.4.4V7c.4-.7 1.1-1.2 2.5-1.2 3.1 0 3.1 2.9 3.1 4.5v3.6c0 .2-.2.4-.4.4H12c-.2 0-.4-.2-.4-.4v-3.5c0-.5.1-2.3-1.4-2.3C8.9 8 8.7 9.2 8.6 9.8v4.1c0 .2-.2.4-.4.4H6.4c-.2-.1-.4-.2-.4-.4zM1.8 3.5c0-.9.8-1.7 1.7-1.7.9 0 1.7.8 1.7 1.7 0 .9-.8 1.7-1.7 1.7-.9 0-1.7-.8-1.7-1.7z"/></g></svg>