<?xml version="1.0" encoding="utf-8"?>
<!-- Generator: Adobe Illustrator 13.0.0, SVG Export Plug-In . SVG Version: 6.00 Build 14948)  -->
<!DOCTYPE svg PUBLIC "-//W3C//DTD SVG 1.1//EN" "http://www.w3.org/Graphics/SVG/1.1/DTD/svg11.dtd">
<svg version="1.1" xmlns="http://www.w3.org/2000/svg" xmlns:xlink="http://www.w3.org/1999/xlink" x="0px" y="0px" width="128px"
	 height="128px" viewBox="0 0 128 128" enable-background="new 0 0 128 128" xml:space="preserve">
<g id="Layer_1">
	<path fill-rule="evenodd" clip-rule="evenodd" fill="none" d="M18.7,18.7c25-25,65.5-25,90.5,0c25,25,25,65.5,0,90.5
		c-25,25-65.5,25-90.5,0C-6.2,84.3-6.2,43.7,18.7,18.7z"/>
	<path fill-rule="evenodd" clip-rule="evenodd" fill="#F0FAFF" stroke="#141C6B" stroke-width="1.12" stroke-miterlimit="10" d="
		M107.4,119c-0.7,3.2-3.5,5.5-6.8,5.5H22.5c-3.8,0-6.9-3.1-6.9-6.9V26.4c0-3.8,3.1-6.9,6.9-6.9h78.1c3.8,0,6.9,3.1,6.9,6.9v91.2
		C107.6,118.1,107.5,118.6,107.4,119z"/>
	
		<rect x="23.8" y="27.7" fill-rule="evenodd" clip-rule="evenodd" fill="#FFFFFF" stroke="#141C6B" stroke-width="1.12" stroke-linejoin="round" stroke-miterlimit="10" width="75.4" height="88.6"/>
	<path fill-rule="evenodd" clip-rule="evenodd" fill="#FC4730" d="M82,73.7l0.6,0.6l0.6-0.6c1.4-1.4,3.7-1.4,5.1,0
		c1.4,1.4,1.4,3.7,0,5.1l-0.6,0.6l-5.1,5.1l-5.1-5.1l-0.6-0.6c-1.4-1.4-1.4-3.7,0-5.1C78.3,72.3,80.6,72.3,82,73.7z"/>
	<path fill-rule="evenodd" clip-rule="evenodd" fill="#141C6B" d="M47.5,22.6l0-10.4l9,0v-1.8c0-2.8,2.3-5.1,5.1-5.1
		c2.8,0,5.1,2.3,5.1,5.1v1.8l9,0l0,10.4L47.5,22.6z M64.1,10.4c0-1.4-1.1-2.5-2.5-2.5C60.1,7.9,59,9,59,10.4c0,1.4,1.1,2.5,2.5,2.5
		C62.9,13,64.1,11.8,64.1,10.4z"/>
	
		<line fill-rule="evenodd" clip-rule="evenodd" fill="none" stroke="#BACCFC" stroke-width="1.12" stroke-linecap="round" stroke-linejoin="round" stroke-miterlimit="10" x1="32.2" y1="79.2" x2="42.9" y2="79.2"/>
	
		<line fill-rule="evenodd" clip-rule="evenodd" fill="none" stroke="#BACCFC" stroke-width="1.12" stroke-linecap="round" stroke-linejoin="round" stroke-miterlimit="10" x1="32.2" y1="100.2" x2="63.8" y2="100.2"/>
	
		<line fill-rule="evenodd" clip-rule="evenodd" fill="none" stroke="#BACCFC" stroke-width="1.12" stroke-linecap="round" stroke-linejoin="round" stroke-miterlimit="10" x1="49.4" y1="79.2" x2="67.6" y2="79.2"/>
	<g>
		<path fill-rule="evenodd" clip-rule="evenodd" fill="#FC4730" d="M80.2,106h-4.7c-0.9,0-1.6-0.7-1.6-1.6v-2.7
			c0-3.8,3.1-9.4,6.8-9.4l0,0c0.4,0,0.8,0.3,0.8,0.8v11.6C81.5,105.4,80.9,106,80.2,106z"/>
		<path fill-rule="evenodd" clip-rule="evenodd" fill="#FC4730" d="M85.2,106h4.7c0.9,0,1.6-0.7,1.6-1.6v-2.7c0-3.8-3.1-9.4-6.8-9.4
			l0,0c-0.4,0-0.8,0.3-0.8,0.8v11.6C83.9,105.4,84.5,106,85.2,106z"/>
	</g>
	<path fill-rule="evenodd" clip-rule="evenodd" fill="none" stroke="#545E80" stroke-width="1.12" stroke-miterlimit="10" d="
		M59,36.1H34.3c-1.9,0-3.4,1.5-3.4,3.4v17.6c0,1.9,1.5,3.4,3.4,3.4H59c1.9,0,3.4-1.5,3.4-3.4V39.5C62.4,37.7,60.9,36.1,59,36.1z"/>
	
		<line fill-rule="evenodd" clip-rule="evenodd" fill="none" stroke="#BACCFC" stroke-width="1.12" stroke-linecap="round" stroke-linejoin="round" stroke-miterlimit="10" x1="69.9" y1="45" x2="81.5" y2="45"/>
	
		<line fill-rule="evenodd" clip-rule="evenodd" fill="none" stroke="#BACCFC" stroke-width="1.12" stroke-linecap="round" stroke-linejoin="round" stroke-miterlimit="10" x1="68.9" y1="51" x2="88.4" y2="51"/>
	
		<line fill-rule="evenodd" clip-rule="evenodd" fill="none" stroke="#BACCFC" stroke-width="1.12" stroke-linecap="round" stroke-linejoin="round" stroke-miterlimit="10" x1="68.9" y1="58" x2="88.4" y2="58"/>
	<path fill-rule="evenodd" clip-rule="evenodd" fill="#141C6B" d="M43.2,42.2c1.6-1.6,4.1-1.6,5.7,0c1.6,1.6,1.6,4.1,0,5.7
		c-1.6,1.6-4.1,1.6-5.7,0C41.6,46.3,41.6,43.7,43.2,42.2z"/>
	<path fill-rule="evenodd" clip-rule="evenodd" fill="#141C6B" d="M39.6,52.6c3.5-3.5,9.2-3.5,12.7,0c1.3,1.3,2.1,2.8,2.4,4.5H37.2
		C37.5,55.5,38.4,53.9,39.6,52.6z"/>
	<path fill-rule="evenodd" clip-rule="evenodd" fill="none" stroke="#141C6B" stroke-width="1.12" stroke-miterlimit="10" d="
		M59,36.1H34.3c-1.9,0-3.4,1.5-3.4,3.4v17.6c0,1.9,1.5,3.4,3.4,3.4H59c1.9,0,3.4-1.5,3.4-3.4V39.5C62.4,37.7,60.9,36.1,59,36.1z"/>
</g>
<g id="bg">
</g>
<g id="content">
</g>
</svg>
