<svg xmlns="http://www.w3.org/2000/svg" width="380" height="200"><path clip-rule="evenodd" fill="none" d="M0 0h380v200H0z"/><path fill="#E8EDF5" d="M108.84 109.293c12.187 43.28 58.827 46.04 58.827 46.04 29.24 1.014 51.374 1.254 73.92-13.813 7.439-4.973 14.4-11.253 18.721-19.293 3.906-7.267 5.426-15.56 5.771-23.626.268-6.254-.186-12.64-2.72-18.053-2.347-5.014-6.333-8.88-10.532-12.253-10.107-8.133-21.854-13.973-34.094-18.32-14.44-5.12-29.894-8.227-45.546-6.733-15.667 1.493-31.587 7.893-43.374 19.653-11.786 11.772-25.36 30.852-20.973 46.398z"/><path fill="#FC452E" d="M152.253 28.32c-7.813-2.121-15.827-1.133-22.093 4-6.267 5.133-10.494 18.146-9.934 26.24.4 5.934.867 12.28.96 18.227.026 1.773-1.613 5.4-1.654 7.174-.107 4.466 5.56 6.64 7.734.239.079-.239-.934 5.267 5.799 7.08 5.107 1.374 9.907-5.813 11.041-8.426 1.36-3.133 7.827-4.72 11.227-4.48 2.773.201 4.293 1.667 7 2.281 2.04.453 3.786 10.667 10.213 10.066 1.773-.16 3.76-2.48 4.426-4.134 1.12 2.12 3.934 2.414 6.214 1.654 2.013-.667 3.786-5.267 2.747-11.053-.587-3.294-1.094-7.587-.96-11.454.253-6.946 1.173-12.772-.467-19.533-.813-3.346-4.493-15.346-18.44-18.44-4.546-1-9.28-2.16-13.2.333l-.613.226z"/><path fill="#C22912" d="M128.6 67.494a35.41 35.41 0 0 0-.534 8.56c.107 1.72.374 3.547 1.467 4.894 1.08 1.347 3.227 1.973 4.586.893.08 2.24.201 4.613 1.44 6.48 1.707 2.586 5.547 4.76 8.547 4.013 3.013-.733 5.2-4.093 7.106-6.533.24-.307.52-.64.906-.681.374-.053.72.214.987.507 1.266 1.413 1.467 3.493 2.506 5.066 1.426 2.173 4.36 3.093 6.893 2.467 2.521-.627 4.987-1.014 6.827-2.854 1.467-1.467 2.907-4.28 2.733-6.867 1.24 1.307 3.374.613 4.814-.493 4.786-3.68 2.853-10.907 3.133-12.707.413-2.76-.96-4.333-2.587-6.627-.333-.467-3.013 2.48-3.533 2.227-.547-.253-1.16-.293-1.76-.32-14.667-.84-29.693-1.627-43.747 2.653l.216-.678z"/><path fill="#C7CCD1" d="M144.107 90.307l17.533-.267 2.76 6.48-8.693 7.879-12.293-4.839z"/><path fill="#F5BAB8" d="M147.24 84.053l-1.84 14.36s8.094 8.84 15.467 2.213l-1.84-17.121-11.787.548z"/><path fill="#DB9696" d="M145.907 83.68s2.76 4.72 7.04 4.84c5.106.134 8.014-5.253 8.014-5.253l-15.054.413z"/><path fill="#FAC2BF" d="M130.88 61.346c.053-3.28.466-6.586 1.533-9.692 2.346-6.814 7.959-12.454 14.827-14.614 6.879-2.146 16.32-.346 21.787 4.333 5.467 4.693 7 14.121 7 14.121 1.854 7.413-.373 21.013-4.92 25.399-5.507 5.307-16.12 6.267-23.667 4.974-4-.693-8.347-2.453-11.227-5.32-4.253-4.267-5.44-13.174-5.333-19.201z"/><path fill="#FAC2BF" d="M181.92 62.773c-.494-1.907-1.68-3.987-3.64-4.2-1.493-.16-3.84.28-5.12 1.066-1.84 1.12-2.027 1.76-2.76 2.653l.106.653c-.133 3.267.134 6.56.8 9.76 3.213.267 6.88.387 9.16-1.894 2.001-2.024 2.174-5.278 1.454-8.038z"/><path fill="#F5BAB8" d="M177.533 63.627c-.546 1.093-1.546 4.6-.947 4.893.507.253 2.453-2.773 3-3.866.667-1.321-1.386-2.334-2.053-1.027z"/><path fill="#FAC2BF" d="M125.586 62.773c.507-1.907 1.681-3.987 3.64-4.2 1.494-.16 3.854.28 5.133 1.066 1.827 1.12 2.013 1.76 2.76 2.653l-.119.655a39.969 39.969 0 0 1-.8 9.76c-3.213.267-6.879.387-9.146-1.894-2.014-2.026-2.174-5.28-1.468-8.04z"/><path fill="#F5BAB8" d="M129.48 64c.653 1.04 1.987 4.426 1.427 4.787-.48.293-2.72-2.533-3.374-3.56-.786-1.254 1.16-2.467 1.947-1.227z"/><path fill="#303030" d="M164.2 68.387c.067 1.107-.026 2.093-.266 3.187-.387 1.786-2.293 1.653-2.494.253-.16-1.106-.146-2.24-.227-3.347-.12-1.92 2.853-2.013 2.987-.093zm-18.747-.374c.067 1.12-.027 2.106-.266 3.2-.387 1.773-2.294 1.64-2.494.24-.16-1.107-.146-2.227-.213-3.346-.134-1.907 2.853-2.014 2.973-.094z"/><path fill="#F5BAB8" d="M172.16 74.96c-.067-.693-.374-1.507-1.36-1.667-2.494-.413-5.827-.733-8.134.507-.946.506-1.813 1.479-1.36 2.613.467 1.187 2 1.467 3.08 1.72 2.066.507 5.28.626 6.88-1.173.547-.627 1.027-1.173.894-2zm-37.306-.213c-.187-.72.066-1.533.947-1.653 2.2-.32 5.16-.52 7.253.72.867.507 1.653 1.44 1.293 2.507-.373 1.093-1.733 1.307-2.692 1.52-1.827.4-4.96.627-6.44-1.12-.508-.601-.615-1.361-.361-1.974z"/><path fill="#DB9696" d="M155.947 75.64s-1.547.453-2.72.453c-1.187-.013-2.333-.293-2.333-.293s2.933 3.213 5.053-.16z"/><path fill="#303030" d="M158.36 79.76c-2.893 2.267-6.76 2.201-9.533-.227-.76-.68.08-1.414.853-.733 2.254 1.973 5.347 1.56 7.707-.294.813-.639 1.773.614.973 1.254z"/><path fill="#3B3DB0" d="M128.2 63.093c-.546 3.106-.387 6.307.134 9.427.24 1.4.413 3.467 1.946 4.013 1.533.547 3.854.146 5.44.121 2.653-.054 5.307-.147 7.959-.281 1.333-.066 3.48.187 4.747-.36 1.24-.533 1.187-1.947 1.253-3.146.16-2.6.053-5.28-.186-7.88-.121-1.24-.041-2.693-1.28-3.307-1.893-.959-5.267-.613-7.307-.667-3.987-.093-8.067.067-11.934 1.12-1.333.36-.773 2.453.587 2.08 3.56-.973 7.293-1.106 10.973-1.04 1.96.04 5.133-.32 6.96.547-.827-.387-.227-.467-.253.413-.014.427.093.92.133 1.347a54.89 54.89 0 0 1 .174 3.92c.027 1.227.066 2.48-.041 3.693-.026.36-.12.747-.12 1.106 0 .627.747-.307.387-.253-4.307.533-8.787.506-13.12.547-.947.013-1.88-.014-2.827 0-.213 0-.907.066-1.08-.067.453.333.293.067.16-.293-1.187-3.026-1.16-7.32-.613-10.467.241-1.359-1.852-1.946-2.092-.573zm48.24.574c.547 3.066.667 7.56-.613 10.467-.227.533-.12.48.173.293-.213.134-.854.067-1.08.067-.867.013-1.72.013-2.586.013-4.414-.053-8.974-.013-13.373-.56-.347-.054.399.88.386.253 0-.346-.093-.76-.12-1.106-.107-1.213-.066-2.48-.04-3.693.026-1.307.08-2.626.186-3.92.041-.573.427-2.32.08-1.986-.373.346 1.627-.041 2.147-.08a59.015 59.015 0 0 1 4.6-.24c3.681-.066 7.414.067 10.987 1.04 1.346.373 1.92-1.72.573-2.08-5.653-1.547-12.506-1.707-18.266-.653-3.454.638-2.494 6.678-2.494 9.345.013 1.213-.32 3.867.693 4.84.787.733 2.467.547 3.44.601 4.707.293 9.693.799 14.4.373 1.72-.16 2.16-.986 2.574-2.653.88-3.48 1.04-7.36.426-10.894-.24-1.374-2.32-.787-2.093.573z"/><path fill="#3B3DB0" d="M149.6 68.747a20.83 20.83 0 0 1 7.106.027c1.36.24 1.947-1.84.573-2.08a23.806 23.806 0 0 0-8.253-.027c-1.372.226-.786 2.306.574 2.08z"/><path fill="#FC452E" d="M177.093 51.387c.106-3.414.133-7.107-1.867-9.88-1.373-1.879-3.547-3.066-5.787-3.693-2.253-.626-4.973-1.826-7.307-1.973-4.213-.24-8.44-.56-12.64-.2-4.2.347-8.427 1.426-11.947 3.733-3.52 2.32-7.773 5.894-8.347 10.067-.2 1.427-1.68 7.521-.693 8.56l2.214.56c4.04-.44 14.106-5.72 16.706-8.84-1.799 4.693-.493 7.267.681 8 2.093 1.307 11.293-1.44 13.146-6.28-.933 3.547-.547 6.16 1.627 6.28 2.36.146 6.92-2.64 7.186-6.894 1.667 6.6 2.707 6.44 6.627 7.587.068-2.174.335-4.854.401-7.027z"/><path fill="#80D1E0" d="M143.827 94.733s7.28 3.307 18.92.547l6.587 7-16.107 23.373-10.773-15.279 1.373-15.641z"/><path fill="#D9DBDB" d="M174.854 171.507c-1.107-13.627-3.667-58.32-3.547-58.92.16-.76 4.426-9.76 4.426-9.76 2.014 2.025 3.561 3.813 4.787 5.532 1.213 1.72 2.72 7.36 3.493 11.587 2 10.975 7.414 48.24 7.414 49.721-2.587 1.466-10.32 1.466-16.573 1.84z"/><path fill="#E8EBEB" d="M140.613 94.187l-10.093 7.599c1.16 5.054 4.387 9.054 4.933 11.081.454 1.64-8.146 58.813-7.653 59.372.413.468 1.093.547 1.706.613 7.547.667 15.134.734 22.693.201.48-.041 1.027-.107 1.294-.507.146-.2 2.093-50.694 1.106-50.747-3.12-.187-10.68-28.36-13.8-28.546l-.186.934z"/><path fill="#D1D1D1" d="M137.293 96.667l-1.84 1.373 4.334 4.881-1.84 5.438 9.293 11.868 2.12-5.988-8.653-18.226-2.587.28z"/><path fill="#D9DBDB" d="M144.107 90.307s9.946 27.894 9.946 30.106l-.827 5.24-13.813-17.666 1.933-5.254-5.799-6.626s.826-1.427 3.586-3.453c2.76-2.014 4.974-2.347 4.974-2.347z"/><path fill="#E8EBEB" d="M166.146 94.187l10.094 7.599c-1.16 5.054-4.374 9.054-4.934 11.081-.44 1.64 8.16 58.813 7.667 59.372-.413.468-1.093.547-1.72.613-7.533.667-15.134.734-22.68.201-.48-.041-1.027-.107-1.307-.507-.187-.267.319-50.694 1.333-51.493.773-.601 6.894-25.44 7.867-25.494 3.133-.187.387-2.12 3.506-2.307l.174.935z"/><path fill="#D1D1D1" d="M141.44 122.72l-4.24-.186-1.093 41.786 38.467-.547-4.134-38.12zm28.08-26.053l1.84 1.373-4.333 4.881 1.84 5.438-9.293 11.868-2.121-5.988 8.654-18.226 2.573.28z"/><path fill="#D9DBDB" d="M161.64 90.04s-8.414 30.653-8.414 32.854v4.693l14.08-19.88-2.346-4.907 6.493-6.133s-2.346-2.493-4.56-4.146c-2.213-1.641-5.253-2.481-5.253-2.481z"/><path fill="#3B3DB0" d="M138.96 132.84l.36-13.987 34.987-.373 2.013 41.973-37.92.921z"/><path fill="#2E3B8A" d="M143.92 124.653l-.133-5.826 26.147-.267.132 5.627z"/><path fill="#FFB03D" d="M159.48 116.094a1.684 1.684 0 0 1-2.36.16 1.682 1.682 0 0 1-.159-2.36 1.682 1.682 0 0 1 2.36-.16c.692.613.759 1.665.159 2.36zm8.16.493h-4.24s.187-7.307-4.773-7.307-6.867 7.027-6.867 7.027l-5.04-.175.08 6.308 21.013-.268-.173-5.585z"/><path fill="#D9DBDB" d="M157.36 132.106c-6.08.413-17.479 1.107-23.934 1.467.667-5.319 2.16-20.387 2.027-20.986-.16-.76-4.414-9.76-4.414-9.76-2.026 2.025-3.573 3.813-4.786 5.532-1.227 1.72-2.733 7.36-3.507 11.587-2 10.975-4.227 23.573-4.08 32.28 0 .56.187 1.133.521 1.573.573.773 1.626.961 2.573 1.014 6.427.359 13.88-.173 19.96-2.279 5.333-1.842 12.426-3.975 16.934-6.628 1.133-2.359.293-7.333-1.294-13.8z"/><path fill="#FAC2BF" d="M177.893 132.626c-.187-.453-.72-.68-1.187-.799a215.981 215.981 0 0 0-9.16-2.147c-.56-.12-1.133-.239-1.68-.079-.8.227-10.066 3.934-9.947 4.759l1.374 9.521c.013.44 4.733-1.399 4.974-1.027.413.641 3.786.387 4.56.348 3.307-.213 5.76-.946 8.267-2.493.534-.333 1.2-2.173 1.04-2.773-.067-.241.546-1.241.6-1.493.201-1.147-.333-1.8.387-2.16.733-.377 1.025-1.016.772-1.657z"/><path fill="#F5BAB8" d="M168.733 134.707c2.267.013 4.507.12 6.761.359.613.054.68-.479.066-.532-2.253-.227-4.507-.761-6.76-.773-.613 0-.68.946-.067.946zm-.346 3.72a66.23 66.23 0 0 1 6.733-.707c.613-.04.587-.572-.026-.547-2.253.135-4.56-.025-6.8.32-.601.094-.521 1.027.093.934zM169 141c1.547-.347 3.506-.399 5.093-.601.44-.066.387-.426-.04-.373-1.586.2-3.64-.026-5.187.333-.414.094-.467.761-.054.667L169 141z"/><path fill="#2E3B8A" d="M241.147 131.187c-.975-2.213-2.308-4.533-4.574-5.347-2.16-.786-4.693.081-6.266 1.761-1.562 1.68-2.268 4.025-2.374 6.32l.573-2.734c.693 6.854-2.44 16.4-3.573 23.188-.066.346 6.56 2.88 8.827 2.773 5.799-.28 11.466-1.507 13.813-4.694.387-7.587-3.373-14.307-6.426-21.267z"/><path fill="#121769" d="M241.773 130.773c-.894-2.254-2.934-4.12-5.2-4.934-2.16-.786-4.693.081-6.266 1.761-1.562 1.68-2.229 2.252-2.334 4.547l.96 1.932c1.239 3.455 3.573 4.881 5.8 5.387 3.587.827 9.188-3.319 7.04-8.693z"/><path fill="#3B3DB0" d="M198.04 75.187c.586-.827 22.973-1.054 33.066-.72 13.453.453 27.133 1.494 40.494 3.146l.186 2.227c1.201 19.586-3 55.16-3.68 55.626-.853.574-72.186-2.879-72.959-3.586-1.107-1.013 2.413-56.013 2.893-56.693z"/><path fill="#FFF" d="M205.254 84.693c.466-.654 18.133-.72 26.212-.453 10.773.346 21.788 1.08 32.494 2.4l.094 2.2c-.147 14.587-2.147 37.987-2.694 38.374-.68.453-57.786-2.308-58.413-2.881-.881-.799 1.92-39.093 2.307-39.64z"/><path fill="#2E3B8A" d="M235.974 79.813c0 .613-.493 1.107-1.106 1.107a1.112 1.112 0 0 1-1.106-1.107c0-.6.506-1.093 1.106-1.093.612 0 1.106.493 1.106 1.093z"/><path fill="#FC452E" d="M212.88 91.987c.014 2.2-.2 4.227-.2 6.427 2.106-.16 4.427-.027 6.534.026.106-1.68.279-3.52.053-5.786-.027-.228-.106-.467-.279-.587-.16-.12-.361-.12-.561-.106l-5.106.079-.441-.053z"/><path fill="#E8EDF5" d="M222.813 93.627c-.08 1.613-.16 2.48.187 4.053 7.733-.186 32.239 1.307 32.214 1.107-.066-.667.427-4.307.186-4.613-.32-.387-22.213-1.56-32.387-.733l-.2.186z"/><path fill="#FFB03D" d="M212.333 101.733c0 2.213-.2 4.227-.2 6.439 2.106-.16 4.414-.025 6.521.027.107-1.681.293-3.533.054-5.787-.015-.227-.094-.467-.28-.6-.146-.106-.36-.106-.547-.106-1.707.039-3.414.066-5.119.093l-.429-.066z"/><path fill="#E8EDF5" d="M222.267 102.827c-.094 1.613-.173 2.48.174 4.053 7.732-.188 32.239 1.307 32.227 1.107-.066-.667.412-4.308.173-4.601-.306-.399-22.214-1.56-32.387-.733l-.187.174z"/><path fill="#80D1E0" d="M211.786 111.133c0 2.2-.213 4.227-.199 6.427 2.093-.16 4.413-.025 6.52.027.107-1.681.293-3.521.054-5.787-.027-.227-.106-.467-.28-.586-.16-.12-.36-.12-.56-.12-1.694.039-3.399.066-5.106.093l-.429-.054z"/><path fill="#E8EDF5" d="M221.707 112.773c-.081 1.613-.16 2.48.187 4.054 7.732-.187 32.239 1.306 32.213 1.106-.066-.667.428-4.308.187-4.613-.306-.387-22.214-1.56-32.387-.733l-.2.186z"/></svg>