<svg xmlns="http://www.w3.org/2000/svg" width="380" height="200"><path clip-rule="evenodd" fill="none" d="M0 0h380v200H0z"/><path fill="#E8EDF5" d="M90.32 72.627c14.2-52.6 70.693-56.534 70.693-56.534 35.427-1.6 62.241-2.187 89.76 15.8 9.079 5.92 17.601 13.453 22.946 23.134 4.827 8.76 6.773 18.786 7.293 28.56.387 7.56-.066 15.307-3.079 21.92-2.773 6.094-7.547 10.84-12.587 14.974-12.16 10-26.32 17.227-41.093 22.64-17.44 6.399-36.121 10.36-55.121 8.747-18.987-1.601-38.374-9.16-52.8-23.267C101.893 114.493 85.2 91.533 90.32 72.627z"/><path fill="#C22912" d="M117.307 101.68c.773 1.934-.76 4.333-2.813 4.628-2.054.293-4.121-1.361-4.494-3.414-.92 1.493-3.187 1.72-4.64.732-1.453-.973-2.133-2.813-2.146-4.573-.014-2.307 1.054-4.627 2.88-6.026 1.84-1.414 4.427-1.813 6.561-.92 1.133.479 2.106 1.293 2.906 2.213 1.827 2.066 2.893 4.947 2.253 7.613l-.507-.253z"/><path fill="#C7CCD1" d="M146.453 115.214l-19.546-.32-3.08 7.239 9.693 8.773 13.707-5.386z"/><path fill="#E57A3B" d="M142.96 108.227l2.053 16.013s-9.026 9.854-17.227 2.468l2.04-19.094 13.134.613z"/><path fill="#D16B36" d="M144.64 109.173s-3.054 3.748-7.827 3.881c-5.693.16-9.44-3.494-9.44-3.494l17.267-.387z"/><path fill="#E57A3B" d="M160.107 78.213c-.307-3.8.227-5.733-1.253-9.253-3.227-7.72-10.174-13.841-18.307-15.8-8.133-1.96-18.934.84-24.907 6.693-5.974 5.853-7.04 16.893-7.04 16.893-1.573 8.747 2.054 24.347 7.667 29.081 6.786 5.72 18.986 6.52 27.613 4.439 4.6-1.106 9.693-3.986 12.799-7.533 4.601-5.266 4.014-17.546 3.428-24.52z"/><path fill="#E57A3B" d="M102.333 85.64c.426-2.253 1.64-4.733 3.893-5.134 1.72-.307 4.48.027 6.027.827 2.2 1.16 2.479 1.893 3.4 2.88l-.08.747a46.539 46.539 0 0 1-.187 11.386c-3.693.561-7.934.974-10.747-1.493-2.493-2.186-2.919-5.96-2.306-9.213z"/><path fill="#D16B36" d="M107.48 86.307c.72 1.227 2.147 5.213 1.48 5.6-.574.333-3.054-3.04-3.787-4.253-.866-1.481 1.44-2.827 2.307-1.347z"/><path fill="#303030" d="M128.867 88.307c0 1.293.187 2.426.547 3.68.586 2.04 2.786 1.733 2.92.093.093-1.293-.013-2.6-.013-3.893-.001-2.227-3.467-2.121-3.454.12zm21.693-1.867c.014 1.293.2 2.427.56 3.68.574 2.027 2.787 1.734 2.907.094.106-1.293 0-2.6 0-3.907-.014-2.214-3.467-2.107-3.467.133z"/><path fill="#F5BAB8" d="M119.654 98.893c.026-.8.319-1.76 1.453-2.026 2.854-.68 6.706-1.307 9.479-.04 1.134.52 2.2 1.573 1.76 2.933-.439 1.4-2.2 1.841-3.426 2.228-2.36.732-6.08 1.133-8.066-.84-.694-.681-1.294-1.281-1.2-2.255zm38.399-3.146c.146-.693-.12-1.426-.907-1.467-1.973-.106-4.626-.04-6.467 1.294-.746.546-1.413 1.493-1.053 2.453.373 1 1.6 1.08 2.466 1.2 1.64.227 4.454.16 5.707-1.6.441-.6.508-1.32.254-1.88z"/><path fill="#D16B36" d="M141.6 97.187s1.826.399 3.187.307c1.374-.107 2.68-.521 2.68-.521s-3.147 3.948-5.867.214z"/><path fill="#121769" d="M167.173 80.84c.8 3.36.866 6.854.547 10.28-.146 1.547-.187 3.814-1.76 4.521-1.574.706-4.054.426-5.72.493-2.8.134-5.613.213-8.427.267-1.399.014-3.653.44-5.013-.066-1.347-.494-1.4-2.027-1.56-3.333-.347-2.84-.44-5.747-.374-8.6.04-1.36-.134-2.947 1.12-3.707 1.933-1.173 5.507-1.04 7.653-1.227 4.187-.387 8.506-.506 12.653.373 1.439.307.986 2.627-.454 2.32-3.827-.814-7.787-.707-11.653-.374-2.067.174-5.427.014-7.294 1.08.84-.48.2-.521.294.44.04.453-.041 1.014-.041 1.467a76.861 76.861 0 0 0 .094 4.293c.053 1.333.106 2.707.307 4.027.066.387.186.8.213 1.187.053.693-.799-.267-.426-.253 4.573.293 9.293-.054 13.866-.307 1-.054 1.987-.146 2.987-.2.227-.014.946.013 1.133-.147-.454.387-.32.094-.187-.32 1.027-3.374.693-8.053-.12-11.44-.344-1.468 1.816-2.254 2.162-.774zm-51.759 4.067c-.374 3.373-.187 8.28 1.426 11.36.293.573.16.52-.16.333.227.133.934 0 1.187-.014a187.74 187.74 0 0 0 2.8-.173c4.813-.36 9.787-.667 14.533-1.574.387-.08-.36 1-.399.307-.014-.373.053-.84.053-1.213.027-1.333-.107-2.707-.213-4.041a66.091 66.091 0 0 0-.48-4.253c-.094-.613-.654-2.494-.24-2.16.426.36-1.773.08-2.346.067-1.681-.041-3.36 0-5.041.08-4 .186-8.08.6-11.893 1.92-1.44.506-2.214-1.734-.773-2.227 6.04-2.094 13.506-2.76 19.866-2.027 3.814.453 3.201 7.106 3.387 10 .08 1.32.627 4.2-.413 5.333-.787.853-2.64.773-3.693.906-5.106.654-10.507 1.574-15.667 1.427-1.893-.041-2.426-.907-3-2.693-1.213-3.734-1.68-7.947-1.253-11.841.158-1.504 2.479-1.024 2.319.483z"/><path fill="#121769" d="M145.04 88.506a22.96 22.96 0 0 0-7.746.533c-1.467.374-2.254-1.866-.773-2.227a26.148 26.148 0 0 1 8.986-.626c1.52.147 1.026 2.468-.467 2.32z"/><path fill="#80D1E0" d="M146.76 120.133s-8.106 3.694-21.08.613l-7.346 7.801 22.227 20.586 7.747-11.56-1.548-17.44z"/><path fill="#D9DBDB" d="M112.854 170.507c1.227-15.187 2.107-31.026 1.959-31.68-.173-.854-6.026-12.135-6.026-12.135-2.253 2.254-3.307 3.16-4.653 5.068-1.374 1.932-2.613 10.547-3.479 15.266-2.228 12.228-3.427 28.947-3.427 30.587 2.879 1.641 8.652-7.519 15.626-7.106z"/><path fill="#E8EBEB" d="M149.027 118.308c3.76 2.825 5.92 4.746 9.667 7.572 2.84 1.52 4.36 5.881 4.867 9.733.253 1.894 4.493 40.694 3.934 41.308-.454.52-1.214.626-1.907.692-8.399.746-16.12.187-24.547-.413-.533-.04-.667-2.734-.973-3.174-.16-.227-1.053-27.053-.64-25.627.947 3.347 5.92-30.919 9.4-31.133l.199 1.042z"/><path fill="#D1D1D1" d="M154.053 122.293l2.054 1.534-4.827 5.44 2.547 7.573-13.8 13.387 4.84-13.814 5.386-14.84 2.867.307z"/><path fill="#D9DBDB" d="M146.453 115.214s-6.826 25.6-6.826 28.066l.933 5.853 11.12-14.227-2.146-5.84 5.107-7.853-8.188-5.999z"/><path fill="#E8EBEB" d="M118.934 119.187c-5.68 2.84-8.52 4.467-11.36 7.92 3.653 4.054 6.626 9.761 7.239 12.026.507 1.827-3.693 33.934-3.133 34.547.467.521 1.213.628 1.907.68 8.4.761 16.867.827 25.294.228.533-.04 1.133-.121 1.44-.561.213-.293 1.253-24.733.12-25.627-.866-.68-14.68-28.493-15.773-28.56-3.479-.199-.227.36-3.706.16l-2.028-.813z"/><path fill="#D1D1D1" d="M116.907 119.601l-2.64 1.412 6.64 8.254-2.053 6.053 20.359 14.907-3.373-13.814-13.906-14.84-2.881.307z"/><path fill="#D9DBDB" d="M126.907 114.906s13.653 28.681 13.653 31.147l.187 5.692-20.147-17.144 2.613-5.468-7.934-9.746 11.628-4.481z"/><path fill="#FC452E" d="M169.307 66.16c2.387 1.04 2.414 5.053.414 6.773-2 1.733-5 1.493-7.32.307.573 2.959-1.333 6.213-4.106 6.986-2.773.773-5.96-1.04-6.867-3.92-1.266 2.467-2.799 5.027-5.239 6.173-2.44 1.147-5.96.08-6.521-2.667-1.36 1.747-2.866 3.627-4.96 4.094-2.613.587-5.466-1.653-5.693-4.454-1.56 1.68-3.466 3.121-5.667 3.507-2.2.386-4.692-.467-5.826-2.494-.667 2.013-2.026 3.84-3.907 4.626-1.88.773-4.253.333-5.52-1.32-.466 2.4-2.507 4.44-4.813 4.533-2.319.107-4.6-1.973-4.6-4.426-2.186-1.267-3.253-4.32-2.359-6.773.879-2.467 2.853-6.36 5.28-5.773-1.733-.827-2.946-2.574-3.147-5.08-.173-1.974.253-4.8 1.586-6.173 1.681-1.734 4.387-1.494 6.72-1.133-.76-2.747-.6-5.76.467-8.4.6-1.494 2.574-2.747 4-3.374 2.627-1.134 6.146 1.547 8.267 3.533.373-2.36 1.266-4.707 2.906-6.373 1.627-1.68 4.053-2.587 6.24-1.96 2.2.627 3.946 2.973 3.653 5.36 1.053-3.626 3.293-5.093 6.027-6.066 1.867-.667 4.853.32 6.386 1.627 1.534 1.307 2.374 3.466 2.147 5.533 1.266-1.133 2.573-2.28 4.12-2.893s3.44-.587 4.72.52c2.133 1.827 1.627 5.32.934 8.121 1.386-.507 2.799-1.027 4.266-.96 1.467.053 3.014.813 3.601 2.24.693 1.68-.121 3.613-.934 5.253 1.28-.667 2.934-.414 3.987.586s1.44 2.707.959 4.107l.799.36z"/><path fill="#E57A3B" d="M144.68 175.026c6.707-.053 8.8 2.6 10.974 5.627-2.041.066-6.014.601-8.054.547-2.213-.04-4.507-.174-6.52-1.094a19.955 19.955 0 0 1 3.08-5.439l.52.359z"/><path fill="#D9DBDB" d="M145.506 173.761c.107 3.426-2.76 6.959-3.04 7.293-.24.293-14.107.934-19.121 1.732-8.186 1.308-18.706 1.507-25.253-3.56-.28-.214-.573-.466-.667-.8-.08-.36.054-.72.187-1.053 1-2.507 6.76-7.268 8.747-9.094 5.2-4.814 28.427 2.094 38.48 5.453l.667.029z"/><path fill="#303030" d="M138.373 102.293c.053-.093.16-.12.267-.16 2.106-.599 3.934-.706 6.08-.8.84-.025 1.973-.066 2.733.201a.407.407 0 0 1 .24.293.747.747 0 0 1-.053.333c-.773 2.106-2.627 3.733-4.64 4.094l-.414.026c-1.533-.187-2.64-1.066-3.667-2.307-.32-.4-.613-.88-.613-1.427a.438.438 0 0 1 .067-.253z"/><path fill="#FFB03D" d="M151.08 147.399c1.16-6.106 1.04-12.412.426-18.572-.239-2.4-.56-4.773-1.013-7.135-.147-.719-.294-1.438-.467-2.146-.054-.267-.533-1.28-.134-.88-1.28-1.293.72-3.293 2-2 .773.799.92 2.293 1.134 3.32.506 2.412.854 4.88 1.133 7.333.8 6.906.947 13.96-.347 20.827-.345 1.788-3.065 1.027-2.732-.747zm-29.44-30.16c-.267 8.068.213 16.094 1.36 24.081.253 1.773-2.467 2.547-2.72.746-1.187-8.227-1.733-16.507-1.467-24.827.054-1.812 2.88-1.812 2.827 0z"/><path fill="#FFB03D" d="M127.013 164.453c-.64-7.214.561-12.653-2.267-18.733-.667-1.439-2.467-2.826-4.36-1.613-1.053.68-1.36 2.507-1.467 3.64-.173 1.946-.2 2.747-.253 4.694-.093 4.186.16 7.239 0 11.439-.066 1.813-2.146 1.827-2.187 0-.146-5.653-.173-9.227-.066-14.906.066-3.614 1.453-9.333 6.307-8.267 4.227.919 5.573 7.319 6.053 11.372.28 2.401.426 7.28.146 12.295-.106 1.946-1.906.079-1.906.079zm25.174-17.306c2.68-.227 4.426 1.426 5.626 3.318 1.2 1.908 1.014 4.761-.813 6.054-1.053.761-2.44.88-3.733.761-1.693-.147-3.4-.733-4.601-1.934-1.213-1.187-1.813-3.066-1.2-4.667.6-1.573 2.173-2.52 3.707-3.227l1.014-.305z"/><path fill="#E3942E" d="M152.547 149.547c1.414-.12 2.32.746 2.959 1.746.627.987.521 2.48-.44 3.16-.546.399-1.266.468-1.947.399-.879-.079-1.773-.387-2.413-1.013-.626-.626-.947-1.613-.626-2.44.32-.826 1.146-1.32 1.947-1.692l.52-.16z"/><path fill="#EB9C59" d="M210.507 141.507c-1.374 5.373-3.014 11.146-4.413 16.16-2.894-8.359-9.786-26.534-10.547-26.867-.56-.227-1.188-.133-1.773-.026a40.24 40.24 0 0 0-5.027 1.32c-.413.146-.854.319-1.08.692-.24.374 2.56 18.654 3.947 27.32.308 1.894.626 3.814 1.48 5.534 1.013 2.052 2.28 5.28 3.96 6.825 1.626 1.508 7.239 4.761 7.68 4.814.414.053 3.307-.987 3.653-1.227 15.906-10.547 17.054-26.694 17.453-32.041-4.573-1.532-8.026-4.906-12.813-5.466l-2.52 2.962z"/><path fill="#121769" d="M223.867 112.894c-1.613.493-7.574 2.387-8 3.133-2.813 4.974-4.921 13.228-6.641 20.841-.746 3.333-.973 7.44-2.44 10.52 3.934 1.853 9.107 3.653 13.414 3.026.266-.039-.279-1.879-.08-2.054.279-.239.346-.626.387-.985 1.56-11.654 3.119-23.308 4.693-34.961l-1.333.48z"/><path fill="#EB9C59" d="M284.28 152.413c-.041 7.813-.094 15.72-2.627 23.267-.294.854-2.373 5.88-2.946 5.747-1.04-.254-2.147-.134-3.094-.574-2.094-.959-2.987-5.545-5.066-6.506-.507-.24-1.054-.494-1.293-.92-.16-.279-.175-.6-.175-.907-.053-5.894 1.494-11.919-.426-17.613-.066-.187-.134-.399.026-.56.134-.133.36-.16.574-.187 4.786-.414 9.573-.84 14.347-1.267l.68-.48z"/><path fill="#3B3DB0" d="M218.52 149.387c-.306-5.68-.347-20.333 2.267-28.707 1.507-4.813.654-7.946 3.573-9.239 5.427-2.414 19.134-6.975 29.36-4.707h2.8c8.227 1.08 20.801 7.307 28.333 13.399 1.401 1.147 3.734 12.613 4.107 14.067 1.467 5.721.84 17.12.32 17.866-.359.534-9.133 2.667-16.746 2.027-.201 7.013-.613 14.293-.801 21.306-16.721 1.241-34.76-.586-53.693-.88.8-6.812.854-18.265.48-25.132z"/><path fill="#F5BAB8" d="M272.946 78.707c-.547.973-1.6 4.106-1.079 4.4.453.253 2.347-2.414 2.894-3.387.652-1.16-1.16-2.173-1.815-1.013z"/><path fill="#EB9C59" d="M277.88 177.308c-2.641-5.334.307-7.801-5.521-9.241-3.293-.827-15.347 1.254-18.64 2.081-9.572 2.399-12.813 4.545-21.732 4.545-.295 0-.374 4.707-.494 6.081 17.773 5.48 29.52 4.613 47.041.761l-.654-4.227z"/><path fill="#EB9C59" d="M210.813 178.573c.573-.733 1.066-1.146 1.866-1.613 2.801-1.652 5.84-4.054 7.134-4.133 2.667-.174 5.933-.761 8.6-.654 1.707.066 4.867.573 7.707 2.44.986.641-1.387 6.399-1.387 6.399-1.561 1.387-3.387 2.28-5.827 2.188-2.093-.08-3.52-.267-5.12-1.627-.572-.479-1.493-1.214-2.199-1.507-.653-.28-5.895 1.921-6.88 1.921-.987 0-2.56-.934-3-1.214-.333-.226-1.453-1.465-.894-2.2z"/><path fill="#121769" d="M268.68 127.547c.28-.641 4.254-4.32 5.72-5.653.627-.586 1.28-1.174 2.094-1.467.854-.307 1.787-.254 2.693-.2 2.867.16 6.094.507 7.854 2.601.84 1 1.214 2.267 1.533 3.506 2.294 8.787 1.961 27.52 1.961 27.52.466 1.135-1.135 2.027-2.414 2.308a40.431 40.431 0 0 1-19.307-.493c.387-8.627.28-17.268-.333-25.881-.054-.762-.107-1.549.199-2.241z"/><path fill="#E57A3B" d="M206.094 157.667l1.16-3.827s5.105 5.12 2.187 11.921c-.001 0-.868-5.334-3.347-8.094z"/><path fill="#EB9C59" d="M175.187 115.707c-.041-.066-.761-1.267.319-2.173.16-.135 1.48-.027 1.387-.201-.6-1.359.8-2.387 1.96-1.493 2 1.573 5.173 5.399 7.12 7.04-.733-1.613-1.773-3.641-2.506-5.267-.574-1.28-1.4-2.867-.494-3.934.227-.267.547-.466.894-.479.573-.014 1.026.453 1.387.894 3.133 3.733 5.466 7.759 7.466 12.214-.04-2.175-.094-3.601 1.12-5.401.414-.586.813-.64 1.493-.413.601.214.8.934.894 1.561.293 2 .36 4.025.44 6.053.119 3.014.106 6.387-1.947 8.601-1.626 1.746-4.387 2.293-6.56 1.333-1.72-.773-6.867-5.893-7.973-7.414-.707-.973-7.054-1.973-6.707-4.053.28-1.573 7.374 1.56 7.253 1.119-.133-.455-5.066-7.281-5.546-7.987z"/><path fill="#E57A3B" d="M187.133 118.254s-4.946 2.026-6.64 7.613l6.64-7.613zm5.493 5.72s-3.346 2.92-2.813 6.28c0 0 .653-3.094 2.813-6.28zm-10.159-4.053l-4.973-5.947s1.506 4.546 4.973 5.947z"/><path fill="#121769" d="M232.626 81.76s2.387-.439 2.921-2.439c.84-3.08-1.293-3.24-1.293-4.707 0-1.453 2.159-.973 2.159-3.667 0-3.24-14-2.387-16.105-3.36 0 0 1.613 4.867 4.759 8.974 0 0 2.694-.587 4.974 1.2 2.267 1.772 2.585 3.999 2.585 3.999zm4.107 23.907s14.893-5.813 23.732-2.359l-1.84 7.158-10.279 3.241-8.76-.974-2.454-2.813-.399-4.253z"/><path fill="#3B3DB0" d="M280.921 71.72c-.214-.494-.734-.813-.934-1.32-.347-.906-.147-2.986.079-3.933 1.507-6.121 2.04-10.707.601-16.187-1.428-5.493-2.667-9.693-8.334-9.613 0 0-2.653-10.56-14.48-11.479-4.919-.387-7.56-1.014-15.16 1.56-3.652 1.24-6.306 3.387-10.052 4.267-4.254.987-7.134.52-11.401 1.413-4.279.894-8.68 4-11.426 7.387-1.173 1.467-2.04 3.28-1.961 5.147.081 1.879 1.268 3.772 3.081 4.28-1.946.72-3.427 2.693-3.293 4.76.12 2.066 2.079 3.92 4.133 3.68-1.613 1.534-.894 4.467.906 5.787 1.786 1.32 4.188 1.426 6.414 1.307 7.706-.414 15.146-2.88 22.786-3.987 1.627-.227 3.347-.387 4.866.24 1.241.52 2.2 1.52 3.267 2.346 4.934 3.907 8.054 12.213 14.347 12.187 1.16-.013 4.401-4.707 5.308-3.986.813.64-.107 2.76.293 3.733.773 1.827-.866 2.893 3.587 3.987 5.105 1.251 9.065-7.683 7.373-11.576z"/><path fill="#121769" d="M277.28 75.373c-.214-.493-1.733-2.693-1.934-3.2-.346-.906-2.346-3.519-2.812-4.373-6.401-11.867-22.788-15.507-29.773-11.574-10.588 5.947-17.707.067-22.734 1.613-5.253 1.627-9.6 4-8.253 3.84-1.613 1.534-.894 4.467.906 5.787 1.786 1.32 4.188 1.426 6.414 1.307 7.706-.414 15.146-2.88 22.786-3.987 1.627-.227 3.347-.387 4.866.24 1.241.52 2.2 1.52 3.254 2.346 4.946 3.907 8.066 12.213 14.359 12.187 1.16-.013 4.401-4.707 5.308-3.986.813.64-.107 2.76.293 3.733.773 1.827-.973 3.613 3.587 3.987 1.761.133 5.427-4.026 3.733-7.92z"/><path fill="#EB9C59" d="M240.934 98.16l-1.293 10.507c-.081.641-.16 1.293-.106 1.946.158 2.054 1.545 3.786 2.879 5.36.279.319.574.667.986.76.308.08.641.013.947-.08 5.453-1.56 8.533-7.747 13.907-9.547a42.802 42.802 0 0 1-1.827-11.386c-.014-.521-.027-1.08-.36-1.494-.347-.44-.946-.573-1.493-.64-5.066-.613-9.881 2.093-14.12 4.92l.48-.346z"/><path fill="#E57A3B" d="M240.934 98.16c-.241 1.92-.48 3.84-.707 5.761-.2 1.586 3.813 1.545 4.214 1.652.32.08 12.506-3.667 12.213-6.32a45.113 45.113 0 0 1-.227-3.533c-.014-.521-.027-1.08-.36-1.494-.347-.44-.946-.573-1.493-.64-5.066-.613-9.881 2.093-14.12 4.92l.48-.346z"/><path fill="#EB9C59" d="M272.894 75.16c-1.253-2.494-3.066-3.333-5.867-3.32-2.213.014-2.093 4.307-2.906 4.293-1.334-.014-1.773-5.987-1.92-7.32-.508-4.333-2.24-7.626-5.094-11.106-1.946-2.36-5.813-3.667-8.88-3.693-5.586-.066-9.761 3.36-15.347 3.053-2.666-.16-5.013-.733-7.626-1.28-2.601-.533-4.081-.16-5.641 1.987 0 0-.52 18.08-2.054 26.906-.493 2.854-1.066 6.067.641 8.4.986 1.346 2.561 2.12 4.093 2.8a105.002 105.002 0 0 0 13.333 4.906c1.867.547 3.787 1.041 5.733 1.014 2.641-.039 5.147-1.039 7.587-2.026 2.854-1.146 5.707-2.293 8.561-3.453 2.946-1.187 6.267-2.787 7.013-5.88.16-.693.134-2.533.48-2.68 2.573-1.066 5.133-1.799 6.653-4.133 1.534-2.335 2.494-5.974 1.241-8.468z"/><path fill="#303030" d="M228.84 78.654c-.359 1.879-2.613 1.106-2.761-.014-.039-.36-.652.84-.639-.333.04-2.013 3.547-3.32 3.506-1.307 0 0 .08.72-.106 1.654z"/><path fill="#E57A3B" d="M257.254 85.24c-.015-.734-.401-1.28-1.28-1.867-2.574-1.707-6.04-1.28-8.561-.173-1.039.44-2.026 1.387-1.652 2.613.372 1.28 1.959 1.707 3.079 2.08 2.12.707 5.48 1.12 7.293-.64.64-.599 1.187-1.133 1.121-2.013zm-38.2-1.213c-.12-.693.799-1.453 1.587-1.747 3.093-1.2 5.946-.72 7.187.76.6.734 1 1.96.572 2.934-.439.987-1.732 1.08-2.639 1.214-1.748.239-4.707.2-5.947-1.56-.44-.601-1.053-1.042-.76-1.601zM237.466 87s-1.692.146-2.906-.093c-1.213-.253-2.333-.787-2.333-.787s2.36 3.92 5.239.88z"/><path fill="#303030" d="M244.853 79.973c-.146 1.907 2.227 1.76 2.667.72.134-.333.414.986.707-.146.493-1.96-2.534-4.147-3.04-2.201 0 0-.266.681-.334 1.627z"/><path fill="#3B3DB0" d="M217.934 81.533c-.921-.053-1.827-.146-2.747-.2-.133-.013-.479-.013-.746-.054-.014-.066-.066-.213-.107-.36-.893-2.88-.641-6.827.041-9.787 3.306-.56 6.692-.44 10.013-.133 1.786.16 4.613.053 6.359.84.054.121.081.293.054.56-.039.4.027.894.04 1.293a61.014 61.014 0 0 1-.106 3.8c-.054 1.186-.107 2.399-.293 3.573-.041.28-.12.574-.16.854-4.095.188-8.282-.146-12.348-.386zM232.56 81c.334-2.506.414-5.093.361-7.627-.027-1.2.146-2.6-1-3.293-1.773-1.053-5.054-.947-7.027-1.133-3.84-.373-7.787-.507-11.586.24-.508.106-.761.453-.801.84-.014.013-.014.026-.014.04-.747 2.973-.826 6.067-.533 9.107.134 1.374.16 3.387 1.6 4.026 1.44.627 3.707.4 5.24.48 2.574.133 5.146.227 7.72.281 1.294.04 3.348.426 4.601-.014 1.238-.427 1.278-1.787 1.439-2.947zm25.16 3.027a1.56 1.56 0 0 0-.146.36c-.266 0-.6-.053-.76-.066a149.81 149.81 0 0 1-2.493-.174c-4.147-.333-8.427-.613-12.521-1.4 0-.293-.039-.6-.039-.866-.015-1.187.106-2.4.213-3.574.12-1.267.253-2.52.453-3.773.054-.387.334-1.36.347-1.76.44.053 1.573-.08 1.946-.08a62.223 62.223 0 0 1 4.467.093c3.333.174 6.707.534 9.893 1.56.253 2.973.026 7.079-1.36 9.68zm3.386-10.467c0-.013-.013-.027-.013-.04 0-.387-.188-.773-.667-.946-5.36-1.88-12.961-2.228-18.641-1.92-2.025.106-1.84 6.307-2.013 8.879-.081 1.173-.587 3.72.333 4.72.693.773 2.334.693 3.28.827 4.52.6 9.293 1.44 13.88 1.346 1.667-.026 2.146-.786 2.667-2.373 1.094-3.306 1.521-7.04 1.174-10.493z"/><path fill="#3B3DB0" d="M232.761 77.013a20.512 20.512 0 0 1 6.865.52c1.295.333 2-1.64.694-1.973a23.584 23.584 0 0 0-7.974-.6c-1.333.12-.919 2.186.415 2.053z"/><path fill="#E57A3B" d="M267.613 78.373c-.547.96-1.601 4.094-1.079 4.387.453.253 2.346-2.414 2.893-3.373.652-1.174-1.16-2.187-1.814-1.014z"/><path fill="#3B3DB0" d="M230.52 65.24c-.906-.52-2.613-1.32-3.667-1.387-1.813-.094-4.626 1.24-5.119 1.653 0 0-.387 1.08-.227 1.214.227.173 1.826-.333 1.906-.347 2.707-.626 3.974-.227 6.467.053.08.014.174.014.24-.026.053-.054.547-1.08.4-1.16zm12.946.573c1.094-.387 3.107-.933 4.268-.84 2 .173 4.854 1.894 5.32 2.373 0 0 .227 1.121.025 1.228-.279.146-1.946-.587-2.025-.613-2.854-1.014-4.308-.787-7.094-.88-.093 0-.187 0-.253-.053-.054-.055-.414-1.148-.241-1.215zm-.239 30.4c-1.32.093-7.507-.014-8.601.307-.439.12-1.318 3.414-1.079 3.8.106.173 2.214 1.16 2.387 1.253l3.507.854c.986.08 2.692.014 3.68-.119.974-.121 2.906-.961 3.6-1.668.466-.453-2.721-4.48-3.494-4.427z"/><path fill="#303030" d="M231.761 90.68c.066-.08.186-.106.293-.12 2.16-.293 4-.134 6.133.094.826.079 1.961.213 2.666.586a.433.433 0 0 1 .201.32c0 .12-.054.227-.107.333-1.066 1.96-3.133 3.307-5.173 3.374l-.414-.027c-1.492-.414-2.466-1.454-3.293-2.827-.267-.44-.493-.96-.399-1.494a.464.464 0 0 1 .093-.239z"/><path fill="#4C5CBF" d="M236.733 105.667c-1.733 1.572-5.987 3.533-6.026 3.72-.081.32 1.919 8.987 5.093 13.187 2.72-4.227 6.04-6.773 7.533-10.494-1.346-.721-4.68-4.427-6.6-6.413zm29.254 3.506c.025-.306-4.308-3.68-5.521-5.865-5.318 4.719-8.212 6.719-12.506 8.545l-1.413.534c1.013 4.8 2.479 8.667 3.493 13.453a91.312 91.312 0 0 0 15.467-15.72c.213-.293.439-.6.48-.947z"/><path fill="#FFF" d="M204.692 91.4c-.158-.133-.119-.4-.079-.613.466-1.96 1.079-3.613 2.48-4.707 2.227 1.867 3.933 4.093 5.946 6.2l-.027.146c-2.666-.307-5.346-.613-8.025-.933-.107-.013-.214-.026-.295-.093zm1.069 11.16c-.214.041-.401-.173-.521-.346-1.186-1.72-2.013-3.347-1.813-5.214 3.08-.533 6.066-.387 9.187-.574l.094.121c-2.214 1.947-4.44 3.893-6.653 5.84-.081.079-.175.16-.294.173zm9.519 5.213c-.107.173-.374.187-.601.173-2.066-.119-3.866-.439-5.199-1.6 1.507-2.4 3.493-4.359 5.293-6.6h.147c.146 2.586.279 5.16.412 7.747.001.094.015.199-.052.28zm-37.76-1.667c0 .214-.213.374-.4.48-1.747 1.014-3.373 1.706-5.12 1.426-.187-2.893.267-5.666.414-8.573l.133-.094c1.613 2.173 3.227 4.321 4.84 6.494.053.082.119.174.133.267zm7.373-8.426c.173.133.146.4.107.614-.426 2.04-1.04 3.76-2.547 4.893-2.493-1.866-4.44-4.133-6.72-6.28l.027-.16c2.934.28 5.867.56 8.814.827.106.012.226.026.319.106zm-2.747-10.52c.2-.027.4.16.547.333 1.333 1.586 2.32 3.106 2.4 4.879-2.773.547-5.56.454-8.427.68l-.106-.12c1.786-1.867 3.56-3.734 5.347-5.6.066-.065.146-.145.239-.172z"/></svg>