<?xml version="1.0" encoding="utf-8"?>
<!-- Generator: Adobe Illustrator 13.0.0, SVG Export Plug-In . SVG Version: 6.00 Build 14948)  -->
<!DOCTYPE svg PUBLIC "-//W3C//DTD SVG 1.1//EN" "http://www.w3.org/Graphics/SVG/1.1/DTD/svg11.dtd">
<svg version="1.1" id="Layer_1" xmlns="http://www.w3.org/2000/svg" xmlns:xlink="http://www.w3.org/1999/xlink" x="0px" y="0px"
	 width="16px" height="16px" viewBox="0 0 16 16" enable-background="new 0 0 16 16" xml:space="preserve">
<g>
	<rect fill-rule="evenodd" clip-rule="evenodd" fill="none" width="16" height="16"/>
	<path fill-rule="evenodd" clip-rule="evenodd" fill="#A6B5C2" d="M12.6,13.5l-10-10C2.4,3.3,2.4,3,2.6,2.8c0.2-0.2,0.5-0.2,0.7,0
		l10,10c0.2,0.2,0.2,0.5,0,0.7C13.1,13.7,12.8,13.7,12.6,13.5z"/>
	<path fill-rule="evenodd" clip-rule="evenodd" fill="#A6B5C2" d="M2.6,13.5c-0.2-0.2-0.2-0.5,0-0.7l10-10c0.2-0.2,0.5-0.2,0.7,0
		c0.2,0.2,0.2,0.5,0,0.7l-10,10C3.1,13.7,2.8,13.7,2.6,13.5z"/>
</g>
</svg>
