<?xml version="1.0" encoding="utf-8"?>
<!-- Generator: Adobe Illustrator 13.0.0, SVG Export Plug-In . SVG Version: 6.00 Build 14948)  -->
<!DOCTYPE svg PUBLIC "-//W3C//DTD SVG 1.1//EN" "http://www.w3.org/Graphics/SVG/1.1/DTD/svg11.dtd">
<svg version="1.1" xmlns="http://www.w3.org/2000/svg" xmlns:xlink="http://www.w3.org/1999/xlink" x="0px" y="0px" width="300px"
	 height="300px" viewBox="0 0 300 300" enable-background="new 0 0 300 300" xml:space="preserve">
<g id="Layer_1">
</g>
<g id="bg">
	<rect fill-rule="evenodd" clip-rule="evenodd" fill="none" width="300" height="300"/>
</g>
<g id="content">
	<g>
		<path fill-rule="evenodd" clip-rule="evenodd" fill="#EBF5FF" d="M161.2,107.2v-9.1c0-2.5,2-4.5,4.5-4.5h29.1c2.5,0,4.5,2,4.5,4.5
			v9.1c0,2.5-2,4.5-4.5,4.5h-29.1C163.2,111.7,161.2,109.7,161.2,107.2z"/>
		<path fill-rule="evenodd" clip-rule="evenodd" fill="#EBF5FF" d="M135.9,107.2v-9.1c0-2.5,2-4.5,4.5-4.5h12.7c2.5,0,4.5,2,4.5,4.5
			v9.1c0,2.5-2,4.5-4.5,4.5h-12.7C137.9,111.7,135.9,109.7,135.9,107.2z"/>
		<path fill-rule="evenodd" clip-rule="evenodd" fill="#EBF5FF" d="M94,107.2v-9.1c0-2.5,2-4.5,4.5-4.5h29.1c2.5,0,4.5,2,4.5,4.5
			v9.1c0,2.5-2,4.5-4.5,4.5H98.5C96,111.7,94,109.7,94,107.2z"/>
		<path fill-rule="evenodd" clip-rule="evenodd" fill="#EBF5FF" d="M182.2,129.9v-9.1c0-2.5,2-4.5,4.5-4.5h29.1c2.5,0,4.5,2,4.5,4.5
			v9.1c0,2.5-2,4.5-4.5,4.5h-29.1C184.2,134.4,182.2,132.4,182.2,129.9z"/>
		<path fill-rule="evenodd" clip-rule="evenodd" fill="#EBF5FF" d="M114.5,129.9v-9.1c0-2.5,2-4.5,4.5-4.5h55.3c2.5,0,4.5,2,4.5,4.5
			v9.1c0,2.5-2,4.5-4.5,4.5H119C116.5,134.4,114.5,132.4,114.5,129.9z"/>
		<path fill-rule="evenodd" clip-rule="evenodd" fill="#EBF5FF" d="M73.1,129.9v-9.1c0-2.5,2-4.5,4.5-4.5h29.1c2.5,0,4.5,2,4.5,4.5
			v9.1c0,2.5-2,4.5-4.5,4.5H77.6C75.1,134.4,73.1,132.4,73.1,129.9z"/>
		<path fill-rule="evenodd" clip-rule="evenodd" fill="#EBF5FF" d="M245,152.5v-9.1c0-2.5,2-4.5,4.5-4.5h7.9c2.5,0,4.5,2,4.5,4.5
			v9.1c0,2.5-2,4.5-4.5,4.5h-7.9C247.1,157.1,245,155,245,152.5z"/>
		<path fill-rule="evenodd" clip-rule="evenodd" fill="#EBF5FF" d="M203.1,152.5v-9.1c0-2.5,2-4.5,4.5-4.5h29.1c2.5,0,4.5,2,4.5,4.5
			v9.1c0,2.5-2,4.5-4.5,4.5h-29.1C205.1,157.1,203.1,155,203.1,152.5z"/>
		<path fill-rule="evenodd" clip-rule="evenodd" fill="#EBF5FF" d="M161.2,152.5v-9.1c0-2.5,2-4.5,4.5-4.5h29.1c2.5,0,4.5,2,4.5,4.5
			v9.1c0,2.5-2,4.5-4.5,4.5h-29.1C163.2,157.1,161.2,155,161.2,152.5z"/>
		<path fill-rule="evenodd" clip-rule="evenodd" fill="#EBF5FF" d="M135.9,152.5v-9.1c0-2.5,2-4.5,4.5-4.5h12.7c2.5,0,4.5,2,4.5,4.5
			v9.1c0,2.5-2,4.5-4.5,4.5h-12.7C137.9,157.1,135.9,155,135.9,152.5z"/>
		<path fill-rule="evenodd" clip-rule="evenodd" fill="#EBF5FF" d="M94,152.5v-9.1c0-2.5,2-4.5,4.5-4.5h29.1c2.5,0,4.5,2,4.5,4.5
			v9.1c0,2.5-2,4.5-4.5,4.5H98.5C96,157.1,94,155,94,152.5z"/>
		<path fill-rule="evenodd" clip-rule="evenodd" fill="#EBF5FF" d="M52.1,152.5v-9.1c0-2.5,2-4.5,4.5-4.5h29.1c2.5,0,4.5,2,4.5,4.5
			v9.1c0,2.5-2,4.5-4.5,4.5H56.6C54.1,157.1,52.1,155,52.1,152.5z"/>
		<path fill-rule="evenodd" clip-rule="evenodd" fill="#EBF5FF" d="M31.6,152.5v-9.1c0-2.5,2-4.5,4.5-4.5H44c2.5,0,4.5,2,4.5,4.5
			v9.1c0,2.5-2,4.5-4.5,4.5h-7.9C33.6,157.1,31.6,155,31.6,152.5z"/>
		<path fill-rule="evenodd" clip-rule="evenodd" fill="#EBF5FF" d="M182.2,175.2v-9.1c0-2.5,2-4.5,4.5-4.5h29.1c2.5,0,4.5,2,4.5,4.5
			v9.1c0,2.5-2,4.5-4.5,4.5h-29.1C184.2,179.7,182.2,177.7,182.2,175.2z"/>
		<path fill-rule="evenodd" clip-rule="evenodd" fill="#EBF5FF" d="M114.5,175.2v-9.1c0-2.5,2-4.5,4.5-4.5h55.3c2.5,0,4.5,2,4.5,4.5
			v9.1c0,2.5-2,4.5-4.5,4.5H119C116.5,179.7,114.5,177.7,114.5,175.2z"/>
		<path fill-rule="evenodd" clip-rule="evenodd" fill="#EBF5FF" d="M73.1,175.2v-9.1c0-2.5,2-4.5,4.5-4.5h29.1c2.5,0,4.5,2,4.5,4.5
			v9.1c0,2.5-2,4.5-4.5,4.5H77.6C75.1,179.7,73.1,177.7,73.1,175.2z"/>
		<path fill-rule="evenodd" clip-rule="evenodd" fill="#EBF5FF" d="M31.6,175.2v-9.1c0-2.5,2-4.5,4.5-4.5h29.1c2.5,0,4.5,2,4.5,4.5
			v9.1c0,2.5-2,4.5-4.5,4.5H36.1C33.6,179.7,31.6,177.7,31.6,175.2z"/>
		<path fill-rule="evenodd" clip-rule="evenodd" fill="#EBF5FF" d="M245,198.9v-9.1c0-2.5,2-4.5,4.5-4.5h7.9c2.5,0,4.5,2,4.5,4.5
			v9.1c0,2.5-2,4.5-4.5,4.5h-7.9C247.1,203.4,245,201.3,245,198.9z"/>
		<path fill-rule="evenodd" clip-rule="evenodd" fill="#EBF5FF" d="M203.1,198.9v-9.1c0-2.5,2-4.5,4.5-4.5h29.1c2.5,0,4.5,2,4.5,4.5
			v9.1c0,2.5-2,4.5-4.5,4.5h-29.1C205.1,203.4,203.1,201.3,203.1,198.9z"/>
		<path fill-rule="evenodd" clip-rule="evenodd" fill="#EBF5FF" d="M161.2,198.9v-9.1c0-2.5,2-4.5,4.5-4.5h29.1c2.5,0,4.5,2,4.5,4.5
			v9.1c0,2.5-2,4.5-4.5,4.5h-29.1C163.2,203.4,161.2,201.3,161.2,198.9z"/>
		<path fill-rule="evenodd" clip-rule="evenodd" fill="#EBF5FF" d="M135.9,198.9v-9.1c0-2.5,2-4.5,4.5-4.5h12.7c2.5,0,4.5,2,4.5,4.5
			v9.1c0,2.5-2,4.5-4.5,4.5h-12.7C137.9,203.4,135.9,201.3,135.9,198.9z"/>
		<path fill-rule="evenodd" clip-rule="evenodd" fill="#EBF5FF" d="M94,198.9v-9.1c0-2.5,2-4.5,4.5-4.5h29.1c2.5,0,4.5,2,4.5,4.5
			v9.1c0,2.5-2,4.5-4.5,4.5H98.5C96,203.4,94,201.3,94,198.9z"/>
		<path fill-rule="evenodd" clip-rule="evenodd" fill="#EBF5FF" d="M52.1,198.9v-9.1c0-2.5,2-4.5,4.5-4.5h29.1c2.5,0,4.5,2,4.5,4.5
			v9.1c0,2.5-2,4.5-4.5,4.5H56.6C54.1,203.4,52.1,201.3,52.1,198.9z"/>
		<path fill-rule="evenodd" clip-rule="evenodd" fill="#EBF5FF" d="M31.6,198.9v-9.1c0-2.5,2-4.5,4.5-4.5H44c2.5,0,4.5,2,4.5,4.5
			v9.1c0,2.5-2,4.5-4.5,4.5h-7.9C33.6,203.4,31.6,201.3,31.6,198.9z"/>
		<path fill-rule="evenodd" clip-rule="evenodd" fill="#EBF5FF" d="M182.2,221.5v-9.1c0-2.5,2-4.5,4.5-4.5h29.1c2.5,0,4.5,2,4.5,4.5
			v9.1c0,2.5-2,4.5-4.5,4.5h-29.1C184.2,226,182.2,224,182.2,221.5z"/>
		<path fill-rule="evenodd" clip-rule="evenodd" fill="#EBF5FF" d="M114.5,221.5v-9.1c0-2.5,2-4.5,4.5-4.5h55.3c2.5,0,4.5,2,4.5,4.5
			v9.1c0,2.5-2,4.5-4.5,4.5H119C116.5,226,114.5,224,114.5,221.5z"/>
		<path fill-rule="evenodd" clip-rule="evenodd" fill="#EBF5FF" d="M73.1,221.5v-9.1c0-2.5,2-4.5,4.5-4.5h29.1c2.5,0,4.5,2,4.5,4.5
			v9.1c0,2.5-2,4.5-4.5,4.5H77.6C75.1,226,73.1,224,73.1,221.5z"/>
		<path fill-rule="evenodd" clip-rule="evenodd" fill="#EBF5FF" d="M161.2,244.2v-9.1c0-2.5,2-4.5,4.5-4.5h29.1c2.5,0,4.5,2,4.5,4.5
			v9.1c0,2.5-2,4.5-4.5,4.5h-29.1C163.2,248.7,161.2,246.7,161.2,244.2z"/>
		<path fill-rule="evenodd" clip-rule="evenodd" fill="#EBF5FF" d="M135.9,244.2v-9.1c0-2.5,2-4.5,4.5-4.5h12.7c2.5,0,4.5,2,4.5,4.5
			v9.1c0,2.5-2,4.5-4.5,4.5h-12.7C137.9,248.7,135.9,246.7,135.9,244.2z"/>
		<path fill-rule="evenodd" clip-rule="evenodd" fill="#EBF5FF" d="M94,244.2v-9.1c0-2.5,2-4.5,4.5-4.5h29.1c2.5,0,4.5,2,4.5,4.5
			v9.1c0,2.5-2,4.5-4.5,4.5H98.5C96,248.7,94,246.7,94,244.2z"/>
		<path fill-rule="evenodd" clip-rule="evenodd" fill="#EBF5FF" d="M52.1,244.2v-9.1c0-2.5,2-4.5,4.5-4.5h29.1c2.5,0,4.5,2,4.5,4.5
			v9.1c0,2.5-2,4.5-4.5,4.5H56.6C54.1,248.7,52.1,246.7,52.1,244.2z"/>
		<path fill-rule="evenodd" clip-rule="evenodd" fill="#EBF5FF" d="M182.2,266.9v-9.1c0-2.5,2-4.5,4.5-4.5h29.1c2.5,0,4.5,2,4.5,4.5
			v9.1c0,2.5-2,4.5-4.5,4.5h-29.1C184.2,271.4,182.2,269.3,182.2,266.9z"/>
		<path fill-rule="evenodd" clip-rule="evenodd" fill="#EBF5FF" d="M114.5,266.9v-9.1c0-2.5,2-4.5,4.5-4.5h55.3c2.5,0,4.5,2,4.5,4.5
			v9.1c0,2.5-2,4.5-4.5,4.5H119C116.5,271.4,114.5,269.3,114.5,266.9z"/>
		<path fill-rule="evenodd" clip-rule="evenodd" fill="#EBF5FF" d="M73.1,266.9v-9.1c0-2.5,2-4.5,4.5-4.5h29.1c2.5,0,4.5,2,4.5,4.5
			v9.1c0,2.5-2,4.5-4.5,4.5H77.6C75.1,271.4,73.1,269.3,73.1,266.9z"/>
	</g>
	<path fill-rule="evenodd" clip-rule="evenodd" fill="#B8C7FC" d="M104.2,249.1c-1.3-30.2,1.9-57.7,28.4-70.1l47.4,2.5
		c19.4,6.6,28.4,28.1,24.7,67.6c-4.8-0.1-11-4.2-14.5-0.3C160.8,281.3,132.3,271.3,104.2,249.1z"/>
	<path fill-rule="evenodd" clip-rule="evenodd" fill="#141C6B" d="M102.4,265.6c-0.1-0.8-0.2-1.8-0.3-2.6c-0.3-3.5-0.5-7.1-0.6-10.6
		c-0.3-7.1-0.5-14.2-0.6-21.3c0-2.3-0.1-4.5-0.1-6.8c0-1.2-0.1-2.5-0.1-3.7c0,0,0,0,0,0c0,0,0-0.1,0-0.1c0,0,0,0,0,0.1
		c-0.2-5.5,0.8-10.8,2.9-16.1c4.5-11.4,15.1-21.2,27.9-26.9c2-0.9,4-1.7,6-2.3l0,4.6v-0.1c-5.8,2.1-11.1,5.1-15.7,8.7
		c-8.8,6.8-14.8,16.1-16.4,25.9c-0.2,1-0.3,2-0.4,3c-0.1,1.1-0.1,2.1-0.1,3.1c-0.1,1.4-0.1,2.9-0.1,4.3c-0.1,4.1-0.2,8.2-0.3,12.3
		c-0.2,7.3-0.4,14.6-0.8,21.8c-0.1,1.8-0.2,3.5-0.4,5.3c0,0.4-0.2,1.9-0.5,2.2C102.5,266.5,102.5,265.9,102.4,265.6z M121.7,188.6
		C121.7,188.6,121.7,188.5,121.7,188.6C121.7,188.6,121.7,188.6,121.7,188.6C121.7,188.6,121.7,188.6,121.7,188.6z"/>
	
		<line fill-rule="evenodd" clip-rule="evenodd" fill="none" stroke="#545E80" stroke-width="1.12" stroke-linecap="round" stroke-linejoin="round" stroke-miterlimit="10" x1="186.8" y1="205.7" x2="186.8" y2="255.1"/>
	<path fill-rule="evenodd" clip-rule="evenodd" fill="#141C6B" d="M205.7,256.7l-0.7-19.4c-0.1-4.1-0.2-8.2-0.3-12.3
		c0-1.4,0-2.9-0.1-4.4c0-1,0-2.1-0.1-3.2c-0.1-1-0.2-2.1-0.4-3.1c-1.6-10.2-7.8-19.6-16.8-26.6c-3.5-2.7-7.5-5.1-11.7-7l-3.7-1.5
		l0-2.5l4.6,1.8c12.6,5.6,22.9,15.3,27.3,26.4c2,5.1,3.1,10.3,2.8,15.7c0,1.2,0,2.4-0.1,3.6c-0.1,2.3-0.1,4.6-0.1,6.8
		c-0.1,7.1-0.3,14.2-0.6,21.3L205.7,256.7z"/>
	<path fill-rule="evenodd" clip-rule="evenodd" fill="#FFE0BD" stroke="#141C6B" stroke-width="1.12" stroke-miterlimit="10" d="
		M132.5,171.2l19.7,37.9l19.7-37.9C171.8,171.2,151.5,162.5,132.5,171.2z"/>
	<path fill-rule="evenodd" clip-rule="evenodd" fill="#E5B282" d="M135.4,176.8L135.4,176.8l-2.9-5.6c18.9-8.6,39.3,0,39.3,0
		l-2.9,5.6l0,0c-4.6,1.9-10.1,3-16.7,3C145.6,179.8,140,178.7,135.4,176.8z"/>
	<path fill-rule="evenodd" clip-rule="evenodd" fill="#FC4730" d="M200.9,172.4c1.1-0.8,1.7-2,1.7-3.1v-56.1
		c0-10.8-4.7-21.7-14.2-30.1C169,65.9,137,65.5,117,82.1c-10.2,8.5-15.4,19.8-15.4,31.1v56.1c0,0.9,0.4,1.9,1.2,2.7
		c0.9,0.9,2.3,1.4,3.7,1.4c30.4-8.7,60.9-2.7,91.3,0C198.9,173.4,200,173.1,200.9,172.4z"/>
	<path fill-rule="evenodd" clip-rule="evenodd" fill="#FFFFFF" d="M169.4,222c-2.2-0.2-4.1,1.4-4.3,3.6c-0.2,2.2,1.4,4.1,3.6,4.3
		c2.2,0.2,4.1-1.4,4.3-3.6C173.1,224.1,171.5,222.2,169.4,222z"/>
	<path fill-rule="evenodd" clip-rule="evenodd" fill="#C42930" d="M192.7,172.4c0.9-0.8,1.4-2,1.4-3.1v-56.1
		c0-10.8-3.9-21.7-11.8-30.1c-16.1-17.1-42.7-17.6-59.3-1c-8.5,8.5-12.8,19.8-12.8,31.1v56.1c0,0.9,0.3,1.9,1,2.7
		c0.8,0.9,1.9,1.4,3,1.4c25.3-8.7,50.6-2.7,75.9,0C191,173.4,191.9,173.1,192.7,172.4z"/>
	<path fill-rule="evenodd" clip-rule="evenodd" fill="#FFE0BD" stroke="#141C6B" stroke-width="1.12" stroke-miterlimit="10" d="
		M191.5,114.7c0-16.6-12.2-28.8-39.4-28.8c-27.2,0-39.3,12.2-39.3,28.8c0,16.6-2.8,60.4,39.3,60.4
		C194.4,175.2,191.5,131.4,191.5,114.7z"/>
	<path fill-rule="evenodd" clip-rule="evenodd" fill="#141C6B" d="M152.2,165.5c-1.5,0-2.3-1.1-2.3-0.6c0,0.5,0.4,1.5,2.3,1.5
		c1.9,0,2.3-1,2.3-1.5C154.5,164.4,153.6,165.5,152.2,165.5z"/>
	<path fill-rule="evenodd" clip-rule="evenodd" fill="#E5B282" d="M130.4,133.6c1.7-1.6,4.4-1.4,5.9,0.3c1.6,1.7,1.5,2.4-0.3,3.9
		c-1.7,1.6-4.4,1.5-5.9-0.3C128.6,135.9,128.7,135.2,130.4,133.6z"/>
	<path fill-rule="evenodd" clip-rule="evenodd" fill="#141C6B" d="M130.4,133.3c1.7-1.1,4.4-1,5.9,0.2c1.6,1.2,1.5,1.6-0.3,2.7
		c-1.7,1.1-4.4,1-5.9-0.2C128.6,134.8,128.7,134.4,130.4,133.3z"/>
	
		<path fill-rule="evenodd" clip-rule="evenodd" fill="none" stroke="#141C6B" stroke-width="1.12" stroke-linecap="round" stroke-linejoin="round" stroke-miterlimit="10" d="
		M156.9,148c-2.7,2.4-5.5,2.3-8.4,0"/>
	
		<path fill-rule="evenodd" clip-rule="evenodd" fill="none" stroke="#141C6B" stroke-width="1.12" stroke-linecap="round" stroke-linejoin="round" stroke-miterlimit="10" d="
		M138.9,122c-5.4-1-10.5-0.1-15.2,2.6"/>
	
		<path fill-rule="evenodd" clip-rule="evenodd" fill="none" stroke="#141C6B" stroke-width="1.12" stroke-linecap="round" stroke-linejoin="round" stroke-miterlimit="10" d="
		M166.4,122c5.4-1,10.5-0.1,15.2,2.6"/>
	<path fill-rule="evenodd" clip-rule="evenodd" fill="#FFFFFF" d="M133.7,134.1c0.5-0.4,1.2-0.4,1.6,0.1c0.4,0.5,0.4,1.2-0.1,1.6
		c-0.5,0.4-1.2,0.4-1.6-0.1C133.2,135.3,133.3,134.5,133.7,134.1z"/>
	<path fill-rule="evenodd" clip-rule="evenodd" fill="#E5B282" d="M168.9,133.6c1.7-1.6,4.4-1.4,5.9,0.3c1.6,1.7,1.5,2.4-0.3,3.9
		c-1.7,1.6-4.4,1.5-5.9-0.3C167.1,135.9,167.2,135.2,168.9,133.6z"/>
	<path fill-rule="evenodd" clip-rule="evenodd" fill="#141C6B" d="M168.9,133.3c1.7-1.1,4.4-1,5.9,0.2c1.6,1.2,1.5,1.6-0.3,2.7
		s-4.4,1-5.9-0.2C167.1,134.8,167.2,134.4,168.9,133.3z"/>
	<path fill-rule="evenodd" clip-rule="evenodd" fill="#FFFFFF" d="M172.2,134.1c0.5-0.4,1.2-0.4,1.6,0.1c0.4,0.5,0.4,1.2-0.1,1.6
		c-0.5,0.4-1.2,0.4-1.6-0.1C171.7,135.3,171.7,134.5,172.2,134.1z"/>
	<path fill-rule="evenodd" clip-rule="evenodd" fill="none" d="M98.3,268.7c0-0.5,0-42.7,0-43.1c-0.2-11.4,4.2-22.8,13.2-31.5
		c4-3.8,8.5-6.8,13.4-8.9"/>
	
		<line fill-rule="evenodd" clip-rule="evenodd" fill="none" stroke="#545E80" stroke-width="1.12" stroke-linecap="round" stroke-linejoin="round" stroke-miterlimit="10" x1="119.8" y1="205.7" x2="119.8" y2="255.1"/>
	<path fill-rule="evenodd" clip-rule="evenodd" fill="#FFE0BD" stroke="#545E80" stroke-width="1.12" stroke-miterlimit="10" d="
		M117.7,248.2c12.6,10.9,11,19.1,2.2,13.1c-2.6-1.5-2.9,1.3-1.6,7.1c3.8,16.4-24.6,10.4-15.9-18.6
		C107.4,250.5,112.3,252,117.7,248.2z"/>
	<path fill-rule="evenodd" clip-rule="evenodd" fill="#FFE0BD" stroke="#545E80" stroke-width="1.12" stroke-miterlimit="10" d="
		M189.8,248.2c-12.6,10.9-11,19.1-2.2,13.1c2.6-1.5,2.9,1.3,1.6,7.1c-3.8,16.4,24.6,10.4,15.9-18.6
		C200.1,250.5,195.3,252,189.8,248.2z"/>
	<path fill-rule="evenodd" clip-rule="evenodd" fill="#96D4BD" d="M74,297.7c0-0.2,0-0.3-0.1-0.5l-1.9-6.9l0.1-0.1
		c0.1-0.1,0.1-0.1,0.2-0.1h155.3c0.1,0,0.2,0,0.2,0.1l0.1,0.1l-1.9,6.9c-0.1,0.2-0.1,0.3-0.1,0.5c0,0.2-0.2,0.3-0.3,0.3H74.3
		C74.1,298,74,297.9,74,297.7z"/>
	<path fill="#141C6B" d="M74,297.7c0-0.2,0-0.3-0.1-0.5c-0.5-1.8-1.1-3.7-1.6-5.5l-0.2-0.7c0-0.1-0.1-0.2-0.1-0.3
		c0.1-0.2-0.1-0.2-0.1-0.4c0,0,0-0.1,0-0.1c0,0,0-0.1,0.1-0.1c0-0.1,0.3-0.2,0.4-0.2c2.6,0,5.2-0.1,7.8-0.1c2.6,0,5.2-0.1,7.8-0.1
		c2.6,0,5.2,0.4,7.8-0.1c2.5-0.5,5.2-0.1,7.8-0.1c2.6,0,5.2-0.1,7.8-0.1c5.2,0,10.4-0.1,15.5-0.1l15.5-0.1c2.6,0,5.2,0,7.8,0
		c12.9-0.1,25.9-0.1,38.8-0.1l15.5,0c2.6,0,5.2-0.1,7.8,0c2.6,0.1,5.2,0,7.8,0c2.6,0,5.2-0.6,7.8,0c0,0,0,0,0,0
		c0.3,0,0.6,0.1,0.9,0.4c0.2,0.2,0.3,0.6,0.3,0.9c0,0.3-0.1,0.5-0.2,0.8c0,0-0.2,0.7-0.2,0.7c-0.1,0.6-0.3,1.2-0.5,1.7
		c-0.3,1.3-0.7,2.5-1,3.8c0,0,0,0,0-0.1c-0.1,0.3,0,0.5-0.1,0.7c-0.2,0.5-0.7,0.8-1.2,0.8c-2.5,0-5.1,0-7.6,0c-2.5,0-5,0-7.6,0
		c-12.6,0-25.2,0-37.8-0.1c-7.6,0-15.1,0-22.7-0.1c-7.6,0-15.1-0.1-22.7-0.1l-15.1-0.1L97,298.3l-15.1-0.2c-2.5,0-5-0.1-7.6-0.1
		C74.1,298,74,297.9,74,297.7C74,297.7,74,297.7,74,297.7c0,0.2,0.1,0.3,0.3,0.3c5-0.1,10.1-0.1,15.1-0.2c7.6-0.1,15.1-0.2,22.7-0.3
		c2.5,0,5.1,0,7.6,0c7.2,0,8-0.1,15.1-0.1l15.1-0.1c5,0,10.1,0,15.1-0.1c20.2-0.1,40.3-0.1,60.5-0.1c-0.1,0-0.1,0-0.2,0
		c0,0,0,0-0.1,0c0,0-0.1,0-0.1,0.1c-0.1,0.1-0.3,0.3-0.2,0.4c0-0.8,0.4-1.7,0.6-2.4c0.5-1.7,0.9-3.5,1.4-5.2c-0.1,0.2,0,0.4,0,0.6
		c0,0,0-0.1-0.1-0.1c0.1,0.2,0.2,0.3,0.3,0.4c0.1,0.1,0.1,0.1,0.3,0.1c-31.1,0-62.1-0.1-93.2-0.2l-15.5-0.1c-2.6,0-5.2,0-7.8,0
		c-7.8-0.1-15.5-0.2-23.3-0.2c-5.2-0.1-10.4-0.1-15.5-0.2c0,0,0,0,0,0c-0.1,0-0.1,0-0.2,0.1c0,0,0,0,0.1-0.1c0,0.1,0,0.1-0.1,0.1
		c0,0,0-0.1,0-0.1c0.3,1.4,0.7,2.8,1.1,4.2c0.2,0.7,0.4,1.4,0.5,2.1c0.1,0.3,0.2,0.6,0.2,0.9C74,297.5,74,297.6,74,297.7z"/>
	<path fill-rule="evenodd" clip-rule="evenodd" fill="#D9E5F0" d="M71,283v-81c0-3.9,3.1-7,7-7h145c3.9,0,7,3.1,7,7v81
		c0,3.9-3.1,7-7,7H78C74.1,290,71,286.9,71,283z"/>
	<path fill="#545E80" d="M71,283c-0.2-16.2-0.4-32.4-0.5-48.6c0-5.4-0.1-10.8-0.1-16.2c0-2.7-0.1-5.4,0-8.1c0-1.3,0-2.7,0-4.1
		c0-0.2,0-2.8,0-4.2c0.1-2.1,0.8-3.7,2.2-5.3c0.2-0.2,0.5-0.4,0.7-0.6c1.3-1.1,3-1.6,4.7-1.7c0.4,0,14.1,0,14.5-0.1
		c2.4-0.1,4.8,0,7.3,0c2.4-0.1,4.8,0,7.3,0c2.4,0,4.8,0,7.2,0c12.1,0,24.2-0.1,36.3-0.1c12.1,0,24.2,0,36.3-0.1h14.5
		c2.4,0,4.8-0.1,7.3,0c1.4,0,13.1,0,14.5,0c1.2,0,2.4,0.3,3.4,0.8c0.4,0.2,0.8,0.4,1.2,0.7c0.4,0.3,0.8,0.6,1.1,0.9
		c0.3,0.3,0.6,0.7,0.9,1.1c0.1,0.2,0.2,0.4,0.3,0.6c0.2,0.3,0.3,0.7,0.5,0.9c0.4,1,0.5,1.8,0.6,2.9c0,1.4,0,2.7,0,4.1
		c0,1.3,0,2.7,0,4.1c0,4.1,0,8.1,0,12.1c0,12.1,0,24.3,0,36.5c0,4.1,0,8.1,0,12.1c0,1.4,0,2.7,0,4.1c-0.1,2.5,0.1,5.7,0,8.1
		c-0.1,2-0.7,3.7-2,5.2c-1.4,1.6-3.6,2.6-5.8,2.6c-0.2,0-14.3,0-14.5,0c-2.4,0.1-4.8-0.1-7.3,0c-0.1,0-14.4,0-14.5,0
		c-12.1,0-24.2-0.1-36.3-0.1c-7.3,0-14.5-0.1-21.7-0.1c0,0-14.5-0.1-14.5-0.1c-12.1-0.1-24.2-0.2-36.2-0.3c-0.6,0-1.2-0.1-1.8-0.2
		c-1.2-0.3-2.5-1.1-3.3-2c-0.3-0.4-0.7-0.8-1-1.3c-0.2-0.4-0.3-0.7-0.5-1.1C71.1,284.7,71,283.9,71,283L71,283
		c0.1,3.8,3.2,6.9,7,6.9c4.8,0,9.7-0.1,14.5-0.1c7.3-0.1,14.5-0.1,21.7-0.2c7.3,0,14.5-0.1,21.8-0.1c29-0.1,58-0.2,87-0.3
		c0,0,0,0,0,0c0.3,0,0.7,0,1-0.1c0.2,0,0.4-0.1,0.5-0.1c0.3-0.1,0.6-0.2,0.8-0.3c1.4-0.5,2.6-1.7,3.3-3.1c0.3-0.7,0.5-1.3,0.6-2
		c0-0.2,0-0.5,0-0.7c0,0,0,0,0,0c0-27-0.1-54-0.1-81c0,0,0,0,0,0c0-0.5-0.1-1-0.2-1.5c-0.4-1.6-1.5-3-3-3.8
		c-0.2-0.1-0.5-0.2-0.7-0.3c-0.7-0.3-1.4-0.4-2.2-0.4c0,0,0,0,0,0c-48.3,0-96.7-0.1-145-0.3h0c-0.2,0-0.4,0-0.6,0
		c-0.6,0.1-1.4,0.2-2,0.5c-0.2,0.1-0.3,0.1-0.5,0.2c-0.3,0.1-0.5,0.3-0.8,0.5c-0.2,0.2-0.5,0.4-0.7,0.6c-1.2,1.2-1.9,2.8-1.9,4.5
		c0,0,0,0,0,0C71.5,229,71.4,256,71,283z"/>
	<path fill-rule="evenodd" clip-rule="evenodd" fill="#FC4730" d="M101.6,132.4v-19.2c0-10.8,4.7-21.7,14.2-30.1
		c19.4-17.1,51.3-17.6,71.3-1c10.2,8.5,15.4,19.8,15.4,31.1v19.1v0c-28.4-23-72.7-22.8-100.9,0V132.4z"/>
	<path fill="#141C6B" d="M196.5,127.9c-2.6-1.4-5.1-2.7-7.8-3.9c-0.6-0.3-1.2-0.6-1.9-0.8c-0.7-0.3-1.3-0.6-2-0.8
		c-1.7-0.7-3.4-1.3-5.1-1.9c-1.7-0.6-3.4-1.1-5.1-1.5c-0.7-0.2-1.4-0.4-2.1-0.5c-1.5-0.4-3.1-0.7-4.6-1c-0.4-0.1-0.7-0.1-1.1-0.2
		c-0.9-0.2-1.7-0.3-2.6-0.4c-0.9-0.1-1.7-0.2-2.6-0.3c-1.4-0.1-2.8-0.3-4.2-0.4c-1.3-0.1-2.7-0.1-4-0.1c-3.9-0.1-7.8,0.1-11.7,0.6
		c-3.3,0.4-6.6,0.9-9.9,1.7c-7.2,1.7-14.1,4.2-20.6,7.6c-1.2,0.6-2.5,1.3-3.7,2c0.5-0.4,1.1-0.8,1.6-1.2c1.5-1,2.9-1.9,4.5-2.8
		c0.8-0.4,1.5-0.8,2.3-1.3c0.8-0.4,1.6-0.8,2.4-1.2c1.4-0.7,2.9-1.3,4.3-1.9c1.6-0.6,3.2-1.2,4.9-1.7c0.4-0.1,0.9-0.3,1.3-0.4
		c1.9-0.5,3.8-1.1,5.7-1.5c0.9-0.2,1.7-0.4,2.6-0.5c1.9-0.3,3.7-0.6,5.6-0.8c3-0.3,5.9-0.5,8.9-0.5c0.9,0,1.8,0,2.7,0
		c1.4,0,2.8,0.1,4.2,0.2c2.4,0.2,4.9,0.5,7.3,0.9c3.2,0.6,6.4,1.3,9.5,2.2c1.4,0.4,2.8,0.9,4.2,1.4c0.8,0.3,1.5,0.6,2.3,0.9
		c0.4,0.2,0.8,0.3,1.2,0.5c0.8,0.4,1.7,0.7,2.5,1.1c0.3,0.1,0.5,0.3,0.8,0.4c2.2,1.1,4.3,2.2,6.4,3.5c0.8,0.5,1.6,1.1,2.4,1.6
		C195.7,127.3,196.1,127.6,196.5,127.9z"/>
	<path fill-rule="evenodd" clip-rule="evenodd" fill="none" d="M103.3,172.4c-1.1-0.8-1.7-2-1.7-3.1v-56.1
		c0-10.8,4.7-21.7,14.2-30.1c19.4-17.1,51.3-17.6,71.3-1c10.2,8.5,15.4,19.8,15.4,31.1v56.1c0,0.9-0.4,1.9-1.2,2.7
		c-0.9,0.9-2.3,1.4-3.7,1.4c-7.8-2.2-15.5-3.5-23.3-4.1c18.8-12.5,17.1-41.7,17.1-54.6c0-16.6-12.2-28.8-39.4-28.8
		c-27.2,0-39.3,12.2-39.3,28.8c0,13.4-1.8,44.4,19.5,56c-8.6,0.9-17.3,1.9-25.9,2.7C105.3,173.4,104.2,173.1,103.3,172.4z"/>
	<path fill-rule="evenodd" clip-rule="evenodd" fill="#141C6B" d="M197.1,174c-0.3-0.1-0.7-0.2-1-0.3c-1.3-0.3-2.5-0.7-3.8-1
		c-1.4-0.4-2.8-0.6-4.3-0.9c-0.8-0.2-1.7-0.3-2.5-0.5c-1.6-0.3-3.3-0.5-5-0.8c-1.3-0.2-2.5-0.3-3.8-0.4c-1.1-0.1-2.1-0.2-3.2-0.3
		c0.6-0.4,1.2-0.8,1.8-1.2c3,0.2,6,0.6,8.9,1c1.9,0.3,3.7,0.6,5.6,1c1.7,0.4,3.5,0.7,5.2,1.2c0.9,0.2,1.9,0.5,2.8,0.7
		c0.8,0,1.5-0.2,2.2-0.6c0.1-0.1,0.2-0.1,0.3-0.2c0.2-0.1,0.3-0.3,0.4-0.4c0.1-0.1,0.1-0.1,0.2-0.2c0.3-0.3,0.6-0.9,0.7-1.4
		c0-0.2,0-0.4,0.1-0.5c-0.1-18.7-0.1-37.4-0.1-56.1c0,0,0,0,0,0c0-2.1-0.2-4.1-0.5-6.2c-0.3-1.6-0.6-3.1-1.1-4.6
		c-0.2-0.6-0.4-1.2-0.6-1.8c-0.3-0.7-0.5-1.4-0.8-2.1c-0.4-0.9-0.8-1.9-1.3-2.8c-0.6-1-1.1-2-1.7-3c-0.1-0.2-0.2-0.4-0.4-0.6
		c-0.4-0.6-0.9-1.3-1.4-1.9c-1.1-1.5-2.4-3-3.7-4.3c-0.5-0.6-1.1-1.1-1.7-1.7c-0.6-0.5-1.2-1-1.8-1.5c-0.6-0.5-1.3-1-1.9-1.5
		c-0.5-0.4-1-0.7-1.5-1c-3.1-2.2-6.5-3.9-9.9-5.4c-11.7-4.8-25.3-5.4-37.4-1.9c-2.6,0.8-5.3,1.7-7.8,2.9c-3.3,1.5-6.4,3.4-9.2,5.5
		c-0.9,0.7-1.8,1.4-2.7,2.2c-1.1,1-2.2,2.1-3.3,3.2c-1.5,1.6-2.8,3.3-4.1,5.1c-3.1,4.5-5.3,9.8-6.2,15.3c-0.3,2-0.5,4-0.5,6
		c-0.1,18.7-0.2,37.4-0.5,56.1c0,1.2,0.6,2.4,1.6,3.1l0,0c0.1,0.1,0.2,0.1,0.3,0.2c0.8,0.5,1.9,0.7,2.8,0.7
		c7.6-0.8,15.2-1.8,22.8-2.6c0.8-0.1,1.7-0.2,2.5-0.3c0.4,0.2,0.8,0.5,1.2,0.7c-0.8,0.1-1.7,0.1-2.5,0.2c-4.3,0.4-8.6,0.8-12.9,1.2
		c-3.7,0.3-7.4,0.6-11.1,0.9c-0.8,0-1.8-0.2-2.5-0.7c-0.2-0.1-0.4-0.2-0.6-0.4c0,0,0,0,0,0c-0.7-0.5-1.3-1.2-1.6-2
		c0-0.1-0.1-0.3-0.1-0.4c-0.1-0.2-0.1-0.5-0.1-0.7c-0.3-18.7-0.4-37.4-0.5-56.1c0-1.7,0.1-3.4,0.3-5c0.1-0.6,0.2-1.3,0.3-1.9
		c0.1-0.5,0.2-1,0.3-1.5c0.2-0.7,0.3-1.5,0.6-2.2c0.2-0.6,0.4-1.3,0.6-1.9c0.3-0.8,0.6-1.7,0.9-2.5c0.2-0.6,0.5-1.1,0.8-1.7
		c0.8-1.7,1.7-3.3,2.8-4.9c0.5-0.8,1.1-1.6,1.7-2.4c0.7-0.8,1.3-1.7,2-2.4c1.8-2.1,3.8-3.9,5.9-5.7c1.4-1.1,2.9-2.2,4.4-3.1
		c0.5-0.4,1.1-0.7,1.7-1c0.6-0.4,1.3-0.7,1.9-1.1c1-0.5,2-1,3.1-1.5c3.8-1.8,7.9-3.1,12.1-3.9c2-0.4,3.9-0.7,5.9-0.9
		c0.8-0.1,1.5-0.1,2.3-0.2c0.7-0.1,1.4-0.1,2.1-0.1c1.9,0,3.9,0,5.8,0.1c0.7,0.1,1.5,0.1,2.2,0.2c0.3,0,0.6,0.1,0.9,0.1
		c0.4,0,0.7,0.1,1.1,0.1c0.7,0.1,1.4,0.2,2.1,0.3c1.1,0.2,2.3,0.4,3.4,0.7c1.5,0.4,2.9,0.8,4.4,1.2c1.1,0.4,2.2,0.8,3.3,1.2
		c1.2,0.5,2.5,1,3.7,1.6c0.3,0.1,0.5,0.3,0.8,0.4c0.7,0.4,1.4,0.8,2.2,1.2c0.6,0.3,1.2,0.7,1.7,1c0.6,0.4,1.3,0.8,1.9,1.2
		c0.6,0.4,1.2,0.8,1.8,1.3c0.9,0.7,1.7,1.3,2.6,2.1c0.5,0.5,1.1,0.9,1.6,1.4c0.5,0.5,1,1,1.5,1.5c1.3,1.4,2.6,2.8,3.7,4.4
		c1.7,2.2,3.1,4.6,4.3,7c0.3,0.5,0.5,1.1,0.7,1.6c0.2,0.6,0.5,1.2,0.7,1.8c0.1,0.3,0.2,0.6,0.3,0.8c0.3,0.8,0.5,1.6,0.8,2.4
		c0.3,1,0.5,2,0.7,3c0.2,1,0.4,2,0.5,3c0.2,1.4,0.2,2.9,0.2,4.3c0,0.4,0,5.2,0,5.6v5.6c0,2.8,0,5.6,0,8.4c0,6.5,0,13.1,0,19.6
		c0,2.8,0,5.6,0,8.4c0,0.9,0,1.9,0,2.8c-0.1,1.8,0,3.9,0,5.6c0,0.3,0,0.6-0.1,0.8c-0.2,1.1-0.9,2.1-1.8,2.8c-1,0.8-2.4,1.2-3.7,1.2
		c0,0-0.1,0-0.1,0C197.5,174.2,197.3,174.1,197.1,174z M197.8,172.6c0,0-0.1,0-0.1,0c0.1,0,0.2,0,0.2,0
		C197.9,172.7,197.9,172.7,197.8,172.6z M103.3,172.4 M200.9,171.4C200.9,171.4,200.8,171.4,200.9,171.4
		C200.8,171.4,200.8,171.4,200.9,171.4C200.8,171.4,200.8,171.4,200.9,171.4z M201.8,169.3C201.8,169.3,201.8,169.3,201.8,169.3
		L201.8,169.3C201.8,169.3,201.8,169.3,201.8,169.3z M116.3,83.7L116.3,83.7C116.3,83.7,116.3,83.7,116.3,83.7
		C116.3,83.7,116.3,83.7,116.3,83.7z M186.6,82.8C186.6,82.8,186.6,82.8,186.6,82.8L186.6,82.8C186.6,82.8,186.6,82.8,186.6,82.8z"
		/>
	<path fill="#141C6B" d="M131.1,92.3c-0.1,0.6-0.3,1.2-0.5,1.8c-0.2,0.9-0.5,1.7-0.7,2.6c-0.2,0.8-0.3,1.6-0.5,2.4
		c-0.1,0.5-0.1,0.9-0.2,1.4c-0.1,1.2-0.2,2.3-0.3,3.5c-0.1,2.9,0,5.7,0.1,8.6c0,1.9,0,3.8-0.3,5.7c-0.2-0.5-0.3-1.1-0.4-1.6
		c-0.1-0.4-0.2-0.8-0.2-1.3c-0.3-1.5-0.5-3-0.6-4.5c-0.4-3.7-0.5-7.8,0.4-11.5c0.2-0.7,0.3-1.4,0.5-2.1
		C129,95.6,129.9,93.7,131.1,92.3z"/>
	<path fill="#141C6B" d="M173.1,92.3c1.1,1.3,1.8,2.8,2.4,4.3c0.2,0.5,0.3,1,0.5,1.4c0.2,0.8,0.4,1.5,0.5,2.3
		c0.7,4.2,0.4,8.5-0.1,12.8c-0.2,1.7-0.5,3.5-1,5.1c-0.2-0.7-0.3-1.5-0.3-2.2c0-0.8-0.1-1.6-0.1-2.4c0-2.9,0.1-5.7,0.1-8.6
		c0-1.4-0.1-2.8-0.2-4.2c-0.1-0.5-0.1-1-0.2-1.4c0-0.2-0.1-0.4-0.1-0.6c-0.1-0.5-0.2-1-0.3-1.5c-0.1-0.4-0.2-0.8-0.3-1.2
		c-0.1-0.2-0.1-0.4-0.1-0.6c-0.1-0.5-0.3-1.1-0.4-1.6C173.3,93.5,173.2,92.9,173.1,92.3z"/>
	
		<path fill-rule="evenodd" clip-rule="evenodd" fill="none" stroke="#141C6B" stroke-width="1.12" stroke-linecap="round" stroke-linejoin="round" stroke-miterlimit="10" d="
		M144.4,157.4c5.4-1,10.5-0.1,15.2,2.6"/>
	<path fill-rule="evenodd" clip-rule="evenodd" fill="#FFFFFF" d="M207.5,91.1c-5.4,0-9.8-4.4-9.8-9.8c0-5.4,4.4-9.8,9.8-9.8
		c5.4,0,9.8,4.4,9.8,9.8C217.3,86.7,212.9,91.1,207.5,91.1z"/>
	<path fill="#141C6B" d="M207.5,91.1c-0.9,0.1-1.7,0.1-2.5-0.1c-3.2-0.6-6-2.9-7.2-5.9c-0.5-1.2-0.8-2.5-0.8-3.8c0-0.3,0-0.6,0-0.9
		c0-0.3,0.1-0.7,0.1-1c0.1-0.6,0.3-1.3,0.5-1.9c0.1-0.3,0.2-0.5,0.3-0.8c0.3-0.6,0.6-1.1,1-1.7c1.1-1.5,2.6-2.8,4.3-3.5
		c1.3-0.6,2.9-0.9,4.4-0.9c3.7,0,7.2,2,9.1,5.2c0.4,0.7,0.7,1.5,1,2.3c0.1,0.3,0.2,0.6,0.2,0.9c0.1,0.3,0.1,0.7,0.1,1.1
		c0,0.2,0,0.3,0,0.5c0.1,0.6,0,1.4-0.1,2c-0.2,1-0.4,2-0.9,2.9c-0.1,0.3-0.3,0.5-0.4,0.8c-0.4,0.7-1,1.5-1.5,2
		c-0.2,0.2-0.5,0.5-0.7,0.7c-0.8,0.6-1.5,1.1-2.4,1.5c-1.1,0.5-2.2,0.7-3.4,0.7c-0.2,0-0.5,0-0.7,0
		C207.8,91.2,207.6,91.2,207.5,91.1L207.5,91.1c0.2,0,0.5-0.1,0.7-0.1c0.5-0.1,1.1-0.2,1.6-0.4c3.1-1,5.5-3.5,6.3-6.6
		c0.3-0.9,0.3-1.8,0.4-2.8c0,0,0,0,0,0c-0.1-0.8-0.1-1.5-0.3-2.3c-0.4-1.4-1.1-2.6-2-3.6c-0.1-0.2-0.3-0.3-0.5-0.5
		c-0.3-0.2-0.5-0.4-0.8-0.7c-0.1-0.1-0.3-0.3-0.5-0.4c-0.4-0.2-0.7-0.4-1.1-0.6c-0.2-0.1-0.5-0.2-0.7-0.3c-0.2-0.1-0.5-0.2-0.7-0.2
		c-0.4-0.1-0.8-0.2-1.2-0.3c-0.5-0.1-0.9-0.1-1.4-0.1c0,0,0,0,0.1,0c-0.3,0-0.6,0-0.9,0.1c-0.3,0-0.5,0.1-0.8,0.1
		c-0.4,0.1-0.8,0.2-1.2,0.3c-0.2,0.1-0.4,0.1-0.6,0.2c-0.2,0.1-0.5,0.2-0.7,0.3c-0.5,0.3-1.1,0.7-1.5,1c-0.3,0.3-0.6,0.5-0.8,0.8
		c-1.6,1.6-2.4,3.8-2.5,6.1c0,0,0,0,0,0c0,0.3,0,0.7,0,1c0.1,0.7,0.2,1.3,0.4,2c0.3,1.1,1,2.4,1.8,3.3c0.3,0.3,0.6,0.6,0.9,0.9
		c0.3,0.3,0.7,0.6,1.1,0.8c0.5,0.4,1,0.6,1.6,0.9c0.2,0.1,0.5,0.2,0.7,0.3C205.7,90.8,206.5,91,207.5,91.1z"/>
	<path fill-rule="evenodd" clip-rule="evenodd" fill="#FFFFFF" d="M213.6,100.3c0,2.5-2,4.5-4.5,4.5c-2.5,0-4.5-2-4.5-4.5
		c0-2.5,2-4.5,4.5-4.5C211.6,95.8,213.6,97.8,213.6,100.3z"/>
	<path fill="#141C6B" d="M213.6,100.3c0,0.2,0.1,0.3,0.1,0.5c0,0.3,0,0.5,0,0.8c0,0.3-0.1,0.7-0.3,1c0,0.1-0.1,0.2-0.2,0.3
		c-0.1,0.2-0.3,0.5-0.5,0.7c-0.8,1-1.9,1.7-3.2,1.8c-0.3,0-0.5,0.1-0.8,0.1c-2.8,0-5.2-2.5-5.1-5.3c0-1,0.3-2.1,0.9-3
		c0.2-0.2,0.4-0.4,0.6-0.7c0.2-0.3,0.7-0.6,1-0.8c0.9-0.5,1.9-0.8,2.9-0.8c2,0.1,3.7,1.3,4.3,3.2c0.2,0.5,0.3,1.1,0.2,1.6
		C213.7,100,213.6,100.1,213.6,100.3C213.6,100.3,213.6,100.3,213.6,100.3c-0.3-1.2-1-2.3-2-3c-0.3-0.2-0.6-0.4-1-0.5
		c-0.5-0.2-1-0.2-1.6-0.2c0,0,0.1,0,0.1,0c-0.5,0-0.9,0.1-1.3,0.3c-0.1,0-0.2,0.1-0.3,0.1c-0.1,0-0.2,0.1-0.3,0.1
		c-0.2,0.1-0.5,0.3-0.6,0.5c-0.1,0.2-0.3,0.3-0.4,0.5c-0.5,0.7-0.8,1.4-0.8,2.3c0,0,0-0.1,0-0.1c0,1.5,0.8,2.7,2.1,3.4
		c0.5,0.2,1,0.3,1.5,0.4c0,0,0,0-0.1,0c0.4,0,0.8,0,1.2-0.1c1.1-0.3,2.1-1,2.7-2C213.3,101.4,213.4,100.9,213.6,100.3z"/>
	<path fill-rule="evenodd" clip-rule="evenodd" fill="#FFFFFF" d="M195.8,69l-1-0.1l-0.3,1c-1.9,7-8.2,11.9-15.5,11.9
		c-5.3,0-10.2-2.6-13.2-6.9l-0.7-0.9l-1,0.6c-3.8,2.2-8,3.4-12.4,3.4c-13.5,0-24.5-11-24.5-24.5c0-13.5,11-24.5,24.5-24.5
		c2.5,0,4.9,0.4,7.3,1.1l0.8,0.3l0.5-0.7c3.5-4.6,8.7-7.2,14.4-7.2c8.6,0,16,6.1,17.7,14.5l0.2,1.2l1.2-0.3c1-0.2,2.1-0.3,3.2-0.3
		c8.7,0,15.8,7.1,15.8,15.8c0,8.7-7.1,15.8-15.8,15.8C196.8,69.1,196.3,69.1,195.8,69z"/>
	<path fill="#141C6B" d="M195.8,69c-0.3,0-0.7,0-1-0.1c0,0,0,0,0,0c-0.1,0.6-0.3,1.2-0.4,1.8c-0.4,1.3-0.9,2.6-1.7,3.8
		c-0.3,0.5-0.7,1.1-1.1,1.5c-0.5,0.7-1.1,1.4-1.8,1.9c-0.3,0.3-0.6,0.5-0.9,0.8c-1.8,1.4-3.7,2.4-5.9,3c-1.3,0.3-2.6,0.5-3.9,0.5
		c0,0,0,0,0,0c-0.3,0-0.6,0-0.9,0c-1,0-2.1-0.2-3.1-0.4c-2.6-0.6-4.9-1.8-7-3.6c-0.4-0.3-0.8-0.7-1.1-1.1c-0.1-0.1-0.2-0.2-0.3-0.4
		c-0.4-0.5-0.8-1-1.2-1.5c-0.2-0.3-0.4-0.6-0.7-0.9c0.3,0.1,0.5,0.1,0.8,0.2c-1.3,0.8-2.6,1.5-4,2.1c-3.1,1.3-6.3,2-9.7,2
		c-0.7,0-1.4,0-2.1-0.1c-0.8-0.1-1.6-0.2-2.4-0.3c-3.2-0.6-6.2-1.7-9-3.5c-0.9-0.6-1.8-1.2-2.6-1.9c-0.4-0.4-0.9-0.8-1.3-1.1
		c-0.5-0.5-1.1-1.1-1.6-1.7c-0.5-0.6-1-1.1-1.4-1.7c-0.9-1.3-1.8-2.6-2.5-4.1c-0.3-0.7-0.6-1.3-0.8-2c-0.7-1.6-1.1-3.4-1.4-5.1
		c-0.1-0.6-0.2-1.2-0.2-1.8c-0.1-0.7-0.1-1.4-0.1-2.1c0-1.3,0.1-2.6,0.3-3.9c0.6-3.9,2.2-7.7,4.4-10.9c0.8-1.1,1.7-2.2,2.7-3.1
		c0.2-0.2,0.5-0.5,0.7-0.7c0.2-0.2,0.4-0.4,0.6-0.6c0.3-0.2,0.5-0.5,0.8-0.7c0.2-0.1,0.4-0.3,0.6-0.5c0.3-0.2,0.6-0.4,0.9-0.6
		c1-0.7,2.1-1.3,3.2-1.9c1.2-0.6,2.6-1.1,3.9-1.5c0.3-0.1,0.7-0.2,1-0.3c0.4-0.1,0.7-0.2,1.1-0.3c0.4-0.1,0.7-0.1,1.1-0.2
		c0.5-0.1,1.1-0.2,1.7-0.2c1.5-0.1,3-0.2,4.5,0c0.6,0.1,1.2,0.1,1.7,0.2c0.2,0,0.4,0.1,0.7,0.1c0.4,0.1,0.9,0.2,1.3,0.3
		c0.9,0.2,1.7,0.5,2.6,0.8c-0.3,0.1-0.6,0.2-1,0.3c0.3-0.4,0.6-0.8,0.9-1.1c0.3-0.4,0.7-0.8,1-1.2c1.1-1.2,2.4-2.2,3.7-3.1
		c0.8-0.5,1.6-0.9,2.4-1.3c0.7-0.3,1.3-0.5,2-0.7c0.7-0.2,1.4-0.4,2.1-0.5c0.5-0.1,1.1-0.2,1.6-0.2c0.5-0.1,1-0.1,1.5-0.1
		c1.5,0,3,0.1,4.4,0.5c2.1,0.5,4.1,1.3,5.9,2.4c1.7,1,3.3,2.5,4.6,4c0.6,0.7,1.2,1.5,1.7,2.3c0.7,1.1,1.2,2.3,1.6,3.5
		c0.4,1.2,0.7,2.5,0.9,3.7c-0.3-0.2-0.6-0.4-0.9-0.6c0.7-0.1,1.3-0.3,2-0.4c0.5-0.1,1.1-0.1,1.7-0.2c2.5-0.1,5.1,0.4,7.4,1.4
		c0.7,0.3,1.3,0.6,1.9,1c0.3,0.2,0.6,0.4,0.9,0.6c0.1,0.1,0.3,0.2,0.5,0.3c0.2,0.2,0.4,0.3,0.6,0.5c1,0.8,1.9,1.8,2.7,2.8
		c3.2,4.3,4,9.9,2.2,15c-0.4,1.2-1,2.4-1.7,3.5c-0.7,1-1.5,2.1-2.4,2.9c-0.2,0.2-0.4,0.4-0.6,0.5c-0.4,0.3-0.7,0.6-1.1,0.8
		c-1,0.7-2.2,1.4-3.4,1.9c-1.5,0.5-3,0.9-4.6,1c-0.5,0-1,0-1.5,0c-0.3,0-0.5,0-0.8,0C196.3,69.1,196.1,69,195.8,69L195.8,69
		c0.5,0,1,0,1.5,0c2.8-0.1,5.3-0.8,7.7-2.3c0.4-0.2,0.8-0.5,1.2-0.8c0.2-0.1,0.3-0.2,0.5-0.4c0.5-0.4,1-0.9,1.5-1.3
		c0.5-0.5,0.9-1,1.3-1.6c0.8-1,1.4-2.2,1.9-3.4c0.1-0.2,0.1-0.4,0.2-0.5c0.1-0.2,0.1-0.4,0.2-0.6c0.3-1,0.5-2.2,0.6-3.2
		c0.1-0.5,0.1-1.1,0.1-1.6c0,0,0,0,0,0c0-0.3,0-0.5,0-0.8c0-0.2,0-0.4-0.1-0.6c-0.1-1.5-0.6-3.3-1.3-4.7c-0.4-0.8-0.8-1.6-1.3-2.4
		c-1.5-2.1-3.4-3.8-5.7-5c-0.6-0.3-1.3-0.6-1.9-0.8c-0.2-0.1-0.4-0.1-0.7-0.2c-0.4-0.1-0.9-0.2-1.3-0.3c-1-0.2-2-0.3-3-0.3
		c0,0,0,0,0,0c-0.5,0-1,0-1.5,0.1c-0.5,0.1-1,0.1-1.5,0.2c0,0,0,0,0,0c-0.7,0.1-1.3,0.3-1.9,0.4c-0.1-0.6-0.3-1.3-0.4-1.9
		c0,0,0,0,0,0c-0.1-0.6-0.3-1.1-0.4-1.7c-0.1-0.4-0.3-0.8-0.4-1.2c-0.3-0.8-0.7-1.6-1.1-2.3c-0.1-0.1-0.2-0.3-0.3-0.5
		c-0.5-0.8-1-1.5-1.7-2.2c-1.1-1.3-2.4-2.4-3.9-3.3c-0.4-0.3-0.8-0.5-1.2-0.7c-0.1-0.1-0.3-0.1-0.4-0.2c-0.3-0.2-0.8-0.4-1.1-0.5
		c-0.1-0.1-0.3-0.1-0.4-0.2c-0.3-0.1-0.7-0.2-1.1-0.3c-0.2-0.1-0.4-0.1-0.6-0.2c-0.4-0.1-0.9-0.2-1.3-0.3c-0.7-0.1-1.5-0.2-2.3-0.2
		c-0.3,0-0.5,0-0.7,0c0,0,0,0,0,0c-0.8,0-1.5,0.1-2.3,0.2c-0.3,0-0.6,0.1-0.9,0.1c-0.3,0.1-0.6,0.1-0.9,0.2c-0.9,0.3-1.9,0.5-2.8,1
		c-0.3,0.1-0.5,0.2-0.8,0.4c-0.3,0.1-0.5,0.3-0.8,0.4c-0.5,0.3-1,0.7-1.5,1c-0.4,0.3-0.7,0.6-1.1,0.9c-1,0.8-1.9,1.8-2.6,2.8
		c-0.3,0.4-0.6,0.8-0.9,1.2c-0.5-0.1-0.9-0.3-1.4-0.4h0c-1.2-0.3-2.3-0.6-3.5-0.8c-0.6-0.1-1.2-0.2-1.8-0.2c-0.6,0-1.2-0.1-1.8-0.1
		c0,0,0,0,0,0c-0.4,0-0.8,0-1.2,0c-0.5,0-1,0.1-1.5,0.1c-2.4,0.3-4.9,1-7.1,2c-1.6,0.7-3.1,1.6-4.5,2.7c-0.5,0.4-1.1,0.8-1.6,1.3
		c-1.1,1-2.1,2.1-3,3.3c-0.8,1-1.5,2.1-2.1,3.2c-1.8,3.5-2.7,7.1-2.7,11v0c0,0.6,0,1.2,0.1,1.8c0.2,2.2,0.6,4.3,1.4,6.4
		c1.9,5.3,5.6,9.6,10.4,12.4c1.1,0.6,2.2,1.2,3.4,1.6c2,0.7,3.9,1.2,6,1.5c0.8,0.1,1.6,0.1,2.4,0.1h0c0.9,0,1.8,0,2.8-0.1
		c0.2,0,0.4,0,0.6-0.1c0.5-0.1,0.9-0.1,1.4-0.2c2.6-0.5,5.1-1.5,7.3-2.8c0.5-0.3,1-0.6,1.5-0.9c0.3,0.5,0.6,0.9,1,1.4
		c2.9,4.3,7.5,6.7,12.7,6.8h0c4.1,0,8.2-1.5,11.1-4.4c0.6-0.6,1.2-1.2,1.7-1.9c0.6-0.9,1.2-1.8,1.7-2.7c0.4-0.8,0.7-1.6,0.9-2.5
		c0.1-0.3,0.2-0.7,0.3-1C195.1,68.9,195.5,69,195.8,69z"/>
	<circle fill-rule="evenodd" clip-rule="evenodd" fill="#FFFFFF" cx="198.9" cy="108.7" r="3"/>
	<path fill="#545E80" d="M198.9,111.7c-1.6,0.6-3.3-0.8-3.6-2.4c0-0.1,0-0.2-0.1-0.3c-0.1-0.6,0-1.2,0.2-1.8
		c0.3-0.7,0.7-1.3,1.4-1.7c0.2-0.1,0.3-0.2,0.5-0.3c0.1-0.1,0.4-0.2,0.6-0.2c0.3-0.1,0.7-0.2,1.1-0.1c0.4,0,0.7,0.1,1.1,0.2
		c1.5,0.5,2.4,1.7,2.6,3.3c0.1,1.4-0.7,2.9-2.1,3.4c-0.2,0.1-0.3,0.1-0.5,0.1c-0.2,0-0.5,0-0.7,0C199.1,111.7,199,111.7,198.9,111.7
		L198.9,111.7c0.2-0.1,0.5-0.2,0.7-0.3c0.7-0.4,1.3-1.1,1.5-2c0-0.2,0-0.5,0-0.7c0,0,0,0.1,0,0.1c0-0.3-0.1-0.5-0.2-0.8
		c-0.1-0.2-0.2-0.3-0.3-0.5c-0.5-0.6-1.1-0.9-1.8-0.9c0,0,0.1,0,0.1,0c-0.2,0-0.4,0-0.6,0.1c-1,0.2-1.6,1.1-1.7,2c0,0,0,0,0-0.1
		c-0.1,1,0.4,1.9,1.2,2.5C198.2,111.4,198.6,111.5,198.9,111.7z"/>
	<path fill-rule="evenodd" clip-rule="evenodd" fill="#FFFFFF" d="M198.9,103.3c-3,0-5.4,2.4-5.4,5.4s2.4,5.4,5.4,5.4
		c3,0,5.4-2.4,5.4-5.4C204.4,105.7,201.9,103.3,198.9,103.3z"/>
	<path fill="#141C6B" d="M198.9,103.3c-0.9,0.2-1.6,0.5-2.4,1c-1.4,1-2.3,2.7-2.3,4.4c0,0,0,0,0,0c0.1,1.7,1,3.2,2.5,4
		c0.7,0.4,1.4,0.5,2.2,0.5c0,0,0,0,0,0c0.3,0,0.7,0,1-0.1c1.5-0.3,2.6-1.3,3.3-2.6c0.3-0.6,0.4-1.2,0.4-1.8c0,0,0,0,0,0
		c0-0.3,0-0.7-0.1-1c-0.2-1.2-0.9-2.3-1.8-3.1c-0.2-0.2-0.5-0.4-0.8-0.5c-0.1-0.1-0.2-0.1-0.3-0.2c-0.3-0.2-0.6-0.3-1-0.4
		C199.4,103.4,199.1,103.3,198.9,103.3C198.9,103.3,198.9,103.3,198.9,103.3c0.1,0,0.3-0.1,0.5-0.1c0.2,0,0.3,0,0.5,0
		c0.5,0,1.2,0.2,1.7,0.4c0.6,0.3,1.2,0.7,1.7,1.1c1.5,1.5,2.2,3.8,1.5,5.9c-0.2,0.6-0.4,1.1-0.7,1.6c-0.1,0.1-0.2,0.3-0.3,0.4
		c-0.1,0.2-0.4,0.5-0.6,0.7c-0.1,0.1-0.2,0.2-0.3,0.3c-0.3,0.3-0.7,0.5-1,0.7c-1.2,0.6-2.3,0.8-3.6,0.7c-1.9-0.2-3.5-1.2-4.5-2.7
		c-0.2-0.3-0.3-0.6-0.5-0.9c-0.3-0.6-0.5-1.4-0.5-2.1c0-1,0.1-1.9,0.5-2.8c0.6-1.5,1.9-2.5,3.4-3.1c0.3-0.1,0.7-0.2,1.1-0.2
		C198.1,103.1,198.5,103.2,198.9,103.3z"/>
	<path fill-rule="evenodd" clip-rule="evenodd" fill="#96D4BD" d="M71,283v-81c0-3.9,3.1-7,7-7h145c3.9,0,7,3.1,7,7v81
		c0,3.9-3.1,7-7,7H78C74.1,290,71,286.9,71,283z"/>
	<path fill="#141C6B" d="M71,283c-0.2-16.2-0.4-32.4-0.5-48.6c0-5.4-0.1-10.8-0.1-16.2c0-2.7-0.1-5.4,0-8.1c0-1.3,0-2.7,0-4.1
		c0-0.2,0-2.8,0-4.2c0.1-2.1,0.8-3.7,2.2-5.3c0.2-0.2,0.5-0.4,0.7-0.6c1.3-1.1,3-1.6,4.7-1.7c0.4,0,14.1,0,14.5-0.1
		c2.4-0.1,4.8,0,7.3,0c2.4-0.1,4.8,0,7.3,0c2.4,0,4.8,0,7.2,0c12.1,0,24.2-0.1,36.3-0.1c12.1,0,24.2,0,36.3-0.1h14.5
		c2.4,0,4.8-0.1,7.3,0c1.4,0,13.1,0,14.5,0c1.2,0,2.4,0.3,3.4,0.8c0.4,0.2,0.8,0.4,1.2,0.7c0.4,0.3,0.8,0.6,1.1,0.9
		c0.3,0.3,0.6,0.7,0.9,1.1c0.1,0.2,0.2,0.4,0.3,0.6c0.2,0.3,0.3,0.7,0.5,0.9c0.4,1,0.5,1.8,0.6,2.9c0,1.4,0,2.7,0,4.1
		c0,1.3,0,2.7,0,4.1c0,4.1,0,8.1,0,12.1c0,12.1,0,24.3,0,36.5c0,4.1,0,8.1,0,12.1c0,1.4,0,2.7,0,4.1c-0.1,2.5,0.1,5.7,0,8.1
		c-0.1,2-0.7,3.7-2,5.2c-1.4,1.6-3.6,2.6-5.8,2.6c-0.2,0-14.3,0-14.5,0c-2.4,0.1-4.8-0.1-7.3,0c-0.1,0-14.4,0-14.5,0
		c-12.1,0-24.2-0.1-36.3-0.1c-7.3,0-14.5-0.1-21.7-0.1c0,0-14.5-0.1-14.5-0.1c-12.1-0.1-24.2-0.2-36.2-0.3c-0.6,0-1.2-0.1-1.8-0.2
		c-1.2-0.3-2.5-1.1-3.3-2c-0.3-0.4-0.7-0.8-1-1.3c-0.2-0.4-0.3-0.7-0.5-1.1C71.1,284.7,71,283.9,71,283L71,283
		c0.1,3.8,3.2,6.9,7,6.9c4.8,0,9.7-0.1,14.5-0.1c7.3-0.1,14.5-0.1,21.7-0.2c7.3,0,14.5-0.1,21.8-0.1c29-0.1,58-0.2,87-0.3
		c0,0,0,0,0,0c0.3,0,0.7,0,1-0.1c0.2,0,0.4-0.1,0.5-0.1c0.3-0.1,0.6-0.2,0.8-0.3c1.4-0.5,2.6-1.7,3.3-3.1c0.3-0.7,0.5-1.3,0.6-2
		c0-0.2,0-0.5,0-0.7c0,0,0,0,0,0c0-27-0.1-54-0.1-81c0,0,0,0,0,0c0-0.5-0.1-1-0.2-1.5c-0.4-1.6-1.5-3-3-3.8
		c-0.2-0.1-0.5-0.2-0.7-0.3c-0.7-0.3-1.4-0.4-2.2-0.4c0,0,0,0,0,0c-48.3,0-96.7-0.1-145-0.3h0c-0.2,0-0.4,0-0.6,0
		c-0.6,0.1-1.4,0.2-2,0.5c-0.2,0.1-0.3,0.1-0.5,0.2c-0.3,0.1-0.5,0.3-0.8,0.5c-0.2,0.2-0.5,0.4-0.7,0.6c-1.2,1.2-1.9,2.8-1.9,4.5
		c0,0,0,0,0,0C71.5,229,71.4,256,71,283z"/>
	<path fill-rule="evenodd" clip-rule="evenodd" fill="#141C6B" d="M138,54v0.1c0,3.8,3.1,6.9,6.9,6.9h42.1c3.8,0,6.9-3.1,6.9-6.9V54
		c0-3.8-3.1-6.9-6.9-6.9H145C141.1,47.1,138,50.2,138,54z"/>
	<path fill-rule="evenodd" clip-rule="evenodd" fill="#FFFFFF" d="M139.4,54.1V54c0-3.1,2.5-5.5,5.5-5.5h42.1c3.1,0,5.5,2.5,5.5,5.5
		v0.1c0,3-2.5,5.5-5.5,5.5H145C141.9,59.7,139.4,57.2,139.4,54.1z"/>
	<path fill-rule="evenodd" clip-rule="evenodd" fill="#FC4730" d="M140.8,54.1V54c0-2.3,1.9-4.1,4.1-4.1h18.3c2.3,0,4.1,1.9,4.1,4.1
		v0.1c0,2.3-1.9,4.1-4.1,4.1H145C142.7,58.3,140.8,56.4,140.8,54.1z"/>
	<path fill-rule="evenodd" clip-rule="evenodd" fill="#FFFFFF" d="M162.2,70.3c-1.6-0.3-2.7-1.9-2.3-3.6l5.7-27.4
		c0.3-1.6,1.9-2.7,3.5-2.3c1.6,0.3,2.7,1.9,2.3,3.5L165.8,68C165.4,69.6,163.9,70.7,162.2,70.3z"/>
	<path fill-rule="evenodd" clip-rule="evenodd" fill="#141C6B" d="M162.6,68.4c-0.5-0.1-0.9-0.6-0.8-1.2l5.7-27.4
		c0.1-0.5,0.7-0.9,1.2-0.8c0.5,0.1,0.9,0.6,0.8,1.2l-5.7,27.4C163.7,68.1,163.2,68.5,162.6,68.4z"/>
</g>
</svg>
