<svg xmlns="http://www.w3.org/2000/svg" width="288" height="288.004"><path fill-rule="evenodd" clip-rule="evenodd" d="M144.126 287.995a90.28 90.28 0 0 1-3.227-.013c-.6.013-1.187 0-1.773-.027-.239 0-.479-.014-.707-.133a5.145 5.145 0 0 0-.479-.027c-2.027.066-4-.066-6.774-.4-2.16-.094-4.333-.333-7.28-.88a42.69 42.69 0 0 1-6.8-1.066c-.014 0-.027 0-.574-.133-.186.013-.346-.027-.506-.054-3.774-.666-7.507-1.561-11.134-2.587.014 0 .014 0 .027.013-.146-.039-.146-.039-.04-.013h.013a77.903 77.903 0 0 1-4.879-1.52 112.86 112.86 0 0 1-6.294-2.188.43.43 0 0 1-.146-.039c-.094-.041-.201-.081-.374-.16-.946-.348-2-.773-3.2-1.308-1.4-.479-2.787-1.054-4.547-1.934a34.824 34.824 0 0 1-3.853-1.773c-1.333-.573-2.76-1.319-4.494-2.293a33.368 33.368 0 0 1-3.093-1.613c-1.08-.561-2.147-1.174-4.014-2.4-1.16-.587-2.347-1.32-3.76-2.32-.934-.507-1.813-1.079-2.667-1.653-.494-.319-.96-.627-1.427-.947-.387-.279-.787-.545-1.266-.919-.587-.414-1.174-.84-2.427-1.881-.8-.506-1.587-1.079-2.56-1.88-.453-.28-.867-.613-1.293-.934-.16-.133-.307-.253-.387-.453a8.24 8.24 0 0 1-.64-.52c-1.627-1.134-3.121-2.387-5.88-5.014-.747-.533-1.427-1.16-2.093-1.787-.201-.174-.387-.359-.48-.64-22.841-21.348-37.321-49.043-42.722-78.403-.56-2.84-.026-5.881 1.734-8.428 3.453-5 10.307-6.254 15.307-2.8a11.02 11.02 0 0 1 4.574 7.08c4.719 25.841 17.72 50.176 38.321 68.576 1.707 1.653 3.52 3.2 5 4.254a24.599 24.599 0 0 0 1.773 1.48c1.013.854 2.067 1.64 2.667 1.96.107.079.173.12.24.16.12.106.253.199.373.28 2.427 1.84 2.947 2.199 2.773 2.039.653.454 1.227.813 1.72 1.094.387.28.76.547 1.134.761 1.359.959 2.772 1.826 3.586 2.199.28.188.493.294.693.4a43.037 43.037 0 0 0 2.573 1.573 82.768 82.768 0 0 0 6.667 3.387c.533.268.973.44 1.36.586 1.48.801 3.014 1.494 4.134 1.827 1.32.667 2.707 1.214 4.16 1.761.974.36 1.933.666 2.72.867.653.293 1.333.545 2 .799a98.557 98.557 0 0 0 5.641 1.667c1.013.293 1.92.534 2.787.761.88.214 1.773.426 2.68.626 1.4.32 2.76.588 4.187.827.374.094.76.173 1.147.253a119.907 119.907 0 0 0 19.761 1.841c2.387.133 4.76.093 6.574-.081h1.32a21 21 0 0 0 1.187-.133c.68 0 1.374-.014 2.013-.053.52-.054.975-.12 1.374-.188a68.612 68.612 0 0 0 1.68-.093c.293-.04.573-.094.814-.147 2.372-.16 4.732-.48 6.493-.867a45.837 45.837 0 0 0 1.561-.186c.613-.12 1.16-.253 1.652-.387a42.39 42.39 0 0 0 3.854-.693c5.746-1.294 11.426-2.987 16.894-5.2a10.29 10.29 0 0 0 2.106-.814c.093-.025.199-.053.307-.092a106.008 106.008 0 0 0 16.214-8.014c.4-.214.787-.427 1.094-.614 1.214-.706 2.413-1.467 3.293-2.159.041-.04.081-.067.12-.094 1.975-1.133 3.867-2.453 5.135-3.507.173-.106.333-.227.493-.333.546-.334 1.066-.721.599-.468v-.013c.027-.014.054-.026.081-.054 3.453-2.573 4.76-3.64 6.014-4.721.773-.639 1.439-1.252 1.76-1.626 1.8-1.507 3.533-3.133 5.214-4.814.387-.399.76-.799 1.093-1.186.227-.201.44-.4.653-.601a116.353 116.353 0 0 0 5.642-6.32c1.532-1.693 2.959-3.479 3.96-4.96 1.333-1.64 2.572-3.347 3.439-4.814.066-.079.093-.133.12-.186.094-.12.187-.253.267-.387.187-.268.359-.507.52-.733.041-.079.094-.147.133-.227.374-.48.761-1.04 1.188-1.733.133-.188.12-.188.093-.147.188-.279.348-.547.493-.799.081-.147.135-.28.188-.387 1.253-1.881 2.4-3.827 3.214-5.521.146-.239.227-.413.307-.586a37.35 37.35 0 0 0 1.293-2.28c.134-.213.254-.453.24-.467.227-.413.426-.827.533-1.16.119-.24.188-.4.227-.546a69.095 69.095 0 0 0 3.32-7.28c.48-1.04.88-2.068 1.134-2.908a58.57 58.57 0 0 0 1.879-5.092c.254-.788.468-1.562.613-2.229.135-.333.254-.68.374-1.013a96.845 96.845 0 0 0 1.2-4.573c.093-.28.174-.547.253-.814.066-.293.12-.6.173-.893.175-.494.348-1.066.508-1.707.014-.093.039-.187.053-.293.094-.426.147-.813.175-1.107.613-2.453 1.053-4.934 1.266-7 .053-.227.106-.453.146-.68l.08-.88c.106-.426.2-.92.281-1.44.293-2.334.52-4.68.68-7.039a37.28 37.28 0 0 0 .039-1.628c.014-.093.027-.187.027-.28.173-2.532.213-5.093.133-7.534.121-.853.08-2-.039-2.786.053-2.014-.054-3.854-.254-5.321 0-.24-.014-.48-.014-.719-.04-.294-.08-.587-.119-.894 0-.133 0-.293-.015-.439-.013-.16-.039-.293-.066-.44l-.039-.88c-.04-.24-.081-.48-.106-.72-.027-.333-.041-.68-.081-1.04-.04-.267-.094-.507-.133-.734-.027-.213-.04-.427-.066-.64-.04-.854-.106-1.293-.134-1.266a5.807 5.807 0 0 0-.133-.587c-.214-2.2-.588-4.386-1-6.093a117.636 117.636 0 0 0-.894-4.214c-.16-.84-.334-1.653-.507-1.986a62.749 62.749 0 0 0-1.907-6.72 10.11 10.11 0 0 0-.24-1.027 20.352 20.352 0 0 0-.439-1.134 42.892 42.892 0 0 0-1.44-4.346c-.601-1.654-1.253-3.28-1.773-4.173a12.911 12.911 0 0 0-1.08-2.561 16.509 16.509 0 0 0-.348-.906c-.052-.213-.186-.507-.066-.147a7.711 7.711 0 0 0-.306-.52 80.49 80.49 0 0 0-5.013-9.774 15.474 15.474 0 0 0-1.161-1.907c-.493-1.053-1.4-2.467-2.4-3.813a13.05 13.05 0 0 0-.787-1.253 16.226 16.226 0 0 0-1.572-2.227c-.027-.041-.041-.054-.054-.08a41.919 41.919 0 0 0-2.894-4.067 33.499 33.499 0 0 0-1.72-2.054 9.163 9.163 0 0 0-.507-.653c-.48-.747-1.547-2.027-2.694-3.227a15.168 15.168 0 0 0-.906-1c-.119-.146-.239-.307-.439-.507a23.647 23.647 0 0 0-2.481-2.64c-.052-.067-.105-.12-.146-.174-.214-.213-.453-.44-.707-.693a3.24 3.24 0 0 0-.293-.293c-.054-.053-.094-.106-.188-.187a42.966 42.966 0 0 0-4.24-4.12c-1.239-1.267-2.946-2.747-4.746-4.134a123.492 123.492 0 0 0-7.054-5.467c-.146-.08-.279-.16-.387-.214a53.293 53.293 0 0 0-4.333-3c-1.574-1.013-3.16-2-4.787-2.947a5.715 5.715 0 0 0-.773-.346c-2.106-1.307-4.28-2.48-6.16-3.307-.573-.374-1.188-.68-.827-.44-.173-.066-.333-.146-.507-.227-.414-.227-.88-.467-1.439-.734-.613-.307-1.24-.6-1.387-.586-.187-.08-.32-.12-.44-.16-2.746-1.32-5.588-2.48-8.52-3.387-5.321-2.054-10.774-3.574-16.228-4.627-.121-.013-.227-.04-.348-.054-.334-.093-.706-.2-1.174-.293-5.68-1.147-11.426-1.84-17.16-1.987a21.048 21.048 0 0 0-3.533-.173 14.821 14.821 0 0 0-.786-.053 13 13 0 0 0-1.027.04 20.736 20.736 0 0 0-2.147-.093c-.44.013-.827.054-1.12.093-1.8-.066-4.161.041-6.521.307-.267 0-.56 0-.88.014-.533.066-1.08.133-1.626.213-.4 0-.854.013-1.387.053a40.3 40.3 0 0 0-2.014.308c-.36.026-.747.053-1.173.093-.44.066-.867.146-1.307.24-1.28.106-2.813.333-4.427.653a38.62 38.62 0 0 0-4.667.987 98.31 98.31 0 0 0-6.574 1.64c.36-.107.267-.094.173-.067-2.587.707-5.134 1.494-7.587 2.454-.947.187-2.28.693-3.574 1.24a82.365 82.365 0 0 0-9.374 4.067c-1.333.6-2.934 1.413-4.507 2.266-.773.44-1.547.907-2.307 1.387-.814.374-1.787.907-2.867 1.56-1.16.707-2.333 1.44-3.427 2.267-1.04.533-2.414 1.494-3.733 2.533-.36.214-.747.467-1.227.827-1.106.706-2.6 1.84-4.014 3.066-1.133.76-2.72 2.054-4.173 3.48a5.52 5.52 0 0 0-.64.52c-.734.521-1.973 1.627-3.133 2.813-.32.281-.64.614-.96.947-.44.36-.92.8-1.48 1.36.133-.187-.32.28-2.4 2.546-.107.094-.2.2-.293.307-.054.054-.107.094-.187.187-.547.44-1.454 1.414-2.307 2.44-.493.533-1 1.146-1.48 1.773-1.253 1.293-2.747 3.133-4.12 5.066-16.974 21.801-25.388 48.083-25.388 74.364 0 2.813-1.08 5.641-3.227 7.786-4.294 4.294-11.268 4.294-15.561 0A10.947 10.947 0 0 1 0 144.001c0-29.868 9.214-59.75 27.828-84.884.04-.266.173-.48.333-.68.56-.76 1.133-1.52 1.8-2.214 2.24-3.066 3.48-4.573 4.867-5.973.16-.2.319-.4.44-.48.04-.24.186-.427.346-.601 1.747-2 3.56-3.959 5.427-5.867.414-.453.761-.813 1.121-1.16.387-.4.787-.787 1.227-1.186.68-.667 1.387-1.347 2.173-1.96 1.24-1.28 2.293-2.24 3.347-3.04 1.613-1.534 2.546-2.32 3.507-3.067a34.241 34.241 0 0 1 2.8-2.2c1.507-1.253 2.774-2.24 3.974-3.04a36.027 36.027 0 0 1 3.48-2.44c1.587-1.201 2.854-2.014 4.161-2.747 1.28-.84 2.493-1.613 3.64-2.32 2.293-1.4 4.346-2.546 6.133-3.48.653-.346.653-.346.573-.307.6-.307 1.2-.613 1.814-.84a96.426 96.426 0 0 1 4.08-2.014c.773-.333 1.6-.68 2.44-1a44.356 44.356 0 0 1 6-2.587c-.04.014-.066.014-.066.067.586-.254.613-.254.626-.267 2.6-1.093 4.507-1.773 6.507-2.28 2.813-1.067 4.894-1.693 7.013-2.173 2.654-.827 4.587-1.307 6.587-1.6l.307-.08c.187-.16.414-.213.64-.266a30.337 30.337 0 0 1 1.88-.36 43.167 43.167 0 0 1 3.213-.614 58.328 58.328 0 0 1 2.747-.507c.68-.133 1.146-.213 1.613-.28a33.84 33.84 0 0 1 3.04-.36c1.146-.173 2.2-.293 3.213-.373a41.453 41.453 0 0 1 2.894-.28c1.173-.16 1.92-.227 2.667-.267a28.152 28.152 0 0 1 2.12-.093c.92-.053 1.814-.094 2.814-.094 2.16-.12 3.92-.12 5.68.014 1.48-.067 2.707-.08 3.813-.041h.266c.081 0 .16 0 .428.027h.267c1.066.027 2.214.094 3.547.213.706.027 1.387.066 2.293.134 2.041.173 4.361.399 6.654.693.64.08 1.227.146 1.8.239 1.027.134 2.134.32 3.373.547.547.08 1.066.173 3.681.64-.479-.107-.96-.2-1.44-.28 2.867.479 5.32 1 7.414 1.494.721.173.706.173.627.16 1.613.387 3.2.799 4.746 1.253 2.2.587 4.36 1.253 6.493 1.947l.041.013.025.014c.961.32 1.934.653 3.041 1.107 1.28.413 2.547.879 3.84 1.387.04.013.094.026.147.053.786.293 1.493.587 2.16.894.827.346 1.667.72 2.532 1.106.107.041.201.08.295.133 1.56.587 3.092 1.28 4.813 2.2.227.067.387.16.56.254 1.175.52 2.201 1 3.121 1.466.933.454 1.92.973 3.159 1.734a90.682 90.682 0 0 1 5.054 2.866c.414.253.813.521 1.2.787 1.428.734 2.054 1.121 2.681 1.533.547.347 1.094.707 1.627 1.067.84.56 1.733 1.2 2.746 1.959 1.841 1.187 3.214 2.214 4.521 3.307a58.605 58.605 0 0 1 2.787 2.026c.093.067.174.134.266.201.068.053.147.106.201.173l.013.013c.921.72 1.894 1.534 3.014 2.547 1.587 1.267 2.666 2.2 3.587 3.066.427.4.867.814 1.334 1.267.16.146.333.293.506.44.12.066.227.16.334.267.254.227.493.454.732.68.348.32.682.653 1.041 1 .506.467 1 .96 1.493 1.453.293.294.586.587.96 1 .493.494.974 1 1.453 1.494a43.243 43.243 0 0 1 2.266 2.44c.347.373.694.773 1.027 1.213a.17.17 0 0 1 .039.053c1.015 1.027 2 2.16 3.12 3.547.547.654 1.107 1.36 1.707 2.147a37.308 37.308 0 0 1 1.44 1.787c.254.333.507.653.733.959.36.454.707.92 1.119 1.587.268.32.468.6.654.894 1.2 1.546 2.134 2.84 2.894 4.067.76 1.053 1.414 2.04 1.974 3.053.12.134.199.28.28.427.106.147.199.293.306.454.468.667.867 1.293 1.214 1.88.333.467.627.96.92 1.44l.014.053.013.014a53.45 53.45 0 0 1 1.72 3.106c.254.4.468.773.667 1.121.12.227.241.453.361.667.227.427.453.853.68 1.293.173.24.32.507.453.773 0-.013-.014-.013-.014-.026.066.133.066.133.014.026.094.2.2.387.307.601a125.472 125.472 0 0 1 1.467 2.92c.32.667.307.667.279.586.28.614.573 1.214.773 1.84a88.817 88.817 0 0 1 1.867 4.146c.146.387.307.787.453 1.213.227.374.44.92.667 1.507.373.88.746 1.827 1.133 2.894.135.346.268.707.4 1.053.227.64.439 1.267.641 1.894-.014-.041-.027-.054-.066-.054.227.587.227.6.239.626.641 1.681 1.12 3.081 1.493 4.414.227.693.453 1.44.667 2.253.306.947.601 1.947.88 3.08.146.534.28 1.041.413 1.534.214.84.414 1.76.626 2.813.241.894.468 1.813.667 2.88.268 1.067.494 2.187.707 3.467.027.146.066.294.094.44.054.133.08.267.094.387.066.373.133.733.199 1.093.066.387.12.8.187 1.227.16.707.281 1.427.387 2.147.094.6.175 1.2.254 2.054.066.493.133.947.187 1.373.121.68.173 1.146.227 1.613.121 1.027.213 2.054.24 3.066.039.294.066.574.093.854.147.947.214 1.907.28 2.867.027.48.067.96.067 1.654.026.4.039.84.054 1.293.079.88.106 1.507.133 2.134.013.707.04 1.414.013 2.121 0 .307.015.613.015.92.013.426.013.853.013 1.28 0 .173 0 .36-.04.533v.08c.013.961.013 1.854 0 2.681 0 1.372-.08 2.853-.24 4.667 0 .786-.027 1.573-.08 2.399-.014.24-.026.467-.054.693v.053c0 .107-.013.227-.026.361-.066.946-.16 1.959-.307 3.119a44.525 44.525 0 0 1-.319 3.067 45.01 45.01 0 0 1-.653 4.453c0 .027-.014.04-.12.587.026.187 0 .347-.027.507-.106.692-.199 1.374-.32 2.079v.015a48.544 48.544 0 0 1-.68 3.359 96.599 96.599 0 0 1-1.146 5.507 1.56 1.56 0 0 1-.053.254s.013-.013.013-.027c-.04.147-.04.147-.013.04v-.013c-.054.239-.121.479-.175.707a84.29 84.29 0 0 1-.813 3.12c-.2.706-.188.706-.173.626a101.3 101.3 0 0 1-1.414 4.693c-.093.281-.174.561-.613 1.773a2.028 2.028 0 0 1-.12.387c0 .04-.013.081-.04.147-.026.106-.066.2-.133.387-.027.079-.054.16-.107.279-.346 1.174-.76 2.32-1.173 3.44l-.013.054-.015.013a111.252 111.252 0 0 1-2.787 6.947c-.333.76-.639 1.467-.973 2.12a80.375 80.375 0 0 1-1.2 2.493c-.04.12-.094.241-.147.347-.105.213-.212.427-.333.641-.413 1-.866 2-1.492 3.16a36.17 36.17 0 0 1-1.427 2.68c-.334.653-.641 1.254-.96 1.813a53.793 53.793 0 0 1-2.32 3.935c-.4.771-.854 1.506-1.293 2.227-.295.506-.601.985-.908 1.453-.252.412-.52.813-.865 1.306-.241.374-.494.761-.894 1.308-.44.733-.748 1.173-1.054 1.626a47.6 47.6 0 0 1-1.134 1.573c-.24.348-.507.707-.787 1.067-.186.293-.399.586-.613.866-.094.134-.186.267-.333.347-.094.134-.214.267-.32.414a54.05 54.05 0 0 1-1.187 1.64c-.732 1.027-1.641 2.146-2.974 3.666a42.506 42.506 0 0 1-1.826 2.268c-.027.04-.067.08-.36.399-.133.2-.28.374-.427.534-.08.094-.16.187-.253.28a97.27 97.27 0 0 1-2.493 2.613 42.406 42.406 0 0 1-3.627 3.853 39.73 39.73 0 0 1-2.48 2.534c-.48.493-.987.974-1.493 1.453-.547.507-1.095 1.013-2.374 1.987-1.174 1.173-2.426 2.28-4.026 3.534l-.013.013a12.84 12.84 0 0 1-1.094.894c-.693.653-1.561 1.333-2.548 2.079a59.5 59.5 0 0 1-2.72 2c-.8.628-1.586 1.214-2.306 1.707-.094.066-.188.147-.334.227a136.035 136.035 0 0 1-12.453 7.868c-.455.279-.895.532-1.334.773l-.053.025h-.015c-1.827 1-3.693 1.975-5.721 2.934-.199.094-.412.201-.613.293-.252.16-.506.28-.759.4h.026c-.133.053-.133.053-.026.014v-.014c-1.468.694-2.894 1.36-4.507 2.015a145.428 145.428 0 0 1-7.508 3c-.319.119-.652.239-1 .346-.894.347-1.841.68-2.92 1.026-.534.2-1.094.387-1.894.56a47.124 47.124 0 0 1-5.628 1.654c-.759.308-1.719.56-2.786.813a50.766 50.766 0 0 1-3.507.854c-.04.013-.079.013-.359.066-.214.08-.427.121-.641.174-.16.039-.32.066-.479.105-.76.147-1.574.308-2.493.44-.894.227-1.84.414-2.894.574a48.554 48.554 0 0 1-3.493.586c-.975.188-2 .333-3.174.468-.707.133-1.427.227-2.16.306-.72.081-1.453.16-2.628.2-1.532.187-3.187.293-5.306.334-1.268.227-2.601.293-3.921.333-.479.013-.96.013-1.652 0-.803.017-1.684.017-2.75.005z"/></svg>