<?xml version="1.0" encoding="utf-8"?>
<!-- Generator: Adobe Illustrator 13.0.0, SVG Export Plug-In . SVG Version: 6.00 Build 14948)  -->
<!DOCTYPE svg PUBLIC "-//W3C//DTD SVG 1.1//EN" "http://www.w3.org/Graphics/SVG/1.1/DTD/svg11.dtd">
<svg version="1.1" id="Layer_1" xmlns="http://www.w3.org/2000/svg" xmlns:xlink="http://www.w3.org/1999/xlink" x="0px" y="0px"
	 width="380px" height="200px" viewBox="0 0 380 200" enable-background="new 0 0 380 200" xml:space="preserve">
<rect fill-rule="evenodd" clip-rule="evenodd" fill="none" width="380" height="200"/>
<g>
	<path fill="#E8EDF5" d="M108.84,109.293c12.187,43.28,58.827,46.04,58.827,46.04c29.24,1.014,51.374,1.254,73.92-13.813
		c7.439-4.973,14.4-11.253,18.721-19.293c3.906-7.267,5.426-15.56,5.771-23.626c0.268-6.254-0.186-12.64-2.72-18.053
		c-2.347-5.014-6.333-8.88-10.532-12.253c-10.107-8.133-21.854-13.973-34.094-18.32c-14.44-5.12-29.894-8.227-45.546-6.733
		c-15.667,1.493-31.587,7.893-43.374,19.653C118.027,74.667,104.453,93.747,108.84,109.293z"/>
	<path fill="#FC452E" d="M152.253,28.32c-7.813-2.121-15.827-1.133-22.093,4c-6.267,5.133-10.494,18.146-9.934,26.24
		c0.4,5.934,0.867,12.28,0.96,18.227c0.026,1.773-1.613,5.4-1.654,7.174c-0.107,4.466,5.56,6.64,7.734,0.239
		c0.079-0.239-0.934,5.267,5.799,7.08c5.107,1.374,9.907-5.813,11.041-8.426c1.36-3.133,7.827-4.72,11.227-4.48
		c2.773,0.201,4.293,1.667,7,2.281c2.04,0.453,3.786,10.667,10.213,10.066c1.773-0.16,3.76-2.48,4.426-4.134
		c1.12,2.12,3.934,2.414,6.214,1.654c2.013-0.667,3.786-5.267,2.747-11.053c-0.587-3.294-1.094-7.587-0.96-11.454
		c0.253-6.946,1.173-12.772-0.467-19.533c-0.813-3.346-4.493-15.346-18.44-18.44c-4.546-1-9.28-2.16-13.2,0.333L152.253,28.32z"/>
	<path fill="#C22912" d="M128.6,67.494c-0.52,2.813-0.707,5.693-0.534,8.56c0.107,1.72,0.374,3.547,1.467,4.894
		c1.08,1.347,3.227,1.973,4.586,0.893c0.08,2.24,0.201,4.613,1.44,6.48c1.707,2.586,5.547,4.76,8.547,4.013
		c3.013-0.733,5.2-4.093,7.106-6.533c0.24-0.307,0.52-0.64,0.906-0.681c0.374-0.053,0.72,0.214,0.987,0.507
		c1.266,1.413,1.467,3.493,2.506,5.066c1.426,2.173,4.36,3.093,6.893,2.467c2.521-0.627,4.987-1.014,6.827-2.854
		c1.467-1.467,2.907-4.28,2.733-6.867c1.24,1.307,3.374,0.613,4.814-0.493c4.786-3.68,2.853-10.907,3.133-12.707
		c0.413-2.76-0.96-4.333-2.587-6.627c-0.333-0.467-3.013,2.48-3.533,2.227c-0.547-0.253-1.16-0.293-1.76-0.32
		c-14.667-0.84-29.693-1.627-43.747,2.653L128.6,67.494z"/>
	<polygon fill="#C7CCD1" points="144.107,90.307 161.64,90.04 164.4,96.52 155.707,104.399 143.414,99.56 	"/>
	<path fill="#F5BAB8" d="M147.24,84.053l-1.84,14.36c0,0,8.094,8.84,15.467,2.213l-1.84-17.121L147.24,84.053z"/>
	<path fill="#DB9696" d="M145.907,83.68c0,0,2.76,4.72,7.04,4.84c5.106,0.134,8.014-5.253,8.014-5.253L145.907,83.68z"/>
	<path fill="#FAC2BF" d="M130.88,61.346c0.053-3.28,0.466-6.586,1.533-9.692c2.346-6.814,7.959-12.454,14.827-14.614
		c6.879-2.146,16.32-0.346,21.787,4.333c5.467,4.693,7,14.121,7,14.121c1.854,7.413-0.373,21.013-4.92,25.399
		c-5.507,5.307-16.12,6.267-23.667,4.974c-4-0.693-8.347-2.453-11.227-5.32C131.96,76.28,130.773,67.373,130.88,61.346z"/>
	<path fill="#FAC2BF" d="M181.92,62.773c-0.494-1.907-1.68-3.987-3.64-4.2c-1.493-0.16-3.84,0.28-5.12,1.066
		c-1.84,1.12-2.027,1.76-2.76,2.653l0.106,0.653c-0.133,3.267,0.134,6.56,0.8,9.76c3.213,0.267,6.88,0.387,9.16-1.894
		C182.467,68.787,182.64,65.533,181.92,62.773z"/>
	<path fill="#F5BAB8" d="M177.533,63.627c-0.546,1.093-1.546,4.6-0.947,4.893c0.507,0.253,2.453-2.773,3-3.866
		C180.253,63.333,178.2,62.32,177.533,63.627z"/>
	<path fill="#FAC2BF" d="M125.586,62.773c0.507-1.907,1.681-3.987,3.64-4.2c1.494-0.16,3.854,0.28,5.133,1.066
		c1.827,1.12,2.013,1.76,2.76,2.653L137,62.947c0.133,3.267-0.133,6.56-0.8,9.76c-3.213,0.267-6.879,0.387-9.146-1.894
		C125.04,68.787,124.88,65.533,125.586,62.773z"/>
	<path fill="#F5BAB8" d="M129.48,64c0.653,1.04,1.987,4.426,1.427,4.787c-0.48,0.293-2.72-2.533-3.374-3.56
		C126.747,63.973,128.693,62.76,129.48,64z"/>
	<path fill="#303030" d="M164.2,68.387c0.067,1.107-0.026,2.093-0.266,3.187c-0.387,1.786-2.293,1.653-2.494,0.253
		c-0.16-1.106-0.146-2.24-0.227-3.347C161.093,66.56,164.066,66.467,164.2,68.387z"/>
	<path fill="#303030" d="M145.453,68.013c0.067,1.12-0.027,2.106-0.266,3.2c-0.387,1.773-2.294,1.64-2.494,0.24
		c-0.16-1.107-0.146-2.227-0.213-3.346C142.346,66.2,145.333,66.093,145.453,68.013z"/>
	<path fill="#F5BAB8" d="M172.16,74.96c-0.067-0.693-0.374-1.507-1.36-1.667c-2.494-0.413-5.827-0.733-8.134,0.507
		c-0.946,0.506-1.813,1.479-1.36,2.613c0.467,1.187,2,1.467,3.08,1.72c2.066,0.507,5.28,0.626,6.88-1.173
		C171.813,76.333,172.293,75.787,172.16,74.96z"/>
	<path fill="#F5BAB8" d="M134.854,74.747c-0.187-0.72,0.066-1.533,0.947-1.653c2.2-0.32,5.16-0.52,7.253,0.72
		c0.867,0.507,1.653,1.44,1.293,2.507c-0.373,1.093-1.733,1.307-2.692,1.52c-1.827,0.4-4.96,0.627-6.44-1.12
		C134.707,76.12,134.6,75.36,134.854,74.747z"/>
	<path fill="#DB9696" d="M155.947,75.64c0,0-1.547,0.453-2.72,0.453c-1.187-0.013-2.333-0.293-2.333-0.293
		S153.827,79.013,155.947,75.64z"/>
	<path fill="#303030" d="M158.36,79.76c-2.893,2.267-6.76,2.201-9.533-0.227c-0.76-0.68,0.08-1.414,0.853-0.733
		c2.254,1.973,5.347,1.56,7.707-0.294C158.2,77.867,159.16,79.12,158.36,79.76z"/>
	<path fill="#3B3DB0" d="M128.2,63.093c-0.546,3.106-0.387,6.307,0.134,9.427c0.24,1.4,0.413,3.467,1.946,4.013
		c1.533,0.547,3.854,0.146,5.44,0.121c2.653-0.054,5.307-0.147,7.959-0.281c1.333-0.066,3.48,0.187,4.747-0.36
		c1.24-0.533,1.187-1.947,1.253-3.146c0.16-2.6,0.053-5.28-0.186-7.88c-0.121-1.24-0.041-2.693-1.28-3.307
		c-1.893-0.959-5.267-0.613-7.307-0.667c-3.987-0.093-8.067,0.067-11.934,1.12c-1.333,0.36-0.773,2.453,0.587,2.08
		c3.56-0.973,7.293-1.106,10.973-1.04c1.96,0.04,5.133-0.32,6.96,0.547c-0.827-0.387-0.227-0.467-0.253,0.413
		c-0.014,0.427,0.093,0.92,0.133,1.347c0.107,1.293,0.16,2.613,0.174,3.92c0.027,1.227,0.066,2.48-0.041,3.693
		c-0.026,0.36-0.12,0.747-0.12,1.106c0,0.627,0.747-0.307,0.387-0.253c-4.307,0.533-8.787,0.506-13.12,0.547
		c-0.947,0.013-1.88-0.014-2.827,0c-0.213,0-0.907,0.066-1.08-0.067c0.453,0.333,0.293,0.067,0.16-0.293
		c-1.187-3.026-1.16-7.32-0.613-10.467C130.533,62.307,128.44,61.72,128.2,63.093z"/>
	<path fill="#3B3DB0" d="M176.44,63.667c0.547,3.066,0.667,7.56-0.613,10.467c-0.227,0.533-0.12,0.48,0.173,0.293
		c-0.213,0.134-0.854,0.067-1.08,0.067c-0.867,0.013-1.72,0.013-2.586,0.013c-4.414-0.053-8.974-0.013-13.373-0.56
		c-0.347-0.054,0.399,0.88,0.386,0.253c0-0.346-0.093-0.76-0.12-1.106c-0.107-1.213-0.066-2.48-0.04-3.693
		c0.026-1.307,0.08-2.626,0.186-3.92c0.041-0.573,0.427-2.32,0.08-1.986c-0.373,0.346,1.627-0.041,2.147-0.08
		c1.533-0.146,3.066-0.214,4.6-0.24c3.681-0.066,7.414,0.067,10.987,1.04c1.346,0.373,1.92-1.72,0.573-2.08
		c-5.653-1.547-12.506-1.707-18.266-0.653C156.04,62.12,157,68.16,157,70.827c0.013,1.213-0.32,3.867,0.693,4.84
		c0.787,0.733,2.467,0.547,3.44,0.601c4.707,0.293,9.693,0.799,14.4,0.373c1.72-0.16,2.16-0.986,2.574-2.653
		c0.88-3.48,1.04-7.36,0.426-10.894C178.293,61.72,176.213,62.307,176.44,63.667z"/>
	<path fill="#3B3DB0" d="M149.6,68.747c2.373-0.4,4.746-0.387,7.106,0.027c1.36,0.24,1.947-1.84,0.573-2.08
		c-2.773-0.494-5.479-0.494-8.253-0.027C147.654,66.893,148.24,68.973,149.6,68.747z"/>
	<path fill="#FC452E" d="M177.093,51.387c0.106-3.414,0.133-7.107-1.867-9.88c-1.373-1.879-3.547-3.066-5.787-3.693
		c-2.253-0.626-4.973-1.826-7.307-1.973c-4.213-0.24-8.44-0.56-12.64-0.2c-4.2,0.347-8.427,1.426-11.947,3.733
		c-3.52,2.32-7.773,5.894-8.347,10.067c-0.2,1.427-1.68,7.521-0.693,8.56l2.214,0.56c4.04-0.44,14.106-5.72,16.706-8.84
		c-1.799,4.693-0.493,7.267,0.681,8c2.093,1.307,11.293-1.44,13.146-6.28c-0.933,3.547-0.547,6.16,1.627,6.28
		c2.36,0.146,6.92-2.64,7.186-6.894c1.667,6.6,2.707,6.44,6.627,7.587C176.76,56.24,177.027,53.56,177.093,51.387z"/>
	<path fill="#80D1E0" d="M143.827,94.733c0,0,7.28,3.307,18.92,0.547l6.587,7l-16.107,23.373l-10.773-15.279L143.827,94.733z"/>
	<path fill="#D9DBDB" d="M174.854,171.507c-1.107-13.627-3.667-58.32-3.547-58.92c0.16-0.76,4.426-9.76,4.426-9.76
		c2.014,2.025,3.561,3.813,4.787,5.532c1.213,1.72,2.72,7.36,3.493,11.587c2,10.975,7.414,48.24,7.414,49.721
		C188.84,171.133,181.107,171.133,174.854,171.507z"/>
	<path fill="#E8EBEB" d="M140.613,94.187l-10.093,7.599c1.16,5.054,4.387,9.054,4.933,11.081c0.454,1.64-8.146,58.813-7.653,59.372
		c0.413,0.468,1.093,0.547,1.706,0.613c7.547,0.667,15.134,0.734,22.693,0.201c0.48-0.041,1.027-0.107,1.294-0.507
		c0.146-0.2,2.093-50.694,1.106-50.747c-3.12-0.187-10.68-28.36-13.8-28.546L140.613,94.187z"/>
	<polygon fill="#D1D1D1" points="137.293,96.667 135.453,98.04 139.787,102.921 137.947,108.359 147.24,120.227 149.36,114.239 
		140.707,96.013 138.12,96.293 	"/>
	<path fill="#D9DBDB" d="M144.107,90.307c0,0,9.946,27.894,9.946,30.106l-0.827,5.24l-13.813-17.666l1.933-5.254l-5.799-6.626
		c0,0,0.826-1.427,3.586-3.453C141.893,90.64,144.107,90.307,144.107,90.307z"/>
	<path fill="#E8EBEB" d="M166.146,94.187l10.094,7.599c-1.16,5.054-4.374,9.054-4.934,11.081c-0.44,1.64,8.16,58.813,7.667,59.372
		c-0.413,0.468-1.093,0.547-1.72,0.613c-7.533,0.667-15.134,0.734-22.68,0.201c-0.48-0.041-1.027-0.107-1.307-0.507
		c-0.187-0.267,0.319-50.694,1.333-51.493c0.773-0.601,6.894-25.44,7.867-25.494c3.133-0.187,0.387-2.12,3.506-2.307L166.146,94.187
		z"/>
	<polygon fill="#D1D1D1" points="141.44,122.72 137.2,122.534 136.107,164.32 174.574,163.773 170.44,125.653 	"/>
	<polygon fill="#D1D1D1" points="169.52,96.667 171.36,98.04 167.027,102.921 168.867,108.359 159.574,120.227 157.453,114.239 
		166.107,96.013 168.68,96.293 	"/>
	<path fill="#D9DBDB" d="M161.64,90.04c0,0-8.414,30.653-8.414,32.854v4.693l14.08-19.88l-2.346-4.907l6.493-6.133
		c0,0-2.346-2.493-4.56-4.146C164.68,90.88,161.64,90.04,161.64,90.04z"/>
	<polygon fill="#3B3DB0" points="138.96,132.84 139.32,118.853 174.307,118.48 176.32,160.453 138.4,161.374 	"/>
	<polygon fill="#2E3B8A" points="143.92,124.653 143.787,118.827 169.934,118.56 170.066,124.187 	"/>
	<path fill="#FFB03D" d="M159.48,116.094c-0.613,0.692-1.667,0.759-2.36,0.16c-0.693-0.613-0.76-1.667-0.159-2.36
		c0.613-0.693,1.667-0.761,2.36-0.16C160.013,114.347,160.08,115.399,159.48,116.094z M167.64,116.587h-4.24
		c0,0,0.187-7.307-4.773-7.307c-4.96,0-6.867,7.027-6.867,7.027l-5.04-0.175l0.08,6.308l21.013-0.268L167.64,116.587z"/>
	<path fill="#D9DBDB" d="M157.36,132.106c-6.08,0.413-17.479,1.107-23.934,1.467c0.667-5.319,2.16-20.387,2.027-20.986
		c-0.16-0.76-4.414-9.76-4.414-9.76c-2.026,2.025-3.573,3.813-4.786,5.532c-1.227,1.72-2.733,7.36-3.507,11.587
		c-2,10.975-4.227,23.573-4.08,32.28c0,0.56,0.187,1.133,0.521,1.573c0.573,0.773,1.626,0.961,2.573,1.014
		c6.427,0.359,13.88-0.173,19.96-2.279c5.333-1.842,12.426-3.975,16.934-6.628C159.787,143.547,158.947,138.573,157.36,132.106z"/>
	<path fill="#FAC2BF" d="M177.893,132.626c-0.187-0.453-0.72-0.68-1.187-0.799c-3.04-0.787-6.093-1.494-9.16-2.147
		c-0.56-0.12-1.133-0.239-1.68-0.079c-0.8,0.227-10.066,3.934-9.947,4.759l1.374,9.521c0.013,0.44,4.733-1.399,4.974-1.027
		c0.413,0.641,3.786,0.387,4.56,0.348c3.307-0.213,5.76-0.946,8.267-2.493c0.534-0.333,1.2-2.173,1.04-2.773
		c-0.067-0.241,0.546-1.241,0.6-1.493c0.201-1.147-0.333-1.8,0.387-2.16C177.854,133.906,178.146,133.267,177.893,132.626z"/>
	<path fill="#F5BAB8" d="M168.733,134.707c2.267,0.013,4.507,0.12,6.761,0.359c0.613,0.054,0.68-0.479,0.066-0.532
		c-2.253-0.227-4.507-0.761-6.76-0.773C168.187,133.761,168.12,134.707,168.733,134.707z"/>
	<path fill="#F5BAB8" d="M168.387,138.427c2.227-0.348,4.467-0.587,6.733-0.707c0.613-0.04,0.587-0.572-0.026-0.547
		c-2.253,0.135-4.56-0.025-6.8,0.32C167.693,137.587,167.773,138.52,168.387,138.427z"/>
	<path fill="#F5BAB8" d="M169,141c1.547-0.347,3.506-0.399,5.093-0.601c0.44-0.066,0.387-0.426-0.04-0.373
		c-1.586,0.2-3.64-0.026-5.187,0.333c-0.414,0.094-0.467,0.761-0.054,0.667L169,141z"/>
	<path fill="#2E3B8A" d="M241.147,131.187c-0.975-2.213-2.308-4.533-4.574-5.347c-2.16-0.786-4.693,0.081-6.266,1.761
		c-1.562,1.68-2.268,4.025-2.374,6.32l0.573-2.734c0.693,6.854-2.44,16.4-3.573,23.188c-0.066,0.346,6.56,2.88,8.827,2.773
		c5.799-0.28,11.466-1.507,13.813-4.694C247.96,144.867,244.2,138.147,241.147,131.187z"/>
	<path fill="#121769" d="M241.773,130.773c-0.894-2.254-2.934-4.12-5.2-4.934c-2.16-0.786-4.693,0.081-6.266,1.761
		c-1.562,1.68-2.229,2.252-2.334,4.547l0.96,1.932c1.239,3.455,3.573,4.881,5.8,5.387
		C238.32,140.293,243.921,136.147,241.773,130.773z"/>
	<path fill="#3B3DB0" d="M198.04,75.187c0.586-0.827,22.973-1.054,33.066-0.72c13.453,0.453,27.133,1.494,40.494,3.146l0.186,2.227
		c1.201,19.586-3,55.16-3.68,55.626c-0.853,0.574-72.186-2.879-72.959-3.586C194.04,130.867,197.56,75.867,198.04,75.187z"/>
	<path fill="#FFFFFF" d="M205.254,84.693c0.466-0.654,18.133-0.72,26.212-0.453c10.773,0.346,21.788,1.08,32.494,2.4l0.094,2.2
		c-0.147,14.587-2.147,37.987-2.694,38.374c-0.68,0.453-57.786-2.308-58.413-2.881C202.066,123.534,204.867,85.24,205.254,84.693z"
		/>
	<path fill="#2E3B8A" d="M235.974,79.813c0,0.613-0.493,1.107-1.106,1.107c-0.601,0-1.106-0.494-1.106-1.107
		c0-0.6,0.506-1.093,1.106-1.093C235.48,78.72,235.974,79.213,235.974,79.813z"/>
	<path fill="#FC452E" d="M212.88,91.987c0.014,2.2-0.2,4.227-0.2,6.427c2.106-0.16,4.427-0.027,6.534,0.026
		c0.106-1.68,0.279-3.52,0.053-5.786c-0.027-0.228-0.106-0.467-0.279-0.587c-0.16-0.12-0.361-0.12-0.561-0.106
		c-1.707,0.026-3.4,0.053-5.106,0.079L212.88,91.987z"/>
	<path fill="#E8EDF5" d="M222.813,93.627c-0.08,1.613-0.16,2.48,0.187,4.053c7.733-0.186,32.239,1.307,32.214,1.107
		c-0.066-0.667,0.427-4.307,0.186-4.613c-0.32-0.387-22.213-1.56-32.387-0.733L222.813,93.627z"/>
	<path fill="#FFB03D" d="M212.333,101.733c0,2.213-0.2,4.227-0.2,6.439c2.106-0.16,4.414-0.025,6.521,0.027
		c0.107-1.681,0.293-3.533,0.054-5.787c-0.015-0.227-0.094-0.467-0.28-0.6c-0.146-0.106-0.36-0.106-0.547-0.106
		c-1.707,0.039-3.414,0.066-5.119,0.093L212.333,101.733z"/>
	<path fill="#E8EDF5" d="M222.267,102.827c-0.094,1.613-0.173,2.48,0.174,4.053c7.732-0.188,32.239,1.307,32.227,1.107
		c-0.066-0.667,0.412-4.308,0.173-4.601c-0.306-0.399-22.214-1.56-32.387-0.733L222.267,102.827z"/>
	<path fill="#80D1E0" d="M211.786,111.133c0,2.2-0.213,4.227-0.199,6.427c2.093-0.16,4.413-0.025,6.52,0.027
		c0.107-1.681,0.293-3.521,0.054-5.787c-0.027-0.227-0.106-0.467-0.28-0.586c-0.16-0.12-0.36-0.12-0.56-0.12
		c-1.694,0.039-3.399,0.066-5.106,0.093L211.786,111.133z"/>
	<path fill="#E8EDF5" d="M221.707,112.773c-0.081,1.613-0.16,2.48,0.187,4.054c7.732-0.187,32.239,1.306,32.213,1.106
		c-0.066-0.667,0.428-4.308,0.187-4.613c-0.306-0.387-22.214-1.56-32.387-0.733L221.707,112.773z"/>
</g>
</svg>
