<?xml version="1.0" encoding="utf-8"?>
<!-- Generator: Adobe Illustrator 13.0.0, SVG Export Plug-In . SVG Version: 6.00 Build 14948)  -->
<!DOCTYPE svg PUBLIC "-//W3C//DTD SVG 1.1//EN" "http://www.w3.org/Graphics/SVG/1.1/DTD/svg11.dtd">
<svg version="1.1" id="Layer_1" xmlns="http://www.w3.org/2000/svg" xmlns:xlink="http://www.w3.org/1999/xlink" x="0px" y="0px"
	 width="288px" height="288.004px" viewBox="0 0 288 288.004" enable-background="new 0 0 288 288.004" xml:space="preserve">
<path fill-rule="evenodd" clip-rule="evenodd" d="M144.126,287.995c-1.013,0.013-2.067,0.013-3.227-0.013
	c-0.6,0.013-1.187,0-1.773-0.027c-0.239,0-0.479-0.014-0.707-0.133c-0.16-0.015-0.32-0.027-0.479-0.027
	c-2.027,0.066-4-0.066-6.774-0.4c-2.16-0.094-4.333-0.333-7.28-0.88c-2.374-0.173-4.693-0.56-6.8-1.066
	c-0.014,0-0.027,0-0.574-0.133c-0.186,0.013-0.346-0.027-0.506-0.054c-3.774-0.666-7.507-1.561-11.134-2.587
	c0.014,0,0.014,0,0.027,0.013c-0.146-0.039-0.146-0.039-0.04-0.013c0.013,0,0.013,0,0.013,0c-1.613-0.453-3.173-0.921-4.879-1.52
	c-2.107-0.667-4.201-1.387-6.294-2.188c-0.04,0-0.08-0.014-0.146-0.039c-0.094-0.041-0.201-0.081-0.374-0.16
	c-0.946-0.348-2-0.773-3.2-1.308c-1.4-0.479-2.787-1.054-4.547-1.934c-1.28-0.493-2.52-1.066-3.853-1.773
	c-1.333-0.573-2.76-1.319-4.494-2.293c-0.987-0.453-1.96-0.947-3.093-1.613c-1.08-0.561-2.147-1.174-4.014-2.4
	c-1.16-0.587-2.347-1.32-3.76-2.32c-0.934-0.507-1.813-1.079-2.667-1.653c-0.494-0.319-0.96-0.627-1.427-0.947
	c-0.387-0.279-0.787-0.545-1.266-0.919c-0.587-0.414-1.174-0.84-2.427-1.881c-0.8-0.506-1.587-1.079-2.56-1.88
	c-0.453-0.28-0.867-0.613-1.293-0.934c-0.16-0.133-0.307-0.253-0.387-0.453c-0.187-0.133-0.414-0.32-0.64-0.52
	c-1.627-1.134-3.121-2.387-5.88-5.014c-0.747-0.533-1.427-1.16-2.093-1.787c-0.201-0.174-0.387-0.359-0.48-0.64
	c-22.841-21.348-37.321-49.043-42.722-78.403c-0.56-2.84-0.026-5.881,1.734-8.428c3.453-5,10.307-6.254,15.307-2.8
	c2.494,1.733,4.067,4.307,4.574,7.08l0,0c4.719,25.841,17.72,50.176,38.321,68.576c1.707,1.653,3.52,3.2,5,4.254
	c0.587,0.534,1.187,1.041,1.773,1.48c1.013,0.854,2.067,1.64,2.667,1.96c0.107,0.079,0.173,0.12,0.24,0.16
	c0.12,0.106,0.253,0.199,0.373,0.28c2.427,1.84,2.947,2.199,2.773,2.039c0.653,0.454,1.227,0.813,1.72,1.094
	c0.387,0.28,0.76,0.547,1.134,0.761c1.359,0.959,2.772,1.826,3.586,2.199c0.28,0.188,0.493,0.294,0.693,0.4
	c0.867,0.573,1.746,1.107,2.573,1.573c2.2,1.239,4.44,2.387,6.667,3.387c0.533,0.268,0.973,0.44,1.36,0.586
	c1.48,0.801,3.014,1.494,4.134,1.827c1.32,0.667,2.707,1.214,4.16,1.761c0.974,0.36,1.933,0.666,2.72,0.867
	c0.653,0.293,1.333,0.545,2,0.799c1.92,0.627,3.853,1.201,5.641,1.667c1.013,0.293,1.92,0.534,2.787,0.761
	c0.88,0.214,1.773,0.426,2.68,0.626c1.4,0.32,2.76,0.588,4.187,0.827c0.374,0.094,0.76,0.173,1.147,0.253
	c6.454,1.146,13.054,1.773,19.761,1.841c2.387,0.133,4.76,0.093,6.574-0.081h1.32c0.439-0.04,0.826-0.079,1.187-0.133
	c0.68,0,1.374-0.014,2.013-0.053c0.52-0.054,0.975-0.12,1.374-0.188c0.561-0.026,1.133-0.054,1.68-0.093
	c0.293-0.04,0.573-0.094,0.814-0.147c2.372-0.16,4.732-0.48,6.493-0.867c0.533-0.052,1.054-0.119,1.561-0.186
	c0.613-0.12,1.16-0.253,1.652-0.387c1.348-0.174,2.681-0.428,3.854-0.693c5.746-1.294,11.426-2.987,16.894-5.2
	c0.973-0.268,1.586-0.547,2.106-0.814c0.093-0.025,0.199-0.053,0.307-0.092c5.613-2.201,11.041-4.881,16.214-8.014
	c0.4-0.214,0.787-0.427,1.094-0.614c1.214-0.706,2.413-1.467,3.293-2.159c0.041-0.04,0.081-0.067,0.12-0.094
	c1.975-1.133,3.867-2.453,5.135-3.507c0.173-0.106,0.333-0.227,0.493-0.333c0.546-0.334,1.066-0.721,0.599-0.468v-0.013
	c0.027-0.014,0.054-0.026,0.081-0.054c3.453-2.573,4.76-3.64,6.014-4.721c0.773-0.639,1.439-1.252,1.76-1.626
	c1.8-1.507,3.533-3.133,5.214-4.814c0.387-0.399,0.76-0.799,1.093-1.186c0.227-0.201,0.44-0.4,0.653-0.601
	c1.947-2.026,3.827-4.133,5.642-6.32c1.532-1.693,2.959-3.479,3.96-4.96c1.333-1.64,2.572-3.347,3.439-4.814
	c0.066-0.079,0.093-0.133,0.12-0.186c0.094-0.12,0.187-0.253,0.267-0.387c0.187-0.268,0.359-0.507,0.52-0.733
	c0.041-0.079,0.094-0.147,0.133-0.227c0.374-0.48,0.761-1.04,1.188-1.733c0.133-0.188,0.12-0.188,0.093-0.147
	c0.188-0.279,0.348-0.547,0.493-0.799c0.081-0.147,0.135-0.28,0.188-0.387c1.253-1.881,2.4-3.827,3.214-5.521
	c0.146-0.239,0.227-0.413,0.307-0.586c0.466-0.761,0.906-1.534,1.293-2.28c0.134-0.213,0.254-0.453,0.24-0.467
	c0.227-0.413,0.426-0.827,0.533-1.16c0.119-0.24,0.188-0.4,0.227-0.546c1.24-2.361,2.36-4.788,3.32-7.28
	c0.48-1.04,0.88-2.068,1.134-2.908c0.719-1.692,1.334-3.387,1.879-5.092c0.254-0.788,0.468-1.562,0.613-2.229
	c0.135-0.333,0.254-0.68,0.374-1.013c0.414-1.426,0.813-2.947,1.2-4.573c0.093-0.28,0.174-0.547,0.253-0.814
	c0.066-0.293,0.12-0.6,0.173-0.893c0.175-0.494,0.348-1.066,0.508-1.707c0.014-0.093,0.039-0.187,0.053-0.293
	c0.094-0.426,0.147-0.813,0.175-1.107c0.613-2.453,1.053-4.934,1.266-7c0.053-0.227,0.106-0.453,0.146-0.68
	c0.027-0.293,0.054-0.587,0.08-0.88c0.106-0.426,0.2-0.92,0.281-1.44c0.293-2.334,0.52-4.68,0.68-7.039
	c0.025-0.575,0.039-1.107,0.039-1.628c0.014-0.093,0.027-0.187,0.027-0.28c0.173-2.532,0.213-5.093,0.133-7.534
	c0.121-0.853,0.08-2-0.039-2.786c0.053-2.014-0.054-3.854-0.254-5.321c0-0.24-0.014-0.48-0.014-0.719
	c-0.04-0.294-0.08-0.587-0.119-0.894c0-0.133,0-0.293-0.015-0.439c-0.013-0.16-0.039-0.293-0.066-0.44
	c-0.013-0.293-0.026-0.586-0.039-0.88c-0.04-0.24-0.081-0.48-0.106-0.72c-0.027-0.333-0.041-0.68-0.081-1.04
	c-0.04-0.267-0.094-0.507-0.133-0.734c-0.027-0.213-0.04-0.427-0.066-0.64c-0.04-0.854-0.106-1.293-0.134-1.266
	c-0.041-0.214-0.08-0.414-0.133-0.587c-0.214-2.2-0.588-4.386-1-6.093c-0.268-1.414-0.575-2.813-0.894-4.214
	c-0.16-0.84-0.334-1.653-0.507-1.986c-0.521-2.294-1.147-4.534-1.907-6.72c-0.054-0.307-0.133-0.654-0.24-1.027
	c-0.146-0.414-0.293-0.787-0.439-1.134c-0.428-1.56-0.947-3.107-1.44-4.346c-0.601-1.654-1.253-3.28-1.773-4.173
	c-0.359-1.161-0.733-1.934-1.08-2.561c-0.106-0.307-0.227-0.613-0.348-0.906c-0.052-0.213-0.186-0.507-0.066-0.147
	c-0.106-0.2-0.213-0.373-0.306-0.52c-1.44-3.36-3.12-6.627-5.013-9.774c-0.334-0.667-0.734-1.294-1.161-1.907
	c-0.493-1.053-1.4-2.467-2.4-3.813c-0.199-0.36-0.439-0.76-0.787-1.253c-0.359-0.613-0.84-1.347-1.572-2.227
	c-0.027-0.041-0.041-0.054-0.054-0.08c-0.934-1.494-1.974-2.934-2.894-4.067c-0.52-0.68-1.106-1.373-1.72-2.054
	c-0.133-0.186-0.28-0.386-0.507-0.653c-0.48-0.747-1.547-2.027-2.694-3.227c-0.266-0.333-0.586-0.667-0.906-1
	c-0.119-0.146-0.239-0.307-0.439-0.507c-0.907-1.12-1.761-1.987-2.481-2.64c-0.052-0.067-0.105-0.12-0.146-0.174
	c-0.214-0.213-0.453-0.44-0.707-0.693c-0.094-0.106-0.187-0.2-0.293-0.293c-0.054-0.053-0.094-0.106-0.188-0.187
	c-1.426-1.587-2.906-3-4.24-4.12c-1.239-1.267-2.946-2.747-4.746-4.134c-2.308-1.92-4.653-3.747-7.054-5.467
	c-0.146-0.08-0.279-0.16-0.387-0.214c-1.439-1.106-2.934-2.133-4.333-3c-1.574-1.013-3.16-2-4.787-2.947
	c-0.308-0.16-0.574-0.28-0.773-0.346c-2.106-1.307-4.28-2.48-6.16-3.307c-0.573-0.374-1.188-0.68-0.827-0.44
	c-0.173-0.066-0.333-0.146-0.507-0.227c-0.414-0.227-0.88-0.467-1.439-0.734c-0.613-0.307-1.24-0.6-1.387-0.586
	c-0.187-0.08-0.32-0.12-0.44-0.16c-2.746-1.32-5.588-2.48-8.52-3.387c-5.321-2.054-10.774-3.574-16.228-4.627
	c-0.121-0.013-0.227-0.04-0.348-0.054c-0.334-0.093-0.706-0.2-1.174-0.293c-5.68-1.147-11.426-1.84-17.16-1.987
	c-1.359-0.187-2.507-0.2-3.533-0.173c-0.267-0.027-0.534-0.041-0.786-0.053c-0.348,0-0.682,0.013-1.027,0.04
	c-0.614-0.066-1.347-0.093-2.147-0.093c-0.44,0.013-0.827,0.054-1.12,0.093c-1.8-0.066-4.161,0.041-6.521,0.307
	c-0.267,0-0.56,0-0.88,0.014c-0.533,0.066-1.08,0.133-1.626,0.213c-0.4,0-0.854,0.013-1.387,0.053
	c-0.64,0.08-1.333,0.187-2.014,0.308c-0.36,0.026-0.747,0.053-1.173,0.093c-0.44,0.066-0.867,0.146-1.307,0.24
	c-1.28,0.106-2.813,0.333-4.427,0.653c-1.387,0.2-3.027,0.533-4.667,0.987c-2.214,0.48-4.414,1.013-6.574,1.64
	c0.36-0.107,0.267-0.094,0.173-0.067c-2.587,0.707-5.134,1.494-7.587,2.454c-0.947,0.187-2.28,0.693-3.574,1.24
	c-3.267,1.187-6.28,2.494-9.374,4.067c-1.333,0.6-2.934,1.413-4.507,2.266c-0.773,0.44-1.547,0.907-2.307,1.387
	c-0.814,0.374-1.787,0.907-2.867,1.56c-1.16,0.707-2.333,1.44-3.427,2.267c-1.04,0.533-2.414,1.494-3.733,2.533
	c-0.36,0.214-0.747,0.467-1.227,0.827c-1.106,0.706-2.6,1.84-4.014,3.066c-1.133,0.76-2.72,2.054-4.173,3.48
	c-0.187,0.133-0.387,0.281-0.64,0.52c-0.734,0.521-1.973,1.627-3.133,2.813c-0.32,0.281-0.64,0.614-0.96,0.947
	c-0.44,0.36-0.92,0.8-1.48,1.36c0.133-0.187-0.32,0.28-2.4,2.546c-0.107,0.094-0.2,0.2-0.293,0.307
	c-0.054,0.054-0.107,0.094-0.187,0.187c-0.547,0.44-1.454,1.414-2.307,2.44c-0.493,0.533-1,1.146-1.48,1.773
	c-1.253,1.293-2.747,3.133-4.12,5.066c-16.974,21.801-25.388,48.083-25.388,74.364c0,2.813-1.08,5.641-3.227,7.786
	c-4.294,4.294-11.268,4.294-15.561,0C1.066,149.642,0,146.815,0,144.001c0-29.868,9.214-59.75,27.828-84.884
	c0.04-0.266,0.173-0.48,0.333-0.68c0.56-0.76,1.133-1.52,1.8-2.214c2.24-3.066,3.48-4.573,4.867-5.973c0.16-0.2,0.319-0.4,0.44-0.48
	c0.04-0.24,0.186-0.427,0.346-0.601c1.747-2,3.56-3.959,5.427-5.867c0.414-0.453,0.761-0.813,1.121-1.16
	c0.387-0.4,0.787-0.787,1.227-1.186c0.68-0.667,1.387-1.347,2.173-1.96c1.24-1.28,2.293-2.24,3.347-3.04
	c1.613-1.534,2.546-2.32,3.507-3.067c1.013-0.88,1.893-1.56,2.8-2.2c1.507-1.253,2.774-2.24,3.974-3.04
	c1.187-0.934,2.307-1.72,3.48-2.44c1.587-1.201,2.854-2.014,4.161-2.747c1.28-0.84,2.493-1.613,3.64-2.32
	c2.293-1.4,4.346-2.546,6.133-3.48c0.653-0.346,0.653-0.346,0.573-0.307c0.6-0.307,1.2-0.613,1.814-0.84
	c1.359-0.72,2.693-1.36,4.08-2.014c0.773-0.333,1.6-0.68,2.44-1c1.987-1.04,3.974-1.88,6-2.587c-0.04,0.014-0.066,0.014-0.066,0.067
	c0.586-0.254,0.613-0.254,0.626-0.267c2.6-1.093,4.507-1.773,6.507-2.28c2.813-1.067,4.894-1.693,7.013-2.173
	c2.654-0.827,4.587-1.307,6.587-1.6c0.107-0.027,0.2-0.053,0.307-0.08c0.187-0.16,0.414-0.213,0.64-0.266
	c0.627-0.134,1.253-0.267,1.88-0.36c1.146-0.267,2.187-0.454,3.213-0.614c1.054-0.213,1.947-0.386,2.747-0.507
	c0.68-0.133,1.146-0.213,1.613-0.28c1.013-0.16,2.027-0.293,3.04-0.36c1.146-0.173,2.2-0.293,3.213-0.373
	c1.04-0.134,1.986-0.227,2.894-0.28c1.173-0.16,1.92-0.227,2.667-0.267c0.707-0.054,1.427-0.093,2.12-0.093
	c0.92-0.053,1.814-0.094,2.814-0.094c2.16-0.12,3.92-0.12,5.68,0.014c1.48-0.067,2.707-0.08,3.813-0.041c0.093,0,0.174,0,0.266,0
	c0.081,0,0.16,0,0.428,0.027c0.227,0,0.254,0,0.267,0c1.066,0.027,2.214,0.094,3.547,0.213c0.706,0.027,1.387,0.066,2.293,0.134
	c2.041,0.173,4.361,0.399,6.654,0.693c0.64,0.08,1.227,0.146,1.8,0.239c1.027,0.134,2.134,0.32,3.373,0.547
	c0.547,0.08,1.066,0.173,3.681,0.64c-0.479-0.107-0.96-0.2-1.44-0.28c2.867,0.479,5.32,1,7.414,1.494
	c0.721,0.173,0.706,0.173,0.627,0.16c1.613,0.387,3.2,0.799,4.746,1.253c2.2,0.587,4.36,1.253,6.493,1.947l0.041,0.013l0.025,0.014
	c0.961,0.32,1.934,0.653,3.041,1.107c1.28,0.413,2.547,0.879,3.84,1.387c0.04,0.013,0.094,0.026,0.147,0.053
	c0.786,0.293,1.493,0.587,2.16,0.894c0.827,0.346,1.667,0.72,2.532,1.106c0.107,0.041,0.201,0.08,0.295,0.133
	c1.56,0.587,3.092,1.28,4.813,2.2c0.227,0.067,0.387,0.16,0.56,0.254c1.175,0.52,2.201,1,3.121,1.466
	c0.933,0.454,1.92,0.973,3.159,1.734c1.707,0.893,3.387,1.853,5.054,2.866c0.414,0.253,0.813,0.521,1.2,0.787
	c1.428,0.734,2.054,1.121,2.681,1.533c0.547,0.347,1.094,0.707,1.627,1.067c0.84,0.56,1.733,1.2,2.746,1.959
	c1.841,1.187,3.214,2.214,4.521,3.307c1.067,0.733,1.946,1.374,2.787,2.026c0.093,0.067,0.174,0.134,0.266,0.201
	c0.068,0.053,0.147,0.106,0.201,0.173c0.013,0.013,0.013,0.013,0.013,0.013c0.921,0.72,1.894,1.534,3.014,2.547
	c1.587,1.267,2.666,2.2,3.587,3.066c0.427,0.4,0.867,0.814,1.334,1.267c0.16,0.146,0.333,0.293,0.506,0.44
	c0.12,0.066,0.227,0.16,0.334,0.267c0.254,0.227,0.493,0.454,0.732,0.68c0.348,0.32,0.682,0.653,1.041,1
	c0.506,0.467,1,0.96,1.493,1.453c0.293,0.294,0.586,0.587,0.96,1c0.493,0.494,0.974,1,1.453,1.494c0.439,0.44,0.786,0.8,1.12,1.16
	c0.387,0.414,0.76,0.827,1.146,1.28c0.347,0.373,0.694,0.773,1.027,1.213c0.014,0.013,0.026,0.027,0.039,0.053
	c1.015,1.027,2,2.16,3.12,3.547c0.547,0.654,1.107,1.36,1.707,2.147c0.588,0.693,1.041,1.254,1.44,1.787
	c0.254,0.333,0.507,0.653,0.733,0.959c0.36,0.454,0.707,0.92,1.119,1.587c0.268,0.32,0.468,0.6,0.654,0.894
	c1.2,1.546,2.134,2.84,2.894,4.067c0.76,1.053,1.414,2.04,1.974,3.053c0.12,0.134,0.199,0.28,0.28,0.427
	c0.106,0.147,0.199,0.293,0.306,0.454c0.468,0.667,0.867,1.293,1.214,1.88c0.333,0.467,0.627,0.96,0.92,1.44l0.014,0.053
	l0.013,0.014c0.468,0.787,0.934,1.587,1.72,3.106c0.254,0.4,0.468,0.773,0.667,1.121c0.12,0.227,0.241,0.453,0.361,0.667
	c0.227,0.427,0.453,0.853,0.68,1.293c0.173,0.24,0.32,0.507,0.453,0.773c0-0.013-0.014-0.013-0.014-0.026
	c0.066,0.133,0.066,0.133,0.014,0.026l0,0c0.094,0.2,0.2,0.387,0.307,0.601c0.533,1.027,1.026,2.013,1.467,2.92
	c0.32,0.667,0.307,0.667,0.279,0.586c0.28,0.614,0.573,1.214,0.773,1.84c0.667,1.374,1.268,2.734,1.867,4.146
	c0.146,0.387,0.307,0.787,0.453,1.213c0.227,0.374,0.44,0.92,0.667,1.507c0.373,0.88,0.746,1.827,1.133,2.894
	c0.135,0.346,0.268,0.707,0.4,1.053c0.227,0.64,0.439,1.267,0.641,1.894c-0.014-0.041-0.027-0.054-0.066-0.054
	c0.227,0.587,0.227,0.6,0.239,0.626c0.641,1.681,1.12,3.081,1.493,4.414c0.227,0.693,0.453,1.44,0.667,2.253
	c0.306,0.947,0.601,1.947,0.88,3.08c0.146,0.534,0.28,1.041,0.413,1.534c0.214,0.84,0.414,1.76,0.626,2.813
	c0.241,0.894,0.468,1.813,0.667,2.88c0.268,1.067,0.494,2.187,0.707,3.467c0.027,0.146,0.066,0.294,0.094,0.44
	c0.054,0.133,0.08,0.267,0.094,0.387c0.066,0.373,0.133,0.733,0.199,1.093c0.066,0.387,0.12,0.8,0.187,1.227
	c0.16,0.707,0.281,1.427,0.387,2.147c0.094,0.6,0.175,1.2,0.254,2.054c0.066,0.493,0.133,0.947,0.187,1.373
	c0.121,0.68,0.173,1.146,0.227,1.613c0.121,1.027,0.213,2.054,0.24,3.066c0.039,0.294,0.066,0.574,0.093,0.854
	c0.147,0.947,0.214,1.907,0.28,2.867c0.027,0.48,0.067,0.96,0.067,1.654c0.026,0.4,0.039,0.84,0.054,1.293
	c0.079,0.88,0.106,1.507,0.133,2.134c0.013,0.707,0.04,1.414,0.013,2.121c0,0.307,0.015,0.613,0.015,0.92
	c0.013,0.426,0.013,0.853,0.013,1.28c0,0.173,0,0.36-0.04,0.533c0,0.027,0,0.054,0,0.08c0.013,0.961,0.013,1.854,0,2.681
	c0,1.372-0.08,2.853-0.24,4.667c0,0.786-0.027,1.573-0.08,2.399c-0.014,0.24-0.026,0.467-0.054,0.693c0,0.014,0,0.014,0,0.053
	c0,0.107-0.013,0.227-0.026,0.361c-0.066,0.946-0.16,1.959-0.307,3.119c-0.08,1.12-0.187,2.134-0.319,3.067
	c-0.147,1.547-0.374,3.04-0.653,4.453c0,0.027-0.014,0.04-0.12,0.587c0.026,0.187,0,0.347-0.027,0.507
	c-0.106,0.692-0.199,1.374-0.32,2.079v0.015c-0.173,1.039-0.387,2.133-0.68,3.359c-0.347,1.947-0.721,3.721-1.146,5.507
	c-0.014,0.094-0.027,0.173-0.053,0.254c0,0,0.013-0.013,0.013-0.027c-0.04,0.147-0.04,0.147-0.013,0.04v-0.013
	c-0.054,0.239-0.121,0.479-0.175,0.707c-0.266,1.12-0.546,2.159-0.813,3.12c-0.2,0.706-0.188,0.706-0.173,0.626
	c-0.44,1.588-0.908,3.16-1.414,4.693c-0.093,0.281-0.174,0.561-0.613,1.773c-0.026,0.134-0.066,0.254-0.12,0.387
	c0,0.04-0.013,0.081-0.04,0.147c-0.026,0.106-0.066,0.2-0.133,0.387c-0.027,0.079-0.054,0.16-0.107,0.279
	c-0.346,1.174-0.76,2.32-1.173,3.44l-0.013,0.054l-0.015,0.013c-0.825,2.28-1.733,4.547-2.787,6.947
	c-0.333,0.76-0.639,1.467-0.973,2.12c-0.373,0.813-0.773,1.641-1.2,2.493c-0.04,0.12-0.094,0.241-0.147,0.347
	c-0.105,0.213-0.212,0.427-0.333,0.641c-0.413,1-0.866,2-1.492,3.16c-0.387,0.8-0.788,1.586-1.427,2.68
	c-0.334,0.653-0.641,1.254-0.96,1.813c-0.628,1.187-1.361,2.44-2.32,3.935c-0.4,0.771-0.854,1.506-1.293,2.227
	c-0.295,0.506-0.601,0.985-0.908,1.453c-0.252,0.412-0.52,0.813-0.865,1.306c-0.241,0.374-0.494,0.761-0.894,1.308
	c-0.44,0.733-0.748,1.173-1.054,1.626c-0.374,0.534-0.747,1.066-1.134,1.573c-0.24,0.348-0.507,0.707-0.787,1.067
	c-0.186,0.293-0.399,0.586-0.613,0.866c-0.094,0.134-0.186,0.267-0.333,0.347c-0.094,0.134-0.214,0.267-0.32,0.414
	c-0.413,0.586-0.8,1.133-1.187,1.64c-0.732,1.027-1.641,2.146-2.974,3.666c-0.627,0.827-1.199,1.547-1.826,2.268
	c-0.027,0.04-0.067,0.08-0.36,0.399c-0.133,0.2-0.28,0.374-0.427,0.534c-0.08,0.094-0.16,0.187-0.253,0.28
	c-0.72,0.786-1.534,1.641-2.493,2.613c-1.041,1.254-2.147,2.453-3.627,3.853c-0.734,0.827-1.534,1.641-2.48,2.534
	c-0.48,0.493-0.987,0.974-1.493,1.453c-0.547,0.507-1.095,1.013-2.374,1.987c-1.174,1.173-2.426,2.28-4.026,3.534
	c0,0,0,0-0.013,0.013c-0.334,0.306-0.694,0.601-1.094,0.894c-0.693,0.653-1.561,1.333-2.548,2.079c-0.813,0.641-1.692,1.28-2.72,2
	c-0.8,0.628-1.586,1.214-2.306,1.707c-0.094,0.066-0.188,0.147-0.334,0.227c-4.027,2.867-8.188,5.48-12.453,7.868
	c-0.455,0.279-0.895,0.532-1.334,0.773l-0.053,0.025h-0.015c-1.827,1-3.693,1.975-5.721,2.934c-0.199,0.094-0.412,0.201-0.613,0.293
	c-0.252,0.16-0.506,0.28-0.759,0.4c0.013,0,0.026,0,0.026,0c-0.133,0.053-0.133,0.053-0.026,0.014c0-0.014,0-0.014,0-0.014
	c-1.468,0.694-2.894,1.36-4.507,2.015c-2.48,1.066-4.987,2.079-7.508,3c-0.319,0.119-0.652,0.239-1,0.346
	c-0.894,0.347-1.841,0.68-2.92,1.026c-0.534,0.2-1.094,0.387-1.894,0.56c-1.773,0.641-3.587,1.188-5.628,1.654
	c-0.759,0.308-1.719,0.56-2.786,0.813c-1.066,0.307-2.187,0.573-3.507,0.854c-0.04,0.013-0.079,0.013-0.359,0.066
	c-0.214,0.08-0.427,0.121-0.641,0.174c-0.16,0.039-0.32,0.066-0.479,0.105c-0.76,0.147-1.574,0.308-2.493,0.44
	c-0.894,0.227-1.84,0.414-2.894,0.574c-1.081,0.227-2.214,0.413-3.493,0.586c-0.975,0.188-2,0.333-3.174,0.468
	c-0.707,0.133-1.427,0.227-2.16,0.306c-0.72,0.081-1.453,0.16-2.628,0.2c-1.532,0.187-3.187,0.293-5.306,0.334
	c-1.268,0.227-2.601,0.293-3.921,0.333c-0.479,0.013-0.96,0.013-1.652,0C146.073,288.007,145.192,288.007,144.126,287.995z"/>
</svg>
