<svg xmlns="http://www.w3.org/2000/svg" width="128" height="128"><path fill-rule="evenodd" clip-rule="evenodd" fill="#F7FAFF" d="M11.3 27.7c20-29.1 59.9-36.5 89-16.4 29.1 20 36.5 59.9 16.4 89-20 29.1-59.9 36.4-89 16.4s-36.4-59.9-16.4-89z"/><path fill-rule="evenodd" clip-rule="evenodd" fill="#E8EBEB" d="M125.1 91.2L82.7 11.9 8.8 40.6 61 128z"/><path fill="#3D40B2" d="M3.2 32.6l.2-.4.2-.2.5-.3 1.1-.7 2.1-1.1 4.3-2 8.8-3.9 8.8-3.7 8.9-3.5 9-3.5L56 10l9.1-3.1 4.6-1.4 2.3-.6 1.2-.2.6-.1h.3l.4.1-.2.3-.2.2-.5.4-1.1.6-2.1 1.1-4.3 2.1-8.8 3.9-8.8 3.6-8.9 3.6-9 3.4-9 3.3-9 3.1L8 31.7l-2.3.6-1.2.3-.6.1h-.4zM74.5 4.7l.4.1.2.3.5.5.9 1.1 1.6 2.2 3.1 4.4 5.9 9.2 5.7 9.2 5.6 9.3 5.4 9.4 5.4 9.4 5.2 9.6 2.5 4.8 1.1 2.5.5 1.3.2.6.1.4v.4l-.4-.2-.3-.2-.4-.5-.9-1.1-1.6-2.2-3.1-4.5-5.9-9.1-5.7-9.2-5.6-9.3-5.5-9.4-5.3-9.5-5.2-9.5-2.5-4.9-1.1-2.4-.5-1.3-.3-.7v-.3z"/><path fill-rule="evenodd" clip-rule="evenodd" fill="#FFF" d="M117.7 88.5L69.9 11 3.6 31.1l60.3 92.4z"/><path fill-rule="evenodd" clip-rule="evenodd" fill="#FFF" d="M121.2 83.3L74.5 4.7 4.3 33.2l56.9 86.7z"/><path fill-rule="evenodd" clip-rule="evenodd" fill="#3D40B2" d="M3.5 31.3l7.9 12.3 69.9-26.9-7.8-13.1z"/><path fill="#3D40B2" d="M4.3 33.2l.5.2.3.3.5.6 1.1 1.2 2 2.6 3.9 5.2L20 53.9l7.3 10.8 7.2 10.8 7 10.9 6.9 10.9 6.8 11.1 3.3 5.6 1.5 2.9.7 1.4.4.8.1.4v.5l-.4-.3-.3-.2-.6-.6-1-1.3-2-2.5-3.9-5.3-7.5-10.6-7.2-10.7-7.2-10.8L24 66.8l-6.9-11-6.7-11-3.3-5.7-1.6-2.8-.7-1.5-.3-.7-.1-.4z"/><path fill="#D4E3FC" d="M70.3 115.7l.5-.6.6-.4 1.2-.9 2.5-1.7 5-3.3 10.2-6.4 10.3-6.1 5.3-3 2.6-1.4 1.4-.6.7-.4.8-.1-.6.6-.5.5-1.3.8-2.4 1.8-5.1 3.3-10.2 6.3-10.3 6.1-5.2 3-2.7 1.4-1.3.7-.7.3z"/><path fill="#5E59B2" d="M47.4 25.8l.4-.4.4-.3.8-.5 1.7-.9 3.4-1.7 6.9-3.1 7.1-2.8 3.5-1.3 1.8-.6 1-.2.4-.1h.6l-.4.4-.4.3-.8.5-1.7.9-3.4 1.7-6.9 3.1-7.1 2.8-3.5 1.3-1.9.6-.9.3-.5.1z"/><path fill="#E8EBEB" d="M54 44.6l.2-.3.1-.2.4-.3.8-.6 1.6-1 3.4-1.7 6.9-3.2 7.1-2.8 3.6-1.2 1.9-.5.9-.2h.8l.3.1-.1.4-.2.1-.4.4-.8.5-1.6 1-3.4 1.8-6.9 3.2-7.1 2.7-3.6 1.2-1.8.5-1 .2-.5.1h-.2zm3.2 9.3l.1-.3v-.1l.2-.3.5-.4.9-.7 1.9-1.1 4-1.9 4.1-1.6 2.2-.6 1.1-.1.6-.1.3.1h.2l.2.2v.3l-.1.1-.2.3-.4.4-.9.7-2 1.1-4 1.9-4.1 1.6-2.1.6-1.2.1-.6.1-.3-.1h-.1z"/><path fill-rule="evenodd" clip-rule="evenodd" fill="#141C6B" d="M15.1 23.3l4.8 7.5 42.7-16.4-4.8-8z"/><path fill="#141C6B" d="M38.2 18.2c-.1 0-.3.1-.4.1-.4.1-.8.1-1.2.1-.5 0-1.2-.2-1.7-.4-1.2-.5-2.1-1.4-2.8-2.5-.1-.3-.2-.5-.4-.8-.1-.2-.2-.5-.2-.8-.1-.6-.1-1.2 0-1.9.2-1.1.9-2.2 2-2.8.3-.1.5-.2.7-.3.2-.1.5-.1.7-.2.5-.1 1-.1 1.5 0 1.9.3 3.6 1.7 4.4 3.5.8 1.8.7 4-1 5.3-.4.3-.8.4-1.2.5-.2.2-.3.2-.4.2.3-.1.6-.3.9-.4.8-.5 1.2-1.4 1.2-2.3v-.6c0-.2-.1-.4-.1-.6-.1-.3-.2-.5-.3-.8v.1c-.1-.1-.1-.3-.2-.4-.2-.3-.5-.7-.8-1-.2-.1-.3-.3-.5-.4-.5-.4-1.2-.7-1.9-.8H36c-.2 0-.5 0-.7.1h.1c-.3.1-.6.2-.8.3-.1.1-.3.2-.4.4-.3.4-.5 1-.5 1.5v.8c0 .1.1.3.1.4v-.1c.5 2 2.3 3.7 4.4 3.8z"/><path fill="#FC5714" d="M76 78.5l.9-.8.9-.5 2-1.2 3.9-2.1-.4.4v.5l-3.1-8.4.1-.7.3-.4.7-.2.5.3 10.4 10.1-.5-.3-.6.1-.4.4-.1.6-.4-5.1.1-.4.4-.4 5.6-2.7 2.9-1.4 1.4-.6.7-.3.9-.1-.6.6-.7.4-1.3.9-2.7 1.6-5.4 3.1.4-.3.1-.5.5 5-.1.6-.5.3-.5.1-.5-.2-10.4-10.2.6.3.6-.1.4-.5v-.7l2.7 8.6v.6l-.4.4-4.1 1.8-2.1.8-1.1.4z"/><path fill-rule="evenodd" clip-rule="evenodd" fill="#B5C7FC" d="M36.7 89.4l-.7-6.9c-.2-2.2-2.7-3.4-4.5-3.1l-4.3.8c-3 .6-4.4 2.5-4.1 4.6l.7 6.6-3.6.6-.7-6.6c-.4-3.9 2.3-7.5 7.3-8.5l4.3-.9c3.9-.8 8.3 1.6 8.8 5.8l.7 6.9-3.9.7z"/><path fill-rule="evenodd" clip-rule="evenodd" fill="#F2CC42" d="M20.3 108.8c.2 1.7 1.5 2.9 3.4 2.7l16.8-1.8c2.1-.2 4-1.8 3.8-3.7l-1.6-16.6c-.2-1.9-2.2-1.9-4.3-1.5l-16.9 2.7c-1.9.3-3.1.8-2.9 2.5l1.7 15.7z"/><path fill-rule="evenodd" clip-rule="evenodd" fill="#141C6B" d="M27.6 98.2c-.2-1.5 1-3 2.8-3.2 1.7-.3 3.2.8 3.3 2.4.1 1.1-.4 2.1-1.6 2.7l.5 5.1c.1.7-.3 1.3-1.1 1.4-.8.1-1.3-.4-1.4-1.1l-.5-5.1c-1.3-.3-1.9-1.1-2-2.2z"/><path fill-rule="evenodd" clip-rule="evenodd" fill="#E8EBEB" d="M37.9 49c.9-2 3.5-3.1 5.8-2.6 2.3.6 3.5 2.6 2.7 4.5-.8 1.9-3.3 3.1-5.7 2.6-2.4-.5-3.6-2.6-2.8-4.5z"/><path fill-rule="evenodd" clip-rule="evenodd" fill="#E8EBEB" d="M39.4 59.1c1.9-4.6 7.8-7.2 12.8-6 1.8.4 3.3 1.3 4.4 2.4L39.1 64c-.4-1.5-.4-3.2.3-4.9z"/><path fill-rule="evenodd" clip-rule="evenodd" fill="#FC5714" d="M60.8 80.9l.9.2.3-.8c.7-1.8 2.9-2.9 4.9-2.5 1.9.4 2.9 2.2 2.2 4l-.3.8-2.6 6.6-7.2-1.5-.9-.2c-2.1-.4-3.1-2.2-2.3-4.1.7-1.8 3-2.9 5-2.5z"/><path fill="#E8EBEB" d="M62.6 106l.1-.4.1-.2.3-.4.7-.6 1.5-1.3 3.1-2.2 6.3-4.2 6.6-3.8 3.4-1.7 1.8-.8.9-.3.5-.2h.2l.4.1-.1.4-.1.2-.4.4-.7.6-1.4 1.3-3.1 2.2-6.4 4.2-6.5 3.8-3.4 1.7-1.8.8-.9.3-.5.1-.3.1zm29.9-19v-.3l.1-.2.2-.3.5-.5 1-1 2.2-1.7 4.5-3 4.8-2.7 2.5-1.2 1.3-.5.7-.2h.6l.2.1v.3l-.1.2-.2.3-.5.5-1 1-2.1 1.7-4.6 3-4.8 2.7-2.5 1.2-1.3.5-.7.2-.3.1-.2-.1zM45.4 73.8l.1-.4.2-.2.3-.3.8-.6 1.5-1.1 3.3-2 6.7-3.5 6.9-3.2 3.6-1.5 1.8-.6.9-.2.5-.1h.3l.3.1-.1.4-.2.2-.3.3-.8.6-1.6 1.1-3.2 2-6.7 3.5-6.9 3.3-3.6 1.4-1.8.6-.9.2-.5.1h-.3z"/></svg>