<svg xmlns="http://www.w3.org/2000/svg" width="132" height="18"><path fill-rule="evenodd" clip-rule="evenodd" fill="#002E4C" d="M32.4 16.3c-.1-.1-.2-.3-.2-.5V1.3c0-.2.1-.4.2-.5.1-.1.3-.2.5-.2s.4.1.5.2c.2.1.2.3.2.5v14.5c0 .2-.1.4-.2.5-.1.1-.3.2-.5.2s-.4-.1-.5-.2zm6.7.2c-.3-.1-.5-.2-.6-.4V6c0-.2.1-.4.2-.5.1-.1.3-.2.5-.2s.4.1.5.2c.2.1.3.3.3.5v.5l.3-.3c.8-.7 1.7-1 2.7-1 1.4 0 2.5.5 3.4 1.4.9.9 1.4 2 1.4 3.3v5.9c0 .2-.1.4-.2.5-.1.1-.3.2-.5.2s-.4-.1-.5-.2c-.1-.1-.2-.3-.2-.5v-6c0-.9-.3-1.6-.9-2.2-.8-.6-1.5-.9-2.3-.9-.9 0-1.6.3-2.2.9-.6.6-1 1.4-1 2.2v6c-.1.4-.3.6-.7.6h-.2zm12.1-.2c-.3-.4-.3-.8.1-1.1l7.2-6.6c.9-.8 1.3-1.7 1.3-2.7 0-1-.3-1.9-1-2.7-.7-.8-1.6-1.1-2.6-1.1-1.1 0-1.9.3-2.7 1l-.7.7c-.2.1-.3.2-.6.2-.2 0-.4-.1-.5-.3-.1-.2-.2-.3-.2-.5 0-.1 0-.2.1-.3l.2-.2.7-.7c1-.9 2.3-1.4 3.7-1.4 1.5 0 2.7.6 3.7 1.7.9 1 1.4 2.2 1.4 3.7s-.6 2.7-1.7 3.8L53.9 15h6.7c.2 0 .4.1.5.2.1.1.2.3.2.5s-.1.4-.2.5c-.1.1-.3.2-.5.2h-8.7c-.3.1-.5 0-.7-.1zm14.4 0c-.1-.1-.2-.3-.2-.5V1.3c0-.2.1-.4.2-.5.1-.1.3-.2.5-.2s.4.1.5.2c.3.1.4.3.4.5v6.5h7.5V1.3c0-.2.1-.4.2-.5.1-.1.3-.2.5-.2s.4.1.5.2c.2.1.3.3.3.5v14.5c0 .2-.1.4-.2.5-.2.1-.3.2-.5.2s-.4-.1-.5-.2c-.1-.1-.2-.3-.2-.5V9.3H67v6.5c0 .2-.1.4-.2.5-.2.1-.3.2-.5.2-.3 0-.5-.1-.7-.2zm16.1-1.5c-1.1-1.1-1.6-2.4-1.6-4s.5-2.9 1.6-4 2.4-1.7 3.9-1.7 2.7.5 3.8 1.5c1 1 1.6 2.3 1.7 3.8v.1c0 .2-.1.4-.2.5-.2.1-.3.2-.5.2h-8.6l.1.6c.2.8.6 1.4 1.1 2 .8.7 1.7 1.1 2.7 1.1.7 0 1.3-.2 1.9-.5.6-.3 1.1-.8 1.4-1.4.1-.2.3-.3.5-.4h.3c.1 0 .2.1.3.1.4.3.5.7.3 1.1-.5.8-1.1 1.4-2 1.9-.8.5-1.7.7-2.6.7-1.7.1-3-.5-4.1-1.6zm13.1 0c-1.1-1.1-1.6-2.5-1.6-4s.5-2.9 1.6-4c1-1.1 2.3-1.7 3.8-1.7.9 0 1.7.2 2.4.6.4.2.7.4 1 .7l.4.5v-1c0-.2.1-.4.2-.5.1-.1.3-.2.5-.2s.4.1.5.2c.1.1.2.3.2.5v9.8c0 .2-.1.4-.2.5-.1.1-.3.2-.5.2s-.4-.1-.5-.2c-.1-.1-.2-.3-.2-.5v-1l-.4.5c-.3.3-.7.5-1 .7-.7.4-1.5.6-2.4.6-1.5 0-2.8-.6-3.8-1.7zm13.7 1.5c-.1-.1-.2-.3-.2-.5V1.3c0-.2.1-.4.2-.5.1-.1.3-.2.5-.2s.4.1.5.2c.2.1.2.3.2.5v14.5c0 .2-.1.4-.2.5-.1.1-.3.2-.5.2s-.4-.1-.5-.2zm6.5-.4c-.4-.4-.6-.9-.6-1.5V6.7h-1.1c-.2 0-.5 0-.6-.2-.1-.1-.1-.3-.1-.5v-.4c.1-.3.4-.4.7-.4h1.1V1.4c0-.2.1-.4.2-.5.1-.2.3-.2.5-.2s.4.1.5.2c.1.1.3.3.3.5v3.8h1.2c.2 0 .4.1.5.2.1.1.2.3.2.5s-.1.4-.2.5c-.1.1-.3.2-.5.2h-1.2v7.7c0 .2.1.3.2.4.2.1.3.2.3.2.2 0 .4.1.6.2.2.2.3.3.3.5s-.1.4-.3.5c-.1.1-.3.2-.5.2-.6.2-1.1 0-1.5-.4zm7.5-.2V1.3c0-.2.1-.4.2-.5.1-.1.3-.2.5-.2s.4.1.5.2c.2.1.2.3.2.5v5.2l.3-.3c.8-.6 1.7-.9 2.8-.9 1.4 0 2.5.4 3.5 1.3.9.9 1.4 1.9 1.4 3.2v6.1c0 .2-.1.4-.2.5-.2.1-.3.2-.5.2s-.4-.1-.5-.2c-.1-.1-.2-.3-.2-.5V9.7c0-.9-.3-1.6-.9-2.1s-1.4-.8-2.3-.8c-.9 0-1.7.3-2.3.8-.6.6-.9 1.3-.9 2.1v6.1c0 .1-.1.2-.1.3 0 .1-.1.2-.2.2l-.2.1h-.2c-.6.1-.9-.2-.9-.7zm-21.2-1.9c.8-.8 1.1-1.8 1.1-2.9 0-1.2-.4-2.1-1.1-2.9s-1.7-1.2-2.7-1.2c-1.1 0-1.9.4-2.7 1.2-.8.8-1.1 1.8-1.1 2.9 0 1.2.4 2.1 1.1 2.9.8.8 1.7 1.2 2.7 1.2 1 0 1.9-.4 2.7-1.2zm-11.9-4l-.1-.4c-.2-.7-.6-1.2-1.2-1.7-.7-.6-1.6-.9-2.5-.9-1 0-1.8.3-2.5.9-.5.5-.9 1-1.2 1.7l-.1.4h7.6z"/><linearGradient id="a" gradientUnits="userSpaceOnUse" x1="4.565" y1="-.069" x2="24.445" y2="19.838"><stop offset="0" stop-color="#0894e6"/><stop offset="1" stop-color="#7dcfc4"/></linearGradient><path fill-rule="evenodd" clip-rule="evenodd" fill="url(#a)" d="M12 17.9c-.1-.1-2.4-1.5-4.8-3.6-.3-.2-.3-.7-.1-.9.3-.3.7-.3 1-.1 1.8 1.5 3.6 2.7 4.3 3.2 2.5-1.6 8-5.8 8.7-8.9.2-.5.3-1 .3-1.5 0-1.7-.9-3.3-2.5-4.2-1.9-1.1-4.5-.6-6 1.1-.3.3-.8.3-1 0-1.4-1.7-4-2.2-6-1.1-1.6.9-2.5 2.5-2.5 4.2 0 .5.1 1 .2 1.5.1.4.3.9.6 1.3h4l1.4-3.1c.1-.3.4-.4.7-.4.3 0 .5.2.6.5l1 4.2L13 8c.1-.2.3-.3.6-.3h2.5c.4 0 .7.3.7.7 0 .4-.3.7-.7.7H14l-1.9 3.2c-.1.2-.3.3-.6.3h-.1c-.3 0-.5-.2-.6-.5l-.9-3.9-.7 1.7c-.1.3-.3.4-.6.4H.7c-.4 0-.7-.3-.7-.7 0-.4.3-.7.7-.7h2c-.1-.3-.3-.7-.3-1-.3-.5-.4-1.1-.4-1.8C2 3.9 3.2 1.8 5.2.7c2.3-1.3 5.3-.9 7.2.9 1.9-1.8 4.9-2.2 7.2-.9 1.9 1.1 3.2 3.1 3.2 5.4 0 .7-.1 1.3-.3 1.9-1 4.4-9.3 9.7-9.7 9.9-.2.1-.3.1-.4.1-.2 0-.3 0-.4-.1z"/></svg>