<svg xmlns="http://www.w3.org/2000/svg" width="380" height="200"><path clip-rule="evenodd" fill="none" d="M0 0h380v200H0z"/><path fill="#E8EDF5" d="M96.613 105.626c13.987 51.733 69.547 55.613 69.547 55.613 34.84 1.574 61.214 2.147 88.28-15.547 8.934-5.825 17.306-13.227 22.56-22.746 4.761-8.613 6.667-18.48 7.173-28.093.4-7.44-.053-15.053-3.013-21.56-2.733-6-7.427-10.653-12.387-14.733-11.96-9.827-25.88-16.933-40.414-22.267-17.159-6.28-35.532-10.187-54.213-8.6-18.68 1.586-37.747 9.013-51.933 22.893-14.2 13.867-30.627 36.454-25.6 55.04z"/><path fill="#E57A3B" d="M157.093 79.733c.014 5.561.014 11.107.026 16.667 3.96 1.053 9.174 4.4 13.201 3.627.386-.066.799-.173 1.026-.494.214-.307 2.787-1.414 2.667-1.773-.453-1.36-3.359-2.28-3.68-3.933-.8-4.173-1.253-8.88-1.68-12.106-.054-.294-.094-.601-.294-.813-.187-.187-.44-.253-.68-.32a39.782 39.782 0 0 0-8.853-1.319c-.667-.027-1.56.186-1.547.853l-.186-.389z"/><path fill="#3B3DB0" d="M137.453 106.427c3.28-2.813 7.574-5.734 10.854-8.546.76-.667 1.547-1.333 2.494-1.707 2.053-.787 4.693-.76 6.453.547 7.106 5.267 12.187 3.04 17.307 1.146.68-.253.16-2.56.88-2.467.6.08 1.12.413 1.613.72 2.507 1.601 4.547 2.761 7.04 4.347.534.333 1.773 3.439 2.067 4.014 1.08 2.173 1.307 3.039 1.52 9.319.52 15.254-.146 20.348 1.293 35.521.294 2.973.453 10.399 1.96 12.973 1.32 2.267 2.106 1.733 1.306 4.227-.759 2.308-3.292 6.521-5.706 6.827-6.133.813-8.947 1.307-16.426.653-5.333-.453-10.107-4.293-15.453-4.547-.654-.04-1.32-.094-1.854-.453-.48-.32-.773-.827-1.054-1.333-7.76-14.026-13.52-27.44-14.413-43.44-.333-5.867-.16-11.867 1.747-17.427l-1.628-.374z"/><path fill="#E57A3B" d="M146.32 167.894c7.186 4.267 14.4 7.2 21.586 11.48.72.426 1.453.865 2.04 1.466.52.534 1.399 2.239 1.946 2.761 1.041.986 4.827 1.919 7.654 1.359.626-.133 1.307-.28 1.747-.76.347-.36 2.52-2.053 2.64-2.547.413-1.627 1.707-.666 2.12-2.279-.2-1.534-7.187-5.534-10-6.16-.64-.135-1.307-.12-1.946-.24-.867-.16-1.681-.547-2.467-.947a66.445 66.445 0 0 1-16.48-11.733c-.374-.359-.787-.759-1.307-.786-.374-.026-.734.146-1.067.32a16.116 16.116 0 0 0-6.986 7.572l.52.494z"/><path fill="#121769" d="M175.307 98.947c-.2-.12-2.04-2.32-2.267-2.28-1.133.214-5.106 4.227-9.439 2.28l-.333 4.44c.946.786 5.772.934 7.319.601 3.746-.815 4.907-4.935 4.72-5.041z"/><path fill="#D9DBDB" d="M152.04 152.04c1.307-.946 1.44-3.027 0-3.747-.56-.28-.733-1.347-1.173-1.813-.387-.401-.44-1.015-.494-1.574l-2.2-27.093c-.16-1.84-.307-3.72-1.054-5.414-.959-2.252-2.853-3.959-4.799-5.439-.614-.479-1.267-.934-2.027-1.107-.88-.199-1.8.027-2.627.401-2.453 1.133-4.16 3.507-5.08 6.039-.92 2.547-1.146 5.28-1.36 7.974l-1.56 19.268c-.28 3.506-.28 10 .253 13.479.533 3.494 3.907 5.374 4.36 6.361.374.799 1.453 1.106 2.347 1.146.533.027 1.053-.12 1.56-.28a34.418 34.418 0 0 0 14.693-9.133l-.839.932zm15.24-55.16c.014-.28-9.92-3.414-11.333-6.667-4.387 3.093-6.12 5.906-6.12 5.906 4.48 5.013 11.093 8.68 17.56 10.534-.241-3.574-.254-6.2-.107-9.773zm7.053-5.747c-.547-.427-3.146-.36-4.56-.653.173 1.573.494 2.347.653 3.907l.44.76c1.84 3.133 3.12 5.227 4.96 8.36.787-.12 2.414-7.707 1.974-8.253-.386-.494-3.347-4.027-3.467-4.121z"/><path fill="#121769" d="M135.667 160.68c1.654 3.254 5.467 5.267 7.733 8.12.174.227.387.467.68.48.2.013.387-.107.574-.214 4-2.601 6.959-4.507 10.973-7.106.68-.44 1-1.08 1.626-1.627.253-.213-3.494-8.053-4.307-9.279-.107-.16-.214-.32-.387-.387-.227-.094-.48.013-.707.106l-8.6 3.8c-1.414.627-2.84 1.254-4.107 2.134-1.44 1-2.667 2.319-3.546 3.84l.068.133z"/><path fill="#E57A3B" d="M187.747 46.934c.64 5 1.093 10.027 1.347 15.066.227 4.547.293 9.187-1 13.56-.626 2.067-1.56 4.067-3.013 5.667-3.787 4.16-10.146 4.64-15.747 4.014-4.24-.48-8.494-1.467-12.173-3.586-3.693-2.134-6.8-5.521-7.907-9.627-1.587 1.854-4.747 1.706-6.613.12-1.867-1.586-2.574-4.2-2.48-6.653.093-2.72 1.586-5.827 4.293-6.094.867-.08 1.773.133 2.586-.173.72-.266 1.228-.92 1.693-1.547 2.681-3.626.147-13.24 4.121-15.346 2.426-1.294 10.653-3.134 13.346-3.587 3.347-.547 6.4 6.027 9.773 5.653 4.014-.427 8.773-.427 11.187 2.813l.587-.28z"/><path fill="#121769" d="M188 39.973c-.533-2.44-1.213-4.56-2.907-6.399-2.707-2.947-7.68-5.134-11.653-5.64-3.96-.52-7.667-.147-11.627.4-6.36.88-12.399 2.934-16.933 7.479-3.333 3.333-5.027 8.054-5.44 12.747-.427 4.707.333 9.427 1.32 14.04.854-.987 1.894-2.053 3.201-2.026 1.772.026 3.173 1.906 3.533 3.64.346 1.733.68 4.626 1.946 5.853.733-.12.894-1.133 1.626-1.253-.24-3.467-.613-6.92-1.106-10.36 1.746-.64 2.346-2.813 2.36-4.68.013-1.854-.267-3.854.626-5.48.8-1.44 2.374-2.267 3.92-2.8 3.72-1.294 7.854-1.374 11.613-.2 3.36 1.04 16.84 6.64 19.52 4.36 0 0 .173-.374.24-.734.574-3.147.534-5.453-.239-8.947z"/><path fill="#D16B36" d="M187.027 78.72c0-1.787-1.44-3.72-2.373-5.253-.32-.52-1.214-1.227-1.747-1.533-.534-.293-11.04-.667-15.493.933-.681.24-1.146 1.133-1.613 1.68-.44.533-2.574 6.493-3.294 9.266 0 0 3.121 1.347 4.947 1.333.44 0 .907-.027 1.253-.28.427-.32.561-.88.667-1.4.467-2.24.934-4.48 1.414-6.72.067-.32.52-1.146.747-1.374.253-.266 8.84-1.027 9.133-.813.387.28 1.773 2.453 1.96 2.893.613 1.44 1.56 4.68 1.746 4.734.159.054 2.653-2.879 2.653-3.466z"/><path fill="#303030" d="M169.693 62.414c.066 1.013-.027 1.907-.24 2.907-.346 1.626-2.093 1.506-2.28.227-.146-1.014-.134-2.041-.2-3.053-.106-1.748 2.613-1.841 2.72-.081zm15.294-.56c.066 1.027-.026 1.92-.24 2.92-.347 1.626-2.093 1.506-2.28.227-.146-1.013-.121-2.04-.187-3.053-.12-1.748 2.6-1.841 2.707-.094zM172.44 78.227c2.587 2.027 6.054 1.973 8.533-.213.681-.587-.066-1.253-.76-.653-2.014 1.773-4.8 1.4-6.907-.267-.72-.561-1.586.56-.866 1.133z"/><path fill="#3B3DB0" d="M230.413 24c-3.479-3.013-8.933-3.48-12.879-1.107-3.947 2.387-6.081 7.427-5.041 11.907-4.227.293-8.267 2.959-10.04 6.813-1.761 3.867-1.066 8.773 1.84 11.88 2.894 3.093 7.88 4.093 11.667 2.173.747 3.28 3.134 6.146 6.213 7.467 3.094 1.307 6.814 1.054 9.694-.68 2.293 2.467 2.613 2.827 5.586 4.44 2.96 1.601 6.56 2.32 9.761 1.253 4.106-1.373 9.079-3.8 8.56-8.107 4.827 1.894 10.813.681 14.267-3.2 3.453-3.867 3.894-10.213.721-14.32-2.107-2.72-5.374-4.24-8.561-5.547 5.293-4.467 5.746-13.547.906-18.506-4.84-4.96-13.934-4.734-18.533.453-2.146-2.467-5.76-3.533-8.906-2.64-3.147.894-5.667 3.693-6.201 6.92l.946.801zm-17.054 42.787c-.319-2.333-3.466-4.28-6.105-.96-.734.906-.773 2.267-.427 3.387.547 1.813 2.773 2.906 4.56 2.253 1.773-.667 2.214-2.8 1.972-4.68z"/><path fill="#FFF" d="M252.106 31.747c-8.146-1.014-18-.227-18.254.066-.212.24.054 3.174-.013 3.72-.026.16 12.106-.467 18.32-.053l-.053-3.733zm.174 8.946c-8.16-1-18-.227-18.268.08-.199.227.066 3.173 0 3.707-.025.16 12.107-.467 18.32-.054l-.052-3.733zm.453 8.614c-8.146-1.013-17.987-.24-18.253.066-.214.227.066 3.174-.015 3.707-.025.16 12.121-.453 18.32-.053l-.052-3.72z"/><path fill="#FC452E" d="M231.733 34.96a3.431 3.431 0 0 1-4.4 2 3.417 3.417 0 0 1-1.986-4.4 3.403 3.403 0 0 1 4.399-2 3.413 3.413 0 0 1 1.987 4.4z"/><path fill="#FFF" d="M227.094 34.253c.214.293.426.573.64.866.146.201.414.227.587.041.64-.68 1.253-1.374 1.853-2.08.32-.374-.239-.88-.56-.506a40.664 40.664 0 0 1-1.853 2.08c.199.026.399.04.599.053l-.64-.867c-.28-.387-.907.027-.626.413z"/><path fill="#F7A63B" d="M231.733 43.6a3.431 3.431 0 0 1-4.4 2 3.417 3.417 0 0 1-1.986-4.4 3.403 3.403 0 0 1 4.399-2 3.418 3.418 0 0 1 1.987 4.4z"/><path fill="#FFF" d="M227.094 42.893c.214.294.426.587.64.867.146.201.414.227.587.041a55.64 55.64 0 0 0 1.853-2.08c.32-.374-.239-.88-.56-.507a46.494 46.494 0 0 1-1.853 2.08c.199.027.399.04.599.053-.212-.293-.426-.573-.64-.866-.28-.388-.907.025-.626.412z"/><path fill="#80D1E0" d="M231.733 52.32a3.413 3.413 0 0 1-4.4 1.986c-1.76-.653-2.653-2.627-1.986-4.4.653-1.76 2.627-2.653 4.399-1.987a3.414 3.414 0 0 1 1.987 4.401z"/><path fill="#FFF" d="M227.094 51.613c.214.293.426.574.64.867.146.2.414.227.587.04.64-.68 1.253-1.374 1.853-2.08.32-.374-.239-.88-.56-.506-.601.707-1.214 1.4-1.853 2.08.199.014.399.04.599.053l-.64-.867c-.28-.387-.907.027-.626.413z"/><path fill="#3B3DB0" d="M199.573 71.307c-.199-1.494-2.227-2.76-3.933-.613-.468.586-.493 1.467-.267 2.187.346 1.159 1.786 1.879 2.934 1.44 1.146-.428 1.426-1.801 1.266-3.014z"/><path fill="#D16B36" d="M174.346 69.654s1.693.146 2.921-.107c1.213-.24 2.346-.773 2.346-.773s-2.373 3.919-5.267.88z"/><path fill="#121769" d="M178.96 55.28c.92-.533 2.626-1.333 3.68-1.387 1.827-.093 4.64 1.227 5.133 1.654 0 0 .387 1.08.227 1.213-.213.174-1.827-.333-1.907-.346-2.72-.627-3.986-.227-6.493.053-.08.013-.16.013-.227-.027-.053-.04-.546-1.08-.413-1.16zm-7.454.093c-1.093-.386-3.12-.933-4.28-.84-2.013.16-4.867 1.88-5.333 2.374 0 0-.227 1.12-.026 1.227.28.146 1.946-.586 2.026-.613 2.867-1.014 4.333-.787 7.134-.88.08 0 .173 0 .24-.066.053-.042.4-1.149.239-1.202z"/><path fill="#3B3DB0" d="M224.587 111.96c-5.561-.721-11.228 3.88-11.666 9.467-.455 5.586 4.438 11.026 10.039 11.187-1.426 2.066-2.894 4.214-3.253 6.694-.493 3.372 1.214 6.771 3.68 9.133 2.773 2.666 6.68 4.279 10.48 3.732 3.8-.56 7.28-3.547 7.853-7.333 4.147 4.32 10.387 6.534 16.32 5.786 2.973-.359 5.986-1.547 7.8-3.919 1.801-2.387 1.974-6.12-.199-8.188 3.772 1.2 8.093.788 11.386-1.399 3.294-2.199 5.387-6.214 4.947-10.146-.439-3.934-3.574-7.508-7.48-8.134 3.453-1.199 5.561-5.173 5-8.8-.547-3.613-3.453-6.641-6.934-7.786-3.48-1.134-7.399-.508-10.613 1.239-1.799-5.106-5.799-9.787-11.106-10.907-5.32-1.12-11.586 2.494-12.054 7.907-3.333-.934-7.106-.2-9.853 1.919-2.747 2.121-4.414 5.587-4.347 9.067v.481z"/><path fill="#FC452E" d="M246.867 135.399c-.175 0-8.414-3.986-11.333-10.934l-.16-.372c-.682-1.613-1.721-4.04-1.214-6.88.359-2.107 2.827-4.081 5.079-4.147h.094c2.467 0 4.787 2.36 6.174 4.773.373-1.066.906-1.987 1.587-2.733 1.733-1.92 4.493-2.6 6.573-1.613 2.025.96 3.6 3.307 3.373 6.268-.681 8.865-10.066 15.638-10.173 15.638z"/><path fill="#FFF" d="M255.84 133.613h-.026a.512.512 0 0 1-.48-.427l-1.547-9.066-1.906 7.786c-.053.241-.267.374-.521.401a.528.528 0 0 1-.479-.414l-1.254-6.44-1.453 3.239a.535.535 0 0 1-.466.295l-3.374.066h-.013a.529.529 0 0 1-.521-.507c0-.28.227-.507.508-.521l3.066-.053 1.985-4.414c.094-.2.308-.32.521-.306a.521.521 0 0 1 .453.426l1.107 5.707 1.934-7.921a.518.518 0 0 1 .52-.387.516.516 0 0 1 .48.428l1.586 9.267.813-2.853a.5.5 0 0 1 .48-.374l3.96-.081h.013c.28 0 .507.227.507.508a.5.5 0 0 1-.494.52l-3.586.08-1.32 4.666a.512.512 0 0 1-.493.375z"/><path fill="#F7A63B" d="M237.399 119.227a4.152 4.152 0 0 1-5.359 2.44 4.168 4.168 0 0 1-2.439-5.374c.799-2.16 3.213-3.253 5.373-2.44a4.161 4.161 0 0 1 2.425 5.374z"/><path fill="#FFF" d="M231.733 118.374c.267.346.521.692.773 1.053.186.24.52.28.732.054a83.535 83.535 0 0 0 2.268-2.547c.373-.468-.307-1.081-.693-.626-.72.879-1.48 1.719-2.254 2.545.24.027.48.041.721.068-.254-.361-.52-.707-.773-1.054-.347-.48-1.12.027-.774.507z"/><path fill="#3B3DB0" d="M209.013 114.28c-.306-2.32-3.453-4.268-6.106-.96-.72.919-.759 2.28-.426 3.399.56 1.814 2.786 2.921 4.56 2.254 1.772-.665 2.226-2.8 1.972-4.693zm-10.733-6.534c-.201-1.492-2.227-2.759-3.934-.613-.479.587-.507 1.468-.28 2.188.36 1.173 1.786 1.88 2.934 1.453s1.44-1.814 1.28-3.028z"/></svg>