<svg xmlns="http://www.w3.org/2000/svg" width="300" height="300"><path clip-rule="evenodd" fill="none" d="M0 0h300v300H0z"/><path d="M262.2 257.9l-14.8.7-14.8.4-29.6.6-29.6.3-29.5.2h-29.6l-29.6-.1-29.6-.4-14.8-.3-14.8-.6 14.8-.8 14.8-.4 29.6-.5 29.6-.4 29.6-.1 29.5-.1 29.6.2 29.6.3 14.8.3zm-9.8-16l-13.6.7-13.5.5-27.2.5-27.1.3-27.1.2h-27.2l-27.1-.1-27.1-.3-13.6-.4-13.6-.6 13.6-.7 13.6-.4 27.1-.6 27.1-.3 27.2-.2H171l27.1.1 27.1.4 13.6.3zm23.4-9.4l-15.7.7-15.6.5-31.4.5-31.4.4-31.4.1-31.3.1-31.4-.2-31.4-.3-15.7-.4-15.6-.6 15.6-.7 15.7-.4 31.4-.6 31.4-.3 31.3-.2h31.4l31.4.1 31.4.4 15.6.3zm-8-10.2l-16 .7-16 .4-32 .6-31.9.3-32 .2h-32l-32-.1-32-.4-16-.3-16-.6 16-.7 16-.5 32-.5 32-.4 31.9-.1 32-.1 32 .2 32 .3 16 .4zm-27-16l-12.1.7-12.2.5-24.2.5-24.2.3-24.2.2h-24.3l-24.2-.1-24.2-.3-12.1-.4-12.2-.6 12.2-.7 12.1-.4 24.2-.6 24.2-.3 24.3-.2h24.2l24.2.1 24.2.4 12.2.3zm-20.2-9.4l-12.1.8-12.2.4-24.2.5-24.2.4-24.2.1-24.3.1-24.2-.2-24.2-.3-12.1-.4-12.1-.5 12.1-.8 12.1-.4 24.2-.6 24.2-.3 24.3-.2h24.2l24.2.1 24.2.4 12.2.3z" fill="#E5EDF0"/><path fill-rule="evenodd" clip-rule="evenodd" fill="#E5EDF0" d="M271 224l-4.6-.2V138l-224.7-.1v53.4l-4.6-.2V76.3c0-1.3 1-2.3 2.3-2.3 1.3 0 2.3 1 2.3 2.3v6.2l224.7.1v-6.2c0-1.3 1-2.3 2.3-2.3 1.3 0 2.3 1 2.3 2.3V224zm-42.7-90.6v-21.2h17.3v21.2h20.8v-25h-16.9V87.2h-25v21.2l-119.6-.1V87h-25v21.2H62.5V87H41.7v25h16.9v21.2h25V112h17.3v21.2l127.4.2z"/><path fill-rule="evenodd" clip-rule="evenodd" fill="#FFE0BD" stroke="#545E80" stroke-width="1.12" stroke-miterlimit="10" d="M183.9 227.1c-.8-1.5-1.6-3-2.4-4.6-2.6-5-5.1-10-7.5-15.1-1.9-4-3.7-8-5.3-12.1-1.1-2.7-2.1-5.4-3-8.1-.2-.8-.5-1.5-.7-2.3-.2-.5-.3-1.1-.4-1.7-.6-2.9-.9-5.4-.5-8.3.2-1.3.6-2.5 1-3.8l.6-1.8c.8-2.4 1.7-4.7 2.6-7 1.8-4.8 3.7-9.5 5.6-14.2.6-1.5 1.2-2.9 1.8-4.4.3-.7.6-1.5.9-2.2.4-.9.7-1.8 1.1-2.7.2-.5.4-.9.6-1.4.2-.5.4-1 .7-1.5 0-.1.1-.2.1-.3 0-.1.1-.1.1-.2.1-.1.1-.3.2-.4.1-.1.2-.3.2-.4.3-.5.6-1 1-1.5.1-.1.2-.3.3-.4.3-.4.7-.8 1.1-1.1 2.1-1.8 4.8-2.6 7.5-1.8 2.1.6 3.8 2.1 4.8 4 .8 1.4 1.3 3.2 1.4 4.8v2.1c-.1.6-.1 1.1-.3 1.7 0 .1-.1.3-.1.4 0 .1-.1.2-.1.3v-.2c0 .2-.1.4-.1.6-.1.5-.4 1.1-.6 1.6 0 .1-.1.1-.1.1-.1.1-.2.4-.3.6-.2.4-.3.7-.5 1.1-.4 1-.9 2.1-1.3 3.1-.6 1.3-1.1 2.7-1.7 4-.8 1.9-1.6 3.8-2.3 5.7-2.1 5.2-4.2 10.4-6.2 15.7-.2.5-.3.9-.5 1.4 0 .1.1.3.1.4.1.4.2.8.3 1.1.6 2 1.3 3.9 2.1 5.9.8 2.2 1.7 4.3 2.6 6.4 1.2 2.8 2.4 5.6 3.7 8.3 2 4.5 4.2 9 6.3 13.4.6 1.2 1.2 2.4 1.8 3.5.2.4.4.9.6 1.3.1.1.1.3.2.4 0 0 0 .1.1.1v-.1c.1.1.1.3.2.4 0 .1.1.2.1.3 13.6 4.4 14.9 11.5 4.9 10-3.1-.2-2.1 2.5 1.7 7.2 10.8 13.2-16.8 20.5-22.4-8.3zm-2.2-50.2c0-.1 0-.2-.1-.3v.5c0-.1.1-.1.1-.2zm12.7-31.6zM179.3 135c0 .1 0 .1 0 0zm1.2-1.9c0 .1 0 .1 0 0 0 .1 0 0 0 0z"/><path fill-rule="evenodd" clip-rule="evenodd" fill="#FFE0BD" d="M154.3 267.5c.5-1.5.9-3 1.4-4.5l37.3 1c.5 9.4.9 19.7.6 29.6l-44.7-1.1c1.5-9.5 3.3-18.1 5.4-25z"/><path fill="#545E80" d="M147.9 298.4c.3-3.6.7-7.1 1.3-10.7.4-2.4.8-4.9 1.2-7.3.4-2.2.9-4.5 1.4-6.7.2-1 .5-2 .7-2.9.6-2.2 1.3-4.5 1.9-6.6.2-.5.3-1 .5-1.5.1-.2.3-.4.5-.5h.3c.6-.1 1.2 0 1.9 0 .6 0 1.2.1 1.9 0h1.9c1.2 0 2.5 0 3.7.1.6 0 1.2 0 1.9.1l3.7.1c3.7.1 7.4.2 11.2.3 1.9.1 3.7.1 5.6.2.6 0 1.3-.1 1.9.1l3.7.1h.1c.5.1.7.5.7 1s0 1.1.1 1.6c0 1 .1 2 .1 2.9.1 2.6.2 5.2.2 7.8v6.1c0 4.2-.2 8.3-.5 12.5-.1.8-.1 1.5-.2 2.3-.1.7-.2 1.5-.2 2.2v-4.7c0-2.9-.1-5.7-.1-8.6-.2-7.4-.5-14.9-1-22.3 0 .2.1.4.3.6 0 0 .1.1.2.1l.1.1h.3c-12.4-.2-24.8-.5-37.2-.9.4 0 .7-.2.8-.6-.5 1.5-1 3-1.4 4.5-.8 2.5-1.5 5.1-2.2 7.7-.5 1.8-.9 3.7-1.3 5.6-1.6 5.7-2.7 11.5-4 17.3z"/><path fill-rule="evenodd" clip-rule="evenodd" fill="#FFE0BD" d="M104.2 261.8l70.8 1.7c-9.3 10.3-19.9 19.6-21.3 28.4 0 .2-.1.5-.1.7l-49-1.2c-.7-10.6-.8-21.1-.4-29.6z"/><path fill="#545E80" d="M105 297.4c-.8-5.1-1.2-10.2-1.5-15.3-.3-4.3-.4-8.6-.4-12.9 0-2.1 0-4.2.1-6.4v-1.1c0-.1.1-.3.1-.4 0 0 .1-.2.2-.2l.2-.1h.1c.1 0 .3 0 .3-.1 1.2-.2 2.4.3 3.5.1 1.2-.2 2.4.2 3.5.1 1.2-.1 2.4 0 3.5.1l7.1.1c1.2 0 2.4.1 3.5.1l7.1.2c2.4.1 4.7.1 7.1.2 2.4.1 4.7.2 7.1.3l15.9.6c1.2.1 2.4.1 3.5.2 1.8.1 3.5.2 5.3.4.4 0 3.1.2 3.5.2-1.8 0-3.5.1-5.3.1l-3.5.1h-5.3c-5.9 0-11.8-.1-17.7-.2h-3.5l-7.1-.1c-9.4-.2-18.9-.5-28.3-.7.1 0 .3 0 .3-.1l.3-.2s.1-.1.1-.2l.1-.1s0-.1.1-.2v-.1c-.1.9-.1 1.7-.1 2.6-.1 2.1-.1 4.1-.2 6.2-.1 4.9-.1 9.9.1 14.8.1 4.1.3 8 .3 12z"/><path fill-rule="evenodd" clip-rule="evenodd" fill="#E0A1A1" d="M106.9 203.3c-1.1 2.9-3.3 13.4-3.6 25.4-.3 11.9-.3 23.6.1 28.7.4 5.1 1.7 9.2 9.8 9.5 8 .3 25.4 1.3 31.7 2.9 6.3 1.6 7.3 1.9 7.2 4.4-.1 2.5.1 6.1 6.6 7.9 6.4 1.8 23.1 5.2 29.5-3.6 6.4-8.9 6.6-9.5 4.9-23.7-1.6-14.1-.7-23.9-1.5-31.7-.8-7.8-2.5-17.9-2.5-17.9s-66.7-2.8-82.2-1.9z"/><path fill="#545E80" d="M106.9 203.3l-.3.9c-.2.8-.4 1.5-.5 2.3-.4 1.7-.6 3.4-.9 5.1-.5 3-.8 6.1-1.1 9.2-.2 2.6-.3 5.2-.4 7.8-.1 3.8-.1 7.6-.1 11.3v5.8c0 2.3.1 4.5.2 6.8.1 1.6.1 3.2.3 4.8.2 2 .5 3.8 1.5 5.5.3.5.7 1 1.2 1.4.3.3.7.5 1.1.7.7.4 1.4.6 2.2.8 1 .3 2.2.4 3.3.4h.8c.5 0 .9 0 1.4.1 1.3.1 2.6.1 3.9.2 3.3.2 6.7.4 10 .6 1.8.1 3.5.3 5.3.4 2.1.2 4.3.4 6.4.7 1.4.2 2.9.4 4.3.8 1.5.4 3.1.7 4.6 1.2.9.3 1.9.7 2.5 1.3.9 1 .8 2.2.8 3.5 0 .5.1 1 .2 1.5.1.4.2.8.4 1.1 1 2 3.4 3.1 5.4 3.6 2 .6 4.1 1 6.1 1.4 1.1.2 2.3.4 3.5.5 1.1.1 2.2.2 3.2.2 2.1.1 4.2 0 6.3-.3.6-.1 1.1-.2 1.7-.3l2.1-.6c.9-.3 1.7-.8 2.5-1.3.5-.3 1-.7 1.5-1.1.6-.5 1.1-1.1 1.6-1.8.9-1.2 1.7-2.3 2.5-3.5.7-1.1 1.5-2.3 2-3.4.2-.5.4-.9.5-1.4.1-.1.1-.3.1-.5.2-.8.4-1.7.4-2.5.1-1.2.1-2.4 0-3.6-.1-.9-.1-1.9-.2-2.8-.1-.7-.1-1.3-.2-2-.1-1.5-.3-3-.5-4.5-.3-2.5-.5-5.1-.6-7.7-.2-3.7-.3-7.3-.3-11v-4.1c0-1.4 0-2.7-.1-4.1 0-.8-.1-1.5-.1-2.3 0-.5-.1-.9-.1-1.4-.2-2-.5-4-.7-6-.2-1.9-.5-3.8-.8-5.8-.3-2.1-.7-4.2-1-6.3l.8.8h-.7c-.5 0-1-.1-1.5-.1-1.5-.1-3-.1-4.4-.2l-15-.6-14.4-.6-15.9-.6c-3.9-.1-7.8-.3-11.7-.4-2.3-.1-4.5-.1-6.7-.2-2.1 0-4.2-.1-6.3-.1h-5c-.7.4-.9.4-1.1.4.3 0 .5 0 .8-.1.3 0 .6 0 .9-.1 1-.1 2-.1 3-.1 1.1 0 2.1-.1 3.2-.1 1.7-.1 3.3 0 5-.1h11.9c2.6 0 5.1.1 7.7.1 4.9.1 9.8.2 14.6.3 8.3.2 16.5.5 24.7.7 2.3.1 4.6.2 6.9.2 1.4.1 2.9.1 4.3.1v.7c.1.2.1.5.1.7.1.5.1.9.2 1.4.1.8.3 1.7.4 2.5.1.6.2 1.2.3 1.7.2 1.1.3 2.3.5 3.4.4 2.7.8 5.5 1 8.2.3 2.8.4 5.6.4 8.5v3.5c0 1.6 0 3.3.1 4.9.1 2.1.1 4.2.3 6.3.1 2.1.3 4.3.5 6.4.2 2.1.5 4.3.7 6.4.2 1.7.4 3.5.4 5.2 0 1.4 0 2.7-.2 4.1-.1.6-.2 1.2-.4 1.8-.5 1.7-1.4 3.4-2.4 4.9-.7 1-1.3 2-2 2.9-.4.5-.8 1.1-1.2 1.7-.4.5-.9 1-1.4 1.5-.3.2-.5.5-.8.7-1.5 1.2-3.3 2-5.1 2.6-.7.2-1.5.4-2.2.6-.3.1-.5.1-.8.1-.6.1-1.3.2-2 .3-.2 0-.4 0-.7.1-.7.1-1.5.1-2.2.1-3.1 0-6.4-.3-9.5-.9-1.3-.3-2.6-.5-3.9-.9-.6-.1-1.2-.3-1.8-.5-3-.9-6-2.4-6.9-5.6-.3-1-.3-2.1-.3-3.1 0-.4 0-.8-.1-1.1-.1-.4-.5-.6-.8-.8-.5-.3-1.2-.5-1.8-.7-.3-.1-.7-.2-1-.3-.9-.2-1.9-.5-2.8-.7-.4-.1-.8-.2-1.1-.3-.5-.1-1.1-.2-1.6-.3-1.7-.3-3.4-.5-5.1-.7-1.7-.2-3.5-.4-5.2-.5-3.4-.3-6.7-.6-10.1-.8l-4.8-.3c-.7 0-1.3-.1-2-.1-1.2-.1-2.4-.1-3.6-.3-2.3-.3-4.8-1.2-6.3-3.1-.4-.6-.7-1.1-1-1.7-.7-1.6-.9-3.4-1.1-5.2 0-.5-.1-1.1-.1-1.7-.1-1.3-.1-2.6-.1-3.8-.1-2.3-.1-4.5 0-6.8 0-5.3.1-10.5.3-15.7.2-5.7.7-11.4 1.7-17 .3-1.6.6-3.2 1-4.8.6-1.5 1-2.9 1.5-4.4z"/><path fill-rule="evenodd" clip-rule="evenodd" fill="#FAC73D" d="M173.2 113.6c.9-.7 1.3-1.6 1.3-2.6l16-45.8c0-8.8-3.7-17.7-11.2-24.5-15.2-14-40.3-14.4-56-.8-8 6.9-12.1 16.1-12.1 25.4l13 45.8c0 .8.3 1.6.9 2.2.7.8 1.8 1.2 2.9 1.2 23.9-7.1 18.8-2.2 42.7 0 .9-.1 1.8-.4 2.5-.9z"/><path fill-rule="evenodd" clip-rule="evenodd" fill="#DBAD3D" d="M166.7 113.6c.7-.7 1.1-1.6 1.1-2.6l16-45.8c0-8.8-3.1-17.7-9.3-24.5-12.7-14-33.5-14.4-46.6-.8-6.7 6.9-10 16.1-10 25.4l13 45.8c0 .8.2 1.6.7 2.2.6.8 1.5 1.2 2.4 1.2 19.9-7.1 10.7-2.2 30.6 0 .8-.1 1.6-.4 2.1-.9z"/><path clip-rule="evenodd" fill="none" d="M125.6 113.6c-.9-.7-1.3-1.6-1.3-2.6l-13-45.8c0-8.8 3.7-17.7 11.1-24.5 15.2-14 40.3-14.4 56-.8 8 6.9 12.1 16.1 12.1 25.4l-16 45.8c0 .8-.3 1.6-.9 2.2-.7.8-1.8 1.2-2.9 1.2-6.1-1.8-12.2-2.9-18.3-3.3 14.8-10.2 29.5-34 29.5-44.5 0-13.6-9.6-23.5-30.9-23.5-21.4 0-30.9 9.9-30.9 23.5 0 10.9 11.6 36.3 28.3 45.7-6.8.7-13.6 1.6-20.3 2.2-.9-.2-1.8-.5-2.5-1z"/><path fill-rule="evenodd" clip-rule="evenodd" fill="#545E80" d="M170.3 114.9c-.3-.1-.5-.2-.8-.2-1-.3-2-.5-3-.8-1.1-.3-2.2-.5-3.3-.7-.7-.1-1.3-.3-2-.4l-3.9-.6-3-.3c-.8-.1-1.7-.2-2.5-.2.5-.3 1-.6 1.4-1 2.3.2 4.7.5 7 .8 1.5.2 2.9.5 4.4.8 1.4.3 2.7.6 4.1.9.7.2 1.5.4 2.2.6.7 0 1.2-.2 1.7-.5.1-.1.2-.1.3-.2l.3-.3.2-.2c.2-.3.5-.8.5-1.1v-.4c-.1-15.3 15.9-30.5 15.9-45.8 0-1.7-.1-3.4-.4-5.1-.2-1.3-.5-2.5-.9-3.8-.1-.5-.3-1-.5-1.4-.2-.6-.4-1.1-.6-1.7-.3-.8-.7-1.5-1.1-2.3-.4-.8-.9-1.7-1.4-2.4-.1-.1-.2-.3-.3-.5-.3-.5-.7-1.1-1.1-1.6-.9-1.2-1.9-2.4-2.9-3.5-.4-.5-.9-.9-1.3-1.3-.5-.4-.9-.9-1.4-1.3l-1.5-1.2c-.4-.3-.8-.6-1.1-.9-2.4-1.7-5.1-3.2-7.8-4.4-9.2-3.9-19.9-4.4-29.4-1.5-2.1.6-4.1 1.4-6.1 2.4-2.6 1.3-5 2.7-7.3 4.5l-2.1 1.8c-.9.8-1.8 1.7-2.6 2.6-1.2 1.3-2.2 2.7-3.2 4.1-2.4 3.7-4.2 8-4.9 12.5-.3 1.6-.4 3.2-.4 4.9-.1 15.3 12.8 30.5 12.6 45.8 0 1 .5 2 1.3 2.6.1.1.2.1.2.2.6.4 1.5.6 2.2.6 6-.7 11.9-1.4 17.9-2.1.7-.1 1.3-.2 2-.2.3.2.6.4 1 .5-.7.1-1.3.1-2 .2-3.4.3-6.7.7-10.1 1-2.9.3-5.8.5-8.8.7-.7 0-1.4-.2-2-.5-.2-.1-.3-.2-.5-.3-.6-.4-1-1-1.2-1.7 0-.1-.1-.2-.1-.3 0-.2 0-.4-.1-.6-.3-15.3-13.3-30.5-13.4-45.8 0-1.4.1-2.7.2-4.1.1-.5.1-1 .2-1.5.1-.4.1-.8.2-1.3.1-.6.3-1.2.4-1.8.1-.5.3-1.1.5-1.6.2-.7.5-1.4.7-2 .2-.5.4-.9.6-1.4.6-1.4 1.4-2.7 2.2-4 .4-.7.9-1.3 1.3-1.9.5-.7 1-1.3 1.5-2 1.4-1.7 3-3.2 4.7-4.6 1.1-.9 2.3-1.8 3.4-2.6.4-.3.9-.6 1.3-.8l1.5-.9 2.4-1.2c3-1.4 6.2-2.5 9.5-3.2 1.5-.3 3.1-.6 4.7-.7.6-.1 1.2-.1 1.8-.1.6-.1 1.1-.1 1.7-.1 1.5 0 3.1 0 4.6.1.6 0 1.1.1 1.7.2.2 0 .5.1.7.1.3 0 .6.1.9.1.5.1 1.1.2 1.6.3.9.2 1.8.3 2.6.6 1.2.3 2.3.6 3.4 1 .9.3 1.8.6 2.6 1 1 .4 1.9.8 2.9 1.3.2.1.4.2.7.3.6.3 1.1.6 1.7.9.5.3.9.6 1.4.9.5.3 1 .6 1.5 1 .5.3.9.7 1.4 1 .7.5 1.4 1.1 2 1.7.4.4.9.8 1.3 1.1l1.2 1.2c1.1 1.1 2 2.3 2.9 3.6 1.3 1.8 2.5 3.7 3.4 5.8.2.4.4.9.6 1.3.2.5.4 1 .5 1.4.1.2.2.4.2.7.2.7.4 1.3.6 2 .2.8.4 1.6.5 2.4.1.8.3 1.6.4 2.5.1 1.2.2 2.3.2 3.5v9.2c0 2.3-3 4.6-3 6.9v16c0 2.3-13 4.6-13 6.9v6.9c0 .2 0 .5-.1.7-.2.9-.7 1.7-1.4 2.3-.8.7-1.9 1-2.9 1h-.1c.2-.4.1-.5 0-.5zm.5-1.1s-.1 0 0 0zm2.4-1zm.7-1.8zm-51.1-69.8zm55.2-.8c0 .1 0 .1 0 0 0 .1 0 .1 0 0z"/><path clip-rule="evenodd" fill="none" d="M85.6 221.4c0-.5-2.3-42.6-2.3-43.1-.8-11.3 3-23 11.5-32.1 3.8-4 8.2-7.3 12.9-9.6"/><path fill-rule="evenodd" clip-rule="evenodd" fill="#FAC73D" d="M118.4 38.1c-8.2.6-19.7 6.5-17.6 22.1 1.7 13 1.3 16.1-7.6 21.5-6.1 3.6-11.4.5-14.2-5-4.7 6.1.4 23.4 10.7 29 16.9 9.1 39.9-12 40.5-31.3.7-20.1 16-38.3-11.8-36.3z"/><path fill="#545E80" d="M118.4 38.1c-.8.1-1.6.2-2.4.4-.7.1-1.4.4-2.1.6-.4.1-.9.3-1.3.5-1.1.5-2.3 1-3.3 1.7-.5.3-.9.6-1.4.9-.4.3-.8.7-1.2 1-.8.7-1.6 1.6-2.3 2.4-3.2 4.3-3.8 9.4-3.1 14.6 0 .4.1.8.2 1.2.1.9.2 1.8.4 2.8.2 1.9.4 3.7.4 5.6 0 2.3-.5 4.8-1.7 6.7-.2.4-.5.7-.8 1.1-1.2 1.3-2.5 2.4-3.9 3.4-1.2.8-2.6 1.7-4 2.3-2.6 1.1-5.2 1.1-7.7-.1-2-.9-3.7-2.7-4.9-4.5-.3-.5-.7-1-.9-1.6.5 0 .9.1 1.4.1-.1.2-.3.4-.4.5-.1.3-.3.5-.4.8-.2.4-.3.9-.5 1.4-.5 1.9-.4 3.9-.2 5.9.1.7.2 1.5.4 2.2.3 1.4.8 2.9 1.3 4.3 2 5 5.3 10 10.2 12.6 1.3.7 2.7 1.3 4.2 1.6l1.2.3c1 .2 2 .2 3 .2 1.1 0 2.2-.1 3.3-.3.8-.1 1.6-.3 2.5-.5.5-.1 1-.3 1.5-.5.4-.1.8-.3 1.1-.4 1.4-.5 2.8-1.3 4.1-2 2.6-1.5 4.9-3.4 7.1-5.5.9-.9 1.7-1.8 2.6-2.7.4-.4.8-.9 1.1-1.3.5-.7 1-1.3 1.5-2l1.5-2.4c.5-.7.9-1.5 1.3-2.3.6-1.1 1.1-2.3 1.5-3.4.4-1 .8-2.1 1-3.2.4-1.4.7-2.9.8-4.3.1-.6.1-1.1.1-1.7.2-3.4.7-6.7 1.4-10 .5-2.1 1-4.1 1.5-6.2.3-1.3.7-2.5 1-3.8.2-.9.4-1.8.6-2.8.1-.7.3-1.4.4-2.2.1-.5.1-1.2.2-1.7 0-.5.1-1 0-1.5-.1-1.3-.3-2.6-.9-3.7-.1-.3-.3-.5-.5-.8-.3-.4-.6-.7-1-1l-.3-.3c-.1-.1-.3-.2-.4-.3-.5-.3-1-.5-1.5-.7-1.4-.6-3-.9-4.5-1.1-1.1-.1-2.3-.2-3.4-.2h-1c-1-.2-1.9-.2-2.8-.1.3 0 .6-.1 1-.1.5 0 1-.1 1.5-.1 1.9-.1 3.9-.1 5.8.1 1.3.2 2.4.4 3.6.8.9.3 1.8.8 2.5 1.4.4.3.9.8 1.2 1.3.1.1.2.2.2.3.2.3.4.6.5.9.2.5.4 1.1.5 1.6 0 .1.1.3.1.4.1.5.1 1.1.2 1.6.1 1.9-.2 3.6-.5 5.4-.1.6-.2 1.3-.4 1.9-.2 1.1-.5 2.1-.7 3.2-.4 1.5-.7 3-1.1 4.5-.4 1.6-.7 3.2-1 4.8-.3 1.8-.6 3.6-.8 5.4-.1 1.2-.1 2.4-.2 3.6 0 .2 0 .5-.1.7 0 .5-.1.9-.2 1.4-.2 1.2-.4 2.3-.7 3.5-.2.9-.5 1.7-.8 2.5-.2.6-.5 1.2-.7 1.8-.2.5-.5 1.1-.7 1.6-.5 1.2-1.2 2.3-1.8 3.5-3.9 6.6-9.7 12.3-16.6 15.7-4.4 2.2-9.6 3.3-14.5 2.4-1.6-.3-2.9-.7-4.4-1.4-3.7-1.6-6.7-4.6-8.9-7.9-.4-.5-.7-1.1-1-1.6-.5-.9-1-1.8-1.4-2.7-.3-.7-.6-1.3-.8-2l-.6-1.8c-.1-.4-.3-.9-.4-1.3-.2-.6-.3-1.2-.4-1.8-.1-.6-.2-1.2-.3-1.7-.3-2-.3-4.2.1-6.2.1-.5.3-1.1.5-1.6s.4-1 .7-1.5c.4-.6.8-1.2 1.2-1.7.5.9.9 1.8 1.5 2.6 1.2 1.8 2.6 3.2 4.6 4.1.3.1.7.3 1 .4.4.1.9.2 1.4.2.8 0 1.5 0 2.3-.2l.9-.3c.7-.2 1.5-.6 2.1-1 2.8-1.6 6.2-3.8 7.3-7 .1-.3.3-.7.3-1.1 0-.2.1-.3.1-.5.1-.4.1-.8.2-1.2 0-.3.1-.7.1-1 .1-.7.1-1.5 0-2.2-.1-1.8-.3-3.7-.4-5.5-.1-1-.3-2-.4-3-.2-2.5-.2-4.9.4-7.3.2-.7.3-1.4.6-2.1.3-.7.5-1.4.9-2.1.3-.6.7-1.2 1.1-1.8.5-.7.9-1.3 1.5-1.9l.9-.9c.7-.7 1.5-1.3 2.3-1.8 1.3-.9 3-1.7 4.5-2.2 1.5-.5 3.1-.9 4.7-1.1h1.5z"/><path fill-rule="evenodd" clip-rule="evenodd" fill="#FFE0BD" stroke="#545E80" stroke-width="1.12" stroke-miterlimit="10" d="M130.3 123c-3.3 7.3 5.8 19 18.9 32.1 13.8-10.8 24.5-21.4 20.4-31.1 0-.1-20.2-7.8-39.3-1z"/><path fill-rule="evenodd" clip-rule="evenodd" fill="#E5B282" d="M134.1 126.2l-2.9-5.6c18.9-8.6 39.3 0 39.3 0l-2.9 5.6c-4.6 1.9-10.1 3-16.7 3-6.7 0-12.2-1.1-16.8-3z"/><path fill-rule="evenodd" clip-rule="evenodd" fill="#FFE0BD" stroke="#545E80" stroke-width="1.12" stroke-miterlimit="10" d="M190.2 64.2c0-16.6-12.2-28.8-39.3-28.8-27.2 0-39.3 12.2-39.3 28.8s-2.8 60.5 39.3 60.5c42.1 0 39.3-43.9 39.3-60.5z"/><path fill-rule="evenodd" clip-rule="evenodd" fill="#545E80" d="M156.8 116c-1.5 0-2.3-1.1-2.3-.6 0 .5.4 1.5 2.3 1.5s2.3-1 2.3-1.5c.1-.5-.8.6-2.3.6z"/><path fill-rule="evenodd" clip-rule="evenodd" fill="#E5B282" d="M135.1 84.1c1.7-1.6 4.4-1.5 5.9.3 1.6 1.7 1.4 2.4-.3 3.9-1.7 1.6-4.3 1.5-5.9-.3-1.5-1.7-1.4-2.3.3-3.9z"/><path clip-rule="evenodd" fill="none" stroke="#545E80" stroke-width="1.12" stroke-linecap="round" stroke-linejoin="round" stroke-miterlimit="10" d="M161.5 98.5c-2.7 2.4-5.5 2.3-8.4 0M171 72.4c5.4-1 10.5-.1 15.2 2.6"/><path fill-rule="evenodd" clip-rule="evenodd" fill="#E5B282" d="M173.5 84.1c1.7-1.6 4.4-1.5 5.9.3 1.6 1.7 1.4 2.4-.3 3.9-1.7 1.6-4.4 1.5-5.9-.3-1.5-1.7-1.4-2.3.3-3.9z"/><path clip-rule="evenodd" fill="none" d="M102 123c-1.1-.8-1.7-2-1.7-3.1V63.7c0-10.8 4.7-21.7 14.2-30.1 19.4-17.1 51.3-17.6 71.3-1 10.2 8.5 15.3 19.8 15.3 31.1v56.1c0 .9-.4 1.9-1.1 2.7-1 .9-2.3 1.4-3.7 1.4-7.8-2.2-15.5-3.5-23.3-4.1 18.8-12.5 17.1-41.7 17.1-54.6 0-16.6-12.2-28.8-39.3-28.8-27.2 0-39.4 12.2-39.4 28.8 0 13.4-1.8 44.4 19.5 56-8.6.9-17.3 1.9-25.9 2.7-1 .1-2.1-.3-3-.9z"/><path clip-rule="evenodd" fill="none" stroke="#545E80" stroke-width="1.12" stroke-linecap="round" stroke-linejoin="round" stroke-miterlimit="10" d="M171 72.4c5.4-1 10.5-.1 15.2 2.6"/><path fill-rule="evenodd" clip-rule="evenodd" fill="#002E4C" d="M173.5 81.1c1.7-1.6 4.4-1.4 5.9.3 1.6 1.7 1.4 4.4-.3 5.9-1.7 1.6-4.4 1.4-5.9-.3s-1.4-4.3.3-5.9z"/><path fill-rule="evenodd" clip-rule="evenodd" fill="#FFF" d="M176.8 84.6c.5-.4 1.2-.4 1.6.1.4.5.4 1.2-.1 1.6-.5.4-1.2.4-1.6-.1-.4-.5-.3-1.2.1-1.6z"/><path clip-rule="evenodd" fill="none" stroke="#545E80" stroke-width="1.12" stroke-linecap="round" stroke-linejoin="round" stroke-miterlimit="10" d="M131.5 72.4c5.4-1 10.5-.1 15.2 2.6"/><path fill-rule="evenodd" clip-rule="evenodd" fill="#002E4C" d="M134 81.1c1.7-1.6 4.4-1.4 5.9.3 1.6 1.7 1.5 4.4-.3 5.9-1.7 1.6-4.4 1.4-5.9-.3s-1.4-4.3.3-5.9z"/><path fill-rule="evenodd" clip-rule="evenodd" fill="#FFF" d="M138.3 84.6c.5-.4 1.2-.4 1.6.1.4.5.4 1.2-.1 1.6-.5.4-1.2.4-1.6-.1-.4-.5-.3-1.2.1-1.6z"/><path clip-rule="evenodd" fill="none" d="M187.9 223.7c0-.5 1.1-42.7 1.1-43.1.5-11.4-3.7-22.9-12.4-31.8-3.9-3.9-8.4-7-13.2-9.2"/><path clip-rule="evenodd" fill="none" d="M188 220.6c0-.5 1.1-42.7 1.1-43.1.5-11.4-3.7-22.9-12.5-31.8-3.9-3.9-8.4-7-13.2-9.2"/><path clip-rule="evenodd" fill="none" stroke="#545E80" stroke-width="1.12" stroke-linecap="round" stroke-linejoin="round" stroke-miterlimit="10" d="M148.1 109.6c4.9 2.5 10 2.4 15.4 0m-14.8-1.6c-.1 1-.6 1.9-1.7 2.8"/><path fill-rule="evenodd" clip-rule="evenodd" fill="#96CC8A" d="M183.2 127.7c3.1.5 3.5.8 5.5 5.2 1.4 3 2.1 9.1 3.6 13.5 3.4 9.9 1.9 18.2-3.2 23.5-2.1 2.2-1.6 5.8-1.9 8.1-.7 5.5-2 14.7-.3 19.9 1.7 5.1 4.6 18.4 5.2 21.4.6 3-7.2 4.3-18.5 5.6-11.2 1.3-45.7 1.1-54.6-.4-9-1.5-17.6-3-16.5-6 1.1-3 4.9-20.8 4.7-26-.2-5.2-1.8-15.1-3.2-19.8-1.5-4.7-2.8-7.2-1.7-9.1 1-1.9 4-7.8 7.4-17.7 3.4-9.9 4.2-17.2 2.1-19.5-2.1-2.3-6.7-2.3-4-3 2.7-.7 15.5-2.4 18.7-3.4 3.2-1 3.5-.4 3.4 1.8-.1 2.2 3 10.2 10.7 15.1 7.7 4.8 11.8 6.6 14.3 5.9 2.4-.7 12.7-5.5 14.8-10.3 2.1-4.8.8-6.7-.7-8.2-1.5-1.5-1.6-1.5 1.8-.7 3.6 1.1 8.6 3.4 12.4 4.1z"/><path fill="#545E80" d="M183.2 127.7c.9.2 1.6.2 2.4.6.5.3 1 .7 1.4 1.2.1.1.2.3.3.4.1.3.3.5.4.7.1.2.3.5.4.7.3.5.5 1 .8 1.5.7 1.5 1.1 3.3 1.5 4.9.5 2.3 1 4.6 1.7 6.8.3 1.2.8 2.4 1.1 3.6.3.9.5 1.8.7 2.7l.3 1.5c.1.5.1 1 .2 1.5.1.6.1 1.1.1 1.7.1 3.8-.4 7.2-2.1 10.6-.5 1.1-1.3 2.2-2 3.1-.3.3-.6.7-.9 1-1.9 2.1-1.4 5.5-1.7 8.1-.3 2.4-.6 4.8-.8 7.3-.1 1.2-.2 2.4-.2 3.6v2.6c0 2 .2 4.1.9 6 .3.8.5 1.6.7 2.4.8 2.9 1.6 5.9 2.3 8.8.4 1.5.7 3.1 1.1 4.6.3 1.3.6 2.7.9 4 .1.4.2.7.2 1.1.1.3.1.6.2.9v.4c0 .1 0 .2-.1.3 0 .1-.1.2-.1.3-.4.8-1.3 1.5-2.1 1.9-.3.1-.6.3-.9.4-2 .7-4.1 1.2-6.2 1.5-2.5.4-5 .8-7.5 1.1-1.4.2-2.9.3-4.3.5l-4.8.3c-1.8.1-3.6.2-5.3.2-1.2 0-2.4.1-3.5.1-3.8.1-7.5.1-11.3.1-3.9 0-7.9-.1-11.8-.2-4.7-.1-9.5-.3-14.2-.8-1.5-.2-2.9-.4-4.4-.7-2-.3-3.9-.7-5.9-1.1-1-.2-1.9-.5-2.9-.7-1.3-.3-2.5-.7-3.7-1.3-.7-.3-1.4-.9-1.9-1.5-.2-.3-.3-.6-.4-.9-.1-.5.1-1 .2-1.4.1-.4.3-.8.4-1.2.2-.6.3-1.1.4-1.7.3-1.3.6-2.7.9-4 .3-1.6.7-3.3 1-4.9l.6-3.3c.2-1 .4-2 .5-3 .2-1.4.4-2.9.6-4.3.1-1 .2-2 .1-3-.1-1.5-.2-3-.4-4.5-.1-.9-.2-1.9-.4-2.8-.1-.8-.2-1.6-.3-2.3-.2-1.3-.5-2.7-.7-4.1-.3-1.4-.6-2.9-.9-4.2-.2-.6-.3-1.1-.5-1.7-.5-1.4-1-2.9-1.4-4.3-.4-1.1-.8-2.5-.7-3.7 0-.4.1-.9.3-1.3.1-.2.2-.4.3-.7.2-.3.3-.6.5-.9.6-1.2 1.2-2.4 1.7-3.6 1.9-4.2 3.6-8.5 5.1-12.8.9-2.6 1.7-5.2 2.3-7.8.4-1.6.7-3.2.8-4.9.1-1.1.2-2.1.1-3.1 0-.2 0-.5-.1-.7v-.2c-.1-.4-.2-1-.4-1.3-.1-.1-.1-.2-.2-.3 0-.1-.1-.1-.2-.2l.1.1-.4-.4-.3-.3c-.6-.4-1.4-.7-2.1-1-.2-.1-.4-.2-.6-.2-.4-.1-1-.3-1.2-.6-.3-.3-.4-.7-.2-1.1 0-.1.1-.1.1-.2l.2-.2c.2-.2.6-.3.8-.3l1.5-.3c.3-.1.6-.1.9-.2.3-.1.7-.1 1-.2 2.3-.4 4.6-.7 6.9-1.1.8-.1 1.7-.3 2.5-.4 1.3-.2 2.7-.4 4-.7.7-.1 1.3-.3 1.9-.5.2-.1.5-.1.7-.2.8-.2 2.2-.5 2.9.1.2.1.3.3.4.5.1.2.2.5.2.7 0 .2 0 .4.1.6v.8c0 .5.2 1.2.3 1.7.2.8.5 1.5.9 2.2.1.3.2.6.4.8.2.3.3.6.5.9.4.7.8 1.4 1.3 2.1 1.3 1.9 3 3.7 4.7 5.1.3.3.7.5 1 .8.4.3.8.6 1.3.9 1.9 1.2 3.8 2.3 5.7 3.4.6.3 1.2.7 1.8 1 .5.3 1.1.5 1.7.8 1.2.5 3.3 1.2 4.6.8.5-.1.9-.3 1.4-.5.8-.3 1.5-.7 2.3-1 1.9-.9 3.8-1.9 5.5-3.1 1.8-1.2 3.7-2.6 4.9-4.4.2-.3.3-.6.5-.9.8-1.9 1.7-4.3.6-6.3-.2-.3-.4-.7-.7-1-.2-.2-.3-.4-.5-.6-.2-.2-.4-.5-.7-.7-.2-.2-.6-.7-.2-.9.1 0 .1 0 .2-.1.2 0 .6.1.8.1.5.1.9.2 1.4.4.2.1.3.1.5.1 1.4.4 2.9.9 4.2 1.5 1.3.5 2.7 1 4 1.5 1.3.2 2.7.7 4 .9-.7-.1-1.5-.3-2.3-.5-3.4-.9-6.6-2.3-10-3.2-.3-.1-.7-.2-1-.2-.2-.1-.4-.1-.7-.1-.2-.1-.7-.2-1-.2.1 0 .1-.1.1-.2.2.3.6.7.9 1 .6.6 1 1.1 1.4 1.9.7 1.4.6 3.2.1 4.7-.3.9-.6 1.9-1.1 2.7-1.3 2.2-3.8 4.1-5.9 5.5-1.4.9-2.8 1.7-4.3 2.5-1 .5-2 1-3.1 1.4-.7.3-1.4.6-2.2.7-1.5.2-3.5-.5-4.9-1.1-1.7-.7-3.3-1.6-4.9-2.5-.7-.4-1.3-.8-2-1.2-.7-.4-1.5-.9-2.2-1.3-.5-.3-1-.6-1.4-.9l-1.2-.9c-.8-.6-1.5-1.3-2.2-2-1.4-1.5-2.8-3.2-3.8-5-.2-.3-.4-.6-.5-1-.5-1-1-1.9-1.3-2.9-.3-.7-.5-1.5-.6-2.2v-.5c0-.3 0-.9-.1-1.2 0-.1-.1-.2-.1-.2v-.1h-.3c-.6 0-1.4.2-1.9.4-.4.1-.7.2-1.1.3-1.4.3-2.9.6-4.4.8-2.4.4-4.7.8-7.1 1.2-1.3.2-2.6.5-3.9.7-.7.1-1.5.3-2.2.5-.1 0-.3.1-.4.1l-.1.1.1-.1c.2-.1.2-.5.1-.7 0 0-.1-.2-.2-.2.2.1.5.2.7.3.4.1.8.3 1.1.4 1.4.5 2.9 1.4 3.6 2.8.7 1.4.8 3.1.7 4.6-.1 2.2-.4 4.4-.9 6.5-.1.6-.3 1.2-.4 1.8-.2.8-.5 1.7-.7 2.5-.5 1.9-1.2 3.7-1.8 5.5-1.4 3.9-2.9 7.8-4.6 11.5-.5 1-.9 2-1.4 2.9-.2.4-.4.7-.6 1.1l-.3.6c0 .1-.1.1-.1.2-.3.8-.1 1.8.1 2.6.1.5.3.9.4 1.4.3.9.6 1.9 1 2.9.3.8.6 1.7.8 2.5.2.7.4 1.5.6 2.2.4 1.7.7 3.4 1 5.1.3 1.9.6 3.7.8 5.6l.3 2.7c0 .4.1.8.1 1.1.1 1 .2 1.9.1 2.9 0 1.3-.2 2.7-.4 4-.2 1.7-.5 3.4-.8 5.1-.6 3.2-1.2 6.4-1.9 9.6-.2 1-.4 2-.7 3-.2.6-.3 1.3-.5 1.9-.1.4-.2.7-.3 1.1-.1.2-.1.4-.2.6-.1.3 0 .5.2.7.1.1.2.2.4.3.8.6 1.8.9 2.8 1.2 2 .6 4 1.1 6.1 1.5 2.1.4 4.2.8 6.3 1.1 1.3.2 2.7.4 4.1.5 1.9.2 3.7.3 5.6.4 4.9.3 9.7.4 14.6.4 6.1.1 12.2.1 18.3-.1 2.1-.1 4.1-.1 6.1-.2 1.9-.1 3.8-.2 5.7-.4 1.7-.2 3.3-.4 4.9-.6 1.1-.1 2.1-.3 3.2-.4.8-.1 1.7-.3 2.5-.4 1.1-.2 2.2-.4 3.2-.7l.9-.3c.2-.1.5-.1.7-.2.6-.2 1.5-.6 2-1 .1-.1.4-.4.4-.5v-.5.1c-.1-.4-.2-.9-.3-1.3-.2-1-.4-1.9-.6-2.9-.8-3.5-1.6-7.1-2.4-10.6-.4-1.5-.7-2.9-1.1-4.4-.2-.7-.4-1.5-.7-2.2-.9-2.7-.9-5.6-.9-8.4 0-2.2.3-4.4.5-6.5.1-1.1.3-2.2.4-3.2.1-.7.2-1.3.3-2v-.4c0-.4.1-.7.1-1.1.1-1.8.1-3.9 1-5.5.2-.4.5-.9.8-1.2l.8-.8c.1-.1.2-.3.3-.4.3-.3.5-.6.7-.9.2-.3.4-.7.7-1 .8-1.3 1.5-2.9 1.9-4.3 1.2-4.2.9-8.5 0-12.7-.2-.7-.4-1.5-.6-2.2l-.6-1.8c-.1-.5-.3-.9-.4-1.4-.2-.7-.3-1.4-.5-2.1-.3-1.3-.6-2.7-.8-4-.2-1.2-.5-2.4-.8-3.5l-.3-.9c-.1-.2-.2-.5-.3-.7-.4-.8-.7-1.6-1.1-2.4-.4-.7-.8-1.4-1.4-1.9-.6-.9-1.8-1.1-2.7-1.3z"/><path fill="#545E80" d="M153.2 226.1l.2 6v5.9l-.1 11.8-.4 11.9-.4 5.9-.5 5.9-.2-5.9-.1-5.9.2-11.9.4-11.8.3-5.9zM96.6 95.3c-1.3-.1-2.6-.6-3.8-1.1-.8-.4-1.5-.8-2.2-1.2-.8-.6-1.6-1.1-2.4-1.8-1.2-1-2.5-2.2-3.5-3.4-.5-.6-1.1-1.3-1.6-1.9-1-1.2-1.9-2.6-2.8-3.9-.4-.5-.7-1.1-1.1-1.6-.6-.9-1.1-1.9-1.6-2.8.6.4 1.2.9 1.7 1.5.6.6 1.1 1.1 1.6 1.7 1.9 2.1 3.7 4.4 5.6 6.5.9 1 1.9 2 2.9 2.9.3.3.7.7 1.1.9.2.1.3.3.5.4l1.2.9c.9.7 1.9 1.4 2.9 2 .5.2 1 .5 1.5.9z"/><path fill-rule="evenodd" clip-rule="evenodd" fill="#FAC73D" d="M111.5 79.7v-15c0-8.5 3.7-16.9 11.1-23.5 15.1-13.4 40-13.7 55.6-.8 8 6.6 12 15.4 12 24.2v14.9c-22.1-17.8-56.7-17.7-78.7.2z"/><path fill="#545E80" d="M185.5 76.2c-1-.5-1.9-1-2.9-1.5-1.1-.5-2.2-1-3.2-1.5-1.3-.6-2.7-1.1-4-1.7-1.4-.5-2.7-1-4.1-1.4-.9-.3-1.9-.6-2.8-.8-1.4-.4-2.9-.7-4.3-1-3-.6-6-1-9.1-1.1-1.5-.1-2.9-.1-4.4-.1-2.2 0-4.4.1-6.6.3-1.1.1-2.1.3-3.2.4-4.1.6-8.2 1.6-12.1 2.9-2.1.7-4.1 1.5-6.1 2.3-1.2.5-2.5 1.1-3.7 1.7-.9.5-1.9.9-2.8 1.4.4-.4.9-.7 1.4-1.1 1.1-.8 2.3-1.5 3.5-2.2 2.8-1.6 5.7-2.9 8.8-4 1-.3 2-.7 3-1 1.5-.4 3-.8 4.5-1.1.7-.1 1.4-.3 2-.4 1.5-.3 2.9-.5 4.4-.6 1-.1 2.1-.2 3.1-.3 1.1-.1 2.2-.1 3.3-.1h2.9c.7 0 1.4.1 2 .1 1.2.1 2.3.2 3.5.3 3.4.4 6.7 1.1 10 2 1.4.4 2.8.9 4.1 1.4 1.4.5 2.8 1.1 4.1 1.7 2.4 1.1 4.7 2.4 6.9 3.9l1.8 1.5z"/><path fill="#545E80" d="M134.5 48.5l-.3 1.5c-.2.7-.3 1.5-.5 2.2-.3 1.7-.5 3.4-.6 5.1-.1 2.3 0 4.6 0 6.9 0 1.5 0 3.1-.4 4.6-.3-.6-.5-1.5-.6-2.2-.2-1.1-.4-2.2-.5-3.3-.4-3-.5-6.3.3-9.3.1-.6.3-1.1.5-1.7.4-1.4 1.2-2.9 2.1-3.8zm32.7 0c1.1 1.1 1.7 2.6 2.3 4 .2.6.4 1.3.5 1.9l.3 2.1c.2 2.1.1 4.4-.1 6.5-.1.9-.2 1.9-.4 2.8-.2 1-.4 2-.7 3-.2-.5-.2-1-.3-1.5-.1-.7-.1-1.4-.1-2.2v-6.3c0-1-.1-2.1-.1-3.1 0-.4-.1-.8-.1-1.2l-.3-1.8c0-.2-.1-.4-.1-.6-.1-.7-.3-1.4-.5-2.1-.2-.5-.3-1-.4-1.5z"/><path fill-rule="evenodd" clip-rule="evenodd" fill="#F0E6E0" d="M174.8 162.1s-2.9 30.6 2.3 30.7c-14.6-.4-38.8-1-42.4-1-5.2-.1-2.3-30.7-2.3-30.7l42.4 1z"/><path fill-rule="evenodd" clip-rule="evenodd" fill="#5C5C5C" d="M147.7 179.1l-2.7-.1c-.4 0-.6-.1-.8-.3-.2-.2-.3-.4-.3-.8 0-.3 0-.6.1-.8s.2-.5.3-.7l2.1-5.4c.2-.5.3-.8.5-1 .2-.2.4-.3.7-.3.4 0 .7.2 1 .7.3.4.4 1.1.5 2l.1 4.3h.2c.3 0 .5.1.7.3.2.2.3.5.3.8 0 .8-.3 1.2-1 1.2h-.2v1.2c0 .5 0 .8-.2 1.1-.1.2-.3.4-.6.4-.5 0-.8-.5-.8-1.5l.1-1.1m0-2.3l-.2-4.5-1.6 4.4 1.8.1zm6.6-2.5c.1 0 .2 0 .3-.1h.3c.3 0 .6.1.8.3.3.2.5.5.7.8.2.3.4.7.5 1.2.1.5.2 1 .2 1.5 0 .6 0 1.1-.2 1.6-.1.5-.3.9-.5 1.3s-.5.7-.9.9c-.3.2-.7.3-1.1.3-.4 0-.7-.1-1.1-.3-.3-.2-.6-.5-.9-.9-.3-.4-.5-.8-.6-1.3-.1-.5-.2-1.1-.3-1.7 0-.8.1-1.7.3-2.7.3-1 .7-2 1.2-3.1.4-.7.7-1.3.9-1.6.3-.4.5-.6.7-.5.1 0 .2 0 .3.1l.3.3c.1.1.1.3.2.4.1.1.1.3.1.5s0 .4-.1.6c-.1.2-.2.4-.3.7-.1.3-.3.5-.5.9.1 0-.1.4-.3.8m-.8 3.7c0 .5.1.8.3 1.2.2.3.4.5.7.5.3 0 .5-.1.7-.4.2-.3.3-.7.3-1.1 0-.5-.1-.9-.3-1.1-.2-.3-.4-.5-.7-.5-.3 0-.5.1-.7.4-.3.2-.3.6-.3 1zm8.8-2.4c.9.7 1.3 1.7 1.4 3 0 .5 0 1-.1 1.5s-.3.9-.5 1.2c-.2.3-.5.6-.8.8-.3.2-.7.3-1.1.3-.6 0-1.2-.3-1.7-.9-.3-.4-.6-.7-.7-1.2-.2-.4-.3-.8-.3-1.2 0-.4 0-.7.2-.9.1-.2.3-.3.5-.3s.3.1.4.2c.1.1.3.3.4.5.1.2.2.3.3.5.1.2.2.3.3.4l.3.3c.1.1.2.1.4.1.3 0 .5-.1.6-.4.2-.3.2-.6.2-1.1 0-.5-.1-.8-.3-1-.2-.2-.5-.3-.8-.4-.3-.1-.4-.2-.6-.4-.1-.2-.2-.5-.2-.8 0-.3 0-.6.1-.8.1-.2.3-.3.5-.4.5-.2.8-.6.8-1.2 0-.3-.1-.5-.2-.7-.1-.2-.3-.3-.5-.3s-.3.1-.4.2c-.1.1-.2.3-.3.5-.2.2-.3.4-.4.6-.1.2-.3.2-.5.2s-.4-.1-.5-.3c-.2-.2-.2-.5-.3-.8 0-.3 0-.7.2-1 .1-.3.3-.6.5-.9.2-.3.5-.5.8-.6.3-.2.6-.2.9-.2.3 0 .6.1.9.3.3.2.5.4.7.7.2.3.4.6.5 1 .1.4.2.8.2 1.2 0 .5 0 .9-.2 1.3-.2.3-.4.7-.7 1z"/><path fill-rule="evenodd" clip-rule="evenodd" fill="#FFF" d="M204.9 68.6c-5.1 0-9.3-4.1-9.3-9.2s4.2-9.2 9.3-9.2c5.1 0 9.2 4.1 9.2 9.2s-4.1 9.2-9.2 9.2z"/><path fill="#545E80" d="M204.9 68.6c-.8.1-1.6.1-2.4-.1-3-.6-5.7-2.7-6.8-5.6-.4-1-.7-2-.8-3.1v-1.4c0-.7.2-1.5.4-2.2.7-2.3 2.1-4.2 4.1-5.5.4-.3.9-.5 1.3-.7 1.2-.6 2.8-.9 4.1-.9 4.3 0 8.2 2.8 9.5 6.9.2.6.3 1.2.4 1.8 0 .5.1.9.1 1.4 0 1-.2 1.9-.5 2.8-.3.9-.9 2-1.4 2.8-.3.3-.5.7-.8 1-.7.7-1.4 1.3-2.3 1.7-.2.1-.5.2-.7.3-.2.1-.5.2-.7.3-.9.3-1.6.4-2.5.4h-.6c-.1.1-.3.1-.4.1.2 0 .5-.1.7-.1.5-.1 1-.2 1.5-.4 2.9-1 5.1-3.3 5.9-6.2.2-.9.3-1.7.3-2.6-.1-.7-.1-1.4-.3-2.1-.2-.5-.3-1.1-.6-1.5-.2-.4-.4-.7-.6-1.1-.6-.9-1.4-1.6-2.3-2.2-.5-.4-1.1-.6-1.7-.9-.6-.3-1.4-.4-2.1-.5-.3 0-.6 0-.9-.1h.1c-.3 0-.7 0-1 .1-.8.1-1.6.3-2.4.6l-.6.3c-.3.2-.6.4-1 .6-.1.1-.3.2-.5.4-.2.1-.4.3-.5.5-.3.3-.5.5-.7.8l-.6.9c-.2.3-.3.5-.4.8-.5 1-.7 2.3-.8 3.4 0 1 .1 1.8.4 2.8.2.7.5 1.4.9 2 .3.5.7 1 1.1 1.4 1.6 1.8 3.7 2.8 6.1 3.1z"/><circle fill-rule="evenodd" clip-rule="evenodd" fill="#FFF" cx="206.5" cy="77.2" r="4.2"/><path fill="#545E80" d="M210.7 77.2c.1.3.1.5.1.9v.3c0 .3-.1.8-.3 1 0 .1-.1.2-.1.3-.1.2-.3.5-.4.7-.9 1.2-2.3 1.8-3.8 1.8-1.9 0-3.5-1.1-4.3-2.8-.1-.2-.3-.5-.3-.8 0-.1-.1-.3-.1-.4-.1-.3-.1-.7-.1-1 0-1.1.3-1.9.9-2.8.1-.1.2-.2.2-.3.1-.2.3-.4.5-.5.2-.2.5-.4.7-.6.3-.1.5-.3.8-.4.6-.3 1.4-.4 2-.4 1.4.1 2.8.8 3.6 2 .2.3.4.7.5 1.1.2.5.2 1.1.2 1.5 0 .1-.1.3-.1.4-.4-1.5-1.3-2.7-2.8-3.3-.5-.2-1-.2-1.5-.2h.1-.4c-.3 0-.8.2-1 .3-.1.1-.2.1-.2.1-.2.1-.4.3-.6.4l-.4.4c-.5.6-.7 1.4-.7 2.2V77c0 1.4.7 2.5 2 3.2.4.2.9.3 1.4.3h-.1c.4 0 .7 0 1.1-.1 1.1-.3 1.9-.9 2.5-1.8.3-.3.4-.9.6-1.4z"/><path fill-rule="evenodd" clip-rule="evenodd" fill="#FFF" d="M194 47.8l-1-.1-.2 1c-1.7 6.6-7.7 11.2-14.5 11.2-4.9 0-9.6-2.4-12.4-6.5l-.6-.9-.9.5c-3.5 2.1-7.6 3.2-11.7 3.2-12.7 0-23.1-10.4-23.1-23.1s10.3-23.1 23-23.1c2.3 0 4.7.3 6.9 1l.8.2.5-.7c3.3-4.3 8.2-6.8 13.6-6.8 8.1 0 15.1 5.8 16.7 13.7l.2 1.1 1.1-.2c1-.2 2-.3 3-.3 8.2 0 14.9 6.7 14.9 14.9s-6.7 14.9-14.9 14.9H194z"/><path fill="#545E80" d="M194 47.8c-.3 0-.7 0-1-.1-.1.6-.3 1.1-.4 1.7-.1.3-.2.7-.3 1.1-.3.9-.7 1.8-1.2 2.5-2 3.3-5.1 5.6-8.8 6.7-1.3.4-2.6.5-4 .6-1 0-2-.1-2.9-.2-.4-.1-.9-.2-1.3-.3-2.5-.7-4.8-2-6.7-3.8-1-.9-1.8-2-2.5-3.1.3.1.5.1.8.2-1.4.9-2.8 1.7-4.4 2.3-2.8 1.1-5.5 1.6-8.5 1.7-.6 0-1.2 0-1.8-.1-.4 0-.7-.1-1.1-.1-.6-.1-1.1-.2-1.7-.3-3.1-.6-6.1-1.8-8.7-3.5-.7-.5-1.5-1.1-2.2-1.7-.2-.1-.4-.3-.5-.5-.9-.8-1.7-1.6-2.4-2.5-1.5-1.8-2.6-3.7-3.6-5.8-.7-1.6-1.2-3.3-1.5-5.1-.1-.6-.2-1.1-.3-1.7-.1-.8-.1-1.7-.1-2.6 0-.6 0-1.2.1-1.8.3-3.8 1.4-7.3 3.4-10.6.8-1.3 1.7-2.5 2.7-3.7.2-.2.4-.5.6-.7.5-.5 1-1 1.5-1.4 1.1-1 2.4-1.9 3.8-2.7 1.4-.8 2.7-1.4 4.2-1.9.4-.1.8-.3 1.2-.4.5-.1 1-.3 1.6-.4.5-.1 1.1-.2 1.6-.3 1.6-.3 3.4-.3 5-.1.6 0 1.3.1 1.9.2.2 0 .4.1.6.1.2 0 .4.1.7.1 1 .2 2 .5 3 .8-.3.1-.7.2-1 .3.6-.8 1.2-1.5 1.9-2.3.9-1 2.1-1.9 3.2-2.6.4-.3.8-.5 1.2-.7.8-.5 1.8-.9 2.6-1.2.2-.1.4-.2.7-.2l.9-.3c.6-.2 1.3-.3 1.9-.4 3.3-.4 6.5 0 9.5 1.4 2.6 1.2 4.9 3 6.7 5.2 1.4 1.8 2.5 4 3.1 6.1l.3 1.5c.1.4.1.8.2 1.1l-.9-.6c.4-.1.8-.2 1.1-.2.8-.1 1.6-.3 2.3-.3 1.9-.1 3.9.2 5.8.8.4.1.8.3 1.2.5.6.3 1.2.6 1.8 1 1.7 1 3.2 2.5 4.4 4 3 4.1 3.8 9.4 2.1 14.1-.4 1.1-.9 2.3-1.6 3.3-.8 1.2-1.7 2.3-2.9 3.2-.3.3-.7.5-1 .8-.7.5-1.4.9-2.2 1.3-.3.2-.7.3-1 .5-.5.2-.9.3-1.4.5-.4.1-.9.2-1.3.3-1 .2-2 .2-3.1.2-.4.1-.9.1-1.3.1.9.1 1.8 0 2.7-.1.8-.1 1.5-.3 2.3-.4.6-.2 1.2-.4 1.8-.7 3.2-1.3 5.9-3.9 7.4-7 .8-1.6 1.3-3.3 1.4-5.1 0-.5 0-1 .1-1.5 0-.4 0-.9-.1-1.3-.1-.7-.2-1.6-.4-2.3-.1-.4-.2-.7-.4-1.1-.1-.3-.3-.7-.4-1-.3-.7-.7-1.3-1.1-1.9-1.5-2.3-3.6-4.1-6.2-5.3-.6-.3-1.2-.5-1.8-.7l-1.2-.3c-.9-.2-1.9-.2-2.8-.3-.5 0-1 0-1.5.1s-.9.1-1.4.2c-.6.1-1.2.3-1.9.4-.1-.6-.3-1.2-.4-1.9-.1-.2-.1-.5-.2-.7-.2-.7-.4-1.5-.7-2.2-.1-.2-.2-.5-.3-.7-.1-.2-.2-.4-.3-.7-.2-.4-.4-.8-.7-1.2-.2-.3-.4-.7-.7-1-.6-.8-1.2-1.6-1.9-2.2-.5-.4-.9-.8-1.4-1.1-1.3-1-2.8-1.8-4.3-2.3-.6-.2-1.3-.4-1.9-.5-.9-.2-2-.3-2.9-.4h-.7c-.8 0-1.6.1-2.4.2-3 .5-6 1.8-8.3 3.9-.4.3-.7.6-1 1-.4.5-.9 1-1.2 1.5-.3.4-.6.8-.9 1.1-.5-.1-.9-.3-1.4-.4-1.4-.4-2.7-.7-4.1-.9-.9-.1-1.7-.1-2.6-.1H151c-.7.1-1.3.1-1.9.2-2 .3-3.9.9-5.8 1.7-.4.2-.7.3-1.1.5-1.1.6-2.2 1.3-3.3 2-.8.6-1.7 1.3-2.4 2.1-.3.3-.5.5-.7.8-.1.2-.3.3-.5.5s-.4.5-.6.7c-.4.5-.7 1-1.1 1.5-.2.3-.3.5-.5.7-.4.7-.9 1.5-1.2 2.3-1.3 2.9-1.9 5.9-2 9.1 0 1.4.1 2.8.4 4.2.1.3.1.6.2.9.1.5.3 1 .4 1.5.3 1 .7 1.9 1.1 2.8.3.7.8 1.6 1.2 2.3.3.5.7 1.1 1.1 1.6.2.3.5.6.7.9.1.2.3.3.5.5.2.3.5.5.8.8.4.5.9.9 1.4 1.3 1.8 1.5 3.7 2.8 5.8 3.7 2.1.9 4.1 1.4 6.3 1.7.8.1 1.6.1 2.4.1.9 0 1.7 0 2.5-.1.6-.1 1.3-.2 1.9-.3l1.2-.3c2-.5 3.9-1.3 5.7-2.3.5-.3 1-.5 1.4-.8.3.4.6.9.9 1.4.4.6.9 1.2 1.4 1.8 2.8 3 6.5 4.6 10.5 4.7 1.3 0 2.4-.1 3.6-.4 3.2-.7 6.4-2.8 8.4-5.5.6-.8 1.1-1.7 1.6-2.5.2-.3.3-.7.5-1.1.2-.4.3-.9.4-1.3.1-.3.2-.6.3-1 .8.1 1.1.1 1.5.2z"/><path fill-rule="evenodd" clip-rule="evenodd" fill="#FFF" d="M196.9 87.9c-1.5 0-2.8-1.3-2.8-2.8 0-1.5 1.3-2.8 2.8-2.8 1.5 0 2.8 1.3 2.8 2.8 0 1.6-1.3 2.8-2.8 2.8z"/><path fill="#545E80" d="M196.9 87.9c-.1 0-.3.1-.4.1-.7.1-1.5-.1-2-.6-.2-.2-.5-.4-.6-.7s-.2-.5-.3-.7c-.1-.2-.1-.4-.1-.6-.1-.6 0-1.2.2-1.7.3-.8.8-1.4 1.6-1.8.2-.1.5-.2.7-.3.1 0 .2-.1.3-.1.2 0 .5-.1.8-.1.4 0 .7.1 1 .2 1.4.4 2.3 1.7 2.5 3.1.1 1.3-.7 2.8-2.1 3.2-.2.1-.3.1-.5.1h-.7c-.2 0-.3-.1-.4-.1.2-.1.5-.2.7-.3.9-.5 1.5-1.4 1.4-2.5v-.3c0-.2-.2-.4-.2-.5 0-.1-.1-.2-.2-.3-.4-.5-.9-.7-1.6-.7h.1c-.2 0-.5 0-.7.1-.8.3-1.3.9-1.4 1.8v-.1.7c.2 1.2.9 1.7 1.9 2.1z"/><path fill-rule="evenodd" clip-rule="evenodd" fill="#FFF" d="M196.9 80c-2.8 0-5.1 2.3-5.1 5.1s2.3 5.1 5.1 5.1 5.1-2.3 5.1-5.1-2.3-5.1-5.1-5.1z"/><path fill="#545E80" d="M196.9 80c-.5.1-.9.3-1.4.5-.3.1-.5.3-.7.4-.3.1-.5.4-.7.5-.2.2-.5.5-.6.7-.5.6-.8 1.6-.9 2.3v.6c.1 1.7 1 3.1 2.6 3.8.2.1.4.2.6.2.4.1.8.1 1.2.2.2 0 .5 0 .7-.1.2 0 .4-.1.5-.1.8-.2 1.5-.7 2.1-1.3.3-.3.5-.7.7-1 0-.1.1-.2.1-.3 0-.1.1-.2.1-.3.1-.4.2-.7.2-1.1v-.4c0-1-.5-2-1.1-2.8l-.2-.2c-.1-.2-.4-.4-.5-.5-.1-.1-.2-.1-.3-.2-.3-.2-.6-.4-.9-.5-.1 0-.2-.1-.3-.1-.2-.1-.4-.1-.6-.2-.4 0-.5-.1-.6-.1.2 0 .4-.1.6-.1.7 0 1.4.1 2 .4.5.2 1.1.6 1.5 1l.2.2c.5.5 1 1.3 1.2 1.9.2.7.4 1.6.3 2.3-.1.8-.3 1.5-.6 2.2-1.1 2-3.1 3.2-5.4 3.1-3.1 0-5.7-2.7-5.7-5.8 0-.4.1-.9.2-1.3.1-.6.4-1.1.7-1.6.7-1.2 2-2.2 3.4-2.4.5 0 1 0 1.6.1z"/><path fill-rule="evenodd" clip-rule="evenodd" fill="#545E80" d="M139.6 33.6v.1c0 3.6 2.9 6.5 6.5 6.5h39.7c3.6 0 6.5-2.9 6.5-6.5v-.1c0-3.6-2.9-6.5-6.5-6.5h-39.7c-3.6 0-6.5 2.9-6.5 6.5z"/><path fill-rule="evenodd" clip-rule="evenodd" fill="#FFF" d="M140.9 33.8v-.1c0-2.9 2.3-5.2 5.2-5.2h39.7c2.9 0 5.2 2.3 5.2 5.2v.1c0 2.9-2.3 5.2-5.2 5.2h-39.7c-2.9 0-5.2-2.3-5.2-5.2z"/><path fill-rule="evenodd" clip-rule="evenodd" fill="#7DB04F" d="M142.2 33.8v-.1c0-2.1 1.7-3.9 3.9-3.9H185c2.1 0 3.9 1.7 3.9 3.9v.1c0 2.1-1.7 3.9-3.9 3.9h-38.9c-2.2 0-3.9-1.8-3.9-3.9z"/><path fill-rule="evenodd" clip-rule="evenodd" fill="#F0524F" d="M24.8 229.8c.3-.8.7-1.6 1-2.4.6-1.4 1.2-2.7 1.9-4.1 1.7-3.6 3.7-7.2 5.8-10.6 4.6-7.4 10-14.2 16.7-19.7 2.7-2.2 5.5-4.1 8.5-5.9 2.3-1.3 4.6-2.4 7-3.5 7.7-3.2 16.1-4.8 24.4-5.3 2.2-.1 4.4-.2 6.6-.2h2.6c3.2.1 6.4.3 9.6.6 1.5.1 3 .3 4.5.5 1.1.1 2.1.3 3.2.4 1.4.2 2.7.4 4.1.6 2.5.4 5.1.9 7.6 1.3 4 .8 7.9 1.6 11.8 2.6 7.4 1.8 14.8 3.8 22.1 6 10.1 3 20 6.4 29.9 10 9.9 3.6 19.7 7.5 29.4 11.6h-.1c.5.2 1.1.5 1.6.6.1 0 .2.1.3.1.2.1.4.1.6.2v.1l-1 1.2h.1c.1 0 1.4-1.2 1.5-1.3.1-.1.4-.3.5-.4.2-.2.4-.5.6-.7.2-.2.4-.5.5-.8l.3-.6c.1-.2.2-.3.3-.5.4-.8.8-1.6 1.1-2.5.1-.2.2-.5.3-.7.3-.9.6-1.7.9-2.6.6-1.8 1.2-3.7 1.9-5.5.3-.8.6-1.7.9-2.5.4-1.2.9-2.4 1.4-3.6.4-1 .9-2 1.4-2.9 1.2-2.4 2.6-4.5 4.6-6.3l1.2-.9c.7-.5 1.5-.9 2.3-1.2.6-.3 1.3-.4 2-.5.7-.1 1.5-.1 2.3-.1 1.7.2 3.3.7 4.7 1.6.4.2.8.5 1.1.8.2.1.4.3.6.4.1.1.2.1.3.1-.1.1-.2.1-.2.2-.3-.1-.8-.1-1.1-.1-.9 0-1.9 0-2.8.2-1.2.2-2.3.5-3.4 1.2-1.4.9-2.2 2.5-2.7 4.1-.6 1.8-.9 3.8-1.1 5.7-.2 1.3-.3 2.6-.4 3.9-.1 1.1-.2 2.3-.3 3.4-.1 1-.2 1.9-.3 2.9-.1 1.3-.3 2.5-.4 3.8-.2 1.2-.4 2.5-.7 3.7-1.1 5.3-3.4 10.6-8.1 13.7-1 .6-1.9 1.1-3 1.5-1.1.4-2.3.8-3.5.9-2.3.3-4.4.2-6.6-.2-1-.2-1.9-.4-2.9-.7-.7-.2-1.5-.4-2.2-.6-2-.6-4-1.1-6-1.7-5.8-1.6-11.5-3.3-17.3-4.9-13.7-3.9-27.5-7.9-41.3-11.6-5.3-1.4-10.5-2.7-15.9-4-2.7-.6-5.3-1.2-8-1.8-2.3-.5-4.7-1-7.1-1.5-2.5-.5-5.1-.9-7.6-1.4-2.1-.3-4.1-.6-6.2-.9-1-.1-1.9-.2-2.9-.3-2.3-.3-4.7-.4-7-.6-1.8-.1-3.6-.1-5.4-.2-1.8 0-3.6 0-5.3.2-1.4.1-2.9.2-4.3.4-1.3.2-2.7.4-4 .7-.9.2-1.7.4-2.6.6-.9.2-1.8.5-2.7.8-.5.1-.9.3-1.4.5-.5.2-1.1.4-1.6.6l-2.1.9c-6.6 2.8-12.5 7.2-17.8 11.9-5.5 4.9-10.5 10.2-15.7 15.4-1.5 1.5-2.9 2.9-4.4 4.3-1.9 1.8-3.8 3.6-5.9 5.2.8-3.2 2-6.4 3.3-9.6z"/><path fill-rule="evenodd" clip-rule="evenodd" fill="#FFE0BD" stroke="#545E80" stroke-width="1.12" stroke-miterlimit="10" d="M108.8 221.5c-.3-.6-.7-1.1-1.1-1.7-2-3.2-3.9-6.4-5.8-9.7-1.7-2.9-3.4-5.9-5-8.9-.6-1.2-1.3-2.3-1.9-3.5-.6-1.1-1.1-2.2-1.7-3.3-.3-.6-.6-1.1-.9-1.7-.7-1.4-1.4-2.9-2.1-4.4-1.3-2.9-2.6-5.9-3.6-9-.3-1-.6-2.1-.8-3.2-.1-.5-.2-1-.3-1.4-.1-.6-.1-1.1-.1-1.7v-1.4c0-.5.1-1 .1-1.5.1-.9.3-1.8.6-2.7.2-.7.4-1.4.6-2.2.7-2.5 1.5-5.1 2.3-7.6.4-1.2.8-2.4 1.1-3.6l4.2-12.9c.7-2.1 1.4-4.1 2.1-6.2.5-1.4.9-2.8 1.5-4.2l.3-.9.3-.6c.2-.3.4-.7.6-1 1.1-1.7 2.6-3.1 4.5-3.9.7-.3 1.5-.5 2.3-.5.7-.1 1.3 0 2 .1s1.5.4 2 .7c.6.3 1.2.7 1.7 1.2 2.8 2.6 3.7 6.7 3.2 10.4-.1.7-.3 1.5-.6 2.2-.1.2-.2.5-.3.7v-.1c0 .1-.1.3-.1.4-.1.4-.3.9-.5 1.3-.4 1.1-.7 2.1-1.1 3.2-.3.7-.5 1.5-.8 2.2l-.9 2.7c-.6 1.9-1.3 3.8-1.9 5.7-1.7 5.1-3.4 10.3-5 15.5-.1.5-.3 1-.4 1.4 0 .1.1.3.1.4.1.4.3.7.4 1.1l1.2 3 1.2 2.7c.7 1.4 1.3 2.9 2.1 4.3 1.7 3.4 3.4 6.7 5.2 10 2.4 4.6 5 9.1 7.6 13.6.7 1.1 1.3 2.3 2 3.4.2.3.3.5.5.8l.2.3c.1.1.1.2.2.4.1.1.1.2.1.3 13.8 3.5 15.6 10.5 5.5 9.7-3.1 0-1.9 2.6 2.2 7.1 11.5 12.4-15.5 21.4-23-7zm-5.3-49.9c0-.1-.1-.2-.1-.3v.5c0-.1 0-.1.1-.2z"/><path fill="#545E80" d="M153.2 226.1l.2 8.4v8.3l-.1 16.6-.4 16.6-.4 8.3-.5 8.3-.2-8.3-.1-8.3.2-16.6.4-16.6.3-8.3z"/></svg>