<?xml version="1.0" encoding="utf-8"?>
<!-- Generator: Adobe Illustrator 13.0.0, SVG Export Plug-In . SVG Version: 6.00 Build 14948)  -->
<!DOCTYPE svg PUBLIC "-//W3C//DTD SVG 1.1//EN" "http://www.w3.org/Graphics/SVG/1.1/DTD/svg11.dtd">
<svg version="1.1" id="Layer_1" xmlns="http://www.w3.org/2000/svg" xmlns:xlink="http://www.w3.org/1999/xlink" x="0px" y="0px"
	 width="132px" height="18px" viewBox="0 0 132 18" enable-background="new 0 0 132 18" xml:space="preserve">
<g>
	<path fill-rule="evenodd" clip-rule="evenodd" fill="#002E4C" d="M32.4,16.3c-0.1-0.1-0.2-0.3-0.2-0.5V1.3c0-0.2,0.1-0.4,0.2-0.5
		c0.1-0.1,0.3-0.2,0.5-0.2c0.2,0,0.4,0.1,0.5,0.2c0.2,0.1,0.2,0.3,0.2,0.5v14.5c0,0.2-0.1,0.4-0.2,0.5c-0.1,0.1-0.3,0.2-0.5,0.2
		C32.7,16.5,32.5,16.4,32.4,16.3z M39.1,16.5L39.1,16.5c-0.3-0.1-0.5-0.2-0.6-0.4l0-0.1l0-0.1V6c0-0.2,0.1-0.4,0.2-0.5
		c0.1-0.1,0.3-0.2,0.5-0.2c0.2,0,0.4,0.1,0.5,0.2C39.9,5.6,40,5.8,40,6v0.5l0.3-0.3C41.1,5.5,42,5.2,43,5.2c1.4,0,2.5,0.5,3.4,1.4
		c0.9,0.9,1.4,2,1.4,3.3v5.9c0,0.2-0.1,0.4-0.2,0.5c-0.1,0.1-0.3,0.2-0.5,0.2c-0.2,0-0.4-0.1-0.5-0.2c-0.1-0.1-0.2-0.3-0.2-0.5V9.8
		c0-0.9-0.3-1.6-0.9-2.2C44.7,7,44,6.7,43.2,6.7c-0.9,0-1.6,0.3-2.2,0.9C40.4,8.2,40,9,40,9.8v6c-0.1,0.4-0.3,0.6-0.7,0.6H39.1z
		 M51.2,16.3c-0.3-0.4-0.3-0.8,0.1-1.1l7.2-6.6c0.9-0.8,1.3-1.7,1.3-2.7c0-1-0.3-1.9-1-2.7c-0.7-0.8-1.6-1.1-2.6-1.1
		c-1.1,0-1.9,0.3-2.7,1l-0.7,0.7c-0.2,0.1-0.3,0.2-0.6,0.2c-0.2,0-0.4-0.1-0.5-0.3c-0.1-0.2-0.2-0.3-0.2-0.5c0-0.1,0-0.2,0.1-0.3
		l0.2-0.2l0.7-0.7c1-0.9,2.3-1.4,3.7-1.4c1.5,0,2.7,0.6,3.7,1.7c0.9,1,1.4,2.2,1.4,3.7c0,1.5-0.6,2.7-1.7,3.8l-5.7,5.2h6.7
		c0.2,0,0.4,0.1,0.5,0.2c0.1,0.1,0.2,0.3,0.2,0.5c0,0.2-0.1,0.4-0.2,0.5c-0.1,0.1-0.3,0.2-0.5,0.2h-8.7
		C51.6,16.5,51.4,16.4,51.2,16.3z M65.6,16.3c-0.1-0.1-0.2-0.3-0.2-0.5V1.3c0-0.2,0.1-0.4,0.2-0.5c0.1-0.1,0.3-0.2,0.5-0.2
		c0.2,0,0.4,0.1,0.5,0.2C66.9,0.9,67,1.1,67,1.3v6.5h7.5V1.3c0-0.2,0.1-0.4,0.2-0.5c0.1-0.1,0.3-0.2,0.5-0.2c0.2,0,0.4,0.1,0.5,0.2
		C75.9,0.9,76,1.1,76,1.3v14.5c0,0.2-0.1,0.4-0.2,0.5c-0.2,0.1-0.3,0.2-0.5,0.2c-0.2,0-0.4-0.1-0.5-0.2c-0.1-0.1-0.2-0.3-0.2-0.5
		V9.3H67v6.5c0,0.2-0.1,0.4-0.2,0.5c-0.2,0.1-0.3,0.2-0.5,0.2C66,16.5,65.8,16.4,65.6,16.3z M81.7,14.8c-1.1-1.1-1.6-2.4-1.6-4
		s0.5-2.9,1.6-4c1.1-1.1,2.4-1.7,3.9-1.7c1.5,0,2.7,0.5,3.8,1.5c1,1,1.6,2.3,1.7,3.8v0.1c0,0.2-0.1,0.4-0.2,0.5
		c-0.2,0.1-0.3,0.2-0.5,0.2h-8.6l0.1,0.6c0.2,0.8,0.6,1.4,1.1,2c0.8,0.7,1.7,1.1,2.7,1.1c0.7,0,1.3-0.2,1.9-0.5
		c0.6-0.3,1.1-0.8,1.4-1.4c0.1-0.2,0.3-0.3,0.5-0.4h0.3c0.1,0,0.2,0.1,0.3,0.1c0.4,0.3,0.5,0.7,0.3,1.1c-0.5,0.8-1.1,1.4-2,1.9
		c-0.8,0.5-1.7,0.7-2.6,0.7C84.1,16.5,82.8,15.9,81.7,14.8z M94.8,14.8c-1.1-1.1-1.6-2.5-1.6-4c0-1.5,0.5-2.9,1.6-4
		c1-1.1,2.3-1.7,3.8-1.7c0.9,0,1.7,0.2,2.4,0.6c0.4,0.2,0.7,0.4,1,0.7l0.4,0.5v-1c0-0.2,0.1-0.4,0.2-0.5c0.1-0.1,0.3-0.2,0.5-0.2
		c0.2,0,0.4,0.1,0.5,0.2c0.1,0.1,0.2,0.3,0.2,0.5v9.8c0,0.2-0.1,0.4-0.2,0.5c-0.1,0.1-0.3,0.2-0.5,0.2c-0.2,0-0.4-0.1-0.5-0.2
		c-0.1-0.1-0.2-0.3-0.2-0.5v-1l-0.4,0.5c-0.3,0.3-0.7,0.5-1,0.7c-0.7,0.4-1.5,0.6-2.4,0.6C97.1,16.5,95.8,15.9,94.8,14.8z
		 M108.5,16.3c-0.1-0.1-0.2-0.3-0.2-0.5V1.3c0-0.2,0.1-0.4,0.2-0.5c0.1-0.1,0.3-0.2,0.5-0.2c0.2,0,0.4,0.1,0.5,0.2
		c0.2,0.1,0.2,0.3,0.2,0.5v14.5c0,0.2-0.1,0.4-0.2,0.5c-0.1,0.1-0.3,0.2-0.5,0.2C108.8,16.5,108.6,16.4,108.5,16.3z M115,15.9
		c-0.4-0.4-0.6-0.9-0.6-1.5V6.7h-1.1c-0.2,0-0.5,0-0.6-0.2c-0.1-0.1-0.1-0.3-0.1-0.5c0-0.1,0-0.3,0-0.4c0.1-0.3,0.4-0.4,0.7-0.4h1.1
		V1.4c0-0.2,0.1-0.4,0.2-0.5c0.1-0.2,0.3-0.2,0.5-0.2c0.2,0,0.4,0.1,0.5,0.2c0.1,0.1,0.3,0.3,0.3,0.5v3.8h1.2c0.2,0,0.4,0.1,0.5,0.2
		c0.1,0.1,0.2,0.3,0.2,0.5c0,0.2-0.1,0.4-0.2,0.5c-0.1,0.1-0.3,0.2-0.5,0.2h-1.2v7.7c0,0.2,0.1,0.3,0.2,0.4c0.2,0.1,0.3,0.2,0.3,0.2
		c0.2,0,0.4,0.1,0.6,0.2c0.2,0.2,0.3,0.3,0.3,0.5c0,0.2-0.1,0.4-0.3,0.5c-0.1,0.1-0.3,0.2-0.5,0.2C115.9,16.5,115.4,16.3,115,15.9z
		 M122.5,15.7V1.3c0-0.2,0.1-0.4,0.2-0.5c0.1-0.1,0.3-0.2,0.5-0.2s0.4,0.1,0.5,0.2c0.2,0.1,0.2,0.3,0.2,0.5v5.2l0.3-0.3
		c0.8-0.6,1.7-0.9,2.8-0.9c1.4,0,2.5,0.4,3.5,1.3c0.9,0.9,1.4,1.9,1.4,3.2v6.1c0,0.2-0.1,0.4-0.2,0.5c-0.2,0.1-0.3,0.2-0.5,0.2
		c-0.2,0-0.4-0.1-0.5-0.2c-0.1-0.1-0.2-0.3-0.2-0.5V9.7c0-0.9-0.3-1.6-0.9-2.1s-1.4-0.8-2.3-0.8c-0.9,0-1.7,0.3-2.3,0.8
		c-0.6,0.6-0.9,1.3-0.9,2.1v6.1c0,0.1-0.1,0.2-0.1,0.3c0,0.1-0.1,0.2-0.2,0.2l-0.2,0.1l-0.1,0h-0.1
		C122.8,16.5,122.5,16.2,122.5,15.7z M101.3,13.8c0.8-0.8,1.1-1.8,1.1-2.9c0-1.2-0.4-2.1-1.1-2.9s-1.7-1.2-2.7-1.2
		c-1.1,0-1.9,0.4-2.7,1.2c-0.8,0.8-1.1,1.8-1.1,2.9c0,1.2,0.4,2.1,1.1,2.9c0.8,0.8,1.7,1.2,2.7,1.2C99.6,15,100.5,14.6,101.3,13.8z
		 M89.4,9.8l-0.1-0.4c-0.2-0.7-0.6-1.2-1.2-1.7c-0.7-0.6-1.6-0.9-2.5-0.9c-1,0-1.8,0.3-2.5,0.9c-0.5,0.5-0.9,1-1.2,1.7l-0.1,0.4
		H89.4z"/>
	<linearGradient id="SVGID_1_" gradientUnits="userSpaceOnUse" x1="4.5654" y1="-6.884766e-002" x2="24.4453" y2="19.8377">
		<stop  offset="0" style="stop-color:#0894E6"/>
		<stop  offset="1" style="stop-color:#7DCFC4"/>
	</linearGradient>
	<path fill-rule="evenodd" clip-rule="evenodd" fill="url(#SVGID_1_)" d="M12,17.9c-0.1-0.1-2.4-1.5-4.8-3.6
		c-0.3-0.2-0.3-0.7-0.1-0.9c0.3-0.3,0.7-0.3,1-0.1c1.8,1.5,3.6,2.7,4.3,3.2c2.5-1.6,8-5.8,8.7-8.9c0.2-0.5,0.3-1,0.3-1.5
		c0-1.7-0.9-3.3-2.5-4.2c-1.9-1.1-4.5-0.6-6,1.1c-0.3,0.3-0.8,0.3-1,0c-1.4-1.7-4-2.2-6-1.1C4.3,2.8,3.4,4.4,3.4,6.1
		c0,0.5,0.1,1,0.2,1.5C3.7,8,3.9,8.5,4.2,8.9h4l1.4-3.1c0.1-0.3,0.4-0.4,0.7-0.4c0.3,0,0.5,0.2,0.6,0.5l1,4.2L13,8
		c0.1-0.2,0.3-0.3,0.6-0.3h2.5c0.4,0,0.7,0.3,0.7,0.7c0,0.4-0.3,0.7-0.7,0.7H14l-1.9,3.2c-0.1,0.2-0.3,0.3-0.6,0.3c0,0-0.1,0-0.1,0
		c-0.3,0-0.5-0.2-0.6-0.5L9.9,8.2L9.2,9.9c-0.1,0.3-0.3,0.4-0.6,0.4H0.7C0.3,10.3,0,10,0,9.6c0-0.4,0.3-0.7,0.7-0.7h2
		c-0.1-0.3-0.3-0.7-0.3-1C2.1,7.4,2,6.8,2,6.1c0-2.2,1.2-4.3,3.2-5.4c2.3-1.3,5.3-0.9,7.2,0.9c1.9-1.8,4.9-2.2,7.2-0.9
		c1.9,1.1,3.2,3.1,3.2,5.4c0,0.7-0.1,1.3-0.3,1.9c-1,4.4-9.3,9.7-9.7,9.9C12.6,18,12.5,18,12.4,18C12.2,18,12.1,18,12,17.9z"/>
</g>
</svg>
