<svg xmlns="http://www.w3.org/2000/svg" width="128" height="128.4"><path fill-rule="evenodd" clip-rule="evenodd" fill="#F7FAFF" d="M11.3 28.1c20-29.1 59.9-36.5 89-16.4 29.1 20 36.5 59.9 16.4 89-20 29.1-59.9 36.4-89 16.4C-1.4 97-8.7 57.2 11.3 28.1z"/><path fill-rule="evenodd" clip-rule="evenodd" fill="#3D40B2" d="M27.7 117.1c-2-1.4-3.9-2.8-5.7-4.4 4.5-15.5 13.5-28.5 32.8-35.9l33.5.6c14.4 4.7 22.7 13.3 27.8 24.1-20.2 28.4-59.6 35.4-88.4 15.6z"/><path fill-rule="evenodd" clip-rule="evenodd" fill="#CC7342" d="M63.9 77.5l-1-15 21.8-1.6-1.6 18.6z"/><path fill-rule="evenodd" clip-rule="evenodd" fill="#BF5933" d="M81.9 79.3l-6.6-.7-.6-6.1L63 65.2l-.1-2.7 21.8-1.6-1.6 17.8z"/><path fill-rule="evenodd" clip-rule="evenodd" fill="#D4E3FC" d="M85.9 70.1l-14.8 5.6 2.1 9.5c6.2-.2 12.4-2.6 18.5-8.1l-5.8-7z"/><path fill-rule="evenodd" clip-rule="evenodd" fill="#FFF" d="M78.1 86.5l-5-11.4-15.4-5.6-6.2 10.2z"/><path clip-rule="evenodd" fill="none" d="M42.7 109.7c-1.4 4.6-2.4 9.3-3 13.9"/><path fill-rule="evenodd" clip-rule="evenodd" fill="#5E59B2" d="M38.8 123.2l.1-.6.3-1.5.3-1.5.3-1.5.4-1.5.4-1.5.4-1.4.5-1.4.5-1.4.3-.7.5-.7v.8l-.1.8-.3 1.5-.3 1.5-.3 1.5-.3 1.5-.2 1.5-.3 1.4-.2 1.4-.2 1.4-.1 1.1c-.5-.2-1.1-.4-1.7-.7z"/><path fill-rule="evenodd" clip-rule="evenodd" fill="#CC7342" d="M74 121c-6-6.9-7.2-13.1-2.5-18.3 1.7-7.4 3-8.4 4.1-7.4-1.6 4.4-1.6 8.9 1.2 13.7 1.1 2 1.9 2.9 1.4-.2l-.7-4.3c.4-6.6 8.1 5.2 7.3 20.4-3.5 1.2.8-4.8-2.8-4.2.1-2.1-7.7 2.6-8 .3z"/><path fill-rule="evenodd" clip-rule="evenodd" fill="#FFF" d="M79.4 121.1l-3-31.4-24.9 3.8 4.3 31.3z"/><g fill-rule="evenodd" clip-rule="evenodd" fill="#2B1929"><path d="M88.9 21.6c4.5 0 8.1-3.7 8.1-8.2 0-4.5-3.7-8.1-8.1-8.1-4.5 0-8.2 3.7-8.2 8.1 0 4.5 3.7 8.2 8.2 8.2z"/><path d="M80.9 18c4.5 0 8.1-3.7 8.1-8.1 0-4.5-3.7-8.1-8.1-8.1-4.5 0-8.1 3.7-8.1 8.1-.1 4.4 3.6 8.1 8.1 8.1z"/><path d="M68.6 16.7c4.5 0 8.1-3.7 8.1-8.1 0-4.5-3.7-8.1-8.1-8.1-4.5 0-8.2 3.7-8.2 8.1.1 4.5 3.7 8.1 8.2 8.1z"/><path d="M57.7 20.7c4.5 0 8.1-3.7 8.1-8.1 0-4.5-3.7-8.2-8.1-8.2-4.5 0-8.2 3.7-8.2 8.2 0 4.5 3.7 8.1 8.2 8.1z"/><path d="M51.4 29.8c4.5 0 8.1-3.7 8.1-8.1 0-4.5-3.7-8.1-8.1-8.1-4.5 0-8.2 3.7-8.2 8.1 0 4.4 3.7 8.1 8.2 8.1zm44.4.2c4.5 0 8.1-3.7 8.1-8.1 0-4.5-3.7-8.1-8.1-8.1-4.5 0-8.2 3.7-8.2 8.1.1 4.5 3.7 8.1 8.2 8.1z"/><path d="M96.2 41.4c4.5 0 8.2-3.7 8.2-8.1 0-4.5-3.7-8.1-8.2-8.1-4.5 0-8.1 3.7-8.1 8.1 0 4.4 3.6 8.1 8.1 8.1z"/><path d="M90.3 55.1c4.5 0 8.2-3.7 8.2-8.1 0-4.5-3.7-8.2-8.2-8.2-4.5 0-8.1 3.7-8.1 8.2 0 4.4 3.7 8.1 8.1 8.1zm-39.6-15c4.5 0 8.1-3.7 8.1-8.1 0-4.5-3.7-8.2-8.1-8.2-4.5 0-8.2 3.7-8.2 8.2.1 4.5 3.7 8.1 8.2 8.1zm5.9 16c4.5 0 8.1-3.7 8.1-8.1 0-4.5-3.7-8.1-8.1-8.1-4.5 0-8.2 3.7-8.2 8.1.1 4.5 3.7 8.1 8.2 8.1z"/><path d="M95.1 49.2c4.5 0 8.1-3.7 8.1-8.1 0-4.5-3.7-8.1-8.1-8.1-4.5 0-8.2 3.7-8.2 8.1 0 4.4 3.7 8.1 8.2 8.1zm-43.2-.6c4.5 0 8.1-3.7 8.1-8.1 0-4.5-3.7-8.1-8.1-8.1-4.5 0-8.1 3.7-8.1 8.1 0 4.4 3.6 8.1 8.1 8.1z"/></g><path fill-rule="evenodd" clip-rule="evenodd" fill="#CC7342" d="M73.7 14.5c-32.1 0-20.6 38.8-18.5 41.9 2.3 3.4 13.3 12.4 18.5 12.4 5.2 0 16.1-9 18.5-12.4 2.1-3.1 13.7-41.9-18.5-41.9z"/><g fill-rule="evenodd" clip-rule="evenodd" fill="#2B1929"><path d="M70.9 23.7c4.5 0 8.2-3.7 8.2-8.1 0-4.5-3.7-8.1-8.2-8.1-4.5 0-8.1 3.7-8.1 8.1 0 4.4 3.7 8.1 8.1 8.1z"/><path d="M82.1 23.3c4.5 0 8.2-3.7 8.2-8.1 0-4.5-3.7-8.1-8.2-8.1-4.5 0-8.1 3.7-8.1 8.1 0 4.4 3.6 8.1 8.1 8.1zm-19.4 2.9c4.5 0 8.1-3.7 8.1-8.2 0-4.5-3.7-8.1-8.1-8.1-4.5 0-8.1 3.7-8.1 8.1 0 4.6 3.7 8.2 8.1 8.2z"/><path d="M56.7 29c3.8 0 6.9-3.1 6.9-6.9s-3.1-6.9-6.9-6.9c-3.8 0-6.9 3.1-6.9 6.9s3.1 6.9 6.9 6.9zm32-.7c4.5 0 8.1-3.7 8.1-8.1 0-4.5-3.7-8.1-8.1-8.1-4.5 0-8.1 3.7-8.1 8.1-.1 4.5 3.6 8.1 8.1 8.1z"/><path d="M95.3 33.9c3.2 0 5.7-2.6 5.7-5.8 0-3.2-2.6-5.7-5.7-5.7-3.2 0-5.7 2.6-5.7 5.7-.1 3.2 2.5 5.8 5.7 5.8zM53 35c3.1 0 5.6-2.5 5.6-5.6 0-3.1-2.5-5.6-5.6-5.6-3.1 0-5.6 2.5-5.6 5.6 0 3.1 2.5 5.6 5.6 5.6z"/><path d="M51.8 38.8c2 0 3.6-1.6 3.6-3.6s-1.6-3.6-3.6-3.6c-1.9 0-3.5 1.6-3.5 3.6 0 1.9 1.6 3.6 3.5 3.6zm44.5.4c2 0 3.6-1.6 3.6-3.5 0-2-1.6-3.6-3.6-3.6-1.9 0-3.6 1.6-3.6 3.6 0 1.9 1.6 3.5 3.6 3.5z"/><path d="M52.2 41.9c1.4 0 2.5-1.1 2.5-2.5s-1.1-2.5-2.5-2.5-2.5 1.1-2.5 2.5 1.2 2.5 2.5 2.5zm43.7-.2c1.4 0 2.5-1.1 2.5-2.5s-1.1-2.5-2.5-2.5-2.5 1.1-2.5 2.5 1.1 2.5 2.5 2.5z"/></g><path fill-rule="evenodd" clip-rule="evenodd" fill="#CC7342" d="M78.9 124.3c-6.8-6.5-8.9-10.8-10-16.9-.1-2.1.9-5.3 2.9-5.5 7.1.4 10.6 5.6 11.3 14.7 2.1 2.6 4.3 4.7 6.5 6.5-2 .9-4.1 1.7-6.2 2.3-1.3-.4-2.7-.8-4.5-1.1z"/><path fill-rule="evenodd" clip-rule="evenodd" fill="#3D40B2" d="M75.6 127.3l9.2-12.9 8.8 6.8h-.1c-2.8 1.5-5.6 2.7-8.6 3.7 2-.7 2-.7-.5.2-1.2.4-5 1.5-8.8 2.2zm19.1-24.8l20.2-3.7c.4.9.8 1.9 1.1 2.8-.1.1-.1.2-.2.3-1.3 1.9-2.7 3.6-4.3 5.3.1 0-.2.2-.4.5-1.6 1.7-3.3 3.4-5 4.9l-.1.1c-1.8 1.5-3.6 3-5.5 4.3.1 0-.2.2-.5.3-1.8 1.2-3.6 2.4-5.5 3.4.3-.1 0 0-.3.2-4.1-6.1-.1-12.3.5-18.4z"/><path clip-rule="evenodd" fill="none" d="M78.1 123.7c.9.8 1.7 1.6 2.6 2.4"/><path fill-rule="evenodd" clip-rule="evenodd" fill="#141C6B" d="M79.9 126.3l-.5-.5-.7-.9-.3-.5-.1-.3-.1-.4h.4l.3.1.5.3 1 .7 1.3 1c-.6.2-1.2.4-1.8.5z"/><path clip-rule="evenodd" fill="none" d="M84.8 114.3c4.2 1.6 8.3 3.3 12 5"/><path fill-rule="evenodd" clip-rule="evenodd" fill="#5E59B2" d="M95.7 119.9l-1.6-.7-1.5-.7-1.6-.7-1.6-.7-1.6-.8-1.6-.8-.8-.5-.4-.3-.3-.4.5-.1.5.1.9.2 1.7.5 1.7.5 1.7.6 1.6.6 1.6.6 1.5.7 1.3.6c-.6.5-1.3.9-2 1.3z"/><path fill-rule="evenodd" clip-rule="evenodd" fill="#BF5933" d="M73.3 61c-1.1 0-1.7-.8-1.7-.4s.3 1.1 1.7 1.1S75 61 75 60.6c0-.4-.7.4-1.7.4z"/><path clip-rule="evenodd" fill="none" stroke="#BF5933" stroke-width="1.12" stroke-linecap="round" stroke-linejoin="round" stroke-miterlimit="10" d="M68.5 55.1c3.8 1.4 7.6 1.3 11.3-.1"/><path clip-rule="evenodd" fill="none" stroke="#2B1929" stroke-width="1.12" stroke-linecap="round" stroke-linejoin="round" stroke-miterlimit="10" d="M79.3 36.6c2.3-.4 4.4-.1 6.3 1.1"/><path fill-rule="evenodd" clip-rule="evenodd" fill="#2B1929" d="M80.4 41.5c.7-1 1.8-1 2.5.2.7 1.1.6 2.9-.1 4-.7 1-1.8 1-2.5-.2-.7-1.1-.6-2.9.1-4z"/><path clip-rule="evenodd" fill="none" stroke="#2B1929" stroke-width="1.12" stroke-linecap="round" stroke-linejoin="round" stroke-miterlimit="10" d="M69.7 36.6c-2.3-.4-4.4-.1-6.3 1.1"/><path fill-rule="evenodd" clip-rule="evenodd" fill="#2B1929" d="M68.6 41.5c-.7-1-1.8-1-2.5.2-.7 1.1-.6 2.9.1 4 .7 1 1.8 1 2.5-.2.7-1.1.6-2.9-.1-4z"/><path fill-rule="evenodd" clip-rule="evenodd" fill="#FFF" d="M43.2 36.6c2.8 0 5.1-2.3 5.1-5.1s-2.3-5.1-5.1-5.1-5.1 2.3-5.1 5.1 2.3 5.1 5.1 5.1z"/><path fill="#D1D6DB" d="M43.2 36.6c1.8-.4 3.5-1.6 4.1-3.4.1-.4.2-.9.3-1.3V31c0-.2-.1-.4-.1-.6 0-.2-.1-.3-.2-.5-.1-.3-.4-.7-.6-1-.6-.8-1.5-1.4-2.5-1.5-.3-.1-.6-.1-.9-.1h.1-.4c-.4 0-.9.1-1.3.3-1.6.6-2.6 2.2-2.7 3.9-.1 2.1 1.2 3.9 3.1 4.7.3.1.5.2.8.3 0 0 .2.1.3.1-.1 0-.2.1-.3.1-.2 0-.5.1-.8 0-.7-.1-1.4-.2-2-.6-.1-.1-.2-.1-.3-.2-.4-.3-1.1-.9-1.3-1.3-.1-.1-.1-.2-.2-.3-.7-1.1-1-2.5-.8-3.8.4-2.7 2.7-4.7 5.4-4.9.4 0 .9 0 1.3.1.1 0 .3 0 .4.1.6.1 1.1.3 1.6.6l.9.6c.9.8 1.6 1.9 1.9 3.1.1.3.1.5.1.8.1.5 0 1.1-.1 1.6 0 .3-.2.7-.3.9-.1.1-.1.3-.2.4-.2.5-.5.9-.9 1.3-1.2 1.2-2.8 1.9-4.4 1.5z"/><path fill-rule="evenodd" clip-rule="evenodd" fill="#FFF" d="M40 41.4c0 1.3 1.1 2.3 2.3 2.3 1.3 0 2.3-1 2.3-2.3 0-1.3-1-2.3-2.3-2.3-1.3-.1-2.3 1-2.3 2.3z"/><path fill="#D1D6DB" d="M40 41.4c.4.7.8 1.3 1.7 1.5.3.1.4.1.7 0h-.1c.1 0 .2 0 .3-.1.4-.1.9-.6 1-1 .1-.2.1-.4.1-.6v.1c0-.2 0-.5-.1-.6 0-.1-.1-.2-.1-.2-.3-.4-.6-.6-1-.7h-.2.1-.4c-.8.1-1.3.5-1.7 1.1-.1.1-.2.3-.3.5 0-.1-.1-.2-.1-.3-.1-.2-.1-.4 0-.7 0-.2.1-.5.2-.7.5-.9 1.3-1.4 2.4-1.4 1.3 0 2.6 1 2.9 2.2.1.3.1.6.1.9 0 .2 0 .4-.1.6-.2 1.1-1.1 2-2.2 2.3-.4.1-.7.1-1 .1-.1 0-.3 0-.5-.1-1.1-.3-2.1-1.4-1.9-2.6.1-.1.1-.2.2-.3z"/><path fill-rule="evenodd" clip-rule="evenodd" fill="#FFF" d="M47.5 25.1L47 25l-.1.5c-1 3.6-4.3 6.2-8 6.2-2.7 0-5.3-1.3-6.8-3.6l-.3-.5-.5.3c-2 1.1-4.2 1.7-6.4 1.7C17.7 29.7 12 24 12 17S17.7 4.3 24.7 4.3c1.3 0 2.6.2 3.8.6l.4.1.3-.4C31 2.2 33.7.9 36.7.9c4.5 0 8.3 3.2 9.2 7.5l.1.6.6-.1c.5-.1 1.1-.2 1.7-.2 4.5 0 8.2 3.7 8.2 8.2 0 4.5-3.7 8.2-8.2 8.2h-.8z"/><path fill="#D1D6DB" d="M47.5 25.1H47c-.1.3-.1.6-.2.9-.2.8-.5 1.6-.9 2.3-1.6 2.5-4.1 3.9-7.1 4-.5 0-1.1 0-1.6-.1-1.4-.2-2.8-.8-3.9-1.7-.2-.2-.4-.3-.6-.5-.6-.5-1.1-1.2-1.6-1.9.3.1.5.1.8.2-1.9 1.3-3.9 1.9-6.2 2.2-.6.1-1.4.1-2 0-.4 0-.8-.1-1.2-.1-.5-.1-1.1-.2-1.6-.3-2.5-.7-4.9-2.2-6.5-4.1-1.2-1.4-2-2.8-2.6-4.6-.5-1.3-.7-2.9-.7-4.3 0-1.9.4-3.8 1.2-5.5.7-1.5 1.6-2.8 2.8-4 .3-.3.6-.5.9-.8.3-.3.6-.5.9-.7 1.3-.9 2.9-1.7 4.5-2.1.4-.1.8-.2 1.2-.2 1.6-.3 3.7-.2 5.3.2.5.1.9.3 1.4.4-.3.1-.6.2-1 .3.3-.4.7-.9 1-1.3.4-.4.7-.7 1.1-1 .2-.4.6-.7.9-.8.3-.2.6-.4.9-.5.8-.5 1.8-.8 2.8-1 .8-.1 1.7-.1 2.6-.1 3.1.3 5.8 1.9 7.5 4.5.4.6.8 1.3 1 2 .1.3.2.5.3.8l.3 1.5-.9-.6c.7-.1 1.3-.2 2-.3 1.1-.1 2.2.1 3.3.5.2.1.5.2.7.3.5.3 1.1.5 1.5.9.2.1.4.3.5.4 1.5 1.3 2.6 3.1 2.9 5.1.3 2 0 3.9-1 5.7-.3.5-.6 1-1 1.4-.4.4-.8.8-1.2 1.1-.8.6-1.6 1.1-2.6 1.3-1 .3-1.8.4-2.8.3-.1.2-.3.2-.6.2h.8c.8-.1 1.6-.2 2.4-.5 2-.8 3.8-2.3 4.7-4.3.3-.6.4-1.2.5-1.8.1-.2.1-.5.1-.7v-.9c-.1-.7-.1-1.3-.3-1.9-.1-.5-.3-.9-.5-1.4-.6-1.2-1.5-2.3-2.7-3-.5-.3-1-.5-1.5-.8-.6-.2-1.3-.4-1.9-.4h-.8c-.3 0-.5 0-.8.1-.3 0-.5.1-.8.1-.5.1-.9.2-1.3.3-.1-.5-.2-.9-.3-1.3l-.3-1.2c-.8-2-2.1-3.6-3.9-4.6-.5-.3-1-.5-1.6-.7-.6-.2-1.3-.3-1.9-.4h-.8.1-.5c-.5 0-1.1.1-1.6.3-.3 0-.6.1-.8.2-1.6.6-2.8 1.6-3.9 2.9-.2.3-.4.6-.7.9-.3-.1-.7-.2-1-.3-.6-.2-1.2-.3-1.8-.4-.6-.1-1.2-.1-1.8-.1h-1.1c-.3 0-.7.1-1 .1-.8.1-1.8.4-2.6.8-.7.3-1.3.6-1.9 1-1.7 1.1-3 2.7-3.9 4.4-.3.6-.6 1.3-.8 2-.1.3-.2.7-.3 1-.2.8-.2 1.5-.2 2.4v-.1c0 .4 0 .9.1 1.3.1.6.1 1.2.3 1.7.1.3.2.6.3.8.1.4.3.7.4 1.1.8 1.8 2.1 3.4 3.7 4.6.7.6 1.6 1 2.4 1.4.4.2.8.3 1.2.5.8.2 1.5.4 2.3.5.4.1.8.1 1.3.1 2.2 0 4.2-.5 6.1-1.6.3-.2.7-.4 1-.6.2.3.4.6.7 1 .9 1.4 2.4 2.6 4 3.1.3.1.5.1.8.2.5.1 1.1.2 1.5.2 1.6 0 3.2-.4 4.6-1.3.2-.1.3-.2.5-.3l.3-.3c.1-.1.3-.2.4-.4.3-.3.7-.8 1-1.2.4-.5.7-1 .9-1.6.1-.2.2-.5.3-.7.1-.2.1-.4.2-.5 0 .2.2.2.4.3z"/><path fill-rule="evenodd" clip-rule="evenodd" fill="#FFF" d="M47.6 47.2c.9 0 1.5-.7 1.5-1.5 0-.9-.7-1.5-1.5-1.5-.9 0-1.5.7-1.5 1.5 0 .9.7 1.5 1.5 1.5z"/><path fill="#D1D6DB" d="M47.6 47.2c.2-.2.5-.4.7-.7 0-.1.1-.2.1-.3v-.6.1c-.1-.4-.2-.5-.6-.7h-.2.1-.3c-.1 0-.1 0-.2.1-.2.1-.4.3-.4.6v-.1.3c0 .4.3.8.5 1 .1.2.2.3.3.3-.1 0-.1.1-.2.1-.1.1-.2.1-.4.1-.3 0-.5-.1-.7-.2-.7-.3-1.1-1.2-1-2 .1-.9.7-1.7 1.5-1.9.3-.1.4-.1.7-.1.1 0 .5 0 .6.1.3.1.4.1.7.3.8.5 1.3 1.6.9 2.5-.1.2-.2.4-.3.5-.3.7-1.1 1.1-1.8.6z"/><path fill-rule="evenodd" clip-rule="evenodd" fill="#FFF" d="M47.6 42.9c1.5 0 2.8 1.3 2.8 2.8 0 1.5-1.3 2.8-2.8 2.8-1.6 0-2.8-1.3-2.8-2.8 0-1.5 1.3-2.8 2.8-2.8z"/><path fill="#D1D6DB" d="M47.6 42.9c.2-.1.3-.1.5-.1.3 0 .6 0 .9.1.1 0 .3.1.5.2.6.3 1.1.8 1.4 1.4 0 .1.1.1.1.2.1.2.2.6.3.9v.6c0 .9-.5 2-1.3 2.5-.3.2-.6.4-.9.5-.5.2-.9.3-1.4.3-1.3 0-2.4-.7-3.1-1.8-.1-.2-.3-.6-.4-.9-.1-.4-.1-.7-.1-1 .1-1 .7-2.1 1.6-2.6.3-.2.6-.3 1-.3h.7c0-.1.1 0 .2 0-.2.1-.5.2-.7.3-.9.5-1.5 1.5-1.4 2.5v-.1c0 .1 0 .3.1.4 0 .1.1.3.2.4.4.7 1.1 1.1 1.9 1.2h-.1c.8 0 1.5-.4 1.9-1.1.1-.3.2-.5.2-.8v-.6c-.1-.7-.5-1.2-1.1-1.6-.3-.3-.7-.5-1-.6zM27.9 15.3l.2-.3.2-.1.4-.1.7-.2 1.5-.3 3.1-.4 6.1-.3 6.1.2 3 .2 1.5.3.8.2.4.1.2.1.2.3-.2.3-.2.1-.4.1-.7.3-1.6.2-3 .4-6.1.2-6.1-.1-3-.3-1.6-.2-.7-.2-.4-.1-.2-.1zm-.5 6.3l.1-.3.1-.1.3-.2.4-.2.9-.3 1.7-.3 3.6-.2 3.6.1 1.7.3.9.3.5.2.2.1.1.1.1.3-.1.3-.1.1-.2.1-.5.2-.9.3-1.7.3-3.6.3-3.5-.2-1.8-.3-.9-.2-.4-.2-.3-.2-.1-.1z"/><path fill="#96D4BD" d="M17.1 17.1h.3l.1.1.3.1.4.4.3.4.3.4.1.1.1.1.1.1h.2-.2.3l.2-.1.2-.1.2-.1.2-.1.2-.1.2-.1.2-.1.2-.2.2-.2.2-.2.2-.2.2-.2.2-.3V16l.4-.6.4-.7.9-1.3.5-.6.6-.6.3-.3.3-.2.4-.2.2-.1.4.1s0 .1.1.1l.1.2c0 .1 0 .4-.1.5-.1.7-.4 1.3-.6 1.9-.1.4-.3.8-.5 1.2-1 2.4-2.7 5.3-5.5 5.6-.5.1-.9 0-1.4-.1-.1 0-.1-.1-.2-.1-.9-.3-1.3-1.3-1.4-2.1 0-.4-.1-1.1 0-1.4l.2-.2z"/></svg>