<svg xmlns="http://www.w3.org/2000/svg" width="80" height="80"><path fill-rule="evenodd" clip-rule="evenodd" fill="#D9E3F5" d="M40 0C17.907 0 0 17.92 0 40c0 22.094 17.907 40 40 40 22.079 0 40-17.894 40-40C80 17.92 62.079 0 40 0zm0 72.507C22.04 72.507 7.494 57.96 7.494 40 7.494 22.053 22.04 7.506 40 7.506c17.946 0 32.493 14.547 32.493 32.494 0 17.96-14.547 32.507-32.493 32.507zm0-54.96c-2.867 0-5.04 1.493-5.04 3.906V43.6c0 2.426 2.173 3.919 5.04 3.919 2.8 0 5.026-1.56 5.026-3.919V21.453c0-2.36-2.226-3.906-5.026-3.906zm0 34.96c-2.76 0-5 2.239-5 4.986 0 2.761 2.24 5 5 5 2.746 0 4.987-2.239 4.987-5A4.996 4.996 0 0 0 40 52.507z"/></svg>