<?xml version="1.0" encoding="utf-8"?>
<!-- Generator: Adobe Illustrator 13.0.0, SVG Export Plug-In . SVG Version: 6.00 Build 14948)  -->
<!DOCTYPE svg PUBLIC "-//W3C//DTD SVG 1.1//EN" "http://www.w3.org/Graphics/SVG/1.1/DTD/svg11.dtd">
<svg version="1.1" id="Layer_1" xmlns="http://www.w3.org/2000/svg" xmlns:xlink="http://www.w3.org/1999/xlink" x="0px" y="0px"
	 width="380px" height="200px" viewBox="0 0 380 200" enable-background="new 0 0 380 200" xml:space="preserve">
<rect fill-rule="evenodd" clip-rule="evenodd" fill="none" width="380" height="200"/>
<g>
	<path fill="#E8EDF5" d="M108.893,107.054c12.761,44.853,61.134,47.572,61.134,47.572c30.333,0.975,53.293,1.16,76.626-14.532
		c7.706-5.188,14.906-11.72,19.373-20.067c4.027-7.546,5.587-16.146,5.907-24.52c0.253-6.479-0.227-13.106-2.867-18.72
		c-2.453-5.187-6.601-9.187-10.96-12.68c-10.506-8.4-22.707-14.427-35.414-18.894c-15-5.267-31.025-8.454-47.252-6.854
		c-16.24,1.587-32.747,8.267-44.934,20.507C118.32,71.107,104.293,90.934,108.893,107.054z"/>
	<path fill="#121769" d="M203.079,47.027c-29.466,1.813-76.226-2.134-76.226-2.134C122.36,84.24,147.8,164.8,150.08,165.547
		c1.827,0.601,49.841-11.974,71.08-17.733C208.173,116.88,201.066,80.88,203.079,47.027z"/>
	<path fill="#3B3DB0" d="M211.934,54.4c-29.4,2.72-76.254,0.213-76.254,0.213c-3.293,39.453,24.614,119.2,26.907,119.88
		c1.84,0.533,49.44-13.493,70.493-19.906C219.16,124.066,210.96,88.307,211.934,54.4z"/>
	<path fill="#FFFFFF" d="M159.4,131.013c0,0,3.68,21.094,9.48,31.494l31.959-9.374c0,0-6.267-17.586-9.773-29.12L159.4,131.013z"/>
	<path fill="#FFFFFF" d="M146.36,64.613c0,0,1.214,19.24,3.653,27.6l26.493-2.147c0,0-2.546-17.186-2.773-25.439L146.36,64.613z"/>
	<path fill="#FFFFFF" d="M180.787,78.693c0,0-0.453,3.827,0.893,10.96l26.493-2.134c0,0-0.934-1.973-1.493-10.893L180.787,78.693z"
		/>
	<path fill="#FFFFFF" d="M199.32,114.147c-0.12,0.025-6.854-2.227-9.8-7.28l-0.16-0.28c-0.68-1.174-1.72-2.934-1.613-5.16
		c0.08-1.653,1.773-3.427,3.507-3.694c0.026-0.013,0.039-0.013,0.066-0.013c1.894-0.24,3.919,1.333,5.227,3.066
		c0.173-0.866,0.493-1.626,0.946-2.266c1.147-1.653,3.199-2.44,4.894-1.893c1.653,0.546,3.094,2.186,3.214,4.479
		C205.96,108,199.413,114.133,199.32,114.147z"/>
	<path fill="#B2B2B8" d="M179.107,134.68l-2.467,0.667c-0.387,0.106-0.787-0.133-0.907-0.533c-0.093-0.414,0.121-0.826,0.507-0.934
		l2.466-0.666c0.387-0.107,0.787,0.133,0.894,0.547C179.707,134.16,179.494,134.573,179.107,134.68z"/>
	<path fill="#B2B2B8" d="M182.586,152.359c-0.373,0.106-0.786-0.133-0.893-0.546l-5.093-18.707c-0.106-0.414,0.12-0.826,0.493-0.934
		c0.387-0.106,0.787,0.147,0.894,0.547l5.106,18.721C183.2,151.84,182.973,152.254,182.586,152.359z"/>
	<path fill="#B2B2B8" d="M178.893,138.773c-0.373,0.094-0.773-0.133-0.88-0.534c-0.133-0.399,0.08-0.813,0.467-0.932
		c3-0.921,5.84-2.268,6.16-2.908c-0.013-0.079-0.054-0.133-0.134-0.173c-0.399-0.253-1.36-0.147-1.879,0
		c0,0.013-0.014,0.013-0.014,0.013c-0.373,0.094-0.773-0.133-0.893-0.532c-0.12-0.414,0.093-0.827,0.479-0.946
		c0.2-0.054,1.934-0.521,3.041,0.173c0.426,0.28,0.72,0.707,0.826,1.239c0.24,1.12-0.84,2.107-3.626,3.293
		c-1.72,0.734-3.453,1.28-3.52,1.295C178.907,138.761,178.907,138.773,178.893,138.773z"/>
	<path fill="#B2B2B8" d="M179.707,141.773c-0.36,0.106-0.76-0.12-0.88-0.52c-0.12-0.401,0.08-0.827,0.467-0.934
		c0.013-0.013,1.933-0.613,3.813-1.453c3.213-1.44,3.28-2.241,3.28-2.254c-0.014-0.133-0.066-0.173-0.107-0.2
		c-0.307-0.213-1.173-0.146-1.68,0c-0.014,0-0.014,0-0.026,0c-0.374,0.106-0.787-0.133-0.894-0.546
		c-0.12-0.401,0.107-0.813,0.494-0.921c0.293-0.094,1.907-0.493,2.907,0.227c0.414,0.308,0.667,0.761,0.733,1.308
		c0.134,1.28-1.133,2.453-4.12,3.8c-1.947,0.867-3.88,1.466-3.96,1.493C179.72,141.773,179.72,141.773,179.707,141.773z"/>
	<path fill="#B2B2B8" d="M180.547,144.84c-0.374,0.106-0.76-0.12-0.893-0.52c-0.121-0.399,0.093-0.827,0.466-0.934
		c0.027-0.013,2.014-0.626,3.947-1.507c3.414-1.521,3.414-2.346,3.414-2.36c-0.013-0.146-0.054-0.187-0.107-0.227
		c-0.333-0.239-1.253-0.16-1.773-0.013c-0.014,0-0.014,0-0.026,0c-0.374,0.106-0.773-0.133-0.894-0.534
		c-0.106-0.399,0.121-0.825,0.494-0.933c0.32-0.08,1.973-0.506,2.987,0.24c0.426,0.306,0.693,0.773,0.76,1.346
		c0.133,1.308-1.173,2.507-4.266,3.894c-2,0.894-4,1.521-4.094,1.547H180.547z"/>
	<path fill="#B2B2B8" d="M181.414,148.04c-0.374,0.107-0.76-0.134-0.894-0.521c-0.106-0.399,0.093-0.827,0.467-0.946
		c0.026,0,2.253-0.693,4.413-1.667c3.907-1.746,3.854-2.706,3.84-2.72c-0.014-0.199-0.08-0.253-0.121-0.28
		c-0.387-0.266-1.426-0.093-2,0.106c-0.373,0.135-0.786-0.092-0.933-0.493c-0.134-0.387,0.066-0.813,0.44-0.946
		c0.346-0.12,2.133-0.693,3.253,0.067c0.453,0.319,0.733,0.813,0.799,1.426c0.16,1.387-1.333,2.747-4.693,4.241
		c-2.227,1.013-4.454,1.692-4.547,1.719C181.426,148.04,181.414,148.04,181.414,148.04z"/>
	<path fill="#B2B2B8" d="M187.92,148.626c-3.333,0.908-6.547-0.053-6.693-0.092c-0.387-0.121-0.613-0.547-0.52-0.947
		c0.106-0.4,0.493-0.627,0.88-0.508c0.041,0.015,3.987,1.175,7.333-0.438c1.467-0.707,1.88-1.454,1.772-1.921
		c-0.105-0.412-0.613-0.746-1.146-0.732c-0.387,0-0.734-0.334-0.747-0.748c-0.027-0.426,0.28-0.759,0.667-0.773
		c1.226-0.025,2.347,0.801,2.612,1.921c0.16,0.653,0.229,2.306-2.532,3.64C189.013,148.28,188.467,148.48,187.92,148.626z"/>
	<path fill="#B2B2B8" d="M189.787,150.56c-3.44,0.934-6.066-0.68-6.187-0.76c-0.347-0.213-0.48-0.68-0.28-1.039
		c0.2-0.361,0.64-0.48,0.986-0.254c0.04,0.027,2.44,1.453,5.426,0.467c1.521-0.493,1.893-1.106,1.88-1.373
		c-0.026-0.227-0.333-0.534-0.88-0.654c-0.4-0.079-0.654-0.48-0.586-0.893c0.066-0.413,0.439-0.68,0.826-0.601
		c1.174,0.254,2,1.094,2.066,2.081c0.054,0.72-0.24,2.039-2.84,2.893C190.066,150.466,189.92,150.52,189.787,150.56z"/>
	<path fill="#B2B2B8" d="M178.893,138.773c-0.013,0-0.013,0-0.026,0c-0.066,0.026-1.84,0.44-3.693,0.68
		c-3,0.374-4.44,0.066-4.8-1.013c-0.173-0.507-0.133-1.014,0.094-1.48c0.6-1.16,2.333-1.64,2.533-1.68
		c0.387-0.107,0.773,0.146,0.88,0.547c0.106,0.412-0.121,0.813-0.494,0.919h-0.014c-0.546,0.147-1.413,0.534-1.626,0.961
		c-0.026,0.066-0.04,0.133-0.026,0.214c0.613,0.387,3.733,0.105,6.786-0.628c0.387-0.093,0.787,0.16,0.88,0.574
		C179.48,138.267,179.267,138.667,178.893,138.773z"/>
	<path fill="#B2B2B8" d="M179.707,141.773c0,0.013-0.013,0.013-0.013,0.013c-0.08,0.014-2.053,0.48-4.173,0.721
		c-3.253,0.36-4.946-0.014-5.48-1.187c-0.227-0.507-0.239-1.027-0.026-1.493c0.493-1.135,2.08-1.601,2.387-1.68
		c0.387-0.107,0.787,0.146,0.894,0.56c0.106,0.399-0.12,0.813-0.493,0.906c-0.521,0.133-1.32,0.52-1.48,0.88
		c-0.014,0.041-0.027,0.094,0.026,0.214c0,0.013,0.467,0.667,3.974,0.28c2.026-0.214,4-0.68,4.013-0.68
		c0.387-0.094,0.773,0.158,0.88,0.572C180.307,141.28,180.08,141.68,179.707,141.773z"/>
	<path fill="#B2B2B8" d="M180.547,144.84c-0.014,0-0.014,0.013-0.027,0.013c-0.08,0.015-2.12,0.494-4.307,0.734
		c-3.374,0.373-5.106,0-5.64-1.2c-0.24-0.52-0.253-1.054-0.041-1.534c0.506-1.16,2.133-1.639,2.467-1.72
		c0.373-0.106,0.773,0.147,0.88,0.56c0.106,0.401-0.121,0.814-0.494,0.908c0,0-0.014,0.013-0.027,0.013
		c-0.52,0.147-1.347,0.52-1.506,0.906c-0.027,0.054-0.053,0.121,0.013,0.254c0,0.013,0.427,0.72,4.146,0.306
		c2.106-0.227,4.133-0.705,4.16-0.705c0.374-0.094,0.773,0.16,0.866,0.572C181.133,144.347,180.92,144.746,180.547,144.84z"/>
	<path fill="#B2B2B8" d="M181.414,148.04c-0.014,0-0.014,0-0.027,0c-0.093,0.026-2.36,0.561-4.787,0.827
		c-3.653,0.413-5.627,0-6.2-1.28c-0.253-0.561-0.267-1.134-0.027-1.641c0.574-1.213,2.4-1.626,2.76-1.707
		c0.387-0.079,0.773,0.201,0.854,0.613c0.093,0.414-0.147,0.801-0.547,0.881c-0.6,0.119-1.573,0.493-1.773,0.934
		c-0.013,0.04-0.053,0.119,0.027,0.293c0.013,0.014,0.44,0.867,4.693,0.399c2.36-0.253,4.626-0.786,4.653-0.8
		c0.387-0.079,0.773,0.174,0.867,0.573C182.013,147.534,181.787,147.934,181.414,148.04z"/>
	<path fill="#B2B2B8" d="M176.107,151.853c-0.547,0.147-1.12,0.254-1.72,0.308c-3.053,0.253-3.827-1.214-4.014-1.853
		c-0.346-1.121,0.213-2.401,1.267-2.987c0.347-0.188,0.786-0.054,0.987,0.32c0.186,0.372,0.066,0.825-0.281,1.026
		c-0.453,0.254-0.733,0.799-0.6,1.213c0.134,0.453,0.867,0.894,2.494,0.761c3.707-0.308,6.506-3.32,6.533-3.348
		c0.28-0.293,0.733-0.293,1.027,0c0.28,0.294,0.293,0.773,0.026,1.066C181.72,148.48,179.44,150.946,176.107,151.853z"/>
	<path fill="#B2B2B8" d="M175.48,154.453c-0.146,0.04-0.28,0.066-0.44,0.106c-2.653,0.573-3.586-0.427-3.906-1.066
		c-0.44-0.88-0.146-2.027,0.733-2.826c0.293-0.268,0.747-0.24,1.014,0.079c0.266,0.32,0.239,0.801-0.054,1.067
		c-0.413,0.387-0.52,0.813-0.413,1.014c0.106,0.239,0.733,0.586,2.307,0.239c3.12-0.68,4.426-3.133,4.44-3.16
		c0.186-0.359,0.626-0.493,0.973-0.28c0.347,0.214,0.48,0.682,0.293,1.041C180.36,150.786,178.907,153.507,175.48,154.453z"/>
	<polygon fill="#FFFFFF" points="197.32,127.547 198.374,131.692 215.12,127.587 214.04,123.626 	"/>
	<polygon fill="#FFFFFF" points="199.96,135.96 201,140.106 216.906,135.413 215.827,131.466 	"/>
	<polygon fill="#FFFFFF" points="202.692,144.773 204.147,148.813 219.827,144.28 218.413,140.054 	"/>
	<polygon fill="#FFFFFF" points="152.107,100.934 152.8,105.147 180.333,101.094 179.586,97.066 	"/>
	<polygon fill="#FFFFFF" points="154.04,109.52 154.747,113.733 181.6,108.867 180.854,104.84 	"/>
	<polygon fill="#FFFFFF" points="155.973,118.187 157.173,122.68 183.654,117.413 182.6,113.094 	"/>
	<path fill="#FFB03D" d="M149.426,92.533l0.067-0.16C149.467,92.453,149.44,92.494,149.426,92.533z"/>
	<path fill="#FFB03D" d="M149,93.76l0.013,0.027C149.013,93.733,149.013,93.707,149,93.76z"/>
	<path fill="#FFB03D" d="M151.667,102.56c-0.08-0.066-0.173-0.146-0.253-0.239C151.467,102.387,151.547,102.466,151.667,102.56z"/>
	<path fill="#FFB03D" d="M152.32,86.467l0.026-0.2C152.24,86.56,152.307,86.44,152.32,86.467z"/>
	<path fill="#FFB03D" d="M163.013,68.013c0.014,0,0.04,0.014,0.053,0.026C163.08,68.027,163.053,68.027,163.013,68.013z"/>
	<path fill="#FFB03D" d="M170.16,95.213c0,0,0,0-0.014,0C170.187,95.187,170.187,95.2,170.16,95.213z"/>
	<path fill="#FFB03D" d="M153.027,75.4c0.013,0,0.013-0.013,0.013-0.027C153.08,75.213,153.053,75.28,153.027,75.4z"/>
	<path fill="#FFB03D" d="M152.267,79.08c0-0.08,0-0.146,0-0.2c0,0.013,0,0.026,0,0.026C152.267,78.973,152.267,79.04,152.267,79.08z
		"/>
	<path fill="#FFB03D" d="M161.88,67.84c-0.014,0-0.027,0-0.027-0.013C161.854,67.84,161.867,67.84,161.88,67.84z"/>
	<path fill="#FFB03D" d="M149.213,93.08c0.013-0.027,0.027-0.053,0.027-0.08C149.24,93.027,149.227,93.053,149.213,93.08z"/>
	<path fill="#FFB03D" d="M151.707,102.547c-0.027-0.027-0.027-0.027-0.027-0.04C151.627,102.48,151.627,102.493,151.707,102.547z"/>
	<path fill="#FFB03D" d="M152.32,86.506v-0.013c0-0.014,0-0.014,0-0.027V86.506z"/>
	<path fill="#FFB03D" d="M168.8,96.907c-0.094,0.08-0.134,0.12-0.173,0.133C168.627,97.053,168.667,97.027,168.8,96.907z"/>
	<path fill="#FC452E" d="M173.28,90.333l0.093-1.294l-0.08-0.293l-0.147-2.187l0.067-0.667h0.027v-0.36l0.013-0.053l0.026,0.026
		l-0.026-0.146l0.04-0.613l0.013-0.026v-0.027l0.027-0.533V84.12v-0.066l0.013-3.227l-0.373-3.227l-0.866-3.026l-1.467-2.681
		l-0.547-0.706l-0.08-0.333l-0.52-0.627l-0.747-0.693l0.093-0.013l-0.653-0.48l0.04,0.014L167.6,68.64l-0.28-0.173l-0.293-0.146
		l-0.627-0.254l-0.84-0.173l0.094,0.054l-0.467-0.054l0.227,0.054l0.253,0.066l-0.467-0.08l-0.319,0.013l-0.36,0.026l-0.347,0.066
		l-0.307,0.067l-0.24,0.066h-0.094l-0.027-0.013l-0.066,0.013l0.013,0.026v0.027h-0.027l-0.026-0.013l-0.054-0.014l-0.053-0.026
		l-0.04-0.027l0,0h-0.013h0.013l-0.013,0.014h-0.027h-0.067l-0.4-0.213l0.267,0.066l-0.307-0.093l-0.36-0.066l-0.319-0.014h-0.146
		l0.387,0.041l-1.88,0.2l-1.68,0.72l0.094-0.014l-0.667,0.36l-0.28,0.147l-0.44,0.28l0.026-0.027l-0.253,0.2l-0.294,0.214
		l-0.16,0.013l-0.466,0.453l-0.24,0.347l-0.134,0.053l-0.426,0.546V71.2l-0.253,0.227l-0.187,0.228l-0.294,0.413l-0.466,0.587
		l0.2-0.134l0.213-0.307l-0.32,0.6l-0.307,0.36l-0.227,0.267l-0.24,0.427l0.067-0.146l-0.201,0.387l-0.2,0.453l-0.107,0.52
		l0.24-0.667l-0.173,0.6l-0.253,0.773l0.066-0.387l-0.173,0.561l0.093-0.507l0.24-0.76l-0.24,0.547l-0.134,0.573l-0.146,0.707
		l-0.053-0.04l-0.053,0.413l-0.013-0.293l-0.121,0.613l-0.093,0.613l0.093-0.467l0.08-0.08l-0.213,1.453h-0.014l-0.013,0.147
		l0.026-0.147l0.04-0.013l-0.054,0.667l0.041,0.28l0.053-0.066l0.027,0.347l0.106,0.374l-0.053,0.013l0.121,0.547l0.12,0.466
		l-0.146-0.319l0.107,0.413l-0.08-0.08l0.227,1l0.187,0.414v0.4l-0.094-0.48l-0.08-0.133l0.107,0.88v-0.2l0.12,0.747l-0.053-0.067
		v0.494l-0.094-0.374l-0.013,0.72l-0.134,0.253l-0.426,1.48l-0.053,0.2l-0.64,1.467l-0.227,0.28l0.04,0.08l-0.053,0.28l-0.267,0.346
		l-0.373,0.84l-0.173,0.253l0.186-0.52l-0.08,0.066l-0.293,0.747l-0.307,0.76l-0.12,0.173l-0.094,0.213l0.146,0.534L173.28,90.333z
		 M149.96,91.467L150,91.36l-0.066,0.146L149.96,91.467z"/>
	<path fill="#FFB03D" d="M173.133,87.133c0,0.04,0,0.08,0,0.107c0,0.106,0,0.186,0.013,0.28
		C173.133,87.4,173.133,87.253,173.133,87.133z"/>
	<path fill="#FFB03D" d="M163.613,99.907c0.041-0.014,0.08-0.04,0.133-0.067C163.667,99.88,163.627,99.893,163.613,99.907z"/>
	<path fill="#FFB03D" d="M151.16,88.84c-0.067,0.133-0.133,0.293-0.2,0.427C151.093,88.973,151.253,88.84,151.16,88.84z"/>
	<polygon fill="#C22912" points="172.04,90.44 172.013,89.907 171.667,88.133 171.813,86.44 171.893,84.6 171.88,82.707 
		171.733,80.8 171.426,78.934 170.934,77.187 170.24,75.613 169.293,74.253 167.494,72.96 165.426,72.6 163.213,73.013 
		161.04,74.04 159.04,75.506 157.36,77.267 156.187,79.146 155.64,81 155.64,82.053 155.747,83.56 155.8,85.426 155.72,87.547 
		155.387,88.707 154.68,89.947 153.76,91.093 152.773,92 	"/>
	<path fill="#FAC2BF" d="M170.506,78.973c-0.08-0.946-0.266-1.88-0.64-2.76c-0.813-1.907-2.546-3.413-4.573-3.893
		c-2.026-0.467-4.707,0.24-6.174,1.707c-1.479,1.467-1.72,4.213-1.72,4.213c-0.373,2.173,0.547,6.04,1.946,7.213
		c1.693,1.4,4.773,1.454,6.921,0.92c1.133-0.28,2.56-1.573,3.319-2.453C170.72,82.6,170.667,80.707,170.506,78.973z"/>
	<path fill="#F5BAB8" d="M157.346,78.56l-0.04,0.907c0,0,2.667,0.387,5.333-0.041l0.187-2.173l0.387,2.12
		c0,0,3.293,0.494,7.227-1.106c0,0-0.213-1.333-0.28-1.974c-0.08-0.64-2.6-1.413-2.6-1.413l-5.24-0.201L157.346,78.56z"/>
	<path fill="#FC452E" d="M170.787,74.947c-1.08-1.747-2.986-3.2-4.947-3.787c-1.947-0.586-4.76-0.52-6.387,0.693
		c-1.426,1.053-4,3.626-3.92,5.4l0.041,1.267c1.546,0.187,4.879,0.453,6.493,0.173c0.293-1.414,0.387-2.253,0.587-3.72
		c0.399,1.373,0.853,3.601,0.959,3.613c2.574,0.173,5.56-0.52,7.907-1.053C171.44,76.44,171.346,75.867,170.787,74.947z"/>
	<path fill="#FAC2BF" d="M154.947,80.72c0.106-0.587,0.413-1.227,1-1.333c0.453-0.08,1.16,0,1.573,0.2
		c0.573,0.294,0.64,0.494,0.88,0.747l-0.013,0.187c0.107,0.986,0.093,1.974-0.027,2.96c-0.96,0.147-2.066,0.253-2.8-0.373
		C154.92,82.547,154.8,81.56,154.947,80.72z"/>
	<path fill="#F5BAB8" d="M156.907,80.88c0.133,0.346,0.307,1.44,0.12,1.506c-0.173,0.053-0.64-0.92-0.76-1.28
		C156.107,80.693,156.76,80.467,156.907,80.88z"/>
	<path fill="#303030" d="M161.84,81.414c0,0.319,0.053,0.6,0.147,0.92c0.146,0.493,0.693,0.413,0.72,0.013
		c0.026-0.333,0-0.64,0-0.973C162.693,80.827,161.84,80.854,161.84,81.414z"/>
	<path fill="#303030" d="M166.987,80.92c0,0.333,0.053,0.613,0.146,0.92c0.146,0.506,0.693,0.427,0.72,0.027
		c0.027-0.333,0-0.653-0.014-0.974C167.84,80.346,166.987,80.373,166.987,80.92z"/>
	<path fill="#F5BAB8" d="M158.92,83.76c0-0.2,0.08-0.439,0.36-0.506c0.707-0.173,1.654-0.333,2.347-0.027
		c0.28,0.12,0.546,0.387,0.453,0.72c-0.12,0.36-0.547,0.467-0.854,0.56c-0.586,0.187-1.506,0.294-2-0.186
		C159.053,84.146,158.893,84,158.92,83.76z"/>
	<path fill="#DB9696" d="M164.36,83.32c0,0,0.467,0.04,0.8-0.027c0.333-0.053,0.64-0.2,0.64-0.2S165.146,84.16,164.36,83.32z"/>
	<path fill="#303030" d="M163.44,84.52c0.44,0.453,1.04,0.52,1.64,0.533c0.653,0.013,1.04-0.173,1.426-0.693
		c0.24-0.347-0.239-0.8-0.479-0.453c-0.28,0.387-0.494,0.493-0.974,0.493c-0.44,0-0.84-0.04-1.173-0.36
		C163.586,83.733,163.146,84.213,163.44,84.52z"/>
	<polygon fill="#3B3DB0" points="173.667,90.293 172.173,89.173 170.333,88.36 168.36,87.867 165.8,87.667 163.28,88.12 
		161.053,89.173 158.88,90.64 157.854,91.586 	"/>
	<path fill="#FAC2BF" d="M162.934,85.707c0.16,1.08,0.373,2.147,0.64,3.213c0.013,0.067,0.04,0.146,0.093,0.2
		c0.08,0.054,0.16,0.041,0.24,0.027c0.733-0.08,1.453-0.2,2.146-0.387c0.054-0.013,0.12-0.027,0.146-0.066
		c0.027-0.04,0.027-0.08,0.027-0.12c0-1-0.093-2-0.266-2.987c-0.014-0.066-0.027-0.133-0.08-0.173
		c-0.054-0.041-0.134-0.041-0.201-0.041c-0.813,0.027-1.64,0.067-2.453,0.094L162.934,85.707z"/>
	<path fill="#F5BAB8" d="M163.08,86.613c0,0,0.88,0.093,1.973,0.041c0.667-0.041-1.293,1.653-1.653,1.533L163.08,86.613z"/>
	<path fill="#FC452E" d="M205.761,112.827c-0.135,0-0.241-0.081-0.28-0.201l-2.921-9.547l-0.986,8.788
		c-0.014,0.12-0.12,0.239-0.266,0.253c-0.135,0.013-0.254-0.08-0.295-0.199l-2.213-6.707l-1.213,3.959
		c-0.027,0.107-0.106,0.174-0.228,0.201l-3.253,0.479c-0.146,0.027-0.293-0.092-0.32-0.239c-0.025-0.16,0.081-0.306,0.24-0.32
		l3.08-0.453l1.413-4.64c0.04-0.134,0.134-0.213,0.267-0.213c0.094-0.014,0.24,0.079,0.28,0.199l2.081,6.307l0.985-8.853
		c0.015-0.134,0.134-0.241,0.254-0.254c0.147-0.013,0.267,0.066,0.306,0.2l2.961,9.667l0.561-3.801
		c0.025-0.12,0.119-0.227,0.252-0.239l3.814-0.561c0.146-0.027,0.307,0.08,0.32,0.24c0.025,0.16-0.081,0.293-0.241,0.32
		l-3.613,0.532l-0.706,4.841c-0.014,0.133-0.134,0.227-0.267,0.24H205.761z"/>
	<polygon fill="#2E3B8A" points="157.947,55.293 157.947,59.467 191.466,59.013 191.746,61.586 156.667,61.733 156.387,55.44 	"/>
	<path fill="#FFB03D" d="M178.934,48.947c-1,1.146-2.747,1.267-3.894,0.253c-1.146-1-1.266-2.747-0.266-3.893
		s2.747-1.267,3.906-0.267C179.827,46.053,179.934,47.8,178.934,48.947z M192.453,49.76h-7.013c0,0,0.293-12.093-7.92-12.093
		c-8.213,0-11.347,11.64-11.347,11.64l-8.36-0.293l0.147,10.454l34.786-0.454L192.453,49.76z"/>
	<path fill="#F7A63B" d="M168.066,55.88c-0.493,0.52-1.307,0.546-1.826,0.066c-0.52-0.48-0.547-1.293-0.067-1.813
		c0.493-0.533,1.307-0.56,1.827-0.08C168.52,54.547,168.547,55.36,168.066,55.88z"/>
	<path fill="#F7A63B" d="M186.6,54.426c0,0.72-0.587,1.294-1.293,1.294s-1.293-0.574-1.293-1.294c0-0.706,0.587-1.28,1.293-1.28
		S186.6,53.72,186.6,54.426z"/>
	<path fill="#FFB03D" d="M264.308,69.654c0,0,5.399-21.627-10.881-25.734C237.133,39.813,232.8,64.44,232.8,64.44l6.04,1.44
		c0,0,3.867-17.693,12.761-15.494c9.453,2.32,6.025,18.133,6.025,18.133L264.308,69.654z"/>
	<path fill="#F7A63B" d="M264.308,69.654c0,0,2.719-10.88-1.521-18.681c-1.732-3.187-5.466-3.72-6.68-3.053
		c-2.493,1.333-0.626,4.44,0.387,6.213c3.08,5.427,1.133,14.387,1.133,14.387L264.308,69.654z"/>
	<polygon fill="#80D1E0" points="269.813,69.04 262.613,96.827 226.52,90.48 229.813,60.947 	"/>
	<polygon fill="#5CC4D6" points="269.813,69.04 262.613,96.827 254.746,95.44 261.308,67.32 	"/>
	<path fill="#FFFFFF" d="M233.894,80.44c0.76,4.36,4.92,7.28,9.279,6.521c4.361-0.761,7.28-4.921,6.52-9.281
		c-0.759-4.359-4.919-7.28-9.279-6.52C236.054,71.92,233.133,76.08,233.894,80.44z"/>
	<path fill="#121769" d="M239.813,76.733c-0.279,1.28,0.52,2.534,1.787,2.814c1.267,0.28,2.532-0.52,2.813-1.787
		c0.279-1.266-0.52-2.533-1.8-2.813C241.347,74.667,240.094,75.467,239.813,76.733z"/>
	<polygon fill="#121769" points="239.48,83.32 241.946,83.867 243.106,78.586 240.641,78.04 	"/>
	<path fill="#FFB03D" d="M227.054,32.56c-0.254-0.08-0.534,0.146-0.733,0.347c-1.88,1.906-3.294,3.773-3.521,6.106
		c3.653,1.187,7.36,1.52,11.146,2.28l0.147-0.133c-2.241-2.787-4.48-5.56-6.72-8.333C227.28,32.72,227.187,32.6,227.054,32.56z"/>
	<path fill="#FFB03D" d="M240.308,25.867c-0.107-0.267-0.468-0.32-0.761-0.333c-2.761-0.12-5.16,0.107-7.12,1.654
		c1.586,3.826,3.866,7.066,5.854,10.68l0.213,0.026c0.613-3.866,1.227-7.72,1.84-11.573
		C240.347,26.173,240.374,26.013,240.308,25.867z"/>
	<path fill="#FFB03D" d="M252.894,32.84c0.106-0.24-0.066-0.546-0.24-0.787c-1.6-2.24-3.227-4.014-5.467-4.693
		c-1.627,3.373-2.426,6.986-3.652,10.587l0.119,0.173c2.973-1.667,5.96-3.346,8.947-5.013
		C252.707,33.04,252.827,32.973,252.894,32.84z"/>
</g>
</svg>
