<?xml version="1.0" encoding="utf-8"?>
<!-- Generator: Adobe Illustrator 13.0.0, SVG Export Plug-In . SVG Version: 6.00 Build 14948)  -->
<!DOCTYPE svg PUBLIC "-//W3C//DTD SVG 1.1//EN" "http://www.w3.org/Graphics/SVG/1.1/DTD/svg11.dtd">
<svg version="1.1" id="Layer_1" xmlns="http://www.w3.org/2000/svg" xmlns:xlink="http://www.w3.org/1999/xlink" x="0px" y="0px"
	 width="80px" height="80px" viewBox="0 0 80 80" enable-background="new 0 0 80 80" xml:space="preserve">
<g>
	<path fill-rule="evenodd" clip-rule="evenodd" fill="#D9E3F5" d="M40,0C17.907,0,0,17.92,0,40c0,22.094,17.907,40,40,40
		c22.079,0,40-17.894,40-40C80,17.92,62.079,0,40,0z M40,72.507C22.04,72.507,7.494,57.96,7.494,40
		C7.494,22.053,22.04,7.506,40,7.506c17.946,0,32.493,14.547,32.493,32.494C72.493,57.96,57.946,72.507,40,72.507z M40,17.547
		c-2.867,0-5.04,1.493-5.04,3.906v22.147c0,2.426,2.173,3.919,5.04,3.919c2.8,0,5.026-1.56,5.026-3.919V21.453
		C45.026,19.093,42.8,17.547,40,17.547z M40,52.507c-2.76,0-5,2.239-5,4.986c0,2.761,2.24,5,5,5c2.746,0,4.987-2.239,4.987-5
		C44.987,54.746,42.746,52.507,40,52.507z"/>
</g>
</svg>
