<?xml version="1.0" encoding="utf-8"?>
<!-- Generator: Adobe Illustrator 13.0.0, SVG Export Plug-In . SVG Version: 6.00 Build 14948)  -->
<!DOCTYPE svg PUBLIC "-//W3C//DTD SVG 1.1//EN" "http://www.w3.org/Graphics/SVG/1.1/DTD/svg11.dtd">
<svg version="1.1" id="Layer_1" xmlns="http://www.w3.org/2000/svg" xmlns:xlink="http://www.w3.org/1999/xlink" x="0px" y="0px"
	 width="400px" height="325px" viewBox="0 0 400 325" enable-background="new 0 0 400 325" xml:space="preserve">
<rect fill-rule="evenodd" clip-rule="evenodd" fill="none" width="400" height="325"/>
<g>
	<g>
		<linearGradient id="SVGID_1_" gradientUnits="userSpaceOnUse" x1="229.3721" y1="175.8389" x2="190.3729" y2="289.6554">
			<stop  offset="0" style="stop-color:#F5FAFA"/>
			<stop  offset="1" style="stop-color:#FFFFFF"/>
		</linearGradient>
		<path fill-rule="evenodd" clip-rule="evenodd" fill="url(#SVGID_1_)" d="M6.9,323.2L6.9,323.2c0-1.5-1.2-2.7-2.7-2.7H0v-5.9h38.5
			V325H6.3C6.7,324.5,6.9,323.9,6.9,323.2z M41.6,325V204.7h60.7V325H41.6z M104.2,325V204.7h61.5V325H104.2z M168.8,325V204.7h60.9
			V325H168.8z M231.5,325V204.7h69.5V325H231.5z M304.1,325v-11.6h93.6V325H304.1z M366.2,322L366.2,322c0-1.5-1.2-2.7-2.7-2.7
			h-28.6c-1.5,0-2.7,1.2-2.7,2.7v0c0,1.5,1.2,2.7,2.7,2.7h28.6C365,324.8,366.2,323.5,366.2,322z M0,312.7v-18.9h4.2
			c1.5,0,2.7-1.2,2.7-2.7v0c0-1.5-1.2-2.7-2.7-2.7H0v-11.2h38.5v35.6H0z M304.1,311.5v-35.6h93.6v35.6H304.1z M366.2,289.9
			L366.2,289.9c0-1.5-1.2-2.7-2.7-2.7h-28.6c-1.5,0-2.7,1.2-2.7,2.7v0c0,1.5,1.2,2.7,2.7,2.7h28.6
			C365,292.7,366.2,291.4,366.2,289.9z M0,275.3v-21.9h4.2c1.5,0,2.7-1.2,2.7-2.7v0c0-1.5-1.2-2.7-2.7-2.7H0v-8.3h38.5v35.7H0z
			 M304.1,274.1v-35.7h93.6v35.7H304.1z M218.5,261.6v-28.6c0-1.5-1.2-2.7-2.7-2.7h0c-1.5,0-2.7,1.2-2.7,2.7v28.6
			c0,1.5,1.2,2.7,2.7,2.7h0C217.3,264.3,218.5,263.1,218.5,261.6z M248.2,261.6v-28.6c0-1.5-1.2-2.7-2.7-2.7h0
			c-1.5,0-2.7,1.2-2.7,2.7v28.6c0,1.5,1.2,2.7,2.7,2.7h0C247,264.3,248.2,263.1,248.2,261.6z M91.2,261v-28.6c0-1.5-1.2-2.7-2.7-2.7
			h0c-1.5,0-2.7,1.2-2.7,2.7V261c0,1.5,1.2,2.7,2.7,2.7h0C90,263.8,91.2,262.5,91.2,261z M120.9,261v-28.6c0-1.5-1.2-2.7-2.7-2.7h0
			c-1.5,0-2.7,1.2-2.7,2.7V261c0,1.5,1.2,2.7,2.7,2.7h0C119.7,263.8,120.9,262.5,120.9,261z M366.2,249.4L366.2,249.4
			c0-1.5-1.2-2.7-2.7-2.7h-28.6c-1.5,0-2.7,1.2-2.7,2.7l0,0c0,1.5,1.2,2.7,2.7,2.7h28.6C365,252.1,366.2,250.9,366.2,249.4z
			 M0,237.7v-16.5h4.2c1.5,0,2.7-1.2,2.7-2.7v0c0-1.5-1.2-2.7-2.7-2.7H0v-11.1h38.5v33H0z M304.1,236.5v-31.8h93.6v31.8H304.1z
			 M366.2,217.3L366.2,217.3c0-1.5-1.2-2.7-2.7-2.7h-28.6c-1.5,0-2.7,1.2-2.7,2.7v0c0,1.5,1.2,2.7,2.7,2.7h28.6
			C365,220,366.2,218.8,366.2,217.3z"/>
	</g>
</g>
<path fill-rule="evenodd" clip-rule="evenodd" fill="#F5FAFA" d="M248.9,194.9v-56.1c0-1.9,1.6-3.5,3.5-3.5h76.2
	c1.9,0,3.5,1.6,3.5,3.5v56.1c0,1.9-1.6,3.5-3.5,3.5h-76.2C250.5,198.4,248.9,196.8,248.9,194.9z M314.9,194.1c0-0.8-0.6-1.4-1.4-1.4
	h-1.4c-0.8,0-1.4,0.6-1.4,1.4c0,0.8,0.6,1.4,1.4,1.4h1.4C314.3,195.5,314.9,194.9,314.9,194.1z M320.7,194.1c0-0.8-0.6-1.4-1.4-1.4
	h-1.4c-0.8,0-1.4,0.6-1.4,1.4c0,0.8,0.7,1.4,1.4,1.4h1.4C320,195.5,320.7,194.9,320.7,194.1z M326.4,194.1c0-0.8-0.6-1.4-1.4-1.4
	h-1.4c-0.8,0-1.4,0.6-1.4,1.4c0,0.8,0.6,1.4,1.4,1.4h1.4C325.8,195.5,326.4,194.9,326.4,194.1z M326.4,189.8V141h-71.8v48.8H326.4z"
	/>
<rect x="254.6" y="198.4" fill-rule="evenodd" clip-rule="evenodd" fill="#363D4A" width="8.6" height="4.3"/>
<rect x="317.8" y="198.4" fill-rule="evenodd" clip-rule="evenodd" fill="#EDF5F7" width="8.6" height="4.3"/>
<path fill-rule="evenodd" clip-rule="evenodd" fill="#F5FAFA" d="M40.8,131.8V55.3c1.3,0,2.7,0,4,0c7.9,0.1,12.5,0.1,20.5,0.1
	c13.6,0,27.3,0.1,40.9,0.2c6.8,0,13.6,0,20.5,0c10.4,0,20.8,0,31.2,0.1v76c0,3.3-2.7,6-6,6H46.7C43.5,137.7,40.8,135.1,40.8,131.8z"
	/>
<path fill-rule="evenodd" clip-rule="evenodd" fill="#E0E3E5" d="M151.9,139.7c-0.8,0-20.3-0.1-21.1,0c-3.5,0.1-7,0-10.5,0
	c-10.5,0-21,0-31.5-0.1c-10.5-0.1-21-0.1-31.5-0.1c-3.5,0-7,0-10.5-0.1c-1.5,0-2.9-0.4-4.1-1.2c-2.2-1.4-3.4-3.8-3.4-6.4
	c0-2.8,0.1-5.6,0.1-8.4c0.1-8.4,0.1-16.9,0.2-25.3c0-2.8,0-5.6,0.1-8.4c0.1-4.2,0.1-8.4,0.2-12.6c0-0.2,0.1-8.2,0.1-8.4
	c0.1-4.2,0.2-8.4,0.3-12.6c0-0.2,0-0.4,0-0.6c0.4,0,0.7,0,1.1,0c0,0.9,0.1,1.8,0.1,2.7c0,0.7,0,1.4,0.1,2.1l0.1,4.2
	c0.1,4.2,0.1,8.4,0.2,12.6c0.3,18.3,0.4,36.5,0.6,54.8c0,2.4,2,4.3,4.4,4.3c10.5-0.1,21-0.1,31.5-0.1l21-0.1l21,0
	c10.5,0,21,0,31.5-0.1c2.2,0,4-1.8,4-4c0.1-25.3,0.1-50.7,0.1-76c1.2,0,2.5,0,3.7,0c0,2.9,0,5.7,0,8.6c0,16.9,0.1,33.7,0.1,50.6
	c0,5.6,0.1,11.2,0,16.9c0,0.4,0,0.8-0.1,1.2C159.2,136.8,155.8,139.7,151.9,139.7z M46.8,136.1C46.8,136.1,46.8,136.1,46.8,136.1
	C46.8,136.1,46.8,136.1,46.8,136.1S46.8,136.1,46.8,136.1z M151.9,135.7C151.9,135.7,151.9,135.7,151.9,135.7
	C151.9,135.7,151.9,135.7,151.9,135.7C151.9,135.7,151.9,135.7,151.9,135.7z M42.4,131.7L42.4,131.7
	C42.4,131.8,42.4,131.8,42.4,131.7C42.4,131.8,42.4,131.8,42.4,131.7z M155.9,131.7C155.9,131.7,155.9,131.7,155.9,131.7
	C155.9,131.7,155.9,131.8,155.9,131.7C155.9,131.8,155.9,131.7,155.9,131.7z"/>
<path fill-rule="evenodd" clip-rule="evenodd" fill="#E0E3E5" d="M148,121.3V58.1c-1.1,0-2.2,0-3.3,0c-6.5,0.1-10.4,0.1-16.9,0.1
	c-11.3,0-22.5,0.1-33.8,0.1c-5.6,0-11.3,0-16.9,0c-8.6,0-17.2,0-25.8,0.1v62.8c0,2.7,2.2,4.9,4.9,4.9H143
	C145.8,126.2,148,124,148,121.3z"/>
<path fill-rule="evenodd" clip-rule="evenodd" fill="#EBF5FA" d="M90.4,110.9l-8.2-21.4l-4.5,13.6c-0.2,0.6-0.7,1-1.3,1H51.6v-2.9
	h23.6l5.5-16.4c0.2-0.6,0.7-1,1.3-1c0.6,0,1.1,0.3,1.4,0.9l8.2,21.4l4.5-13.6c0.2-0.5,0.7-0.9,1.2-1c0.6-0.1,1.1,0.2,1.4,0.7
	l4.1,6.9l6.8-23.9c0.2-0.6,0.7-1,1.4-1c0.6,0,1.2,0.4,1.4,1l7.4,26h27.4v2.9h-28.5c-0.6,0-1.2-0.4-1.4-1L111,80.8l-6.3,22.3
	c-0.2,0.5-0.6,0.9-1.2,1c-0.6,0.1-1.1-0.2-1.4-0.7l-4.2-7l-4.8,14.4c-0.2,0.6-0.7,1-1.3,1C91.1,111.8,90.6,111.4,90.4,110.9z"/>
<path fill-rule="evenodd" clip-rule="evenodd" fill="#E0E3E5" d="M142.7,127.8c-0.6,0-16.8,0-17.4,0c-2.9,0.1-5.8,0-8.7,0
	c-8.7,0-17.4,0-26.1-0.1c-8.7,0-17.4-0.1-26.1-0.1c-2.9,0-5.8,0-8.7,0c-1.2,0-2.4-0.4-3.4-1c-1.8-1.2-2.8-3.1-2.8-5.3
	c0-2.3,0.1-4.6,0.1-7c0.1-7,0.1-13.9,0.2-20.9c0-2.3,0-4.6,0.1-7c0-3.5,0.1-7,0.2-10.5c0-0.2,0.1-6.8,0.1-7c0.1-3.5,0.1-7,0.3-10.5
	c0-0.2,0-0.3,0-0.5c0.3,0,0.6,0,0.9,0c0,0.7,0.1,1.5,0.1,2.2c0,0.6,0,1.2,0,1.7c0,0,0.1,3.5,0.1,3.5c0.1,3.5,0.1,7,0.2,10.4
	c0.3,15.1,0.3,30.2,0.5,45.3c0,2,1.6,3.6,3.6,3.6c8.7,0,17.4-0.1,26-0.1l17.4-0.1c0,0,17.4,0,17.4,0c8.7,0,17.4,0,26-0.1
	c1.8,0,3.3-1.5,3.3-3.3c0-20.9,0.1-41.9,0.1-62.8c1,0,2,0,3.1,0c0,2.4,0,4.7,0,7.1c0,13.9,0.1,27.9,0.1,41.8c0,4.7,0.1,9.3,0,13.9
	c0,0.3,0,0.7-0.1,1C148.7,125.4,145.9,127.8,142.7,127.8z M55.8,124.8C55.8,124.8,55.8,124.8,55.8,124.8
	C55.8,124.8,55.8,124.8,55.8,124.8L55.8,124.8z M142.7,124.5C142.7,124.5,142.7,124.5,142.7,124.5
	C142.7,124.5,142.7,124.5,142.7,124.5C142.7,124.5,142.7,124.5,142.7,124.5z M52.2,121.2L52.2,121.2
	C52.2,121.2,52.2,121.2,52.2,121.2C52.2,121.2,52.2,121.2,52.2,121.2z M146,121.2L146,121.2C146,121.2,146,121.2,146,121.2
	C146,121.2,146,121.2,146,121.2z"/>
<polygon fill-rule="evenodd" clip-rule="evenodd" fill="#E0E3E5" points="99.6,49.7 80.3,49.5 61,49.3 41.7,48.9 32.1,48.5 
	27.3,48.2 24.9,48 23.7,47.8 23.1,47.7 22.5,47.5 23.1,47.2 23.7,47.1 24.9,47 27.3,46.8 32.1,46.5 41.8,46.2 61,45.8 80.3,45.7 
	99.6,45.7 118.9,45.8 138.1,46 157.4,46.5 167.1,46.8 171.9,47.1 174.3,47.3 175.5,47.5 176.1,47.6 176.7,47.8 176.1,48.1 
	175.5,48.2 174.3,48.3 171.9,48.5 167.1,48.8 157.4,49.1 138.1,49.5 118.9,49.6 "/>
<polygon fill-rule="evenodd" clip-rule="evenodd" fill="#E0E3E5" points="99.6,56.7 80.3,56.5 61,56.3 41.7,55.9 32.1,55.5 
	27.3,55.2 24.9,55 23.7,54.8 23.1,54.7 22.5,54.5 23.1,54.2 23.7,54.1 24.9,54 27.3,53.8 32.1,53.5 41.8,53.2 61,52.8 80.3,52.7 
	99.6,52.7 118.9,52.8 138.1,53 157.4,53.5 167.1,53.8 171.9,54.1 174.3,54.3 175.5,54.5 176.1,54.6 176.7,54.8 176.1,55.1 
	175.5,55.2 174.3,55.3 171.9,55.5 167.1,55.8 157.4,56.1 138.1,56.5 118.9,56.6 "/>
<path fill-rule="evenodd" clip-rule="evenodd" fill="#FAEBD4" d="M241.8,149.8c0.2-0.4,0.5-0.8,0.7-1.1c9.2-15.3,14.2-34,14.2-53.4
	c0-48.8-31.5-88.5-70.3-88.5c-38.8,0-70.3,39.7-70.3,88.5c0,19.6,5.1,38.5,14.5,53.9c0.1,0.2,0.2,0.3,0.3,0.5c0.3,0.5,0.6,1,0.9,1.5
	c3.5,4.9,8,3.7,9.3,3.3c0.1-0.1,0.2-0.1,0.4-0.1l0,0c4.7-1.8,9.8-3.4,15.4-4.6l9.7-2.1l-7.3-7.1c-6-5.8-9.9-13.7-10.9-22.2l-0.6-4.3
	l0.2-28.4l0.1-3.8c4.5-1.4,24.3-8.3,38.3-22.8c3.3,4.1,15.6,17.6,38.5,22.9l0.1,3.7L225,114l-0.5,4.3c-1.1,8.5-5,16.4-10.9,22.2
	l-7.3,7.1l9.7,2.1c5.8,1.3,11.2,2.9,16,4.9C233.7,155.1,238.5,155.9,241.8,149.8z"/>
<path fill-rule="evenodd" clip-rule="evenodd" fill="#FFF5D4" d="M141.9,151.6l-2-1.5l-0.7-1.1l-0.3-0.4
	c-8.2-13.4-12.7-30.1-12.7-47.3c0-43.5,28-77.1,60.2-77.1c32.3,0,60.3,33.5,60.3,77.1c0,17.1-4.4,33.5-12.5,46.9l-0.8,1.1
	c-0.8,1.5-1.6,2-2.3,2.2l-1.4,0l-7-2.5c-2.6-0.8-5.3-1.5-8.1-2.1l-0.5-0.1l0.6-0.6c6.3-6.1,10.3-14.4,11.5-23.2l0.5-4
	c0-0.2,0-0.4,0-0.6l-0.1-26.2l-0.1-3.5c0-2.1-1.5-4-3.6-4.5c-19.7-4.6-30.3-16.2-32.9-19.5c-1.8-2.2-5.1-2.3-7-0.3
	c-12,12.6-29.3,18.6-33.4,19.8c-1.9,0.6-3.2,2.4-3.3,4.4l-0.1,3.5l-0.1,26.2c0,0.2,0,0.4,0,0.6l0.5,4c1.1,8.9,5.2,17.1,11.5,23.2
	l0.6,0.6l-0.5,0.1c-5.3,1.2-10.4,2.7-14.9,4.5l-0.3,0.1C142.9,151.5,142.5,151.7,141.9,151.6z"/>
<path fill-rule="evenodd" clip-rule="evenodd" fill="#E0E3E5" d="M137.3,156.8c-2.3-0.3-4.3-1.4-5.8-3c-0.3-0.3-0.5-0.5-0.7-0.8
	c-0.5-0.6-0.8-1.2-1.3-1.9c-0.1-0.2-0.2-0.4-0.3-0.6c-0.2-0.3-0.3-0.6-0.5-0.9c-0.3-0.6-0.7-1.2-1-1.8c-0.6-1.1-1.2-2.2-1.8-3.4
	c-1-1.9-1.9-3.8-2.7-5.7c-0.9-1.9-1.6-3.9-2.4-5.9c-0.7-2-1.4-4.1-2-6.1c-0.6-2.1-1.2-4.2-1.6-6.3c-0.9-4-1.6-8.1-2.1-12.2
	c-0.6-5.2-0.8-10.5-0.7-15.7c0.1-6.3,0.8-12.6,2.1-18.8c0.7-3.4,1.5-6.8,2.5-10.1c0.7-2.5,1.6-4.9,2.5-7.3c0.5-1.2,0.9-2.3,1.4-3.5
	c1.3-3,2.8-6,4.4-8.9c7.7-13.9,19.3-26.2,33.8-33.1c2.4-1.1,4.9-2.1,7.5-3c11.9-3.8,24.3-3.8,36.2,0.1c6.2,2,12,5.1,17.2,8.8
	c9.1,6.5,16.6,15.2,22.3,24.8c11.3,19.3,15.6,42.5,13.2,64.6c-0.8,7.6-2.5,15.3-4.9,22.5c-0.9,2.7-2,5.5-3.1,8.1
	c-0.4,0.9-0.9,1.9-1.3,2.8c-1.2,2.5-2.5,4.8-3.9,7.2c-0.3,0.5-0.6,0.9-0.9,1.4c-0.1,0.2-0.3,0.4-0.4,0.6c-0.1,0.1-0.2,0.3-0.3,0.4
	c-0.2,0.2-0.3,0.4-0.5,0.6c-0.2,0.8-0.8,1.7-1.3,2.3c-0.6,0.8-1.3,1.5-2.1,2c-1.9,1.3-4.2,1.6-6.5,1.1c-0.4-0.1-0.8-0.3-1.1-0.4
	c-0.6-0.2-1.2-0.5-1.9-0.7c-2.2-0.7-4.4-1.4-6.7-2c-2.2-0.6-4.3-1.1-6.5-1.5c-3.8-0.8-7.6-1.5-11.5-2.4c2.9-2.8,5.7-5.6,8.5-8.4
	c5.8-5.7,9.5-13.5,10.4-21.6l0.5-4.2l-0.3-28.3l-0.1-2.6l-7-2c-8-2.7-15.5-6.8-22.1-12.1c-1.9-1.5-3.8-3.2-5.6-5
	c-0.8-0.8-1.6-1.7-2.4-2.5l-0.1-0.1l-7.8,6.9c-3.3,2.5-6.7,4.7-10.2,6.7c-3.8,2.1-7.7,4-11.7,5.7l-6.6,2.5l0,2.5l-0.1,28.2l0.5,4.2
	l1.3,5.8c1.7,5.7,4.9,11.1,9.2,15.2c3.3,3.2,6.6,6.5,10,9.7l-13.3,2.9l-10.3,2.8c-0.7,0.2-1.4,0.5-2.2,0.7c-0.3,0.1-0.7,0.3-1.1,0.4
	c-0.5,0.2-0.9,0.3-1.4,0.5c-0.1,0-0.4,0.2-0.5,0.2h-0.2l-2.1,0.5C138.9,156.9,138.1,156.9,137.3,156.8z M239.2,152.7
	c0.5-0.4,1-0.9,1.4-1.4c0.4-0.5,0.7-1,1.1-1.4c0.1-0.4,0.3-0.8,0.6-1.2c1.5-3,3.1-6,4.4-9.1c1.1-2.5,2.1-5,3-7.6
	c0.9-2.6,1.7-5.3,2.4-7.9c1.2-4.7,2.1-9.4,2.7-14.2l0.8-14.4l-0.5-9.9c-0.3-3.3-0.8-6.6-1.4-9.8c-2.3-12.1-6.7-23.7-13.2-34.1
	c-1.2-1.9-2.5-3.8-3.9-5.7c-3.2-4.3-7-8.4-11-11.9c-2.1-1.9-4.4-3.6-6.8-5.2c-1.4-0.9-2.7-1.8-4.2-2.6c-1.8-1-3.7-1.9-5.6-2.8
	c-2.6-1.1-5.2-2.1-7.9-2.8c-2.4-0.7-4.8-1.1-7.2-1.5l-7.3-0.5l-7.4,0.5c-2.5,0.3-4.9,0.9-7.3,1.5c-2.9,0.8-5.7,1.8-8.4,3.1
	c-2.8,1.3-5.6,2.8-8.2,4.5c-2.4,1.6-4.6,3.3-6.8,5.1c-10.1,8.6-17.7,20.1-22.7,32.4c-1,2.4-1.8,4.8-2.6,7.3
	c-0.6,1.8-1.1,3.7-1.6,5.6c-0.6,2.5-1.2,4.9-1.6,7.5c-0.6,3.2-1,6.4-1.3,9.6l-0.4,9.6l0.9,13.8c1.8,13.8,6.2,27.2,13.4,39.1l0-0.1
	l0.3,0.5l0.8,1.3l2.6,2.3c0.6,0.3,1.4,0.5,2.2,0.6l2.2-0.3l0.5-0.2c0,0,0.2-0.1,0.2-0.1h0.1l10.7-3.4c2.2-0.6,4.3-1.1,6.5-1.5
	l4.2-0.9l-4.7-4.6c-6.3-6.2-10.4-14.5-11.5-23.3c-0.1-0.9-0.2-1.7-0.3-2.6c0-0.3-0.1-0.6-0.1-0.9c0-0.6-0.1-0.6-0.1-1
	c-0.1-1.9,1.1-4.2,0-5.8c-1-1.6,0.1-3.8,0-5.7l0.1-11.3c0-3.6,0.1-7.2,0.1-10.8c1.5-0.5,2.9-0.9,4.3-1.4c2.6-0.9,5.1-1.9,7.6-3.1
	c5.3-2.4,10.5-5.2,15.3-8.5c1.1-0.8,2.3-1.6,3.4-2.5c0.9-0.6,1.7-1.3,2.5-2c1.5-1.2,3-2.5,4.3-3.9c0.9-0.9,1.8-1.8,2.6-2.7
	c0.7,0.9,1.4,1.7,2.1,2.6c1.4,1.6,2.9,3.2,4.4,4.6c6.3,5.8,13.5,10.3,21.5,13.5c2.5,1,5,1.8,7.5,2.6c1.4,0.4,2.8,0.7,4.2,1.1
	c0.1,5.4,0,10.8,0.1,16.2l0,11.3c0.1,1.9,0.1,3.8,0,5.8c0,0.6-0.2,1.2-0.2,1.8c0,0.3,0,0.6-0.1,0.9l-0.2,1.7c-1,7.3-4,14.2-8.7,19.8
	c-0.9,1-1.8,2-2.7,2.9l-6.2,5.9l8,1.9c2.7,0.7,5.5,1.4,8.1,2.2l7.9,2.9C234.6,154.9,237.2,154.4,239.2,152.7z"/>
<path fill-rule="evenodd" clip-rule="evenodd" fill="#FFFFFF" d="M115.3,279.9c0-0.8,0-69.9,0-70.7c-0.3-18.6,6.6-37.3,20.8-51.5
	c27.8-27.8,72.9-27.8,100.6,0c14.2,14.2,21.1,32.9,20.8,51.5c0,0.8,0,69.9,0,70.7C257.9,298.5,115,298.5,115.3,279.9z"/>
<path fill-rule="evenodd" clip-rule="evenodd" fill="#FFFAF2" d="M160.7,143.6l25.8,49.8l25.8-49.8
	C212.3,143.6,185.5,132.2,160.7,143.6z"/>
<path fill-rule="evenodd" clip-rule="evenodd" fill="#FAF0E8" d="M164.5,150.9L164.5,150.9l-3.8-7.4c24.8-11.3,51.6,0,51.6,0
	l-3.8,7.4l0,0c-6,2.5-13.3,3.9-22,3.9C177.7,154.8,170.5,153.4,164.5,150.9z"/>
<path fill-rule="evenodd" clip-rule="evenodd" fill="#EDF0F2" d="M224,205.4c-0.1-0.4,0-1.1,0-1.5c0-0.1,0-0.2,0-0.3
	c0.1-0.3,0.1-0.7,0.1-1c0.2-1.2,0.4-2.4,0.6-3.6c0.4-2.1,0.8-4.3,1.2-6.4c0.7-4.2,1.3-8.6,1.3-12.9c0-5.8-1.2-11.3-3.5-16.6
	c-0.6-1.3-1.2-2.6-1.9-3.9c-0.3-0.7-0.7-1.4-1.1-2c-0.2-0.4-0.4-0.7-0.5-1.1c-0.1-0.3-0.3-0.6-0.4-1c0,0,0-0.1,0-0.2
	c0-0.1,0-0.3,0.1-0.4l0.4,0l0.3,0.1l0.5,0.3l0.8,0.7l0.7,0.7l0.7,0.7l0.7,0.8l0.6,0.8l0.6,0.8l0.5,0.8l0.5,0.8l0.5,0.8l0.5,0.8
	l0.4,0.8l0.4,0.8l0.4,0.8l0.4,0.8l0.3,0.8l0.3,0.8l0.3,0.8l0.3,0.8l0.2,0.8l0.2,0.8l0.2,0.8l0.2,0.8l0.2,0.8l0.1,0.8l0.1,0.8
	l0.1,0.8l0.1,0.8l0.1,0.8l0,0.8l0,0.8v0.8l-0.1,1.7l-0.1,1.7l-0.2,1.7l-0.2,1.6l-0.3,1.7l-0.3,1.6l-0.4,1.6l-0.4,1.6l-0.5,1.6
	l-0.5,1.6l-0.5,1.6l-0.6,1.6l-0.6,1.6l-0.7,1.5l-0.7,1.5l-0.4,0.7l-0.3,0.4l-0.2,0.2l-0.3,0.1C224.1,205.6,224,205.5,224,205.4z"/>
<path fill-rule="evenodd" clip-rule="evenodd" fill="#F5F7FA" d="M221.2,204.7c-5.9-0.6-11.2,3.8-11.7,9.7
	c-0.6,5.9,3.8,11.2,9.7,11.7c5.9,0.6,11.2-3.8,11.7-9.7C231.4,210.5,227.1,205.3,221.2,204.7z"/>
<path fill-rule="evenodd" clip-rule="evenodd" fill="#EBEDF0" d="M218.9,228.1c-1.4-0.1-2.8-0.5-4-1.1c-3.7-1.7-6.4-5.1-7.1-9.1
	c-0.2-1.2-0.2-2.4-0.1-3.7c0.2-1.4,0.6-2.8,1.2-4c0.6-1.2,1.5-2.3,2.4-3.2c2-1.8,4.6-3,7.3-3c0.6,0,1.1,0.1,1.6,0.2
	c0.1,0,0.5,0.1,0.6,0.2c0,0,0.1,0.1,0.2,0.2l0.1,0.1c0,0,0.6-0.3,0.6-0.3l0.2,0c0.2,0,0.5,0,0.7,0c0.8,0,1.4,0.2,2.2,0.4
	c3.1,1,5.7,3.5,6.9,6.5c1.6,4.1,1,8.5-1.6,12c-0.6,0.7-1.2,1.4-1.9,2c-1.1,0.9-2.2,1.5-3.5,2.1C222.9,228.1,220.9,228.3,218.9,228.1
	z M227.9,219.9c0.3-0.6,0.6-1.1,0.8-1.8l0.4-1.9l0.1-1.3c0-3.2-1.6-6.1-4.2-8c-0.7-0.5-1.5-0.9-2.3-1.3c-0.3-0.1-0.5-0.2-0.8-0.4
	c-0.1,0-0.2-0.1-0.3-0.1c-0.1-0.1-0.4-0.3-0.5-0.4c-0.1,0.1-0.2,0.2-0.3,0.2c0,0-0.2,0.1-0.2,0.1c-0.3,0.1-0.6,0.1-0.9,0.2
	c-0.3,0.1-0.5,0.1-0.8,0.2c-0.6,0.2-1.2,0.4-1.8,0.6c-3,1.4-5.3,4-5.9,7.1l-0.2,1.3l0.1,1.8c0.5,3.5,3,6.5,6.4,7.5l1.7,0.3h-0.1
	C222.7,224.5,226.1,222.8,227.9,219.9z"/>
<path fill-rule="evenodd" clip-rule="evenodd" fill="#FFFFFF" d="M220.7,210.3c-2.9-0.3-5.4,1.8-5.7,4.7c-0.3,2.8,1.8,5.4,4.7,5.7
	c2.9,0.3,5.4-1.8,5.6-4.7C225.6,213.1,223.5,210.5,220.7,210.3z"/>
<path fill-rule="evenodd" clip-rule="evenodd" fill="#E0E3E5" d="M115.1,265.5c-0.1-0.9-0.2-1.8-0.2-2.7c-0.1-1.2-0.1-2.4-0.2-3.6
	c-0.1-2.6-0.2-5.1-0.2-7.7c-0.1-4.6-0.2-9.1-0.3-13.7c-0.1-6.6-0.2-13.2-0.3-19.7c0-3.7-0.1-7.3-0.1-11c0-1,0-1.9,0-2.9l0-1.9v0
	v-0.1v0l0.4-8.4c0.3-2.8,0.8-5.6,1.5-8.3c0.4-1.5,0.8-3,1.3-4.4c0.9-2.5,1.9-5,3.1-7.4c2.3-4.6,5.2-9,8.5-13c4-4.7,8.7-9,13.8-12.5
	c3.2-2.2,6.6-4.2,10.1-5.8c18.5-8.9,40.4-9.9,59.7-3.3c5.3,1.8,10.5,4.3,15.3,7.2c3,1.9,5.9,4,8.6,6.3c1.6,1.3,3.1,2.7,4.5,4.2
	c0.7,0.7,1.3,1.4,2,2.1c4.3,4.7,8,10.2,10.7,16c0.6,1.2,1.1,2.4,1.6,3.7c0.2,0.4,0.3,0.8,0.5,1.2c0.8,2,1.4,4.2,1.9,6.3
	c1.3,5.2,1.9,10.7,1.7,16.1c0,0.4,0,0.7,0,1.1c0,1,0,1.9,0,2.9c0,3-0.1,5.9-0.1,8.9c-0.1,8.8-0.3,17.6-0.5,26.3
	c-0.1,4.1-0.2,8.3-0.4,12.4c-0.1,1-0.1,2.1-0.2,3.1c0,0.2-0.1,0.5-0.1,0.7c0,0.1,0,0.3-0.1,0.3c-0.1-0.1-0.1-0.2-0.1-0.3
	c-0.1-0.2-0.1-0.5-0.1-0.7c-0.1-0.9-0.1-1.9-0.2-2.8c-0.1-1.5-0.1-3-0.2-4.5c-0.1-2.4-0.2-4.7-0.2-7.1c-0.2-9.4-0.4-18.8-0.5-28.2
	c0-2.5-0.1-5-0.1-7.5c0-1,0-2,0-3c0-0.6,0-1.2,0-1.8c0.1-11.4-3.2-22.4-9.3-32c-1.6-2.5-3.3-4.8-5.2-7l-6.1-6.2l-5.3-4.3
	c-4.5-3.3-9.4-6.1-14.6-8.2c-20.7-8.6-45.3-7.6-65,3.2c-2.4,1.3-4.7,2.7-6.9,4.3l-6.3,5l-6.6,6.8c-6.1,7.3-10.4,15.8-12.5,25.2
	c-0.7,3.3-1.2,6.7-1.3,10.1c-0.1,1-0.1,2.1-0.1,3.2c0,0.6,0,1.3,0,1.9c0,1.2,0,2.3,0,3.5c0,4-0.1,7.9-0.1,11.9
	c-0.1,9.8-0.3,19.7-0.5,29.5c-0.1,4.2-0.2,8.5-0.4,12.7c-0.1,1.1-0.1,2.2-0.2,3.3c0,0.3-0.1,0.5-0.1,0.8c0,0.1,0,0.2-0.1,0.3
	C115.2,266.2,115.1,265.6,115.1,265.5z"/>
<path fill-rule="evenodd" clip-rule="evenodd" fill="#FFFFFF" d="M220.8,145.1c75.4,49.6,40.7,145.7-26.8,138.7
	c-4-9.9-5.3-18.5-1.8-27.6c61.6-15.4,52.3-48.7,41-80.1L220.8,145.1z"/>
<path fill-rule="evenodd" clip-rule="evenodd" fill="#E0E3E5" d="M150.3,254.4c-2.2-0.5-3.5-2.5-4.3-4.5c-0.8-2.2-1.1-4.7-1.3-7
	c-0.2-3.5-0.1-7,0.1-10.4c0.1-0.8,0.1-1.5,0.2-2.3c0.1-0.5,0.1-1.1,0.2-1.6c0.1-0.4,0.1-0.9,0.2-1.3c0-0.1,0.1-0.4,0.1-0.5
	c0-0.1,0.1-0.3,0.2-0.5l0.1-0.3c-0.1-0.1-0.2-0.2-0.3-0.3l-0.1-0.2c-0.2-0.5-0.2-1-0.3-1.5c-0.1-0.8-0.2-1.6-0.2-2.4
	c0-1.3,0-2.6,0.1-3.9c0.1-1,0.3-2,0.5-3c0.2-0.8,0.4-1.6,0.6-2.4c0.2-0.7,0.5-1.5,0.8-2.2c1.3-3.4,3.5-6.6,6.6-8.5l1-0.5l-0.2-0.5
	c-0.3-0.6-0.5-1.2-0.7-1.7c-0.5-1.3-1-2.7-1.4-4.1c-1-3.5-1.6-6.9-1.6-10.5c0-5.9,1.8-11.4,5.6-15.9c1-1.1,2-2.1,3.1-3.1
	c0.6-0.5,1.2-0.9,1.8-1.3c0.4-0.3,0.8-0.5,1.3-0.7l0.2-0.1c0.1-0.1,0.6-0.2,0.7-0.2l0.2,0l0.1,0c0,0.1,0,0.3,0,0.4
	c-0.2,0.5-0.7,1-0.9,1.5c-0.4,0.5-0.8,1.1-1.2,1.6c-0.7,0.9-1.3,1.7-1.9,2.6c-2.8,4-4.5,8.2-4.9,13.1c-0.3,3.5,0,7,0.4,10.4
	c0.2,1.4,0.4,2.7,0.5,4.1c0.1,0.5,0.1,1.1,0.2,1.6c0,0.4,0.1,0.7,0.1,1.1l0.1,1.1l0.8-0.3c0.8-0.2,1.6-0.3,2.4-0.3
	c4.5,0,8.3,2.7,11.1,6c0.7,0.8,1.3,1.7,1.9,2.6c0.4,0.6,0.7,1.2,1.1,1.8c0.6,1,1.1,2,1.5,3c0.6,1.4,1.2,2.9,1.6,4.4
	c0.2,0.6,0.3,1.2,0.4,1.7c0.1,0.4,0.2,0.8,0.2,1.2c0,0.2,0.1,0.4,0,0.6c0,0.2-0.1,0.4-0.2,0.6l-0.3-0.1c0.3,0.5,0.6,0.9,0.9,1.4
	c0.2,0.4,0.4,0.7,0.7,1.1c0.5,0.9,1,1.9,1.5,2.8c0.7,1.4,1.4,2.8,2,4.2c0.8,1.8,1.6,3.6,2.2,5.5c0.6,1.9,1.2,4,1.3,6
	c0.1,1.1,0,2.2-0.3,3.3c-0.2,0.5-0.4,1.1-0.8,1.5c-1.1,1.5-2.7,2-4.5,2.1c-0.7,0-1.3,0-2-0.1c-0.6-0.1-1.1-0.2-1.7-0.4
	c-0.1,0-0.3-0.1-0.4-0.1c-0.2-0.1-0.5-0.3-0.7-0.4c0.2-0.1,0.5-0.1,0.8-0.1c0.1,0,0.3,0,0.4,0h1.1c1.5,0,3.4-0.1,4.7-1
	c2-1.3,1.7-4.2,1.3-6.2c-0.1-0.5-0.2-1-0.3-1.4c-0.5-1.9-1.2-3.9-1.9-5.7c-0.9-2.4-2-4.8-3-7.2c-0.5-1.2-1-2.4-1.5-3.6
	c-0.2-0.5-0.4-0.9-0.5-1.4l-0.1-0.3c0-0.1-0.1-0.4-0.1-0.5l0-0.3l0.3,0.3l0.1,0.1l-0.5-0.8c-0.3-0.5-0.6-1-0.9-1.5
	c-0.6-1-1.1-2-1.7-2.9c-2.1-3.6-4.7-7.4-8.1-9.9c-1.8-1.3-4.1-2.3-6.4-2.1c-3.6,0.4-6.3,3.5-7.9,6.5c-0.4,0.7-0.7,1.5-1.1,2.2
	c-0.4,0.8-0.7,1.7-0.9,2.5c-0.4,1.3-0.8,2.6-1.1,3.9c-0.2,1-0.4,2-0.6,3c-0.1,0.5-0.2,1.1-0.3,1.6c-0.1,0.4-0.2,0.9-0.3,1.3
	c0,0.1-0.1,0.4-0.2,0.5c-0.1,0.1-0.2,0.2-0.3,0.3c0.1,0.2,0.1,0.3,0.2,0.5c0,0.1,0.1,0.2,0.1,0.3l0,0.3c0,0.4,0.1,0.8,0.1,1.1
	c0.1,1.1,0.1,2.2,0.1,3.3c0.1,2.1,0.1,4.1,0.1,6.2c0.1,2.4,0.2,4.8,0.5,7.1c0.2,1.5,0.5,3.1,1,4.6c0.6,1.6,1.4,3.2,3.3,3.5
	c1.5,0.3,3.1-0.4,4.4-0.9c0.4-0.2,0.8-0.4,1.2-0.5c0.1,0,0.3-0.1,0.4-0.2c0.1,0,0.3-0.1,0.5-0.1l0.3-0.1c-0.1,0.1-0.1,0.1-0.2,0.3
	c-0.1,0.2-0.2,0.4-0.4,0.5c-0.1,0.1-0.3,0.3-0.4,0.4c-0.5,0.4-1,0.7-1.5,1c-0.7,0.4-1.4,0.7-2.1,1c-0.6,0.2-1.1,0.3-1.7,0.3
	C151.2,254.5,150.8,254.5,150.3,254.4z M157.4,249c-0.2,1.1,0.6,2.1,1.7,2.3C158,251.1,157.2,250.1,157.4,249z M161.4,249.6
	c0,0.1,0,0.1,0,0.2C161.3,249.7,161.3,249.7,161.4,249.6z M174.7,246.6c0.6,0.9,0.3,2.2-0.6,2.8C175,248.8,175.3,247.5,174.7,246.6z
	 M159.3,247.3c-0.2,0-0.5,0.1-0.7,0.1C158.8,247.4,159.1,247.3,159.3,247.3z M159.7,247.3c0.1,0,0.1,0,0.2,0
	C159.8,247.4,159.8,247.3,159.7,247.3z M173,245.7c0.3,0,0.6,0.1,0.9,0.2C173.7,245.8,173.3,245.7,173,245.7z"/>
<polygon fill-rule="evenodd" clip-rule="evenodd" fill="#FFFFFF" points="184.8,197.9 156.2,183.9 155.7,167 143.9,162.7 
	160.1,140.8 185.1,185.7 212.3,141.2 232.6,160.9 220.7,169.3 219.8,183.3 "/>
<path fill-rule="evenodd" clip-rule="evenodd" fill="#E0E3E5" d="M185,195.8l-0.2,0l-0.2-0.1l-0.2-0.1l-0.1-0.2l0.2-0.1l0.2,0l0.2,0
	l0.1,0l0.1-0.1l0.1-0.1l0.1-0.1l0.1-0.1l0.1-0.1l0.1-0.1l0.1-0.1l0.1-0.1l0-0.1l0-0.1l0-0.1l0-0.2l0,0.1l-0.8-8.5v0v-0.1l0-0.1
	l0-0.1l-0.1-0.1l0,0.1l-6.5-11.2l-6.3-11.3l-12.1-22l-16.2,21.9l9.4,3l0.1,0l0.6,0.2l0.6,0.3l0.6,0.3l0.5,0.4l0.5,0.4l0.4,0.5
	l0.4,0.5l0.4,0.5l0.3,0.6l0.3,0.6l0.2,0.6l0.1,0.6l0.1,0.7l0,0.7l0,0.7l-0.1,0.6l0,0.1l-2,9.8l14.1,5.4l7.1,2.8l3.5,1.5l1.7,0.8
	l0.9,0.4l0.8,0.6l-1,0l-0.9-0.2l-1.9-0.5l-3.7-1l-7.3-2.2l-14.5-4.7l-0.2-0.1l-0.4-0.2l-0.4-0.3l-0.4-0.4l-0.3-0.4l-0.2-0.5
	l-0.1-0.5l0-0.5l0-0.4l0-0.1l1.7-9.9l0.1-0.4l0-0.3l0-0.3l-0.1-0.3l-0.1-0.3l-0.1-0.3l-0.1-0.3l-0.2-0.3l-0.2-0.3l-0.2-0.3l-0.2-0.2
	l-0.2-0.2l-0.3-0.2l-0.3-0.2l-0.3-0.1l-0.3-0.1l-10.1-3.1l-0.1,0l-0.3-0.1l-0.4-0.2l-0.3-0.2l-0.3-0.3l-0.3-0.3l-0.2-0.3l-0.2-0.3
	l-0.1-0.3l-0.1-0.4l-0.1-0.4l0-0.4l0-0.4l0.1-0.4l0.1-0.4l0.1-0.4l0.1-0.3l0.1-0.2l17-23l0.2-0.3l0.3-0.3l0.4-0.3l0.4-0.2l0.4-0.2
	l0.4-0.1l0.4-0.1l0.4,0l0.4,0.1l0.4,0.1l0.4,0.1l0.4,0.2l0.4,0.3l0.3,0.3l0.3,0.4l0.2,0.3l0.1,0.1l12,22.9l5.9,11.5l5.8,11.6l0,0.1
	l0.1,0.3l0.1,0.3l0,0.4l0,0.3v0l-0.2,8.5v0.1l-0.1,0.2l-0.1,0.2l-0.1,0.2l-0.1,0.2l-0.1,0.2l-0.2,0.1l-0.2,0.1l-0.2,0.1l-0.2,0.1
	l-0.2,0.1l-0.2,0H185z M156.2,183.9L156.2,183.9L156.2,183.9z"/>
<path fill-rule="evenodd" clip-rule="evenodd" fill="#E0E3E8" d="M187.6,195.8l-0.2,0l-0.2-0.1l-0.2-0.1l-0.2-0.1l-0.2-0.1l-0.2-0.2
	l-0.1-0.2l-0.1-0.2l-0.1-0.2l-0.1-0.2l-0.1-0.2v-0.1l-0.2-8.5v0.1l0-0.3l0-0.4l0.1-0.3l0.1-0.3l0-0.1l5.8-11.6l5.9-11.5l12-22.9
	l0.1-0.1l0.2-0.3l0.3-0.4l0.3-0.3l0.4-0.3l0.4-0.2l0.4-0.1l0.4-0.1l0.4-0.1l0.4,0l0.4,0.1l0.4,0.1l0.4,0.2l0.4,0.2l0.4,0.3l0.3,0.3
	l0.2,0.3l17,23l0.1,0.2l0.1,0.3l0.2,0.4l0.1,0.4l0.1,0.4l0,0.4l0,0.4l-0.1,0.4l-0.1,0.4l-0.2,0.4l-0.2,0.3l-0.2,0.3l-0.3,0.3
	l-0.3,0.3l-0.3,0.2l-0.4,0.2l-0.3,0.1l-0.1,0l-10.1,3.1l0.1,0l-0.4,0.1l-0.3,0.1l-0.3,0.2l-0.3,0.2l-0.3,0.2l-0.2,0.2l-0.2,0.3
	l-0.2,0.3l-0.2,0.3l-0.1,0.3l-0.1,0.3l-0.1,0.3l-0.1,0.3l0,0.3v0.3l0.1,0.4l1.7,9.9l0,0.1l0,0.4l0,0.5l-0.1,0.5l-0.2,0.5l-0.3,0.4
	l-0.3,0.4l-0.4,0.3l-0.4,0.2l-0.2,0.1l-14.5,4.7l-7.3,2.2l-3.7,1l-1.9,0.5l-0.9,0.2l-1,0l0.8-0.6l0.9-0.4l1.7-0.8l3.5-1.5l7.1-2.8
	l14.1-5.4l-2-9.8l0-0.1l-0.1-0.6l0-0.7l0-0.7l0.1-0.7l0.1-0.7l0.2-0.6l0.3-0.6l0.3-0.6l0.4-0.5l0.4-0.5l0.5-0.5l0.5-0.4l0.5-0.4
	l0.6-0.3l0.6-0.3l0.6-0.2l0.1,0l9.4-3l-16.2-21.9l-12.1,22l-6.3,11.3l-6.5,11.2l0-0.1l-0.1,0.1l0,0.1l0,0.1l0,0.1v0.1l-0.8,8.5v-0.1
	v0.2l0,0.1l0,0.1l0,0.1l0.1,0.1l0.1,0.1l0.1,0.1l0.1,0.1l0.1,0.1l0.1,0.1l0.1,0.1l0.1,0.1l0.1,0l0.2,0l0.2,0l0.2,0.1l-0.1,0.2
	l-0.2,0.1l-0.2,0.1l-0.2,0H187.6z M216.6,183.9L216.6,183.9L216.6,183.9z"/>
<path fill-rule="evenodd" clip-rule="evenodd" fill="#E0E3E8" d="M196,285.9c-0.5-0.1-1.1-0.1-1.6-0.1c0,0-0.6-0.1-0.6-0.1
	c-0.1,0-0.2-0.1-0.3-0.1c-0.2,0-0.2-0.1-0.4-0.1c-0.1-0.1-0.2-0.1-0.3-0.2l-0.1-0.1c-0.1-0.1-0.2-0.2-0.2-0.2l-0.1-0.2
	c-0.2-0.3-0.3-0.7-0.4-1c-0.2-0.5-0.4-1-0.6-1.5c-0.4-1-0.7-2-1-3c-1.9-6.2-2.7-12.5-1.3-18.9c0.3-1.2,0.6-2.4,1-3.6
	c0.1-0.3,0.2-0.6,0.3-0.9l0.1-0.4c0,0,0-0.1,0.1-0.1c0-0.1,0.2-0.4,0.2-0.4c0,0,0.4-0.4,0.4-0.4c0,0,0.3-0.1,0.3-0.1l0.2-0.1l0.2,0
	c0.4,0,0.9,0.1,1.3,0.1c0.4,0.1,0.7,0.1,1.1,0.1c0.7,0.1,1.4,0.1,2.1,0.1c4.9,0.2,9.6-0.7,14.1-2.6c8.4-3.5,15.2-10.1,19.8-17.9
	c0.9-1.6,1.8-3.2,2.6-4.9l2-4.9l-4-11.1c-0.2-0.6-0.4-1.2-0.6-1.8c-0.2-0.6-0.4-1.2-0.6-1.8c-0.1-0.4-0.2-0.7-0.4-1.1l-0.1-0.5
	c-0.1-0.4-0.1-0.8-0.2-1.2c0.2,0.3,0.5,0.7,0.7,1c0.1,0.2,0.2,0.4,0.3,0.6c0.2,0.4,0.4,0.8,0.6,1.3c0.2,0.4,0.4,0.9,0.6,1.3
	c0.4,0.9,0.8,1.7,1.1,2.6c0.5,1.1,1,2.3,1.5,3.4c0.2,0.6,0.5,1.1,0.7,1.7c0.2,0.6,0.5,1.1,0.7,1.7c0.3,0.6,0.5,1.1,0.7,1.7
	c0.3,0.6,0.6,1.1,0.7,1.7l0,0.3c0,0.1,0,0.3,0,0.4c0,0.1,0,0.1-0.1,0.2c-0.1,0.3-0.1,0.5-0.2,0.8c0,0.1,0,0.1-0.1,0.2
	c0,0.1-0.1,0.3-0.1,0.4c-0.1,0.3-0.2,0.5-0.3,0.7c-0.3,0.9-0.6,1.7-1,2.6c-1.1,2.6-2.3,5.2-3.8,7.6c-5.2,8.6-12.9,15.6-22.5,18.9
	c-2.1,0.7-4.2,1.2-6.4,1.6c-1.8,0.3-3.6,0.4-5.3,0.4l-3.9-0.3l-0.7,2.3c-0.3,1.2-0.5,2.4-0.6,3.7c-0.5,4.9,0.4,9.8,1.9,14.5l1.3,3.5
	l4.1,0.2c5.2,0.1,10.5-0.5,15.5-1.9c5.3-1.4,10.3-3.6,15-6.4c2.6-1.6,5.1-3.4,7.4-5.4c3.1-2.7,6-5.6,8.5-8.8
	c2.2-2.8,4.3-5.8,6.1-8.9c10.2-17.8,12.6-39.7,6.5-59.3c-1.9-6.3-4.7-12.3-8.2-17.8c-4.1-6.5-9.1-12.3-14.8-17.3
	c-1.7-1.5-3.4-2.9-5.1-4.3c-1.2-0.9-2.4-1.9-3.7-2.8c-1.1-0.8-2.1-1.5-3.2-2.3c-0.4-0.3-0.9-0.6-1.3-0.9c-0.2-0.1-0.3-0.2-0.5-0.3
	c-0.1-0.1-0.3-0.3-0.5-0.4l-0.3-0.3c0.1,0,0.3,0.1,0.4,0.1c0.2,0.1,0.4,0.1,0.6,0.2c0.2,0.1,0.4,0.2,0.6,0.3
	c0.6,0.3,1.2,0.6,1.8,0.9c1.2,0.6,2.3,1.3,3.4,2c1.7,1,3.3,2.1,4.8,3.2c2.7,1.9,5.4,4.1,7.8,6.3c1.7,1.6,3.5,3.3,5.1,5
	c1.9,2.1,3.6,4.2,5.3,6.4c3,4.1,5.7,8.5,7.8,13.1c0.9,1.9,1.7,3.9,2.5,5.9c2.3,6.3,3.7,12.8,4.3,19.5c1.5,17.9-3.3,36.3-13.7,51
	c-6.3,8.8-14.5,16.2-24.2,21c-1.2,0.6-2.5,1.2-3.7,1.7c-3.9,1.6-7.8,2.7-11.9,3.5c-4,0.7-8.2,1.1-12.3,0.9
	C198.1,286,197.1,285.9,196,285.9z"/>
<path fill-rule="evenodd" clip-rule="evenodd" fill="#FFFAF2" d="M238.5,70.2c0-21.8-16-37.8-51.7-37.8c-35.7,0-51.7,16-51.7,37.8
	c0,21.8-3.7,79.4,51.7,79.4C242.2,149.6,238.5,92.1,238.5,70.2z"/>
<path fill-rule="evenodd" clip-rule="evenodd" fill="#E0E3E5" d="M167,147.9c-3.2-1-6.4-2.5-9.3-4.2c-2.4-1.4-4.6-3.1-6.7-5
	c-11-10.1-15.5-25.2-17.2-39.6c-0.4-3.1-0.6-6.1-0.8-9.2c-0.2-3.2-0.2-6.4-0.3-9.7c0-3,0-5.9,0.1-8.9c0-1.4,0-2.8,0.1-4.2
	c0.1-1.6,0.3-3.2,0.5-4.7c1.4-8.4,5.6-15.7,12.2-21.1c9-7.3,20.8-10.1,32.1-11c2.1-0.2,4.3-0.2,6.4-0.3c3.7,0,7.4,0.1,11.1,0.4
	c2.4,0.2,4.7,0.5,7.1,0.9c6.3,1.1,12.6,3,18.2,6.1c3,1.7,5.8,3.7,8.2,6.1c4.8,4.7,8,10.7,9.2,17.3c0.3,1.7,0.5,3.6,0.5,5.3
	c0,0.5,0,1.1,0,1.6c0,0.2,0,0.4,0,0.6c0,0.2-0.1,0.4-0.1,0.6c0,0.1-0.1,0.3-0.1,0.4c0.3,1,0.3,2,0.4,3.1c0.1,1.1,0.1,2.3,0.2,3.4
	c0.2,4.2,0.3,8.4,0.2,12.7c-0.1,2.4-0.2,4.7-0.3,7.1c-0.2,2.2-0.4,4.5-0.7,6.7c-0.3,2-0.6,4.1-1,6.1c-2.3,11.5-7,22.7-15.8,30.6
	c-1.5,1.3-3,2.5-4.6,3.6c-3.3,2.2-6.9,3.9-10.6,5.1c-4.3,1.4-8.8,2.3-13.4,2.6c-2,0.2-3.9,0.2-5.9,0.3
	C179.8,150.7,173.3,149.9,167,147.9z M202.5,145.1c3.4-0.9,6.7-2.2,9.7-3.9c2.2-1.2,4.3-2.6,6.2-4.3c10.7-9,15.2-22.8,17.3-36.3
	c1.1-6.8,1.5-13.6,1.7-20.4c0.1-1.4,0.1-2.9,0.1-4.3c0-0.7,0-1.3,0.1-2c0-0.8,0.1-1.6,0.1-2.3c0-0.4,0-0.8,0.1-1.1
	c0-0.3,0.1-0.7,0.2-1.1c-0.3-0.9-0.3-1.9-0.5-2.8c-0.1-1-0.3-2.1-0.5-3.1c-0.6-3.3-1.7-6.7-3.3-9.7c-1-1.9-2.2-3.8-3.6-5.5
	c-1-1.2-2-2.3-3.1-3.3c-5.7-5.2-13-8.2-20.4-9.9c-2.1-0.5-4.2-0.8-6.3-1.1c-2.2-0.3-4.5-0.5-6.7-0.6l-7.3-0.2l-7.6,0.3
	c-1.9,0.1-3.9,0.4-5.8,0.7c-10.9,1.5-22.4,5.6-29.5,14.4c-0.9,1.1-1.7,2.3-2.4,3.5c-1,1.7-1.9,3.5-2.5,5.5
	c-1.3,3.8-1.9,7.8-1.9,11.9c0,4.2-0.1,8.5,0,12.7c0,2.8,0.1,5.6,0.3,8.4c0.1,2.3,0.3,4.7,0.6,7c1.6,14.2,5.8,29.2,16.9,38.9
	c1.4,1.2,2.9,2.3,4.4,3.3c3.3,2.1,6.9,3.7,10.7,4.8c2.7,0.8,5.5,1.4,8.3,1.7l8.5,0.5l8.1-0.4C197.3,146.3,199.9,145.8,202.5,145.1z"
	/>
<path fill-rule="evenodd" clip-rule="evenodd" fill="#FAF0E8" d="M138.7,79.4c3.1-1.8,7.8-1.7,7.8,1.6c15.5-4.4,27.7-11.6,39.8-21.9
	l4,8c-13,11.1-26.2,18.7-43.4,22.9c1.7,23.8,9.8,53.3,47.2,54.4c-2.4,0.3-5,0.4-7.7,0.4C141.9,144.8,138.8,104.2,138.7,79.4z"/>
<path fill-rule="evenodd" clip-rule="evenodd" fill="#E0E3E5" d="M186.5,136.1c-1.9,0-3.1-1.4-3.1-0.7s0.5,2,3.1,2
	c2.5,0,3.1-1.3,3.1-2S188.4,136.1,186.5,136.1z"/>
<path fill-rule="evenodd" clip-rule="evenodd" fill="#E0E3E5" d="M187.4,131.9l-0.9,0l-0.9-0.1l-0.9-0.1l-0.9-0.1l-0.9-0.1l-0.9-0.2
	L181,131l-0.9-0.3l-0.9-0.3l-0.9-0.3l-0.9-0.4l-0.9-0.4l-0.9-0.5l-0.8-0.5l-0.8-0.6l-0.4-0.4l-0.2-0.2l-0.1-0.1v-0.3l0.1-0.1
	l0.1-0.1c0.1-0.1,0.6-0.1,0.7-0.1c0.7,0,1.4,0.1,2.1,0.2c1.2,0.2,2.3,0.4,3.5,0.6c2.2,0.4,4.3,0.6,6.5,0.7c2.1,0.1,4.2-0.1,6.3-0.3
	c1.4-0.2,2.8-0.5,4.2-0.7c0.9-0.2,1.7-0.3,2.6-0.4c0.1,0,0.6,0,0.7,0.1l0.1,0.1l0.1,0.1v0.3l-0.1,0.1l-0.1,0.2l-0.3,0.4l-0.7,0.6
	l-0.8,0.5l-0.8,0.5l-0.8,0.4l-0.8,0.4l-0.9,0.3l-0.9,0.3l-0.9,0.3l-0.9,0.2l-0.9,0.2l-0.9,0.2l-0.9,0.1l-0.9,0.1l-0.9,0.1
	L187.4,131.9z"/>
<path fill-rule="evenodd" clip-rule="evenodd" fill="#E0E3E5" d="M171.2,129.2l-0.4-0.1l-0.2-0.1l-0.1-0.1l-0.1-0.1l-0.2-0.2
	c-0.3-0.4-0.4-0.9-0.3-1.4c0-0.2,0-0.4,0.1-0.6c0.3-1,0.7-1.7,1.5-2.3c0.5-0.4,1-0.6,1.6-0.6l0.3,0.1l0.1,0.1l0.2,0.1l0.2,0.2
	l0.3,0.4l0.1,0.4l0.1,0.4l0,0.4l-0.1,0.4l-0.1,0.4l-0.2,0.4l-0.2,0.4l-0.3,0.4l-0.3,0.3l-0.4,0.3l-0.4,0.3l-0.5,0.2L171.2,129.2z"/>
<path fill-rule="evenodd" clip-rule="evenodd" fill="#E0E3E5" d="M201.5,129.2l-0.6-0.1l-0.5-0.2l-0.4-0.3l-0.4-0.3l-0.3-0.3
	l-0.3-0.4l-0.2-0.4l-0.2-0.4l-0.1-0.4l-0.1-0.4l0-0.4l0.1-0.4l0.1-0.4l0.3-0.4l0.2-0.2l0.2-0.1l0.1-0.1l0.1,0l0.2-0.1
	c0.5-0.1,0.7,0.1,1.2,0.3c0.1,0.1,0.3,0.2,0.4,0.3c0.9,0.7,1.5,1.7,1.6,2.8c0.1,0.6,0,1-0.3,1.5l-0.2,0.2l-0.1,0.1l-0.1,0.1
	l-0.2,0.1L201.5,129.2z"/>
<circle fill-rule="evenodd" clip-rule="evenodd" fill="#F2FAFA" cx="162.6" cy="97.5" r="14"/>
<path fill-rule="evenodd" clip-rule="evenodd" fill="#D9E0E5" d="M157.9,90.3c2.2-2,5.7-1.9,7.8,0.3c2.1,2.2,1.9,5.7-0.3,7.8
	c-2.2,2.1-5.7,1.9-7.8-0.3C155.5,95.9,155.7,92.4,157.9,90.3z"/>
<path fill-rule="evenodd" clip-rule="evenodd" fill="#FAF0E8" d="M189.7,94.8c1.9,6,4.8,11.9,3.6,18.2l-4.9,0.4
	C190,111.7,190,104,189.7,94.8z"/>
<path fill-rule="evenodd" clip-rule="evenodd" fill="#E0E3E5" d="M183.5,116.3c-0.8-0.5-1.6-1.2-1.9-2.1c-0.1-0.3-0.2-0.7,0-1
	l0.1-0.1c0.2-0.2,0.4-0.3,0.7-0.3c0.6,0,1.2,0.1,1.8,0.2c0.7,0.1,1.3,0.3,2,0.3c0.5,0.1,0.9,0.1,1.4,0.1c1,0,1.9-0.2,2.8-0.4
	c0.5-0.1,1-0.2,1.6-0.2c0.3,0,0.5,0.1,0.7,0.3l0.1,0.1c0.2,0.4,0.1,0.8-0.1,1.2c-0.3,0.7-1,1.4-1.6,1.9
	C188.8,117.8,185.8,117.8,183.5,116.3z"/>
<path fill-rule="evenodd" clip-rule="evenodd" fill="#E0E3E5" d="M149.2,81.5L149.2,81.5c-0.1-0.1-0.2-0.1-0.2-0.2l0-0.1
	c0-0.1,0-0.1,0-0.2c0.1-0.5,0.4-0.7,0.7-1.1c0.2-0.3,0.5-0.5,0.8-0.8c0.7-0.5,1.3-1,2.1-1.4c3.2-1.7,6.9-2.5,10.5-2.2
	c0.7,0.1,1.5,0.1,2.2,0.3c1,0.2,1.9,0.5,2.8,1c0.1,0.1,0.3,0.1,0.4,0.2c0.1,0.1,0.5,0.4,0.5,0.5l0,0.1c0,0.1,0,0.1,0,0.2l-0.1,0.1
	c-0.2,0.3-0.5,0.4-0.9,0.5c-0.8,0.2-1.7,0.3-2.5,0.4c-0.6,0.1-1.2,0.1-1.9,0.2c-1.3,0.1-2.6,0.3-3.9,0.5c-2,0.3-4,0.8-6,1.2
	c-1.1,0.3-2.3,0.6-3.4,0.7C150.1,81.6,149.5,81.7,149.2,81.5z"/>
<path fill-rule="evenodd" clip-rule="evenodd" fill="#E0E3E5" d="M224,82.6c-0.4,0-0.7-0.1-1.1-0.1c-0.7-0.1-1.3-0.3-2-0.4
	c-1.2-0.3-2.3-0.6-3.5-0.8c-0.9-0.2-1.8-0.4-2.8-0.5c-2-0.3-4-0.5-6-0.7c-0.8-0.1-1.6-0.1-2.4-0.3c-0.1,0-0.3-0.1-0.4-0.1
	c-0.2-0.1-0.5-0.2-0.7-0.3c0,0-0.1-0.1-0.1-0.1c0,0,0-0.1-0.1-0.1l0-0.3l0.1-0.1l0.1-0.2l0.3-0.3l0.6-0.4l0.7-0.3l0.7-0.2l0.7-0.2
	l0.7-0.2l0.7-0.1l0.7-0.1l0.7-0.1l0.7,0l0.7,0h0.7l0.7,0l0.7,0.1l0.7,0.1l0.7,0.1l0.7,0.1l0.7,0.2l0.7,0.2l0.7,0.2l0.6,0.2l0.6,0.2
	l0.6,0.3l0.6,0.3l0.6,0.3l0.6,0.3l0.6,0.4l0.6,0.4l1.1,0.9l0.5,0.6l0.2,0.3l0.1,0.2l0,0.1l0,0.3l-0.1,0.1
	C224.7,82.7,224.4,82.6,224,82.6z"/>
<path fill-rule="evenodd" clip-rule="evenodd" fill="#FAEBD4" d="M186.1,8.9l0.2,50.1c-18.5,15.8-37.3,24.4-67.6,26.5
	C123.3,43.2,151.6,10.3,186.1,8.9z"/>
<path fill-rule="evenodd" clip-rule="evenodd" fill="#FFF5D4" d="M194.7,10.3c-3.4-0.9-9.3,1.3-9.4,4.8L185.1,59
	c16.3,15.8,32.9,24.4,59.7,26.5C241.2,47.7,220.8,17.3,194.7,10.3z"/>
<path fill-rule="evenodd" clip-rule="evenodd" fill="#FFF5D4" d="M185.3,34.4c24.7,20.6,20.1,12.7,0.2,21.9
	c-15.8,13.5-31.9,20.9-57.9,22.7C131.5,42.8,181.1-12.1,185.3,34.4z"/>
<circle fill-rule="evenodd" clip-rule="evenodd" fill="#F2FAFA" cx="160.6" cy="93.4" r="1.5"/>
<path fill-rule="evenodd" clip-rule="evenodd" fill="#F2FAFA" d="M201.2,107.4c-5.5-5.5-5.5-14.3,0-19.8c5.5-5.5,14.3-5.5,19.8,0
	c5.5,5.5,5.5,14.3,0,19.8C215.5,112.9,206.7,112.9,201.2,107.4z"/>
<path fill-rule="evenodd" clip-rule="evenodd" fill="#D9E0E5" d="M208.4,90.3c2.2-2,5.7-1.9,7.8,0.3c2.1,2.2,1.9,5.7-0.3,7.8
	c-2.2,2.1-5.7,1.9-7.8-0.3C206,95.9,206.1,92.4,208.4,90.3z"/>
<circle fill-rule="evenodd" clip-rule="evenodd" fill="#F2FAFA" cx="211.1" cy="93.4" r="1.5"/>
<path fill-rule="evenodd" clip-rule="evenodd" fill="#E0E3E5" d="M150.9,109.2c-6.4-6.4-6.4-16.9,0-23.3s16.9-6.4,23.3,0
	c6.4,6.4,6.4,16.9,0,23.3C167.8,115.6,157.4,115.6,150.9,109.2z M171.4,106.3c4.9-4.9,4.9-12.8,0-17.7c-4.9-4.9-12.8-4.9-17.7,0
	c-4.9,4.9-4.9,12.8,0,17.7C158.6,111.2,166.5,111.2,171.4,106.3z"/>
<path fill-rule="evenodd" clip-rule="evenodd" fill="#E0E3E5" d="M199.2,109.2c-6.4-6.4-6.4-16.9,0-23.3c6.4-6.4,16.9-6.4,23.3,0
	s6.4,16.9,0,23.3C216.1,115.6,205.6,115.6,199.2,109.2z M219.7,106.3c4.9-4.9,4.9-12.8,0-17.7c-4.9-4.9-12.8-4.9-17.7,0
	c-4.9,4.9-4.9,12.8,0,17.7C206.9,111.2,214.8,111.2,219.7,106.3z"/>
<path fill-rule="evenodd" clip-rule="evenodd" fill="#E0E3E5" d="M135.1,98c0-1.1,0.9-2,2-2h12c1.1,0,2,0.9,2,2c0,1.1-0.9,2-2,2h-12
	C136,100,135.1,99.1,135.1,98z"/>
<path fill-rule="evenodd" clip-rule="evenodd" fill="#E0E3E5" d="M222.1,98c0-1.1,0.9-2,2-2h12c1.1,0,2,0.9,2,2c0,1.1-0.9,2-2,2h-12
	C223,100,222.1,99.1,222.1,98z"/>
<path fill-rule="evenodd" clip-rule="evenodd" fill="#E0E3E5" d="M173.1,90c0-1.1,0.9-2,2-2c8.1-1.9,15.7-2,23,0c1.1,0,2,0.9,2,2
	c0,1.1-0.9,2-2,2c-8.3-1.4-16-1.4-23,0C174,92,173.1,91.1,173.1,90z"/>
<polygon fill-rule="evenodd" clip-rule="evenodd" fill="#E0E3E5" points="237.8,85.2 236.6,85.1 235.4,85 234.2,84.9 233.1,84.8 
	231.9,84.6 230.8,84.4 229.6,84.3 228.5,84.1 226.3,83.6 224.2,83.1 222.1,82.6 220,82 217.9,81.3 215.9,80.7 214,80 212.1,79.2 
	210.2,78.4 208.3,77.6 206.5,76.7 204.7,75.8 203,74.8 201.2,73.8 199.5,72.8 197.9,71.7 196.2,70.6 194.6,69.5 193,68.3 191.4,67 
	189.9,65.7 188.4,64.4 186.9,63 185.4,61.6 184,60.1 182.6,58.6 182,57.7 181.7,57.3 181.6,57 181.6,56.7 181.9,56.7 182.2,56.7 
	182.7,57 183.6,57.5 185.3,58.7 186.9,59.9 188.5,61 190.2,62.2 191.8,63.3 193.4,64.4 195,65.5 196.6,66.5 198.2,67.5 199.9,68.5 
	201.5,69.5 203.2,70.4 204.9,71.4 206.5,72.2 208.3,73.1 210,73.9 211.8,74.8 213.6,75.5 215.4,76.3 217.3,77.1 219.2,77.8 
	221.1,78.5 223.1,79.1 225.1,79.8 227.1,80.5 229.2,81.1 230.3,81.4 231.4,81.7 232.5,82 233.5,82.3 234.7,82.7 235.8,83 
	236.9,83.3 238.1,83.7 239.2,84.1 239.8,84.3 240.1,84.5 240.3,84.8 240,85 239.7,85.1 239,85.2 "/>
<polygon fill-rule="evenodd" clip-rule="evenodd" fill="#E0E3E5" points="130.1,85.3 128.9,85.3 127.8,85.2 127.2,85.1 126.9,85.1 
	126.6,84.8 126.8,84.5 127.1,84.4 127.6,84.1 128.7,83.8 129.8,83.5 130.9,83.2 133.1,82.7 135.2,82.2 137.3,81.6 139.3,81.1 
	141.3,80.6 143.2,80 145.2,79.5 147,78.9 148.9,78.3 150.7,77.7 152.5,77 154.3,76.4 156,75.7 157.7,75 159.4,74.2 161.1,73.5 
	162.7,72.7 164.4,71.9 166,71.1 167.6,70.2 169.2,69.3 170.8,68.4 172.4,67.5 174,66.6 175.6,65.6 177.2,64.6 178.8,63.6 
	180.4,62.6 182.1,61.7 183,61.2 183.5,61 183.7,60.9 184,61 184,61.3 183.9,61.6 183.6,62 183,62.7 181.6,64.2 180.2,65.5 
	178.7,66.7 177.2,68 175.7,69.1 174.2,70.3 172.6,71.3 171.1,72.4 169.5,73.4 167.8,74.4 166.2,75.3 164.5,76.2 162.8,77 
	161.1,77.9 159.3,78.6 157.5,79.4 155.7,80.1 153.8,80.8 152,81.4 150.1,82 148.1,82.5 146.1,83 144.1,83.5 142.1,83.9 140,84.3 
	137.9,84.6 135.7,84.9 133.5,85.1 131.2,85.3 "/>
<polygon fill-rule="evenodd" clip-rule="evenodd" fill="#E0E3E5" points="186.1,260.9 185.9,260.6 185.8,260.3 185.6,259.8 
	185.4,258.7 185.1,256.4 184.8,251.9 184.4,242.9 184.2,233.9 184.1,224.9 184.2,215.9 184.4,206.9 184.8,197.9 185.2,193.4 
	185.4,191.1 185.6,190 185.8,189.5 185.9,189.2 186.1,188.9 186.4,189.2 186.5,189.5 186.6,190 186.8,191.1 187.1,193.4 
	187.4,197.9 187.9,206.9 188.1,215.9 188.1,224.9 188.1,233.9 187.9,242.9 187.4,251.9 187.1,256.4 186.8,258.7 186.6,259.8 
	186.5,260.3 186.4,260.6 "/>
<path fill-rule="evenodd" clip-rule="evenodd" fill="#FFFADE" d="M132.7,148c-0.3-0.5-0.6-0.9-0.9-1.4c-0.1-0.2-0.2-0.3-0.3-0.5
	c-9.3-14.8-14.4-33.1-14.4-51.9c0-47,31.2-85.3,69.5-85.3c0.3,0,0.7,0,1,0c-37.9,0.7-68.5,38.7-68.5,85.3c0,18.9,5.1,37.1,14.4,51.9
	c0.1,0.1,0.2,0.3,0.3,0.5c0.3,0.5,0.6,0.9,0.9,1.4C136.5,150.5,135.3,151.5,132.7,148z"/>
<path fill-rule="evenodd" clip-rule="evenodd" fill="#E0E3E5" d="M188.6,271.1l-42-6.7c-0.5-0.1-0.9-0.7-0.7-1.3l18.7-67.2
	c0.1-0.5,0.7-0.9,1.3-0.7l53.1,14.7c0.5,0.1,0.9,0.7,0.7,1.3l-8.1,29.2l-21.6,30C189.7,270.9,189.1,271.2,188.6,271.1z"/>
<path fill-rule="evenodd" clip-rule="evenodd" fill="#E0E3E5" d="M178.5,205.9l2.5-8.9l7.6,2.1l0.4-1.5c0.7-2.4,3.1-3.8,5.5-3.1
	c2.4,0.7,3.8,3.1,3.1,5.5l-0.4,1.5l7.7,2.1l-2.5,8.9L178.5,205.9z M195.5,199.4c0.3-1.2-0.4-2.4-1.6-2.8c-1.2-0.3-2.4,0.4-2.8,1.6
	c-0.3,1.2,0.4,2.4,1.6,2.8C193.9,201.3,195.2,200.6,195.5,199.4z"/>
<path fill-rule="evenodd" clip-rule="evenodd" fill="#FFFAF2" d="M183.8,244.8c13.3-17.4,24.1-15.9,17-4c-1.8,3.6,2,3.7,9.5,1.5
	c21.2-6.4,15.7,31.4-23,22.3C187.7,258.2,189.3,251.7,183.8,244.8z"/>
<path fill-rule="evenodd" clip-rule="evenodd" fill="#E0E3E8" d="M194.7,266.9c-1.9-0.2-3.8-0.5-5.7-0.9c-1.3-0.3-2.5-0.6-3.8-0.9
	c0.3-4.4,1.4-8.8,0.8-13.3c-0.2-1.2-0.5-2.5-0.9-3.7c-0.2-0.4-0.3-0.9-0.5-1.3c-0.1-0.3-0.3-0.6-0.4-0.9c-0.1-0.2-0.2-0.5-0.3-0.7
	c-0.1-0.3-0.2-0.5-0.3-0.8c0-0.1-0.1-0.1-0.1-0.2c0,0-0.1-0.3-0.1-0.3c0-0.2,0.1-0.4,0.1-0.5c0-0.1,0.1-0.2,0.1-0.3
	c0.2-0.4,0.5-0.8,0.7-1.2c0.2-0.3,0.4-0.7,0.7-1c0.5-0.7,1-1.4,1.5-2.1c2.3-2.9,5.1-5.6,8.2-7.6c1.5-0.9,3.3-1.8,5.1-1.8
	c0.7,0,1.3,0.1,1.9,0.3c0.4,0.1,0.7,0.3,1.1,0.6c2,1.6,1.6,4.5,0.9,6.7c-0.2,0.6-0.4,1.1-0.7,1.7c-0.3,0.7-0.7,1.5-1.1,2.2
	c0,0,0-0.1,0.1-0.1l-0.1,0.3l0.9,0.1c0.5,0,0.9-0.1,1.3-0.2c1.7-0.3,3.5-0.7,5.2-1.3c2.6-0.8,5.3-1.2,8-0.5c0.4,0.1,0.9,0.3,1.3,0.5
	c0.6,0.2,1.2,0.6,1.7,1c0.6,0.4,1.1,0.9,1.6,1.5c0.5,0.7,0.9,1.3,1.2,2.1c0.5,1.2,0.8,2.6,0.8,3.9c0,1.3-0.2,2.7-0.6,4
	c-0.7,2.6-2.2,5-4.1,7c-1.5,1.6-3.2,2.9-5.1,4C208.6,266.8,201.5,267.6,194.7,266.9z M209.5,261.5c2.3-1,4.4-2.2,6.2-4
	c2.3-2.1,4.2-5.1,4.4-8.3c0.1-0.9,0-1.9-0.3-2.8c-0.1-0.4-0.3-0.8-0.5-1.2c-1.1-1.7-2.8-2.3-4.7-2.4c-1.4,0-2.8,0.2-4.1,0.6
	c-0.6,0.2-1.3,0.3-1.9,0.5c-0.7,0.2-1.5,0.4-2.3,0.5c-0.6,0.1-1.1,0.2-1.7,0.3c-0.4,0.1-0.8,0.1-1.2,0.1c-1.4,0.1-3,0-4.1-1
	c-0.2-0.1-0.4-0.4-0.5-0.6l-0.1-0.2c-0.2-0.3-0.3-0.7-0.3-1c-0.2-1,0.2-2,0.6-2.9c0.2-0.3,0.4-0.6,0.5-0.9c0.6-1.1,1.1-2.1,1.5-3.3
	c0.1-0.2,0.1-0.4,0.1-0.6c0.1-0.4,0.2-1.5-0.3-1.8c-0.5-0.2-1.2-0.1-1.8,0c-1.2,0.3-2.4,0.8-3.5,1.5c-2.9,1.7-5.5,4-8,6.3
	c-0.5,0.5-0.9,0.9-1.4,1.4c-0.2,0.2-0.5,0.5-0.7,0.7c-0.4,0.3-0.7,0.7-1.1,1c-0.1,0.1-0.2,0.2-0.3,0.3l-0.5,0.2l0.4,0.3
	c0.1,0.1,0.2,0.1,0.3,0.2c0.1,0.1,0.1,0.1,0.2,0.2c0.2,0.2,0.4,0.4,0.5,0.6c0.7,0.9,1.4,1.8,1.9,2.9c1.3,2.6,1.8,5.5,1.8,8.4
	c0,1.2,0,2.5-0.1,3.7l-0.1,2.4l2.6,0.4C197.1,264,203.8,263.9,209.5,261.5z"/>
<polygon fill-rule="evenodd" clip-rule="evenodd" fill="#F5F7FA" points="126.8,274.9 126.6,242.3 118.6,233.6 118.3,269.4 "/>
<path fill-rule="evenodd" clip-rule="evenodd" fill="#F5F7FA" d="M167.4,274.9c-17.6-5.9-31-9.2-48.1-21.7l1.1-42.5l56.9,41.1
	L167.4,274.9z"/>
<path fill-rule="evenodd" clip-rule="evenodd" fill="#FFFFFF" d="M144.9,151.8c-70.4,47.6-27,125.5,39.7,114.3
	c3-8.7,3.6-16-0.8-23.3c-62.8-8.1-56.7-36.8-48.3-64L144.9,151.8z"/>
<polygon fill-rule="evenodd" clip-rule="evenodd" fill="#F5F7FA" points="142.4,202.7 146.4,230.1 137.1,217.8 "/>
<path fill-rule="evenodd" clip-rule="evenodd" fill="#E0E3E5" d="M133.3,255.8c-4.1-2.8-7.8-6-11.2-9.7c-3.9-4.2-7.2-9.2-9.6-14.4
	c-2-4.3-3.5-8.8-4.4-13.5c-2.2-11.7-0.4-23.8,4.7-34.6c3.6-7.6,8.6-14.4,14.5-20.4c3.4-3.4,7.1-6.5,11-9.3c1.2-0.9,2.5-1.8,3.9-2.6
	c0.5-0.3,1-0.6,1.5-0.9c0.1-0.1,0.2-0.1,0.3-0.2c0.2-0.1,0.4-0.2,0.6-0.2l0.4-0.1c-0.2,0.3-0.4,0.5-0.7,0.8
	c-0.1,0.1-0.3,0.3-0.5,0.4c-0.3,0.3-0.6,0.5-0.9,0.8c-0.9,0.7-1.8,1.5-2.7,2.2c-0.9,0.8-1.9,1.6-2.8,2.4c-1.7,1.5-3.4,3-5,4.6
	c-10.4,10.2-18.5,22.7-21,37.2c-1,5.6-1,11.3-0.2,16.9c0.7,4.5,1.9,8.8,3.7,13c1.6,3.7,3.6,7.2,6,10.5c9,12.5,23,20.7,38,23.5
	c6.3,1.2,12.6,1.5,19,1l5.2-0.6l0.9-2.9c1.1-4,1.6-8.2,0.5-12.3c-0.3-1-0.6-1.9-1-2.9l-0.8-1.7l-4.4,0.6c-1.9,0.1-3.9,0.1-5.8,0
	c-10.7-0.8-20.8-5.6-28.2-13.4c-2.4-2.5-4.5-5.3-6.3-8.3c-0.5-0.8-0.9-1.6-1.3-2.4c-0.2-0.4-0.4-0.7-0.5-1.1l0-0.1l0-0.1
	c0-0.6,0.5-1.7,0.6-1.9c0.2-0.5,0.4-1,0.6-1.5l1.2-3c0.5-1.3,1-2.5,1.5-3.7c0.4-0.9,0.7-1.7,1.1-2.6c0.2-0.4,0.3-0.7,0.5-1.1
	c0.1-0.2,0.2-0.4,0.3-0.5c0.2-0.3,0.4-0.6,0.6-0.9c0,0.3-0.1,0.7-0.1,1l-0.1,0.4c-0.1,0.5-0.2,0.9-0.4,1.4c-0.3,1.2-0.7,2.3-1,3.5
	c-0.3,1-0.6,2.1-0.9,3.1l-1.8,5.7l2.1,3.5c5.9,8.6,14.9,15.2,25.1,17.7c4.1,1,8.1,1.3,12.3,1.1c1.1-0.1,2.1-0.2,3.2-0.3
	c0.4-0.1,0.7-0.1,1.1-0.2c0.4-0.1,0.7-0.1,1.1-0.2l0.4-0.1c0.1,0,0.2,0,0.3,0l0.2,0c0.1,0,0.2,0.1,0.3,0.1c0.1,0,0.1,0,0.2,0.1
	c0.1,0,0.4,0.3,0.5,0.3c0.1,0,0.1,0.1,0.1,0.2c0.2,0.2,0.3,0.3,0.4,0.5c0.2,0.4,0.4,0.8,0.7,1.2c0.1,0.2,0.2,0.4,0.3,0.6
	c0.2,0.4,0.4,0.8,0.5,1.2c0.2,0.4,0.3,0.8,0.5,1.2c1,2.7,1.4,5.4,1.4,8.3c0,2.7-0.5,5.3-1.1,7.9c-0.3,1.1-0.6,2.2-1,3.3
	c-0.1,0.4-0.3,0.9-0.5,1.3l-0.1,0.2c0,0.1-0.1,0.2-0.2,0.2l-0.1,0.2l-0.2,0.1c-0.1,0-0.2,0.1-0.3,0.2l-0.2,0.1
	c-0.3,0.1-0.6,0.1-0.9,0.2c-0.4,0.1-0.8,0.1-1.3,0.2c-0.3,0.1-0.7,0.1-1,0.1c-0.3,0.1-0.6,0.1-0.9,0.1c-0.7,0.1-1.5,0.2-2.2,0.2
	c-2.6,0.3-5.1,0.3-7.7,0.3C157.8,267.2,144.4,263.3,133.3,255.8z"/>
<path fill-rule="evenodd" clip-rule="evenodd" fill="#FFFAF2" d="M197.7,264.6c-13.3-17.4-24.1-15.9-17-4c1.8,3.6-1.9,3.7-9.4,1.5
	c-21.2-6.4-15.7,31.4,23,22.3C193.8,278,192.2,271.5,197.7,264.6z"/>
<path fill-rule="evenodd" clip-rule="evenodd" fill="#E0E3E8" d="M162,279.8c-2.5-2.5-4.5-5.8-5.1-9.3c-0.3-1.5-0.3-3.2,0.1-4.7
	c0.2-0.9,0.5-1.7,1-2.5c0.4-0.7,0.9-1.3,1.5-1.9c0.5-0.5,1.1-0.9,1.7-1.3c3.1-1.8,6.9-1.4,10.2-0.4c1.7,0.5,3.5,1,5.3,1.3
	c0.4,0.1,0.8,0.1,1.3,0.1l0.9-0.1l-0.1-0.3l-0.8-1.5c-0.2-0.4-0.4-0.9-0.6-1.3c-0.1-0.3-0.3-0.7-0.4-1c-0.6-1.8-0.9-4,0.1-5.7
	c0.2-0.3,0.5-0.7,0.8-0.9c0.3-0.2,0.5-0.4,0.8-0.5c0.4-0.2,0.8-0.3,1.2-0.3c0.7-0.1,1.5,0,2.2,0.1c1.8,0.4,3.7,1.5,5.2,2.6
	c2.6,1.9,4.9,4.3,6.9,6.8c0.5,0.6,1,1.3,1.4,1.9c0.2,0.3,0.4,0.5,0.5,0.8c0.1,0.1,0.1,0.2,0.2,0.3c0.2,0.3,0.4,0.7,0.6,1.1
	c0,0.1,0.1,0.2,0.1,0.3c0.1,0.2,0.1,0.4,0.1,0.6c-0.1,0.3-0.1,0.6-0.2,0.8c-0.1,0.2-0.2,0.4-0.3,0.6c-0.2,0.5-0.4,0.9-0.6,1.3
	c-0.2,0.5-0.4,1-0.6,1.5c-0.4,1.1-0.7,2.2-0.8,3.3c-0.7,4.5,0.4,9,0.8,13.5c-1,0.2-2.1,0.5-3.1,0.7c-1.9,0.4-3.8,0.8-5.7,1
	C178,287.6,168.5,286.1,162,279.8z M189.5,283l2.9-0.5l-0.2-3.1c-0.3-4.3,0-8.5,2.2-12.3c0.4-0.7,0.9-1.3,1.4-2
	c0.2-0.2,0.3-0.4,0.5-0.6c0.1-0.1,0.1-0.2,0.2-0.2c0.1-0.1,0.2-0.1,0.3-0.2l0.4-0.3l-0.5-0.2c-0.1,0-0.2-0.1-0.2-0.2
	c-0.4-0.3-0.7-0.6-1-0.9c-0.3-0.3-0.5-0.5-0.8-0.8c-0.6-0.6-1.2-1.2-1.8-1.8c-1.5-1.4-3-2.8-4.7-4c-1.1-0.8-2.2-1.6-3.4-2.2
	c-1-0.6-2.2-1.1-3.3-1.3c-0.4-0.1-1.2-0.1-1.5,0.1c-0.5,0.3-0.3,1.3-0.3,1.8c0,0.1,0.1,0.3,0.1,0.4c0,0.1,0.1,0.3,0.1,0.4
	c0.3,1,0.8,2,1.3,2.9c0.2,0.3,0.4,0.7,0.6,1c0.4,0.7,0.7,1.8,0.7,2.6c0,0.3-0.1,0.7-0.2,1l-0.1,0.2c-0.1,0.2-0.2,0.3-0.3,0.5
	c-1.2,1.3-3.1,1.4-4.7,1.3c-0.4,0-0.8-0.1-1.1-0.1c-0.4-0.1-0.8-0.1-1.2-0.2c-0.7-0.1-1.3-0.3-2-0.4c-0.8-0.2-1.6-0.4-2.5-0.6
	c-1.1-0.3-2.2-0.5-3.4-0.6c-2.1-0.1-4.3,0.4-5.5,2.4c-0.3,0.5-0.6,1.2-0.7,1.8c-0.2,0.8-0.2,1.7-0.1,2.5c0.4,3.5,2.5,6.4,5.1,8.7
	c4,3.4,9.3,5,14.5,5.3c1.6,0.1,3.2,0.1,4.8,0.1C186.6,283.3,188,283.2,189.5,283z"/>
</svg>
