<svg xmlns="http://www.w3.org/2000/svg" width="128" height="128"><g clip-rule="evenodd"><path fill="none" d="M18.7 18.7c25-25 65.5-25 90.5 0s25 65.5 0 90.5-65.5 25-90.5 0c-24.9-24.9-24.9-65.5 0-90.5z"/><path fill-rule="evenodd" fill="#B8C7FC" stroke="#141C6B" stroke-width="1.12" stroke-miterlimit="10" d="M108.1 30.6H83.4l-6.7-7.2c-2-2.1-4.8-3.4-7.7-3.4H26.9C23.1 20 13 23.1 13 26.9V101c0 3.8 3.1 6.9 6.9 6.9h88.2c3.8 0 6.9-3.1 6.9-6.9V37.5c.1-3.8-3.1-6.9-6.9-6.9z"/><path fill-rule="evenodd" fill="#B8C7FC" stroke="#141C6B" stroke-width="1.12" stroke-miterlimit="10" d="M108.1 30.6H70.4l-6.7-7.2c-2-2.1-4.8-3.4-7.7-3.4H19.9c-3.8 0-6.9 3.1-6.9 6.9V101c0 3.8 3.1 6.9 6.9 6.9h88.2c3.8 0 6.9-3.1 6.9-6.9V37.5c.1-3.8-3.1-6.9-6.9-6.9z"/><path fill-rule="evenodd" fill="#FFF" stroke="#BACCFC" stroke-width="1.12" stroke-miterlimit="10" d="M108.1 103H55.4L13 96.1V32.5c0-3.8 3.1-6.9 6.9-6.9h88.2c3.8 0 6.9 3.1 6.9 6.9V96c.1 3.9-3.1 7-6.9 7z"/><path fill-rule="evenodd" fill="#D4E3FC" stroke="#141C6B" stroke-width="1.12" stroke-miterlimit="10" d="M108.1 30.6H55.4l-6.7-7.2c-2-2.1-4.8-3.4-7.7-3.4H19.9c-3.8 0-6.9 3.1-6.9 6.9V101c0 3.8 3.1 6.9 6.9 6.9h88.2c3.8 0 6.9-3.1 6.9-6.9V37.5c.1-3.8-3.1-6.9-6.9-6.9z"/><path fill="none" stroke="#141C6B" stroke-width="1.12" stroke-miterlimit="10" d="M47.4 77.5H22.7c-1.9 0-3.4 1.5-3.4 3.4v17.6c0 1.9 1.5 3.4 3.4 3.4h24.7c1.9 0 3.4-1.5 3.4-3.4V80.9c0-1.8-1.5-3.4-3.4-3.4z"/><path fill="none" stroke="#141C6B" stroke-width="1.12" stroke-linecap="round" stroke-linejoin="round" stroke-miterlimit="10" d="M29.3 87.4h11.6m-11.6 5h11.6"/><path d="M88.1 46.2v25M75.6 58.7h25" fill="none" stroke="#FC4730" stroke-width="3" stroke-linecap="round" stroke-linejoin="round" stroke-miterlimit="10"/></g></svg>