<?xml version="1.0" encoding="utf-8"?>
<!-- Generator: Adobe Illustrator 13.0.0, SVG Export Plug-In . SVG Version: 6.00 Build 14948)  -->
<!DOCTYPE svg PUBLIC "-//W3C//DTD SVG 1.1//EN" "http://www.w3.org/Graphics/SVG/1.1/DTD/svg11.dtd">
<svg version="1.1" xmlns="http://www.w3.org/2000/svg" xmlns:xlink="http://www.w3.org/1999/xlink" x="0px" y="0px" width="128px"
	 height="128px" viewBox="0 0 128 128" enable-background="new 0 0 128 128" xml:space="preserve">
<g id="Layer_1">
</g>
<g id="bg">
	<path fill-rule="evenodd" clip-rule="evenodd" fill="#F7FAFF" d="M11.3,27.7c20-29.1,59.9-36.5,89-16.4c29.1,20,36.5,59.9,16.4,89
		c-20,29.1-59.9,36.4-89,16.4C-1.4,96.7-8.7,56.8,11.3,27.7z"/>
</g>
<g id="content">
	<polygon fill-rule="evenodd" clip-rule="evenodd" fill="#E8EBEB" points="125.1,91.2 82.7,11.9 8.8,40.6 61,128 	"/>
	<polygon fill="#3D40B2" points="3.2,32.6 3.4,32.2 3.6,32 4.1,31.7 5.2,31 7.3,29.9 11.6,27.9 20.4,24 29.2,20.3 38.1,16.8 
		47.1,13.3 56,10 65.1,6.9 69.7,5.5 72,4.9 73.2,4.7 73.8,4.6 74.1,4.6 74.5,4.7 74.3,5 74.1,5.2 73.6,5.6 72.5,6.2 70.4,7.3 
		66.1,9.4 57.3,13.3 48.5,16.9 39.6,20.5 30.6,23.9 21.6,27.2 12.6,30.3 8,31.7 5.7,32.3 4.5,32.6 3.9,32.7 3.5,32.7 	"/>
	<polygon fill="#3D40B2" points="74.5,4.7 74.9,4.8 75.1,5.1 75.6,5.6 76.5,6.7 78.1,8.9 81.2,13.3 87.1,22.5 92.8,31.7 98.4,41 
		103.8,50.4 109.2,59.8 114.4,69.4 116.9,74.2 118,76.7 118.5,78 118.7,78.6 118.8,79 118.8,79.4 118.4,79.2 118.1,79 117.7,78.5 
		116.8,77.4 115.2,75.2 112.1,70.7 106.2,61.6 100.5,52.4 94.9,43.1 89.4,33.7 84.1,24.2 78.9,14.7 76.4,9.8 75.3,7.4 74.8,6.1 
		74.5,5.4 74.5,5.1 	"/>
	<polygon fill-rule="evenodd" clip-rule="evenodd" fill="#FFFFFF" points="117.7,88.5 69.9,11 3.6,31.1 63.9,123.5 	"/>
	<polygon fill-rule="evenodd" clip-rule="evenodd" fill="#FFFFFF" points="121.2,83.3 74.5,4.7 4.3,33.2 61.2,119.9 	"/>
	<polygon fill-rule="evenodd" clip-rule="evenodd" fill="#3D40B2" points="3.5,31.3 11.4,43.6 81.3,16.7 73.5,3.6 	"/>
	<polygon fill="#3D40B2" points="4.3,33.2 4.8,33.4 5.1,33.7 5.6,34.3 6.7,35.5 8.7,38.1 12.6,43.3 20,53.9 27.3,64.7 34.5,75.5 
		41.5,86.4 48.4,97.3 55.2,108.4 58.5,114 60,116.9 60.7,118.3 61.1,119.1 61.2,119.5 61.2,120 60.8,119.7 60.5,119.5 59.9,118.9 
		58.9,117.6 56.9,115.1 53,109.8 45.5,99.2 38.3,88.5 31.1,77.7 24,66.8 17.1,55.8 10.4,44.8 7.1,39.1 5.5,36.3 4.8,34.8 4.5,34.1 
		4.4,33.7 	"/>
	<polygon fill="#D4E3FC" points="70.3,115.7 70.8,115.1 71.4,114.7 72.6,113.8 75.1,112.1 80.1,108.8 90.3,102.4 100.6,96.3 
		105.9,93.3 108.5,91.9 109.9,91.3 110.6,90.9 111.4,90.8 110.8,91.4 110.3,91.9 109,92.7 106.6,94.5 101.5,97.8 91.3,104.1 
		81,110.2 75.8,113.2 73.1,114.6 71.8,115.3 71.1,115.6 	"/>
	<polygon fill="#5E59B2" points="47.4,25.8 47.8,25.4 48.2,25.1 49,24.6 50.7,23.7 54.1,22 61,18.9 68.1,16.1 71.6,14.8 73.4,14.2 
		74.4,14 74.8,13.9 75.4,13.9 75,14.3 74.6,14.6 73.8,15.1 72.1,16 68.7,17.7 61.8,20.8 54.7,23.6 51.2,24.9 49.3,25.5 48.4,25.8 
		47.9,25.9 	"/>
	<polygon fill="#E8EBEB" points="54,44.6 54.2,44.3 54.3,44.1 54.7,43.8 55.5,43.2 57.1,42.2 60.5,40.5 67.4,37.3 74.5,34.5 
		78.1,33.3 80,32.8 80.9,32.6 81.4,32.6 81.7,32.6 82,32.7 81.9,33.1 81.7,33.2 81.3,33.6 80.5,34.1 78.9,35.1 75.5,36.9 68.6,40.1 
		61.5,42.8 57.9,44 56.1,44.5 55.1,44.7 54.6,44.8 54.4,44.8 	"/>
	<polygon fill="#E8EBEB" points="57.2,53.9 57.3,53.6 57.3,53.5 57.5,53.2 58,52.8 58.9,52.1 60.8,51 64.8,49.1 68.9,47.5 
		71.1,46.9 72.2,46.8 72.8,46.7 73.1,46.8 73.3,46.8 73.5,47 73.5,47.3 73.4,47.4 73.2,47.7 72.8,48.1 71.9,48.8 69.9,49.9 
		65.9,51.8 61.8,53.4 59.7,54 58.5,54.1 57.9,54.2 57.6,54.1 57.5,54.1 	"/>
	<polygon fill-rule="evenodd" clip-rule="evenodd" fill="#141C6B" points="15.1,23.3 19.9,30.8 62.6,14.4 57.8,6.4 	"/>
	<path fill="#141C6B" d="M38.2,18.2c-0.1,0-0.3,0.1-0.4,0.1c-0.4,0.1-0.8,0.1-1.2,0.1c-0.5,0-1.2-0.2-1.7-0.4
		c-1.2-0.5-2.1-1.4-2.8-2.5c-0.1-0.3-0.2-0.5-0.4-0.8c-0.1-0.2-0.2-0.5-0.2-0.8c-0.1-0.6-0.1-1.2,0-1.9c0.2-1.1,0.9-2.2,2-2.8
		c0.3-0.1,0.5-0.2,0.7-0.3c0.2-0.1,0.5-0.1,0.7-0.2c0.5-0.1,1-0.1,1.5,0c1.9,0.3,3.6,1.7,4.4,3.5c0.8,1.8,0.7,4-1,5.3
		c-0.4,0.3-0.8,0.4-1.2,0.5C38.4,18.2,38.3,18.2,38.2,18.2C38.2,18.2,38.2,18.2,38.2,18.2c0.3-0.1,0.6-0.3,0.9-0.4
		c0.8-0.5,1.2-1.4,1.2-2.3c0-0.2,0-0.5,0-0.6c0-0.2-0.1-0.4-0.1-0.6c-0.1-0.3-0.2-0.5-0.3-0.8c0,0,0,0,0,0.1
		c-0.1-0.1-0.1-0.3-0.2-0.4c-0.2-0.3-0.5-0.7-0.8-1c-0.2-0.1-0.3-0.3-0.5-0.4c-0.5-0.4-1.2-0.7-1.9-0.8c-0.2,0-0.3,0-0.5,0
		c-0.2,0-0.5,0-0.7,0.1c0.1,0,0.1,0,0.1,0c-0.3,0.1-0.6,0.2-0.8,0.3c-0.1,0.1-0.3,0.2-0.4,0.4c-0.3,0.4-0.5,1-0.5,1.5
		c0,0.1,0,0.2,0,0.2c0,0.1,0,0.2,0,0.3c0,0.1,0,0.2,0,0.3c0,0.1,0.1,0.3,0.1,0.4c0,0,0-0.1,0-0.1C34.3,16.4,36.1,18.1,38.2,18.2z"/>
	<polygon fill="#FC5714" points="76,78.5 76.9,77.7 77.8,77.2 79.8,76 83.7,73.9 83.3,74.3 83.3,74.8 80.2,66.4 80.3,65.7 
		80.6,65.3 81.3,65.1 81.8,65.4 92.2,75.5 91.7,75.2 91.1,75.3 90.7,75.7 90.6,76.3 90.2,71.2 90.3,70.8 90.7,70.4 96.3,67.7 
		99.2,66.3 100.6,65.7 101.3,65.4 102.2,65.3 101.6,65.9 100.9,66.3 99.6,67.2 96.9,68.8 91.5,71.9 91.9,71.6 92,71.1 92.5,76.1 
		92.4,76.7 91.9,77 91.4,77.1 90.9,76.9 80.5,66.7 81.1,67 81.7,66.9 82.1,66.4 82.1,65.7 84.8,74.3 84.8,74.9 84.4,75.3 80.3,77.1 
		78.2,77.9 77.1,78.3 	"/>
	<path fill-rule="evenodd" clip-rule="evenodd" fill="#B5C7FC" d="M36.7,89.4l-0.7-6.9c-0.2-2.2-2.7-3.4-4.5-3.1l-4.3,0.8
		c-3,0.6-4.4,2.5-4.1,4.6l0.7,6.6L20.2,92l-0.7-6.6c-0.4-3.9,2.3-7.5,7.3-8.5l4.3-0.9c3.9-0.8,8.3,1.6,8.8,5.8l0.7,6.9L36.7,89.4z"
		/>
	<path fill-rule="evenodd" clip-rule="evenodd" fill="#F2CC42" d="M20.3,108.8c0.2,1.7,1.5,2.9,3.4,2.7l16.8-1.8
		c2.1-0.2,4-1.8,3.8-3.7l-1.6-16.6c-0.2-1.9-2.2-1.9-4.3-1.5l-16.9,2.7c-1.9,0.3-3.1,0.8-2.9,2.5L20.3,108.8L20.3,108.8z"/>
	<path fill-rule="evenodd" clip-rule="evenodd" fill="#141C6B" d="M27.6,98.2c-0.2-1.5,1-3,2.8-3.2c1.7-0.3,3.2,0.8,3.3,2.4
		c0.1,1.1-0.4,2.1-1.6,2.7l0.5,5.1c0.1,0.7-0.3,1.3-1.1,1.4c-0.8,0.1-1.3-0.4-1.4-1.1l-0.5-5.1C28.3,100.1,27.7,99.3,27.6,98.2z"/>
	<path fill-rule="evenodd" clip-rule="evenodd" fill="#E8EBEB" d="M37.9,49c0.9-2,3.5-3.1,5.8-2.6c2.3,0.6,3.5,2.6,2.7,4.5
		c-0.8,1.9-3.3,3.1-5.7,2.6C38.3,53,37.1,50.9,37.9,49z"/>
	<path fill-rule="evenodd" clip-rule="evenodd" fill="#E8EBEB" d="M39.4,59.1c1.9-4.6,7.8-7.2,12.8-6c1.8,0.4,3.3,1.3,4.4,2.4
		L39.1,64C38.7,62.5,38.7,60.8,39.4,59.1z"/>
	<path fill-rule="evenodd" clip-rule="evenodd" fill="#FC5714" d="M60.8,80.9l0.9,0.2l0.3-0.8c0.7-1.8,2.9-2.9,4.9-2.5
		c1.9,0.4,2.9,2.2,2.2,4l-0.3,0.8l-2.6,6.6L59,87.7l-0.9-0.2c-2.1-0.4-3.1-2.2-2.3-4.1C56.5,81.6,58.8,80.5,60.8,80.9z"/>
	<polygon fill="#E8EBEB" points="62.6,106 62.7,105.6 62.8,105.4 63.1,105 63.8,104.4 65.3,103.1 68.4,100.9 74.7,96.7 81.3,92.9 
		84.7,91.2 86.5,90.4 87.4,90.1 87.9,89.9 88.1,89.9 88.5,90 88.4,90.4 88.3,90.6 87.9,91 87.2,91.6 85.8,92.9 82.7,95.1 76.3,99.3 
		69.8,103.1 66.4,104.8 64.6,105.6 63.7,105.9 63.2,106 62.9,106.1 	"/>
	<polygon fill="#E8EBEB" points="92.5,87 92.5,86.7 92.6,86.5 92.8,86.2 93.3,85.7 94.3,84.7 96.5,83 101,80 105.8,77.3 108.3,76.1 
		109.6,75.6 110.3,75.4 110.7,75.4 110.9,75.4 111.1,75.5 111.1,75.8 111,76 110.8,76.3 110.3,76.8 109.3,77.8 107.2,79.5 
		102.6,82.5 97.8,85.2 95.3,86.4 94,86.9 93.3,87.1 93,87.2 92.8,87.1 	"/>
	<polygon fill="#E8EBEB" points="45.4,73.8 45.5,73.4 45.7,73.2 46,72.9 46.8,72.3 48.3,71.2 51.6,69.2 58.3,65.7 65.2,62.5 
		68.8,61 70.6,60.4 71.5,60.2 72,60.1 72.3,60.1 72.6,60.2 72.5,60.6 72.3,60.8 72,61.1 71.2,61.7 69.6,62.8 66.4,64.8 59.7,68.3 
		52.8,71.6 49.2,73 47.4,73.6 46.5,73.8 46,73.9 45.7,73.9 	"/>
</g>
</svg>
