<svg xmlns="http://www.w3.org/2000/svg" width="300" height="300"><path clip-rule="evenodd" fill="none" d="M0 0h300v300H0z"/><path d="M161.2 107.2v-9.1c0-2.5 2-4.5 4.5-4.5h29.1c2.5 0 4.5 2 4.5 4.5v9.1c0 2.5-2 4.5-4.5 4.5h-29.1c-2.5 0-4.5-2-4.5-4.5zm-25.3 0v-9.1c0-2.5 2-4.5 4.5-4.5h12.7c2.5 0 4.5 2 4.5 4.5v9.1c0 2.5-2 4.5-4.5 4.5h-12.7c-2.5 0-4.5-2-4.5-4.5zm-41.9 0v-9.1c0-2.5 2-4.5 4.5-4.5h29.1c2.5 0 4.5 2 4.5 4.5v9.1c0 2.5-2 4.5-4.5 4.5H98.5c-2.5 0-4.5-2-4.5-4.5zm88.2 22.7v-9.1c0-2.5 2-4.5 4.5-4.5h29.1c2.5 0 4.5 2 4.5 4.5v9.1c0 2.5-2 4.5-4.5 4.5h-29.1c-2.5 0-4.5-2-4.5-4.5zm-67.7 0v-9.1c0-2.5 2-4.5 4.5-4.5h55.3c2.5 0 4.5 2 4.5 4.5v9.1c0 2.5-2 4.5-4.5 4.5H119c-2.5 0-4.5-2-4.5-4.5zm-41.4 0v-9.1c0-2.5 2-4.5 4.5-4.5h29.1c2.5 0 4.5 2 4.5 4.5v9.1c0 2.5-2 4.5-4.5 4.5H77.6c-2.5 0-4.5-2-4.5-4.5zM245 152.5v-9.1c0-2.5 2-4.5 4.5-4.5h7.9c2.5 0 4.5 2 4.5 4.5v9.1c0 2.5-2 4.5-4.5 4.5h-7.9c-2.4.1-4.5-2-4.5-4.5zm-41.9 0v-9.1c0-2.5 2-4.5 4.5-4.5h29.1c2.5 0 4.5 2 4.5 4.5v9.1c0 2.5-2 4.5-4.5 4.5h-29.1c-2.5.1-4.5-2-4.5-4.5zm-41.9 0v-9.1c0-2.5 2-4.5 4.5-4.5h29.1c2.5 0 4.5 2 4.5 4.5v9.1c0 2.5-2 4.5-4.5 4.5h-29.1c-2.5.1-4.5-2-4.5-4.5zm-25.3 0v-9.1c0-2.5 2-4.5 4.5-4.5h12.7c2.5 0 4.5 2 4.5 4.5v9.1c0 2.5-2 4.5-4.5 4.5h-12.7c-2.5.1-4.5-2-4.5-4.5zm-41.9 0v-9.1c0-2.5 2-4.5 4.5-4.5h29.1c2.5 0 4.5 2 4.5 4.5v9.1c0 2.5-2 4.5-4.5 4.5H98.5c-2.5.1-4.5-2-4.5-4.5zm-41.9 0v-9.1c0-2.5 2-4.5 4.5-4.5h29.1c2.5 0 4.5 2 4.5 4.5v9.1c0 2.5-2 4.5-4.5 4.5H56.6c-2.5.1-4.5-2-4.5-4.5zm-20.5 0v-9.1c0-2.5 2-4.5 4.5-4.5H44c2.5 0 4.5 2 4.5 4.5v9.1c0 2.5-2 4.5-4.5 4.5h-7.9c-2.5.1-4.5-2-4.5-4.5zm150.6 22.7v-9.1c0-2.5 2-4.5 4.5-4.5h29.1c2.5 0 4.5 2 4.5 4.5v9.1c0 2.5-2 4.5-4.5 4.5h-29.1c-2.5 0-4.5-2-4.5-4.5zm-67.7 0v-9.1c0-2.5 2-4.5 4.5-4.5h55.3c2.5 0 4.5 2 4.5 4.5v9.1c0 2.5-2 4.5-4.5 4.5H119c-2.5 0-4.5-2-4.5-4.5zm-41.4 0v-9.1c0-2.5 2-4.5 4.5-4.5h29.1c2.5 0 4.5 2 4.5 4.5v9.1c0 2.5-2 4.5-4.5 4.5H77.6c-2.5 0-4.5-2-4.5-4.5zm-41.5 0v-9.1c0-2.5 2-4.5 4.5-4.5h29.1c2.5 0 4.5 2 4.5 4.5v9.1c0 2.5-2 4.5-4.5 4.5H36.1c-2.5 0-4.5-2-4.5-4.5zM245 198.9v-9.1c0-2.5 2-4.5 4.5-4.5h7.9c2.5 0 4.5 2 4.5 4.5v9.1c0 2.5-2 4.5-4.5 4.5h-7.9c-2.4 0-4.5-2.1-4.5-4.5zm-41.9 0v-9.1c0-2.5 2-4.5 4.5-4.5h29.1c2.5 0 4.5 2 4.5 4.5v9.1c0 2.5-2 4.5-4.5 4.5h-29.1c-2.5 0-4.5-2.1-4.5-4.5zm-41.9 0v-9.1c0-2.5 2-4.5 4.5-4.5h29.1c2.5 0 4.5 2 4.5 4.5v9.1c0 2.5-2 4.5-4.5 4.5h-29.1c-2.5 0-4.5-2.1-4.5-4.5zm-25.3 0v-9.1c0-2.5 2-4.5 4.5-4.5h12.7c2.5 0 4.5 2 4.5 4.5v9.1c0 2.5-2 4.5-4.5 4.5h-12.7c-2.5 0-4.5-2.1-4.5-4.5zm-41.9 0v-9.1c0-2.5 2-4.5 4.5-4.5h29.1c2.5 0 4.5 2 4.5 4.5v9.1c0 2.5-2 4.5-4.5 4.5H98.5c-2.5 0-4.5-2.1-4.5-4.5zm-41.9 0v-9.1c0-2.5 2-4.5 4.5-4.5h29.1c2.5 0 4.5 2 4.5 4.5v9.1c0 2.5-2 4.5-4.5 4.5H56.6c-2.5 0-4.5-2.1-4.5-4.5zm-20.5 0v-9.1c0-2.5 2-4.5 4.5-4.5H44c2.5 0 4.5 2 4.5 4.5v9.1c0 2.5-2 4.5-4.5 4.5h-7.9c-2.5 0-4.5-2.1-4.5-4.5zm150.6 22.6v-9.1c0-2.5 2-4.5 4.5-4.5h29.1c2.5 0 4.5 2 4.5 4.5v9.1c0 2.5-2 4.5-4.5 4.5h-29.1c-2.5 0-4.5-2-4.5-4.5zm-67.7 0v-9.1c0-2.5 2-4.5 4.5-4.5h55.3c2.5 0 4.5 2 4.5 4.5v9.1c0 2.5-2 4.5-4.5 4.5H119c-2.5 0-4.5-2-4.5-4.5zm-41.4 0v-9.1c0-2.5 2-4.5 4.5-4.5h29.1c2.5 0 4.5 2 4.5 4.5v9.1c0 2.5-2 4.5-4.5 4.5H77.6c-2.5 0-4.5-2-4.5-4.5zm88.1 22.7v-9.1c0-2.5 2-4.5 4.5-4.5h29.1c2.5 0 4.5 2 4.5 4.5v9.1c0 2.5-2 4.5-4.5 4.5h-29.1c-2.5 0-4.5-2-4.5-4.5zm-25.3 0v-9.1c0-2.5 2-4.5 4.5-4.5h12.7c2.5 0 4.5 2 4.5 4.5v9.1c0 2.5-2 4.5-4.5 4.5h-12.7c-2.5 0-4.5-2-4.5-4.5zm-41.9 0v-9.1c0-2.5 2-4.5 4.5-4.5h29.1c2.5 0 4.5 2 4.5 4.5v9.1c0 2.5-2 4.5-4.5 4.5H98.5c-2.5 0-4.5-2-4.5-4.5zm-41.9 0v-9.1c0-2.5 2-4.5 4.5-4.5h29.1c2.5 0 4.5 2 4.5 4.5v9.1c0 2.5-2 4.5-4.5 4.5H56.6c-2.5 0-4.5-2-4.5-4.5zm130.1 22.7v-9.1c0-2.5 2-4.5 4.5-4.5h29.1c2.5 0 4.5 2 4.5 4.5v9.1c0 2.5-2 4.5-4.5 4.5h-29.1c-2.5 0-4.5-2.1-4.5-4.5zm-67.7 0v-9.1c0-2.5 2-4.5 4.5-4.5h55.3c2.5 0 4.5 2 4.5 4.5v9.1c0 2.5-2 4.5-4.5 4.5H119c-2.5 0-4.5-2.1-4.5-4.5zm-41.4 0v-9.1c0-2.5 2-4.5 4.5-4.5h29.1c2.5 0 4.5 2 4.5 4.5v9.1c0 2.5-2 4.5-4.5 4.5H77.6c-2.5 0-4.5-2.1-4.5-4.5z" fill-rule="evenodd" clip-rule="evenodd" fill="#EBF5FF"/><path fill-rule="evenodd" clip-rule="evenodd" fill="#B8C7FC" d="M104.2 249.1c-1.3-30.2 1.9-57.7 28.4-70.1l47.4 2.5c19.4 6.6 28.4 28.1 24.7 67.6-4.8-.1-11-4.2-14.5-.3-29.4 32.5-57.9 22.5-86 .3z"/><path fill-rule="evenodd" clip-rule="evenodd" fill="#141C6B" d="M102.4 265.6c-.1-.8-.2-1.8-.3-2.6-.3-3.5-.5-7.1-.6-10.6-.3-7.1-.5-14.2-.6-21.3 0-2.3-.1-4.5-.1-6.8 0-1.2-.1-2.5-.1-3.7v-.1.1c-.2-5.5.8-10.8 2.9-16.1 4.5-11.4 15.1-21.2 27.9-26.9 2-.9 4-1.7 6-2.3v4.6-.1c-5.8 2.1-11.1 5.1-15.7 8.7-8.8 6.8-14.8 16.1-16.4 25.9-.2 1-.3 2-.4 3-.1 1.1-.1 2.1-.1 3.1-.1 1.4-.1 2.9-.1 4.3l-.3 12.3c-.2 7.3-.4 14.6-.8 21.8-.1 1.8-.2 3.5-.4 5.3 0 .4-.2 1.9-.5 2.2-.3.1-.3-.5-.4-.8zm19.3-77s0-.1 0 0z"/><path clip-rule="evenodd" fill="none" stroke="#545E80" stroke-width="1.12" stroke-linecap="round" stroke-linejoin="round" stroke-miterlimit="10" d="M186.8 205.7v49.4"/><path fill-rule="evenodd" clip-rule="evenodd" fill="#141C6B" d="M205.7 256.7l-.7-19.4-.3-12.3c0-1.4 0-2.9-.1-4.4 0-1 0-2.1-.1-3.2-.1-1-.2-2.1-.4-3.1-1.6-10.2-7.8-19.6-16.8-26.6-3.5-2.7-7.5-5.1-11.7-7l-3.7-1.5v-2.5l4.6 1.8c12.6 5.6 22.9 15.3 27.3 26.4 2 5.1 3.1 10.3 2.8 15.7 0 1.2 0 2.4-.1 3.6-.1 2.3-.1 4.6-.1 6.8-.1 7.1-.3 14.2-.6 21.3l-.1 4.4z"/><path fill-rule="evenodd" clip-rule="evenodd" fill="#FFE0BD" stroke="#141C6B" stroke-width="1.12" stroke-miterlimit="10" d="M132.5 171.2l19.7 37.9 19.7-37.9c-.1 0-20.4-8.7-39.4 0z"/><path fill-rule="evenodd" clip-rule="evenodd" fill="#E5B282" d="M135.4 176.8l-2.9-5.6c18.9-8.6 39.3 0 39.3 0l-2.9 5.6c-4.6 1.9-10.1 3-16.7 3s-12.2-1.1-16.8-3z"/><path fill-rule="evenodd" clip-rule="evenodd" fill="#FC4730" d="M200.9 172.4c1.1-.8 1.7-2 1.7-3.1v-56.1c0-10.8-4.7-21.7-14.2-30.1-19.4-17.2-51.4-17.6-71.4-1-10.2 8.5-15.4 19.8-15.4 31.1v56.1c0 .9.4 1.9 1.2 2.7.9.9 2.3 1.4 3.7 1.4 30.4-8.7 60.9-2.7 91.3 0 1.1 0 2.2-.3 3.1-1z"/><path fill-rule="evenodd" clip-rule="evenodd" fill="#FFF" d="M169.4 222c-2.2-.2-4.1 1.4-4.3 3.6-.2 2.2 1.4 4.1 3.6 4.3 2.2.2 4.1-1.4 4.3-3.6.1-2.2-1.5-4.1-3.6-4.3z"/><path fill-rule="evenodd" clip-rule="evenodd" fill="#C42930" d="M192.7 172.4c.9-.8 1.4-2 1.4-3.1v-56.1c0-10.8-3.9-21.7-11.8-30.1-16.1-17.1-42.7-17.6-59.3-1-8.5 8.5-12.8 19.8-12.8 31.1v56.1c0 .9.3 1.9 1 2.7.8.9 1.9 1.4 3 1.4 25.3-8.7 50.6-2.7 75.9 0 .9 0 1.8-.3 2.6-1z"/><path fill-rule="evenodd" clip-rule="evenodd" fill="#FFE0BD" stroke="#141C6B" stroke-width="1.12" stroke-miterlimit="10" d="M191.5 114.7c0-16.6-12.2-28.8-39.4-28.8s-39.3 12.2-39.3 28.8-2.8 60.4 39.3 60.4c42.3.1 39.4-43.7 39.4-60.4z"/><path fill-rule="evenodd" clip-rule="evenodd" fill="#141C6B" d="M152.2 165.5c-1.5 0-2.3-1.1-2.3-.6 0 .5.4 1.5 2.3 1.5s2.3-1 2.3-1.5-.9.6-2.3.6z"/><path fill-rule="evenodd" clip-rule="evenodd" fill="#E5B282" d="M130.4 133.6c1.7-1.6 4.4-1.4 5.9.3 1.6 1.7 1.5 2.4-.3 3.9-1.7 1.6-4.4 1.5-5.9-.3-1.5-1.6-1.4-2.3.3-3.9z"/><path fill-rule="evenodd" clip-rule="evenodd" fill="#141C6B" d="M130.4 133.3c1.7-1.1 4.4-1 5.9.2 1.6 1.2 1.5 1.6-.3 2.7-1.7 1.1-4.4 1-5.9-.2s-1.4-1.6.3-2.7z"/><path clip-rule="evenodd" fill="none" stroke="#141C6B" stroke-width="1.12" stroke-linecap="round" stroke-linejoin="round" stroke-miterlimit="10" d="M156.9 148c-2.7 2.4-5.5 2.3-8.4 0m-9.6-26c-5.4-1-10.5-.1-15.2 2.6m42.7-2.6c5.4-1 10.5-.1 15.2 2.6"/><path fill-rule="evenodd" clip-rule="evenodd" fill="#FFF" d="M133.7 134.1c.5-.4 1.2-.4 1.6.1.4.5.4 1.2-.1 1.6-.5.4-1.2.4-1.6-.1-.4-.4-.3-1.2.1-1.6z"/><path fill-rule="evenodd" clip-rule="evenodd" fill="#E5B282" d="M168.9 133.6c1.7-1.6 4.4-1.4 5.9.3 1.6 1.7 1.5 2.4-.3 3.9-1.7 1.6-4.4 1.5-5.9-.3-1.5-1.6-1.4-2.3.3-3.9z"/><path fill-rule="evenodd" clip-rule="evenodd" fill="#141C6B" d="M168.9 133.3c1.7-1.1 4.4-1 5.9.2 1.6 1.2 1.5 1.6-.3 2.7s-4.4 1-5.9-.2-1.4-1.6.3-2.7z"/><path fill-rule="evenodd" clip-rule="evenodd" fill="#FFF" d="M172.2 134.1c.5-.4 1.2-.4 1.6.1.4.5.4 1.2-.1 1.6-.5.4-1.2.4-1.6-.1-.4-.4-.4-1.2.1-1.6z"/><path clip-rule="evenodd" fill="none" d="M98.3 268.7v-43.1c-.2-11.4 4.2-22.8 13.2-31.5 4-3.8 8.5-6.8 13.4-8.9"/><path clip-rule="evenodd" fill="none" stroke="#545E80" stroke-width="1.12" stroke-linecap="round" stroke-linejoin="round" stroke-miterlimit="10" d="M119.8 205.7v49.4"/><path fill-rule="evenodd" clip-rule="evenodd" fill="#FFE0BD" stroke="#545E80" stroke-width="1.12" stroke-miterlimit="10" d="M117.7 248.2c12.6 10.9 11 19.1 2.2 13.1-2.6-1.5-2.9 1.3-1.6 7.1 3.8 16.4-24.6 10.4-15.9-18.6 5 .7 9.9 2.2 15.3-1.6zm72.1 0c-12.6 10.9-11 19.1-2.2 13.1 2.6-1.5 2.9 1.3 1.6 7.1-3.8 16.4 24.6 10.4 15.9-18.6-5 .7-9.8 2.2-15.3-1.6z"/><path fill-rule="evenodd" clip-rule="evenodd" fill="#96D4BD" d="M74 297.7c0-.2 0-.3-.1-.5l-1.9-6.9.1-.1c.1-.1.1-.1.2-.1h155.3c.1 0 .2 0 .2.1l.1.1-1.9 6.9c-.1.2-.1.3-.1.5s-.2.3-.3.3H74.3c-.2 0-.3-.1-.3-.3z"/><path fill="#141C6B" d="M74 297.7c0-.2 0-.3-.1-.5-.5-1.8-1.1-3.7-1.6-5.5l-.2-.7c0-.1-.1-.2-.1-.3.1-.2-.1-.2-.1-.4v-.1s0-.1.1-.1c0-.1.3-.2.4-.2 2.6 0 5.2-.1 7.8-.1 2.6 0 5.2-.1 7.8-.1 2.6 0 5.2.4 7.8-.1 2.5-.5 5.2-.1 7.8-.1 2.6 0 5.2-.1 7.8-.1 5.2 0 10.4-.1 15.5-.1l15.5-.1h7.8c12.9-.1 25.9-.1 38.8-.1h15.5c2.6 0 5.2-.1 7.8 0 2.6.1 5.2 0 7.8 0 2.6 0 5.2-.6 7.8 0 .3 0 .6.1.9.4.2.2.3.6.3.9 0 .3-.1.5-.2.8l-.2.7c-.1.6-.3 1.2-.5 1.7-.3 1.3-.7 2.5-1 3.8v-.1c-.1.3 0 .5-.1.7-.2.5-.7.8-1.2.8h-15.2c-12.6 0-25.2 0-37.8-.1-7.6 0-15.1 0-22.7-.1-7.6 0-15.1-.1-22.7-.1l-15.1-.1-15.4-.1-15.1-.2c-2.5 0-5-.1-7.6-.1-.2 0-.3-.1-.3-.3 0 .2.1.3.3.3 5-.1 10.1-.1 15.1-.2l22.7-.3h7.6c7.2 0 8-.1 15.1-.1l15.1-.1c5 0 10.1 0 15.1-.1 20.2-.1 40.3-.1 60.5-.1h-.3s-.1 0-.1.1c-.1.1-.3.3-.2.4 0-.8.4-1.7.6-2.4.5-1.7.9-3.5 1.4-5.2-.1.2 0 .4 0 .6 0 0 0-.1-.1-.1.1.2.2.3.3.4.1.1.1.1.3.1-31.1 0-62.1-.1-93.2-.2l-15.5-.1h-7.8c-7.8-.1-15.5-.2-23.3-.2-5.2-.1-10.4-.1-15.5-.2-.1 0-.1 0-.2.1l.1-.1c0 .1 0 .1-.1.1v-.1c.3 1.4.7 2.8 1.1 4.2.2.7.4 1.4.5 2.1.1.3.2.6.2.9.3 0 .3.1.3.2z"/><path fill-rule="evenodd" clip-rule="evenodd" fill="#D9E5F0" d="M71 283v-81c0-3.9 3.1-7 7-7h145c3.9 0 7 3.1 7 7v81c0 3.9-3.1 7-7 7H78c-3.9 0-7-3.1-7-7z"/><path fill="#545E80" d="M71 283c-.2-16.2-.4-32.4-.5-48.6 0-5.4-.1-10.8-.1-16.2 0-2.7-.1-5.4 0-8.1v-8.3c.1-2.1.8-3.7 2.2-5.3.2-.2.5-.4.7-.6 1.3-1.1 3-1.6 4.7-1.7.4 0 14.1 0 14.5-.1 2.4-.1 4.8 0 7.3 0 2.4-.1 4.8 0 7.3 0h7.2c12.1 0 24.2-.1 36.3-.1 12.1 0 24.2 0 36.3-.1h14.5c2.4 0 4.8-.1 7.3 0h14.5c1.2 0 2.4.3 3.4.8.4.2.8.4 1.2.7.4.3.8.6 1.1.9.3.3.6.7.9 1.1l.3.6c.2.3.3.7.5.9.4 1 .5 1.8.6 2.9v73c-.1 2.5.1 5.7 0 8.1-.1 2-.7 3.7-2 5.2-1.4 1.6-3.6 2.6-5.8 2.6h-14.5c-2.4.1-4.8-.1-7.3 0h-14.5c-12.1 0-24.2-.1-36.3-.1-7.3 0-14.5-.1-21.7-.1l-14.5-.1-36.2-.3c-.6 0-1.2-.1-1.8-.2-1.2-.3-2.5-1.1-3.3-2-.3-.4-.7-.8-1-1.3-.2-.4-.3-.7-.5-1.1-.7-.8-.8-1.6-.8-2.5.1 3.8 3.2 6.9 7 6.9 4.8 0 9.7-.1 14.5-.1 7.3-.1 14.5-.1 21.7-.2 7.3 0 14.5-.1 21.8-.1l87-.3c.3 0 .7 0 1-.1.2 0 .4-.1.5-.1.3-.1.6-.2.8-.3 1.4-.5 2.6-1.7 3.3-3.1.3-.7.5-1.3.6-2v-.7c0-27-.1-54-.1-81 0-.5-.1-1-.2-1.5-.4-1.6-1.5-3-3-3.8-.2-.1-.5-.2-.7-.3-.7-.3-1.4-.4-2.2-.4-48.3 0-96.7-.1-145-.3h-.6c-.6.1-1.4.2-2 .5-.2.1-.3.1-.5.2-.3.1-.5.3-.8.5-.2.2-.5.4-.7.6-1.2 1.2-1.9 2.8-1.9 4.5 0 27.1-.1 54.1-.5 81.1z"/><path fill-rule="evenodd" clip-rule="evenodd" fill="#FC4730" d="M101.6 132.4v-19.2c0-10.8 4.7-21.7 14.2-30.1 19.4-17.1 51.3-17.6 71.3-1 10.2 8.5 15.4 19.8 15.4 31.1v19.1c-28.4-23-72.7-22.8-100.9 0v.1z"/><path fill="#141C6B" d="M196.5 127.9c-2.6-1.4-5.1-2.7-7.8-3.9-.6-.3-1.2-.6-1.9-.8-.7-.3-1.3-.6-2-.8-1.7-.7-3.4-1.3-5.1-1.9-1.7-.6-3.4-1.1-5.1-1.5-.7-.2-1.4-.4-2.1-.5-1.5-.4-3.1-.7-4.6-1-.4-.1-.7-.1-1.1-.2-.9-.2-1.7-.3-2.6-.4-.9-.1-1.7-.2-2.6-.3-1.4-.1-2.8-.3-4.2-.4-1.3-.1-2.7-.1-4-.1-3.9-.1-7.8.1-11.7.6-3.3.4-6.6.9-9.9 1.7-7.2 1.7-14.1 4.2-20.6 7.6-1.2.6-2.5 1.3-3.7 2 .5-.4 1.1-.8 1.6-1.2 1.5-1 2.9-1.9 4.5-2.8.8-.4 1.5-.8 2.3-1.3l2.4-1.2c1.4-.7 2.9-1.3 4.3-1.9 1.6-.6 3.2-1.2 4.9-1.7.4-.1.9-.3 1.3-.4 1.9-.5 3.8-1.1 5.7-1.5.9-.2 1.7-.4 2.6-.5 1.9-.3 3.7-.6 5.6-.8 3-.3 5.9-.5 8.9-.5h2.7c1.4 0 2.8.1 4.2.2 2.4.2 4.9.5 7.3.9 3.2.6 6.4 1.3 9.5 2.2 1.4.4 2.8.9 4.2 1.4.8.3 1.5.6 2.3.9.4.2.8.3 1.2.5.8.4 1.7.7 2.5 1.1.3.1.5.3.8.4 2.2 1.1 4.3 2.2 6.4 3.5.8.5 1.6 1.1 2.4 1.6.6.4 1 .7 1.4 1z"/><path clip-rule="evenodd" fill="none" d="M103.3 172.4c-1.1-.8-1.7-2-1.7-3.1v-56.1c0-10.8 4.7-21.7 14.2-30.1 19.4-17.1 51.3-17.6 71.3-1 10.2 8.5 15.4 19.8 15.4 31.1v56.1c0 .9-.4 1.9-1.2 2.7-.9.9-2.3 1.4-3.7 1.4-7.8-2.2-15.5-3.5-23.3-4.1 18.8-12.5 17.1-41.7 17.1-54.6 0-16.6-12.2-28.8-39.4-28.8s-39.3 12.2-39.3 28.8c0 13.4-1.8 44.4 19.5 56-8.6.9-17.3 1.9-25.9 2.7-1 0-2.1-.3-3-1z"/><path fill-rule="evenodd" clip-rule="evenodd" fill="#141C6B" d="M197.1 174c-.3-.1-.7-.2-1-.3-1.3-.3-2.5-.7-3.8-1-1.4-.4-2.8-.6-4.3-.9-.8-.2-1.7-.3-2.5-.5-1.6-.3-3.3-.5-5-.8-1.3-.2-2.5-.3-3.8-.4-1.1-.1-2.1-.2-3.2-.3l1.8-1.2c3 .2 6 .6 8.9 1 1.9.3 3.7.6 5.6 1 1.7.4 3.5.7 5.2 1.2.9.2 1.9.5 2.8.7.8 0 1.5-.2 2.2-.6.1-.1.2-.1.3-.2.2-.1.3-.3.4-.4l.2-.2c.3-.3.6-.9.7-1.4 0-.2 0-.4.1-.5-.1-18.7-.1-37.4-.1-56.1 0-2.1-.2-4.1-.5-6.2-.3-1.6-.6-3.1-1.1-4.6l-.6-1.8c-.3-.7-.5-1.4-.8-2.1-.4-.9-.8-1.9-1.3-2.8-.6-1-1.1-2-1.7-3-.1-.2-.2-.4-.4-.6-.4-.6-.9-1.3-1.4-1.9-1.1-1.5-2.4-3-3.7-4.3-.5-.6-1.1-1.1-1.7-1.7l-1.8-1.5c-.6-.5-1.3-1-1.9-1.5-.5-.4-1-.7-1.5-1-3.1-2.2-6.5-3.9-9.9-5.4-11.7-4.8-25.3-5.4-37.4-1.9-2.6.8-5.3 1.7-7.8 2.9-3.3 1.5-6.4 3.4-9.2 5.5-.9.7-1.8 1.4-2.7 2.2-1.1 1-2.2 2.1-3.3 3.2-1.5 1.6-2.8 3.3-4.1 5.1-3.1 4.5-5.3 9.8-6.2 15.3-.3 2-.5 4-.5 6-.1 18.7-.2 37.4-.5 56.1 0 1.2.6 2.4 1.6 3.1.1.1.2.1.3.2.8.5 1.9.7 2.8.7 7.6-.8 15.2-1.8 22.8-2.6.8-.1 1.7-.2 2.5-.3.4.2.8.5 1.2.7-.8.1-1.7.1-2.5.2l-12.9 1.2-11.1.9c-.8 0-1.8-.2-2.5-.7-.2-.1-.4-.2-.6-.4-.7-.5-1.3-1.2-1.6-2 0-.1-.1-.3-.1-.4-.1-.2-.1-.5-.1-.7-.3-18.7-.4-37.4-.5-56.1 0-1.7.1-3.4.3-5 .1-.6.2-1.3.3-1.9l.3-1.5c.2-.7.3-1.5.6-2.2.2-.6.4-1.3.6-1.9.3-.8.6-1.7.9-2.5.2-.6.5-1.1.8-1.7.8-1.7 1.7-3.3 2.8-4.9.5-.8 1.1-1.6 1.7-2.4.7-.8 1.3-1.7 2-2.4 1.8-2.1 3.8-3.9 5.9-5.7 1.4-1.1 2.9-2.2 4.4-3.1.5-.4 1.1-.7 1.7-1 .6-.4 1.3-.7 1.9-1.1 1-.5 2-1 3.1-1.5 3.8-1.8 7.9-3.1 12.1-3.9 2-.4 3.9-.7 5.9-.9.8-.1 1.5-.1 2.3-.2.7-.1 1.4-.1 2.1-.1 1.9 0 3.9 0 5.8.1.7.1 1.5.1 2.2.2.3 0 .6.1.9.1.4 0 .7.1 1.1.1l2.1.3c1.1.2 2.3.4 3.4.7 1.5.4 2.9.8 4.4 1.2l3.3 1.2c1.2.5 2.5 1 3.7 1.6.3.1.5.3.8.4.7.4 1.4.8 2.2 1.2.6.3 1.2.7 1.7 1 .6.4 1.3.8 1.9 1.2.6.4 1.2.8 1.8 1.3.9.7 1.7 1.3 2.6 2.1.5.5 1.1.9 1.6 1.4l1.5 1.5c1.3 1.4 2.6 2.8 3.7 4.4 1.7 2.2 3.1 4.6 4.3 7 .3.5.5 1.1.7 1.6.2.6.5 1.2.7 1.8.1.3.2.6.3.8.3.8.5 1.6.8 2.4.3 1 .5 2 .7 3 .2 1 .4 2 .5 3 .2 1.4.2 2.9.2 4.3v50.4c-.1 1.8 0 3.9 0 5.6 0 .3 0 .6-.1.8-.2 1.1-.9 2.1-1.8 2.8-1 .8-2.4 1.2-3.7 1.2h-.1c-.3.5-.5.4-.7.3zm.7-1.4h-.1.2c0 .1 0 .1-.1 0zm3.1-1.2s-.1 0 0 0c-.1 0-.1 0 0 0-.1 0-.1 0 0 0zm.9-2.1zm-85.5-85.6zm70.3-.9z"/><path fill="#141C6B" d="M131.1 92.3c-.1.6-.3 1.2-.5 1.8-.2.9-.5 1.7-.7 2.6-.2.8-.3 1.6-.5 2.4-.1.5-.1.9-.2 1.4-.1 1.2-.2 2.3-.3 3.5-.1 2.9 0 5.7.1 8.6 0 1.9 0 3.8-.3 5.7-.2-.5-.3-1.1-.4-1.6-.1-.4-.2-.8-.2-1.3-.3-1.5-.5-3-.6-4.5-.4-3.7-.5-7.8.4-11.5.2-.7.3-1.4.5-2.1.6-1.7 1.5-3.6 2.7-5zm42 0c1.1 1.3 1.8 2.8 2.4 4.3.2.5.3 1 .5 1.4.2.8.4 1.5.5 2.3.7 4.2.4 8.5-.1 12.8-.2 1.7-.5 3.5-1 5.1-.2-.7-.3-1.5-.3-2.2 0-.8-.1-1.6-.1-2.4 0-2.9.1-5.7.1-8.6 0-1.4-.1-2.8-.2-4.2-.1-.5-.1-1-.2-1.4 0-.2-.1-.4-.1-.6l-.3-1.5-.3-1.2c-.1-.2-.1-.4-.1-.6-.1-.5-.3-1.1-.4-1.6-.2-.4-.3-1-.4-1.6z"/><path clip-rule="evenodd" fill="none" stroke="#141C6B" stroke-width="1.12" stroke-linecap="round" stroke-linejoin="round" stroke-miterlimit="10" d="M144.4 157.4c5.4-1 10.5-.1 15.2 2.6"/><path fill-rule="evenodd" clip-rule="evenodd" fill="#FFF" d="M207.5 91.1c-5.4 0-9.8-4.4-9.8-9.8s4.4-9.8 9.8-9.8 9.8 4.4 9.8 9.8-4.4 9.8-9.8 9.8z"/><path fill="#141C6B" d="M207.5 91.1c-.9.1-1.7.1-2.5-.1-3.2-.6-6-2.9-7.2-5.9-.5-1.2-.8-2.5-.8-3.8v-.9c0-.3.1-.7.1-1 .1-.6.3-1.3.5-1.9.1-.3.2-.5.3-.8.3-.6.6-1.1 1-1.7 1.1-1.5 2.6-2.8 4.3-3.5 1.3-.6 2.9-.9 4.4-.9 3.7 0 7.2 2 9.1 5.2.4.7.7 1.5 1 2.3.1.3.2.6.2.9.1.3.1.7.1 1.1v.5c.1.6 0 1.4-.1 2-.2 1-.4 2-.9 2.9-.1.3-.3.5-.4.8-.4.7-1 1.5-1.5 2l-.7.7c-.8.6-1.5 1.1-2.4 1.5-1.1.5-2.2.7-3.4.7h-.7c-.1 0-.3 0-.4-.1.2 0 .5-.1.7-.1.5-.1 1.1-.2 1.6-.4 3.1-1 5.5-3.5 6.3-6.6.3-.9.3-1.8.4-2.8-.1-.8-.1-1.5-.3-2.3-.4-1.4-1.1-2.6-2-3.6-.1-.2-.3-.3-.5-.5-.3-.2-.5-.4-.8-.7-.1-.1-.3-.3-.5-.4-.4-.2-.7-.4-1.1-.6-.2-.1-.5-.2-.7-.3-.2-.1-.5-.2-.7-.2l-1.2-.3c-.5-.1-.9-.1-1.4-.1h.1c-.3 0-.6 0-.9.1-.3 0-.5.1-.8.1l-1.2.3c-.2.1-.4.1-.6.2-.2.1-.5.2-.7.3-.5.3-1.1.7-1.5 1-.3.3-.6.5-.8.8-1.6 1.6-2.4 3.8-2.5 6.1v1c.1.7.2 1.3.4 2 .3 1.1 1 2.4 1.8 3.3l.9.9c.3.3.7.6 1.1.8.5.4 1 .6 1.6.9.2.1.5.2.7.3.8.5 1.6.7 2.6.8z"/><path fill-rule="evenodd" clip-rule="evenodd" fill="#FFF" d="M213.6 100.3c0 2.5-2 4.5-4.5 4.5s-4.5-2-4.5-4.5 2-4.5 4.5-4.5 4.5 2 4.5 4.5z"/><path fill="#141C6B" d="M213.6 100.3c0 .2.1.3.1.5v.8c0 .3-.1.7-.3 1 0 .1-.1.2-.2.3-.1.2-.3.5-.5.7-.8 1-1.9 1.7-3.2 1.8-.3 0-.5.1-.8.1-2.8 0-5.2-2.5-5.1-5.3 0-1 .3-2.1.9-3 .2-.2.4-.4.6-.7.2-.3.7-.6 1-.8.9-.5 1.9-.8 2.9-.8 2 .1 3.7 1.3 4.3 3.2.2.5.3 1.1.2 1.6.2.3.1.4.1.6-.3-1.2-1-2.3-2-3-.3-.2-.6-.4-1-.5-.5-.2-1-.2-1.6-.2h.1c-.5 0-.9.1-1.3.3-.1 0-.2.1-.3.1-.1 0-.2.1-.3.1-.2.1-.5.3-.6.5-.1.2-.3.3-.4.5-.5.7-.8 1.4-.8 2.3v-.1c0 1.5.8 2.7 2.1 3.4.5.2 1 .3 1.5.4h-.1c.4 0 .8 0 1.2-.1 1.1-.3 2.1-1 2.7-2 .5-.6.6-1.1.8-1.7z"/><path fill-rule="evenodd" clip-rule="evenodd" fill="#FFF" d="M195.8 69l-1-.1-.3 1c-1.9 7-8.2 11.9-15.5 11.9-5.3 0-10.2-2.6-13.2-6.9l-.7-.9-1 .6c-3.8 2.2-8 3.4-12.4 3.4-13.5 0-24.5-11-24.5-24.5s11-24.5 24.5-24.5c2.5 0 4.9.4 7.3 1.1l.8.3.5-.7c3.5-4.6 8.7-7.2 14.4-7.2 8.6 0 16 6.1 17.7 14.5l.2 1.2 1.2-.3c1-.2 2.1-.3 3.2-.3 8.7 0 15.8 7.1 15.8 15.8 0 8.7-7.1 15.8-15.8 15.8-.2-.1-.7-.1-1.2-.2z"/><path fill="#141C6B" d="M195.8 69c-.3 0-.7 0-1-.1-.1.6-.3 1.2-.4 1.8-.4 1.3-.9 2.6-1.7 3.8-.3.5-.7 1.1-1.1 1.5-.5.7-1.1 1.4-1.8 1.9-.3.3-.6.5-.9.8-1.8 1.4-3.7 2.4-5.9 3-1.3.3-2.6.5-3.9.5h-.9c-1 0-2.1-.2-3.1-.4-2.6-.6-4.9-1.8-7-3.6-.4-.3-.8-.7-1.1-1.1-.1-.1-.2-.2-.3-.4l-1.2-1.5c-.2-.3-.4-.6-.7-.9.3.1.5.1.8.2-1.3.8-2.6 1.5-4 2.1-3.1 1.3-6.3 2-9.7 2-.7 0-1.4 0-2.1-.1l-2.4-.3c-3.2-.6-6.2-1.7-9-3.5-.9-.6-1.8-1.2-2.6-1.9-.4-.4-.9-.8-1.3-1.1-.5-.5-1.1-1.1-1.6-1.7-.5-.6-1-1.1-1.4-1.7-.9-1.3-1.8-2.6-2.5-4.1-.3-.7-.6-1.3-.8-2-.7-1.6-1.1-3.4-1.4-5.1-.1-.6-.2-1.2-.2-1.8-.1-.7-.1-1.4-.1-2.1 0-1.3.1-2.6.3-3.9.6-3.9 2.2-7.7 4.4-10.9.8-1.1 1.7-2.2 2.7-3.1l.7-.7.6-.6c.3-.2.5-.5.8-.7.2-.1.4-.3.6-.5l.9-.6c1-.7 2.1-1.3 3.2-1.9 1.2-.6 2.6-1.1 3.9-1.5.3-.1.7-.2 1-.3.4-.1.7-.2 1.1-.3.4-.1.7-.1 1.1-.2.5-.1 1.1-.2 1.7-.2 1.5-.1 3-.2 4.5 0 .6.1 1.2.1 1.7.2.2 0 .4.1.7.1.4.1.9.2 1.3.3.9.2 1.7.5 2.6.8-.3.1-.6.2-1 .3.3-.4.6-.8.9-1.1.3-.4.7-.8 1-1.2 1.1-1.2 2.4-2.2 3.7-3.1.8-.5 1.6-.9 2.4-1.3.7-.3 1.3-.5 2-.7.7-.2 1.4-.4 2.1-.5.5-.1 1.1-.2 1.6-.2.5-.1 1-.1 1.5-.1 1.5 0 3 .1 4.4.5 2.1.5 4.1 1.3 5.9 2.4 1.7 1 3.3 2.5 4.6 4 .6.7 1.2 1.5 1.7 2.3.7 1.1 1.2 2.3 1.6 3.5.4 1.2.7 2.5.9 3.7l-.9-.6c.7-.1 1.3-.3 2-.4.5-.1 1.1-.1 1.7-.2 2.5-.1 5.1.4 7.4 1.4.7.3 1.3.6 1.9 1l.9.6c.1.1.3.2.5.3.2.2.4.3.6.5 1 .8 1.9 1.8 2.7 2.8 3.2 4.3 4 9.9 2.2 15-.4 1.2-1 2.4-1.7 3.5-.7 1-1.5 2.1-2.4 2.9-.2.2-.4.4-.6.5-.4.3-.7.6-1.1.8-1 .7-2.2 1.4-3.4 1.9-1.5.5-3 .9-4.6 1h-2.3c-.2.4-.4.3-.7.3h1.5c2.8-.1 5.3-.8 7.7-2.3.4-.2.8-.5 1.2-.8.2-.1.3-.2.5-.4.5-.4 1-.9 1.5-1.3.5-.5.9-1 1.3-1.6.8-1 1.4-2.2 1.9-3.4.1-.2.1-.4.2-.5.1-.2.1-.4.2-.6.3-1 .5-2.2.6-3.2.1-.5.1-1.1.1-1.6v-.8c0-.2 0-.4-.1-.6-.1-1.5-.6-3.3-1.3-4.7-.4-.8-.8-1.6-1.3-2.4-1.5-2.1-3.4-3.8-5.7-5-.6-.3-1.3-.6-1.9-.8-.2-.1-.4-.1-.7-.2-.4-.1-.9-.2-1.3-.3-1-.2-2-.3-3-.3-.5 0-1 0-1.5.1s-1 .1-1.5.2c-.7.1-1.3.3-1.9.4-.1-.6-.3-1.3-.4-1.9-.1-.6-.3-1.1-.4-1.7-.1-.4-.3-.8-.4-1.2-.3-.8-.7-1.6-1.1-2.3-.1-.1-.2-.3-.3-.5-.5-.8-1-1.5-1.7-2.2-1.1-1.3-2.4-2.4-3.9-3.3-.4-.3-.8-.5-1.2-.7-.1-.1-.3-.1-.4-.2-.3-.2-.8-.4-1.1-.5-.1-.1-.3-.1-.4-.2-.3-.1-.7-.2-1.1-.3-.2-.1-.4-.1-.6-.2-.4-.1-.9-.2-1.3-.3-.7-.1-1.5-.2-2.3-.2h-.7c-.8 0-1.5.1-2.3.2-.3 0-.6.1-.9.1-.3.1-.6.1-.9.2-.9.3-1.9.5-2.8 1-.3.1-.5.2-.8.4-.3.1-.5.3-.8.4-.5.3-1 .7-1.5 1-.4.3-.7.6-1.1.9-1 .8-1.9 1.8-2.6 2.8l-.9 1.2c-.5-.1-.9-.3-1.4-.4-1.2-.3-2.3-.6-3.5-.8-.6-.1-1.2-.2-1.8-.2-.6 0-1.2-.1-1.8-.1h-1.2c-.5 0-1 .1-1.5.1-2.4.3-4.9 1-7.1 2-1.6.7-3.1 1.6-4.5 2.7-.5.4-1.1.8-1.6 1.3-1.1 1-2.1 2.1-3 3.3-.8 1-1.5 2.1-2.1 3.2-1.8 3.5-2.7 7.1-2.7 11 0 .6 0 1.2.1 1.8.2 2.2.6 4.3 1.4 6.4 1.9 5.3 5.6 9.6 10.4 12.4 1.1.6 2.2 1.2 3.4 1.6 2 .7 3.9 1.2 6 1.5.8.1 1.6.1 2.4.1.9 0 1.8 0 2.8-.1.2 0 .4 0 .6-.1.5-.1.9-.1 1.4-.2 2.6-.5 5.1-1.5 7.3-2.8l1.5-.9c.3.5.6.9 1 1.4 2.9 4.3 7.5 6.7 12.7 6.8 4.1 0 8.2-1.5 11.1-4.4.6-.6 1.2-1.2 1.7-1.9.6-.9 1.2-1.8 1.7-2.7.4-.8.7-1.6.9-2.5.1-.3.2-.7.3-1 .2 0 .6.1.9.1z"/><circle fill-rule="evenodd" clip-rule="evenodd" fill="#FFF" cx="198.9" cy="108.7" r="3"/><path fill="#545E80" d="M198.9 111.7c-1.6.6-3.3-.8-3.6-2.4 0-.1 0-.2-.1-.3-.1-.6 0-1.2.2-1.8.3-.7.7-1.3 1.4-1.7.2-.1.3-.2.5-.3.1-.1.4-.2.6-.2.3-.1.7-.2 1.1-.1.4 0 .7.1 1.1.2 1.5.5 2.4 1.7 2.6 3.3.1 1.4-.7 2.9-2.1 3.4-.2.1-.3.1-.5.1h-.7c-.3-.2-.4-.2-.5-.2.2-.1.5-.2.7-.3.7-.4 1.3-1.1 1.5-2v-.7.1c0-.3-.1-.5-.2-.8-.1-.2-.2-.3-.3-.5-.5-.6-1.1-.9-1.8-.9h.1c-.2 0-.4 0-.6.1-1 .2-1.6 1.1-1.7 2v-.1c-.1 1 .4 1.9 1.2 2.5.4.3.8.4 1.1.6z"/><path fill-rule="evenodd" clip-rule="evenodd" fill="#FFF" d="M198.9 103.3c-3 0-5.4 2.4-5.4 5.4s2.4 5.4 5.4 5.4c3 0 5.4-2.4 5.4-5.4.1-3-2.4-5.4-5.4-5.4z"/><path fill="#141C6B" d="M198.9 103.3c-.9.2-1.6.5-2.4 1-1.4 1-2.3 2.7-2.3 4.4.1 1.7 1 3.2 2.5 4 .7.4 1.4.5 2.2.5.3 0 .7 0 1-.1 1.5-.3 2.6-1.3 3.3-2.6.3-.6.4-1.2.4-1.8 0-.3 0-.7-.1-1-.2-1.2-.9-2.3-1.8-3.1-.2-.2-.5-.4-.8-.5-.1-.1-.2-.1-.3-.2-.3-.2-.6-.3-1-.4-.2-.1-.5-.2-.7-.2.1 0 .3-.1.5-.1h.5c.5 0 1.2.2 1.7.4.6.3 1.2.7 1.7 1.1 1.5 1.5 2.2 3.8 1.5 5.9-.2.6-.4 1.1-.7 1.6-.1.1-.2.3-.3.4-.1.2-.4.5-.6.7l-.3.3c-.3.3-.7.5-1 .7-1.2.6-2.3.8-3.6.7-1.9-.2-3.5-1.2-4.5-2.7-.2-.3-.3-.6-.5-.9-.3-.6-.5-1.4-.5-2.1 0-1 .1-1.9.5-2.8.6-1.5 1.9-2.5 3.4-3.1.3-.1.7-.2 1.1-.2.3-.1.7 0 1.1.1z"/><path fill-rule="evenodd" clip-rule="evenodd" fill="#96D4BD" d="M71 283v-81c0-3.9 3.1-7 7-7h145c3.9 0 7 3.1 7 7v81c0 3.9-3.1 7-7 7H78c-3.9 0-7-3.1-7-7z"/><path fill="#141C6B" d="M71 283c-.2-16.2-.4-32.4-.5-48.6 0-5.4-.1-10.8-.1-16.2 0-2.7-.1-5.4 0-8.1v-8.3c.1-2.1.8-3.7 2.2-5.3.2-.2.5-.4.7-.6 1.3-1.1 3-1.6 4.7-1.7.4 0 14.1 0 14.5-.1 2.4-.1 4.8 0 7.3 0 2.4-.1 4.8 0 7.3 0h7.2c12.1 0 24.2-.1 36.3-.1 12.1 0 24.2 0 36.3-.1h14.5c2.4 0 4.8-.1 7.3 0h14.5c1.2 0 2.4.3 3.4.8.4.2.8.4 1.2.7.4.3.8.6 1.1.9.3.3.6.7.9 1.1l.3.6c.2.3.3.7.5.9.4 1 .5 1.8.6 2.9v73c-.1 2.5.1 5.7 0 8.1-.1 2-.7 3.7-2 5.2-1.4 1.6-3.6 2.6-5.8 2.6h-14.5c-2.4.1-4.8-.1-7.3 0h-14.5c-12.1 0-24.2-.1-36.3-.1-7.3 0-14.5-.1-21.7-.1l-14.5-.1-36.2-.3c-.6 0-1.2-.1-1.8-.2-1.2-.3-2.5-1.1-3.3-2-.3-.4-.7-.8-1-1.3-.2-.4-.3-.7-.5-1.1-.7-.8-.8-1.6-.8-2.5.1 3.8 3.2 6.9 7 6.9 4.8 0 9.7-.1 14.5-.1 7.3-.1 14.5-.1 21.7-.2 7.3 0 14.5-.1 21.8-.1l87-.3c.3 0 .7 0 1-.1.2 0 .4-.1.5-.1.3-.1.6-.2.8-.3 1.4-.5 2.6-1.7 3.3-3.1.3-.7.5-1.3.6-2v-.7c0-27-.1-54-.1-81 0-.5-.1-1-.2-1.5-.4-1.6-1.5-3-3-3.8-.2-.1-.5-.2-.7-.3-.7-.3-1.4-.4-2.2-.4-48.3 0-96.7-.1-145-.3h-.6c-.6.1-1.4.2-2 .5-.2.1-.3.1-.5.2-.3.1-.5.3-.8.5-.2.2-.5.4-.7.6-1.2 1.2-1.9 2.8-1.9 4.5 0 27.1-.1 54.1-.5 81.1z"/><path fill-rule="evenodd" clip-rule="evenodd" fill="#141C6B" d="M138 54v.1c0 3.8 3.1 6.9 6.9 6.9H187c3.8 0 6.9-3.1 6.9-6.9V54c0-3.8-3.1-6.9-6.9-6.9h-42c-3.9 0-7 3.1-7 6.9z"/><path fill-rule="evenodd" clip-rule="evenodd" fill="#FFF" d="M139.4 54.1V54c0-3.1 2.5-5.5 5.5-5.5H187c3.1 0 5.5 2.5 5.5 5.5v.1c0 3-2.5 5.5-5.5 5.5h-42c-3.1.1-5.6-2.4-5.6-5.5z"/><path fill-rule="evenodd" clip-rule="evenodd" fill="#FC4730" d="M140.8 54.1V54c0-2.3 1.9-4.1 4.1-4.1h18.3c2.3 0 4.1 1.9 4.1 4.1v.1c0 2.3-1.9 4.1-4.1 4.1H145c-2.3.1-4.2-1.8-4.2-4.1z"/><path fill-rule="evenodd" clip-rule="evenodd" fill="#FFF" d="M162.2 70.3c-1.6-.3-2.7-1.9-2.3-3.6l5.7-27.4c.3-1.6 1.9-2.7 3.5-2.3 1.6.3 2.7 1.9 2.3 3.5L165.8 68c-.4 1.6-1.9 2.7-3.6 2.3z"/><path fill-rule="evenodd" clip-rule="evenodd" fill="#141C6B" d="M162.6 68.4c-.5-.1-.9-.6-.8-1.2l5.7-27.4c.1-.5.7-.9 1.2-.8.5.1.9.6.8 1.2l-5.7 27.4c-.1.5-.6.9-1.2.8z"/></svg>