<?xml version="1.0" encoding="utf-8"?>
<!-- Generator: Adobe Illustrator 13.0.0, SVG Export Plug-In . SVG Version: 6.00 Build 14948)  -->
<!DOCTYPE svg PUBLIC "-//W3C//DTD SVG 1.1//EN" "http://www.w3.org/Graphics/SVG/1.1/DTD/svg11.dtd">
<svg version="1.1" xmlns="http://www.w3.org/2000/svg" xmlns:xlink="http://www.w3.org/1999/xlink" x="0px" y="0px" width="128px"
	 height="128px" viewBox="0 0 128 128" enable-background="new 0 0 128 128" xml:space="preserve">
<g id="Layer_1">
</g>
<g id="bg">
	<path fill-rule="evenodd" clip-rule="evenodd" fill="#F7FAFF" d="M11.3,27.7c20-29.1,59.9-36.5,89-16.4c29.1,20,36.5,59.9,16.4,89
		c-20,29.1-59.9,36.4-89,16.4C-1.4,96.7-8.7,56.8,11.3,27.7z"/>
</g>
<g id="content">
	<polygon fill="#D1D6DB" points="39.9,61.5 40.1,61.8 40.1,62.1 40.1,62.5 40,63.5 39.7,65.3 38.8,68.8 36.5,75.7 34,82.5 
		32.5,85.8 31.6,87.4 31.1,88.2 30.8,88.6 30.7,88.8 30.3,88.9 30.2,88.6 30.1,88.4 30.1,87.9 30.3,86.9 30.6,85.2 31.5,81.6 
		33.7,74.7 36.3,67.9 37.8,64.6 38.7,63 39.1,62.2 39.4,61.8 39.6,61.6 	"/>
	<polygon fill="#D1D6DB" points="54,61.5 54.1,61.8 54.2,62.1 54.2,62.5 54.1,63.5 53.7,65.3 52.8,68.8 50.6,75.7 48,82.5 
		46.5,85.8 45.7,87.4 45.2,88.2 44.9,88.6 44.7,88.8 44.4,88.9 44.2,88.6 44.2,88.4 44.2,87.9 44.3,86.9 44.6,85.2 45.5,81.6 
		47.7,74.7 50.3,67.9 51.8,64.6 52.7,63 53.2,62.2 53.5,61.8 53.6,61.6 	"/>
	<path fill-rule="evenodd" clip-rule="evenodd" fill="#FFFFFF" d="M15.7,80.3C12,63.7,9.2,47.1,9.9,30.6c21.7-4.4,41.8-6.8,55.8-0.8
		l10,48.8L15.7,80.3z"/>
	<path fill="#3D40B2" d="M15.7,81c-0.3-0.3-0.4-0.8-0.6-1.2c-0.3-0.7-0.5-1.6-0.7-2.3c-0.7-2.6-1.3-5.2-1.8-7.8
		c-1-4.7-1.9-9.5-2.6-14.3c-0.7-4.5-1.4-9-1.8-13.5c-0.2-1.8-0.3-3.6-0.3-5.3c0-1.3,0-2.7,0.1-4c0.1-0.9,0.3-2.2,1-2.9
		c0.3-0.3,0.7-0.5,1.1-0.6c1.2-0.4,2.5-0.6,3.8-0.8c2.1-0.3,4.2-0.5,6.3-0.7c5.5-0.4,11.1-0.6,16.7-0.7c4.2-0.1,8.4-0.1,12.6,0
		c3.6,0.1,7.3,0.2,10.9,0.6c1.5,0.2,3.1,0.3,4.6,0.7c0.5,0.1,1.2,0.3,1.6,0.6c0.2,0.2,0.5,0.4,0.6,0.6c0.3,0.5,0.5,1,0.7,1.5
		c0.2,0.6,0.4,1.2,0.5,1.9c0.5,1.9,0.9,3.8,1.2,5.7c0.7,4,1.4,7.9,2,11.9c0.6,4,1.2,8,1.8,12c0.5,3.7,1.1,7.5,1.7,11.2
		c0.1,0.7,0.2,1.5,0.4,2.2c0.1,0.3,0.1,0.7,0.2,1c0.1,0.6,0.3,1.3,0.2,1.9c0-0.1-0.1-0.1-0.1-0.2c0-0.1-0.1-0.2-0.2-0.2
		c0-0.1-0.1-0.2-0.1-0.3c-0.1-0.3-0.2-0.5-0.3-0.8c-0.3-0.7-0.5-1.5-0.7-2.3c-0.7-2.7-1.3-5.3-1.9-8c-0.5-2.2-0.9-4.5-1.3-6.7
		C69.9,54.1,68.8,48,67.6,42c-0.5-2.5-1-4.9-1.6-7.3c-0.2-0.7-0.4-1.5-0.6-2.2c-0.2-0.5-0.3-1.1-0.6-1.6c0.1,0.1,0.3,0.2,0.4,0.3
		c-0.6-0.2-1.3-0.4-1.9-0.5c-0.6-0.1-1.3-0.2-1.9-0.3c-2.6-0.3-5.3-0.4-7.9-0.5c-3.3-0.1-6.6-0.2-9.9-0.2c-4.5,0-9.1,0.1-13.6,0.3
		c-4.3,0.1-8.7,0.4-13,0.8c-1.2,0.1-2.4,0.2-3.5,0.4c-0.4,0.1-0.8,0.1-1.2,0.2c-0.4,0.1-0.9,0.2-1.4,0.4c0.1-0.1,0.2-0.2,0.3-0.3
		c-0.2,0.3-0.3,0.8-0.3,1.1c-0.1,0.9-0.2,1.8-0.2,2.7c0,1.4,0,2.7,0.1,4.1c0.1,2.2,0.3,4.4,0.5,6.5c0.3,3.1,0.7,6.2,1.1,9.3
		c0.6,5.1,1.3,10.3,2.1,15.4c0.3,2.3,0.7,4.6,1,6.9c0.1,0.7,0.2,1.5,0.3,2.3C15.7,80.1,15.8,80.6,15.7,81z"/>
	<path fill="#D1D6DB" d="M88.3,89.1c-0.2,0.1-0.3,0.2-0.5,0.3c0,0-0.3,0.2-0.3,0.2c-0.1,0.1-0.2,0.1-0.3,0.1
		c-0.3,0.1-0.6,0.2-0.9,0.3c-0.8,0.3-1.5,0.5-2.3,0.7c-1.3,0.3-2.6,0.6-3.9,0.9c-2.5,0.5-4.9,0.8-7.4,1.1
		c-6.9,0.8-13.9,1.1-20.9,1.3c-8.4,0.2-16.8,0.2-25.1,0.1C21,94.1,15.3,94,9.7,93.9c-1.4,0-2.8-0.1-4.2-0.1c-0.5,0-1-0.1-1.5-0.1
		c-0.3,0-0.5,0-0.7-0.1c0,0-0.2,0-0.2,0c-0.1,0-0.4-0.1-0.5-0.2c0.2-0.1,0.4-0.2,0.6-0.3C4,92.8,5,92.7,5.9,92.6
		c0.9-0.1,1.9-0.2,2.8-0.3c1.2-0.1,2.5-0.2,3.7-0.3c7.7-0.5,15.5-0.6,23.2-0.7c12.2-0.2,24.4-0.3,36.5-0.9c3.5-0.2,7-0.5,10.5-0.8
		c1.1-0.1,2.2-0.2,3.2-0.4c0.4,0,0.7-0.1,1.1-0.1l0.4,0C87.7,89,88,89.1,88.3,89.1z"/>
	<polygon fill="#3D40B2" points="75.7,78.6 75.3,78.9 74.8,79 73.9,79.2 72,79.5 68.3,79.9 60.8,80.5 45.8,81.3 30.8,81.7 
		23.3,81.7 19.5,81.6 17.6,81.5 16.7,81.4 16.2,81.3 15.7,81 16.2,80.7 16.7,80.6 17.6,80.4 19.5,80.2 23.2,79.7 30.7,79.1 
		45.7,78.3 60.7,77.9 68.2,77.9 71.9,78.1 73.8,78.2 74.8,78.3 75.3,78.4 	"/>
	<polygon fill-rule="evenodd" clip-rule="evenodd" fill="#3D40B2" points="17.9,92.9 15.7,87.9 69.7,86.9 70.4,92.5 	"/>
	<polygon fill-rule="evenodd" clip-rule="evenodd" fill="#D1D6DB" points="29.5,37.9 28.9,34.7 58.1,34.4 58.8,37.5 45.4,37.5 
		30.1,37.8 	"/>
	<polygon fill-rule="evenodd" clip-rule="evenodd" fill="#D1D6DB" points="31.4,49.1 29.9,40.4 30.1,40.4 45.4,40.5 59.3,40.1 
		61.2,48.8 60.7,48.8 45.4,48.8 	"/>
	<polygon fill-rule="evenodd" clip-rule="evenodd" fill="#D1D6DB" points="32.5,55.9 31.8,51.7 45.4,51.8 60.8,51.4 61.7,51.3 
		62.6,55.7 60.7,55.6 45.4,55.6 	"/>
	<polygon fill-rule="evenodd" clip-rule="evenodd" fill="#D1D6DB" points="33.6,61.9 33,58.6 45.4,58.6 60.8,58.2 63.1,58.1 
		63.9,61.8 60.7,61.7 45.4,61.6 	"/>
	<polygon fill-rule="evenodd" clip-rule="evenodd" fill="#D1D6DB" points="35.9,76 34,64.6 45.4,64.6 60.8,64.3 64.4,64.1 
		66.7,74.8 	"/>
	<polygon fill-rule="evenodd" clip-rule="evenodd" fill="#F2CC42" points="17,38.9 16.4,35.7 21.7,35.6 22.3,38.7 	"/>
	<polygon fill-rule="evenodd" clip-rule="evenodd" fill="#FC5714" points="18.2,45.2 17.7,42 22.9,41.9 23.6,45 	"/>
	<polygon fill-rule="evenodd" clip-rule="evenodd" fill="#00C79C" points="21.2,56.9 20.6,53.7 25.9,53.6 26.5,56.8 	"/>
	<polygon fill-rule="evenodd" clip-rule="evenodd" fill="#3D40B2" points="22.9,62.4 22.3,59.2 27.6,59.1 28.3,62.2 	"/>
	<polygon fill-rule="evenodd" clip-rule="evenodd" fill="#669400" points="25.5,70.1 25,67 30.2,66.8 30.9,70 	"/>
	<path fill-rule="evenodd" clip-rule="evenodd" fill="#FAA86B" d="M41.5,108.2c-16.3-9.6-21.4-28.9-15.6-23.9l2.6,3.5
		c1.9,2.5,1.7,1.3,1.1-0.9c-1.5-5.3-4.7-8.5-9-10.4c0-1.5,1.6-1.7,8.1,2.2c7.1,0.3,10.7,5.5,11.4,14.6c3.1,3.7,6.3,6.3,9.5,8.4
		L41.5,108.2z"/>
	<path fill-rule="evenodd" clip-rule="evenodd" fill="#D4E3FC" d="M50.8,125.1c-2.1-1.7-2.8-4.9-5.2-7.2c-6.4-9.8-5.5-5.9-11.7-12.8
		c2.5-3.3,7.4-6.8,10.5-10.1c3,1.3,16.3,12.6,18.6,15.7c5.6-7.1,13.8-36.8,16.7-42.9c13.2-7.4,28.5,7,35.8,22.4
		c-1.6,3.5-3.4,6.8-5.7,10.1c-9.2,13.4-22.7,22.2-37.3,25.8C63.1,126.5,54.4,128,50.8,125.1z"/>
	<path fill-rule="evenodd" clip-rule="evenodd" fill="#FAA86B" d="M85.1,62.9l-7.6,4.9l-0.2-5.4c0.4-2.2-0.3-3.4-5.2-1
		c-2.2-1.3-3.5-3.1-3.9-5.2c0.2-2.3-1.9-3.7-3.9-5.1c2.5-3.5,3.1-7.3,0-12.9c-2.7-15.5,17.5-18.3,23.5-4.5
		C98.3,49.1,95.9,58.1,85.1,62.9z"/>
	<path fill-rule="evenodd" clip-rule="evenodd" fill="#D68C6B" d="M77.5,67.8l-0.2-5.4c0.4-1.9-0.2-3.1-3.7-1.7l0,0l0,0l9.2-4.2
		l-0.3,8.1L77.5,67.8z"/>
	<polygon fill-rule="evenodd" clip-rule="evenodd" fill="#B5C7FC" points="98.4,67 76.1,78 77.5,73.7 	"/>
	<polygon fill-rule="evenodd" clip-rule="evenodd" fill="#D4E3FC" points="75,66.2 75.2,74.6 91.4,68.6 91.6,59.8 	"/>
	<polygon fill="#141C6B" points="72,41.4 72.6,41 73.1,40.8 74.3,40.4 76.6,39.8 79,39.3 80.2,39.1 80.8,39 81.4,39.1 80.9,39.5 
		80.3,39.7 79.2,40.1 76.9,40.8 74.5,41.3 73.3,41.4 72.7,41.5 	"/>
	<path fill-rule="evenodd" clip-rule="evenodd" fill="#FC5714" d="M69.1,20.8c-19.8,26,19.5,14.7,22.5,30
		C115.2,20.9,75.2,10.5,69.1,20.8z"/>
	<path fill-rule="evenodd" clip-rule="evenodd" fill="#FC5714" d="M103.1,39.9c3.2,2.5,6.1,8.1,0.9,13.8c-4.3,4.8-5,6.1-2.9,10.8
		c1.4,3.2,4.5,3.4,7.1,1.9c0.2,3.8-6.7,9.3-12.4,8.7c-9.4-1.1-12.7-16-7.6-23.9C93.5,42.9,92.4,31.3,103.1,39.9z"/>
	<polygon fill-rule="evenodd" clip-rule="evenodd" fill="#B5C7FC" points="44.5,95 67.6,126.3 74.4,118.7 	"/>
	<path fill-rule="evenodd" clip-rule="evenodd" fill="#F7FAFF" d="M63.8,128l16.1-45.5l44.9,1.5h0c-1.9,5.6-4.5,11.1-8.1,16.2
		C104.3,118.4,84.2,128,63.8,128L63.8,128z"/>
	<path fill-rule="evenodd" clip-rule="evenodd" fill="#141C6B" d="M63.3,127.1l3.7-11.3l3.8-11.3l3.8-11.3l3.9-11.2l0.2-0.4l0.3-0.3
		l0.4-0.2l0.5-0.1l13,0.3l13,0.4l13,0.5l6.3,0.3l0,0c-0.3,1-0.7,2.1-1,3.1h0l-5.4-0.2l-13-0.4l-13-0.5L80.9,84l-3.8,10.1L73,105.3
		l-4.2,11.1l-4.3,11.1c-0.1,0.3-0.5,0.5-0.8,0.4C63.4,127.8,63.2,127.5,63.3,127.1z"/>
	<path fill-rule="evenodd" clip-rule="evenodd" fill="#141C6B" d="M74.3,127.1l12-33.8l34,1.2h0c-1.1,2-2.3,3.9-3.6,5.8
		C106.4,115.3,90.9,124.5,74.3,127.1L74.3,127.1z"/>
	<path fill-rule="evenodd" clip-rule="evenodd" fill="#141C6B" d="M69.5,41.1c0.6,0,1.1,0.5,1.1,1.1c0,0.6-0.5,1.1-1.1,1.1
		c-0.6,0-1.1-0.5-1.1-1.1C68.4,41.6,68.9,41.1,69.5,41.1z"/>
	
		<path fill-rule="evenodd" clip-rule="evenodd" fill="none" stroke="#141C6B" stroke-width="0.75" stroke-linejoin="bevel" stroke-miterlimit="10" d="
		M67.1,40c1.2-1.3,3.2-1.4,4.5-0.2c1.3,1.2,1.4,3.2,0.2,4.5c-1.2,1.3-3.2,1.4-4.5,0.2C66,43.4,65.9,41.3,67.1,40z"/>
	<path fill-rule="evenodd" clip-rule="evenodd" fill="#D14514" d="M96.4,56.7c5.2-6.6,5.3-13,2.7-19.3c1.1,0.5,2.4,1.3,3.9,2.5
		c3.2,2.5,6.1,8.1,0.9,13.8c-4.3,4.8-5,6.1-2.9,10.8c1.4,3.2,4.5,3.4,7.1,1.9C96.1,75.9,89.8,67.1,96.4,56.7z"/>
	<path fill="#D14514" d="M98.5,37.1l-0.1,0.4l-0.2,0.2l-0.4,0.4l-0.4,0.4l-0.4,0.4l-0.4,0.3l-0.4,0.3l-0.4,0.3l-0.3,0.3l-0.3,0.3
		L95,40.9l-0.3,0.3l-0.3,0.3l-0.3,0.3l-0.3,0.3l-0.3,0.3l-0.3,0.3L93,43.2l-0.2,0.3l-0.4,0.7l-0.4,0.7l-0.4,0.7l-0.4,0.7l-0.4,0.7
		l-0.4,0.7l-0.2,0.3l-0.4,0.3c0-0.1-0.2-0.2-0.2-0.2c-0.1-0.2-0.1-0.9,0-1.1c0.1-0.8,0.3-1.5,0.6-2.3c1-2.7,3.1-5.1,5.6-6.6
		c0.5-0.3,1.1-0.6,1.6-0.7c0.1-0.1,0.6-0.2,0.8-0.2c0,0,0.2,0.1,0.2,0.1L98.5,37.1z"/>
</g>
</svg>
