<svg xmlns="http://www.w3.org/2000/svg" width="380" height="200"><path clip-rule="evenodd" fill="none" d="M0 0h380v200H0z"/><path fill="#E8EDF5" d="M108.893 107.054c12.761 44.853 61.134 47.572 61.134 47.572 30.333.975 53.293 1.16 76.626-14.532 7.706-5.188 14.906-11.72 19.373-20.067 4.027-7.546 5.587-16.146 5.907-24.52.253-6.479-.227-13.106-2.867-18.72-2.453-5.187-6.601-9.187-10.96-12.68-10.506-8.4-22.707-14.427-35.414-18.894-15-5.267-31.025-8.454-47.252-6.854-16.24 1.587-32.747 8.267-44.934 20.507-12.186 12.241-26.213 32.068-21.613 48.188z"/><path fill="#121769" d="M203.079 47.027c-29.466 1.813-76.226-2.134-76.226-2.134C122.36 84.24 147.8 164.8 150.08 165.547c1.827.601 49.841-11.974 71.08-17.733-12.987-30.934-20.094-66.934-18.081-100.787z"/><path fill="#3B3DB0" d="M211.934 54.4c-29.4 2.72-76.254.213-76.254.213-3.293 39.453 24.614 119.2 26.907 119.88 1.84.533 49.44-13.493 70.493-19.906-13.92-30.521-22.12-66.28-21.146-100.187z"/><path fill="#FFF" d="M159.4 131.013s3.68 21.094 9.48 31.494l31.959-9.374s-6.267-17.586-9.773-29.12l-31.666 7zm-13.04-66.4s1.214 19.24 3.653 27.6l26.493-2.147s-2.546-17.186-2.773-25.439l-27.373-.014zm34.427 14.08s-.453 3.827.893 10.96l26.493-2.134s-.934-1.973-1.493-10.893l-25.893 2.067zm18.533 35.454c-.12.025-6.854-2.227-9.8-7.28l-.16-.28c-.68-1.174-1.72-2.934-1.613-5.16.08-1.653 1.773-3.427 3.507-3.694.026-.013.039-.013.066-.013 1.894-.24 3.919 1.333 5.227 3.066.173-.866.493-1.626.946-2.266 1.147-1.653 3.199-2.44 4.894-1.893 1.653.546 3.094 2.186 3.214 4.479.359 6.894-6.188 13.027-6.281 13.041z"/><path fill="#B2B2B8" d="M179.107 134.68l-2.467.667c-.387.106-.787-.133-.907-.533-.093-.414.121-.826.507-.934l2.466-.666c.387-.107.787.133.894.547.107.399-.106.812-.493.919z"/><path fill="#B2B2B8" d="M182.586 152.359c-.373.106-.786-.133-.893-.546l-5.093-18.707c-.106-.414.12-.826.493-.934.387-.106.787.147.894.547l5.106 18.721c.107.4-.12.814-.507.919z"/><path fill="#B2B2B8" d="M178.893 138.773a.734.734 0 0 1-.88-.534.724.724 0 0 1 .467-.932c3-.921 5.84-2.268 6.16-2.908-.013-.079-.054-.133-.134-.173-.399-.253-1.36-.147-1.879 0 0 .013-.014.013-.014.013-.373.094-.773-.133-.893-.532-.12-.414.093-.827.479-.946.2-.054 1.934-.521 3.041.173.426.28.72.707.826 1.239.24 1.12-.84 2.107-3.626 3.293a39.257 39.257 0 0 1-3.52 1.295c-.013 0-.013.012-.027.012z"/><path fill="#B2B2B8" d="M179.707 141.773c-.36.106-.76-.12-.88-.52-.12-.401.08-.827.467-.934.013-.013 1.933-.613 3.813-1.453 3.213-1.44 3.28-2.241 3.28-2.254-.014-.133-.066-.173-.107-.2-.307-.213-1.173-.146-1.68 0h-.026c-.374.106-.787-.133-.894-.546a.732.732 0 0 1 .494-.921c.293-.094 1.907-.493 2.907.227.414.308.667.761.733 1.308.134 1.28-1.133 2.453-4.12 3.8-1.947.867-3.88 1.466-3.96 1.493h-.027z"/><path fill="#B2B2B8" d="M180.547 144.84c-.374.106-.76-.12-.893-.52-.121-.399.093-.827.466-.934.027-.013 2.014-.626 3.947-1.507 3.414-1.521 3.414-2.346 3.414-2.36-.013-.146-.054-.187-.107-.227-.333-.239-1.253-.16-1.773-.013h-.026c-.374.106-.773-.133-.894-.534-.106-.399.121-.825.494-.933.32-.08 1.973-.506 2.987.24.426.306.693.773.76 1.346.133 1.308-1.173 2.507-4.266 3.894-2 .894-4 1.521-4.094 1.547h-.015z"/><path fill="#B2B2B8" d="M181.414 148.04c-.374.107-.76-.134-.894-.521-.106-.399.093-.827.467-.946.026 0 2.253-.693 4.413-1.667 3.907-1.746 3.854-2.706 3.84-2.72-.014-.199-.08-.253-.121-.28-.387-.266-1.426-.093-2 .106-.373.135-.786-.092-.933-.493a.745.745 0 0 1 .44-.946c.346-.12 2.133-.693 3.253.067.453.319.733.813.799 1.426.16 1.387-1.333 2.747-4.693 4.241a40.873 40.873 0 0 1-4.547 1.719c-.012.014-.024.014-.024.014z"/><path fill="#B2B2B8" d="M187.92 148.626c-3.333.908-6.547-.053-6.693-.092-.387-.121-.613-.547-.52-.947.106-.4.493-.627.88-.508.041.015 3.987 1.175 7.333-.438 1.467-.707 1.88-1.454 1.772-1.921-.105-.412-.613-.746-1.146-.732-.387 0-.734-.334-.747-.748-.027-.426.28-.759.667-.773 1.226-.025 2.347.801 2.612 1.921.16.653.229 2.306-2.532 3.64a9.61 9.61 0 0 1-1.626.598z"/><path fill="#B2B2B8" d="M189.787 150.56c-3.44.934-6.066-.68-6.187-.76a.788.788 0 0 1-.28-1.039c.2-.361.64-.48.986-.254.04.027 2.44 1.453 5.426.467 1.521-.493 1.893-1.106 1.88-1.373-.026-.227-.333-.534-.88-.654-.4-.079-.654-.48-.586-.893.066-.413.439-.68.826-.601 1.174.254 2 1.094 2.066 2.081.054.72-.24 2.039-2.84 2.893-.132.039-.278.093-.411.133zm-10.894-11.787h-.026c-.066.026-1.84.44-3.693.68-3 .374-4.44.066-4.8-1.013a1.9 1.9 0 0 1 .094-1.48c.6-1.16 2.333-1.64 2.533-1.68.387-.107.773.146.88.547.106.412-.121.813-.494.919h-.014c-.546.147-1.413.534-1.626.961a.38.38 0 0 0-.026.214c.613.387 3.733.105 6.786-.628.387-.093.787.16.88.574.093.4-.12.8-.494.906z"/><path fill="#B2B2B8" d="M179.707 141.773c0 .013-.013.013-.013.013-.08.014-2.053.48-4.173.721-3.253.36-4.946-.014-5.48-1.187-.227-.507-.239-1.027-.026-1.493.493-1.135 2.08-1.601 2.387-1.68.387-.107.787.146.894.56.106.399-.12.813-.493.906-.521.133-1.32.52-1.48.88-.014.041-.027.094.026.214 0 .013.467.667 3.974.28 2.026-.214 4-.68 4.013-.68.387-.094.773.158.88.572.091.401-.136.801-.509.894z"/><path fill="#B2B2B8" d="M180.547 144.84c-.014 0-.014.013-.027.013-.08.015-2.12.494-4.307.734-3.374.373-5.106 0-5.64-1.2-.24-.52-.253-1.054-.041-1.534.506-1.16 2.133-1.639 2.467-1.72.373-.106.773.147.88.56.106.401-.121.814-.494.908 0 0-.014.013-.027.013-.52.147-1.347.52-1.506.906-.027.054-.053.121.013.254 0 .013.427.72 4.146.306 2.106-.227 4.133-.705 4.16-.705.374-.094.773.16.866.572.096.4-.117.799-.49.893z"/><path fill="#B2B2B8" d="M181.414 148.04h-.027a42.56 42.56 0 0 1-4.787.827c-3.653.413-5.627 0-6.2-1.28-.253-.561-.267-1.134-.027-1.641.574-1.213 2.4-1.626 2.76-1.707.387-.079.773.201.854.613.093.414-.147.801-.547.881-.6.119-1.573.493-1.773.934-.013.04-.053.119.027.293.013.014.44.867 4.693.399 2.36-.253 4.626-.786 4.653-.8a.747.747 0 0 1 .867.573.738.738 0 0 1-.493.908z"/><path fill="#B2B2B8" d="M176.107 151.853c-.547.147-1.12.254-1.72.308-3.053.253-3.827-1.214-4.014-1.853-.346-1.121.213-2.401 1.267-2.987.347-.188.786-.054.987.32.186.372.066.825-.281 1.026-.453.254-.733.799-.6 1.213.134.453.867.894 2.494.761 3.707-.308 6.506-3.32 6.533-3.348a.71.71 0 0 1 1.027 0c.28.294.293.773.026 1.066-.106.121-2.386 2.587-5.719 3.494z"/><path fill="#B2B2B8" d="M175.48 154.453c-.146.04-.28.066-.44.106-2.653.573-3.586-.427-3.906-1.066-.44-.88-.146-2.027.733-2.826a.697.697 0 0 1 1.014.079c.266.32.239.801-.054 1.067-.413.387-.52.813-.413 1.014.106.239.733.586 2.307.239 3.12-.68 4.426-3.133 4.44-3.16a.686.686 0 0 1 .973-.28c.347.214.48.682.293 1.041-.067.119-1.52 2.84-4.947 3.786z"/><path fill="#FFF" d="M197.32 127.547l1.054 4.145 16.746-4.105-1.08-3.961zm2.64 8.413l1.04 4.146 15.906-4.693-1.079-3.947zm2.732 8.813l1.455 4.04 15.68-4.533-1.414-4.226zm-50.585-43.839l.693 4.213 27.533-4.053-.747-4.028zm1.933 8.586l.707 4.213 26.853-4.866-.746-4.027zm1.933 8.667l1.2 4.493 26.481-5.267-1.054-4.319z"/><path fill="#FFB03D" d="M149.426 92.533l.067-.16c-.026.08-.053.121-.067.16zM149 93.76l.013.027c0-.054 0-.08-.013-.027zm2.667 8.8zm.653-16.093l.026-.2c-.106.293-.039.173-.026.2zm10.693-18.454c.014 0 .04.014.053.026.014-.012-.013-.012-.053-.026zm7.147 27.2h-.014c.041-.026.041-.013.014 0zM153.027 75.4c.013 0 .013-.013.013-.027.04-.16.013-.093-.013.027zm-.76 3.68v-.2.2zm9.613-11.24c-.014 0-.027 0-.027-.013.001.013.014.013.027.013zm-12.667 25.24c.013-.027.027-.053.027-.08a.181.181 0 0 1-.027.08zm2.494 9.467c-.027-.027-.027-.027-.027-.04-.053-.027-.053-.014.027.04zm.613-16.041v-.04.04zm16.48 10.401c-.094.08-.134.12-.173.133 0 .013.04-.013.173-.133z"/><path fill="#FC452E" d="M173.28 90.333l.093-1.294-.08-.293-.147-2.187.067-.667h.027v-.36l.013-.053.026.026-.026-.146.04-.613.013-.026v-.027l.027-.533v-.106l.013-3.227-.373-3.227-.866-3.026-1.467-2.681-.547-.706-.08-.333-.52-.627-.747-.693.093-.013-.653-.48.04.014-.626-.415-.28-.173-.293-.146-.627-.254-.84-.173.094.054-.467-.054.227.054.253.066-.467-.08-.319.013-.36.026-.347.066-.307.067-.24.066h-.094l-.027-.013-.066.013.013.026v.027h-.027l-.026-.013-.054-.014-.053-.026-.04-.027h-.013.013l-.013.014h-.094l-.4-.213.267.066-.307-.093-.36-.066-.319-.014h-.146l.387.041-1.88.2-1.68.72.094-.014-.667.36-.28.147-.44.28.026-.027-.253.2-.294.214-.16.013-.466.453-.24.347-.134.053-.426.546V71.2l-.253.227-.187.228-.294.413-.466.587.2-.134.213-.307-.32.6-.307.36-.227.267-.24.427.067-.146-.201.387-.2.453-.107.52.24-.667-.173.6-.253.773.066-.387-.173.561.093-.507.24-.76-.24.547-.134.573-.146.707-.053-.04-.053.413-.013-.293-.121.613-.093.613.093-.467.08-.08-.213 1.453h-.014l-.013.147.026-.147.04-.013-.054.667.041.28.053-.066.027.347.106.374-.053.013.121.547.12.466-.146-.319.107.413-.08-.08.227 1 .187.414v.4l-.094-.48-.08-.133.107.88v-.2l.12.747-.053-.067v.494l-.094-.374-.013.72-.134.253-.426 1.48-.053.2-.64 1.467-.227.28.04.08-.053.28-.267.346-.373.84-.173.253.186-.52-.08.066-.293.747-.307.76-.12.173-.094.213.146.534 23.267-1.883zm-23.32 1.134l.04-.107-.066.146.026-.039z"/><path fill="#FFB03D" d="M173.133 87.133v.107c0 .106 0 .186.013.28-.013-.12-.013-.267-.013-.387zm-9.52 12.774c.041-.014.08-.04.133-.067-.079.04-.119.053-.133.067zM151.16 88.84c-.067.133-.133.293-.2.427.133-.294.293-.427.2-.427z"/><path fill="#C22912" d="M172.04 90.44l-.027-.533-.346-1.774.146-1.693.08-1.84-.013-1.893-.147-1.907-.307-1.866-.492-1.747-.694-1.574-.947-1.36-1.799-1.293-2.068-.36-2.213.413-2.173 1.027-2 1.466-1.68 1.761-1.173 1.879L155.64 81v1.053l.107 1.507.053 1.866-.08 2.121-.333 1.16-.707 1.24-.92 1.146-.987.907z"/><path fill="#FAC2BF" d="M170.506 78.973c-.08-.946-.266-1.88-.64-2.76-.813-1.907-2.546-3.413-4.573-3.893-2.026-.467-4.707.24-6.174 1.707-1.479 1.467-1.72 4.213-1.72 4.213-.373 2.173.547 6.04 1.946 7.213 1.693 1.4 4.773 1.454 6.921.92 1.133-.28 2.56-1.573 3.319-2.453 1.135-1.32 1.082-3.213.921-4.947z"/><path fill="#F5BAB8" d="M157.346 78.56l-.04.907s2.667.387 5.333-.041l.187-2.173.387 2.12s3.293.494 7.227-1.106c0 0-.213-1.333-.28-1.974-.08-.64-2.6-1.413-2.6-1.413l-5.24-.201-4.974 3.881z"/><path fill="#FC452E" d="M170.787 74.947c-1.08-1.747-2.986-3.2-4.947-3.787-1.947-.586-4.76-.52-6.387.693-1.426 1.053-4 3.626-3.92 5.4l.041 1.267c1.546.187 4.879.453 6.493.173.293-1.414.387-2.253.587-3.72.399 1.373.853 3.601.959 3.613 2.574.173 5.56-.52 7.907-1.053-.08-1.093-.174-1.666-.733-2.586z"/><path fill="#FAC2BF" d="M154.947 80.72c.106-.587.413-1.227 1-1.333.453-.08 1.16 0 1.573.2.573.294.64.494.88.747l-.013.187a12.91 12.91 0 0 1-.027 2.96c-.96.147-2.066.253-2.8-.373-.64-.561-.76-1.548-.613-2.388z"/><path fill="#F5BAB8" d="M156.907 80.88c.133.346.307 1.44.12 1.506-.173.053-.64-.92-.76-1.28-.16-.413.493-.639.64-.226z"/><path fill="#303030" d="M161.84 81.414c0 .319.053.6.147.92.146.493.693.413.72.013.026-.333 0-.64 0-.973-.014-.547-.867-.52-.867.04zm5.147-.494c0 .333.053.613.146.92.146.506.693.427.72.027.027-.333 0-.653-.014-.974.001-.547-.852-.52-.852.027z"/><path fill="#F5BAB8" d="M158.92 83.76c0-.2.08-.439.36-.506.707-.173 1.654-.333 2.347-.027.28.12.546.387.453.72-.12.36-.547.467-.854.56-.586.187-1.506.294-2-.186-.173-.175-.333-.321-.306-.561z"/><path fill="#DB9696" d="M164.36 83.32s.467.04.8-.027c.333-.053.64-.2.64-.2s-.654 1.067-1.44.227z"/><path fill="#303030" d="M163.44 84.52c.44.453 1.04.52 1.64.533.653.013 1.04-.173 1.426-.693.24-.347-.239-.8-.479-.453-.28.387-.494.493-.974.493-.44 0-.84-.04-1.173-.36-.294-.307-.734.173-.44.48z"/><path fill="#3B3DB0" d="M173.667 90.293l-1.494-1.12-1.84-.813-1.973-.493-2.56-.2-2.52.453-2.227 1.053-2.173 1.467-1.026.946z"/><path fill="#FAC2BF" d="M162.934 85.707c.16 1.08.373 2.147.64 3.213.013.067.04.146.093.2.08.054.16.041.24.027.733-.08 1.453-.2 2.146-.387.054-.013.12-.027.146-.066.027-.04.027-.08.027-.12 0-1-.093-2-.266-2.987-.014-.066-.027-.133-.08-.173-.054-.041-.134-.041-.201-.041-.813.027-1.64.067-2.453.094l-.292.24z"/><path fill="#F5BAB8" d="M163.08 86.613s.88.093 1.973.041c.667-.041-1.293 1.653-1.653 1.533l-.32-1.574z"/><path fill="#FC452E" d="M205.761 112.827a.287.287 0 0 1-.28-.201l-2.921-9.547-.986 8.788a.299.299 0 0 1-.266.253.29.29 0 0 1-.295-.199l-2.213-6.707-1.213 3.959c-.027.107-.106.174-.228.201l-3.253.479c-.146.027-.293-.092-.32-.239a.271.271 0 0 1 .24-.32l3.08-.453 1.413-4.64c.04-.134.134-.213.267-.213.094-.014.24.079.28.199l2.081 6.307.985-8.853a.299.299 0 0 1 .254-.254c.147-.013.267.066.306.2l2.961 9.667.561-3.801a.292.292 0 0 1 .252-.239l3.814-.561c.146-.027.307.08.32.24.025.16-.081.293-.241.32l-3.613.532-.706 4.841c-.014.133-.134.227-.267.24h-.012z"/><path fill="#2E3B8A" d="M157.947 55.293v4.174l33.519-.454.28 2.573-35.079.147-.28-6.293z"/><path fill="#FFB03D" d="M178.934 48.947a2.75 2.75 0 0 1-3.894.253c-1.146-1-1.266-2.747-.266-3.893s2.747-1.267 3.906-.267a2.779 2.779 0 0 1 .254 3.907zm13.519.813h-7.013s.293-12.093-7.92-12.093-11.347 11.64-11.347 11.64l-8.36-.293.147 10.454 34.786-.454-.293-9.254z"/><path fill="#F7A63B" d="M168.066 55.88a1.3 1.3 0 0 1-1.826.066 1.284 1.284 0 0 1-.067-1.813 1.29 1.29 0 0 1 1.827-.08 1.3 1.3 0 0 1 .066 1.827zm18.534-1.454c0 .72-.587 1.294-1.293 1.294s-1.293-.574-1.293-1.294c0-.706.587-1.28 1.293-1.28s1.293.574 1.293 1.28z"/><path fill="#FFB03D" d="M264.308 69.654s5.399-21.627-10.881-25.734C237.133 39.813 232.8 64.44 232.8 64.44l6.04 1.44s3.867-17.693 12.761-15.494c9.453 2.32 6.025 18.133 6.025 18.133l6.682 1.135z"/><path fill="#F7A63B" d="M264.308 69.654s2.719-10.88-1.521-18.681c-1.732-3.187-5.466-3.72-6.68-3.053-2.493 1.333-.626 4.44.387 6.213 3.08 5.427 1.133 14.387 1.133 14.387l6.681 1.134z"/><path fill="#80D1E0" d="M269.813 69.04l-7.2 27.787-36.093-6.347 3.293-29.533z"/><path fill="#5CC4D6" d="M269.813 69.04l-7.2 27.787-7.867-1.387 6.562-28.12z"/><path fill="#FFF" d="M233.894 80.44c.76 4.36 4.92 7.28 9.279 6.521 4.361-.761 7.28-4.921 6.52-9.281-.759-4.359-4.919-7.28-9.279-6.52-4.36.76-7.281 4.92-6.52 9.28z"/><path fill="#121769" d="M239.813 76.733a2.357 2.357 0 0 0 1.787 2.814 2.362 2.362 0 0 0 2.813-1.787 2.361 2.361 0 0 0-1.8-2.813 2.35 2.35 0 0 0-2.8 1.786z"/><path fill="#121769" d="M239.48 83.32l2.466.547 1.16-5.281-2.465-.546z"/><path fill="#FFB03D" d="M227.054 32.56c-.254-.08-.534.146-.733.347-1.88 1.906-3.294 3.773-3.521 6.106 3.653 1.187 7.36 1.52 11.146 2.28l.147-.133c-2.241-2.787-4.48-5.56-6.72-8.333-.093-.107-.186-.227-.319-.267zm13.254-6.693c-.107-.267-.468-.32-.761-.333-2.761-.12-5.16.107-7.12 1.654 1.586 3.826 3.866 7.066 5.854 10.68l.213.026c.613-3.866 1.227-7.72 1.84-11.573.013-.148.04-.308-.026-.454zm12.586 6.973c.106-.24-.066-.546-.24-.787-1.6-2.24-3.227-4.014-5.467-4.693-1.627 3.373-2.426 6.986-3.652 10.587l.119.173c2.973-1.667 5.96-3.346 8.947-5.013.106-.067.226-.134.293-.267z"/></svg>