<svg xmlns="http://www.w3.org/2000/svg" width="300" height="300"><path clip-rule="evenodd" fill="none" d="M0 0h300v300H0z"/><path d="M161.2 107.2v-9.1c0-2.5 2-4.5 4.5-4.5h29.1c2.5 0 4.5 2 4.5 4.5v9.1c0 2.5-2 4.5-4.5 4.5h-29.1c-2.5 0-4.5-2-4.5-4.5zm-25.3 0v-9.1c0-2.5 2-4.5 4.5-4.5h12.7c2.5 0 4.5 2 4.5 4.5v9.1c0 2.5-2 4.5-4.5 4.5h-12.7c-2.5 0-4.5-2-4.5-4.5zm-41.9 0v-9.1c0-2.5 2-4.5 4.5-4.5h29.1c2.5 0 4.5 2 4.5 4.5v9.1c0 2.5-2 4.5-4.5 4.5H98.5c-2.5 0-4.5-2-4.5-4.5zm88.2 22.7v-9.1c0-2.5 2-4.5 4.5-4.5h29.1c2.5 0 4.5 2 4.5 4.5v9.1c0 2.5-2 4.5-4.5 4.5h-29.1c-2.5 0-4.5-2-4.5-4.5zm-67.7 0v-9.1c0-2.5 2-4.5 4.5-4.5h55.3c2.5 0 4.5 2 4.5 4.5v9.1c0 2.5-2 4.5-4.5 4.5H119c-2.5 0-4.5-2-4.5-4.5zm-41.4 0v-9.1c0-2.5 2-4.5 4.5-4.5h29.1c2.5 0 4.5 2 4.5 4.5v9.1c0 2.5-2 4.5-4.5 4.5H77.6c-2.5 0-4.5-2-4.5-4.5zM245 152.5v-9.1c0-2.5 2-4.5 4.5-4.5h7.9c2.5 0 4.5 2 4.5 4.5v9.1c0 2.5-2 4.5-4.5 4.5h-7.9c-2.4.1-4.5-2-4.5-4.5zm-41.9 0v-9.1c0-2.5 2-4.5 4.5-4.5h29.1c2.5 0 4.5 2 4.5 4.5v9.1c0 2.5-2 4.5-4.5 4.5h-29.1c-2.5.1-4.5-2-4.5-4.5zm-41.9 0v-9.1c0-2.5 2-4.5 4.5-4.5h29.1c2.5 0 4.5 2 4.5 4.5v9.1c0 2.5-2 4.5-4.5 4.5h-29.1c-2.5.1-4.5-2-4.5-4.5zm-25.3 0v-9.1c0-2.5 2-4.5 4.5-4.5h12.7c2.5 0 4.5 2 4.5 4.5v9.1c0 2.5-2 4.5-4.5 4.5h-12.7c-2.5.1-4.5-2-4.5-4.5zm-41.9 0v-9.1c0-2.5 2-4.5 4.5-4.5h29.1c2.5 0 4.5 2 4.5 4.5v9.1c0 2.5-2 4.5-4.5 4.5H98.5c-2.5.1-4.5-2-4.5-4.5zm-41.9 0v-9.1c0-2.5 2-4.5 4.5-4.5h29.1c2.5 0 4.5 2 4.5 4.5v9.1c0 2.5-2 4.5-4.5 4.5H56.6c-2.5.1-4.5-2-4.5-4.5zm-20.5 0v-9.1c0-2.5 2-4.5 4.5-4.5H44c2.5 0 4.5 2 4.5 4.5v9.1c0 2.5-2 4.5-4.5 4.5h-7.9c-2.5.1-4.5-2-4.5-4.5zm150.6 22.7v-9.1c0-2.5 2-4.5 4.5-4.5h29.1c2.5 0 4.5 2 4.5 4.5v9.1c0 2.5-2 4.5-4.5 4.5h-29.1c-2.5 0-4.5-2-4.5-4.5zm-67.7 0v-9.1c0-2.5 2-4.5 4.5-4.5h55.3c2.5 0 4.5 2 4.5 4.5v9.1c0 2.5-2 4.5-4.5 4.5H119c-2.5 0-4.5-2-4.5-4.5zm-41.4 0v-9.1c0-2.5 2-4.5 4.5-4.5h29.1c2.5 0 4.5 2 4.5 4.5v9.1c0 2.5-2 4.5-4.5 4.5H77.6c-2.5 0-4.5-2-4.5-4.5zm-41.5 0v-9.1c0-2.5 2-4.5 4.5-4.5h29.1c2.5 0 4.5 2 4.5 4.5v9.1c0 2.5-2 4.5-4.5 4.5H36.1c-2.5 0-4.5-2-4.5-4.5zM245 198.9v-9.1c0-2.5 2-4.5 4.5-4.5h7.9c2.5 0 4.5 2 4.5 4.5v9.1c0 2.5-2 4.5-4.5 4.5h-7.9c-2.4 0-4.5-2.1-4.5-4.5zm-41.9 0v-9.1c0-2.5 2-4.5 4.5-4.5h29.1c2.5 0 4.5 2 4.5 4.5v9.1c0 2.5-2 4.5-4.5 4.5h-29.1c-2.5 0-4.5-2.1-4.5-4.5zm-41.9 0v-9.1c0-2.5 2-4.5 4.5-4.5h29.1c2.5 0 4.5 2 4.5 4.5v9.1c0 2.5-2 4.5-4.5 4.5h-29.1c-2.5 0-4.5-2.1-4.5-4.5zm-25.3 0v-9.1c0-2.5 2-4.5 4.5-4.5h12.7c2.5 0 4.5 2 4.5 4.5v9.1c0 2.5-2 4.5-4.5 4.5h-12.7c-2.5 0-4.5-2.1-4.5-4.5zm-41.9 0v-9.1c0-2.5 2-4.5 4.5-4.5h29.1c2.5 0 4.5 2 4.5 4.5v9.1c0 2.5-2 4.5-4.5 4.5H98.5c-2.5 0-4.5-2.1-4.5-4.5zm-41.9 0v-9.1c0-2.5 2-4.5 4.5-4.5h29.1c2.5 0 4.5 2 4.5 4.5v9.1c0 2.5-2 4.5-4.5 4.5H56.6c-2.5 0-4.5-2.1-4.5-4.5zm-20.5 0v-9.1c0-2.5 2-4.5 4.5-4.5H44c2.5 0 4.5 2 4.5 4.5v9.1c0 2.5-2 4.5-4.5 4.5h-7.9c-2.5 0-4.5-2.1-4.5-4.5zm150.6 22.6v-9.1c0-2.5 2-4.5 4.5-4.5h29.1c2.5 0 4.5 2 4.5 4.5v9.1c0 2.5-2 4.5-4.5 4.5h-29.1c-2.5 0-4.5-2-4.5-4.5zm-67.7 0v-9.1c0-2.5 2-4.5 4.5-4.5h55.3c2.5 0 4.5 2 4.5 4.5v9.1c0 2.5-2 4.5-4.5 4.5H119c-2.5 0-4.5-2-4.5-4.5zm-41.4 0v-9.1c0-2.5 2-4.5 4.5-4.5h29.1c2.5 0 4.5 2 4.5 4.5v9.1c0 2.5-2 4.5-4.5 4.5H77.6c-2.5 0-4.5-2-4.5-4.5zm88.1 22.7v-9.1c0-2.5 2-4.5 4.5-4.5h29.1c2.5 0 4.5 2 4.5 4.5v9.1c0 2.5-2 4.5-4.5 4.5h-29.1c-2.5 0-4.5-2-4.5-4.5zm-25.3 0v-9.1c0-2.5 2-4.5 4.5-4.5h12.7c2.5 0 4.5 2 4.5 4.5v9.1c0 2.5-2 4.5-4.5 4.5h-12.7c-2.5 0-4.5-2-4.5-4.5zm-41.9 0v-9.1c0-2.5 2-4.5 4.5-4.5h29.1c2.5 0 4.5 2 4.5 4.5v9.1c0 2.5-2 4.5-4.5 4.5H98.5c-2.5 0-4.5-2-4.5-4.5zm-41.9 0v-9.1c0-2.5 2-4.5 4.5-4.5h29.1c2.5 0 4.5 2 4.5 4.5v9.1c0 2.5-2 4.5-4.5 4.5H56.6c-2.5 0-4.5-2-4.5-4.5zm130.1 22.7v-9.1c0-2.5 2-4.5 4.5-4.5h29.1c2.5 0 4.5 2 4.5 4.5v9.1c0 2.5-2 4.5-4.5 4.5h-29.1c-2.5 0-4.5-2.1-4.5-4.5zm-67.7 0v-9.1c0-2.5 2-4.5 4.5-4.5h55.3c2.5 0 4.5 2 4.5 4.5v9.1c0 2.5-2 4.5-4.5 4.5H119c-2.5 0-4.5-2.1-4.5-4.5zm-41.4 0v-9.1c0-2.5 2-4.5 4.5-4.5h29.1c2.5 0 4.5 2 4.5 4.5v9.1c0 2.5-2 4.5-4.5 4.5H77.6c-2.5 0-4.5-2.1-4.5-4.5z" fill-rule="evenodd" clip-rule="evenodd" fill="#EBF5FF"/><path clip-rule="evenodd" fill="none" d="M98.3 296.3v-43.2c-.2-11.4 4.2-22.8 13.2-31.5 4-3.8 8.6-6.8 13.4-8.9m85.8 83.6v-43.2c.2-11.4-4.2-22.8-13.2-31.5-4-3.8-8.6-6.8-13.4-8.9"/><path fill-rule="evenodd" clip-rule="evenodd" fill="#B8C7FC" d="M96 271.4c-1.3-30.2 5.1-57.4 31.6-69.8l52.4 4.5c19.4 6.6 28.4 28.1 24.7 67.6-4.8-.1-11-4.2-14.5-.3-23.6 25.9-47.5.5-70.1 13-26.5 14.6-22.9-7.6-24.1-15z"/><path fill="#141C6B" d="M189.8 230.3l.4 6.1.2 6.2.1 12.3-.1 12.4-.2 6.2-.4 6.1-.4-6.1-.1-6.2-.2-12.4.2-12.3.1-6.2z"/><path fill-rule="evenodd" clip-rule="evenodd" fill="#141C6B" d="M205.7 281.2l-.7-19.4-.3-12.3c0-1.4 0-2.9-.1-4.4 0-1 0-2.1-.1-3.2-.1-1-.2-2.1-.4-3.1-1.6-10.2-7.8-19.6-16.8-26.6-3.5-2.7-7.5-5.1-11.7-7l-3.7-1.5v-2.5l4.6 1.8c12.6 5.6 22.9 15.3 27.3 26.4 2 5.1 3.1 10.3 2.8 15.7 0 1.2 0 2.4-.1 3.6-.1 2.3-.1 4.6-.1 6.8-.1 7.1-.3 14.2-.6 21.3l-.1 4.4z"/><path fill-rule="evenodd" clip-rule="evenodd" fill="#FFE0BD" stroke="#141C6B" stroke-width="1.12" stroke-miterlimit="10" d="M132.5 195.7l19.7 37.9 19.7-37.9s-20.4-8.6-39.4 0z"/><path fill-rule="evenodd" clip-rule="evenodd" fill="#E5B282" d="M135.5 201.3l-2.9-5.6c18.9-8.6 39.3 0 39.3 0l-2.9 5.6c-4.6 1.9-10.1 3-16.7 3-6.7 0-12.2-1.1-16.8-3z"/><path fill-rule="evenodd" clip-rule="evenodd" fill="#FC4730" d="M200.9 197c1.1-.8 1.7-2 1.7-3.1v-56.1c0-10.8-4.7-21.7-14.2-30.1-19.4-17.1-51.3-17.6-71.4-1-10.2 8.5-15.3 19.8-15.3 31.1v56.1c0 .9.4 1.9 1.1 2.7 1 1 2.3 1.4 3.7 1.4 30.4-8.7 60.9-2.6 91.3 0 1.1-.1 2.2-.4 3.1-1z"/><path fill-rule="evenodd" clip-rule="evenodd" fill="#C42930" d="M192.7 197c.9-.8 1.4-2 1.4-3.1v-56.1c0-10.8-3.9-21.7-11.8-30.1-16.1-17.1-42.7-17.6-59.3-1-8.5 8.5-12.8 19.8-12.8 31.1v56.1c0 .9.3 1.9 1 2.7.8 1 1.9 1.4 3 1.4 25.3-8.7 50.6-2.6 75.9 0 .9-.1 1.8-.4 2.6-1z"/><path fill-rule="evenodd" clip-rule="evenodd" fill="#FFE0BD" stroke="#141C6B" stroke-width="1.12" stroke-miterlimit="10" d="M191.5 139.3c0-16.6-12.2-28.8-39.3-28.8-27.2 0-39.4 12.2-39.4 28.8s-2.8 60.5 39.4 60.5c42.2-.1 39.3-43.9 39.3-60.5z"/><path fill-rule="evenodd" clip-rule="evenodd" fill="#141C6B" d="M152.2 190.1c-1.5 0-2.3-1.1-2.3-.6 0 .5.4 1.5 2.3 1.5s2.3-1 2.3-1.5-.8.6-2.3.6z"/><path fill-rule="evenodd" clip-rule="evenodd" fill="#E5B282" d="M130.5 158.2c1.7-1.6 4.4-1.5 5.9.3 1.6 1.7 1.4 2.4-.3 3.9-1.7 1.6-4.4 1.5-5.9-.3-1.6-1.7-1.5-2.4.3-3.9z"/><path clip-rule="evenodd" fill="none" stroke="#141C6B" stroke-width="1.12" stroke-linecap="round" stroke-linejoin="round" stroke-miterlimit="10" d="M156.9 172.5c-2.7 2.4-5.5 2.3-8.4 0"/><path clip-rule="evenodd" fill="none" stroke="#545E80" stroke-width="1.12" stroke-linecap="round" stroke-linejoin="round" stroke-miterlimit="10" d="M166.4 146.5c5.4-1 10.5-.1 15.2 2.6"/><path fill-rule="evenodd" clip-rule="evenodd" fill="#E5B282" d="M168.9 158.2c1.7-1.6 4.4-1.5 5.9.3 1.6 1.7 1.4 2.4-.3 3.9-1.7 1.6-4.3 1.5-5.9-.3-1.5-1.7-1.4-2.4.3-3.9z"/><path clip-rule="evenodd" fill="none" d="M98.3 293.2V250c-.2-11.4 4.2-22.8 13.2-31.5 4-3.8 8.6-6.8 13.4-8.9"/><path fill="#545E80" d="M119.8 230.3l.3 2.3.2 2.3.3 4.7.1 9.3-.1 9.3-.3 4.6-.5 4.7-.5-4.7-.2-4.6-.2-9.3.2-9.3.2-4.7.2-2.3z"/><path fill-rule="evenodd" clip-rule="evenodd" fill="#FC4730" d="M101.7 156.9v-19.2c0-10.8 4.7-21.7 14.2-30.1 19.4-17.1 51.3-17.6 71.3-1 10.2 8.5 15.3 19.8 15.3 31.1v19.1-.1c-28.4-23-72.7-22.8-100.9 0v.2z"/><path fill="#141C6B" d="M196.5 152.4c-2.6-1.4-5.1-2.7-7.8-3.9-.6-.3-1.3-.6-1.9-.8-.7-.3-1.3-.6-2-.8-1.7-.7-3.3-1.3-5.1-1.9-1.7-.6-3.4-1.1-5.1-1.5-.7-.2-1.4-.4-2.1-.5-1.5-.4-3.1-.7-4.6-1-.4-.1-.7-.1-1.1-.2-.9-.2-1.7-.3-2.6-.4-.9-.1-1.7-.2-2.6-.3-1.4-.1-2.8-.3-4.2-.4-1.3-.1-2.7-.1-4-.2-3.9-.1-7.8.1-11.7.6-3.3.4-6.6.9-9.9 1.7-7.2 1.7-14.1 4.3-20.6 7.7-1.2.6-2.5 1.3-3.7 1.9.5-.4 1.1-.8 1.7-1.2 1.4-1 2.9-1.9 4.5-2.8.8-.4 1.5-.8 2.3-1.3l2.4-1.2c1.4-.7 2.9-1.3 4.3-1.9 1.6-.6 3.2-1.2 4.9-1.7.5-.1.9-.3 1.3-.4 1.9-.5 3.8-1.1 5.7-1.5.9-.2 1.7-.4 2.6-.5 1.9-.3 3.7-.6 5.6-.8 3-.3 5.9-.5 8.9-.5h2.7c1.4 0 2.8.1 4.1.2 2.4.2 4.9.5 7.3.9 3.2.6 6.4 1.3 9.5 2.2 1.4.4 2.8.9 4.2 1.4.8.3 1.5.6 2.3.9.4.2.8.3 1.2.5.8.3 1.7.7 2.5 1.1.3.1.5.2.8.4 2.2 1.1 4.3 2.2 6.4 3.5.8.5 1.6 1.1 2.5 1.6.5.5.9.8 1.3 1.1z"/><path clip-rule="evenodd" fill="none" d="M103.3 197c-1.1-.8-1.7-2-1.7-3.1v-56.1c0-10.8 4.7-21.7 14.2-30.1 19.4-17.1 51.3-17.6 71.3-1 10.2 8.5 15.3 19.8 15.3 31.1v56.1c0 .9-.4 1.9-1.1 2.7-1 1-2.3 1.4-3.7 1.4-7.8-2.2-15.5-3.5-23.3-4.1 18.8-12.5 17.1-41.7 17.1-54.6 0-16.6-12.2-28.8-39.3-28.8-27.2 0-39.4 12.2-39.4 28.8 0 13.4-1.8 44.4 19.5 56-8.6.9-17.3 1.9-25.9 2.7-1-.1-2.1-.4-3-1z"/><path fill-rule="evenodd" clip-rule="evenodd" fill="#141C6B" d="M197.1 198.6c-.3-.1-.7-.2-1-.3-1.3-.3-2.5-.7-3.8-1l-4.2-.9c-.9-.2-1.7-.3-2.5-.5-1.7-.3-3.3-.5-5-.7-1.3-.2-2.6-.3-3.8-.4-1.1-.1-2.1-.2-3.2-.3l1.8-1.2c3 .2 6 .6 8.9 1 1.9.3 3.7.6 5.6 1 1.7.4 3.5.7 5.2 1.2.9.2 1.9.5 2.8.8.8 0 1.5-.2 2.2-.6.1-.1.2-.1.3-.2.1-.1.3-.2.4-.4l.2-.2c.3-.3.6-.9.7-1.4v-.5c-.1-18.7-.1-37.4-.1-56.1 0-2.1-.2-4.1-.5-6.2-.3-1.6-.7-3.1-1.1-4.6-.2-.6-.4-1.2-.6-1.7-.3-.7-.5-1.4-.8-2.1-.4-.9-.8-1.9-1.3-2.8-.6-1-1.1-2-1.7-3-.1-.2-.2-.4-.4-.6-.4-.6-.9-1.3-1.4-1.9-1.2-1.5-2.4-3-3.7-4.3l-1.7-1.7-1.8-1.5c-.6-.5-1.2-1-1.9-1.5-.5-.3-1-.7-1.5-1-3.1-2.1-6.5-3.9-9.9-5.3-11.7-4.8-25.3-5.4-37.4-1.9-2.6.8-5.3 1.7-7.8 2.9-3.3 1.5-6.4 3.3-9.2 5.5-.9.7-1.8 1.4-2.7 2.2-1.1 1-2.2 2.1-3.3 3.2-1.5 1.6-2.8 3.3-4 5.1-3.1 4.5-5.3 9.8-6.2 15.3-.3 2-.5 3.9-.5 6-.1 18.7-.2 37.4-.5 56.1 0 1.2.6 2.4 1.6 3.1.1.1.2.1.3.2.8.5 1.9.7 2.8.7 7.6-.8 15.2-1.8 22.8-2.6.8-.1 1.7-.2 2.5-.3.4.2.8.5 1.2.7-.9.1-1.7.2-2.5.2l-12.9 1.2c-3.7.3-7.4.7-11.1.9-.8 0-1.8-.2-2.5-.7-.2-.1-.4-.3-.6-.4-.7-.5-1.3-1.2-1.6-2 0-.1-.1-.3-.1-.4-.1-.2-.1-.5-.1-.7-.3-18.7-.4-37.4-.5-56.1 0-1.7.1-3.3.3-5 .1-.6.2-1.3.3-1.9l.3-1.5c.2-.7.3-1.5.5-2.2.2-.6.4-1.3.6-1.9.3-.8.6-1.7.9-2.5.2-.6.5-1.1.8-1.7.8-1.7 1.7-3.3 2.8-4.9.5-.8 1.1-1.6 1.7-2.4.6-.8 1.3-1.6 2-2.4 1.8-2.1 3.8-3.9 5.9-5.7 1.4-1.1 2.9-2.2 4.4-3.1.6-.3 1.1-.7 1.7-1 .6-.4 1.3-.7 1.9-1.1 1-.5 2-1 3.1-1.5 3.8-1.8 8-3.1 12.1-3.9 2-.4 3.9-.7 5.9-.9.7-.1 1.5-.1 2.3-.2.7-.1 1.4-.1 2.1-.1 1.9-.1 3.9 0 5.8.1.7.1 1.5.1 2.2.2.3 0 .6.1.9.1.4 0 .7.1 1.1.1l2.1.3c1.1.2 2.2.4 3.4.7 1.5.4 2.9.8 4.4 1.2 1.1.3 2.2.8 3.3 1.2 1.2.5 2.5 1 3.6 1.6.3.1.5.3.8.4.7.3 1.4.8 2.2 1.2.6.3 1.2.7 1.7 1 .6.4 1.3.8 1.9 1.2.6.4 1.2.8 1.8 1.3.9.6 1.7 1.3 2.6 2.1.5.5 1.1.9 1.6 1.4l1.5 1.5c1.3 1.4 2.6 2.8 3.8 4.4 1.7 2.2 3.1 4.6 4.3 7.1.3.5.5 1.1.7 1.6.3.6.5 1.2.7 1.8.1.3.2.5.3.8.3.8.5 1.6.8 2.4.3 1 .5 2 .7 3 .2 1 .3 2 .5 3 .2 1.4.2 2.9.2 4.3v50.4c0 1.8.1 3.9 0 5.6 0 .3 0 .6-.1.9-.2 1.1-.9 2.1-1.8 2.8-1 .8-2.4 1.2-3.7 1.2h-.1c-.3-.2-.5-.3-.7-.3zm.7-1.4h-.1.1zm3.1-1.3c0 .1 0 .1 0 0-.1.1 0 .1 0 0zm.9-2.1zm-85.5-85.6zm70.3-.9z"/><path fill="#141C6B" d="M131.1 116.9c-.1.6-.3 1.2-.5 1.8-.2.9-.5 1.7-.7 2.6-.2.8-.3 1.6-.5 2.4-.1.5-.1.9-.2 1.4-.1 1.2-.2 2.3-.3 3.5-.1 2.9 0 5.7.1 8.6 0 1.9 0 3.8-.3 5.7-.2-.5-.3-1.1-.4-1.6-.1-.4-.2-.9-.3-1.3-.2-1.5-.5-3-.6-4.5-.4-3.8-.5-7.8.3-11.5.2-.7.3-1.4.6-2.1.7-1.8 1.6-3.7 2.8-5zm42 0c1.1 1.3 1.8 2.8 2.4 4.3.2.5.3 1 .5 1.4.2.8.4 1.5.5 2.3.7 4.2.4 8.5-.1 12.8-.2 1.7-.5 3.5-1 5.1-.2-.7-.3-1.5-.3-2.2 0-.8-.1-1.6-.1-2.4 0-2.9.2-5.7.1-8.6 0-1.4-.1-2.8-.2-4.1-.1-.5-.1-1-.2-1.4 0-.2-.1-.4-.1-.6l-.3-1.5-.3-1.2c-.1-.2-.1-.4-.1-.6-.1-.5-.3-1.1-.4-1.6-.1-.6-.3-1.1-.4-1.7z"/><path fill-rule="evenodd" clip-rule="evenodd" fill="#E5EDF0" d="M134.9 265.1l18.9 1.8c.8.1 1.6-.5 1.7-1.5l5.6-39.8c.1-.9-.4-1.8-1.3-1.9l-18.7-2.7c-.8-.1-1.6.5-1.7 1.5l-5.7 40.7c-.2.9.4 1.8 1.2 1.9z"/><path fill="#141C6B" d="M134.9 265.1c6.3.3 12.6.7 18.9 1.2.4.1.7-.2.9-.5.1-.2.1-.3.1-.5 1.7-13.3 3.5-26.6 5.3-39.8v-.3c-.1-.3-.2-.5-.5-.5-6.2-.9-12.5-1.8-18.7-2.7h.1c-.4 0-.6.1-.8.5 0 .1 0 .2-.1.2-1 6.8-2 13.6-3.1 20.3-.4 2.7-.9 5.4-1.3 8.1-.3 2-.7 4.1-1 6.1-.1.7.3 1.9-.3 2 0 0-.7 4.1-.7 4 0 .8.3 1.7 1.2 1.9-.2 0-.4-.1-.5-.1-.7-.3-1-1-.9-1.8.4-3.4.7-6.8 1.1-10.2l.5-4.1c.4-3.4.8-6.8 1.3-10.2.3-2 .5-4.1.8-6.1l.5-4.1.5-4.1c.1-.7.1-1.4.3-2 .1-.6.3-1.1.8-1.6s1.2-.7 1.8-.6c.3 0 .5-.1 1 .1l1.9.3c.9.1 1.9.3 2.8.4l6.6.9c1.3.2 2.5.3 3.8.5 1.1.2 2.4.2 3.5.6.3.1.6.4.8.6.1.1.2.2.2.3.1.1.1.2.2.3.2.4.3 1 .2 1.5 0 .1-.5 3.9-.6 4-.1.7-.2 1.3-.3 2-.1.7-.2 1.3-.3 2-.2 1.5-.4 2.5-.6 4l-1.5 9.9c-.1.7-.2 1.3-.3 2l-1.5 9.9-.6 4c.4.5-.2 1.3-.3 2-.1.7-.4 1.1-.9 1.6-.4.3-.9.4-1.4.4-.3 0-.7 0-1-.1-.3-.1-.6-.1-.9-.1-3.1-.3-6.3-.7-9.4-1.1-2.6-.4-5.1-.8-7.6-1.1z"/><path fill-rule="evenodd" clip-rule="evenodd" fill="#E5EDF0" d="M153.2 265.7l-17.6-1.5c-.6-.1-.9-.7-.9-1.3l5.6-39.9c.1-.6.6-1 1.2-1l17.5 2.6c.7 0 1.1.6 1 1.3l-5.4 38.8c-.1.7-.7 1.1-1.4 1z"/><path fill-rule="evenodd" clip-rule="evenodd" fill="#141C6B" d="M142.8 226.2c-.5-.1-.8-.5-.7-1 .1-.5.5-.8 1-.7.5.1.8.5.7 1-.1.4-.5.7-1 .7z"/><path fill-rule="evenodd" clip-rule="evenodd" fill="#BFCCF0" d="M146.2 226.8c-.4 0-.6-.4-.6-.7.1-.4.4-.6.8-.6.4.1.6.4.6.8-.1.3-.4.6-.8.5z"/><path clip-rule="evenodd" fill="none" stroke="#141C6B" stroke-width="1.5" stroke-linecap="round" stroke-linejoin="round" stroke-miterlimit="10" d="M138.6 227.8l21.2 2.9m-25.3 31.1l20.7 1.6"/><path fill-rule="evenodd" clip-rule="evenodd" fill="#141C6B" d="M147.8 236.9l.6-3.9c.1-.4.4-.7.9-.7.4.1.7.5.7.9l-.5 3.9c-.1.4-.4.7-.9.7-.5-.1-.8-.5-.8-.9z"/><path fill-rule="evenodd" clip-rule="evenodd" fill="#FFE0BD" stroke="#141C6B" stroke-width="1.12" stroke-miterlimit="10" d="M129.1 258.6c3.8-16.2 11.8-18.6 10.6-8.1-.1 3.1 2.5 2 7-1.9 12.7-11.1 20.7 16.9-9 22.7-1.7-4.6-2.6-9.6-8.6-12.7zm61.3 10c-12.6 10.9-11 19.1-2.3 13.1 2.6-1.5 2.9 1.3 1.6 7.1-3.9 16.4 24.5 10.5 15.9-18.5-4.9.7-9.7 2.1-15.2-1.7z"/><path clip-rule="evenodd" fill="none" stroke="#141C6B" stroke-width="1.12" stroke-linecap="round" stroke-linejoin="round" stroke-miterlimit="10" d="M166.4 146.5c5.4-1 10.5-.1 15.2 2.6"/><path fill-rule="evenodd" clip-rule="evenodd" fill="#141C6B" d="M168.9 155.2c1.7-1.6 4.4-1.5 5.9.3 1.6 1.7 1.4 4.4-.3 5.9-1.7 1.6-4.3 1.4-5.9-.3-1.5-1.7-1.4-4.4.3-5.9z"/><path fill-rule="evenodd" clip-rule="evenodd" fill="#FFF" d="M170.2 159.7c.5-.4 1.2-.4 1.6.1.4.5.4 1.2-.1 1.6-.5.4-1.2.4-1.6-.1-.4-.5-.4-1.2.1-1.6z"/><path clip-rule="evenodd" fill="none" stroke="#141C6B" stroke-width="1.12" stroke-linecap="round" stroke-linejoin="round" stroke-miterlimit="10" d="M126.9 146.5c5.4-1 10.5-.1 15.2 2.6"/><path fill-rule="evenodd" clip-rule="evenodd" fill="#141C6B" d="M129.4 155.2c1.7-1.6 4.4-1.4 5.9.3s1.5 4.4-.3 5.9c-1.7 1.6-4.4 1.4-5.9-.3s-1.4-4.4.3-5.9z"/><path fill-rule="evenodd" clip-rule="evenodd" fill="#FFF" d="M131.7 158.7c.5-.4 1.2-.4 1.6.1s.4 1.2-.1 1.6c-.5.4-1.2.4-1.6-.1-.4-.5-.4-1.2.1-1.6z"/><path clip-rule="evenodd" fill="none" stroke="#141C6B" stroke-width="1.12" stroke-linecap="round" stroke-linejoin="round" stroke-miterlimit="10" d="M145.6 183.5h9.9"/><path fill="#141C6B" d="M119.8 230.3c0 .8.1 2.6.2 3.5.1 1.7.2 3.5.3 5.2 0 1.1.1 2.3.1 3.5.1 2.9.1 5.8.2 8.7 0 1.7.1 3.5.1 5.2 0 2.9.1 5.8.1 8.7 0-.1-.1-.4-.1-.4l-.3-.3-.4-.1c-.1 0-.4.1-.4.1 1.7-1.2 3.4-2.3 5.1-3.5.5-.3.9-.6 1.4-.9l.9-.6.9-.6c.5-.3 1.2-1.1 1.9-.6.1.1.3.2.4.3.2.2.5.4.7.6.2.1.3.3.5.5.3.2.5.5.8.8.9.9 1.8 1.9 2.5 2.9.3.5.7.9 1 1.4.3.4.5.8.7 1.2.3.5.6 1.1.9 1.6.1.2.2.4.3.7.3.5.5 1.2.7 1.8.1.3.2.5.3.8.1.3.3.8.3 1.1 0 .5-.4.7-.7.9-.6.3-1.1.7-1.7 1.1-2.5 1.8-4.9 3.9-7.3 6-5.7 5-11.8 10.4-19.7 11.1-1.5.1-3 .1-4.5-.1-.5-.1-1-.1-1.5-.2-.3-.1-.5-.1-.7-.2.5 0 1 .1 1.6.1h2.8c1.3-.1 2.5-.3 3.8-.6.6-.1 1.1-.3 1.7-.5.3-.1.7-.2 1-.4 1-.4 1.9-.8 2.8-1.3 3-1.6 5.7-3.8 8.2-6 2.9-2.6 5.7-5.3 8.7-7.8 1-.8 2-1.6 3.1-2.3.4-.3.7-.5 1.1-.7-.3.2-.5.6-.4 1-.2-.7-.4-1.4-.7-2-.5-1.2-1-2.3-1.6-3.3-.9-1.5-1.9-2.9-3.1-4.1l-1-1c-.7-.6-1.3-1.2-2-1.8.3.2.8.3 1.1.1-1.7 1.2-3.4 2.3-5.1 3.5-.5.3-.9.6-1.4.9l-.9.6c-.2.1-.3.2-.5.3-.2.1-.3.2-.5.3-.2.1-.3.2-.5.3-.2.1-.3.2-.5.3l-.4.1s-.3 0-.3-.1h-.2l-.3-.3-.1-.2c0-.1-.1-.2-.1-.3-.1-.6 0-1.2 0-1.7 0-.6.1-1.2 0-1.7v-3.5c0-1.7 0-3.5.1-5.2v-3.4c0-1.7.1-3.5.1-5.2 0-1.7.1-3.5.1-5.2 0-.2.1-3.3.2-3.5.1-2.2.1-3.9.2-5.6zm8.7-29c-1.7.9-3.5 1.7-5.1 2.7-1.1.7-2.3 1.3-3.3 2-.7.5-1.4.9-2.1 1.4-1.9 1.3-3.7 2.9-5.4 4.5-2.4 2.3-4.6 4.9-6.4 7.8-1.3 2-2.3 4.1-3.3 6.2-.7 1.6-1.3 3.2-1.8 4.8-.2.7-.4 1.3-.6 1.9-.1.4-.2.7-.3 1.1-.2.7-.3 1.3-.5 2-.3 1.5-.7 3.1-.9 4.6-1.1 6.4-1.5 12.8-1.7 19.3-.1 2.4-.1 4.8-.2 7.2 0 2.2-.1 4.5-.1 6.7 0 .3-.1.6-.1.8-.1.7-.2 1.3-.3 2-.2 1.2-.3 2.4-.5 3.6-.1.6-.1 1.2-.2 1.8 0 .4-.1.9-.1 1.3v1.1c0 .4 0 .9.1 1.3.1 1.4.4 2.7 1.4 3.7.1.2.3.3.5.4.2.1.5.3.7.4.3.1.5.2.8.3-.3 0-.5-.1-.8-.2-.3-.1-.5-.2-.8-.4-.5-.2-.9-.8-1.2-1.2-.6-.9-1-2.2-1.1-3.4 0-.3-.1-.7-.1-1 0-.5-.1-1.1-.1-1.6v-1.9c0-.9.1-1.9.2-2.8 0-.6.1-1.1.2-1.7.1-.9.2-1.9.3-2.8v.1c0-3-.1-5.9-.1-8.9 0-2.7 0-5.5.1-8.2 0-.7 0-1.4.1-2.2.1-2 .2-4 .4-6 .6-7.9 2.1-15.7 5.3-22.9.8-1.9 1.8-3.8 2.9-5.6.6-1 1.3-1.9 1.9-2.9.6-.9 1.3-1.7 2-2.5.5-.6 1-1.1 1.5-1.7.8-.9 1.7-1.7 2.6-2.5.7-.6 1.4-1.2 2.1-1.7.3-.2.6-.5.9-.7l.9-.6c.8-.6 1.7-1.1 2.5-1.6 2.4-1.4 4.9-2.6 7.5-3.7.5.3 1.3 0 2.2-.3z"/><path fill-rule="evenodd" clip-rule="evenodd" fill="#FAB242" d="M252.6 143.2l.6.6.6-.6c1.4-1.4 3.7-1.4 5.1 0 1.4 1.4 1.4 3.7 0 5.1l-.6.6-5.1 5.1-5.1-5.1-.6-.6c-1.4-1.4-1.4-3.7 0-5.1 1.4-1.4 3.7-1.4 5.1 0z"/><path d="M119.2 40.9h4.7c.9 0 1.6-.7 1.6-1.6v-2.7c0-3.8-3.1-9.4-6.8-9.4-.4 0-.8.4-.8.8v11.6c0 .7.6 1.3 1.3 1.3zm-5 0h-4.7c-.9 0-1.6-.7-1.6-1.6v-2.7c0-3.8 3.1-9.4 6.8-9.4.4 0 .8.4.8.8v11.6c0 .7-.6 1.3-1.3 1.3z" fill-rule="evenodd" clip-rule="evenodd" fill="#69C2BD"/><path clip-rule="evenodd" fill="none" stroke="#141C6B" stroke-width="1.12" stroke-linecap="round" stroke-linejoin="round" stroke-miterlimit="10" stroke-dasharray="2.25,2.25" d="M126.6 248.7L66.2 46.5h62"/><path fill-rule="evenodd" clip-rule="evenodd" fill="#141C6B" d="M126 246.5c1.2-.4 2.4.3 2.8 1.5.4 1.2-.3 2.5-1.5 2.8-1.2.4-2.5-.3-2.8-1.5-.4-1.1.3-2.4 1.5-2.8z"/><path d="M76.2 37.1c0 .6-.1 1.1-.3 1.5-.2.5-.5.9-.9 1.2-.4.3-.9.6-1.4.8-.5.2-1.1.3-1.7.3-.6 0-1.1-.1-1.7-.3-.5-.2-1-.4-1.4-.8-.4-.3-.7-.7-1-1.2-.2-.5-.4-1-.4-1.6 0-.3 0-.6.1-.8.1-.3.2-.5.3-.7.1-.2.3-.4.4-.6.2-.2.3-.3.5-.4-.3-.2-.6-.5-.8-.8-.2-.4-.3-.7-.3-1.1 0-.5.1-1 .4-1.5.3-.4.6-.8 1-1.1.4-.3.8-.5 1.3-.7.5-.1.9-.2 1.4-.2.4 0 .9.1 1.4.2.5.1.9.4 1.3.6.4.3.7.6 1 1.1s.4.9.4 1.5c0 .4-.1.8-.3 1.1-.2.4-.5.7-.8.9.2.1.3.3.5.4.2.2.3.4.4.6.1.2.2.5.3.7.3.4.3.7.3.9zm-3.1-.1c0-.4-.1-.6-.3-.8-.2-.2-.5-.3-.9-.3s-.7.1-.9.3c-.2.2-.3.5-.3.8 0 .3.1.6.4.8.2.2.5.3.9.3s.7-.1.9-.3c.1-.3.2-.5.2-.8zM71 32.7c0 .3.1.5.3.7.2.1.4.2.6.2.2 0 .4-.1.6-.2.2-.1.3-.4.3-.7 0-.2-.1-.4-.3-.5-.2-.1-.4-.2-.7-.2-.3 0-.5.1-.7.2 0 .1-.1.3-.1.5zm15.1 4.1c0 .6-.1 1.1-.3 1.6-.2.5-.5.9-.9 1.3s-.8.7-1.4.9c-.5.2-1.1.3-1.7.3-1.4 0-2.5-.5-3.2-1.5-.8-1-1.1-2.4-1.1-4.2 0-.9.1-1.8.3-2.6.2-.7.5-1.4.9-1.9s.9-.9 1.5-1.2c.6-.3 1.2-.4 2-.4 1.4 0 2.6.5 3.7 1.6l-1.7 2c-.6-.6-1.3-.9-2-.9-.5 0-.9.2-1.3.5-.3.3-.5.8-.5 1.4.4-.4 1-.6 1.8-.6.6 0 1.1.1 1.6.3.5.2.9.5 1.3.8.4.3.6.7.9 1.2 0 .4.1.9.1 1.4zm-4.3 1.5c.2 0 .4 0 .5-.1.2-.1.3-.2.4-.3.1-.1.2-.3.3-.5.1-.2.1-.4.1-.6 0-.4-.1-.7-.4-1-.3-.3-.6-.4-1-.4s-.7.1-1 .4c-.3.3-.4.6-.4 1 0 .2 0 .4.1.6.1.2.2.3.3.5.1.1.3.2.4.3.3.1.5.1.7.1zm8.4-4.1c-.4 0-.8-.1-1.1-.2-.4-.1-.7-.3-.9-.5-.3-.2-.5-.5-.6-.8-.1-.3-.2-.7-.2-1 0-.4.1-.7.2-1 .1-.3.4-.6.6-.8.3-.2.6-.4.9-.5.3-.1.7-.2 1.1-.2.4 0 .8.1 1.1.2.3.1.7.3.9.5.3.2.5.5.6.8.1.3.2.7.2 1 0 .3-.1.7-.2 1-.2.3-.4.6-.6.8-.3.2-.6.4-.9.5-.4.1-.7.2-1.1.2zm0-1.5c.2 0 .4-.1.5-.3.2-.2.2-.5.2-.8 0-.3-.1-.6-.2-.8-.1-.2-.3-.3-.5-.3s-.4.1-.6.3c-.1.2-.2.5-.2.8 0 .3.1.6.2.8.2.2.3.3.6.3zm6.9 8.2c-.4 0-.8-.1-1.1-.2-.4-.1-.7-.3-.9-.5-.3-.2-.5-.5-.6-.8-.1-.3-.2-.7-.2-1 0-.4.1-.7.2-1 .1-.3.3-.6.6-.8.3-.2.6-.4.9-.5.3-.1.7-.2 1.1-.2.4 0 .8.1 1.1.2.4.1.7.3.9.5.3.2.5.5.6.8.1.3.2.6.2 1s-.1.7-.2 1c-.2.3-.4.6-.6.8-.3.2-.6.4-.9.5-.3.1-.7.2-1.1.2zm0-1.5c.2 0 .4-.1.5-.3.2-.2.2-.5.2-.8 0-.3-.1-.6-.2-.8-.1-.2-.3-.3-.5-.3s-.4.1-.6.3c-.1.2-.2.5-.2.8 0 .3.1.6.2.8.2.2.4.3.6.3zm-8.5.3l4.6-5.2 4.1-5.5 1.3 1.2-4.4 5-4.2 5.7-1.4-1.2z" fill="#69C2BD"/><path clip-rule="evenodd" fill="none" stroke="#141C6B" stroke-width="1.12" stroke-linecap="round" stroke-linejoin="round" stroke-miterlimit="10" stroke-dasharray="2.25,2.25" d="M175.9 241.9l32.1-81.8h39"/><path fill-rule="evenodd" clip-rule="evenodd" fill="#141C6B" d="M176.7 239.9c1.2.5 1.7 1.8 1.3 2.9-.4 1.1-1.7 1.7-2.9 1.3s-1.7-1.8-1.3-2.9c.5-1.2 1.8-1.8 2.9-1.3z"/><path d="M220.5 147.4c0 .6-.1 1.1-.3 1.6-.2.5-.5.9-.9 1.3s-.8.6-1.4.9c-.5.2-1.1.3-1.7.3-1.4 0-2.5-.5-3.2-1.5-.8-1-1.1-2.4-1.1-4.2 0-.9.1-1.8.3-2.6.2-.7.5-1.4.9-1.9s.9-.9 1.5-1.2c.6-.3 1.2-.4 2-.4 1.4 0 2.6.5 3.7 1.6l-1.7 2c-.6-.6-1.3-.9-2-.9-.5 0-.9.2-1.3.5-.3.3-.5.8-.5 1.4.4-.4 1-.6 1.8-.6.6 0 1.1.1 1.6.3.5.2.9.5 1.3.8.4.3.6.7.9 1.2-.1.4.1.9.1 1.4zm-4.4 1.5c.2 0 .4 0 .5-.1.2-.1.3-.2.4-.3.1-.1.2-.3.3-.5.1-.2.1-.4.1-.6 0-.4-.1-.7-.4-1-.3-.3-.6-.4-1-.4s-.7.1-1 .4c-.3.3-.4.6-.4 1 0 .2 0 .4.1.6.1.2.2.3.3.5.1.1.3.2.4.3.4.1.5.1.7.1zm9.8-4.2h-4.4v-2.8h9.3l-5.6 11.5h-3.5zm8.2.1c-.4 0-.8-.1-1.1-.2-.3-.1-.7-.3-.9-.5-.3-.2-.5-.5-.6-.8-.1-.3-.2-.6-.2-1s.1-.7.2-1c.1-.3.3-.6.6-.8.3-.2.6-.4.9-.5.4-.1.7-.2 1.1-.2.4 0 .8.1 1.1.2.3.1.7.3.9.5.3.2.5.5.6.8.2.3.2.7.2 1 0 .4-.1.7-.2 1-.1.3-.4.6-.6.8-.3.2-.6.4-.9.5-.3.1-.7.2-1.1.2zm0-1.5c.2 0 .4-.1.6-.3.1-.2.2-.5.2-.8s-.1-.6-.2-.8c-.2-.2-.3-.3-.6-.3-.2 0-.4.1-.5.3-.1.2-.2.5-.2.8s.1.6.2.8c.1.2.3.3.5.3zm7 8.2c-.4 0-.8-.1-1.1-.2-.3-.1-.7-.3-.9-.5-.3-.2-.5-.5-.6-.8-.1-.3-.2-.7-.2-1 0-.3.1-.7.2-1 .1-.3.3-.6.6-.8.3-.2.6-.4.9-.5.4-.1.7-.2 1.1-.2.4 0 .8.1 1.1.2.3.1.7.3.9.5.3.2.5.5.6.8.1.3.2.7.2 1 0 .4-.1.7-.2 1-.1.3-.4.6-.6.8-.3.2-.6.4-.9.5-.3.1-.7.2-1.1.2zm0-1.5c.2 0 .4-.1.6-.3.1-.2.2-.5.2-.8 0-.3-.1-.6-.2-.8-.2-.2-.3-.3-.6-.3-.2 0-.4.1-.5.3-.2.2-.2.5-.2.8 0 .3.1.6.2.8.1.2.3.3.5.3zm-8.5.3l4.6-5.2 4.1-5.5 1.3 1.2-4.4 5-4.3 5.6-1.3-1.1z" fill="#FAB242"/><path fill-rule="evenodd" clip-rule="evenodd" fill="#FC4730" d="M231.5 62.1c-.2-.5 0-1.2.4-1.7.2-.2.4-.4.7-.5.1-.1.1-.2.2-.3.4-.5.9-.7 1.4-.7.3-.3.8-.5 1.3-.5.4-.1.8-.1 1.2 0 .3-.1.7-.2 1-.1.4 0 .7.2 1 .4.4-.2.9-.2 1.5 0 .4.2.8.5 1 .9.3.1.7.3 1 .5.4.4.6.9.6 1.4.5.3.8.8.8 1.3.1.2.2.5.3.7.1.5 0 .9-.2 1.3 0 .8-.4 1.5-1.1 1.6h-.1v.5c-.2.9-1.3 1.5-2.5 1.3h-.2c-.2.3-.5.1-.5.1v1c0 .1 0 .2-.1.3l-.6.6c-.1.1-.4.1-.4-.1v-1.2c0-1.1-.4-1.6-.7-1.8-.4-.3-.4-.8-.4-1-.3.2-.9.3-1.4.2-2.1-.2-2.2-1.6-2.3-1.9-.6.1-1.2-.2-1.4-.7 0-.1-.1-.1-.1-.2-.2-.1-.4-.3-.5-.5 0-.3 0-.6.1-.9z"/><path clip-rule="evenodd" fill="none" stroke="#141C6B" stroke-width="1.12" stroke-linecap="round" stroke-linejoin="round" stroke-miterlimit="10" stroke-dasharray="2.25,2.25" d="M150 116.9L187.3 76h55.1"/><path fill-rule="evenodd" clip-rule="evenodd" fill="#141C6B" d="M151.5 115.2c.9.8 1 2.3.1 3.2s-2.3 1-3.2.1-1-2.3-.1-3.2 2.3-.9 3.2-.1z"/><path d="M196 61.6h-4.5v-2.9h9.3l-5.6 11.6h-3.5zm14 1.9c0 .7-.1 1.4-.3 2-.2.6-.5 1.1-.9 1.6-.4.4-.8.8-1.4 1-.5.2-1.1.4-1.7.4-.6 0-1.2-.1-1.7-.4-.5-.3-1-.6-1.4-1-.4-.4-.7-1-.9-1.6-.2-.6-.3-1.3-.3-2s.1-1.4.3-2c.2-.6.5-1.1.9-1.6.4-.4.8-.8 1.4-1 .5-.2 1.1-.4 1.7-.4.6 0 1.2.1 1.7.4.5.3 1 .6 1.4 1 .4.4.7 1 .9 1.6.2.6.3 1.3.3 2zm-3.1 0c0-.6-.1-1.1-.3-1.5-.2-.4-.5-.6-.9-.6s-.7.2-.9.6-.3.9-.3 1.5.1 1.1.3 1.5.5.6.9.6c.3 0 .6-.2.9-.6.2-.4.3-.9.3-1.5zm7.2-1.8c-.4 0-.8-.1-1.1-.2-.4-.1-.7-.3-.9-.5-.3-.2-.5-.5-.6-.8-.1-.3-.2-.6-.2-1s.1-.7.2-1c.1-.3.3-.6.6-.8.3-.2.6-.4.9-.5.3-.1.7-.2 1.1-.2.4 0 .8.1 1.1.2.4.1.7.3.9.5.3.2.5.5.6.8.2.3.2.7.2 1 0 .4-.1.7-.2 1-.1.3-.3.6-.6.8-.3.2-.6.4-.9.5-.3.1-.7.2-1.1.2zm0-1.5c.2 0 .4-.1.5-.3.1-.2.2-.5.2-.8s-.1-.6-.2-.8c-.1-.2-.3-.3-.5-.3s-.4.1-.6.3c-.1.2-.2.5-.2.8s.1.6.2.8c.2.2.4.3.6.3zm7 8.2c-.4 0-.8-.1-1.1-.2-.3-.1-.7-.3-.9-.5-.3-.2-.5-.5-.6-.8-.1-.3-.2-.7-.2-1 0-.3.1-.7.2-1 .1-.3.3-.6.6-.8.3-.2.6-.4.9-.5.4-.1.7-.2 1.1-.2s.8.1 1.1.2c.4.1.7.3.9.5.3.2.5.5.6.8.2.3.2.7.2 1 0 .4-.1.7-.2 1-.1.3-.4.6-.6.8-.3.2-.6.4-.9.5-.3.1-.7.2-1.1.2zm0-1.5c.2 0 .4-.1.6-.3.1-.2.2-.5.2-.8 0-.3-.1-.6-.2-.8-.2-.2-.3-.3-.6-.3-.2 0-.4.1-.5.3-.1.2-.2.5-.2.8 0 .3.1.6.2.8.1.2.3.3.5.3zm-8.5.3l4.6-5.2 4.1-5.5 1.3 1.2-4.4 5-4.3 5.6-1.3-1.1z" fill="#FC4730"/></svg>