<?xml version="1.0" encoding="utf-8"?>
<!-- Generator: Adobe Illustrator 13.0.0, SVG Export Plug-In . SVG Version: 6.00 Build 14948)  -->
<!DOCTYPE svg PUBLIC "-//W3C//DTD SVG 1.1//EN" "http://www.w3.org/Graphics/SVG/1.1/DTD/svg11.dtd">
<svg version="1.1" id="Layer_1" xmlns="http://www.w3.org/2000/svg" xmlns:xlink="http://www.w3.org/1999/xlink" x="0px" y="0px"
	 width="128px" height="128px" viewBox="0 0 128 128" enable-background="new 0 0 128 128" xml:space="preserve">
<g>
	<path fill-rule="evenodd" clip-rule="evenodd" fill="none" d="M18.7,18.7c25-25,65.5-25,90.5,0c25,25,25,65.5,0,90.5
		c-25,25-65.5,25-90.5,0C-6.2,84.3-6.2,43.7,18.7,18.7z"/>
	<path fill-rule="evenodd" clip-rule="evenodd" fill="#C2DEE8" stroke="#545E80" stroke-width="1.12" stroke-miterlimit="10" d="
		M108.1,30.6H83.4l-6.7-7.2c-2-2.1-4.8-3.4-7.7-3.4H26.9c-3.8,0-13.9,3.1-13.9,6.9v10.6V101c0,3.8,3.1,6.9,6.9,6.9h88.2
		c3.8,0,6.9-3.1,6.9-6.9V37.5C115.1,33.7,111.9,30.6,108.1,30.6z"/>
	<path fill-rule="evenodd" clip-rule="evenodd" fill="#C2DEE8" stroke="#545E80" stroke-width="1.12" stroke-miterlimit="10" d="
		M108.1,30.6H70.4l-6.7-7.2c-2-2.1-4.8-3.4-7.7-3.4H19.9c-3.8,0-6.9,3.1-6.9,6.9v10.6V101c0,3.8,3.1,6.9,6.9,6.9h88.2
		c3.8,0,6.9-3.1,6.9-6.9V37.5C115.1,33.7,111.9,30.6,108.1,30.6z"/>
	<path fill-rule="evenodd" clip-rule="evenodd" fill="#FFFFFF" stroke="#545E80" stroke-width="1.12" stroke-miterlimit="10" d="
		M108.1,103H55.4L12.9,96V32.5c0-3.8,3.1-6.9,6.9-6.9h88.2c3.8,0,6.9,3.1,6.9,6.9V96C115.1,99.9,111.9,103,108.1,103z"/>
	<path fill-rule="evenodd" clip-rule="evenodd" fill="#F0FAFF" stroke="#545E80" stroke-width="1.12" stroke-miterlimit="10" d="
		M108.1,30.6H55.4l-6.7-7.2c-2-2.1-4.8-3.4-7.7-3.4H19.9c-3.8,0-6.9,3.1-6.9,6.9v10.6V101c0,3.8,3.1,6.9,6.9,6.9h88.2
		c3.8,0,6.9-3.1,6.9-6.9V37.5C115.1,33.7,111.9,30.6,108.1,30.6z"/>
	<path fill-rule="evenodd" clip-rule="evenodd" fill="none" stroke="#545E80" stroke-width="1.12" stroke-miterlimit="10" d="
		M47.4,77.5H22.7c-1.9,0-3.4,1.5-3.4,3.4v17.6c0,1.9,1.5,3.4,3.4,3.4h24.7c1.9,0,3.4-1.5,3.4-3.4V80.9C50.8,79,49.3,77.5,47.4,77.5z
		"/>
	
		<line fill-rule="evenodd" clip-rule="evenodd" fill="none" stroke="#545E80" stroke-width="1.12" stroke-linecap="round" stroke-linejoin="round" stroke-miterlimit="10" x1="29.3" y1="87.4" x2="40.9" y2="87.4"/>
	
		<line fill-rule="evenodd" clip-rule="evenodd" fill="none" stroke="#545E80" stroke-width="1.12" stroke-linecap="round" stroke-linejoin="round" stroke-miterlimit="10" x1="29.3" y1="92.4" x2="40.9" y2="92.4"/>
	<g>
		
			<line fill-rule="evenodd" clip-rule="evenodd" fill="none" stroke="#F0524F" stroke-width="3" stroke-linecap="round" stroke-linejoin="round" stroke-miterlimit="10" x1="88.1" y1="46.2" x2="88.1" y2="71.2"/>
		
			<line fill-rule="evenodd" clip-rule="evenodd" fill="none" stroke="#F0524F" stroke-width="3" stroke-linecap="round" stroke-linejoin="round" stroke-miterlimit="10" x1="75.6" y1="58.7" x2="100.6" y2="58.7"/>
	</g>
</g>
</svg>
