<?xml version="1.0" encoding="utf-8"?>
<!-- Generator: Adobe Illustrator 13.0.0, SVG Export Plug-In . SVG Version: 6.00 Build 14948)  -->
<!DOCTYPE svg PUBLIC "-//W3C//DTD SVG 1.1//EN" "http://www.w3.org/Graphics/SVG/1.1/DTD/svg11.dtd">
<svg version="1.1" id="Layer_1" xmlns="http://www.w3.org/2000/svg" xmlns:xlink="http://www.w3.org/1999/xlink" x="0px" y="0px"
	 width="380px" height="200px" viewBox="0 0 380 200" enable-background="new 0 0 380 200" xml:space="preserve">
<rect fill-rule="evenodd" clip-rule="evenodd" fill="none" width="380" height="200"/>
<path fill-rule="evenodd" clip-rule="evenodd" fill="#E5EBF5" d="M93.32,119.44c13.373,47.493,64.533,50.506,64.533,50.506
	c32.08,1.12,56.373,1.387,81.106-15.16c8.146-5.453,15.801-12.346,20.533-21.16c4.293-7.973,5.96-17.066,6.334-25.919
	c0.293-6.854-0.214-13.854-2.987-19.814c-2.573-5.493-6.946-9.733-11.547-13.44C240.2,65.533,227.308,59.12,213.88,54.36
	c-15.84-5.627-32.787-9.026-49.96-7.387c-17.187,1.627-34.653,8.654-47.586,21.56C103.414,81.453,88.52,102.387,93.32,119.44z"/>
<path fill-rule="evenodd" clip-rule="evenodd" fill="#FA452E" d="M288.547,114.773c-1.786-4.96-5.468-9.013-7.761-13.761
	c-6.359-13.079-1.453-28.813-4.373-43.052c-1.733-8.507-6.453-16.48-13.426-21.64c-6.987-5.16-14.773-6.88-23.188-4.773h-1.413
	c-21.214-2.414-23.987,9.36-29.694,18.48c-5.705,9.133-4.906,16.973-6.946,27.547c-1.079,5.573-2.093,11.159-4.026,16.493
	c-1.387,3.8-3.239,7.44-4.786,11.16c-2.56,6.16-4.307,12.626-5.213,19.227c-0.64,4.707-0.8,9.68,1.16,14.013
	c1.972,4.32,6.6,7.761,11.292,6.947c-1,5.693,3.613,11.2,9.081,13.094c5.466,1.893,11.479,0.986,17.12-0.293
	c5.639-1.308,11.333-2.947,17.106-2.494c3.692,0.293,7.266,1.44,10.946,1.934c6.773,0.947,14.093-0.493,19.253-4.974
	c5.173-4.453,7.641-12.253,4.894-18.52c4.2-0.308,7.961-3.267,9.72-7.094C290.054,123.267,289.96,118.733,288.547,114.773z"/>
<path fill-rule="evenodd" clip-rule="evenodd" fill="#F5B8B8" d="M199.96,61.586c0,0-9.014,23.014-10.907,26.773
	c-1.627,3.253,8.013,12.76,10.466,8.347c2.308-4.16,4.534-28.76,4.534-28.76L199.96,61.586z"/>
<path fill-rule="evenodd" clip-rule="evenodd" fill="#C22912" d="M216.267,54.854c14.827-19.44,48.773-0.28,50.746,18.653
	c0.428,4.094-0.039,12.2,2.881,23.2c2.572,9.68,12.72,13.306,11.813,26.054c-0.254,3.547-6.521,7.013-10.015,7.68
	c2.121,5.239,4.041,11.52,0.961,16.267c-2.094,3.253-7.854,6.746-11.72,6.88c-3.867,0.146-17-4.16-23.308-5.986
	c-5.306-1.547-19.692,8.333-28.025,3.786c-3.361-1.827-5.613-9.853-2.881-16.36c0.174-0.4-7.439,6.053-10.453-2.426
	c-1.813-5.041,7.16-27.588,8.64-32.72C209.453,84.12,206.254,67.973,216.267,54.854z"/>
<path fill-rule="evenodd" clip-rule="evenodd" fill="#121769" d="M216.32,101.133l-26.106,5.854l-5.761,14.186
	c0,0,15.96,8.601,27.468,10.4C223.44,133.399,216.32,101.133,216.32,101.133z"/>
<path fill-rule="evenodd" clip-rule="evenodd" fill="#3B3BB0" d="M215.867,101.28c15.319-5.747,28.692-6.347,44.173-1.013
	c2.866,1,5.854,2.292,7.52,4.827c1.44,2.187,3,5.733,3.133,8.359c1.107,21.613,1.827,51.507,1.827,51.507
	c-17.173,7.267-38.212,9.106-53.239,9.693c-0.507,0.026-1.066,0.026-1.48-0.294c-0.359-0.293-0.573-0.746-0.627-1.227
	c-1.213-10.706,0.4-27.667-3.84-38.973c-3.2-8.547-3-14.761-1.867-18.946C212.906,109.946,214.746,101.692,215.867,101.28z"/>
<path fill-rule="evenodd" clip-rule="evenodd" fill="#F5B8B8" d="M244.32,95.346c2.479,0.947,6.399,2.8,5.359,5.054
	c-1.039,2.253-3.692,5.28-6.146,6.28c-1.881,0.773-5.827,1.399-7.881,1.214c-2.053-0.16-4.666-2.561-5.6-4.227
	c-1.547-2.721-0.054-4.934,2.267-7.12c1.613-1.52,3.547-2.867,5.8-3.333c2.267-0.467,4.88,0.107,6.279,1.787L244.32,95.346z"/>
<path fill-rule="evenodd" clip-rule="evenodd" fill="#E3ABAB" d="M249.133,98.813c0,0-3.333,4.667-12.266,4.973
	c-8.934,0.293-6.521-5.893-6.521-5.893L249.133,98.813z"/>
<path fill-rule="evenodd" clip-rule="evenodd" fill="#FAC2BD" d="M212.934,73.107c0.066-3.613,0.52-7.227,1.692-10.64
	C217.187,55,223.359,48.8,230.894,46.44c7.533-2.36,17.893-0.387,23.893,4.747c5.987,5.146,7.68,15.479,7.68,15.479
	c2.027,8.146-0.399,23.066-5.399,27.88c-6.04,5.813-17.692,6.866-25.96,5.453c-4.387-0.76-9.16-2.68-12.32-5.84
	C214.12,89.494,212.827,79.707,212.934,73.107z"/>
<path fill-rule="evenodd" clip-rule="evenodd" fill="#F5B8B8" d="M262.72,67.88l0.4,3.44c0,0-10,2.213-20.199,1.307l-1.308-8.174
	l-0.906,8.174c0,0-12.32,2.733-27.667-2.213c0,0,0.4-5.16,0.494-7.574c0.106-2.426,9.492-6.066,9.492-6.066l19.801-2.227
	L262.72,67.88z"/>
<path fill-rule="evenodd" clip-rule="evenodd" fill="#FA452E" d="M210.813,57.88c3.573-6.894,10.44-12.934,17.693-15.707
	c7.213-2.747,17.906-3.293,24.414,0.866c5.666,3.614,16.146,12.667,16.359,19.387l0.16,4.854c-5.787,1.12-18.387,3.027-24.547,2.427
	c-1.52-5.307-2.08-8.48-3.28-13.947c-1.106,5.307-2.239,13.88-2.626,13.947c-9.694,1.413-21.214-0.413-30.295-1.826
	C208.746,63.76,208.906,61.547,210.813,57.88z"/>
<path fill-rule="evenodd" clip-rule="evenodd" fill="#FAC2BD" d="M246.227,121.427c4.12,7.187,8.493,14.64,12.36,21.96
	c0.199,0.387,0.413,0.813,0.334,1.267c-0.068,0.347-0.308,0.64-0.547,0.906c-3.015,3.32-6.613,6.133-10.588,8.268
	c-1.279-8.96-4.106-17.066-4.572-26.094c-0.041-0.667,1.893-2.268,2.267-2.8c0.372-0.547-0.333-3.987,0.013-3.44L246.227,121.427z"
	/>
<path fill-rule="evenodd" clip-rule="evenodd" fill="#0D1757" d="M198.094,106.68c0,0,2.12,4.094,1.507,6.066
	c-0.601,1.974-0.707,7.48-12.36,9.907l-2.787-1.48L198.094,106.68z"/>
<path fill-rule="evenodd" clip-rule="evenodd" fill="#121769" d="M179.506,103.066c0.214-1.013,0.8-1.894,1.24-2.826
	c3.907-8.307,7.747-14.053,7.747-14.053s2.147,1.613,6.613,4.413c4.494,2.8,7.32,3.16,7.32,3.16l-1.36,14.319
	c-0.093,1.694-0.239,3.468-1.079,4.947c-1.041,1.826-9.761,6.961-12.774,7.986c-0.893,0.308-1.92,0.574-2.76,0.16
	c-0.799-0.387-4.053-3.865-4.906-14.84C179.48,105.239,179.28,104.133,179.506,103.066z"/>
<path fill-rule="evenodd" clip-rule="evenodd" fill="#FAC2BD" d="M268.934,74.667c-0.547-2.106-1.84-4.373-3.987-4.6
	c-1.639-0.173-4.227,0.293-5.626,1.16c-2.013,1.227-2.214,1.947-3.027,2.92l0.12,0.707c-0.146,3.586,0.146,7.186,0.88,10.72
	c3.521,0.28,7.547,0.413,10.04-2.094C269.534,81.267,269.72,77.693,268.934,74.667z"/>
<path fill-rule="evenodd" clip-rule="evenodd" fill="#F5B8B8" d="M261.84,75.76c-0.359,1.293-0.692,5.28,0.013,5.467
	c0.601,0.173,2.054-3.494,2.414-4.8C264.707,74.867,262.28,74.2,261.84,75.76z"/>
<path fill-rule="evenodd" clip-rule="evenodd" fill="#FAC2BD" d="M208.04,74.667c0.547-2.106,1.84-4.373,3.986-4.6
	c1.641-0.173,4.228,0.293,5.641,1.16c2,1.227,2.213,1.947,3.013,2.92l-0.12,0.707c0.147,3.586-0.146,7.186-0.88,10.72
	c-3.52,0.28-7.532,0.413-10.026-2.094C207.44,81.267,207.267,77.693,208.04,74.667z"/>
<path fill-rule="evenodd" clip-rule="evenodd" fill="#F5B8B8" d="M215.133,75.76c0.36,1.293,0.694,5.28,0,5.467
	c-0.599,0.173-2.066-3.494-2.426-4.8C212.267,74.867,214.692,74.2,215.133,75.76z"/>
<path fill-rule="evenodd" clip-rule="evenodd" fill="#2E2E2E" d="M249.493,81.574c0.066,1.227-0.04,2.319-0.293,3.506
	c-0.427,1.959-2.521,1.813-2.747,0.28c-0.173-1.227-0.146-2.453-0.227-3.68C246.094,79.586,249.347,79.48,249.493,81.574z"/>
<path fill-rule="evenodd" clip-rule="evenodd" fill="#2E2E2E" d="M227.707,81.173c0.079,1.227-0.027,2.307-0.28,3.506
	c-0.427,1.947-2.521,1.8-2.747,0.267c-0.173-1.214-0.16-2.453-0.239-3.68C224.308,79.173,227.573,79.066,227.707,81.173z"/>
<path fill-rule="evenodd" clip-rule="evenodd" fill="#F5B8B8" d="M258.227,88.027c-0.079-0.76-0.413-1.64-1.493-1.827
	c-2.733-0.453-6.4-0.8-8.934,0.56c-1.039,0.574-1.973,1.613-1.479,2.88c0.507,1.293,2.187,1.586,3.372,1.88
	c2.268,0.546,5.801,0.693,7.547-1.293C257.84,89.533,258.374,88.934,258.227,88.027z"/>
<path fill-rule="evenodd" clip-rule="evenodd" fill="#F5B8B8" d="M217.359,88.08c-0.187-0.707,0.067-1.506,0.921-1.627
	c2.173-0.307,5.079-0.506,7.146,0.72c0.84,0.493,1.613,1.413,1.253,2.454c-0.359,1.066-1.692,1.28-2.64,1.493
	c-1.786,0.4-4.88,0.613-6.32-1.093C217.214,89.426,217.12,88.693,217.359,88.08z"/>
<path fill-rule="evenodd" clip-rule="evenodd" fill="#F5B8B8" d="M253.707,149.534l-6.015-16.32c0,0-0.173,0.56-2.626,1.106
	c-1.359,0.28,2.414,18.267,2.414,18.267L253.707,149.534z"/>
<path fill-rule="evenodd" clip-rule="evenodd" fill="#121769" d="M245.573,151.32c0.387-0.16,4.053-0.641,5.867-1.628
	c4.68-2.56,6.427-4.239,9.066-8.119c0,0,6.2,9.36,8.826,13.16c1.854,2.707,3.254,6.72,3.347,9.2c0.12,3.267-1.227,6.227-2.453,9.253
	c-1.187,2.934-5.013,6.893-5.626,6.974c-2.801,0.374-6.521-0.96-8.32-1.946c-2.347-1.28-4.733-2.601-6.494-4.601
	C246.147,169.493,244.96,151.573,245.573,151.32z"/>
<path fill-rule="evenodd" clip-rule="evenodd" fill="#C22912" d="M252.239,75.747c-2.56-0.653-5.279-0.72-8.106-0.28
	c-0.599,0.107-2.227-1.654-1.28-1.734l1.468-0.213c3.173-0.307,5.493,0.054,8.479,1.347
	C254.733,75.707,253.347,76.027,252.239,75.747z"/>
<path fill-rule="evenodd" clip-rule="evenodd" fill="#C22912" d="M220.374,74.227c2.613-0.28,5.333,0.053,8.053,0.92
	c0.586,0.187,2.453-1.307,1.52-1.52l-1.412-0.44c-3.094-0.761-5.44-0.747-8.601,0.093C217.906,73.813,219.239,74.346,220.374,74.227
	z"/>
<path fill-rule="evenodd" clip-rule="evenodd" fill="#FAC2BD" d="M202.227,52.667c3.84-3.68,11.239-6.547,12.054-5.253
	c1.013,0.84-2.374,4.307-6.094,5.773c2.934,0.173,7.92-0.44,10.387,0.866c0.641,0.347,1.36,0.787,1.439,1.507
	c0.054,0.627-1.586,1.387-1.56,1.613c0.066,0.506,1.094,1.84-0.746,2.733c-0.387,0.187-0.507,2.027-1.934,2.747
	c-2.147,1.079-7,1.893-8.013,1.786c-0.547,2.04-1.521,3-2.867,3.76c-0.787,0.454-2.947,1.107-3.68,0.587
	c-1.573-1.107-1.707-3.347-1.773-5.267c-0.094-2.347-0.24-3.08,0.359-5.347C200.399,55.893,202.227,52.667,202.227,52.667z"/>
<path fill-rule="evenodd" clip-rule="evenodd" fill="#F5B8B8" d="M206.359,56.613c3.308,0.187,6.614,0.227,9.934,0.093
	c0.907-0.04,0.961,0.747,0.054,0.787c-3.32,0.133-6.68,0.693-9.987,0.506C205.466,57.947,205.453,56.56,206.359,56.613z"/>
<path fill-rule="evenodd" clip-rule="evenodd" fill="#F5B8B8" d="M206.853,60.52c3.32,0,4.227,0.054,7.534-0.267
	c0.894-0.093,0.987,0.693,0.094,0.773c-3.308,0.319-4.16,0.693-7.468,0.693C206.12,61.72,206.853,60.52,206.853,60.52z"/>
<path fill-rule="evenodd" clip-rule="evenodd" fill="#D99494" d="M239.293,87.88c0,0-1.746,0.307-3.039,0.146
	c-1.28-0.146-2.493-0.601-2.493-0.601S236.56,91.293,239.293,87.88z"/>
<path fill-rule="evenodd" clip-rule="evenodd" fill="#C7CCCF" d="M220.267,106.68c0.881-0.759,16.76-2.547,22.507-1.64
	c1.746,14.334,2.601,26.28,3.106,40.721c0,0-0.279,1.599-1.346,1.705c-4.801,0.44-18.361,0.707-19.561-0.227
	c-1.707-1.346-6.094-28.52-6.439-38.013C218.507,108.573,220.106,106.827,220.267,106.68z"/>
<path fill-rule="evenodd" clip-rule="evenodd" fill="#E5EBEB" d="M218.52,109c0.547-0.534,16.574-2.374,22.32-1.466
	c1.747,14.318,3.267,25.572,3.773,40.025c0,0-19.773,2.16-21.239,1.014C221.293,146.946,217.534,109.946,218.52,109z"/>
<path fill-rule="evenodd" clip-rule="evenodd" fill="#C7CCCF" d="M229.106,114.88c0.014,0.52,0.347,0.947,0.733,0.92
	c0.399-0.014,0.694-0.453,0.68-0.973c-0.026-0.534-0.359-0.947-0.746-0.934C229.387,113.906,229.079,114.347,229.106,114.88z"/>
<path fill-rule="evenodd" clip-rule="evenodd" fill="#FAC2BD" d="M229.013,122.187c0.268-0.64,1.054-0.986,1.733-1.174
	c4.468-1.146,8.961-2.186,13.468-3.16c0.813-0.173,1.666-0.333,2.453-0.106c1.186,0.333,1.68,3.841,1.506,5.067l0.347,11.334
	c-0.013,0.639-0.079,1.306-0.413,1.84c-0.613,0.946-1.453,1.267-2.572,1.306c-4.334,0.188-8.721-0.946-12.414-3.227
	c-0.787-0.479-1.761-3.187-1.52-4.066c0.106-0.359-0.814-1.827-0.881-2.187c-0.293-1.693,0.494-2.653-0.572-3.2
	C229.079,124.079,228.641,123.12,229.013,122.187z"/>
<path fill-rule="evenodd" clip-rule="evenodd" fill="#F5B8B8" d="M242.466,125.239c-3.318,0.015-6.626,0.188-9.932,0.521
	c-0.894,0.092-1-0.682-0.094-0.773c3.306-0.334,6.613-1.107,9.934-1.12C243.267,123.853,243.359,125.239,242.466,125.239z"/>
<path fill-rule="evenodd" clip-rule="evenodd" fill="#F5B8B8" d="M242.974,130.707c-3.281-0.507-6.574-0.854-9.88-1.04
	c-0.907-0.054-0.88-0.827,0.026-0.787c3.307,0.199,6.707-0.04,9.986,0.453C243.987,129.466,243.867,130.853,242.974,130.707z"/>
<path fill-rule="evenodd" clip-rule="evenodd" fill="#F5B8B8" d="M242.079,134.493c-2.279-0.52-5.158-0.587-7.492-0.893
	c-0.627-0.081-0.561-0.627,0.066-0.547c2.334,0.306,5.334-0.027,7.613,0.493c0.613,0.146,0.693,1.133,0.08,0.987L242.079,134.493z"
	/>
<path fill-rule="evenodd" clip-rule="evenodd" fill="#2E2E2E" d="M242.333,92.387c-3.173,2.494-7.427,2.426-10.466-0.24
	c-0.841-0.733,0.093-1.546,0.933-0.813c2.467,2.16,5.88,1.72,8.467-0.32C242.147,90.32,243.214,91.693,242.333,92.387z"/>
<path fill-rule="evenodd" clip-rule="evenodd" fill="#80CFDE" d="M182.293,163.16c-0.026,0.026-0.04,0.054-0.053,0.066
	C182.253,163.267,182.267,163.214,182.293,163.16z"/>
<path fill-rule="evenodd" clip-rule="evenodd" fill="#80CFDE" d="M180.787,144.399c0,0,0,0.027,0,0.054
	C180.96,144.613,180.907,144.547,180.787,144.399z"/>
<path fill-rule="evenodd" clip-rule="evenodd" fill="#FA452E" d="M123.24,122.493c-0.027,0-0.053-0.013-0.053-0.027
	C123.2,122.52,123.227,122.52,123.24,122.493z"/>
<path fill-rule="evenodd" clip-rule="evenodd" fill="#FA452E" d="M123.146,122.387c0.014,0,0.027,0,0.041,0
	C123.146,122.32,123.133,122.32,123.146,122.387z"/>
<path fill-rule="evenodd" clip-rule="evenodd" fill="#FA452E" d="M113.227,75.267l0.293-0.08
	C113.373,75.213,113.293,75.24,113.227,75.267z"/>
<path fill-rule="evenodd" clip-rule="evenodd" fill="#FA452E" d="M111.053,75.574l-0.026,0.093
	C111.12,75.6,111.16,75.56,111.053,75.574z"/>
<path fill-rule="evenodd" clip-rule="evenodd" fill="#FA452E" d="M96.387,83.52c-0.107,0.066-0.28,0.173-0.48,0.347
	C96.066,83.747,96.227,83.64,96.387,83.52z"/>
<path fill-rule="evenodd" clip-rule="evenodd" fill="#FA452E" d="M125.066,75.693l0.4-0.107
	C124.92,75.467,125.12,75.613,125.066,75.693z"/>
<path fill-rule="evenodd" clip-rule="evenodd" fill="#FA452E" d="M142.333,109.987c-0.027,0.013-0.04,0.039-0.066,0.066
	C142.293,110.066,142.307,110.026,142.333,109.987z"/>
<path fill-rule="evenodd" clip-rule="evenodd" fill="#FA452E" d="M100.027,116.453c0-0.013-0.014-0.013-0.014-0.013
	C100.04,116.52,100.04,116.507,100.027,116.453z"/>
<path fill-rule="evenodd" clip-rule="evenodd" fill="#FA452E" d="M140.547,87.6c0,0.013,0,0.04,0,0.054
	C140.747,87.88,140.68,87.773,140.547,87.6z"/>
<path fill-rule="evenodd" clip-rule="evenodd" fill="#FA452E" d="M90.533,98.013c0,0.014,0.014,0.014,0.014,0.026
	c0-0.013,0-0.026,0-0.04L90.533,98.013z"/>
<path fill-rule="evenodd" clip-rule="evenodd" fill="#FA452E" d="M90.373,96.987c0.24,0.439,0.213,0.68,0.174,1.013
	c0.186-0.12,0.36-0.24,0.546-0.346C90.854,97.44,90.613,97.213,90.373,96.987z"/>
<path fill-rule="evenodd" clip-rule="evenodd" fill="#FA452E" d="M91.64,91.893h0.014V91.88
	C91.654,91.893,91.654,91.893,91.64,91.893z"/>
<path fill-rule="evenodd" clip-rule="evenodd" fill="#FA452E" d="M91.654,91.88c0.053-0.174,0.106-0.253,0.053-0.347
	C91.707,91.627,91.68,91.747,91.654,91.88z"/>
<path fill-rule="evenodd" clip-rule="evenodd" fill="#FA452E" d="M97.947,82.093c10.866-9.56,28.506-9.56,39.374,0
	c10.867,9.547,10.867,25.067,0,34.614c-10.867,9.56-28.507,9.56-39.374,0C87.08,107.16,87.08,91.64,97.947,82.093z"/>
<path fill-rule="evenodd" clip-rule="evenodd" fill="#FA452E" d="M95.96,83.96c0.04-0.014,0.093,0,0.133,0.013
	C96.12,83.893,96.093,83.854,95.96,83.96z"/>
<path fill-rule="evenodd" clip-rule="evenodd" fill="#FA452E" d="M125,75.72l0.027,0.013c0.026-0.013,0.04-0.026,0.04-0.04
	L125,75.72z"/>
<path fill-rule="evenodd" clip-rule="evenodd" fill="#FA452E" d="M96.854,114.293c-0.107-0.173-0.133-0.293-0.147-0.359
	C96.654,113.946,96.68,114.04,96.854,114.293z"/>
<path fill-rule="evenodd" clip-rule="evenodd" fill="#FA452E" d="M114.387,123.026c0.133,0.04,0.253,0.053,0.373,0.08l-0.12-0.227
	C114.56,122.934,114.48,122.987,114.387,123.026z"/>
<path fill-rule="evenodd" clip-rule="evenodd" fill="#FA452E" d="M111.574,122.387c0.227,0.066,0.426,0.16,0.626,0.214
	c0-0.041,0.094-0.054,0.2-0.041C112,122.48,111.574,122.32,111.574,122.387z"/>
<path fill-rule="evenodd" clip-rule="evenodd" fill="#FA452E" d="M112.92,122.626c-0.107-0.025-0.346-0.066-0.52-0.066
	C112.6,122.601,112.8,122.653,112.92,122.626z"/>
<path fill-rule="evenodd" clip-rule="evenodd" fill="#FA452E" d="M113.213,122.906c0.213,0.054,0.427,0.106,0.626,0.16l-0.173-0.079
	C113.52,122.96,113.36,122.946,113.213,122.906z"/>
<path fill-rule="evenodd" clip-rule="evenodd" fill="#FA452E" d="M106.387,121.173l0.36,0.066c-0.16-0.133-0.16-0.199-0.227-0.306
	L106.387,121.173z"/>
<path fill-rule="evenodd" clip-rule="evenodd" fill="#FA452E" d="M104.8,120.32c-0.107,0.026-1.041-0.32-0.227,0.106
	C104.693,120.399,105.36,120.692,104.8,120.32z"/>
<path fill-rule="evenodd" clip-rule="evenodd" fill="#FA452E" d="M91.414,104.667c0.173,0.88,0.333,0.119,0.467,0.92
	c0.159,0.159-0.121-0.653,0.04-0.48C91.654,104.626,91.627,104.347,91.414,104.667z"/>
<path fill-rule="evenodd" clip-rule="evenodd" fill="#FA452E" d="M91.92,105.106c0.041,0.066,0.093,0.147,0.16,0.227
	C92,105.2,91.947,105.133,91.92,105.106z"/>
<path fill-rule="evenodd" clip-rule="evenodd" fill="#FA452E" d="M106.72,76.333h-0.48l-0.027,0.08
	C106.32,76.453,106.453,76.426,106.72,76.333z"/>
<polygon fill-rule="evenodd" clip-rule="evenodd" fill="#FA452E" points="113.907,74.92 113.773,74.92 114.053,75.16 "/>
<path fill-rule="evenodd" clip-rule="evenodd" fill="#FA452E" d="M120.44,74.56c-0.267-0.04-0.586-0.013-0.854-0.027
	C120.173,74.506,120.48,74.893,120.44,74.56z"/>
<path fill-rule="evenodd" clip-rule="evenodd" fill="#FFFFFF" d="M118.387,111.573c-0.173,0-8.76-4.426-11.667-11.827l-0.16-0.4
	c-0.68-1.706-1.707-4.293-1.107-7.28c0.454-2.2,3.094-4.227,5.48-4.227c0.027,0,0.066,0,0.093,0c2.6,0.053,4.973,2.6,6.373,5.187
	c0.427-1.107,1-2.066,1.76-2.854c1.867-1.974,4.8-2.613,6.973-1.52c2.093,1.066,3.693,3.573,3.387,6.692
	C128.574,104.667,118.506,111.573,118.387,111.573z"/>
<path fill-rule="evenodd" clip-rule="evenodd" fill="#29B273" d="M162.213,107.692c-2.72,6.214-9.96,9.041-16.174,6.32
	c-6.2-2.72-9.026-9.959-6.307-16.173c2.707-6.213,9.947-9.027,16.174-6.307C162.107,94.253,164.934,101.493,162.213,107.692z"/>
<path fill-rule="evenodd" clip-rule="evenodd" fill="#FFFFFF" d="M145.707,104.293c0.693,1.066,1.4,2.134,2.094,3.2
	c0.493,0.733,1.479,0.906,2.133,0.28c2.413-2.32,4.76-4.694,7.053-7.134c1.187-1.267-0.72-3.187-1.92-1.907
	c-2.28,2.44-4.626,4.814-7.053,7.12c0.72,0.094,1.427,0.188,2.133,0.28c-0.707-1.079-1.4-2.146-2.107-3.212
	C147.093,101.466,144.747,102.827,145.707,104.293z"/>
<path fill-rule="evenodd" clip-rule="evenodd" fill="#121769" d="M106.907,110.573c-0.267,0-0.52-0.187-0.573-0.453l-1.613-5.654
	l-4.333-0.092c-0.333,0-0.6-0.28-0.586-0.601c0-0.347,0.266-0.613,0.613-0.601l4.786,0.094c0.267,0,0.507,0.174,0.574,0.44
	l0.986,3.507l1.934-11.267c0.053-0.28,0.293-0.494,0.574-0.507c0.28-0.014,0.546,0.187,0.613,0.48l2.346,9.627l1.36-6.987
	c0.041-0.24,0.253-0.453,0.521-0.48c0.266-0.041,0.52,0.12,0.626,0.346l2.414,5.347l3.707,0.066c0.333,0,0.6,0.28,0.586,0.613
	c0,0.333-0.28,0.601-0.6,0.601h-0.013l-4.094-0.08c-0.227,0-0.439-0.146-0.533-0.36l-1.786-3.946l-1.521,7.826
	c-0.053,0.28-0.293,0.48-0.573,0.48c-0.307,0-0.547-0.188-0.614-0.454l-2.307-9.493l-1.906,11.04
	c-0.027,0.28-0.267,0.48-0.547,0.493C106.934,110.573,106.92,110.573,106.907,110.573z"/>
<path fill-rule="evenodd" clip-rule="evenodd" fill="#80CFDE" d="M137.586,49.533c0.014,0.014,0.014,0.027,0.014,0.053
	c0-0.026,0.013-0.053,0.013-0.053H137.586z"/>
<path fill-rule="evenodd" clip-rule="evenodd" fill="#80CFDE" d="M137.44,48.506c0.24,0.44,0.2,0.693,0.173,1.027
	c0.16-0.12,0.347-0.24,0.52-0.36C137.907,48.96,137.667,48.747,137.44,48.506z"/>
<path fill-rule="evenodd" clip-rule="evenodd" fill="#80CFDE" d="M138.48,56.187c0.16,0.893,0.32,0.12,0.454,0.92
	c0.173,0.16-0.107-0.654,0.04-0.48C138.707,56.16,138.693,55.867,138.48,56.187z"/>
<path fill-rule="evenodd" clip-rule="evenodd" fill="#80CFDE" d="M138.973,56.627c0.054,0.08,0.107,0.16,0.16,0.24
	C139.053,56.733,139.013,56.667,138.973,56.627z"/>
<path fill-rule="evenodd" clip-rule="evenodd" fill="#80CFDE" d="M142.773,34.453c10.867-9.546,28.506-9.546,39.387,0
	c10.866,9.56,10.866,25.067,0,34.627c-10.88,9.547-28.52,9.547-39.387,0C131.907,59.52,131.907,44.013,142.773,34.453z"/>
<path fill-rule="evenodd" clip-rule="evenodd" fill="#80CFDE" d="M170.293,74.027C170.28,74.013,170.267,74,170.24,74
	C170.267,74.027,170.28,74.053,170.293,74.027z"/>
<path fill-rule="evenodd" clip-rule="evenodd" fill="#80CFDE" d="M170.213,73.893c0.013,0.014,0.013,0.014,0.027,0.027
	C170.2,73.827,170.2,73.854,170.213,73.893z"/>
<path fill-rule="evenodd" clip-rule="evenodd" fill="#80CFDE" d="M160.28,26.8l0.294-0.094
	C160.44,26.747,160.346,26.773,160.28,26.8z"/>
<path fill-rule="evenodd" clip-rule="evenodd" fill="#80CFDE" d="M158.133,27.093l-0.04,0.106
	C158.187,27.133,158.213,27.093,158.133,27.093z"/>
<path fill-rule="evenodd" clip-rule="evenodd" fill="#80CFDE" d="M172.133,27.227l0.387-0.107
	C171.973,26.987,172.2,27.146,172.133,27.227z"/>
<path fill-rule="evenodd" clip-rule="evenodd" fill="#80CFDE" d="M189.4,61.494c-0.027,0.026-0.054,0.066-0.066,0.08
	C189.346,61.6,189.373,61.56,189.4,61.494z"/>
<path fill-rule="evenodd" clip-rule="evenodd" fill="#80CFDE" d="M147.08,67.973c0,0,0-0.013-0.014-0.013
	C147.107,68.04,147.093,68.027,147.08,67.973z"/>
<path fill-rule="evenodd" clip-rule="evenodd" fill="#80CFDE" d="M187.6,39.12c0,0.027,0.013,0.041,0.013,0.067
	C187.813,39.4,187.747,39.293,187.6,39.12z"/>
<path fill-rule="evenodd" clip-rule="evenodd" fill="#80CFDE" d="M172.053,27.24l0.04,0.013c0.014-0.013,0.026-0.013,0.04-0.027
	L172.053,27.24z"/>
<path fill-rule="evenodd" clip-rule="evenodd" fill="#80CFDE" d="M143.907,65.813c-0.094-0.173-0.133-0.28-0.147-0.36
	C143.72,65.467,143.733,65.574,143.907,65.813z"/>
<path fill-rule="evenodd" clip-rule="evenodd" fill="#80CFDE" d="M161.453,74.56c0.121,0.026,0.24,0.04,0.374,0.067l-0.133-0.227
	C161.613,74.453,161.533,74.506,161.453,74.56z"/>
<path fill-rule="evenodd" clip-rule="evenodd" fill="#80CFDE" d="M158.64,73.907c0.213,0.066,0.426,0.146,0.627,0.213
	c0-0.04,0.093-0.04,0.186-0.04C159.066,74,158.654,73.827,158.64,73.907z"/>
<path fill-rule="evenodd" clip-rule="evenodd" fill="#80CFDE" d="M159.987,74.146c-0.12-0.013-0.36-0.053-0.534-0.066
	C159.667,74.133,159.867,74.16,159.987,74.146z"/>
<path fill-rule="evenodd" clip-rule="evenodd" fill="#80CFDE" d="M160.267,74.426c0.213,0.067,0.426,0.107,0.653,0.16l-0.187-0.066
	C160.574,74.494,160.426,74.467,160.267,74.426z"/>
<path fill-rule="evenodd" clip-rule="evenodd" fill="#80CFDE" d="M153.44,72.693l0.36,0.053c-0.16-0.12-0.146-0.173-0.214-0.28
	L153.44,72.693z"/>
<path fill-rule="evenodd" clip-rule="evenodd" fill="#80CFDE" d="M151.867,71.84c-0.107,0.053-1.04-0.32-0.213,0.121
	C151.747,71.934,152.426,72.227,151.867,71.84z"/>
<polygon fill-rule="evenodd" clip-rule="evenodd" fill="#80CFDE" points="160.973,26.44 160.84,26.44 161.107,26.68 "/>
<path fill-rule="evenodd" clip-rule="evenodd" fill="#80CFDE" d="M167.494,26.08c-0.253-0.041-0.574,0-0.854-0.027
	C167.24,26.027,167.547,26.414,167.494,26.08z"/>
<path fill-rule="evenodd" clip-rule="evenodd" fill="#FFFFFF" d="M168.013,41.12c0-0.013,0-0.026,0-0.026
	c0-0.013,0.014-0.027,0.014-0.04C168.027,41.08,168.013,41.093,168.013,41.12z M166.506,49.8c-0.239-0.267-0.426-0.533-0.373-0.707
	c0.12-0.253,0.307-0.347,0.533-0.373C166.6,49.066,166.56,49.426,166.506,49.8z M162.187,49.68
	c-0.054-0.333-0.121-0.653-0.174-0.947c0.174,0.041,0.32,0.134,0.427,0.36C162.494,49.24,162.373,49.453,162.187,49.68z
	 M160.827,41.12c0-0.026-0.014-0.04-0.014-0.066c0,0.013,0.014,0.027,0.014,0.04C160.827,41.093,160.827,41.107,160.827,41.12z
	 M175.8,50.627c0,0,0.013,0,0.013-0.014l-0.026-0.24c0,0-0.013,0.014-0.027,0.027c-0.253-1.48-0.68-2.906-1.346-4.12
	c-2.427-4.453-4.587-6.533-6.294-5.426c-0.066,0.027-0.12,0.08-0.173,0.12c-0.04,0.027-0.08,0.054-0.12,0.093
	c0,0-0.973,0.387-0.467,4.44c0,0-0.32,1.094-0.6,2.64c-0.32,0.107-0.693,0.107-1.053-0.213C164.92,47.227,165,44.96,165,44.96
	v-0.067l0.027-0.013H165l0.013-1.107l0.014-0.014l-0.014,0.014v-1.12h0.014h-0.014l0.014-1.107l0.013-0.014l-0.013,0.014
	l0.013-1.121l0,0l0,0l0.014-2.227h0.027h-0.027v-0.093c-0.253,0.053-0.506,0.093-0.76,0.12c-0.374,0.041-0.8-0.093-1.16-0.12
	l0.453,6.786l-0.053-0.013l0.053,0.026v0.054c0,0,0.08,2.266-0.706,2.973c-0.333,0.307-0.693,0.307-1,0.227
	c-0.307-1.32-0.547-1.987-0.547-1.987c0.506-4.054-0.32-5.107-0.32-5.107c-0.04-0.04-0.08-0.066-0.12-0.093
	c-0.053-0.04-0.106-0.093-0.173-0.12c-1.707-1.107-3.854,0.973-6.294,5.426c-0.653,1.214-1.08,2.64-1.346,4.12
	c0-0.013-0.027-0.027-0.027-0.027l-0.026,0.24c0,0.014,0.013,0.014,0.013,0.014c-0.693,4.173-0.093,8.56,0.333,9.133
	c0.187,0.227,0.693,0.201,1.347,0.027h0.013c1.534-0.4,3.8-1.546,4.294-1.813c0.693-0.399,2.146-0.16,2.76-0.586
	c0.627-0.426,0.2-2.066,0.2-2.066c0.347-1,0.453-2.147,0.427-3.281c0.013,0,0.04,0,0.053-0.013V51.76
	c-0.014,0-0.041,0.014-0.053,0.014c-0.027-0.427-0.067-0.867-0.107-1.28c0.107-0.214,0.2-0.374,0.253-0.494
	c0.24-0.56,1.24-1.4,1.307-1.52c0.08-0.134,0.413-0.347,0.427-0.347c0.013,0,0.347,0.227,0.413,0.347c0.08,0.12,1.08,0.96,1.32,1.52
	c0.066,0.146,0.227,0.426,0.399,0.76c-0.026,0.32-0.04,0.667-0.04,1h-0.014v0.28h0.014c0,1.147,0.12,2.307,0.467,3.281
	c0,0-0.427,1.64,0.2,2.066c0.626,0.426,2.066,0.187,2.76,0.586c0.494,0.267,2.761,1.414,4.294,1.813h0.013
	c0.654,0.174,1.174,0.2,1.347-0.027C175.893,59.187,176.494,54.8,175.8,50.627z"/>
<path fill-rule="evenodd" clip-rule="evenodd" fill="#80CFDE" d="M138.707,43.414L138.707,43.414L138.707,43.414z"/>
<path fill-rule="evenodd" clip-rule="evenodd" fill="#80CFDE" d="M138.707,43.414c0.053-0.173,0.106-0.267,0.067-0.36
	C138.76,43.16,138.733,43.28,138.707,43.414z"/>
<path fill-rule="evenodd" clip-rule="evenodd" fill="#29B273" d="M149.494,37c-2.72,6.213-9.96,9.04-16.173,6.32
	c-6.201-2.72-9.027-9.96-6.307-16.174c2.72-6.2,9.96-9.027,16.16-6.307C149.387,23.56,152.213,30.8,149.494,37z"/>
<path fill-rule="evenodd" clip-rule="evenodd" fill="#FFFFFF" d="M132.973,33.6c0.707,1.066,1.414,2.133,2.107,3.2
	c0.48,0.747,1.48,0.906,2.133,0.28c2.414-2.32,4.747-4.693,7.054-7.12c1.186-1.281-0.72-3.187-1.934-1.921
	c-2.28,2.44-4.627,4.814-7.04,7.121c0.707,0.093,1.413,0.186,2.133,0.28c-0.706-1.067-1.413-2.133-2.106-3.213
	C134.36,30.787,132.013,32.133,132.973,33.6z"/>
<path fill-rule="evenodd" clip-rule="evenodd" fill="#80CFDE" d="M143.453,35.053c-0.12,0.066-0.28,0.173-0.48,0.347
	C143.133,35.28,143.293,35.16,143.453,35.053z"/>
<path fill-rule="evenodd" clip-rule="evenodd" fill="#80CFDE" d="M143.013,35.494c0.067-0.027,0.106-0.014,0.147,0
	C143.187,35.414,143.16,35.387,143.013,35.494z"/>
<path fill-rule="evenodd" clip-rule="evenodd" fill="#80CFDE" d="M153.773,27.854h-0.48l-0.014,0.08
	C153.387,27.973,153.52,27.934,153.773,27.854z"/>
<path fill-rule="evenodd" clip-rule="evenodd" fill="#80CFDE" d="M143,137.692c9.494-8.346,24.907-8.346,34.4,0
	c9.493,8.348,9.493,21.895,0,30.241s-24.906,8.347-34.4,0S133.506,146.04,143,137.692z"/>
<path fill-rule="evenodd" clip-rule="evenodd" fill="#80CFDE" d="M157.854,134.04l0.253-0.066
	C157.987,134,157.907,134.026,157.854,134.04z"/>
<path fill-rule="evenodd" clip-rule="evenodd" fill="#80CFDE" d="M156.053,134.293l-0.04,0.081
	C156.093,134.32,156.12,134.28,156.053,134.293z"/>
<path fill-rule="evenodd" clip-rule="evenodd" fill="#80CFDE" d="M143.733,140.987c-0.106,0.039-0.239,0.133-0.399,0.279
	C143.453,141.16,143.6,141.066,143.733,140.987z"/>
<path fill-rule="evenodd" clip-rule="evenodd" fill="#80CFDE" d="M167.8,134.399l0.319-0.092
	C167.667,134.2,167.854,134.333,167.8,134.399z"/>
<path fill-rule="evenodd" clip-rule="evenodd" fill="#80CFDE" d="M139.747,147.987L139.747,147.987L139.747,147.987z"/>
<path fill-rule="evenodd" clip-rule="evenodd" fill="#80CFDE" d="M139.747,147.987c0.054-0.147,0.093-0.227,0.054-0.295
	C139.8,147.773,139.773,147.88,139.747,147.987z"/>
<path fill-rule="evenodd" clip-rule="evenodd" fill="#80CFDE" d="M143.36,141.333c0.054-0.013,0.093,0,0.12,0.026
	C143.506,141.28,143.48,141.267,143.36,141.333z"/>
<path fill-rule="evenodd" clip-rule="evenodd" fill="#80CFDE" d="M167.733,134.413l0.027,0.014c0.027-0.014,0.027-0.014,0.041-0.027
	L167.733,134.413z"/>
<path fill-rule="evenodd" clip-rule="evenodd" fill="#80CFDE" d="M152.4,134.946h-0.413L151.973,135
	C152.066,135.026,152.173,135,152.4,134.946z"/>
<polygon fill-rule="evenodd" clip-rule="evenodd" fill="#80CFDE" points="158.414,133.746 158.32,133.746 158.547,133.946 "/>
<path fill-rule="evenodd" clip-rule="evenodd" fill="#80CFDE" d="M163.907,133.44c-0.213-0.027-0.48,0-0.707-0.014
	C163.693,133.399,163.947,133.72,163.907,133.44z"/>
<path fill-rule="evenodd" clip-rule="evenodd" fill="#FFFFFF" d="M160.947,145.613l2.399-0.026c0.374,0,0.681-0.32,0.681-0.72
	c0-0.401-0.307-0.707-0.681-0.707h-2.413c-0.387,0-0.667,0.333-0.667,0.72C160.267,145.293,160.574,145.613,160.947,145.613z"/>
<path fill-rule="evenodd" clip-rule="evenodd" fill="#FFFFFF" d="M162.227,162.48c0.374,0,0.667-0.32,0.667-0.72l-0.08-18.227
	c0-0.387-0.307-0.707-0.68-0.707c-0.374,0-0.667,0.32-0.667,0.72l0.08,18.214C161.547,162.16,161.854,162.48,162.227,162.48z"/>
<path fill-rule="evenodd" clip-rule="evenodd" fill="#FFFFFF" d="M162.16,149.239c0.373,0,0.667-0.306,0.68-0.692
	c0-0.387-0.293-0.72-0.667-0.72c-2.947-0.081-5.853-0.601-6.32-1.107c0.013-0.066,0.04-0.106,0.08-0.16
	c0.307-0.333,1.2-0.48,1.72-0.48l0,0c0.373,0,0.667-0.318,0.68-0.72c0-0.386-0.307-0.706-0.68-0.706c-0.174,0-1.88,0-2.693,0.906
	c-0.32,0.374-0.48,0.814-0.467,1.32c0.08,1.066,1.307,1.693,4.133,2.094c1.746,0.213,3.453,0.266,3.52,0.266H162.16z"/>
<path fill-rule="evenodd" clip-rule="evenodd" fill="#FFFFFF" d="M162.173,152.173c0.374,0,0.667-0.293,0.68-0.68
	c0-0.414-0.293-0.732-0.667-0.732c-0.014-0.015-1.907-0.068-3.8-0.361c-3.28-0.493-3.533-1.199-3.533-1.227
	c-0.027-0.133,0-0.16,0.027-0.186c0.227-0.28,1.026-0.44,1.533-0.44h0.013c0.374,0,0.681-0.32,0.681-0.707
	c0-0.399-0.307-0.72-0.681-0.72c-0.293,0-1.853,0.013-2.573,0.934c-0.307,0.387-0.414,0.853-0.333,1.373
	c0.187,1.199,1.64,1.933,4.68,2.4c1.974,0.293,3.88,0.359,3.96,0.359h0.013V152.173z"/>
<path fill-rule="evenodd" clip-rule="evenodd" fill="#FFFFFF" d="M162.187,155.173c0.373,0,0.667-0.32,0.68-0.72
	c0-0.387-0.293-0.72-0.653-0.733c-0.026,0-1.987-0.04-3.96-0.36c-3.467-0.52-3.68-1.266-3.68-1.28
	c-0.014-0.133,0.013-0.173,0.04-0.227c0.253-0.306,1.093-0.453,1.6-0.453h0.027c0.373,0,0.667-0.333,0.667-0.72
	s-0.293-0.706-0.667-0.706c-0.307,0-1.907,0.026-2.654,0.96c-0.307,0.387-0.426,0.866-0.346,1.387c0.2,1.227,1.693,1.987,4.84,2.466
	c2.04,0.308,4.013,0.374,4.093,0.387H162.187z"/>
<path fill-rule="evenodd" clip-rule="evenodd" fill="#FFFFFF" d="M162.213,158.267c0.36,0,0.653-0.307,0.667-0.68
	c0.013-0.4-0.28-0.734-0.667-0.734c-0.026,0-2.2-0.066-4.4-0.399c-3.986-0.613-4.173-1.493-4.173-1.507
	c-0.04-0.2,0.014-0.239,0.04-0.279c0.293-0.347,1.281-0.44,1.854-0.428c0.374,0.041,0.68-0.266,0.693-0.652
	c0.027-0.4-0.24-0.734-0.626-0.76c-0.333-0.027-2.094-0.107-2.92,0.88c-0.32,0.399-0.466,0.919-0.373,1.479
	c0.213,1.307,1.893,2.16,5.32,2.681c2.28,0.347,4.453,0.413,4.56,0.413C162.187,158.267,162.2,158.267,162.213,158.267z"/>
<path fill-rule="evenodd" clip-rule="evenodd" fill="#FFFFFF" d="M156.453,160.44c3.253-0.014,5.92-1.694,6.053-1.773
	c0.32-0.201,0.414-0.641,0.227-0.975c-0.2-0.346-0.613-0.453-0.933-0.239c-0.027,0.013-3.307,2.054-6.734,1.427
	c-1.52-0.267-2.066-0.84-2.093-1.267c-0.013-0.413,0.36-0.84,0.854-0.973c0.36-0.081,0.587-0.468,0.494-0.854
	c-0.08-0.399-0.467-0.626-0.814-0.547c-1.106,0.295-1.906,1.32-1.879,2.414c0.027,0.613,0.373,2.133,3.213,2.64
	C155.387,160.399,155.934,160.44,156.453,160.44z"/>
<path fill-rule="evenodd" clip-rule="evenodd" fill="#FFFFFF" d="M155.267,162.653c3.333-0.027,5.319-2.134,5.399-2.24
	c0.267-0.28,0.24-0.733-0.013-1.014c-0.267-0.279-0.693-0.267-0.947,0.014c-0.04,0.027-1.84,1.946-4.8,1.787
	c-1.507-0.067-1.987-0.533-2.04-0.773c-0.04-0.2,0.173-0.574,0.627-0.801c0.333-0.186,0.467-0.613,0.307-0.973
	c-0.16-0.333-0.587-0.493-0.907-0.307c-0.986,0.521-1.52,1.467-1.346,2.399c0.133,0.653,0.733,1.773,3.307,1.907
	C154.987,162.653,155.133,162.653,155.267,162.653z"/>
<path fill-rule="evenodd" clip-rule="evenodd" fill="#FFFFFF" d="M162.16,149.239c0.013,0,0.013,0,0.027,0
	c0.066,0,1.773-0.066,3.52-0.318c2.813-0.401,4.04-1.041,4.094-2.094c0.026-0.507-0.134-0.975-0.467-1.334
	c-0.827-0.893-2.521-0.88-2.707-0.88c-0.374,0-0.667,0.333-0.667,0.72c0.013,0.387,0.319,0.693,0.68,0.693h0.014
	c0.533,0,1.413,0.146,1.706,0.467c0.054,0.066,0.08,0.107,0.093,0.187c-0.466,0.493-3.36,1.04-6.32,1.134
	c-0.36,0.026-0.653,0.347-0.64,0.733C161.506,148.934,161.8,149.239,162.16,149.239z"/>
<path fill-rule="evenodd" clip-rule="evenodd" fill="#FFFFFF" d="M162.173,152.173c0.014,0,0.014,0,0.014,0
	c0.093,0,2-0.079,3.946-0.387c3.066-0.493,4.494-1.239,4.68-2.439c0.08-0.507-0.04-0.987-0.346-1.359
	c-0.734-0.908-2.28-0.921-2.586-0.921c-0.374,0-0.667,0.333-0.667,0.72c0.013,0.387,0.32,0.707,0.68,0.707
	c0.507-0.013,1.32,0.147,1.547,0.428c0.027,0.025,0.066,0.066,0.04,0.199c0,0.013-0.253,0.72-3.52,1.254
	c-1.894,0.306-3.787,0.372-3.814,0.387c-0.373,0.013-0.653,0.346-0.64,0.732C161.52,151.88,161.813,152.173,162.173,152.173z"/>
<path fill-rule="evenodd" clip-rule="evenodd" fill="#FFFFFF" d="M162.187,155.173c0.013,0,0.013,0,0.026,0
	c0.08-0.013,2.054-0.094,4.093-0.427c3.12-0.507,4.613-1.28,4.8-2.507c0.08-0.52-0.054-1.013-0.347-1.387
	c-0.76-0.919-2.346-0.946-2.667-0.946c-0.373,0-0.667,0.333-0.667,0.72c0.014,0.4,0.307,0.707,0.681,0.707h0.013
	c0.521,0,1.36,0.133,1.613,0.453c0.041,0.041,0.054,0.094,0.041,0.227c0,0-0.2,0.773-3.68,1.32c-1.96,0.32-3.906,0.387-3.933,0.387
	c-0.374,0.014-0.654,0.347-0.64,0.746C161.533,154.853,161.827,155.173,162.187,155.173z"/>
<path fill-rule="evenodd" clip-rule="evenodd" fill="#FFFFFF" d="M162.2,158.267c0.014,0,0.014,0,0.027,0
	c0.094,0,2.28-0.094,4.547-0.439c3.414-0.573,5.093-1.428,5.293-2.733c0.094-0.56-0.04-1.094-0.387-1.48
	c-0.826-0.946-2.586-0.88-2.933-0.84c-0.374,0.013-0.653,0.359-0.627,0.761c0.027,0.387,0.347,0.68,0.72,0.652
	c0.574-0.026,1.56,0.053,1.84,0.4c0.027,0.026,0.08,0.093,0.053,0.266c0,0.027-0.173,0.894-4.146,1.547
	c-2.2,0.347-4.387,0.44-4.413,0.44c-0.373,0.013-0.653,0.36-0.64,0.733C161.547,157.96,161.84,158.267,162.2,158.267z"/>
<path fill-rule="evenodd" clip-rule="evenodd" fill="#FFFFFF" d="M167.973,160.387c0.533,0,1.054-0.04,1.627-0.147
	c2.826-0.547,3.16-2.066,3.173-2.68c0.027-1.106-0.787-2.106-1.893-2.387c-0.374-0.094-0.734,0.147-0.827,0.534
	c-0.066,0.399,0.16,0.759,0.521,0.853c0.466,0.133,0.853,0.547,0.853,0.947c-0.013,0.453-0.56,1.027-2.066,1.333
	c-3.44,0.626-6.733-1.387-6.76-1.399c-0.32-0.201-0.733-0.094-0.92,0.252c-0.2,0.334-0.08,0.773,0.24,0.987
	C162.04,158.746,164.72,160.399,167.973,160.387z"/>
<path fill-rule="evenodd" clip-rule="evenodd" fill="#FFFFFF" d="M169.187,162.587c0.133-0.014,0.28-0.014,0.413-0.014
	c2.56-0.146,3.16-1.28,3.28-1.947c0.173-0.893-0.374-1.853-1.36-2.359c-0.347-0.188-0.747-0.027-0.907,0.334
	c-0.16,0.333-0.027,0.759,0.307,0.934c0.467,0.239,0.68,0.599,0.64,0.825c-0.04,0.241-0.521,0.694-2.027,0.773
	c-3,0.188-4.8-1.72-4.813-1.746c-0.267-0.267-0.693-0.267-0.96,0c-0.253,0.28-0.266,0.733,0,1.013
	C163.854,160.493,165.854,162.601,169.187,162.587z"/>
<path fill-rule="evenodd" clip-rule="evenodd" fill="#29B273" d="M148.533,145.88c-2.28,5.227-8.36,7.573-13.56,5.293
	c-5.213-2.279-7.586-8.359-5.319-13.56c2.307-5.214,8.359-7.587,13.586-5.306C148.453,134.601,150.827,140.667,148.533,145.88z"/>
<path fill-rule="evenodd" clip-rule="evenodd" fill="#FFFFFF" d="M134.773,142.733c0.573,0.893,1.173,1.813,1.76,2.693
	c0.414,0.613,1.24,0.746,1.787,0.227c2.026-1.934,4-3.934,5.92-5.974c1-1.066-0.6-2.68-1.6-1.613c-1.92,2.054-3.894,4.04-5.92,5.987
	c0.586,0.066,1.187,0.146,1.786,0.227c-0.613-0.894-1.186-1.8-1.773-2.693C135.934,140.387,133.973,141.52,134.773,142.733z"/>
</svg>
