<?xml version="1.0" encoding="utf-8"?>
<!-- Generator: Adobe Illustrator 13.0.0, SVG Export Plug-In . SVG Version: 6.00 Build 14948)  -->
<!DOCTYPE svg PUBLIC "-//W3C//DTD SVG 1.1//EN" "http://www.w3.org/Graphics/SVG/1.1/DTD/svg11.dtd">
<svg version="1.1" id="Layer_1" xmlns="http://www.w3.org/2000/svg" xmlns:xlink="http://www.w3.org/1999/xlink" x="0px" y="0px"
	 width="380px" height="200px" viewBox="0 0 380 200" enable-background="new 0 0 380 200" xml:space="preserve">
<rect fill-rule="evenodd" clip-rule="evenodd" fill="none" width="380" height="200"/>
<g>
	<path fill="#E8EDF5" d="M90.32,72.627c14.2-52.6,70.693-56.534,70.693-56.534c35.427-1.6,62.241-2.187,89.76,15.8
		c9.079,5.92,17.601,13.453,22.946,23.134c4.827,8.76,6.773,18.786,7.293,28.56c0.387,7.56-0.066,15.307-3.079,21.92
		c-2.773,6.094-7.547,10.84-12.587,14.974c-12.16,10-26.32,17.227-41.093,22.64c-17.44,6.399-36.121,10.36-55.121,8.747
		c-18.987-1.601-38.374-9.16-52.8-23.267C101.893,114.493,85.2,91.533,90.32,72.627z"/>
	<path fill="#C22912" d="M117.307,101.68c0.773,1.934-0.76,4.333-2.813,4.628c-2.054,0.293-4.121-1.361-4.494-3.414
		c-0.92,1.493-3.187,1.72-4.64,0.732c-1.453-0.973-2.133-2.813-2.146-4.573c-0.014-2.307,1.054-4.627,2.88-6.026
		c1.84-1.414,4.427-1.813,6.561-0.92c1.133,0.479,2.106,1.293,2.906,2.213c1.827,2.066,2.893,4.947,2.253,7.613L117.307,101.68z"/>
	<polygon fill="#C7CCD1" points="146.453,115.214 126.907,114.894 123.827,122.133 133.52,130.906 147.227,125.52 	"/>
	<path fill="#E57A3B" d="M142.96,108.227l2.053,16.013c0,0-9.026,9.854-17.227,2.468l2.04-19.094L142.96,108.227z"/>
	<path fill="#D16B36" d="M144.64,109.173c0,0-3.054,3.748-7.827,3.881c-5.693,0.16-9.44-3.494-9.44-3.494L144.64,109.173z"/>
	<path fill="#E57A3B" d="M160.107,78.213c-0.307-3.8,0.227-5.733-1.253-9.253c-3.227-7.72-10.174-13.841-18.307-15.8
		c-8.133-1.96-18.934,0.84-24.907,6.693c-5.974,5.853-7.04,16.893-7.04,16.893c-1.573,8.747,2.054,24.347,7.667,29.081
		c6.786,5.72,18.986,6.52,27.613,4.439c4.6-1.106,9.693-3.986,12.799-7.533C161.28,97.467,160.693,85.187,160.107,78.213z"/>
	<path fill="#E57A3B" d="M102.333,85.64c0.426-2.253,1.64-4.733,3.893-5.134c1.72-0.307,4.48,0.027,6.027,0.827
		c2.2,1.16,2.479,1.893,3.4,2.88l-0.08,0.747c0.399,3.786,0.346,7.626-0.187,11.386c-3.693,0.561-7.934,0.974-10.747-1.493
		C102.146,92.667,101.72,88.893,102.333,85.64z"/>
	<path fill="#D16B36" d="M107.48,86.307c0.72,1.227,2.147,5.213,1.48,5.6c-0.574,0.333-3.054-3.04-3.787-4.253
		C104.307,86.173,106.613,84.827,107.48,86.307z"/>
	<path fill="#303030" d="M128.867,88.307c0,1.293,0.187,2.426,0.547,3.68c0.586,2.04,2.786,1.733,2.92,0.093
		c0.093-1.293-0.013-2.6-0.013-3.893C132.32,85.96,128.854,86.066,128.867,88.307z"/>
	<path fill="#303030" d="M150.56,86.44c0.014,1.293,0.2,2.427,0.56,3.68c0.574,2.027,2.787,1.734,2.907,0.094
		c0.106-1.293,0-2.6,0-3.907C154.013,84.093,150.56,84.2,150.56,86.44z"/>
	<path fill="#F5BAB8" d="M119.654,98.893c0.026-0.8,0.319-1.76,1.453-2.026c2.854-0.68,6.706-1.307,9.479-0.04
		c1.134,0.52,2.2,1.573,1.76,2.933c-0.439,1.4-2.2,1.841-3.426,2.228c-2.36,0.732-6.08,1.133-8.066-0.84
		C120.16,100.467,119.56,99.867,119.654,98.893z"/>
	<path fill="#F5BAB8" d="M158.053,95.747c0.146-0.693-0.12-1.426-0.907-1.467c-1.973-0.106-4.626-0.04-6.467,1.294
		c-0.746,0.546-1.413,1.493-1.053,2.453c0.373,1,1.6,1.08,2.466,1.2c1.64,0.227,4.454,0.16,5.707-1.6
		C158.24,97.027,158.307,96.307,158.053,95.747z"/>
	<path fill="#D16B36" d="M141.6,97.187c0,0,1.826,0.399,3.187,0.307c1.374-0.107,2.68-0.521,2.68-0.521S144.32,100.921,141.6,97.187
		z"/>
	<path fill="#121769" d="M167.173,80.84c0.8,3.36,0.866,6.854,0.547,10.28c-0.146,1.547-0.187,3.814-1.76,4.521
		c-1.574,0.706-4.054,0.426-5.72,0.493c-2.8,0.134-5.613,0.213-8.427,0.267c-1.399,0.014-3.653,0.44-5.013-0.066
		c-1.347-0.494-1.4-2.027-1.56-3.333c-0.347-2.84-0.44-5.747-0.374-8.6c0.04-1.36-0.134-2.947,1.12-3.707
		c1.933-1.173,5.507-1.04,7.653-1.227c4.187-0.387,8.506-0.506,12.653,0.373c1.439,0.307,0.986,2.627-0.454,2.32
		c-3.827-0.814-7.787-0.707-11.653-0.374c-2.067,0.174-5.427,0.014-7.294,1.08c0.84-0.48,0.2-0.521,0.294,0.44
		c0.04,0.453-0.041,1.014-0.041,1.467c-0.013,1.426,0.027,2.867,0.094,4.293c0.053,1.333,0.106,2.707,0.307,4.027
		c0.066,0.387,0.186,0.8,0.213,1.187c0.053,0.693-0.799-0.267-0.426-0.253c4.573,0.293,9.293-0.054,13.866-0.307
		c1-0.054,1.987-0.146,2.987-0.2c0.227-0.014,0.946,0.013,1.133-0.147c-0.454,0.387-0.32,0.094-0.187-0.32
		c1.027-3.374,0.693-8.053-0.12-11.44C164.667,80.146,166.827,79.36,167.173,80.84z"/>
	<path fill="#121769" d="M115.414,84.907c-0.374,3.373-0.187,8.28,1.426,11.36c0.293,0.573,0.16,0.52-0.16,0.333
		c0.227,0.133,0.934,0,1.187-0.014c0.934-0.053,1.866-0.106,2.8-0.173c4.813-0.36,9.787-0.667,14.533-1.574
		c0.387-0.08-0.36,1-0.399,0.307c-0.014-0.373,0.053-0.84,0.053-1.213c0.027-1.333-0.107-2.707-0.213-4.041
		c-0.12-1.413-0.267-2.84-0.48-4.253c-0.094-0.613-0.654-2.494-0.24-2.16c0.426,0.36-1.773,0.08-2.346,0.067
		c-1.681-0.041-3.36,0-5.041,0.08c-4,0.186-8.08,0.6-11.893,1.92c-1.44,0.506-2.214-1.734-0.773-2.227
		c6.04-2.094,13.506-2.76,19.866-2.027c3.814,0.453,3.201,7.106,3.387,10c0.08,1.32,0.627,4.2-0.413,5.333
		c-0.787,0.853-2.64,0.773-3.693,0.906c-5.106,0.654-10.507,1.574-15.667,1.427c-1.893-0.041-2.426-0.907-3-2.693
		c-1.213-3.734-1.68-7.947-1.253-11.841C113.253,82.92,115.574,83.4,115.414,84.907z"/>
	<path fill="#121769" d="M145.04,88.506c-2.613-0.266-5.2-0.08-7.746,0.533c-1.467,0.374-2.254-1.866-0.773-2.227
		c2.986-0.733,5.933-0.933,8.986-0.626C147.027,86.333,146.533,88.654,145.04,88.506z"/>
	<path fill="#80D1E0" d="M146.76,120.133c0,0-8.106,3.694-21.08,0.613l-7.346,7.801l22.227,20.586l7.747-11.56L146.76,120.133z"/>
	<path fill="#D9DBDB" d="M112.854,170.507c1.227-15.187,2.107-31.026,1.959-31.68c-0.173-0.854-6.026-12.135-6.026-12.135
		c-2.253,2.254-3.307,3.16-4.653,5.068c-1.374,1.932-2.613,10.547-3.479,15.266c-2.228,12.228-3.427,28.947-3.427,30.587
		C100.107,179.254,105.88,170.094,112.854,170.507z"/>
	<path fill="#E8EBEB" d="M149.027,118.308c3.76,2.825,5.92,4.746,9.667,7.572c2.84,1.52,4.36,5.881,4.867,9.733
		c0.253,1.894,4.493,40.694,3.934,41.308c-0.454,0.52-1.214,0.626-1.907,0.692c-8.399,0.746-16.12,0.187-24.547-0.413
		c-0.533-0.04-0.667-2.734-0.973-3.174c-0.16-0.227-1.053-27.053-0.64-25.627c0.947,3.347,5.92-30.919,9.4-31.133L149.027,118.308z"
		/>
	<polygon fill="#D1D1D1" points="154.053,122.293 156.107,123.827 151.28,129.267 153.827,136.84 140.027,150.227 144.867,136.413 
		150.253,121.573 153.12,121.88 	"/>
	<path fill="#D9DBDB" d="M146.453,115.214c0,0-6.826,25.6-6.826,28.066l0.933,5.853l11.12-14.227l-2.146-5.84l5.107-7.853
		L146.453,115.214z"/>
	<path fill="#E8EBEB" d="M118.934,119.187c-5.68,2.84-8.52,4.467-11.36,7.92c3.653,4.054,6.626,9.761,7.239,12.026
		c0.507,1.827-3.693,33.934-3.133,34.547c0.467,0.521,1.213,0.628,1.907,0.68c8.4,0.761,16.867,0.827,25.294,0.228
		c0.533-0.04,1.133-0.121,1.44-0.561c0.213-0.293,1.253-24.733,0.12-25.627c-0.866-0.68-14.68-28.493-15.773-28.56
		c-3.479-0.199-0.227,0.36-3.706,0.16L118.934,119.187z"/>
	<polygon fill="#D1D1D1" points="116.907,119.601 114.267,121.013 120.907,129.267 118.854,135.32 139.213,150.227 135.84,136.413 
		121.934,121.573 119.053,121.88 	"/>
	<path fill="#D9DBDB" d="M126.907,114.906c0,0,13.653,28.681,13.653,31.147l0.187,5.692L120.6,134.601l2.613-5.468l-7.934-9.746
		L126.907,114.906z"/>
	<path fill="#FC452E" d="M169.307,66.16c2.387,1.04,2.414,5.053,0.414,6.773c-2,1.733-5,1.493-7.32,0.307
		c0.573,2.959-1.333,6.213-4.106,6.986c-2.773,0.773-5.96-1.04-6.867-3.92c-1.266,2.467-2.799,5.027-5.239,6.173
		c-2.44,1.147-5.96,0.08-6.521-2.667c-1.36,1.747-2.866,3.627-4.96,4.094c-2.613,0.587-5.466-1.653-5.693-4.454
		c-1.56,1.68-3.466,3.121-5.667,3.507c-2.2,0.386-4.692-0.467-5.826-2.494c-0.667,2.013-2.026,3.84-3.907,4.626
		c-1.88,0.773-4.253,0.333-5.52-1.32c-0.466,2.4-2.507,4.44-4.813,4.533c-2.319,0.107-4.6-1.973-4.6-4.426
		c-2.186-1.267-3.253-4.32-2.359-6.773c0.879-2.467,2.853-6.36,5.28-5.773c-1.733-0.827-2.946-2.574-3.147-5.08
		c-0.173-1.974,0.253-4.8,1.586-6.173c1.681-1.734,4.387-1.494,6.72-1.133c-0.76-2.747-0.6-5.76,0.467-8.4
		c0.6-1.494,2.574-2.747,4-3.374c2.627-1.134,6.146,1.547,8.267,3.533c0.373-2.36,1.266-4.707,2.906-6.373
		c1.627-1.68,4.053-2.587,6.24-1.96c2.2,0.627,3.946,2.973,3.653,5.36c1.053-3.626,3.293-5.093,6.027-6.066
		c1.867-0.667,4.853,0.32,6.386,1.627c1.534,1.307,2.374,3.466,2.147,5.533c1.266-1.133,2.573-2.28,4.12-2.893s3.44-0.587,4.72,0.52
		c2.133,1.827,1.627,5.32,0.934,8.121c1.386-0.507,2.799-1.027,4.266-0.96c1.467,0.053,3.014,0.813,3.601,2.24
		c0.693,1.68-0.121,3.613-0.934,5.253c1.28-0.667,2.934-0.414,3.987,0.586s1.44,2.707,0.959,4.107L169.307,66.16z"/>
	<path fill="#E57A3B" d="M144.68,175.026c6.707-0.053,8.8,2.6,10.974,5.627c-2.041,0.066-6.014,0.601-8.054,0.547
		c-2.213-0.04-4.507-0.174-6.52-1.094c0.733-1.959,1.773-3.799,3.08-5.439L144.68,175.026z"/>
	<path fill="#D9DBDB" d="M145.506,173.761c0.107,3.426-2.76,6.959-3.04,7.293c-0.24,0.293-14.107,0.934-19.121,1.732
		c-8.186,1.308-18.706,1.507-25.253-3.56c-0.28-0.214-0.573-0.466-0.667-0.8c-0.08-0.36,0.054-0.72,0.187-1.053
		c1-2.507,6.76-7.268,8.747-9.094c5.2-4.814,28.427,2.094,38.48,5.453L145.506,173.761z"/>
	<path fill="#303030" d="M138.373,102.293c0.053-0.093,0.16-0.12,0.267-0.16c2.106-0.599,3.934-0.706,6.08-0.8
		c0.84-0.025,1.973-0.066,2.733,0.201c0.121,0.053,0.213,0.158,0.24,0.293c0.013,0.106-0.014,0.227-0.053,0.333
		c-0.773,2.106-2.627,3.733-4.64,4.094l-0.414,0.026c-1.533-0.187-2.64-1.066-3.667-2.307c-0.32-0.4-0.613-0.88-0.613-1.427
		C138.307,102.453,138.32,102.374,138.373,102.293z"/>
	<path fill="#FFB03D" d="M151.08,147.399c1.16-6.106,1.04-12.412,0.426-18.572c-0.239-2.4-0.56-4.773-1.013-7.135
		c-0.147-0.719-0.294-1.438-0.467-2.146c-0.054-0.267-0.533-1.28-0.134-0.88c-1.28-1.293,0.72-3.293,2-2
		c0.773,0.799,0.92,2.293,1.134,3.32c0.506,2.412,0.854,4.88,1.133,7.333c0.8,6.906,0.947,13.96-0.347,20.827
		C153.467,149.934,150.747,149.173,151.08,147.399z"/>
	<path fill="#FFB03D" d="M121.64,117.239c-0.267,8.068,0.213,16.094,1.36,24.081c0.253,1.773-2.467,2.547-2.72,0.746
		c-1.187-8.227-1.733-16.507-1.467-24.827C118.867,115.427,121.693,115.427,121.64,117.239z"/>
	<path fill="#FFB03D" d="M127.013,164.453c-0.64-7.214,0.561-12.653-2.267-18.733c-0.667-1.439-2.467-2.826-4.36-1.613
		c-1.053,0.68-1.36,2.507-1.467,3.64c-0.173,1.946-0.2,2.747-0.253,4.694c-0.093,4.186,0.16,7.239,0,11.439
		c-0.066,1.813-2.146,1.827-2.187,0c-0.146-5.653-0.173-9.227-0.066-14.906c0.066-3.614,1.453-9.333,6.307-8.267
		c4.227,0.919,5.573,7.319,6.053,11.372c0.28,2.401,0.426,7.28,0.146,12.295C128.813,166.32,127.013,164.453,127.013,164.453z"/>
	<path fill="#FFB03D" d="M152.187,147.147c2.68-0.227,4.426,1.426,5.626,3.318c1.2,1.908,1.014,4.761-0.813,6.054
		c-1.053,0.761-2.44,0.88-3.733,0.761c-1.693-0.147-3.4-0.733-4.601-1.934c-1.213-1.187-1.813-3.066-1.2-4.667
		c0.6-1.573,2.173-2.52,3.707-3.227L152.187,147.147z"/>
	<path fill="#E3942E" d="M152.547,149.547c1.414-0.12,2.32,0.746,2.959,1.746c0.627,0.987,0.521,2.48-0.44,3.16
		c-0.546,0.399-1.266,0.468-1.947,0.399c-0.879-0.079-1.773-0.387-2.413-1.013c-0.626-0.626-0.947-1.613-0.626-2.44
		c0.32-0.826,1.146-1.32,1.947-1.692L152.547,149.547z"/>
	<path fill="#EB9C59" d="M210.507,141.507c-1.374,5.373-3.014,11.146-4.413,16.16c-2.894-8.359-9.786-26.534-10.547-26.867
		c-0.56-0.227-1.188-0.133-1.773-0.026c-1.707,0.333-3.387,0.773-5.027,1.32c-0.413,0.146-0.854,0.319-1.08,0.692
		c-0.24,0.374,2.56,18.654,3.947,27.32c0.308,1.894,0.626,3.814,1.48,5.534c1.013,2.052,2.28,5.28,3.96,6.825
		c1.626,1.508,7.239,4.761,7.68,4.814c0.414,0.053,3.307-0.987,3.653-1.227c15.906-10.547,17.054-26.694,17.453-32.041
		c-4.573-1.532-8.026-4.906-12.813-5.466L210.507,141.507z"/>
	<path fill="#121769" d="M223.867,112.894c-1.613,0.493-7.574,2.387-8,3.133c-2.813,4.974-4.921,13.228-6.641,20.841
		c-0.746,3.333-0.973,7.44-2.44,10.52c3.934,1.853,9.107,3.653,13.414,3.026c0.266-0.039-0.279-1.879-0.08-2.054
		c0.279-0.239,0.346-0.626,0.387-0.985c1.56-11.654,3.119-23.308,4.693-34.961L223.867,112.894z"/>
	<path fill="#EB9C59" d="M284.28,152.413c-0.041,7.813-0.094,15.72-2.627,23.267c-0.294,0.854-2.373,5.88-2.946,5.747
		c-1.04-0.254-2.147-0.134-3.094-0.574c-2.094-0.959-2.987-5.545-5.066-6.506c-0.507-0.24-1.054-0.494-1.293-0.92
		c-0.16-0.279-0.175-0.6-0.175-0.907c-0.053-5.894,1.494-11.919-0.426-17.613c-0.066-0.187-0.134-0.399,0.026-0.56
		c0.134-0.133,0.36-0.16,0.574-0.187c4.786-0.414,9.573-0.84,14.347-1.267L284.28,152.413z"/>
	<path fill="#3B3DB0" d="M218.52,149.387c-0.306-5.68-0.347-20.333,2.267-28.707c1.507-4.813,0.654-7.946,3.573-9.239
		c5.427-2.414,19.134-6.975,29.36-4.707h2.8c8.227,1.08,20.801,7.307,28.333,13.399c1.401,1.147,3.734,12.613,4.107,14.067
		c1.467,5.721,0.84,17.12,0.32,17.866c-0.359,0.534-9.133,2.667-16.746,2.027c-0.201,7.013-0.613,14.293-0.801,21.306
		c-16.721,1.241-34.76-0.586-53.693-0.88C218.84,167.707,218.894,156.254,218.52,149.387z"/>
	<path fill="#F5BAB8" d="M272.946,78.707c-0.547,0.973-1.6,4.106-1.079,4.4c0.453,0.253,2.347-2.414,2.894-3.387
		C275.413,78.56,273.601,77.547,272.946,78.707z"/>
	<path fill="#EB9C59" d="M277.88,177.308c-2.641-5.334,0.307-7.801-5.521-9.241c-3.293-0.827-15.347,1.254-18.64,2.081
		c-9.572,2.399-12.813,4.545-21.732,4.545c-0.295,0-0.374,4.707-0.494,6.081c17.773,5.48,29.52,4.613,47.041,0.761L277.88,177.308z"
		/>
	<path fill="#EB9C59" d="M210.813,178.573c0.573-0.733,1.066-1.146,1.866-1.613c2.801-1.652,5.84-4.054,7.134-4.133
		c2.667-0.174,5.933-0.761,8.6-0.654c1.707,0.066,4.867,0.573,7.707,2.44c0.986,0.641-1.387,6.399-1.387,6.399
		c-1.561,1.387-3.387,2.28-5.827,2.188c-2.093-0.08-3.52-0.267-5.12-1.627c-0.572-0.479-1.493-1.214-2.199-1.507
		c-0.653-0.28-5.895,1.921-6.88,1.921c-0.987,0-2.56-0.934-3-1.214C211.374,180.547,210.254,179.308,210.813,178.573z"/>
	<path fill="#121769" d="M268.68,127.547c0.28-0.641,4.254-4.32,5.72-5.653c0.627-0.586,1.28-1.174,2.094-1.467
		c0.854-0.307,1.787-0.254,2.693-0.2c2.867,0.16,6.094,0.507,7.854,2.601c0.84,1,1.214,2.267,1.533,3.506
		c2.294,8.787,1.961,27.52,1.961,27.52c0.466,1.135-1.135,2.027-2.414,2.308c-6.334,1.399-13.066,1.227-19.307-0.493
		c0.387-8.627,0.28-17.268-0.333-25.881C268.427,129.026,268.374,128.239,268.68,127.547z"/>
	<path fill="#E57A3B" d="M206.094,157.667l1.16-3.827c0,0,5.105,5.12,2.187,11.921C209.44,165.761,208.573,160.427,206.094,157.667z
		"/>
	<path fill="#EB9C59" d="M175.187,115.707c-0.041-0.066-0.761-1.267,0.319-2.173c0.16-0.135,1.48-0.027,1.387-0.201
		c-0.6-1.359,0.8-2.387,1.96-1.493c2,1.573,5.173,5.399,7.12,7.04c-0.733-1.613-1.773-3.641-2.506-5.267
		c-0.574-1.28-1.4-2.867-0.494-3.934c0.227-0.267,0.547-0.466,0.894-0.479c0.573-0.014,1.026,0.453,1.387,0.894
		c3.133,3.733,5.466,7.759,7.466,12.214c-0.04-2.175-0.094-3.601,1.12-5.401c0.414-0.586,0.813-0.64,1.493-0.413
		c0.601,0.214,0.8,0.934,0.894,1.561c0.293,2,0.36,4.025,0.44,6.053c0.119,3.014,0.106,6.387-1.947,8.601
		c-1.626,1.746-4.387,2.293-6.56,1.333c-1.72-0.773-6.867-5.893-7.973-7.414c-0.707-0.973-7.054-1.973-6.707-4.053
		c0.28-1.573,7.374,1.56,7.253,1.119C180.6,123.239,175.667,116.413,175.187,115.707z"/>
	<path fill="#E57A3B" d="M187.133,118.254c0,0-4.946,2.026-6.64,7.613L187.133,118.254z"/>
	<path fill="#E57A3B" d="M192.626,123.974c0,0-3.346,2.92-2.813,6.28C189.813,130.254,190.466,127.16,192.626,123.974z"/>
	<path fill="#E57A3B" d="M182.467,119.921l-4.973-5.947C177.494,113.974,179,118.52,182.467,119.921z"/>
	<path fill="#121769" d="M232.626,81.76c0,0,2.387-0.439,2.921-2.439c0.84-3.08-1.293-3.24-1.293-4.707
		c0-1.453,2.159-0.973,2.159-3.667c0-3.24-14-2.387-16.105-3.36c0,0,1.613,4.867,4.759,8.974c0,0,2.694-0.587,4.974,1.2
		C232.308,79.533,232.626,81.76,232.626,81.76z"/>
	<path fill="#121769" d="M236.733,105.667c0,0,14.893-5.813,23.732-2.359l-1.84,7.158l-10.279,3.241l-8.76-0.974l-2.454-2.813
		L236.733,105.667z"/>
	<path fill="#3B3DB0" d="M280.921,71.72c-0.214-0.494-0.734-0.813-0.934-1.32c-0.347-0.906-0.147-2.986,0.079-3.933
		c1.507-6.121,2.04-10.707,0.601-16.187c-1.428-5.493-2.667-9.693-8.334-9.613c0,0-2.653-10.56-14.48-11.479
		c-4.919-0.387-7.56-1.014-15.16,1.56c-3.652,1.24-6.306,3.387-10.052,4.267c-4.254,0.987-7.134,0.52-11.401,1.413
		c-4.279,0.894-8.68,4-11.426,7.387c-1.173,1.467-2.04,3.28-1.961,5.147c0.081,1.879,1.268,3.772,3.081,4.28
		c-1.946,0.72-3.427,2.693-3.293,4.76c0.12,2.066,2.079,3.92,4.133,3.68c-1.613,1.534-0.894,4.467,0.906,5.787
		c1.786,1.32,4.188,1.426,6.414,1.307c7.706-0.414,15.146-2.88,22.786-3.987c1.627-0.227,3.347-0.387,4.866,0.24
		c1.241,0.52,2.2,1.52,3.267,2.346c4.934,3.907,8.054,12.213,14.347,12.187c1.16-0.013,4.401-4.707,5.308-3.986
		c0.813,0.64-0.107,2.76,0.293,3.733c0.773,1.827-0.866,2.893,3.587,3.987C278.653,84.547,282.613,75.613,280.921,71.72z"/>
	<path fill="#121769" d="M277.28,75.373c-0.214-0.493-1.733-2.693-1.934-3.2C275,71.267,273,68.654,272.534,67.8
		c-6.401-11.867-22.788-15.507-29.773-11.574c-10.588,5.947-17.707,0.067-22.734,1.613c-5.253,1.627-9.6,4-8.253,3.84
		c-1.613,1.534-0.894,4.467,0.906,5.787c1.786,1.32,4.188,1.426,6.414,1.307c7.706-0.414,15.146-2.88,22.786-3.987
		c1.627-0.227,3.347-0.387,4.866,0.24c1.241,0.52,2.2,1.52,3.254,2.346c4.946,3.907,8.066,12.213,14.359,12.187
		c1.16-0.013,4.401-4.707,5.308-3.986c0.813,0.64-0.107,2.76,0.293,3.733c0.773,1.827-0.973,3.613,3.587,3.987
		C275.308,83.426,278.974,79.267,277.28,75.373z"/>
	<path fill="#EB9C59" d="M240.934,98.16l-1.293,10.507c-0.081,0.641-0.16,1.293-0.106,1.946c0.158,2.054,1.545,3.786,2.879,5.36
		c0.279,0.319,0.574,0.667,0.986,0.76c0.308,0.08,0.641,0.013,0.947-0.08c5.453-1.56,8.533-7.747,13.907-9.547
		c-1.121-3.693-1.734-7.533-1.827-11.386c-0.014-0.521-0.027-1.08-0.36-1.494c-0.347-0.44-0.946-0.573-1.493-0.64
		c-5.066-0.613-9.881,2.093-14.12,4.92L240.934,98.16z"/>
	<path fill="#E57A3B" d="M240.934,98.16c-0.241,1.92-0.48,3.84-0.707,5.761c-0.2,1.586,3.813,1.545,4.214,1.652
		c0.32,0.08,12.506-3.667,12.213-6.32c-0.119-1.173-0.2-2.347-0.227-3.533c-0.014-0.521-0.027-1.08-0.36-1.494
		c-0.347-0.44-0.946-0.573-1.493-0.64c-5.066-0.613-9.881,2.093-14.12,4.92L240.934,98.16z"/>
	<path fill="#EB9C59" d="M272.894,75.16c-1.253-2.494-3.066-3.333-5.867-3.32c-2.213,0.014-2.093,4.307-2.906,4.293
		c-1.334-0.014-1.773-5.987-1.92-7.32c-0.508-4.333-2.24-7.626-5.094-11.106c-1.946-2.36-5.813-3.667-8.88-3.693
		c-5.586-0.066-9.761,3.36-15.347,3.053c-2.666-0.16-5.013-0.733-7.626-1.28c-2.601-0.533-4.081-0.16-5.641,1.987
		c0,0-0.52,18.08-2.054,26.906c-0.493,2.854-1.066,6.067,0.641,8.4c0.986,1.346,2.561,2.12,4.093,2.8
		c4.32,1.933,8.786,3.573,13.333,4.906c1.867,0.547,3.787,1.041,5.733,1.014c2.641-0.039,5.147-1.039,7.587-2.026
		c2.854-1.146,5.707-2.293,8.561-3.453c2.946-1.187,6.267-2.787,7.013-5.88c0.16-0.693,0.134-2.533,0.48-2.68
		c2.573-1.066,5.133-1.799,6.653-4.133C273.187,81.293,274.147,77.654,272.894,75.16z"/>
	<path fill="#303030" d="M228.84,78.654c-0.359,1.879-2.613,1.106-2.761-0.014c-0.039-0.36-0.652,0.84-0.639-0.333
		c0.04-2.013,3.547-3.32,3.506-1.307C228.946,77,229.026,77.72,228.84,78.654z"/>
	<path fill="#E57A3B" d="M257.254,85.24c-0.015-0.734-0.401-1.28-1.28-1.867c-2.574-1.707-6.04-1.28-8.561-0.173
		c-1.039,0.44-2.026,1.387-1.652,2.613c0.372,1.28,1.959,1.707,3.079,2.08c2.12,0.707,5.48,1.12,7.293-0.64
		C256.773,86.654,257.32,86.12,257.254,85.24z"/>
	<path fill="#E57A3B" d="M219.054,84.027c-0.12-0.693,0.799-1.453,1.587-1.747c3.093-1.2,5.946-0.72,7.187,0.76
		c0.6,0.734,1,1.96,0.572,2.934c-0.439,0.987-1.732,1.08-2.639,1.214c-1.748,0.239-4.707,0.2-5.947-1.56
		C219.374,85.027,218.761,84.586,219.054,84.027z"/>
	<path fill="#E57A3B" d="M237.466,87c0,0-1.692,0.146-2.906-0.093c-1.213-0.253-2.333-0.787-2.333-0.787S234.587,90.04,237.466,87z"
		/>
	<path fill="#303030" d="M244.853,79.973c-0.146,1.907,2.227,1.76,2.667,0.72c0.134-0.333,0.414,0.986,0.707-0.146
		c0.493-1.96-2.534-4.147-3.04-2.201C245.187,78.346,244.921,79.027,244.853,79.973z"/>
	<path fill="#3B3DB0" d="M217.934,81.533c-0.921-0.053-1.827-0.146-2.747-0.2c-0.133-0.013-0.479-0.013-0.746-0.054
		c-0.014-0.066-0.066-0.213-0.107-0.36c-0.893-2.88-0.641-6.827,0.041-9.787c3.306-0.56,6.692-0.44,10.013-0.133
		c1.786,0.16,4.613,0.053,6.359,0.84c0.054,0.121,0.081,0.293,0.054,0.56c-0.039,0.4,0.027,0.894,0.04,1.293
		c0.013,1.267-0.04,2.533-0.106,3.8c-0.054,1.186-0.107,2.399-0.293,3.573c-0.041,0.28-0.12,0.574-0.16,0.854
		C226.187,82.107,222,81.773,217.934,81.533z M230.707,71.76 M232.56,81c0.334-2.506,0.414-5.093,0.361-7.627
		c-0.027-1.2,0.146-2.6-1-3.293c-1.773-1.053-5.054-0.947-7.027-1.133c-3.84-0.373-7.787-0.507-11.586,0.24
		c-0.508,0.106-0.761,0.453-0.801,0.84c-0.014,0.013-0.014,0.026-0.014,0.04c-0.747,2.973-0.826,6.067-0.533,9.107
		c0.134,1.374,0.16,3.387,1.6,4.026c1.44,0.627,3.707,0.4,5.24,0.48c2.574,0.133,5.146,0.227,7.72,0.281
		c1.294,0.04,3.348,0.426,4.601-0.014C232.359,83.52,232.399,82.16,232.56,81z"/>
	<path fill="#3B3DB0" d="M257.72,84.027c-0.094,0.187-0.133,0.293-0.146,0.36c-0.266,0-0.6-0.053-0.76-0.066
		c-0.826-0.053-1.666-0.107-2.493-0.174c-4.147-0.333-8.427-0.613-12.521-1.4c0-0.293-0.039-0.6-0.039-0.866
		c-0.015-1.187,0.106-2.4,0.213-3.574c0.12-1.267,0.253-2.52,0.453-3.773c0.054-0.387,0.334-1.36,0.347-1.76
		c0.44,0.053,1.573-0.08,1.946-0.08c1.494-0.027,2.973,0.013,4.467,0.093c3.333,0.174,6.707,0.534,9.893,1.56
		C259.333,77.32,259.106,81.426,257.72,84.027z M261.106,73.56c0-0.013-0.013-0.027-0.013-0.04c0-0.387-0.188-0.773-0.667-0.946
		c-5.36-1.88-12.961-2.228-18.641-1.92c-2.025,0.106-1.84,6.307-2.013,8.879c-0.081,1.173-0.587,3.72,0.333,4.72
		c0.693,0.773,2.334,0.693,3.28,0.827c4.52,0.6,9.293,1.44,13.88,1.346c1.667-0.026,2.146-0.786,2.667-2.373
		C261.026,80.747,261.453,77.013,261.106,73.56z"/>
	<path fill="#3B3DB0" d="M232.761,77.013c2.318-0.213,4.613-0.04,6.865,0.52c1.295,0.333,2-1.64,0.694-1.973
		c-2.641-0.653-5.254-0.854-7.974-0.6C231.013,75.08,231.427,77.146,232.761,77.013z"/>
	<path fill="#E57A3B" d="M267.613,78.373c-0.547,0.96-1.601,4.094-1.079,4.387c0.453,0.253,2.346-2.414,2.893-3.373
		C270.079,78.213,268.267,77.2,267.613,78.373z"/>
	<path fill="#3B3DB0" d="M230.52,65.24c-0.906-0.52-2.613-1.32-3.667-1.387c-1.813-0.094-4.626,1.24-5.119,1.653
		c0,0-0.387,1.08-0.227,1.214c0.227,0.173,1.826-0.333,1.906-0.347c2.707-0.626,3.974-0.227,6.467,0.053
		c0.08,0.014,0.174,0.014,0.24-0.026C230.173,66.346,230.667,65.32,230.52,65.24z"/>
	<path fill="#3B3DB0" d="M243.466,65.813c1.094-0.387,3.107-0.933,4.268-0.84c2,0.173,4.854,1.894,5.32,2.373
		c0,0,0.227,1.121,0.025,1.228c-0.279,0.146-1.946-0.587-2.025-0.613c-2.854-1.014-4.308-0.787-7.094-0.88
		c-0.093,0-0.187,0-0.253-0.053C243.653,66.973,243.293,65.88,243.466,65.813z"/>
	<path fill="#3B3DB0" d="M243.227,96.213c-1.32,0.093-7.507-0.014-8.601,0.307c-0.439,0.12-1.318,3.414-1.079,3.8
		c0.106,0.173,2.214,1.16,2.387,1.253l3.507,0.854c0.986,0.08,2.692,0.014,3.68-0.119c0.974-0.121,2.906-0.961,3.6-1.668
		C247.187,100.187,244,96.16,243.227,96.213z"/>
	<path fill="#303030" d="M231.761,90.68c0.066-0.08,0.186-0.106,0.293-0.12c2.16-0.293,4-0.134,6.133,0.094
		c0.826,0.079,1.961,0.213,2.666,0.586c0.107,0.066,0.188,0.186,0.201,0.32c0,0.12-0.054,0.227-0.107,0.333
		c-1.066,1.96-3.133,3.307-5.173,3.374l-0.414-0.027c-1.492-0.414-2.466-1.454-3.293-2.827c-0.267-0.44-0.493-0.96-0.399-1.494
		C231.68,90.827,231.707,90.747,231.761,90.68z"/>
	<path fill="#4C5CBF" d="M236.733,105.667c-1.733,1.572-5.987,3.533-6.026,3.72c-0.081,0.32,1.919,8.987,5.093,13.187
		c2.72-4.227,6.04-6.773,7.533-10.494C241.987,111.359,238.653,107.653,236.733,105.667z"/>
	<path fill="#4C5CBF" d="M265.987,109.173c0.025-0.306-4.308-3.68-5.521-5.865c-5.318,4.719-8.212,6.719-12.506,8.545l-1.413,0.534
		c1.013,4.8,2.479,8.667,3.493,13.453c5.76-4.586,10.973-9.88,15.467-15.72C265.72,109.827,265.946,109.52,265.987,109.173z"/>
	<path fill="#FFFFFF" d="M204.692,91.4c-0.158-0.133-0.119-0.4-0.079-0.613c0.466-1.96,1.079-3.613,2.48-4.707
		c2.227,1.867,3.933,4.093,5.946,6.2l-0.027,0.146c-2.666-0.307-5.346-0.613-8.025-0.933C204.88,91.48,204.773,91.467,204.692,91.4z
		"/>
	<path fill="#FFFFFF" d="M205.761,102.56c-0.214,0.041-0.401-0.173-0.521-0.346c-1.186-1.72-2.013-3.347-1.813-5.214
		c3.08-0.533,6.066-0.387,9.187-0.574l0.094,0.121c-2.214,1.947-4.44,3.893-6.653,5.84
		C205.974,102.466,205.88,102.547,205.761,102.56z"/>
	<path fill="#FFFFFF" d="M215.28,107.773c-0.107,0.173-0.374,0.187-0.601,0.173c-2.066-0.119-3.866-0.439-5.199-1.6
		c1.507-2.4,3.493-4.359,5.293-6.6h0.147c0.146,2.586,0.279,5.16,0.412,7.747C215.333,107.587,215.347,107.692,215.28,107.773z"/>
	<path fill="#FFFFFF" d="M177.52,106.106c0,0.214-0.213,0.374-0.4,0.48c-1.747,1.014-3.373,1.706-5.12,1.426
		c-0.187-2.893,0.267-5.666,0.414-8.573l0.133-0.094c1.613,2.173,3.227,4.321,4.84,6.494
		C177.44,105.921,177.506,106.013,177.52,106.106z"/>
	<path fill="#FFFFFF" d="M184.893,97.68c0.173,0.133,0.146,0.4,0.107,0.614c-0.426,2.04-1.04,3.76-2.547,4.893
		c-2.493-1.866-4.44-4.133-6.72-6.28l0.027-0.16c2.934,0.28,5.867,0.56,8.814,0.827C184.68,97.586,184.8,97.6,184.893,97.68z"/>
	<path fill="#FFFFFF" d="M182.146,87.16c0.2-0.027,0.4,0.16,0.547,0.333c1.333,1.586,2.32,3.106,2.4,4.879
		c-2.773,0.547-5.56,0.454-8.427,0.68l-0.106-0.12c1.786-1.867,3.56-3.734,5.347-5.6C181.973,87.267,182.053,87.187,182.146,87.16z"
		/>
</g>
</svg>
