<?xml version="1.0" encoding="utf-8"?>
<!-- Generator: Adobe Illustrator 13.0.0, SVG Export Plug-In . SVG Version: 6.00 Build 14948)  -->
<!DOCTYPE svg PUBLIC "-//W3C//DTD SVG 1.1//EN" "http://www.w3.org/Graphics/SVG/1.1/DTD/svg11.dtd">
<svg version="1.1" xmlns="http://www.w3.org/2000/svg" xmlns:xlink="http://www.w3.org/1999/xlink" x="0px" y="0px" width="128px"
	 height="128.4px" viewBox="0 0 128 128.4" enable-background="new 0 0 128 128.4" xml:space="preserve">
<g id="Layer_1">
</g>
<g id="bg">
	<path fill-rule="evenodd" clip-rule="evenodd" fill="#F7FAFF" d="M11.3,28.1c20-29.1,59.9-36.5,89-16.4c29.1,20,36.5,59.9,16.4,89
		c-20,29.1-59.9,36.4-89,16.4C-1.4,97-8.7,57.2,11.3,28.1z"/>
</g>
<g id="content">
	<path fill-rule="evenodd" clip-rule="evenodd" fill="#3D40B2" d="M27.7,117.1c-2-1.4-3.9-2.8-5.7-4.4c4.5-15.5,13.5-28.5,32.8-35.9
		l33.5,0.6c14.4,4.7,22.7,13.3,27.8,24.1C95.9,129.9,56.5,136.9,27.7,117.1z"/>
	<polygon fill-rule="evenodd" clip-rule="evenodd" fill="#CC7342" points="63.9,77.5 62.9,62.5 84.7,60.9 83.1,79.5 	"/>
	<polygon fill-rule="evenodd" clip-rule="evenodd" fill="#BF5933" points="81.9,79.3 75.3,78.6 74.7,72.5 63,65.2 62.9,62.5 
		84.7,60.9 83.1,78.7 	"/>
	<path fill-rule="evenodd" clip-rule="evenodd" fill="#D4E3FC" d="M85.9,70.1l-14.8,5.6l2.1,9.5c6.2-0.2,12.4-2.6,18.5-8.1
		L85.9,70.1z"/>
	<polygon fill-rule="evenodd" clip-rule="evenodd" fill="#FFFFFF" points="78.1,86.5 73.1,75.1 57.7,69.5 51.5,79.7 	"/>
	<path fill-rule="evenodd" clip-rule="evenodd" fill="none" d="M42.7,109.7c-1.4,4.6-2.4,9.3-3,13.9"/>
	<path fill-rule="evenodd" clip-rule="evenodd" fill="#5E59B2" d="M38.8,123.2L38.8,123.2l0.1-0.6l0.3-1.5l0.3-1.5l0.3-1.5l0.4-1.5
		l0.4-1.5l0.4-1.4l0.5-1.4l0.5-1.4l0.3-0.7l0.5-0.7l0,0.8l-0.1,0.8l-0.3,1.5l-0.3,1.5l-0.3,1.5l-0.3,1.5l-0.2,1.5L41,120l-0.2,1.4
		l-0.2,1.4l-0.1,1.1l0,0C40,123.7,39.4,123.5,38.8,123.2z"/>
	<path fill-rule="evenodd" clip-rule="evenodd" fill="#CC7342" d="M74,121c-6-6.9-7.2-13.1-2.5-18.3c1.7-7.4,3-8.4,4.1-7.4
		c-1.6,4.4-1.6,8.9,1.2,13.7c1.1,2,1.9,2.9,1.4-0.2l-0.7-4.3c0.4-6.6,8.1,5.2,7.3,20.4c-3.5,1.2,0.8-4.8-2.8-4.2
		C82.1,118.6,74.3,123.3,74,121z"/>
	<polygon fill-rule="evenodd" clip-rule="evenodd" fill="#FFFFFF" points="79.4,121.1 76.4,89.7 51.5,93.5 55.8,124.8 	"/>
	<g>
		<path fill-rule="evenodd" clip-rule="evenodd" fill="#2B1929" d="M88.9,21.6c4.5,0,8.1-3.7,8.1-8.2c0-4.5-3.7-8.1-8.1-8.1
			c-4.5,0-8.2,3.7-8.2,8.1C80.7,17.9,84.4,21.6,88.9,21.6z"/>
		<path fill-rule="evenodd" clip-rule="evenodd" fill="#2B1929" d="M80.9,18c4.5,0,8.1-3.7,8.1-8.1c0-4.5-3.7-8.1-8.1-8.1
			c-4.5,0-8.1,3.7-8.1,8.1C72.7,14.3,76.4,18,80.9,18z"/>
		<path fill-rule="evenodd" clip-rule="evenodd" fill="#2B1929" d="M68.6,16.7c4.5,0,8.1-3.7,8.1-8.1c0-4.5-3.7-8.1-8.1-8.1
			c-4.5,0-8.2,3.7-8.2,8.1C60.5,13.1,64.1,16.7,68.6,16.7z"/>
		<path fill-rule="evenodd" clip-rule="evenodd" fill="#2B1929" d="M57.7,20.7c4.5,0,8.1-3.7,8.1-8.1c0-4.5-3.7-8.2-8.1-8.2
			c-4.5,0-8.2,3.7-8.2,8.2C49.5,17.1,53.2,20.7,57.7,20.7z"/>
		<path fill-rule="evenodd" clip-rule="evenodd" fill="#2B1929" d="M51.4,29.8c4.5,0,8.1-3.7,8.1-8.1c0-4.5-3.7-8.1-8.1-8.1
			c-4.5,0-8.2,3.7-8.2,8.1C43.2,26.1,46.9,29.8,51.4,29.8z"/>
		<path fill-rule="evenodd" clip-rule="evenodd" fill="#2B1929" d="M95.8,30c4.5,0,8.1-3.7,8.1-8.1c0-4.5-3.7-8.1-8.1-8.1
			c-4.5,0-8.2,3.7-8.2,8.1C87.7,26.4,91.3,30,95.8,30z"/>
		<path fill-rule="evenodd" clip-rule="evenodd" fill="#2B1929" d="M96.2,41.4c4.5,0,8.2-3.7,8.2-8.1c0-4.5-3.7-8.1-8.2-8.1
			c-4.5,0-8.1,3.7-8.1,8.1C88.1,37.7,91.7,41.4,96.2,41.4z"/>
		<path fill-rule="evenodd" clip-rule="evenodd" fill="#2B1929" d="M90.3,55.1c4.5,0,8.2-3.7,8.2-8.1c0-4.5-3.7-8.2-8.2-8.2
			c-4.5,0-8.1,3.7-8.1,8.2C82.2,51.4,85.9,55.1,90.3,55.1z"/>
		<path fill-rule="evenodd" clip-rule="evenodd" fill="#2B1929" d="M50.7,40.1c4.5,0,8.1-3.7,8.1-8.1c0-4.5-3.7-8.2-8.1-8.2
			c-4.5,0-8.2,3.7-8.2,8.2C42.6,36.5,46.2,40.1,50.7,40.1z"/>
		<path fill-rule="evenodd" clip-rule="evenodd" fill="#2B1929" d="M56.6,56.1c4.5,0,8.1-3.7,8.1-8.1c0-4.5-3.7-8.1-8.1-8.1
			c-4.5,0-8.2,3.7-8.2,8.1C48.5,52.5,52.1,56.1,56.6,56.1z"/>
		<path fill-rule="evenodd" clip-rule="evenodd" fill="#2B1929" d="M95.1,49.2c4.5,0,8.1-3.7,8.1-8.1c0-4.5-3.7-8.1-8.1-8.1
			c-4.5,0-8.2,3.7-8.2,8.1C86.9,45.5,90.6,49.2,95.1,49.2z"/>
		<path fill-rule="evenodd" clip-rule="evenodd" fill="#2B1929" d="M51.9,48.6c4.5,0,8.1-3.7,8.1-8.1c0-4.5-3.7-8.1-8.1-8.1
			c-4.5,0-8.1,3.7-8.1,8.1C43.8,44.9,47.4,48.6,51.9,48.6z"/>
	</g>
	<path fill-rule="evenodd" clip-rule="evenodd" fill="#CC7342" d="M73.7,14.5c-32.1,0-20.6,38.8-18.5,41.9
		c2.3,3.4,13.3,12.4,18.5,12.4c5.2,0,16.1-9,18.5-12.4C94.3,53.3,105.9,14.5,73.7,14.5z"/>
	<g>
		<path fill-rule="evenodd" clip-rule="evenodd" fill="#2B1929" d="M70.9,23.7c4.5,0,8.2-3.7,8.2-8.1c0-4.5-3.7-8.1-8.2-8.1
			c-4.5,0-8.1,3.7-8.1,8.1C62.8,20,66.5,23.7,70.9,23.7z"/>
		<path fill-rule="evenodd" clip-rule="evenodd" fill="#2B1929" d="M82.1,23.3c4.5,0,8.2-3.7,8.2-8.1c0-4.5-3.7-8.1-8.2-8.1
			c-4.5,0-8.1,3.7-8.1,8.1C74,19.6,77.6,23.3,82.1,23.3z"/>
		<path fill-rule="evenodd" clip-rule="evenodd" fill="#2B1929" d="M62.7,26.2c4.5,0,8.1-3.7,8.1-8.2c0-4.5-3.7-8.1-8.1-8.1
			c-4.5,0-8.1,3.7-8.1,8.1C54.6,22.6,58.3,26.2,62.7,26.2z"/>
		<path fill-rule="evenodd" clip-rule="evenodd" fill="#2B1929" d="M56.7,29c3.8,0,6.9-3.1,6.9-6.9s-3.1-6.9-6.9-6.9
			c-3.8,0-6.9,3.1-6.9,6.9S52.9,29,56.7,29z"/>
		<path fill-rule="evenodd" clip-rule="evenodd" fill="#2B1929" d="M88.7,28.3c4.5,0,8.1-3.7,8.1-8.1c0-4.5-3.7-8.1-8.1-8.1
			c-4.5,0-8.1,3.7-8.1,8.1C80.5,24.7,84.2,28.3,88.7,28.3z"/>
		<path fill-rule="evenodd" clip-rule="evenodd" fill="#2B1929" d="M95.3,33.9c3.2,0,5.7-2.6,5.7-5.8c0-3.2-2.6-5.7-5.7-5.7
			c-3.2,0-5.7,2.6-5.7,5.7C89.5,31.3,92.1,33.9,95.3,33.9z"/>
		<path fill-rule="evenodd" clip-rule="evenodd" fill="#2B1929" d="M53,35c3.1,0,5.6-2.5,5.6-5.6c0-3.1-2.5-5.6-5.6-5.6
			c-3.1,0-5.6,2.5-5.6,5.6C47.4,32.5,49.9,35,53,35z"/>
		<path fill-rule="evenodd" clip-rule="evenodd" fill="#2B1929" d="M51.8,38.8c2,0,3.6-1.6,3.6-3.6c0-2-1.6-3.6-3.6-3.6
			c-1.9,0-3.5,1.6-3.5,3.6C48.3,37.1,49.9,38.8,51.8,38.8z"/>
		<path fill-rule="evenodd" clip-rule="evenodd" fill="#2B1929" d="M96.3,39.2c2,0,3.6-1.6,3.6-3.5c0-2-1.6-3.6-3.6-3.6
			c-1.9,0-3.6,1.6-3.6,3.6C92.7,37.6,94.3,39.2,96.3,39.2z"/>
		<path fill-rule="evenodd" clip-rule="evenodd" fill="#2B1929" d="M52.2,41.9c1.4,0,2.5-1.1,2.5-2.5c0-1.4-1.1-2.5-2.5-2.5
			c-1.4,0-2.5,1.1-2.5,2.5C49.7,40.8,50.9,41.9,52.2,41.9z"/>
		<path fill-rule="evenodd" clip-rule="evenodd" fill="#2B1929" d="M95.9,41.7c1.4,0,2.5-1.1,2.5-2.5c0-1.4-1.1-2.5-2.5-2.5
			c-1.4,0-2.5,1.1-2.5,2.5C93.4,40.6,94.5,41.7,95.9,41.7z"/>
	</g>
	<path fill-rule="evenodd" clip-rule="evenodd" fill="#CC7342" d="M78.9,124.3c-6.8-6.5-8.9-10.8-10-16.9c-0.1-2.1,0.9-5.3,2.9-5.5
		c7.1,0.4,10.6,5.6,11.3,14.7c2.1,2.6,4.3,4.7,6.5,6.5c-2,0.9-4.1,1.7-6.2,2.3C82.1,125,80.7,124.6,78.9,124.3z"/>
	<path fill-rule="evenodd" clip-rule="evenodd" fill="#3D40B2" d="M75.6,127.3l9.2-12.9l8.8,6.8l0,0c0,0-0.1,0-0.1,0
		c-2.8,1.5-5.6,2.7-8.6,3.7c2-0.7,2-0.7-0.5,0.2C83.2,125.5,79.4,126.6,75.6,127.3L75.6,127.3z M94.7,102.5l20.2-3.7
		c0.4,0.9,0.8,1.9,1.1,2.8c-0.1,0.1-0.1,0.2-0.2,0.3c-1.3,1.9-2.7,3.6-4.3,5.3c0.1,0-0.2,0.2-0.4,0.5c-1.6,1.7-3.3,3.4-5,4.9
		c0,0,0,0-0.1,0.1c-1.8,1.5-3.6,3-5.5,4.3c0.1,0-0.2,0.2-0.5,0.3c-1.8,1.2-3.6,2.4-5.5,3.4c0.3-0.1,0,0-0.3,0.2
		C90.1,114.8,94.1,108.6,94.7,102.5z"/>
	<path fill-rule="evenodd" clip-rule="evenodd" fill="none" d="M78.1,123.7c0.9,0.8,1.7,1.6,2.6,2.4"/>
	<path fill-rule="evenodd" clip-rule="evenodd" fill="#141C6B" d="M79.9,126.3l-0.5-0.5l-0.7-0.9l-0.3-0.5l-0.1-0.3l-0.1-0.4l0.4,0
		l0.3,0.1l0.5,0.3l1,0.7l1.3,1C81.1,126,80.5,126.2,79.9,126.3L79.9,126.3z"/>
	<path fill-rule="evenodd" clip-rule="evenodd" fill="none" d="M84.8,114.3c4.2,1.6,8.3,3.3,12,5"/>
	<path fill-rule="evenodd" clip-rule="evenodd" fill="#5E59B2" d="M95.7,119.9L95.7,119.9l-1.6-0.7l-1.5-0.7l-1.6-0.7l-1.6-0.7
		l-1.6-0.8l-1.6-0.8l-0.8-0.5l-0.4-0.3l-0.3-0.4l0.5-0.1l0.5,0.1l0.9,0.2l1.7,0.5l1.7,0.5l1.7,0.6l1.6,0.6l1.6,0.6l1.5,0.7l1.3,0.6
		h0C97.1,119.1,96.4,119.5,95.7,119.9z"/>
	<path fill-rule="evenodd" clip-rule="evenodd" fill="#BF5933" d="M73.3,61c-1.1,0-1.7-0.8-1.7-0.4c0,0.4,0.3,1.1,1.7,1.1
		c1.4,0,1.7-0.7,1.7-1.1C75,60.2,74.3,61,73.3,61z"/>
	
		<path fill-rule="evenodd" clip-rule="evenodd" fill="none" stroke="#BF5933" stroke-width="1.12" stroke-linecap="round" stroke-linejoin="round" stroke-miterlimit="10" d="
		M68.5,55.1c3.8,1.4,7.6,1.3,11.3-0.1"/>
	
		<path fill-rule="evenodd" clip-rule="evenodd" fill="none" stroke="#2B1929" stroke-width="1.12" stroke-linecap="round" stroke-linejoin="round" stroke-miterlimit="10" d="
		M79.3,36.6c2.3-0.4,4.4-0.1,6.3,1.1"/>
	<path fill-rule="evenodd" clip-rule="evenodd" fill="#2B1929" d="M80.4,41.5c0.7-1,1.8-1,2.5,0.2c0.7,1.1,0.6,2.9-0.1,4
		c-0.7,1-1.8,1-2.5-0.2C79.6,44.4,79.7,42.6,80.4,41.5z"/>
	
		<path fill-rule="evenodd" clip-rule="evenodd" fill="none" stroke="#2B1929" stroke-width="1.12" stroke-linecap="round" stroke-linejoin="round" stroke-miterlimit="10" d="
		M69.7,36.6c-2.3-0.4-4.4-0.1-6.3,1.1"/>
	<path fill-rule="evenodd" clip-rule="evenodd" fill="#2B1929" d="M68.6,41.5c-0.7-1-1.8-1-2.5,0.2c-0.7,1.1-0.6,2.9,0.1,4
		c0.7,1,1.8,1,2.5-0.2C69.4,44.4,69.3,42.6,68.6,41.5z"/>
	<path fill-rule="evenodd" clip-rule="evenodd" fill="#FFFFFF" d="M43.2,36.6c2.8,0,5.1-2.3,5.1-5.1c0-2.8-2.3-5.1-5.1-5.1
		c-2.8,0-5.1,2.3-5.1,5.1C38.1,34.3,40.4,36.6,43.2,36.6z"/>
	<path fill="#D1D6DB" d="M43.2,36.6c1.8-0.4,3.5-1.6,4.1-3.4c0.1-0.4,0.2-0.9,0.3-1.3c0-0.1,0-0.3,0-0.5c0,0,0,0,0,0.1
		c0-0.1,0-0.3,0-0.5c0-0.2-0.1-0.4-0.1-0.6c0-0.2-0.1-0.3-0.2-0.5c-0.1-0.3-0.4-0.7-0.6-1c-0.6-0.8-1.5-1.4-2.5-1.5
		c-0.3-0.1-0.6-0.1-0.9-0.1c0,0,0.1,0,0.1,0c-0.1,0-0.3,0-0.4,0c-0.4,0-0.9,0.1-1.3,0.3c-1.6,0.6-2.6,2.2-2.7,3.9c0,0,0,0,0,0
		c-0.1,2.1,1.2,3.9,3.1,4.7c0.3,0.1,0.5,0.2,0.8,0.3C42.9,36.5,43.1,36.6,43.2,36.6C43.2,36.6,43.2,36.6,43.2,36.6
		c-0.1,0-0.2,0.1-0.3,0.1c-0.2,0-0.5,0.1-0.8,0c-0.7-0.1-1.4-0.2-2-0.6c-0.1-0.1-0.2-0.1-0.3-0.2c-0.4-0.3-1.1-0.9-1.3-1.3
		c-0.1-0.1-0.1-0.2-0.2-0.3c-0.7-1.1-1-2.5-0.8-3.8c0.4-2.7,2.7-4.7,5.4-4.9c0.4,0,0.9,0,1.3,0.1c0.1,0,0.3,0,0.4,0.1
		c0.6,0.1,1.1,0.3,1.6,0.6c0.3,0.2,0.6,0.4,0.9,0.6c0.9,0.8,1.6,1.9,1.9,3.1c0.1,0.3,0.1,0.5,0.1,0.8c0.1,0.5,0,1.1-0.1,1.6
		c0,0.3-0.2,0.7-0.3,0.9c-0.1,0.1-0.1,0.3-0.2,0.4c-0.2,0.5-0.5,0.9-0.9,1.3C46.4,36.3,44.8,37,43.2,36.6z"/>
	<path fill-rule="evenodd" clip-rule="evenodd" fill="#FFFFFF" d="M40,41.4c0,1.3,1.1,2.3,2.3,2.3c1.3,0,2.3-1,2.3-2.3
		c0-1.3-1-2.3-2.3-2.3C41,39,40,40.1,40,41.4z"/>
	<path fill="#D1D6DB" d="M40,41.4c0.4,0.7,0.8,1.3,1.7,1.5c0.3,0.1,0.4,0.1,0.7,0c0,0-0.1,0-0.1,0c0.1,0,0.2,0,0.3-0.1
		c0.4-0.1,0.9-0.6,1-1c0.1-0.2,0.1-0.4,0.1-0.6c0,0,0,0.1,0,0.1c0-0.2,0-0.5-0.1-0.6c0-0.1-0.1-0.2-0.1-0.2c-0.3-0.4-0.6-0.6-1-0.7
		c-0.1,0-0.2,0-0.2,0c0,0,0.1,0,0.1,0c-0.1,0-0.3,0-0.4,0c-0.8,0.1-1.3,0.5-1.7,1.1C40.2,41,40.1,41.2,40,41.4L40,41.4
		c0-0.1-0.1-0.2-0.1-0.3c-0.1-0.2-0.1-0.4,0-0.7c0-0.2,0.1-0.5,0.2-0.7c0.5-0.9,1.3-1.4,2.4-1.4c1.3,0,2.6,1,2.9,2.2
		c0.1,0.3,0.1,0.6,0.1,0.9c0,0.2,0,0.4-0.1,0.6c-0.2,1.1-1.1,2-2.2,2.3c-0.4,0.1-0.7,0.1-1,0.1c-0.1,0-0.3,0-0.5-0.1
		c-1.1-0.3-2.1-1.4-1.9-2.6C39.9,41.6,39.9,41.5,40,41.4z"/>
	<path fill-rule="evenodd" clip-rule="evenodd" fill="#FFFFFF" d="M47.5,25.1L47,25l-0.1,0.5c-1,3.6-4.3,6.2-8,6.2
		c-2.7,0-5.3-1.3-6.8-3.6l-0.3-0.5l-0.5,0.3c-2,1.1-4.2,1.7-6.4,1.7C17.7,29.7,12,24,12,17c0-7,5.7-12.7,12.7-12.7
		c1.3,0,2.6,0.2,3.8,0.6L28.9,5l0.3-0.4c1.8-2.4,4.5-3.7,7.5-3.7c4.5,0,8.3,3.2,9.2,7.5L46,9l0.6-0.1c0.5-0.1,1.1-0.2,1.7-0.2
		c4.5,0,8.2,3.7,8.2,8.2c0,4.5-3.7,8.2-8.2,8.2C48,25.1,47.8,25.1,47.5,25.1z"/>
	<path fill="#D1D6DB" d="M47.5,25.1c-0.2,0-0.4,0-0.5,0c0,0,0,0,0,0c-0.1,0.3-0.1,0.6-0.2,0.9c-0.2,0.8-0.5,1.6-0.9,2.3
		c-1.6,2.5-4.1,3.9-7.1,4c-0.5,0-1.1,0-1.6-0.1c-1.4-0.2-2.8-0.8-3.9-1.7c-0.2-0.2-0.4-0.3-0.6-0.5c-0.6-0.5-1.1-1.2-1.6-1.9
		c0.3,0.1,0.5,0.1,0.8,0.2c-1.9,1.3-3.9,1.9-6.2,2.2c-0.6,0.1-1.4,0.1-2,0c-0.4,0-0.8-0.1-1.2-0.1c-0.5-0.1-1.1-0.2-1.6-0.3
		c-2.5-0.7-4.9-2.2-6.5-4.1c-1.2-1.4-2-2.8-2.6-4.6c-0.5-1.3-0.7-2.9-0.7-4.3c0-1.9,0.4-3.8,1.2-5.5c0.7-1.5,1.6-2.8,2.8-4
		c0.3-0.3,0.6-0.5,0.9-0.8c0.3-0.3,0.6-0.5,0.9-0.7c1.3-0.9,2.9-1.7,4.5-2.1c0.4-0.1,0.8-0.2,1.2-0.2c1.6-0.3,3.7-0.2,5.3,0.2
		c0.5,0.1,0.9,0.3,1.4,0.4c-0.3,0.1-0.6,0.2-1,0.3c0.3-0.4,0.7-0.9,1-1.3c0.4-0.4,0.7-0.7,1.1-1C30.6,2,31,1.7,31.3,1.6
		c0.3-0.2,0.6-0.4,0.9-0.5C33,0.6,34,0.3,35,0.1C35.8,0,36.7,0,37.6,0c3.1,0.3,5.8,1.9,7.5,4.5c0.4,0.6,0.8,1.3,1,2
		c0.1,0.3,0.2,0.5,0.3,0.8c0.1,0.5,0.2,1,0.3,1.5c-0.3-0.2-0.6-0.4-0.9-0.6c0.7-0.1,1.3-0.2,2-0.3c1.1-0.1,2.2,0.1,3.3,0.5
		c0.2,0.1,0.5,0.2,0.7,0.3c0.5,0.3,1.1,0.5,1.5,0.9c0.2,0.1,0.4,0.3,0.5,0.4c1.5,1.3,2.6,3.1,2.9,5.1c0.3,2,0,3.9-1,5.7
		c-0.3,0.5-0.6,1-1,1.4c-0.4,0.4-0.8,0.8-1.2,1.1c-0.8,0.6-1.6,1.1-2.6,1.3c-1,0.3-1.8,0.4-2.8,0.3C48,25.1,47.8,25.1,47.5,25.1
		L47.5,25.1c0.2,0,0.5,0,0.8,0c0.8-0.1,1.6-0.2,2.4-0.5c2-0.8,3.8-2.3,4.7-4.3c0.3-0.6,0.4-1.2,0.5-1.8c0.1-0.2,0.1-0.5,0.1-0.7
		c0-0.3,0-0.6,0-0.9c0,0,0,0,0,0c-0.1-0.7-0.1-1.3-0.3-1.9c-0.1-0.5-0.3-0.9-0.5-1.4c-0.6-1.2-1.5-2.3-2.7-3c-0.5-0.3-1-0.5-1.5-0.8
		c-0.6-0.2-1.3-0.4-1.9-0.4c-0.3,0-0.5,0-0.8,0c0,0,0,0,0,0c-0.3,0-0.5,0-0.8,0.1c-0.3,0-0.5,0.1-0.8,0.1c0,0,0,0,0,0
		c-0.5,0.1-0.9,0.2-1.3,0.3c-0.1-0.5-0.2-0.9-0.3-1.3v0c-0.1-0.4-0.2-0.8-0.3-1.2c-0.8-2-2.1-3.6-3.9-4.6c-0.5-0.3-1-0.5-1.6-0.7
		c-0.6-0.2-1.3-0.3-1.9-0.4c-0.3,0-0.5,0-0.8,0c0,0,0,0,0.1,0c-0.2,0-0.4,0-0.5,0c-0.5,0-1.1,0.1-1.6,0.3C34.3,2,34,2.1,33.8,2.2
		c-1.6,0.6-2.8,1.6-3.9,2.9c0,0,0,0,0,0c-0.2,0.3-0.4,0.6-0.7,0.9c-0.3-0.1-0.7-0.2-1-0.3h0c-0.6-0.2-1.2-0.3-1.8-0.4
		c-0.6-0.1-1.2-0.1-1.8-0.1c0,0,0,0,0,0c-0.2,0-0.4,0-0.6,0c-0.2,0-0.3,0-0.5,0c-0.3,0-0.7,0.1-1,0.1c-0.8,0.1-1.8,0.4-2.6,0.8
		c-0.7,0.3-1.3,0.6-1.9,1c-1.7,1.1-3,2.7-3.9,4.4c-0.3,0.6-0.6,1.3-0.8,2c-0.1,0.3-0.2,0.7-0.3,1c-0.2,0.8-0.2,1.5-0.2,2.4
		c0,0,0,0,0-0.1c0,0.4,0,0.9,0.1,1.3c0.1,0.6,0.1,1.2,0.3,1.7c0.1,0.3,0.2,0.6,0.3,0.8c0.1,0.4,0.3,0.7,0.4,1.1
		c0.8,1.8,2.1,3.4,3.7,4.6c0.7,0.6,1.6,1,2.4,1.4c0.4,0.2,0.8,0.3,1.2,0.5c0.8,0.2,1.5,0.4,2.3,0.5c0.4,0.1,0.8,0.1,1.3,0.1
		c0,0,0,0,0,0c2.2,0,4.2-0.5,6.1-1.6h0c0.3-0.2,0.7-0.4,1-0.6c0.2,0.3,0.4,0.6,0.7,1l0,0c0.9,1.4,2.4,2.6,4,3.1
		c0.3,0.1,0.5,0.1,0.8,0.2c0.5,0.1,1.1,0.2,1.5,0.2h0c1.6,0,3.2-0.4,4.6-1.3c0.2-0.1,0.3-0.2,0.5-0.3c0.1-0.1,0.2-0.2,0.3-0.3
		c0.1-0.1,0.3-0.2,0.4-0.4c0.3-0.3,0.7-0.8,1-1.2c0.4-0.5,0.7-1,0.9-1.6c0.1-0.2,0.2-0.5,0.3-0.7c0.1-0.2,0.1-0.4,0.2-0.5
		C47.1,25,47.3,25,47.5,25.1z"/>
	<path fill-rule="evenodd" clip-rule="evenodd" fill="#FFFFFF" d="M47.6,47.2c0.9,0,1.5-0.7,1.5-1.5c0-0.9-0.7-1.5-1.5-1.5
		c-0.9,0-1.5,0.7-1.5,1.5C46.1,46.6,46.8,47.2,47.6,47.2z"/>
	<path fill="#D1D6DB" d="M47.6,47.2c0.2-0.2,0.5-0.4,0.7-0.7c0-0.1,0.1-0.2,0.1-0.3c0-0.1,0-0.2,0-0.3c0-0.1,0-0.2,0-0.3
		c0,0,0,0.1,0,0.1c-0.1-0.4-0.2-0.5-0.6-0.7c-0.1,0-0.2,0-0.2,0c0,0,0.1,0,0.1,0c-0.1,0-0.2,0-0.3,0c-0.1,0-0.1,0-0.2,0.1
		c-0.2,0.1-0.4,0.3-0.4,0.6c0,0,0,0,0-0.1c0,0.1,0,0.2,0,0.3c0,0.4,0.3,0.8,0.5,1C47.4,47.1,47.5,47.2,47.6,47.2
		C47.6,47.2,47.6,47.2,47.6,47.2c-0.1,0-0.1,0.1-0.2,0.1c-0.1,0.1-0.2,0.1-0.4,0.1c-0.3,0-0.5-0.1-0.7-0.2c-0.7-0.3-1.1-1.2-1-2
		c0.1-0.9,0.7-1.7,1.5-1.9c0.3-0.1,0.4-0.1,0.7-0.1c0.1,0,0.5,0,0.6,0.1c0.3,0.1,0.4,0.1,0.7,0.3c0.8,0.5,1.3,1.6,0.9,2.5
		c-0.1,0.2-0.2,0.4-0.3,0.5C49.1,47.3,48.3,47.7,47.6,47.2z"/>
	<path fill-rule="evenodd" clip-rule="evenodd" fill="#FFFFFF" d="M47.6,42.9c1.5,0,2.8,1.3,2.8,2.8c0,1.5-1.3,2.8-2.8,2.8
		c-1.6,0-2.8-1.3-2.8-2.8C44.8,44.2,46.1,42.9,47.6,42.9z"/>
	<path fill="#D1D6DB" d="M47.6,42.9c0.2-0.1,0.3-0.1,0.5-0.1c0.3,0,0.6,0,0.9,0.1c0.1,0,0.3,0.1,0.5,0.2c0.6,0.3,1.1,0.8,1.4,1.4
		c0,0.1,0.1,0.1,0.1,0.2c0.1,0.2,0.2,0.6,0.3,0.9c0,0.2,0,0.4,0,0.6c0,0.9-0.5,2-1.3,2.5c-0.3,0.2-0.6,0.4-0.9,0.5
		c-0.5,0.2-0.9,0.3-1.4,0.3c-1.3,0-2.4-0.7-3.1-1.8c-0.1-0.2-0.3-0.6-0.4-0.9c-0.1-0.4-0.1-0.7-0.1-1c0.1-1,0.7-2.1,1.6-2.6
		c0.3-0.2,0.6-0.3,1-0.3c0.2,0,0.5,0,0.7,0C47.4,42.8,47.5,42.9,47.6,42.9L47.6,42.9c-0.2,0.1-0.5,0.2-0.7,0.3
		c-0.9,0.5-1.5,1.5-1.4,2.5c0,0,0,0,0-0.1c0,0.1,0,0.3,0.1,0.4c0,0.1,0.1,0.3,0.2,0.4c0.4,0.7,1.1,1.1,1.9,1.2c0,0-0.1,0-0.1,0
		c0.8,0,1.5-0.4,1.9-1.1c0.1-0.3,0.2-0.5,0.2-0.8c0,0,0,0.1,0,0.1c0-0.2,0-0.5,0-0.7c-0.1-0.7-0.5-1.2-1.1-1.6
		C48.3,43.2,47.9,43,47.6,42.9z"/>
	<polygon fill="#D1D6DB" points="27.9,15.3 28.1,15 28.3,14.9 28.7,14.8 29.4,14.6 30.9,14.3 34,13.9 40.1,13.6 46.2,13.8 49.2,14 
		50.7,14.3 51.5,14.5 51.9,14.6 52.1,14.7 52.3,15 52.1,15.3 51.9,15.4 51.5,15.5 50.8,15.8 49.2,16 46.2,16.4 40.1,16.6 34,16.5 
		31,16.2 29.4,16 28.7,15.8 28.3,15.7 28.1,15.6 	"/>
	<polygon fill="#D1D6DB" points="27.4,21.6 27.5,21.3 27.6,21.2 27.9,21 28.3,20.8 29.2,20.5 30.9,20.2 34.5,20 38.1,20.1 
		39.8,20.4 40.7,20.7 41.2,20.9 41.4,21 41.5,21.1 41.6,21.4 41.5,21.7 41.4,21.8 41.2,21.9 40.7,22.1 39.8,22.4 38.1,22.7 34.5,23 
		31,22.8 29.2,22.5 28.3,22.3 27.9,22.1 27.6,21.9 27.5,21.8 	"/>
	<path fill="#96D4BD" d="M17.1,17.1l0.3,0l0.1,0.1l0.3,0.1l0.4,0.4l0.3,0.4l0.3,0.4l0.1,0.1l0.1,0.1l0.1,0.1l0.1,0l0,0l0,0l0,0
		l0.1,0l-0.2,0l0.3,0l0.2-0.1l0.2-0.1l0.2-0.1l0.2-0.1l0.2-0.1l0.2-0.1l0.2-0.1l0.2-0.2l0.2-0.2l0.2-0.2l0.2-0.2l0.2-0.2l0.2-0.3
		L22,16l0.4-0.6l0.4-0.7l0.9-1.3l0.5-0.6l0.6-0.6l0.3-0.3l0.3-0.2l0.4-0.2l0.2-0.1l0.4,0.1c0,0,0,0.1,0.1,0.1c0,0,0.1,0.2,0.1,0.2
		c0,0.1,0,0.4-0.1,0.5c-0.1,0.7-0.4,1.3-0.6,1.9c-0.1,0.4-0.3,0.8-0.5,1.2c-1,2.4-2.7,5.3-5.5,5.6c-0.5,0.1-0.9,0-1.4-0.1
		c-0.1,0-0.1-0.1-0.2-0.1c-0.9-0.3-1.3-1.3-1.4-2.1c0-0.4-0.1-1.1,0-1.4C17,17.2,17.1,17.1,17.1,17.1z"/>
</g>
</svg>
