<svg xmlns="http://www.w3.org/2000/svg" width="128" height="128"><g clip-rule="evenodd"><path fill="none" d="M18.7 18.7c25-25 65.5-25 90.5 0s25 65.5 0 90.5-65.5 25-90.5 0c-24.9-24.9-24.9-65.5 0-90.5z"/><path fill-rule="evenodd" fill="#F0FAFF" stroke="#141C6B" stroke-width="1.12" stroke-miterlimit="10" d="M107.4 119c-.7 3.2-3.5 5.5-6.8 5.5H22.5c-3.8 0-6.9-3.1-6.9-6.9V26.4c0-3.8 3.1-6.9 6.9-6.9h78.1c3.8 0 6.9 3.1 6.9 6.9v91.2c.1.5 0 1-.1 1.4z"/><path fill-rule="evenodd" fill="#FFF" stroke="#141C6B" stroke-width="1.12" stroke-linejoin="round" stroke-miterlimit="10" d="M23.8 27.7h75.4v88.6H23.8z"/><path fill-rule="evenodd" fill="#FC4730" d="M82 73.7l.6.6.6-.6c1.4-1.4 3.7-1.4 5.1 0 1.4 1.4 1.4 3.7 0 5.1l-.6.6-5.1 5.1-5.1-5.1-.6-.6c-1.4-1.4-1.4-3.7 0-5.1 1.4-1.4 3.7-1.4 5.1 0z"/><path fill-rule="evenodd" fill="#141C6B" d="M47.5 22.6V12.2h9v-1.8c0-2.8 2.3-5.1 5.1-5.1s5.1 2.3 5.1 5.1v1.8h9v10.4H47.5zm16.6-12.2c0-1.4-1.1-2.5-2.5-2.5-1.5 0-2.6 1.1-2.6 2.5s1.1 2.5 2.5 2.5c1.4.1 2.6-1.1 2.6-2.5z"/><path fill="none" stroke="#BACCFC" stroke-width="1.12" stroke-linecap="round" stroke-linejoin="round" stroke-miterlimit="10" d="M32.2 79.2h10.7m-10.7 21h31.6m-14.4-21h18.2"/><path d="M80.2 106h-4.7c-.9 0-1.6-.7-1.6-1.6v-2.7c0-3.8 3.1-9.4 6.8-9.4.4 0 .8.3.8.8v11.6c0 .7-.6 1.3-1.3 1.3zm5 0h4.7c.9 0 1.6-.7 1.6-1.6v-2.7c0-3.8-3.1-9.4-6.8-9.4-.4 0-.8.3-.8.8v11.6c0 .7.6 1.3 1.3 1.3z" fill-rule="evenodd" fill="#FC4730"/><path fill="none" stroke="#545E80" stroke-width="1.12" stroke-miterlimit="10" d="M59 36.1H34.3c-1.9 0-3.4 1.5-3.4 3.4v17.6c0 1.9 1.5 3.4 3.4 3.4H59c1.9 0 3.4-1.5 3.4-3.4V39.5c0-1.8-1.5-3.4-3.4-3.4z"/><path fill="none" stroke="#BACCFC" stroke-width="1.12" stroke-linecap="round" stroke-linejoin="round" stroke-miterlimit="10" d="M69.9 45h11.6m-12.6 6h19.5m-19.5 7h19.5"/><path fill-rule="evenodd" fill="#141C6B" d="M43.2 42.2c1.6-1.6 4.1-1.6 5.7 0 1.6 1.6 1.6 4.1 0 5.7-1.6 1.6-4.1 1.6-5.7 0-1.6-1.6-1.6-4.2 0-5.7z"/><path fill-rule="evenodd" fill="#141C6B" d="M39.6 52.6c3.5-3.5 9.2-3.5 12.7 0 1.3 1.3 2.1 2.8 2.4 4.5H37.2c.3-1.6 1.2-3.2 2.4-4.5z"/><path fill="none" stroke="#141C6B" stroke-width="1.12" stroke-miterlimit="10" d="M59 36.1H34.3c-1.9 0-3.4 1.5-3.4 3.4v17.6c0 1.9 1.5 3.4 3.4 3.4H59c1.9 0 3.4-1.5 3.4-3.4V39.5c0-1.8-1.5-3.4-3.4-3.4z"/></g></svg>