<?xml version="1.0" encoding="utf-8"?>
<!-- Generator: Adobe Illustrator 13.0.0, SVG Export Plug-In . SVG Version: 6.00 Build 14948)  -->
<!DOCTYPE svg PUBLIC "-//W3C//DTD SVG 1.1//EN" "http://www.w3.org/Graphics/SVG/1.1/DTD/svg11.dtd">
<svg version="1.1" xmlns="http://www.w3.org/2000/svg" xmlns:xlink="http://www.w3.org/1999/xlink" x="0px" y="0px" width="300px"
	 height="300px" viewBox="0 0 300 300" enable-background="new 0 0 300 300" xml:space="preserve">
<g id="Layer_1">
</g>
<g id="bg">
	<rect fill-rule="evenodd" clip-rule="evenodd" fill="none" width="300" height="300"/>
</g>
<g id="content">
	<g>
		<path fill-rule="evenodd" clip-rule="evenodd" fill="#EBF5FF" d="M161.2,107.2v-9.1c0-2.5,2-4.5,4.5-4.5h29.1c2.5,0,4.5,2,4.5,4.5
			v9.1c0,2.5-2,4.5-4.5,4.5h-29.1C163.2,111.7,161.2,109.7,161.2,107.2z"/>
		<path fill-rule="evenodd" clip-rule="evenodd" fill="#EBF5FF" d="M135.9,107.2v-9.1c0-2.5,2-4.5,4.5-4.5h12.7c2.5,0,4.5,2,4.5,4.5
			v9.1c0,2.5-2,4.5-4.5,4.5h-12.7C137.9,111.7,135.9,109.7,135.9,107.2z"/>
		<path fill-rule="evenodd" clip-rule="evenodd" fill="#EBF5FF" d="M94,107.2v-9.1c0-2.5,2-4.5,4.5-4.5h29.1c2.5,0,4.5,2,4.5,4.5
			v9.1c0,2.5-2,4.5-4.5,4.5H98.5C96,111.7,94,109.7,94,107.2z"/>
		<path fill-rule="evenodd" clip-rule="evenodd" fill="#EBF5FF" d="M182.2,129.9v-9.1c0-2.5,2-4.5,4.5-4.5h29.1c2.5,0,4.5,2,4.5,4.5
			v9.1c0,2.5-2,4.5-4.5,4.5h-29.1C184.2,134.4,182.2,132.4,182.2,129.9z"/>
		<path fill-rule="evenodd" clip-rule="evenodd" fill="#EBF5FF" d="M114.5,129.9v-9.1c0-2.5,2-4.5,4.5-4.5h55.3c2.5,0,4.5,2,4.5,4.5
			v9.1c0,2.5-2,4.5-4.5,4.5H119C116.5,134.4,114.5,132.4,114.5,129.9z"/>
		<path fill-rule="evenodd" clip-rule="evenodd" fill="#EBF5FF" d="M73.1,129.9v-9.1c0-2.5,2-4.5,4.5-4.5h29.1c2.5,0,4.5,2,4.5,4.5
			v9.1c0,2.5-2,4.5-4.5,4.5H77.6C75.1,134.4,73.1,132.4,73.1,129.9z"/>
		<path fill-rule="evenodd" clip-rule="evenodd" fill="#EBF5FF" d="M245,152.5v-9.1c0-2.5,2-4.5,4.5-4.5h7.9c2.5,0,4.5,2,4.5,4.5
			v9.1c0,2.5-2,4.5-4.5,4.5h-7.9C247.1,157.1,245,155,245,152.5z"/>
		<path fill-rule="evenodd" clip-rule="evenodd" fill="#EBF5FF" d="M203.1,152.5v-9.1c0-2.5,2-4.5,4.5-4.5h29.1c2.5,0,4.5,2,4.5,4.5
			v9.1c0,2.5-2,4.5-4.5,4.5h-29.1C205.1,157.1,203.1,155,203.1,152.5z"/>
		<path fill-rule="evenodd" clip-rule="evenodd" fill="#EBF5FF" d="M161.2,152.5v-9.1c0-2.5,2-4.5,4.5-4.5h29.1c2.5,0,4.5,2,4.5,4.5
			v9.1c0,2.5-2,4.5-4.5,4.5h-29.1C163.2,157.1,161.2,155,161.2,152.5z"/>
		<path fill-rule="evenodd" clip-rule="evenodd" fill="#EBF5FF" d="M135.9,152.5v-9.1c0-2.5,2-4.5,4.5-4.5h12.7c2.5,0,4.5,2,4.5,4.5
			v9.1c0,2.5-2,4.5-4.5,4.5h-12.7C137.9,157.1,135.9,155,135.9,152.5z"/>
		<path fill-rule="evenodd" clip-rule="evenodd" fill="#EBF5FF" d="M94,152.5v-9.1c0-2.5,2-4.5,4.5-4.5h29.1c2.5,0,4.5,2,4.5,4.5
			v9.1c0,2.5-2,4.5-4.5,4.5H98.5C96,157.1,94,155,94,152.5z"/>
		<path fill-rule="evenodd" clip-rule="evenodd" fill="#EBF5FF" d="M52.1,152.5v-9.1c0-2.5,2-4.5,4.5-4.5h29.1c2.5,0,4.5,2,4.5,4.5
			v9.1c0,2.5-2,4.5-4.5,4.5H56.6C54.1,157.1,52.1,155,52.1,152.5z"/>
		<path fill-rule="evenodd" clip-rule="evenodd" fill="#EBF5FF" d="M31.6,152.5v-9.1c0-2.5,2-4.5,4.5-4.5H44c2.5,0,4.5,2,4.5,4.5
			v9.1c0,2.5-2,4.5-4.5,4.5h-7.9C33.6,157.1,31.6,155,31.6,152.5z"/>
		<path fill-rule="evenodd" clip-rule="evenodd" fill="#EBF5FF" d="M182.2,175.2v-9.1c0-2.5,2-4.5,4.5-4.5h29.1c2.5,0,4.5,2,4.5,4.5
			v9.1c0,2.5-2,4.5-4.5,4.5h-29.1C184.2,179.7,182.2,177.7,182.2,175.2z"/>
		<path fill-rule="evenodd" clip-rule="evenodd" fill="#EBF5FF" d="M114.5,175.2v-9.1c0-2.5,2-4.5,4.5-4.5h55.3c2.5,0,4.5,2,4.5,4.5
			v9.1c0,2.5-2,4.5-4.5,4.5H119C116.5,179.7,114.5,177.7,114.5,175.2z"/>
		<path fill-rule="evenodd" clip-rule="evenodd" fill="#EBF5FF" d="M73.1,175.2v-9.1c0-2.5,2-4.5,4.5-4.5h29.1c2.5,0,4.5,2,4.5,4.5
			v9.1c0,2.5-2,4.5-4.5,4.5H77.6C75.1,179.7,73.1,177.7,73.1,175.2z"/>
		<path fill-rule="evenodd" clip-rule="evenodd" fill="#EBF5FF" d="M31.6,175.2v-9.1c0-2.5,2-4.5,4.5-4.5h29.1c2.5,0,4.5,2,4.5,4.5
			v9.1c0,2.5-2,4.5-4.5,4.5H36.1C33.6,179.7,31.6,177.7,31.6,175.2z"/>
		<path fill-rule="evenodd" clip-rule="evenodd" fill="#EBF5FF" d="M245,198.9v-9.1c0-2.5,2-4.5,4.5-4.5h7.9c2.5,0,4.5,2,4.5,4.5
			v9.1c0,2.5-2,4.5-4.5,4.5h-7.9C247.1,203.4,245,201.3,245,198.9z"/>
		<path fill-rule="evenodd" clip-rule="evenodd" fill="#EBF5FF" d="M203.1,198.9v-9.1c0-2.5,2-4.5,4.5-4.5h29.1c2.5,0,4.5,2,4.5,4.5
			v9.1c0,2.5-2,4.5-4.5,4.5h-29.1C205.1,203.4,203.1,201.3,203.1,198.9z"/>
		<path fill-rule="evenodd" clip-rule="evenodd" fill="#EBF5FF" d="M161.2,198.9v-9.1c0-2.5,2-4.5,4.5-4.5h29.1c2.5,0,4.5,2,4.5,4.5
			v9.1c0,2.5-2,4.5-4.5,4.5h-29.1C163.2,203.4,161.2,201.3,161.2,198.9z"/>
		<path fill-rule="evenodd" clip-rule="evenodd" fill="#EBF5FF" d="M135.9,198.9v-9.1c0-2.5,2-4.5,4.5-4.5h12.7c2.5,0,4.5,2,4.5,4.5
			v9.1c0,2.5-2,4.5-4.5,4.5h-12.7C137.9,203.4,135.9,201.3,135.9,198.9z"/>
		<path fill-rule="evenodd" clip-rule="evenodd" fill="#EBF5FF" d="M94,198.9v-9.1c0-2.5,2-4.5,4.5-4.5h29.1c2.5,0,4.5,2,4.5,4.5
			v9.1c0,2.5-2,4.5-4.5,4.5H98.5C96,203.4,94,201.3,94,198.9z"/>
		<path fill-rule="evenodd" clip-rule="evenodd" fill="#EBF5FF" d="M52.1,198.9v-9.1c0-2.5,2-4.5,4.5-4.5h29.1c2.5,0,4.5,2,4.5,4.5
			v9.1c0,2.5-2,4.5-4.5,4.5H56.6C54.1,203.4,52.1,201.3,52.1,198.9z"/>
		<path fill-rule="evenodd" clip-rule="evenodd" fill="#EBF5FF" d="M31.6,198.9v-9.1c0-2.5,2-4.5,4.5-4.5H44c2.5,0,4.5,2,4.5,4.5
			v9.1c0,2.5-2,4.5-4.5,4.5h-7.9C33.6,203.4,31.6,201.3,31.6,198.9z"/>
		<path fill-rule="evenodd" clip-rule="evenodd" fill="#EBF5FF" d="M182.2,221.5v-9.1c0-2.5,2-4.5,4.5-4.5h29.1c2.5,0,4.5,2,4.5,4.5
			v9.1c0,2.5-2,4.5-4.5,4.5h-29.1C184.2,226,182.2,224,182.2,221.5z"/>
		<path fill-rule="evenodd" clip-rule="evenodd" fill="#EBF5FF" d="M114.5,221.5v-9.1c0-2.5,2-4.5,4.5-4.5h55.3c2.5,0,4.5,2,4.5,4.5
			v9.1c0,2.5-2,4.5-4.5,4.5H119C116.5,226,114.5,224,114.5,221.5z"/>
		<path fill-rule="evenodd" clip-rule="evenodd" fill="#EBF5FF" d="M73.1,221.5v-9.1c0-2.5,2-4.5,4.5-4.5h29.1c2.5,0,4.5,2,4.5,4.5
			v9.1c0,2.5-2,4.5-4.5,4.5H77.6C75.1,226,73.1,224,73.1,221.5z"/>
		<path fill-rule="evenodd" clip-rule="evenodd" fill="#EBF5FF" d="M161.2,244.2v-9.1c0-2.5,2-4.5,4.5-4.5h29.1c2.5,0,4.5,2,4.5,4.5
			v9.1c0,2.5-2,4.5-4.5,4.5h-29.1C163.2,248.7,161.2,246.7,161.2,244.2z"/>
		<path fill-rule="evenodd" clip-rule="evenodd" fill="#EBF5FF" d="M135.9,244.2v-9.1c0-2.5,2-4.5,4.5-4.5h12.7c2.5,0,4.5,2,4.5,4.5
			v9.1c0,2.5-2,4.5-4.5,4.5h-12.7C137.9,248.7,135.9,246.7,135.9,244.2z"/>
		<path fill-rule="evenodd" clip-rule="evenodd" fill="#EBF5FF" d="M94,244.2v-9.1c0-2.5,2-4.5,4.5-4.5h29.1c2.5,0,4.5,2,4.5,4.5
			v9.1c0,2.5-2,4.5-4.5,4.5H98.5C96,248.7,94,246.7,94,244.2z"/>
		<path fill-rule="evenodd" clip-rule="evenodd" fill="#EBF5FF" d="M52.1,244.2v-9.1c0-2.5,2-4.5,4.5-4.5h29.1c2.5,0,4.5,2,4.5,4.5
			v9.1c0,2.5-2,4.5-4.5,4.5H56.6C54.1,248.7,52.1,246.7,52.1,244.2z"/>
		<path fill-rule="evenodd" clip-rule="evenodd" fill="#EBF5FF" d="M182.2,266.9v-9.1c0-2.5,2-4.5,4.5-4.5h29.1c2.5,0,4.5,2,4.5,4.5
			v9.1c0,2.5-2,4.5-4.5,4.5h-29.1C184.2,271.4,182.2,269.3,182.2,266.9z"/>
		<path fill-rule="evenodd" clip-rule="evenodd" fill="#EBF5FF" d="M114.5,266.9v-9.1c0-2.5,2-4.5,4.5-4.5h55.3c2.5,0,4.5,2,4.5,4.5
			v9.1c0,2.5-2,4.5-4.5,4.5H119C116.5,271.4,114.5,269.3,114.5,266.9z"/>
		<path fill-rule="evenodd" clip-rule="evenodd" fill="#EBF5FF" d="M73.1,266.9v-9.1c0-2.5,2-4.5,4.5-4.5h29.1c2.5,0,4.5,2,4.5,4.5
			v9.1c0,2.5-2,4.5-4.5,4.5H77.6C75.1,271.4,73.1,269.3,73.1,266.9z"/>
	</g>
	<path fill-rule="evenodd" clip-rule="evenodd" fill="none" d="M98.3,296.3c0-0.5,0-42.7,0-43.2c-0.2-11.4,4.2-22.8,13.2-31.5
		c4-3.8,8.6-6.8,13.4-8.9"/>
	<path fill-rule="evenodd" clip-rule="evenodd" fill="none" d="M210.7,296.3c0-0.5,0-42.7,0-43.2c0.2-11.4-4.2-22.8-13.2-31.5
		c-4-3.8-8.6-6.8-13.4-8.9"/>
	<path fill-rule="evenodd" clip-rule="evenodd" fill="#B8C7FC" d="M96,271.4c-1.3-30.2,5.1-57.4,31.6-69.8l52.4,4.5
		c19.4,6.6,28.4,28.1,24.7,67.6c-4.8-0.1-11-4.2-14.5-0.3c-23.6,25.9-47.5,0.5-70.1,13C93.6,301,97.2,278.8,96,271.4z"/>
	<polygon fill="#141C6B" points="189.8,230.3 190.2,236.4 190.4,242.6 190.5,254.9 190.4,267.3 190.2,273.5 189.8,279.6 
		189.4,273.5 189.3,267.3 189.1,254.9 189.3,242.6 189.4,236.4 	"/>
	<path fill-rule="evenodd" clip-rule="evenodd" fill="#141C6B" d="M205.7,281.2l-0.7-19.4c-0.1-4.1-0.2-8.2-0.3-12.3
		c0-1.4,0-2.9-0.1-4.4c0-1,0-2.1-0.1-3.2c-0.1-1-0.2-2.1-0.4-3.1c-1.6-10.2-7.8-19.6-16.8-26.6c-3.5-2.7-7.5-5.1-11.7-7l-3.7-1.5
		l0-2.5l4.6,1.8c12.6,5.6,22.9,15.3,27.3,26.4c2,5.1,3.1,10.3,2.8,15.7c0,1.2,0,2.4-0.1,3.6c-0.1,2.3-0.1,4.6-0.1,6.8
		c-0.1,7.1-0.3,14.2-0.6,21.3L205.7,281.2z"/>
	<path fill-rule="evenodd" clip-rule="evenodd" fill="#FFE0BD" stroke="#141C6B" stroke-width="1.12" stroke-miterlimit="10" d="
		M132.5,195.7l19.7,37.9l19.7-37.9C171.9,195.7,151.5,187.1,132.5,195.7z"/>
	<path fill-rule="evenodd" clip-rule="evenodd" fill="#E5B282" d="M135.5,201.3L135.5,201.3l-2.9-5.6c18.9-8.6,39.3,0,39.3,0
		l-2.9,5.6l0,0c-4.6,1.9-10.1,3-16.7,3C145.6,204.3,140.1,203.2,135.5,201.3z"/>
	<path fill-rule="evenodd" clip-rule="evenodd" fill="#FC4730" d="M200.9,197c1.1-0.8,1.7-2,1.7-3.1v-56.1
		c0-10.8-4.7-21.7-14.2-30.1c-19.4-17.1-51.3-17.6-71.4-1c-10.2,8.5-15.3,19.8-15.3,31.1v56.1c0,0.9,0.4,1.9,1.1,2.7
		c1,1,2.3,1.4,3.7,1.4c30.4-8.7,60.9-2.6,91.3,0C198.9,197.9,200,197.6,200.9,197z"/>
	<path fill-rule="evenodd" clip-rule="evenodd" fill="#C42930" d="M192.7,197c0.9-0.8,1.4-2,1.4-3.1v-56.1
		c0-10.8-3.9-21.7-11.8-30.1c-16.1-17.1-42.7-17.6-59.3-1c-8.5,8.5-12.8,19.8-12.8,31.1v56.1c0,0.9,0.3,1.9,1,2.7
		c0.8,1,1.9,1.4,3,1.4c25.3-8.7,50.6-2.6,75.9,0C191,197.9,191.9,197.6,192.7,197z"/>
	<path fill-rule="evenodd" clip-rule="evenodd" fill="#FFE0BD" stroke="#141C6B" stroke-width="1.12" stroke-miterlimit="10" d="
		M191.5,139.3c0-16.6-12.2-28.8-39.3-28.8c-27.2,0-39.4,12.2-39.4,28.8c0,16.6-2.8,60.5,39.4,60.5
		C194.4,199.7,191.5,155.9,191.5,139.3z"/>
	<path fill-rule="evenodd" clip-rule="evenodd" fill="#141C6B" d="M152.2,190.1c-1.5,0-2.3-1.1-2.3-0.6c0,0.5,0.4,1.5,2.3,1.5
		c1.9,0,2.3-1,2.3-1.5C154.5,189,153.7,190.1,152.2,190.1z"/>
	<path fill-rule="evenodd" clip-rule="evenodd" fill="#E5B282" d="M130.5,158.2c1.7-1.6,4.4-1.5,5.9,0.3c1.6,1.7,1.4,2.4-0.3,3.9
		c-1.7,1.6-4.4,1.5-5.9-0.3C128.6,160.4,128.7,159.7,130.5,158.2z"/>
	
		<path fill-rule="evenodd" clip-rule="evenodd" fill="none" stroke="#141C6B" stroke-width="1.12" stroke-linecap="round" stroke-linejoin="round" stroke-miterlimit="10" d="
		M156.9,172.5c-2.7,2.4-5.5,2.3-8.4,0"/>
	
		<path fill-rule="evenodd" clip-rule="evenodd" fill="none" stroke="#545E80" stroke-width="1.12" stroke-linecap="round" stroke-linejoin="round" stroke-miterlimit="10" d="
		M166.4,146.5c5.4-1,10.5-0.1,15.2,2.6"/>
	<path fill-rule="evenodd" clip-rule="evenodd" fill="#E5B282" d="M168.9,158.2c1.7-1.6,4.4-1.5,5.9,0.3c1.6,1.7,1.4,2.4-0.3,3.9
		c-1.7,1.6-4.3,1.5-5.9-0.3C167.1,160.4,167.2,159.7,168.9,158.2z"/>
	<path fill-rule="evenodd" clip-rule="evenodd" fill="none" d="M98.3,293.2c0-0.5,0-42.7,0-43.2c-0.2-11.4,4.2-22.8,13.2-31.5
		c4-3.8,8.6-6.8,13.4-8.9"/>
	<polygon fill="#545E80" points="119.8,230.3 120.1,232.6 120.3,234.9 120.6,239.6 120.7,248.9 120.6,258.2 120.3,262.8 
		119.8,267.5 119.3,262.8 119.1,258.2 118.9,248.9 119.1,239.6 119.3,234.9 119.5,232.6 	"/>
	<path fill-rule="evenodd" clip-rule="evenodd" fill="#FC4730" d="M101.7,156.9v-19.2c0-10.8,4.7-21.7,14.2-30.1
		c19.4-17.1,51.3-17.6,71.3-1c10.2,8.5,15.3,19.8,15.3,31.1v19.1v-0.1c-28.4-23-72.7-22.8-100.9,0V156.9z"/>
	<path fill="#141C6B" d="M196.5,152.4c-2.6-1.4-5.1-2.7-7.8-3.9c-0.6-0.3-1.3-0.6-1.9-0.8c-0.7-0.3-1.3-0.6-2-0.8
		c-1.7-0.7-3.3-1.3-5.1-1.9c-1.7-0.6-3.4-1.1-5.1-1.5c-0.7-0.2-1.4-0.4-2.1-0.5c-1.5-0.4-3.1-0.7-4.6-1c-0.4-0.1-0.7-0.1-1.1-0.2
		c-0.9-0.2-1.7-0.3-2.6-0.4c-0.9-0.1-1.7-0.2-2.6-0.3c-1.4-0.1-2.8-0.3-4.2-0.4c-1.3-0.1-2.7-0.1-4-0.2c-3.9-0.1-7.8,0.1-11.7,0.6
		c-3.3,0.4-6.6,0.9-9.9,1.7c-7.2,1.7-14.1,4.3-20.6,7.7c-1.2,0.6-2.5,1.3-3.7,1.9c0.5-0.4,1.1-0.8,1.7-1.2c1.4-1,2.9-1.9,4.5-2.8
		c0.8-0.4,1.5-0.8,2.3-1.3c0.8-0.4,1.6-0.8,2.4-1.2c1.4-0.7,2.9-1.3,4.3-1.9c1.6-0.6,3.2-1.2,4.9-1.7c0.5-0.1,0.9-0.3,1.3-0.4
		c1.9-0.5,3.8-1.1,5.7-1.5c0.9-0.2,1.7-0.4,2.6-0.5c1.9-0.3,3.7-0.6,5.6-0.8c3-0.3,5.9-0.5,8.9-0.5c0.9,0,1.8,0,2.7,0
		c1.4,0,2.8,0.1,4.1,0.2c2.4,0.2,4.9,0.5,7.3,0.9c3.2,0.6,6.4,1.3,9.5,2.2c1.4,0.4,2.8,0.9,4.2,1.4c0.8,0.3,1.5,0.6,2.3,0.9
		c0.4,0.2,0.8,0.3,1.2,0.5c0.8,0.3,1.7,0.7,2.5,1.1c0.3,0.1,0.5,0.2,0.8,0.4c2.2,1.1,4.3,2.2,6.4,3.5c0.8,0.5,1.6,1.1,2.5,1.6
		C195.7,151.8,196.1,152.1,196.5,152.4z"/>
	<path fill-rule="evenodd" clip-rule="evenodd" fill="none" d="M103.3,197c-1.1-0.8-1.7-2-1.7-3.1v-56.1c0-10.8,4.7-21.7,14.2-30.1
		c19.4-17.1,51.3-17.6,71.3-1c10.2,8.5,15.3,19.8,15.3,31.1v56.1c0,0.9-0.4,1.9-1.1,2.7c-1,1-2.3,1.4-3.7,1.4
		c-7.8-2.2-15.5-3.5-23.3-4.1c18.8-12.5,17.1-41.7,17.1-54.6c0-16.6-12.2-28.8-39.3-28.8c-27.2,0-39.4,12.2-39.4,28.8
		c0,13.4-1.8,44.4,19.5,56c-8.6,0.9-17.3,1.9-25.9,2.7C105.3,197.9,104.2,197.6,103.3,197z"/>
	<path fill-rule="evenodd" clip-rule="evenodd" fill="#141C6B" d="M197.1,198.6c-0.3-0.1-0.7-0.2-1-0.3c-1.3-0.3-2.5-0.7-3.8-1
		c-1.4-0.3-2.8-0.6-4.2-0.9c-0.9-0.2-1.7-0.3-2.5-0.5c-1.7-0.3-3.3-0.5-5-0.7c-1.3-0.2-2.6-0.3-3.8-0.4c-1.1-0.1-2.1-0.2-3.2-0.3
		c0.6-0.4,1.2-0.8,1.8-1.2c3,0.2,6,0.6,8.9,1c1.9,0.3,3.7,0.6,5.6,1c1.7,0.4,3.5,0.7,5.2,1.2c0.9,0.2,1.9,0.5,2.8,0.8
		c0.8,0,1.5-0.2,2.2-0.6c0.1-0.1,0.2-0.1,0.3-0.2c0.1-0.1,0.3-0.2,0.4-0.4c0.1-0.1,0.1-0.1,0.2-0.2c0.3-0.3,0.6-0.9,0.7-1.4
		c0-0.2,0-0.3,0-0.5c-0.1-18.7-0.1-37.4-0.1-56.1c0,0,0,0,0,0c0-2.1-0.2-4.1-0.5-6.2c-0.3-1.6-0.7-3.1-1.1-4.6
		c-0.2-0.6-0.4-1.2-0.6-1.7c-0.3-0.7-0.5-1.4-0.8-2.1c-0.4-0.9-0.8-1.9-1.3-2.8c-0.6-1-1.1-2-1.7-3c-0.1-0.2-0.2-0.4-0.4-0.6
		c-0.4-0.6-0.9-1.3-1.4-1.9c-1.2-1.5-2.4-3-3.7-4.3c-0.6-0.6-1.1-1.1-1.7-1.7c-0.6-0.5-1.2-1-1.8-1.5c-0.6-0.5-1.2-1-1.9-1.5
		c-0.5-0.3-1-0.7-1.5-1c-3.1-2.1-6.5-3.9-9.9-5.3c-11.7-4.8-25.3-5.4-37.4-1.9c-2.6,0.8-5.3,1.7-7.8,2.9c-3.3,1.5-6.4,3.3-9.2,5.5
		c-0.9,0.7-1.8,1.4-2.7,2.2c-1.1,1-2.2,2.1-3.3,3.2c-1.5,1.6-2.8,3.3-4,5.1c-3.1,4.5-5.3,9.8-6.2,15.3c-0.3,2-0.5,3.9-0.5,6
		c-0.1,18.7-0.2,37.4-0.5,56.1c0,1.2,0.6,2.4,1.6,3.1c0,0,0,0,0,0c0.1,0.1,0.2,0.1,0.3,0.2c0.8,0.5,1.9,0.7,2.8,0.7
		c7.6-0.8,15.2-1.8,22.8-2.6c0.8-0.1,1.7-0.2,2.5-0.3c0.4,0.2,0.8,0.5,1.2,0.7c-0.9,0.1-1.7,0.2-2.5,0.2c-4.3,0.4-8.6,0.8-12.9,1.2
		c-3.7,0.3-7.4,0.7-11.1,0.9c-0.8,0-1.8-0.2-2.5-0.7c-0.2-0.1-0.4-0.3-0.6-0.4c0,0,0,0,0,0c-0.7-0.5-1.3-1.2-1.6-2
		c0-0.1-0.1-0.3-0.1-0.4c-0.1-0.2-0.1-0.5-0.1-0.7c-0.3-18.7-0.4-37.4-0.5-56.1c0-1.7,0.1-3.3,0.3-5c0.1-0.6,0.2-1.3,0.3-1.9
		c0.1-0.5,0.2-1,0.3-1.5c0.2-0.7,0.3-1.5,0.5-2.2c0.2-0.6,0.4-1.3,0.6-1.9c0.3-0.8,0.6-1.7,0.9-2.5c0.2-0.6,0.5-1.1,0.8-1.7
		c0.8-1.7,1.7-3.3,2.8-4.9c0.5-0.8,1.1-1.6,1.7-2.4c0.6-0.8,1.3-1.6,2-2.4c1.8-2.1,3.8-3.9,5.9-5.7c1.4-1.1,2.9-2.2,4.4-3.1
		c0.6-0.3,1.1-0.7,1.7-1c0.6-0.4,1.3-0.7,1.9-1.1c1-0.5,2-1,3.1-1.5c3.8-1.8,8-3.1,12.1-3.9c2-0.4,3.9-0.7,5.9-0.9
		c0.7-0.1,1.5-0.1,2.3-0.2c0.7-0.1,1.4-0.1,2.1-0.1c1.9-0.1,3.9,0,5.8,0.1c0.7,0.1,1.5,0.1,2.2,0.2c0.3,0,0.6,0.1,0.9,0.1
		c0.4,0,0.7,0.1,1.1,0.1c0.7,0.1,1.4,0.2,2.1,0.3c1.1,0.2,2.2,0.4,3.4,0.7c1.5,0.4,2.9,0.8,4.4,1.2c1.1,0.3,2.2,0.8,3.3,1.2
		c1.2,0.5,2.5,1,3.6,1.6c0.3,0.1,0.5,0.3,0.8,0.4c0.7,0.3,1.4,0.8,2.2,1.2c0.6,0.3,1.2,0.7,1.7,1c0.6,0.4,1.3,0.8,1.9,1.2
		c0.6,0.4,1.2,0.8,1.8,1.3c0.9,0.6,1.7,1.3,2.6,2.1c0.5,0.5,1.1,0.9,1.6,1.4c0.5,0.5,1,1,1.5,1.5c1.3,1.4,2.6,2.8,3.8,4.4
		c1.7,2.2,3.1,4.6,4.3,7.1c0.3,0.5,0.5,1.1,0.7,1.6c0.3,0.6,0.5,1.2,0.7,1.8c0.1,0.3,0.2,0.5,0.3,0.8c0.3,0.8,0.5,1.6,0.8,2.4
		c0.3,1,0.5,2,0.7,3c0.2,1,0.3,2,0.5,3c0.2,1.4,0.2,2.9,0.2,4.3c0,0.4,0,5.2,0,5.6l0,5.6c0,2.8,0,5.6,0,8.4c0,6.5,0,13.1,0,19.6
		c0,2.8,0,5.6,0,8.4c0,0.9,0,1.9,0,2.8c0,1.8,0.1,3.9,0,5.6c0,0.3,0,0.6-0.1,0.9c-0.2,1.1-0.9,2.1-1.8,2.8c-1,0.8-2.4,1.2-3.7,1.2
		c0,0-0.1,0-0.1,0C197.5,198.7,197.3,198.6,197.1,198.6z M197.8,197.2c0,0-0.1,0-0.1,0c0.1,0,0.2,0,0.2,0
		C197.9,197.2,197.9,197.2,197.8,197.2z M103.3,197 M200.9,195.9C200.9,196,200.9,196,200.9,195.9L200.9,195.9
		C200.8,196,200.9,196,200.9,195.9z M201.8,193.8C201.8,193.8,201.8,193.8,201.8,193.8C201.8,193.8,201.8,193.8,201.8,193.8
		C201.8,193.8,201.8,193.8,201.8,193.8z M116.3,108.2L116.3,108.2C116.3,108.2,116.3,108.2,116.3,108.2L116.3,108.2z M186.6,107.3
		C186.6,107.3,186.6,107.3,186.6,107.3L186.6,107.3C186.6,107.3,186.6,107.3,186.6,107.3z"/>
	<path fill="#141C6B" d="M131.1,116.9c-0.1,0.6-0.3,1.2-0.5,1.8c-0.2,0.9-0.5,1.7-0.7,2.6c-0.2,0.8-0.3,1.6-0.5,2.4
		c-0.1,0.5-0.1,0.9-0.2,1.4c-0.1,1.2-0.2,2.3-0.3,3.5c-0.1,2.9,0,5.7,0.1,8.6c0,1.9,0,3.8-0.3,5.7c-0.2-0.5-0.3-1.1-0.4-1.6
		c-0.1-0.4-0.2-0.9-0.3-1.3c-0.2-1.5-0.5-3-0.6-4.5c-0.4-3.8-0.5-7.8,0.3-11.5c0.2-0.7,0.3-1.4,0.6-2.1
		C129,120.1,129.9,118.2,131.1,116.9z"/>
	<path fill="#141C6B" d="M173.1,116.9c1.1,1.3,1.8,2.8,2.4,4.3c0.2,0.5,0.3,1,0.5,1.4c0.2,0.8,0.4,1.5,0.5,2.3
		c0.7,4.2,0.4,8.5-0.1,12.8c-0.2,1.7-0.5,3.5-1,5.1c-0.2-0.7-0.3-1.5-0.3-2.2c0-0.8-0.1-1.6-0.1-2.4c0-2.9,0.2-5.7,0.1-8.6
		c0-1.4-0.1-2.8-0.2-4.1c-0.1-0.5-0.1-1-0.2-1.4c0-0.2-0.1-0.4-0.1-0.6c-0.1-0.5-0.2-1-0.3-1.5c-0.1-0.4-0.2-0.8-0.3-1.2
		c-0.1-0.2-0.1-0.4-0.1-0.6c-0.1-0.5-0.3-1.1-0.4-1.6C173.4,118,173.2,117.5,173.1,116.9z"/>
	<g>
		<path fill-rule="evenodd" clip-rule="evenodd" fill="#E5EDF0" d="M134.9,265.1l18.9,1.8c0.8,0.1,1.6-0.5,1.7-1.5l5.6-39.8
			c0.1-0.9-0.4-1.8-1.3-1.9l-18.7-2.7c-0.8-0.1-1.6,0.5-1.7,1.5l-5.7,40.7C133.5,264.1,134.1,265,134.9,265.1z"/>
		<path fill="#141C6B" d="M134.9,265.1c6.3,0.3,12.6,0.7,18.9,1.2c0.4,0.1,0.7-0.2,0.9-0.5c0.1-0.2,0.1-0.3,0.1-0.5c0,0,0,0,0,0
			c1.7-13.3,3.5-26.6,5.3-39.8c0,0,0,0,0,0.1c0-0.1,0-0.2,0-0.3c0,0,0-0.1,0-0.1c-0.1-0.3-0.2-0.5-0.5-0.5c0,0,0,0,0,0
			c-6.2-0.9-12.5-1.8-18.7-2.7c0,0,0,0,0.1,0c-0.4,0-0.6,0.1-0.8,0.5c0,0.1,0,0.2-0.1,0.2c0,0,0,0,0,0c-1,6.8-2,13.6-3.1,20.3
			c-0.4,2.7-0.9,5.4-1.3,8.1c-0.3,2-0.7,4.1-1,6.1c-0.1,0.7,0.3,1.9-0.3,2c0,0-0.7,4.1-0.7,4C133.7,264,134,264.9,134.9,265.1
			L134.9,265.1c-0.2,0-0.4-0.1-0.5-0.1c-0.7-0.3-1-1-0.9-1.8c0.4-3.4,0.7-6.8,1.1-10.2l0.5-4.1c0.4-3.4,0.8-6.8,1.3-10.2
			c0.3-2,0.5-4.1,0.8-6.1l0.5-4.1l0.5-4.1c0.1-0.7,0.1-1.4,0.3-2c0.1-0.6,0.3-1.1,0.8-1.6c0.5-0.5,1.2-0.7,1.8-0.6
			c0.3,0,0.5-0.1,1,0.1l1.9,0.3c0.9,0.1,1.9,0.3,2.8,0.4c2.2,0.3,4.4,0.6,6.6,0.9c1.3,0.2,2.5,0.3,3.8,0.5c1.1,0.2,2.4,0.2,3.5,0.6
			c0.3,0.1,0.6,0.4,0.8,0.6c0.1,0.1,0.2,0.2,0.2,0.3c0.1,0.1,0.1,0.2,0.2,0.3c0.2,0.4,0.3,1,0.2,1.5c0,0.1-0.5,3.9-0.6,4
			c-0.1,0.7-0.2,1.3-0.3,2c-0.1,0.7-0.2,1.3-0.3,2c-0.2,1.5-0.4,2.5-0.6,4c-0.5,3.3-1,6.6-1.5,9.9c-0.1,0.7-0.2,1.3-0.3,2
			c-0.5,3.3-1,6.6-1.5,9.9l-0.6,4c0.4,0.5-0.2,1.3-0.3,2c-0.1,0.7-0.4,1.1-0.9,1.6c-0.4,0.3-0.9,0.4-1.4,0.4c-0.3,0-0.7,0-1-0.1
			c-0.3-0.1-0.6-0.1-0.9-0.1c-3.1-0.3-6.3-0.7-9.4-1.1C139.9,265.8,137.4,265.4,134.9,265.1z"/>
		<path fill-rule="evenodd" clip-rule="evenodd" fill="#E5EDF0" d="M153.2,265.7l-17.6-1.5c-0.6-0.1-0.9-0.7-0.9-1.3l5.6-39.9
			c0.1-0.6,0.6-1,1.2-1l17.5,2.6c0.7,0,1.1,0.6,1,1.3l-5.4,38.8C154.5,265.4,153.9,265.8,153.2,265.7z"/>
		<path fill-rule="evenodd" clip-rule="evenodd" fill="#141C6B" d="M142.8,226.2c-0.5-0.1-0.8-0.5-0.7-1c0.1-0.5,0.5-0.8,1-0.7
			c0.5,0.1,0.8,0.5,0.7,1C143.7,225.9,143.3,226.2,142.8,226.2z"/>
		<path fill-rule="evenodd" clip-rule="evenodd" fill="#BFCCF0" d="M146.2,226.8c-0.4,0-0.6-0.4-0.6-0.7c0.1-0.4,0.4-0.6,0.8-0.6
			c0.4,0.1,0.6,0.4,0.6,0.8C146.9,226.6,146.6,226.9,146.2,226.8z"/>
		
			<line fill-rule="evenodd" clip-rule="evenodd" fill="none" stroke="#141C6B" stroke-width="1.5" stroke-linecap="round" stroke-linejoin="round" stroke-miterlimit="10" x1="138.6" y1="227.8" x2="159.8" y2="230.7"/>
		
			<line fill-rule="evenodd" clip-rule="evenodd" fill="none" stroke="#141C6B" stroke-width="1.5" stroke-linecap="round" stroke-linejoin="round" stroke-miterlimit="10" x1="134.5" y1="261.8" x2="155.2" y2="263.4"/>
		<path fill-rule="evenodd" clip-rule="evenodd" fill="#141C6B" d="M147.8,236.9l0.6-3.9c0.1-0.4,0.4-0.7,0.9-0.7
			c0.4,0.1,0.7,0.5,0.7,0.9l-0.5,3.9c-0.1,0.4-0.4,0.7-0.9,0.7C148.1,237.7,147.8,237.3,147.8,236.9z"/>
	</g>
	<path fill-rule="evenodd" clip-rule="evenodd" fill="#FFE0BD" stroke="#141C6B" stroke-width="1.12" stroke-miterlimit="10" d="
		M129.1,258.6c3.8-16.2,11.8-18.6,10.6-8.1c-0.1,3.1,2.5,2,7-1.9c12.7-11.1,20.7,16.9-9,22.7C136,266.7,135.1,261.7,129.1,258.6z"/>
	<path fill-rule="evenodd" clip-rule="evenodd" fill="#FFE0BD" stroke="#141C6B" stroke-width="1.12" stroke-miterlimit="10" d="
		M190.4,268.6c-12.6,10.9-11,19.1-2.3,13.1c2.6-1.5,2.9,1.3,1.6,7.1c-3.9,16.4,24.5,10.5,15.9-18.5
		C200.7,271,195.9,272.4,190.4,268.6z"/>
	
		<path fill-rule="evenodd" clip-rule="evenodd" fill="none" stroke="#141C6B" stroke-width="1.12" stroke-linecap="round" stroke-linejoin="round" stroke-miterlimit="10" d="
		M166.4,146.5c5.4-1,10.5-0.1,15.2,2.6"/>
	<path fill-rule="evenodd" clip-rule="evenodd" fill="#141C6B" d="M168.9,155.2c1.7-1.6,4.4-1.5,5.9,0.3c1.6,1.7,1.4,4.4-0.3,5.9
		c-1.7,1.6-4.3,1.4-5.9-0.3C167.1,159.4,167.2,156.7,168.9,155.2z"/>
	<path fill-rule="evenodd" clip-rule="evenodd" fill="#FFFFFF" d="M170.2,159.7c0.5-0.4,1.2-0.4,1.6,0.1c0.4,0.5,0.4,1.2-0.1,1.6
		c-0.5,0.4-1.2,0.4-1.6-0.1C169.7,160.8,169.7,160.1,170.2,159.7z"/>
	
		<path fill-rule="evenodd" clip-rule="evenodd" fill="none" stroke="#141C6B" stroke-width="1.12" stroke-linecap="round" stroke-linejoin="round" stroke-miterlimit="10" d="
		M126.9,146.5c5.4-1,10.5-0.1,15.2,2.6"/>
	<path fill-rule="evenodd" clip-rule="evenodd" fill="#141C6B" d="M129.4,155.2c1.7-1.6,4.4-1.4,5.9,0.3s1.5,4.4-0.3,5.9
		c-1.7,1.6-4.4,1.4-5.9-0.3C127.6,159.4,127.7,156.7,129.4,155.2z"/>
	<path fill-rule="evenodd" clip-rule="evenodd" fill="#FFFFFF" d="M131.7,158.7c0.5-0.4,1.2-0.4,1.6,0.1s0.4,1.2-0.1,1.6
		c-0.5,0.4-1.2,0.4-1.6-0.1C131.2,159.8,131.2,159.1,131.7,158.7z"/>
	
		<line fill-rule="evenodd" clip-rule="evenodd" fill="none" stroke="#141C6B" stroke-width="1.12" stroke-linecap="round" stroke-linejoin="round" stroke-miterlimit="10" x1="145.6" y1="183.5" x2="155.5" y2="183.5"/>
	<path fill="#141C6B" d="M119.8,230.3c0,0.8,0.1,2.6,0.2,3.5c0.1,1.7,0.2,3.5,0.3,5.2c0,1.1,0.1,2.3,0.1,3.5
		c0.1,2.9,0.1,5.8,0.2,8.7c0,1.7,0.1,3.5,0.1,5.2c0,2.9,0.1,5.8,0.1,8.7c0-0.1-0.1-0.4-0.1-0.4l-0.3-0.3l-0.4-0.1
		c-0.1,0-0.4,0.1-0.4,0.1c1.7-1.2,3.4-2.3,5.1-3.5c0.5-0.3,0.9-0.6,1.4-0.9c0,0,0.9-0.6,0.9-0.6c0.3-0.2,0.6-0.4,0.9-0.6
		c0.5-0.3,1.2-1.1,1.9-0.6c0.1,0.1,0.3,0.2,0.4,0.3c0.2,0.2,0.5,0.4,0.7,0.6c0.2,0.1,0.3,0.3,0.5,0.5c0.3,0.2,0.5,0.5,0.8,0.8
		c0.9,0.9,1.8,1.9,2.5,2.9c0.3,0.5,0.7,0.9,1,1.4c0.3,0.4,0.5,0.8,0.7,1.2c0.3,0.5,0.6,1.1,0.9,1.6c0.1,0.2,0.2,0.4,0.3,0.7
		c0.3,0.5,0.5,1.2,0.7,1.8c0.1,0.3,0.2,0.5,0.3,0.8c0.1,0.3,0.3,0.8,0.3,1.1c0,0.5-0.4,0.7-0.7,0.9c-0.6,0.3-1.1,0.7-1.7,1.1
		c-2.5,1.8-4.9,3.9-7.3,6c-5.7,5-11.8,10.4-19.7,11.1c-1.5,0.1-3,0.1-4.5-0.1c-0.5-0.1-1-0.1-1.5-0.2c-0.3-0.1-0.5-0.1-0.7-0.2
		c0.5,0,1,0.1,1.6,0.1c0.9,0,1.8,0,2.8,0c1.3-0.1,2.5-0.3,3.8-0.6c0.6-0.1,1.1-0.3,1.7-0.5c0.3-0.1,0.7-0.2,1-0.4
		c1-0.4,1.9-0.8,2.8-1.3c3-1.6,5.7-3.8,8.2-6c2.9-2.6,5.7-5.3,8.7-7.8c1-0.8,2-1.6,3.1-2.3c0.4-0.3,0.7-0.5,1.1-0.7
		c-0.3,0.2-0.5,0.6-0.4,1c-0.2-0.7-0.4-1.4-0.7-2c-0.5-1.2-1-2.3-1.6-3.3c-0.9-1.5-1.9-2.9-3.1-4.1c-0.3-0.3-0.7-0.7-1-1
		c-0.7-0.6-1.3-1.2-2-1.8c0.3,0.2,0.8,0.3,1.1,0.1c-1.7,1.2-3.4,2.3-5.1,3.5c-0.5,0.3-0.9,0.6-1.4,0.9l-0.9,0.6
		c-0.2,0.1-0.3,0.2-0.5,0.3c-0.2,0.1-0.3,0.2-0.5,0.3c-0.2,0.1-0.3,0.2-0.5,0.3c-0.2,0.1-0.3,0.2-0.5,0.3c0,0-0.4,0.1-0.4,0.1
		c0,0-0.3,0-0.3-0.1l-0.2,0c0,0-0.3-0.3-0.3-0.3c0,0-0.1-0.2-0.1-0.2c0-0.1-0.1-0.2-0.1-0.3c-0.1-0.6,0-1.2,0-1.7
		c0-0.6,0.1-1.2,0-1.7c0,0,0-3.5,0-3.5c0-1.7,0-3.5,0.1-5.2c0-0.6,0-1.2,0-1.7c0-0.6,0-1.2,0-1.7c0-1.7,0.1-3.5,0.1-5.2
		c0-1.7,0.1-3.5,0.1-5.2c0-0.2,0.1-3.3,0.2-3.5C119.7,233.7,119.7,232,119.8,230.3z"/>
	<path fill="#141C6B" d="M128.5,201.3c-1.7,0.9-3.5,1.7-5.1,2.7c-1.1,0.7-2.3,1.3-3.3,2c-0.7,0.5-1.4,0.9-2.1,1.4
		c-1.9,1.3-3.7,2.9-5.4,4.5c-2.4,2.3-4.6,4.9-6.4,7.8c-1.3,2-2.3,4.1-3.3,6.2c-0.7,1.6-1.3,3.2-1.8,4.8c-0.2,0.7-0.4,1.3-0.6,1.9
		c-0.1,0.4-0.2,0.7-0.3,1.1c-0.2,0.7-0.3,1.3-0.5,2c-0.3,1.5-0.7,3.1-0.9,4.6c-1.1,6.4-1.5,12.8-1.7,19.3c-0.1,2.4-0.1,4.8-0.2,7.2
		c0,2.2-0.1,4.5-0.1,6.7c0,0.3-0.1,0.6-0.1,0.8c-0.1,0.7-0.2,1.3-0.3,2c-0.2,1.2-0.3,2.4-0.5,3.6c-0.1,0.6-0.1,1.2-0.2,1.8
		c0,0.4-0.1,0.9-0.1,1.3c0,0.4,0,0.7,0,1.1c0,0.4,0,0.9,0.1,1.3c0.1,1.4,0.4,2.7,1.4,3.7c0.1,0.2,0.3,0.3,0.5,0.4
		c0.2,0.1,0.5,0.3,0.7,0.4c0.3,0.1,0.5,0.2,0.8,0.3c-0.3,0-0.5-0.1-0.8-0.2c-0.3-0.1-0.5-0.2-0.8-0.4c-0.5-0.2-0.9-0.8-1.2-1.2
		c-0.6-0.9-1-2.2-1.1-3.4c0-0.3-0.1-0.7-0.1-1c0-0.5-0.1-1.1-0.1-1.6c0-0.6,0-1.3,0-1.9c0-0.9,0.1-1.9,0.2-2.8
		c0-0.6,0.1-1.1,0.2-1.7c0.1-0.9,0.2-1.9,0.3-2.8c0,0,0,0,0,0.1c0-3-0.1-5.9-0.1-8.9c0-2.7,0-5.5,0.1-8.2c0-0.7,0-1.4,0.1-2.2
		c0.1-2,0.2-4,0.4-6c0.6-7.9,2.1-15.7,5.3-22.9c0.8-1.9,1.8-3.8,2.9-5.6c0.6-1,1.3-1.9,1.9-2.9c0.6-0.9,1.3-1.7,2-2.5
		c0.5-0.6,1-1.1,1.5-1.7c0.8-0.9,1.7-1.7,2.6-2.5c0.7-0.6,1.4-1.2,2.1-1.7c0.3-0.2,0.6-0.5,0.9-0.7c0.3-0.2,0.6-0.4,0.9-0.6
		c0.8-0.6,1.7-1.1,2.5-1.6c2.4-1.4,4.9-2.6,7.5-3.7C126.8,201.9,127.6,201.6,128.5,201.3z"/>
	<path fill-rule="evenodd" clip-rule="evenodd" fill="#FAB242" d="M252.6,143.2l0.6,0.6l0.6-0.6c1.4-1.4,3.7-1.4,5.1,0
		c1.4,1.4,1.4,3.7,0,5.1l-0.6,0.6l-5.1,5.1l-5.1-5.1l-0.6-0.6c-1.4-1.4-1.4-3.7,0-5.1C248.9,141.8,251.2,141.8,252.6,143.2z"/>
	<g>
		<path fill-rule="evenodd" clip-rule="evenodd" fill="#69C2BD" d="M119.2,40.9h4.7c0.9,0,1.6-0.7,1.6-1.6v-2.7
			c0-3.8-3.1-9.4-6.8-9.4l0,0c-0.4,0-0.8,0.4-0.8,0.8v11.6C117.9,40.3,118.5,40.9,119.2,40.9z"/>
		<path fill-rule="evenodd" clip-rule="evenodd" fill="#69C2BD" d="M114.2,40.9h-4.7c-0.9,0-1.6-0.7-1.6-1.6v-2.7
			c0-3.8,3.1-9.4,6.8-9.4l0,0c0.4,0,0.8,0.4,0.8,0.8v11.6C115.5,40.3,114.9,40.9,114.2,40.9z"/>
	</g>
	
		<polyline fill-rule="evenodd" clip-rule="evenodd" fill="none" stroke="#141C6B" stroke-width="1.12" stroke-linecap="round" stroke-linejoin="round" stroke-miterlimit="10" stroke-dasharray="2.25,2.25" points="
		126.6,248.7 66.2,46.5 128.2,46.5 	"/>
	<path fill-rule="evenodd" clip-rule="evenodd" fill="#141C6B" d="M126,246.5c1.2-0.4,2.4,0.3,2.8,1.5c0.4,1.2-0.3,2.5-1.5,2.8
		c-1.2,0.4-2.5-0.3-2.8-1.5C124.1,248.2,124.8,246.9,126,246.5z"/>
	<g>
		<g>
			<path fill="#69C2BD" d="M76.2,37.1c0,0.6-0.1,1.1-0.3,1.5c-0.2,0.5-0.5,0.9-0.9,1.2c-0.4,0.3-0.9,0.6-1.4,0.8
				c-0.5,0.2-1.1,0.3-1.7,0.3c-0.6,0-1.1-0.1-1.7-0.3c-0.5-0.2-1-0.4-1.4-0.8c-0.4-0.3-0.7-0.7-1-1.2c-0.2-0.5-0.4-1-0.4-1.6
				c0-0.3,0-0.6,0.1-0.8c0.1-0.3,0.2-0.5,0.3-0.7c0.1-0.2,0.3-0.4,0.4-0.6c0.2-0.2,0.3-0.3,0.5-0.4c-0.3-0.2-0.6-0.5-0.8-0.8
				c-0.2-0.4-0.3-0.7-0.3-1.1c0-0.5,0.1-1,0.4-1.5c0.3-0.4,0.6-0.8,1-1.1c0.4-0.3,0.8-0.5,1.3-0.7c0.5-0.1,0.9-0.2,1.4-0.2
				c0.4,0,0.9,0.1,1.4,0.2c0.5,0.1,0.9,0.4,1.3,0.6c0.4,0.3,0.7,0.6,1,1.1s0.4,0.9,0.4,1.5c0,0.4-0.1,0.8-0.3,1.1
				c-0.2,0.4-0.5,0.7-0.8,0.9c0.2,0.1,0.3,0.3,0.5,0.4c0.2,0.2,0.3,0.4,0.4,0.6c0.1,0.2,0.2,0.5,0.3,0.7
				C76.2,36.6,76.2,36.9,76.2,37.1z M73.1,37c0-0.4-0.1-0.6-0.3-0.8c-0.2-0.2-0.5-0.3-0.9-0.3c-0.4,0-0.7,0.1-0.9,0.3
				c-0.2,0.2-0.3,0.5-0.3,0.8c0,0.3,0.1,0.6,0.4,0.8c0.2,0.2,0.5,0.3,0.9,0.3c0.4,0,0.7-0.1,0.9-0.3C73,37.5,73.1,37.3,73.1,37z
				 M71,32.7c0,0.3,0.1,0.5,0.3,0.7c0.2,0.1,0.4,0.2,0.6,0.2c0.2,0,0.4-0.1,0.6-0.2c0.2-0.1,0.3-0.4,0.3-0.7c0-0.2-0.1-0.4-0.3-0.5
				c-0.2-0.1-0.4-0.2-0.7-0.2c-0.3,0-0.5,0.1-0.7,0.2C71.1,32.3,71,32.5,71,32.7z"/>
			<path fill="#69C2BD" d="M86.1,36.8c0,0.6-0.1,1.1-0.3,1.6c-0.2,0.5-0.5,0.9-0.9,1.3c-0.4,0.4-0.8,0.7-1.4,0.9
				c-0.5,0.2-1.1,0.3-1.7,0.3c-1.4,0-2.5-0.5-3.2-1.5c-0.8-1-1.1-2.4-1.1-4.2c0-0.9,0.1-1.8,0.3-2.6c0.2-0.7,0.5-1.4,0.9-1.9
				c0.4-0.5,0.9-0.9,1.5-1.2c0.6-0.3,1.2-0.4,2-0.4c1.4,0,2.6,0.5,3.7,1.6l-1.7,2c-0.6-0.6-1.3-0.9-2-0.9c-0.5,0-0.9,0.2-1.3,0.5
				c-0.3,0.3-0.5,0.8-0.5,1.4c0.4-0.4,1-0.6,1.8-0.6c0.6,0,1.1,0.1,1.6,0.3c0.5,0.2,0.9,0.5,1.3,0.8c0.4,0.3,0.6,0.7,0.9,1.2
				C86,35.8,86.1,36.3,86.1,36.8z M81.8,38.3c0.2,0,0.4,0,0.5-0.1c0.2-0.1,0.3-0.2,0.4-0.3c0.1-0.1,0.2-0.3,0.3-0.5
				c0.1-0.2,0.1-0.4,0.1-0.6c0-0.4-0.1-0.7-0.4-1c-0.3-0.3-0.6-0.4-1-0.4c-0.4,0-0.7,0.1-1,0.4c-0.3,0.3-0.4,0.6-0.4,1
				c0,0.2,0,0.4,0.1,0.6c0.1,0.2,0.2,0.3,0.3,0.5c0.1,0.1,0.3,0.2,0.4,0.3C81.4,38.3,81.6,38.3,81.8,38.3z"/>
			<path fill="#69C2BD" d="M90.2,34.2c-0.4,0-0.8-0.1-1.1-0.2c-0.4-0.1-0.7-0.3-0.9-0.5c-0.3-0.2-0.5-0.5-0.6-0.8
				c-0.1-0.3-0.2-0.7-0.2-1c0-0.4,0.1-0.7,0.2-1c0.1-0.3,0.4-0.6,0.6-0.8c0.3-0.2,0.6-0.4,0.9-0.5c0.3-0.1,0.7-0.2,1.1-0.2
				c0.4,0,0.8,0.1,1.1,0.2c0.3,0.1,0.7,0.3,0.9,0.5c0.3,0.2,0.5,0.5,0.6,0.8c0.1,0.3,0.2,0.7,0.2,1c0,0.3-0.1,0.7-0.2,1
				c-0.2,0.3-0.4,0.6-0.6,0.8c-0.3,0.2-0.6,0.4-0.9,0.5C90.9,34.1,90.6,34.2,90.2,34.2z M90.2,32.7c0.2,0,0.4-0.1,0.5-0.3
				c0.2-0.2,0.2-0.5,0.2-0.8c0-0.3-0.1-0.6-0.2-0.8c-0.1-0.2-0.3-0.3-0.5-0.3c-0.2,0-0.4,0.1-0.6,0.3c-0.1,0.2-0.2,0.5-0.2,0.8
				c0,0.3,0.1,0.6,0.2,0.8C89.8,32.6,89.9,32.7,90.2,32.7z M97.1,40.9c-0.4,0-0.8-0.1-1.1-0.2c-0.4-0.1-0.7-0.3-0.9-0.5
				c-0.3-0.2-0.5-0.5-0.6-0.8c-0.1-0.3-0.2-0.7-0.2-1c0-0.4,0.1-0.7,0.2-1c0.1-0.3,0.3-0.6,0.6-0.8c0.3-0.2,0.6-0.4,0.9-0.5
				c0.3-0.1,0.7-0.2,1.1-0.2c0.4,0,0.8,0.1,1.1,0.2c0.4,0.1,0.7,0.3,0.9,0.5c0.3,0.2,0.5,0.5,0.6,0.8c0.1,0.3,0.2,0.6,0.2,1
				c0,0.4-0.1,0.7-0.2,1c-0.2,0.3-0.4,0.6-0.6,0.8c-0.3,0.2-0.6,0.4-0.9,0.5C97.9,40.8,97.5,40.9,97.1,40.9z M97.1,39.4
				c0.2,0,0.4-0.1,0.5-0.3c0.2-0.2,0.2-0.5,0.2-0.8c0-0.3-0.1-0.6-0.2-0.8c-0.1-0.2-0.3-0.3-0.5-0.3c-0.2,0-0.4,0.1-0.6,0.3
				c-0.1,0.2-0.2,0.5-0.2,0.8c0,0.3,0.1,0.6,0.2,0.8C96.7,39.3,96.9,39.4,97.1,39.4z M88.6,39.7l4.6-5.2l4.1-5.5l1.3,1.2l-4.4,5
				L90,40.9L88.6,39.7z"/>
		</g>
	</g>
	
		<polyline fill-rule="evenodd" clip-rule="evenodd" fill="none" stroke="#141C6B" stroke-width="1.12" stroke-linecap="round" stroke-linejoin="round" stroke-miterlimit="10" stroke-dasharray="2.25,2.25" points="
		175.9,241.9 208,160.1 247,160.1 	"/>
	<path fill-rule="evenodd" clip-rule="evenodd" fill="#141C6B" d="M176.7,239.9c1.2,0.5,1.7,1.8,1.3,2.9c-0.4,1.1-1.7,1.7-2.9,1.3
		s-1.7-1.8-1.3-2.9C174.3,240,175.6,239.4,176.7,239.9z"/>
	<g>
		<g>
			<path fill="#FAB242" d="M220.5,147.4c0,0.6-0.1,1.1-0.3,1.6c-0.2,0.5-0.5,0.9-0.9,1.3c-0.4,0.4-0.8,0.6-1.4,0.9
				c-0.5,0.2-1.1,0.3-1.7,0.3c-1.4,0-2.5-0.5-3.2-1.5c-0.8-1-1.1-2.4-1.1-4.2c0-0.9,0.1-1.8,0.3-2.6c0.2-0.7,0.5-1.4,0.9-1.9
				c0.4-0.5,0.9-0.9,1.5-1.2c0.6-0.3,1.2-0.4,2-0.4c1.4,0,2.6,0.5,3.7,1.6l-1.7,2c-0.6-0.6-1.3-0.9-2-0.9c-0.5,0-0.9,0.2-1.3,0.5
				c-0.3,0.3-0.5,0.8-0.5,1.4c0.4-0.4,1-0.6,1.8-0.6c0.6,0,1.1,0.1,1.6,0.3c0.5,0.2,0.9,0.5,1.3,0.8c0.4,0.3,0.6,0.7,0.9,1.2
				C220.3,146.4,220.5,146.9,220.5,147.4z M216.1,148.9c0.2,0,0.4,0,0.5-0.1c0.2-0.1,0.3-0.2,0.4-0.3c0.1-0.1,0.2-0.3,0.3-0.5
				c0.1-0.2,0.1-0.4,0.1-0.6c0-0.4-0.1-0.7-0.4-1c-0.3-0.3-0.6-0.4-1-0.4c-0.4,0-0.7,0.1-1,0.4c-0.3,0.3-0.4,0.6-0.4,1
				c0,0.2,0,0.4,0.1,0.6c0.1,0.2,0.2,0.3,0.3,0.5c0.1,0.1,0.3,0.2,0.4,0.3C215.8,148.9,215.9,148.9,216.1,148.9z"/>
			<polygon fill="#FAB242" points="225.9,144.7 221.5,144.7 221.5,141.9 230.8,141.9 225.2,153.4 221.7,153.4 			"/>
			<path fill="#FAB242" d="M234.1,144.8c-0.4,0-0.8-0.1-1.1-0.2c-0.3-0.1-0.7-0.3-0.9-0.5c-0.3-0.2-0.5-0.5-0.6-0.8
				c-0.1-0.3-0.2-0.6-0.2-1c0-0.4,0.1-0.7,0.2-1c0.1-0.3,0.3-0.6,0.6-0.8c0.3-0.2,0.6-0.4,0.9-0.5c0.4-0.1,0.7-0.2,1.1-0.2
				c0.4,0,0.8,0.1,1.1,0.2c0.3,0.1,0.7,0.3,0.9,0.5c0.3,0.2,0.5,0.5,0.6,0.8c0.2,0.3,0.2,0.7,0.2,1c0,0.4-0.1,0.7-0.2,1
				c-0.1,0.3-0.4,0.6-0.6,0.8c-0.3,0.2-0.6,0.4-0.9,0.5C234.9,144.7,234.5,144.8,234.1,144.8z M234.1,143.3c0.2,0,0.4-0.1,0.6-0.3
				c0.1-0.2,0.2-0.5,0.2-0.8s-0.1-0.6-0.2-0.8c-0.2-0.2-0.3-0.3-0.6-0.3c-0.2,0-0.4,0.1-0.5,0.3c-0.1,0.2-0.2,0.5-0.2,0.8
				s0.1,0.6,0.2,0.8C233.7,143.2,233.9,143.3,234.1,143.3z M241.1,151.5c-0.4,0-0.8-0.1-1.1-0.2c-0.3-0.1-0.7-0.3-0.9-0.5
				c-0.3-0.2-0.5-0.5-0.6-0.8c-0.1-0.3-0.2-0.7-0.2-1c0-0.3,0.1-0.7,0.2-1c0.1-0.3,0.3-0.6,0.6-0.8c0.3-0.2,0.6-0.4,0.9-0.5
				c0.4-0.1,0.7-0.2,1.1-0.2c0.4,0,0.8,0.1,1.1,0.2c0.3,0.1,0.7,0.3,0.9,0.5c0.3,0.2,0.5,0.5,0.6,0.8c0.1,0.3,0.2,0.7,0.2,1
				c0,0.4-0.1,0.7-0.2,1c-0.1,0.3-0.4,0.6-0.6,0.8c-0.3,0.2-0.6,0.4-0.9,0.5C241.9,151.4,241.5,151.5,241.1,151.5z M241.1,150
				c0.2,0,0.4-0.1,0.6-0.3c0.1-0.2,0.2-0.5,0.2-0.8c0-0.3-0.1-0.6-0.2-0.8c-0.2-0.2-0.3-0.3-0.6-0.3c-0.2,0-0.4,0.1-0.5,0.3
				c-0.2,0.2-0.2,0.5-0.2,0.8c0,0.3,0.1,0.6,0.2,0.8C240.7,149.9,240.9,150,241.1,150z M232.6,150.3l4.6-5.2l4.1-5.5l1.3,1.2l-4.4,5
				l-4.3,5.6L232.6,150.3z"/>
		</g>
	</g>
	<g>
		<path fill-rule="evenodd" clip-rule="evenodd" fill="#FC4730" d="M231.5,62.1c-0.2-0.5,0-1.2,0.4-1.7c0.2-0.2,0.4-0.4,0.7-0.5
			c0.1-0.1,0.1-0.2,0.2-0.3c0.4-0.5,0.9-0.7,1.4-0.7c0.3-0.3,0.8-0.5,1.3-0.5c0.4-0.1,0.8-0.1,1.2,0c0.3-0.1,0.7-0.2,1-0.1
			c0.4,0,0.7,0.2,1,0.4c0.4-0.2,0.9-0.2,1.5,0c0.4,0.2,0.8,0.5,1,0.9c0.3,0.1,0.7,0.3,1,0.5c0.4,0.4,0.6,0.9,0.6,1.4
			c0.5,0.3,0.8,0.8,0.8,1.3c0.1,0.2,0.2,0.5,0.3,0.7c0.1,0.5,0,0.9-0.2,1.3c0,0.8-0.4,1.5-1.1,1.6c0,0-0.1,0-0.1,0
			c0,0.2,0,0.3,0,0.5c-0.2,0.9-1.3,1.5-2.5,1.3c-0.1,0-0.1,0-0.2,0l0,0c-0.2,0.3-0.5,0.1-0.5,0.1v1c0,0.1,0,0.2-0.1,0.3l-0.6,0.6
			c-0.1,0.1-0.4,0.1-0.4-0.1v-1.2c0-1.1-0.4-1.6-0.7-1.8c-0.4-0.3-0.4-0.8-0.4-1c-0.3,0.2-0.9,0.3-1.4,0.2c-2.1-0.2-2.2-1.6-2.3-1.9
			c-0.6,0.1-1.2-0.2-1.4-0.7c0-0.1-0.1-0.1-0.1-0.2c-0.2-0.1-0.4-0.3-0.5-0.5C231.4,62.7,231.4,62.4,231.5,62.1z"/>
	</g>
	
		<polyline fill-rule="evenodd" clip-rule="evenodd" fill="none" stroke="#141C6B" stroke-width="1.12" stroke-linecap="round" stroke-linejoin="round" stroke-miterlimit="10" stroke-dasharray="2.25,2.25" points="
		150,116.9 187.3,76 242.4,76 	"/>
	<path fill-rule="evenodd" clip-rule="evenodd" fill="#141C6B" d="M151.5,115.2c0.9,0.8,1,2.3,0.1,3.2s-2.3,1-3.2,0.1
		s-1-2.3-0.1-3.2S150.6,114.4,151.5,115.2z"/>
	<g>
		<g>
			<polygon fill="#FC4730" points="196,61.6 191.5,61.6 191.5,58.7 200.8,58.7 195.2,70.3 191.7,70.3 			"/>
			<path fill="#FC4730" d="M210,63.5c0,0.7-0.1,1.4-0.3,2c-0.2,0.6-0.5,1.1-0.9,1.6c-0.4,0.4-0.8,0.8-1.4,1
				c-0.5,0.2-1.1,0.4-1.7,0.4c-0.6,0-1.2-0.1-1.7-0.4c-0.5-0.3-1-0.6-1.4-1c-0.4-0.4-0.7-1-0.9-1.6c-0.2-0.6-0.3-1.3-0.3-2
				c0-0.7,0.1-1.4,0.3-2c0.2-0.6,0.5-1.1,0.9-1.6c0.4-0.4,0.8-0.8,1.4-1c0.5-0.2,1.1-0.4,1.7-0.4c0.6,0,1.2,0.1,1.7,0.4
				c0.5,0.3,1,0.6,1.4,1c0.4,0.4,0.7,1,0.9,1.6C209.9,62.1,210,62.8,210,63.5z M206.9,63.5c0-0.6-0.1-1.1-0.3-1.5
				c-0.2-0.4-0.5-0.6-0.9-0.6c-0.4,0-0.7,0.2-0.9,0.6s-0.3,0.9-0.3,1.5c0,0.6,0.1,1.1,0.3,1.5s0.5,0.6,0.9,0.6
				c0.3,0,0.6-0.2,0.9-0.6C206.8,64.6,206.9,64.1,206.9,63.5z"/>
			<path fill="#FC4730" d="M214.1,61.7c-0.4,0-0.8-0.1-1.1-0.2c-0.4-0.1-0.7-0.3-0.9-0.5c-0.3-0.2-0.5-0.5-0.6-0.8
				c-0.1-0.3-0.2-0.6-0.2-1c0-0.4,0.1-0.7,0.2-1c0.1-0.3,0.3-0.6,0.6-0.8c0.3-0.2,0.6-0.4,0.9-0.5c0.3-0.1,0.7-0.2,1.1-0.2
				c0.4,0,0.8,0.1,1.1,0.2c0.4,0.1,0.7,0.3,0.9,0.5c0.3,0.2,0.5,0.5,0.6,0.8c0.2,0.3,0.2,0.7,0.2,1c0,0.4-0.1,0.7-0.2,1
				c-0.1,0.3-0.3,0.6-0.6,0.8c-0.3,0.2-0.6,0.4-0.9,0.5C214.9,61.6,214.5,61.7,214.1,61.7z M214.1,60.2c0.2,0,0.4-0.1,0.5-0.3
				c0.1-0.2,0.2-0.5,0.2-0.8s-0.1-0.6-0.2-0.8c-0.1-0.2-0.3-0.3-0.5-0.3c-0.2,0-0.4,0.1-0.6,0.3c-0.1,0.2-0.2,0.5-0.2,0.8
				s0.1,0.6,0.2,0.8C213.7,60.1,213.9,60.2,214.1,60.2z M221.1,68.4c-0.4,0-0.8-0.1-1.1-0.2c-0.3-0.1-0.7-0.3-0.9-0.5
				c-0.3-0.2-0.5-0.5-0.6-0.8c-0.1-0.3-0.2-0.7-0.2-1c0-0.3,0.1-0.7,0.2-1c0.1-0.3,0.3-0.6,0.6-0.8c0.3-0.2,0.6-0.4,0.9-0.5
				c0.4-0.1,0.7-0.2,1.1-0.2s0.8,0.1,1.1,0.2c0.4,0.1,0.7,0.3,0.9,0.5c0.3,0.2,0.5,0.5,0.6,0.8c0.2,0.3,0.2,0.7,0.2,1
				c0,0.4-0.1,0.7-0.2,1c-0.1,0.3-0.4,0.6-0.6,0.8c-0.3,0.2-0.6,0.4-0.9,0.5C221.9,68.3,221.5,68.4,221.1,68.4z M221.1,66.9
				c0.2,0,0.4-0.1,0.6-0.3c0.1-0.2,0.2-0.5,0.2-0.8c0-0.3-0.1-0.6-0.2-0.8c-0.2-0.2-0.3-0.3-0.6-0.3c-0.2,0-0.4,0.1-0.5,0.3
				c-0.1,0.2-0.2,0.5-0.2,0.8c0,0.3,0.1,0.6,0.2,0.8C220.7,66.8,220.9,66.9,221.1,66.9z M212.6,67.2l4.6-5.2l4.1-5.5l1.3,1.2l-4.4,5
				l-4.3,5.6L212.6,67.2z"/>
		</g>
	</g>
</g>
</svg>
