<?xml version="1.0" encoding="utf-8"?>
<!-- Generator: Adobe Illustrator 13.0.0, SVG Export Plug-In . SVG Version: 6.00 Build 14948)  -->
<!DOCTYPE svg PUBLIC "-//W3C//DTD SVG 1.1//EN" "http://www.w3.org/Graphics/SVG/1.1/DTD/svg11.dtd">
<svg version="1.1" id="Layer_1" xmlns="http://www.w3.org/2000/svg" xmlns:xlink="http://www.w3.org/1999/xlink" x="0px" y="0px"
	 width="380px" height="200px" viewBox="0 0 380 200" enable-background="new 0 0 380 200" xml:space="preserve">
<rect fill-rule="evenodd" clip-rule="evenodd" fill="none" width="380" height="200"/>
<g>
	<path fill="#E8EDF5" d="M286.733,86.373C272.026,31.96,213.601,27.88,213.601,27.88c-36.654-1.667-64.401-2.253-92.868,16.346
		C111.346,50.36,102.52,58.133,97,68.16c-5,9.053-7.013,19.426-7.547,29.546c-0.414,7.828,0.067,15.84,3.174,22.667
		c2.879,6.318,7.813,11.213,13.04,15.506c12.574,10.334,27.214,17.813,42.507,23.413c18.04,6.613,37.36,10.72,57.013,9.054
		c19.653-1.667,39.707-9.479,54.641-24.08C274.761,129.68,292.026,105.934,286.733,86.373z"/>
	<path fill="#3B3DB0" d="M91.707,31.346c-5.853-0.76-11.813,4.08-12.28,9.96c-0.466,5.88,4.667,11.6,10.561,11.76
		c-1.493,2.174-3.04,4.44-3.427,7.053c-0.507,3.547,1.293,7.121,3.88,9.601c2.906,2.8,7.027,4.506,11.027,3.92
		c3.986-0.574,7.653-3.72,8.253-7.72c4.36,4.56,10.92,6.88,17.173,6.107c3.12-0.4,6.294-1.627,8.2-4.134
		c1.894-2.506,2.067-6.44-0.213-8.6c3.973,1.253,8.52,0.813,11.986-1.493s5.667-6.533,5.2-10.667
		c-0.466-4.133-3.76-7.893-7.867-8.547c3.627-1.266,5.84-5.453,5.253-9.253c-0.573-3.813-3.64-7-7.293-8.187
		c-3.667-1.2-7.787-0.546-11.16,1.293c-1.893-5.374-6.107-10.293-11.693-11.467c-5.586-1.173-12.173,2.613-12.667,8.307
		c-3.521-0.986-7.48-0.213-10.373,2.027c-2.88,2.24-4.627,5.88-4.561,9.533V31.346z"/>
	<path fill="#FC452E" d="M115.133,56c-0.173,0-8.854-4.2-11.92-11.506l-0.16-0.387c-0.733-1.693-1.813-4.253-1.293-7.24
		c0.4-2.2,2.973-4.293,5.36-4.347c0.027,0,0.067,0,0.094,0c2.6-0.014,5.027,2.48,6.493,5.013c0.387-1.12,0.96-2.093,1.667-2.879
		c1.827-2.014,4.734-2.734,6.92-1.693c2.12,1.013,3.773,3.479,3.546,6.586C125.133,48.867,115.253,56,115.133,56z"/>
	<path fill="#FFFFFF" d="M124.574,54.133c-0.014,0-0.027,0-0.027,0c-0.253-0.014-0.467-0.2-0.507-0.454l-1.626-9.546l-2.014,8.2
		c-0.054,0.24-0.267,0.373-0.533,0.413c-0.253-0.014-0.467-0.187-0.521-0.44l-1.307-6.773l-1.533,3.414
		c-0.093,0.187-0.28,0.307-0.479,0.32l-3.56,0.066h-0.014c-0.293,0-0.533-0.24-0.533-0.533c-0.013-0.307,0.227-0.547,0.52-0.547
		l3.227-0.066l2.093-4.64c0.094-0.213,0.32-0.333,0.561-0.32c0.227,0.041,0.413,0.213,0.453,0.44l1.173,6.013l2.026-8.333
		c0.066-0.239,0.307-0.413,0.547-0.413c0.253,0.013,0.467,0.2,0.52,0.453l1.667,9.76l0.84-3.013
		c0.066-0.227,0.266-0.387,0.506-0.387l4.173-0.08h0.014c0.293,0,0.533,0.227,0.533,0.533c0.013,0.294-0.227,0.533-0.52,0.547
		l-3.773,0.066l-1.387,4.92C125.027,53.973,124.813,54.133,124.574,54.133z"/>
	<path fill="#F7A63B" d="M105.187,38.987c-0.854,2.267-3.387,3.413-5.654,2.573c-2.266-0.867-3.414-3.387-2.56-5.653
		c0.854-2.28,3.387-3.427,5.654-2.573C104.893,34.187,106.04,36.72,105.187,38.987z"/>
	<path fill="#FFFFFF" d="M99.227,38.093c0.267,0.36,0.547,0.733,0.813,1.106c0.187,0.253,0.547,0.28,0.761,0.054
		c0.827-0.88,1.613-1.76,2.387-2.68c0.399-0.48-0.32-1.121-0.72-0.654c-0.773,0.92-1.574,1.813-2.387,2.68
		c0.253,0.027,0.506,0.04,0.76,0.066c-0.266-0.373-0.533-0.747-0.8-1.106C99.667,37.053,98.854,37.586,99.227,38.093z"/>
	<path fill="#3B3DB0" d="M122.854,79.213c-0.333-2.44-3.64-4.507-6.427-1.014c-0.76,0.96-0.813,2.4-0.453,3.574
		c0.587,1.906,2.934,3.066,4.8,2.36C122.64,83.44,123.107,81.187,122.854,79.213z"/>
	<path fill="#3B3DB0" d="M137.654,86.187c-0.627-1.147-3.8-3-5.4,1.227c-0.333,0.893,0.573,2.626,1.453,2.933
		c1.106,0.387,2.333,0.228,3.174-0.6C137.8,88.827,138.267,87.333,137.654,86.187z"/>
	<path fill="#FC452E" d="M162.467,62.947c-4.987-3.787-3.893-11.533-2.414-15.894c1.48-4.347,6.333-8.84,10.787-7.693
		c1.107-4.773,7.267-5.04,12.147-5.479c4.88-0.44,11.639,1.879,15.573,4.786c9.921,7.36,11.293,16.427,13,30.294
		c0.627,5.026,5.44,10.173,10.44,10.946c5.48,0.867,9.587,0.92,12.84,3.773c3.293,2.88,5.239,5.041,4.84,9.4
		c-0.214,2.293-0.88,4.973,0.72,6.653c1.188,1.241,3.135,1.307,4.721,1.974c3.572,1.493,4.906,6.706,2.48,9.733
		c-1.721,2.16-5.107,4.066-4.081,6.639c0.974,2.455,5.28,2.387,5.801,4.961c0.466,2.28-2.414,3.547-4.173,5.039
		c-2.374,2-2.975,5.908-1.054,8.348c1.919,2.426,6.187,2.586,8.066,0.12c-0.187,4.626-3.427,8.987-7.801,10.479
		c-4.386,1.508-9.613,0.053-12.599-3.479c-6.068,6.106-16.975,4.32-23.348-1.48c-6.373-5.786-9.359-14.333-12.105-22.493
		c-3.374-10.066-22.868-6.627-26.241-16.68c-1.293-3.854,3.693-6.96-4.093-13.28c-10.093-8.187,4.2-22.28-2.2-30.16L162.467,62.947z
		"/>
	<path fill="#C22912" d="M168.586,62.293c3.027,7.227,1.521,15.507-0.88,22.96c-0.867,2.68-1.826,5.613-0.76,8.213
		c1.227,3,4.667,4.346,7.8,5.146c3.134,0.8,6.587,1.506,8.653,4c2.174,2.626,2.106,6.374,2.387,9.773
		c0.36,4.507,1.547,9.026,4,12.84c2.453,3.813,6.267,6.853,10.679,7.827c3.227,0.72,0.761,7,3.975,7.72
		c3.76,0.84,8.653,5.919,12.547,5.707c8.213-0.468,15.746-12.106,8.439-25.106c-2-3.561-8.4-8.707-10.267-12.32
		c-2.187-4.214-1.16-9.4-3.2-13.694c-2.054-4.333-3.947-5.854-6.84-7.76c-3.733-2.454-1.987-7.64-2.334-12.094
		c-0.293-3.733-3.387-4.093-5.013-7.467c-0.867-1.786-2.081-3.813-4.066-3.933c-2.574-0.16-3.72,0-5.827-1.521
		c-0.507-0.36-0.814-0.933-1.094-1.493c-1.267-2.387-2.747-4.88-5.187-6.066c-2.773-1.373-6.08-0.72-9.08,0.08
		c-3.133,0.84-6.44,1.959-8.347,4.586L168.586,62.293z"/>
	<path fill="#121769" d="M181.92,97.32c-0.947-1.174-3.16-1.641-4.667-1.84c-2.173-0.307-18.733,14.293-20.613,17.626l0.213,1.054
		c3.093,7,8.12,11.347,8.28,11.427c0.6,0.307,9.48-5.867,13.293-8.467c1.08-0.733,2.187-1.507,2.92-2.586
		c1.08-1.601,1.187-3.667,1.267-5.601c0.08-2.32,0.16-4.641,0.253-6.96C182.92,100.36,182.934,98.586,181.92,97.32z"/>
	<path fill="#121769" d="M167.84,154.48c-1.84,8.106-3.667,16.227-5.506,24.333c-0.107,0.479-0.214,1.014,0.026,1.44
		c0.187,0.333,0.533,0.52,0.854,0.692c11.707,6.147,26.267,6.52,38.252,0.987c0.334-0.147,0.667-0.308,0.867-0.613
		c0.214-0.32,0.214-0.747,0.201-1.134c-0.16-7.613-0.934-15.199-2.308-22.68c-0.094-0.507-0.214-1.054-0.601-1.387
		c-0.318-0.253-0.759-0.307-1.16-0.359c-10.306-1.214-20.746-1.44-31.093-0.667L167.84,154.48z"/>
	<path fill="#3B3BB0" d="M200.547,106.254c-1.239-4.653-2.747-10.134-4.214-10.6C190,93.6,180.093,93.733,177.4,94.72l-1.12,1.053
		c-2.493,3.8-3.959,5.52-6.986,9.48c-3.04,3.973-5.106,8.746-2.561,13.039c0.96,1.613,2.587,2.894,2.947,4.72
		c0.107,0.521-4.973,36.094-4.506,37.12c0.573,1.28,24.959,5.934,36.147,4.175C203.267,145.106,205.507,124.906,200.547,106.254z"/>
	<path fill="#3B3DB0" d="M214.359,161.534c-0.347-0.455-1.946-0.574-3.079-0.574c-11.573-0.039-20.947,1.188-31.027,4.681
		c-0.626,0.212,3.453,22.599,4.213,23.159c0.707,0.521,1.973,0.48,2.84,0.427c7.614-0.507,15.2-1.52,22.681-3.013
		c1.213-0.254,5.106-0.894,5.853-1.867C216.466,183.547,214.974,162.347,214.359,161.534z"/>
	<path fill="#FAC2BF" d="M197.32,123.56c0.827,6.881,2.173,15.453,2.8,22.361c0.094,1.092-2.854,14.919-6.973,24.732
		c2.52,0.334,6.387,0.293,6.72-0.453c2.347-5.08,5.039-8.36,7.387-13.454c0.853-1.84,1.706-3.692,2.146-5.68
		c0.453-1.96,0.534-4,0.521-6.013c-0.015-9.014-2.16-21.707-2.908-24.201c-3.547,0.188-6.773-0.639-9.586,1.507L197.32,123.56z"/>
	<path fill="#FAC2BF" d="M158.387,114.347c-5.613,5.36-12.574,11.56-14.84,18.974c-0.414,1.32-0.613,2.987,0.44,3.894
		c1.12,0.986,2.867,0.412,4.187-0.268c6.147-3.106,11.68-8.254,15.893-13.692L158.387,114.347z"/>
	<path fill="#FAC2BF" d="M143.32,136.293c-0.667-15.239,2.667-29.68,6.787-42.56c1.866-0.026,3.52,0.4,5.387,0.374
		c-1.374,11.013-2.107,17.693-3.48,28.707c-0.2,1.613-1.04,3.387-1.693,4.894c-1.467,3.426-2.561,6.573-5.8,8.426L143.32,136.293z"
		/>
	<path fill="#FAC2BF" d="M186.533,82.547c-0.293-0.307-6.707,1-9.187,0.947l0.041,0.546c0.56,5.294,0.36,12.547,0.667,12.681
		c0.214,0.106,1.56,0.934,1.8,1c3.707,1.173,5.52-0.533,7.186-2.2c0.254-0.253,0.228-0.52,0.4-0.84
		C187.56,94.44,186.787,82.787,186.533,82.547z"/>
	<path fill="#FAC2BF" d="M203.613,75.64c1.601-8.601-4.187-6.8-4.493-7c-5.214-3.333-10.88-10.787-16-14.28
		c-5.72-3.907-11.506-3.387-17.653-0.2l-1.56,0.027c-1.573,5.106-2.894,15-3.026,20.346c-0.147,5.36,0.2,5.027,3.693,9.094
		c1.799,2.093,6.213,5.719,8.186,6.386c3.586,1.2,16.707-1.84,21.96-7.093c0.307-0.293,0.428,0.014,1.707-0.2
		C203.026,81.627,203.52,76.12,203.613,75.64z"/>
	<path fill="#FC452E" d="M163.28,48.574c-0.413,4.493-0.093,7.399,2.987,10.186c0.667,0.6,2.2,1.894,3.799,1.894
		c1.333,0,2.587-1.894,2.6-3.614c0.013-1.333,0.267-2.653,0.093-3.973c1.934,4.121,4.787,8.88,7.894,11.48
		c1.346,1.133,4.133,2.053,5.879,1.893c1.76-0.146,1.6-1.693,1.52-4.453c1.787,4.96,6.374,9.76,10.667,8.947
		c0.906-0.76,0.854-3.747,0.947-4.934c0.853-10.04-0.227-17.173-8.334-20.92c-7.32-3.387-13.56-4.854-21.066-1.893
		c-1.333,0.52-6.64,2.879-6.4,4.293L163.28,48.574z"/>
	<path fill="#F5BAB8" d="M197.653,73.84c-0.267,0.92-0.506,3.76,0,3.893c0.426,0.121,1.453-2.493,1.721-3.413
		C199.68,73.213,197.96,72.733,197.653,73.84z"/>
	<path fill="#303030" d="M181.16,71.267c0.08,1.053-0.027,1.986-0.24,3.013c-0.36,1.681-2.173,1.56-2.36,0.24
		c-0.146-1.053-0.134-2.106-0.2-3.16C178.24,69.547,181.053,69.467,181.16,71.267z"/>
	<path fill="#303030" d="M168.373,70.613c0.053,0.947-0.027,1.773-0.227,2.693c-0.32,1.506-1.933,1.387-2.093,0.213
		c-0.146-0.934-0.133-1.88-0.187-2.827C165.76,69.093,168.267,69.013,168.373,70.613z"/>
	<path fill="#F5BAB8" d="M188.8,76.6c-0.041-0.507-0.267-1.12-1.014-1.24c-1.853-0.307-4.36-0.547-6.093,0.387
		c-0.707,0.373-1.347,1.093-1.014,1.96c0.347,0.88,1.494,1.08,2.307,1.28c1.546,0.373,3.96,0.466,5.146-0.88
		C188.547,77.627,188.907,77.227,188.8,76.6z"/>
	<path fill="#F5BAB8" d="M159.8,76.414c-0.134-0.48,0.04-1.027,0.626-1.107c1.48-0.213,3.467-0.346,4.867,0.48
		c0.573,0.347,1.106,0.973,0.867,1.68c-0.253,0.733-1.16,0.867-1.8,1.013c-1.227,0.28-3.333,0.427-4.32-0.747
		C159.693,77.333,159.627,76.827,159.8,76.414z"/>
	<path fill="#C22912" d="M183.36,67.893c-1.627-0.733-3.467-1.106-5.413-1.133c-0.414,0-1.307-1.373-0.653-1.307l1,0.014
		c2.173,0.173,3.693,0.68,5.546,1.906C185.04,68.146,184.08,68.213,183.36,67.893z"/>
	<path fill="#C22912" d="M162.4,67.893c1.64-0.733,3.467-1.106,5.413-1.133c0.414,0,1.307-1.373,0.667-1.307l-1.013,0.014
		c-2.173,0.173-3.68,0.68-5.547,1.906C160.72,68.146,161.693,68.213,162.4,67.893z"/>
	<path fill="#DB9696" d="M173.506,79.227c0,0-1.186,0.2-2.066,0.107c-0.866-0.107-1.693-0.414-1.693-0.414
		S171.654,81.547,173.506,79.227z"/>
	<path fill="#303030" d="M177.627,82.494c-2.854,2.239-6.667,2.173-9.4-0.227c-0.747-0.654,0.094-1.387,0.84-0.72
		c2.227,1.947,5.28,1.546,7.6-0.28C177.467,80.64,178.414,81.88,177.627,82.494z"/>
	<path fill="#121769" d="M182.08,167.239c0,0,12.427,10.84,17.106,11.975c0,0,2.506-0.453,13.801-16.081
		c0,0-7.867,15.054-13.453,17.907C199.534,181.04,189.6,177.96,182.08,167.239z"/>
	<path fill="#FAC2BF" d="M193.707,169.173c-1.04,2.254-1.294,5.921-1.867,8.334c-0.094,0.373-0.173,0.76-0.147,1.146
		c0.041,0.44,0.214,0.854,0.428,1.24c1.521,2.92,2.227,3.732,4.56,6.053c0.48,0.48,1.094-0.213,1.601,0.227
		c0.906,0.801,3.279,0,3.279-1.199c0-0.986,0.588-0.947,0.254-1.88c-0.439-1.214-1.027-3.134-1.773-4.188
		c-0.173-0.253-0.36-0.507-0.399-0.813c-0.054-0.348,0.105-0.694,0.239-1.015c0.84-1.932,1.307-4.105,0.866-6.158
		c-0.159-0.707-0.438-1.44-1.039-1.867c-0.468-0.347-1.081-0.44-1.653-0.48c-1.387-0.107-2.773,0.014-4.12,0.373L193.707,169.173z"
		/>
	<path fill="#121769" d="M181.08,167.987c-3.307-12.374-3.133-25.28-1.12-37.854c1.799-11.266,4.786-23.573,14.414-30.839
		c0.865-0.653,0.013-2.147-0.867-1.48c-9.667,7.307-13.067,19.241-15,30.627c-2.239,13.267-2.573,26.919,0.92,40
		C179.707,169.493,181.36,169.054,181.08,167.987z"/>
	<path fill="#121769" d="M215.16,162.906c0.12-7.026-0.507-14-1.44-20.946c-0.506-3.787-1.106-7.547-1.72-11.319
		c-0.534-3.214-0.786-6.628-1.773-9.747c-0.707-2.253-1.773-4.413-2.72-6.573c-1.214-2.761-1.773-5.32-2.32-8.267
		c-0.906-4.975-3.174-7.84-8.334-8.187c-1.106-0.066-1.092,1.64,0,1.72c7.48,0.494,6.135,7.933,8.135,13.16
		c1.56,4.094,3.626,7.801,4.333,12.175c2.066,12.572,4.347,25.186,4.133,37.985C213.427,164,215.147,164,215.16,162.906z"/>
	<path fill="#121769" d="M204.707,102.399c-1-1.933-2.44-3.28-4.188-4.573c-1.759-1.307-3.96-2.427-5.866-1.36
		c-1.399,0.8-2.267,2.333-2.773,3.879c-1.027,3.134-0.867,6.534-0.587,9.827c0.521,6.293,1.44,12.547,2.36,18.787
		c0,0,4.066,0.213,10.561-0.586c2.373-0.295,5.813-1.227,7.865-2.44C211.16,118.106,208.347,109.399,204.707,102.399z"/>
	<path fill="#FAC2BF" d="M152.213,96.813c1.493-0.28,5.68-1,6.626-2.186c2.44-3.053,1.107-8.067-2.08-8.561
		c1.72-3.053,2.973-5.4,2.201-5.867c-0.654-0.387-1.587-0.053-2.08,0.533c-3.054,3.627-4.987,5.867-6.854,11.16
		c-0.414,1.173-0.773,2.547-0.093,3.601c0.546,0.84,1.6,1.186,2.573,1.467L152.213,96.813z"/>
	<path fill="#3B3DB0" d="M255.906,32.733c-3.667-3.173-9.399-3.667-13.547-1.159c-4.159,2.493-6.399,7.799-5.293,12.52
		c-4.466,0.307-8.707,3.106-10.56,7.174c-1.854,4.053-1.133,9.213,1.92,12.479c3.054,3.267,8.293,4.307,12.28,2.293
		c0.773,3.454,3.28,6.454,6.532,7.841c3.254,1.387,7.16,1.12,10.188-0.693c2.426,2.586,2.76,2.973,5.881,4.653
		c3.119,1.693,6.893,2.44,10.266,1.32c4.32-1.44,9.547-3.987,9.014-8.52c5.08,1.987,11.373,0.706,15-3.36s4.093-10.747,0.76-15.066
		c-2.214-2.867-5.667-4.467-9.014-5.84c5.573-4.693,6.054-14.24,0.96-19.466c-5.093-5.213-14.667-4.987-19.493,0.48
		c-2.253-2.586-6.066-3.72-9.373-2.787c-3.307,0.947-5.961,3.894-6.521,7.293L255.906,32.733z"/>
	<path fill="#3B3DB0" d="M253.48,84.12c-0.333-2.453-3.641-4.506-6.427-1.013c-0.761,0.959-0.814,2.399-0.453,3.573
		c0.586,1.907,2.934,3.067,4.799,2.36C253.267,88.346,253.733,86.093,253.48,84.12z"/>
	<path fill="#FFFFFF" d="M278.72,40.88c-8.572-1.067-18.92-0.24-19.2,0.08c-0.212,0.239,0.067,3.333-0.013,3.893
		c-0.026,0.173,12.747-0.48,19.279-0.053L278.72,40.88z"/>
	<path fill="#FFFFFF" d="M278.894,50.293c-8.561-1.067-18.92-0.254-19.201,0.08c-0.212,0.24,0.081,3.333,0,3.894
		c-0.025,0.173,12.734-0.48,19.268-0.054L278.894,50.293z"/>
	<path fill="#FFFFFF" d="M279.387,59.346c-8.573-1.066-18.934-0.253-19.214,0.067c-0.213,0.253,0.081,3.346,0,3.907
		c-0.025,0.173,12.733-0.48,19.268-0.053L279.387,59.346z"/>
	<path fill="#FC452E" d="M257.293,44.253c-0.692,1.866-2.759,2.8-4.626,2.106c-1.854-0.706-2.787-2.773-2.094-4.627
		c0.693-1.866,2.773-2.799,4.627-2.106C257.054,40.333,258,42.4,257.293,44.253z"/>
	<path fill="#FFFFFF" d="M252.413,43.52c0.228,0.307,0.454,0.6,0.666,0.906c0.16,0.214,0.44,0.24,0.628,0.041
		c0.667-0.707,1.319-1.44,1.946-2.187c0.334-0.387-0.254-0.92-0.587-0.533c-0.626,0.747-1.28,1.48-1.946,2.2
		c0.213,0.014,0.414,0.026,0.626,0.04c-0.227-0.307-0.438-0.6-0.667-0.907C252.773,42.68,252.12,43.107,252.413,43.52z"/>
	<path fill="#F7A63B" d="M257.293,53.346c-0.692,1.854-2.759,2.8-4.626,2.094c-1.854-0.693-2.787-2.76-2.094-4.627
		c0.693-1.853,2.773-2.786,4.627-2.093S258,51.494,257.293,53.346z"/>
	<path fill="#FFFFFF" d="M252.413,52.613c0.228,0.293,0.454,0.6,0.666,0.893c0.16,0.214,0.44,0.24,0.628,0.054
		c0.667-0.707,1.319-1.44,1.946-2.2c0.334-0.387-0.254-0.92-0.587-0.52c-0.626,0.747-1.28,1.48-1.946,2.187
		c0.213,0.013,0.414,0.04,0.626,0.053c-0.227-0.307-0.438-0.6-0.667-0.907C252.773,51.76,252.12,52.2,252.413,52.613z"/>
	<path fill="#80D1E0" d="M257.293,62.52c-0.692,1.853-2.759,2.787-4.626,2.093c-1.854-0.693-2.787-2.773-2.094-4.626
		c0.693-1.854,2.773-2.8,4.627-2.094C257.054,58.586,258,60.654,257.293,62.52z"/>
	<path fill="#FFFFFF" d="M252.413,61.773c0.228,0.307,0.454,0.613,0.666,0.906c0.16,0.213,0.44,0.24,0.628,0.053
		c0.667-0.72,1.319-1.453,1.946-2.2c0.334-0.387-0.254-0.92-0.587-0.533c-0.626,0.76-1.28,1.48-1.946,2.2
		c0.213,0.014,0.414,0.027,0.626,0.041c-0.227-0.293-0.438-0.6-0.667-0.894C252.773,60.934,252.12,61.373,252.413,61.773z"/>
</g>
</svg>
