<?xml version="1.0" encoding="utf-8"?>
<!-- Generator: Adobe Illustrator 13.0.0, SVG Export Plug-In . SVG Version: 6.00 Build 14948)  -->
<!DOCTYPE svg PUBLIC "-//W3C//DTD SVG 1.1//EN" "http://www.w3.org/Graphics/SVG/1.1/DTD/svg11.dtd">
<svg version="1.1" id="Layer_1" xmlns="http://www.w3.org/2000/svg" xmlns:xlink="http://www.w3.org/1999/xlink" x="0px" y="0px"
	 width="380px" height="200px" viewBox="0 0 380 200" enable-background="new 0 0 380 200" xml:space="preserve">
<rect fill-rule="evenodd" clip-rule="evenodd" fill="none" width="380" height="200"/>
<g>
	<path fill="#E8EDF5" d="M96.613,105.626c13.987,51.733,69.547,55.613,69.547,55.613c34.84,1.574,61.214,2.147,88.28-15.547
		c8.934-5.825,17.306-13.227,22.56-22.746c4.761-8.613,6.667-18.48,7.173-28.093c0.4-7.44-0.053-15.053-3.013-21.56
		c-2.733-6-7.427-10.653-12.387-14.733c-11.96-9.827-25.88-16.933-40.414-22.267c-17.159-6.28-35.532-10.187-54.213-8.6
		c-18.68,1.586-37.747,9.013-51.933,22.893C108.013,64.453,91.586,87.04,96.613,105.626z"/>
	<path fill="#E57A3B" d="M157.093,79.733c0.014,5.561,0.014,11.107,0.026,16.667c3.96,1.053,9.174,4.4,13.201,3.627
		c0.386-0.066,0.799-0.173,1.026-0.494c0.214-0.307,2.787-1.414,2.667-1.773c-0.453-1.36-3.359-2.28-3.68-3.933
		c-0.8-4.173-1.253-8.88-1.68-12.106c-0.054-0.294-0.094-0.601-0.294-0.813c-0.187-0.187-0.44-0.253-0.68-0.32
		c-2.893-0.773-5.867-1.213-8.853-1.319c-0.667-0.027-1.56,0.186-1.547,0.853L157.093,79.733z"/>
	<path fill="#3B3DB0" d="M137.453,106.427c3.28-2.813,7.574-5.734,10.854-8.546c0.76-0.667,1.547-1.333,2.494-1.707
		c2.053-0.787,4.693-0.76,6.453,0.547c7.106,5.267,12.187,3.04,17.307,1.146c0.68-0.253,0.16-2.56,0.88-2.467
		c0.6,0.08,1.12,0.413,1.613,0.72c2.507,1.601,4.547,2.761,7.04,4.347c0.534,0.333,1.773,3.439,2.067,4.014
		c1.08,2.173,1.307,3.039,1.52,9.319c0.52,15.254-0.146,20.348,1.293,35.521c0.294,2.973,0.453,10.399,1.96,12.973
		c1.32,2.267,2.106,1.733,1.306,4.227c-0.759,2.308-3.292,6.521-5.706,6.827c-6.133,0.813-8.947,1.307-16.426,0.653
		c-5.333-0.453-10.107-4.293-15.453-4.547c-0.654-0.04-1.32-0.094-1.854-0.453c-0.48-0.32-0.773-0.827-1.054-1.333
		c-7.76-14.026-13.52-27.44-14.413-43.44c-0.333-5.867-0.16-11.867,1.747-17.427L137.453,106.427z"/>
	<path fill="#E57A3B" d="M146.32,167.894c7.186,4.267,14.4,7.2,21.586,11.48c0.72,0.426,1.453,0.865,2.04,1.466
		c0.52,0.534,1.399,2.239,1.946,2.761c1.041,0.986,4.827,1.919,7.654,1.359c0.626-0.133,1.307-0.28,1.747-0.76
		c0.347-0.36,2.52-2.053,2.64-2.547c0.413-1.627,1.707-0.666,2.12-2.279c-0.2-1.534-7.187-5.534-10-6.16
		c-0.64-0.135-1.307-0.12-1.946-0.24c-0.867-0.16-1.681-0.547-2.467-0.947c-6.054-3.039-11.627-7.014-16.48-11.733
		c-0.374-0.359-0.787-0.759-1.307-0.786c-0.374-0.026-0.734,0.146-1.067,0.32c-3.066,1.666-5.573,4.373-6.986,7.572L146.32,167.894z
		"/>
	<path fill="#121769" d="M175.307,98.947c-0.2-0.12-2.04-2.32-2.267-2.28c-1.133,0.214-5.106,4.227-9.439,2.28l-0.333,4.44
		c0.946,0.786,5.772,0.934,7.319,0.601C174.333,103.173,175.494,99.053,175.307,98.947z"/>
	<path fill="#D9DBDB" d="M152.04,152.04c1.307-0.946,1.44-3.027,0-3.747c-0.56-0.28-0.733-1.347-1.173-1.813
		c-0.387-0.401-0.44-1.015-0.494-1.574c-0.733-9.026-1.466-18.066-2.2-27.093c-0.16-1.84-0.307-3.72-1.054-5.414
		c-0.959-2.252-2.853-3.959-4.799-5.439c-0.614-0.479-1.267-0.934-2.027-1.107c-0.88-0.199-1.8,0.027-2.627,0.401
		c-2.453,1.133-4.16,3.507-5.08,6.039c-0.92,2.547-1.146,5.28-1.36,7.974c-0.52,6.426-1.04,12.84-1.56,19.268
		c-0.28,3.506-0.28,10,0.253,13.479c0.533,3.494,3.907,5.374,4.36,6.361c0.374,0.799,1.453,1.106,2.347,1.146
		c0.533,0.027,1.053-0.12,1.56-0.28c5.56-1.72,10.68-4.906,14.693-9.133L152.04,152.04z"/>
	<path fill="#D9DBDB" d="M167.28,96.88c0.014-0.28-9.92-3.414-11.333-6.667c-4.387,3.093-6.12,5.906-6.12,5.906
		c4.48,5.013,11.093,8.68,17.56,10.534C167.146,103.079,167.133,100.453,167.28,96.88z"/>
	<path fill="#D9DBDB" d="M174.333,91.133c-0.547-0.427-3.146-0.36-4.56-0.653c0.173,1.573,0.494,2.347,0.653,3.907l0.44,0.76
		c1.84,3.133,3.12,5.227,4.96,8.36c0.787-0.12,2.414-7.707,1.974-8.253C177.414,94.76,174.453,91.227,174.333,91.133z"/>
	<path fill="#121769" d="M135.667,160.68c1.654,3.254,5.467,5.267,7.733,8.12c0.174,0.227,0.387,0.467,0.68,0.48
		c0.2,0.013,0.387-0.107,0.574-0.214c4-2.601,6.959-4.507,10.973-7.106c0.68-0.44,1-1.08,1.626-1.627
		c0.253-0.213-3.494-8.053-4.307-9.279c-0.107-0.16-0.214-0.32-0.387-0.387c-0.227-0.094-0.48,0.013-0.707,0.106
		c-2.867,1.267-5.734,2.534-8.6,3.8c-1.414,0.627-2.84,1.254-4.107,2.134c-1.44,1-2.667,2.319-3.546,3.84L135.667,160.68z"/>
	<path fill="#E57A3B" d="M187.747,46.934c0.64,5,1.093,10.027,1.347,15.066c0.227,4.547,0.293,9.187-1,13.56
		c-0.626,2.067-1.56,4.067-3.013,5.667c-3.787,4.16-10.146,4.64-15.747,4.014c-4.24-0.48-8.494-1.467-12.173-3.586
		c-3.693-2.134-6.8-5.521-7.907-9.627c-1.587,1.854-4.747,1.706-6.613,0.12c-1.867-1.586-2.574-4.2-2.48-6.653
		c0.093-2.72,1.586-5.827,4.293-6.094c0.867-0.08,1.773,0.133,2.586-0.173c0.72-0.266,1.228-0.92,1.693-1.547
		c2.681-3.626,0.147-13.24,4.121-15.346c2.426-1.294,10.653-3.134,13.346-3.587c3.347-0.547,6.4,6.027,9.773,5.653
		c4.014-0.427,8.773-0.427,11.187,2.813L187.747,46.934z"/>
	<path fill="#121769" d="M188,39.973c-0.533-2.44-1.213-4.56-2.907-6.399c-2.707-2.947-7.68-5.134-11.653-5.64
		c-3.96-0.52-7.667-0.147-11.627,0.4c-6.36,0.88-12.399,2.934-16.933,7.479c-3.333,3.333-5.027,8.054-5.44,12.747
		c-0.427,4.707,0.333,9.427,1.32,14.04c0.854-0.987,1.894-2.053,3.201-2.026c1.772,0.026,3.173,1.906,3.533,3.64
		c0.346,1.733,0.68,4.626,1.946,5.853c0.733-0.12,0.894-1.133,1.626-1.253c-0.24-3.467-0.613-6.92-1.106-10.36
		c1.746-0.64,2.346-2.813,2.36-4.68c0.013-1.854-0.267-3.854,0.626-5.48c0.8-1.44,2.374-2.267,3.92-2.8
		c3.72-1.294,7.854-1.374,11.613-0.2c3.36,1.04,16.84,6.64,19.52,4.36c0,0,0.173-0.374,0.24-0.734
		C188.813,45.773,188.773,43.467,188,39.973z"/>
	<path fill="#D16B36" d="M187.027,78.72c0-1.787-1.44-3.72-2.373-5.253c-0.32-0.52-1.214-1.227-1.747-1.533
		c-0.534-0.293-11.04-0.667-15.493,0.933c-0.681,0.24-1.146,1.133-1.613,1.68c-0.44,0.533-2.574,6.493-3.294,9.266
		c0,0,3.121,1.347,4.947,1.333c0.44,0,0.907-0.027,1.253-0.28c0.427-0.32,0.561-0.88,0.667-1.4c0.467-2.24,0.934-4.48,1.414-6.72
		c0.067-0.32,0.52-1.146,0.747-1.374c0.253-0.266,8.84-1.027,9.133-0.813c0.387,0.28,1.773,2.453,1.96,2.893
		c0.613,1.44,1.56,4.68,1.746,4.734C184.533,82.24,187.027,79.307,187.027,78.72z"/>
	<path fill="#303030" d="M169.693,62.414c0.066,1.013-0.027,1.907-0.24,2.907c-0.346,1.626-2.093,1.506-2.28,0.227
		c-0.146-1.014-0.134-2.041-0.2-3.053C166.867,60.747,169.586,60.654,169.693,62.414z"/>
	<path fill="#303030" d="M184.987,61.854c0.066,1.027-0.026,1.92-0.24,2.92c-0.347,1.626-2.093,1.506-2.28,0.227
		c-0.146-1.013-0.121-2.04-0.187-3.053C182.16,60.2,184.88,60.107,184.987,61.854z"/>
	<path fill="#303030" d="M172.44,78.227c2.587,2.027,6.054,1.973,8.533-0.213c0.681-0.587-0.066-1.253-0.76-0.653
		c-2.014,1.773-4.8,1.4-6.907-0.267C172.586,76.533,171.72,77.654,172.44,78.227z"/>
	<path fill="#3B3DB0" d="M230.413,24c-3.479-3.013-8.933-3.48-12.879-1.107c-3.947,2.387-6.081,7.427-5.041,11.907
		c-4.227,0.293-8.267,2.959-10.04,6.813c-1.761,3.867-1.066,8.773,1.84,11.88c2.894,3.093,7.88,4.093,11.667,2.173
		c0.747,3.28,3.134,6.146,6.213,7.467c3.094,1.307,6.814,1.054,9.694-0.68c2.293,2.467,2.613,2.827,5.586,4.44
		c2.96,1.601,6.56,2.32,9.761,1.253c4.106-1.373,9.079-3.8,8.56-8.107c4.827,1.894,10.813,0.681,14.267-3.2
		c3.453-3.867,3.894-10.213,0.721-14.32c-2.107-2.72-5.374-4.24-8.561-5.547c5.293-4.467,5.746-13.547,0.906-18.506
		c-4.84-4.96-13.934-4.734-18.533,0.453c-2.146-2.467-5.76-3.533-8.906-2.64c-3.147,0.894-5.667,3.693-6.201,6.92L230.413,24z"/>
	<path fill="#3B3DB0" d="M213.359,66.787c-0.319-2.333-3.466-4.28-6.105-0.96c-0.734,0.906-0.773,2.267-0.427,3.387
		c0.547,1.813,2.773,2.906,4.56,2.253C213.16,70.8,213.601,68.667,213.359,66.787z"/>
	<path fill="#FFFFFF" d="M252.106,31.747c-8.146-1.014-18-0.227-18.254,0.066c-0.212,0.24,0.054,3.174-0.013,3.72
		c-0.026,0.16,12.106-0.467,18.32-0.053L252.106,31.747z"/>
	<path fill="#FFFFFF" d="M252.28,40.693c-8.16-1-18-0.227-18.268,0.08c-0.199,0.227,0.066,3.173,0,3.707
		c-0.025,0.16,12.107-0.467,18.32-0.054L252.28,40.693z"/>
	<path fill="#FFFFFF" d="M252.733,49.307c-8.146-1.013-17.987-0.24-18.253,0.066c-0.214,0.227,0.066,3.174-0.015,3.707
		c-0.025,0.16,12.121-0.453,18.32-0.053L252.733,49.307z"/>
	<path fill="#FC452E" d="M231.733,34.96c-0.667,1.76-2.627,2.653-4.4,2c-1.76-0.667-2.653-2.64-1.986-4.4
		c0.653-1.773,2.627-2.667,4.399-2C231.507,31.227,232.399,33.187,231.733,34.96z"/>
	<path fill="#FFFFFF" d="M227.094,34.253c0.214,0.293,0.426,0.573,0.64,0.866c0.146,0.201,0.414,0.227,0.587,0.041
		c0.64-0.68,1.253-1.374,1.853-2.08c0.32-0.374-0.239-0.88-0.56-0.506c-0.601,0.72-1.214,1.413-1.853,2.08
		c0.199,0.026,0.399,0.04,0.599,0.053l-0.64-0.867C227.44,33.453,226.813,33.867,227.094,34.253z"/>
	<path fill="#F7A63B" d="M231.733,43.6c-0.667,1.76-2.627,2.653-4.4,2c-1.76-0.667-2.653-2.64-1.986-4.4
		c0.653-1.773,2.627-2.667,4.399-2C231.507,39.867,232.399,41.84,231.733,43.6z"/>
	<path fill="#FFFFFF" d="M227.094,42.893c0.214,0.294,0.426,0.587,0.64,0.867c0.146,0.201,0.414,0.227,0.587,0.041
		c0.64-0.681,1.253-1.374,1.853-2.08c0.32-0.374-0.239-0.88-0.56-0.507c-0.601,0.707-1.214,1.414-1.853,2.08
		c0.199,0.027,0.399,0.04,0.599,0.053c-0.212-0.293-0.426-0.573-0.64-0.866C227.44,42.093,226.813,42.506,227.094,42.893z"/>
	<path fill="#80D1E0" d="M231.733,52.32c-0.667,1.76-2.627,2.653-4.4,1.986c-1.76-0.653-2.653-2.627-1.986-4.4
		c0.653-1.76,2.627-2.653,4.399-1.987C231.507,48.586,232.399,50.547,231.733,52.32z"/>
	<path fill="#FFFFFF" d="M227.094,51.613c0.214,0.293,0.426,0.574,0.64,0.867c0.146,0.2,0.414,0.227,0.587,0.04
		c0.64-0.68,1.253-1.374,1.853-2.08c0.32-0.374-0.239-0.88-0.56-0.506c-0.601,0.707-1.214,1.4-1.853,2.08
		c0.199,0.014,0.399,0.04,0.599,0.053l-0.64-0.867C227.44,50.813,226.813,51.227,227.094,51.613z"/>
	<path fill="#3B3DB0" d="M199.573,71.307c-0.199-1.494-2.227-2.76-3.933-0.613c-0.468,0.586-0.493,1.467-0.267,2.187
		c0.346,1.159,1.786,1.879,2.934,1.44C199.453,73.893,199.733,72.52,199.573,71.307z"/>
	<path fill="#D16B36" d="M174.346,69.654c0,0,1.693,0.146,2.921-0.107c1.213-0.24,2.346-0.773,2.346-0.773
		S177.24,72.693,174.346,69.654z"/>
	<path fill="#121769" d="M178.96,55.28c0.92-0.533,2.626-1.333,3.68-1.387c1.827-0.093,4.64,1.227,5.133,1.654
		c0,0,0.387,1.08,0.227,1.213c-0.213,0.174-1.827-0.333-1.907-0.346c-2.72-0.627-3.986-0.227-6.493,0.053
		c-0.08,0.013-0.16,0.013-0.227-0.027C179.32,56.4,178.827,55.36,178.96,55.28z"/>
	<path fill="#121769" d="M171.506,55.373c-1.093-0.386-3.12-0.933-4.28-0.84c-2.013,0.16-4.867,1.88-5.333,2.374
		c0,0-0.227,1.12-0.026,1.227c0.28,0.146,1.946-0.586,2.026-0.613c2.867-1.014,4.333-0.787,7.134-0.88c0.08,0,0.173,0,0.24-0.066
		C171.32,56.533,171.667,55.426,171.506,55.373z"/>
	<path fill="#3B3DB0" d="M224.587,111.96c-5.561-0.721-11.228,3.88-11.666,9.467c-0.455,5.586,4.438,11.026,10.039,11.187
		c-1.426,2.066-2.894,4.214-3.253,6.694c-0.493,3.372,1.214,6.771,3.68,9.133c2.773,2.666,6.68,4.279,10.48,3.732
		c3.8-0.56,7.28-3.547,7.853-7.333c4.147,4.32,10.387,6.534,16.32,5.786c2.973-0.359,5.986-1.547,7.8-3.919
		c1.801-2.387,1.974-6.12-0.199-8.188c3.772,1.2,8.093,0.788,11.386-1.399c3.294-2.199,5.387-6.214,4.947-10.146
		c-0.439-3.934-3.574-7.508-7.48-8.134c3.453-1.199,5.561-5.173,5-8.8c-0.547-3.613-3.453-6.641-6.934-7.786
		c-3.48-1.134-7.399-0.508-10.613,1.239c-1.799-5.106-5.799-9.787-11.106-10.907c-5.32-1.12-11.586,2.494-12.054,7.907
		c-3.333-0.934-7.106-0.2-9.853,1.919c-2.747,2.121-4.414,5.587-4.347,9.067V111.96z"/>
	<path fill="#FC452E" d="M246.867,135.399c-0.175,0-8.414-3.986-11.333-10.934l-0.16-0.372c-0.682-1.613-1.721-4.04-1.214-6.88
		c0.359-2.107,2.827-4.081,5.079-4.147c0.041,0,0.068,0,0.094,0c2.467,0,4.787,2.36,6.174,4.773
		c0.373-1.066,0.906-1.987,1.587-2.733c1.733-1.92,4.493-2.6,6.573-1.613c2.025,0.96,3.6,3.307,3.373,6.268
		C256.359,128.626,246.974,135.399,246.867,135.399z"/>
	<path fill="#FFFFFF" d="M255.84,133.613c-0.013,0-0.013,0-0.026,0c-0.24-0.013-0.439-0.187-0.48-0.427l-1.547-9.066l-1.906,7.786
		c-0.053,0.241-0.267,0.374-0.521,0.401c-0.227-0.015-0.438-0.188-0.479-0.414l-1.254-6.44l-1.453,3.239
		c-0.094,0.175-0.267,0.295-0.466,0.295l-3.374,0.066h-0.013c-0.28,0-0.507-0.227-0.521-0.507c0-0.28,0.227-0.507,0.508-0.521
		l3.066-0.053l1.985-4.414c0.094-0.2,0.308-0.32,0.521-0.306c0.227,0.026,0.413,0.199,0.453,0.426l1.107,5.707l1.934-7.921
		c0.053-0.227,0.279-0.399,0.52-0.387c0.239,0.015,0.439,0.188,0.48,0.428l1.586,9.267l0.813-2.853
		c0.054-0.214,0.253-0.374,0.48-0.374l3.96-0.081h0.013c0.28,0,0.507,0.227,0.507,0.508c0.013,0.28-0.214,0.52-0.494,0.52
		l-3.586,0.08l-1.32,4.666C256.267,133.466,256.066,133.613,255.84,133.613z"/>
	<path fill="#F7A63B" d="M237.399,119.227c-0.799,2.16-3.213,3.254-5.359,2.44c-2.16-0.814-3.254-3.214-2.439-5.374
		c0.799-2.16,3.213-3.253,5.373-2.44C237.133,114.667,238.214,117.066,237.399,119.227z"/>
	<path fill="#FFFFFF" d="M231.733,118.374c0.267,0.346,0.521,0.692,0.773,1.053c0.186,0.24,0.52,0.28,0.732,0.054
		c0.773-0.84,1.534-1.681,2.268-2.547c0.373-0.468-0.307-1.081-0.693-0.626c-0.72,0.879-1.48,1.719-2.254,2.545
		c0.24,0.027,0.48,0.041,0.721,0.068c-0.254-0.361-0.52-0.707-0.773-1.054C232.16,117.387,231.387,117.894,231.733,118.374z"/>
	<path fill="#3B3DB0" d="M209.013,114.28c-0.306-2.32-3.453-4.268-6.106-0.96c-0.72,0.919-0.759,2.28-0.426,3.399
		c0.56,1.814,2.786,2.921,4.56,2.254C208.813,118.308,209.267,116.173,209.013,114.28z"/>
	<path fill="#3B3DB0" d="M198.28,107.746c-0.201-1.492-2.227-2.759-3.934-0.613c-0.479,0.587-0.507,1.468-0.28,2.188
		c0.36,1.173,1.786,1.88,2.934,1.453S198.44,108.96,198.28,107.746z"/>
</g>
</svg>
