<svg xmlns="http://www.w3.org/2000/svg" width="200" height="41.997"><radialGradient id="a" cx="13.47" cy="5.752" r="35.469" gradientUnits="userSpaceOnUse"><stop offset="0" stop-color="#125e99"/><stop offset="1" stop-color="#1fb0e8"/></radialGradient><path fill-rule="evenodd" clip-rule="evenodd" fill="url(#a)" d="M6.15 35.844c-8.2-8.199-8.2-21.492 0-29.692 6.68-6.68 16.76-7.92 24.68-3.72-6.88-2.374-14.84-.827-20.333 4.679-7.667 7.654-7.667 20.106 0 27.773 5.493 5.506 13.453 7.053 20.333 4.68-7.92 4.201-18 2.961-24.68-3.72z"/><radialGradient id="b" cx="39.19" cy="28.164" r="29.287" gradientUnits="userSpaceOnUse"><stop offset="0" stop-color="#4a9442"/><stop offset="1" stop-color="#c7d975"/></radialGradient><path fill-rule="evenodd" clip-rule="evenodd" fill="url(#b)" d="M23.709 39.23a18.188 18.188 0 0 0 11.573-5.306c7.146-7.134 7.146-18.72 0-25.853-3.226-3.24-7.36-5-11.573-5.307a18.175 18.175 0 0 1 14.28 5.307c7.146 7.133 7.146 18.719 0 25.853a18.174 18.174 0 0 1-14.28 5.306z"/><radialGradient id="c" cx="23.364" cy="11.846" r="2.19" gradientUnits="userSpaceOnUse"><stop offset="0" stop-color="#4ab3e0"/><stop offset="1" stop-color="#126ea6"/></radialGradient><path fill-rule="evenodd" clip-rule="evenodd" fill="url(#c)" d="M22.91 10.792c.799-.8 2.08-.8 2.879 0 .787.786.787 2.08 0 2.866-.799.8-2.08.8-2.879 0a2.035 2.035 0 0 1 0-2.866z"/><radialGradient id="d" cx="24.217" cy="23.299" r="9.767" gradientUnits="userSpaceOnUse"><stop offset="0" stop-color="#57c7f0"/><stop offset="1" stop-color="#1266a1"/></radialGradient><path fill-rule="evenodd" clip-rule="evenodd" fill="url(#d)" d="M14.87 14.325c10.613 3.373 17.734 2.84 10.893-7.386 10.773 10.907 7.121 21.799-8.866 28.04 10.266-6.295 10.906-13.107-2.027-20.654z"/><radialGradient id="e" cx="24.217" cy="23.3" r="9.765" gradientUnits="userSpaceOnUse"><stop offset="0" stop-color="#57c7f0"/><stop offset="1" stop-color="#1266a1"/></radialGradient><path fill-rule="evenodd" clip-rule="evenodd" fill="url(#e)" d="M23.803 26.564c-.187.854-.573 1.734-1.173 2.6a22.818 22.818 0 0 1-4.854 1.547c2.161-1.279 4.32-2.572 6.027-4.147z"/><linearGradient id="f" gradientUnits="userSpaceOnUse" x1="125.489" y1="7.125" x2="125.489" y2="35.791"><stop offset="0" stop-color="#125e99"/><stop offset="1" stop-color="#19a1d9"/></linearGradient><path fill-rule="evenodd" clip-rule="evenodd" fill="url(#f)" d="M121.948 31.111c-4.066-4.066-4.066-10.653 0-14.707 4.054-4.053 10.641-4.053 14.707 0a10.405 10.405 0 0 1 2.946 8.734h-17.8a7.563 7.563 0 0 0 2.106 4.013c2.974 2.973 7.813 2.973 10.786 0a8.907 8.907 0 0 0 1-1.239h3.134a10.42 10.42 0 0 1-2.173 3.199c-4.066 4.053-10.653 4.053-14.706 0zm23.559 0c-4.053-4.066-4.053-10.653 0-14.707 4.066-4.053 10.653-4.053 14.707 0a10.324 10.324 0 0 1 3.04 7.48v9.572h-2.76V30.83l-.28.28c-4.053 4.054-10.64 4.054-14.707.001zm-94.531 2.346V7.125h2.773v26.332h-2.773zm5.547 0V22.378c0-2.32.879-4.626 2.64-6.386 3.52-3.506 9.227-3.506 12.747 0 1.76 1.76 2.626 4.066 2.626 6.386v11.079h-2.76V22.378c0-1.6-.613-3.2-1.827-4.426a6.26 6.26 0 0 0-8.827 0 6.282 6.282 0 0 0-1.826 4.426v11.079h-2.773zm40.199 0V7.125h2.773v11.773h13.865V7.125h2.773v26.332h-2.773V21.685H99.496v11.772h-2.774zm69.999 0V7.125h2.773v26.332h-2.773zm15.253 0V7.125h2.772v8.733c3.521-3.373 9.134-3.319 12.613.134A9.107 9.107 0 0 1 200 22.378v11.079h-2.787V22.378c0-1.6-.6-3.2-1.813-4.426-2.44-2.427-6.399-2.427-8.826 0a6.224 6.224 0 0 0-1.827 4.426v11.079h-2.773zm-105.358 0v-2.773l15.253-13.105v-1.44c0-1.6-.6-3.2-1.813-4.414-2.453-2.439-6.4-2.439-8.84 0a6.218 6.218 0 0 0-1.814 4.414H76.63c0-2.307.879-4.626 2.626-6.373a9.03 9.03 0 0 1 12.76 0 8.943 8.943 0 0 1 2.627 6.346c0 .014.014.027.014.027-.014 1.04.066 2.147-.414 3.053-.041.041-9.36 7.88-13.347 11.492h12.36v2.773h-16.64zm97.077-1.412a4.873 4.873 0 0 1-1.426-3.44V7.125h2.773v6.933h4.854v2.773h-4.854v11.773c0 .534.199 1.066.613 1.466.4.414.934.613 1.467.613v2.773a4.803 4.803 0 0 1-3.427-1.411zm3.428 1.412v-2.773h2.773v2.773h-2.773zm-18.867-4.306c2.973-2.974 2.973-7.813 0-10.787-2.974-2.974-7.8-2.974-10.787 0-2.973 2.973-2.973 7.813 0 10.787 2.988 2.973 7.814 2.973 10.787 0zm-23.56-10.786c-2.973-2.974-7.813-2.974-10.786 0a7.546 7.546 0 0 0-2.106 4.013h14.986a7.523 7.523 0 0 0-2.094-4.013z"/></svg>