<?xml version="1.0" encoding="utf-8"?>
<!-- Generator: Adobe Illustrator 13.0.0, SVG Export Plug-In . SVG Version: 6.00 Build 14948)  -->
<!DOCTYPE svg PUBLIC "-//W3C//DTD SVG 1.1//EN" "http://www.w3.org/Graphics/SVG/1.1/DTD/svg11.dtd">
<svg version="1.1" id="Layer_1" xmlns="http://www.w3.org/2000/svg" xmlns:xlink="http://www.w3.org/1999/xlink" x="0px" y="0px"
	 width="200px" height="41.997px" viewBox="0 0 200 41.997" enable-background="new 0 0 200 41.997" xml:space="preserve">
<g>
	<radialGradient id="SVGID_1_" cx="13.4702" cy="5.752" r="35.4686" gradientUnits="userSpaceOnUse">
		<stop  offset="0" style="stop-color:#125E99"/>
		<stop  offset="1" style="stop-color:#1FB0E8"/>
	</radialGradient>
	<path fill-rule="evenodd" clip-rule="evenodd" fill="url(#SVGID_1_)" d="M6.15,35.844c-8.2-8.199-8.2-21.492,0-29.692
		c6.68-6.68,16.76-7.92,24.68-3.72c-6.88-2.374-14.84-0.827-20.333,4.679c-7.667,7.654-7.667,20.106,0,27.773
		c5.493,5.506,13.453,7.053,20.333,4.68C22.91,43.765,12.83,42.525,6.15,35.844z"/>
	<radialGradient id="SVGID_2_" cx="39.1899" cy="28.1641" r="29.287" gradientUnits="userSpaceOnUse">
		<stop  offset="0" style="stop-color:#4A9442"/>
		<stop  offset="1" style="stop-color:#C7D975"/>
	</radialGradient>
	<path fill-rule="evenodd" clip-rule="evenodd" fill="url(#SVGID_2_)" d="M23.709,39.23c4.213-0.306,8.347-2.079,11.573-5.306
		c7.146-7.134,7.146-18.72,0-25.853c-3.226-3.24-7.36-5-11.573-5.307c5.121-0.387,10.374,1.387,14.28,5.307
		c7.146,7.133,7.146,18.719,0,25.853C34.083,37.844,28.83,39.617,23.709,39.23z"/>
	<radialGradient id="SVGID_3_" cx="23.3638" cy="11.8457" r="2.1898" gradientUnits="userSpaceOnUse">
		<stop  offset="0" style="stop-color:#4AB3E0"/>
		<stop  offset="1" style="stop-color:#126EA6"/>
	</radialGradient>
	<path fill-rule="evenodd" clip-rule="evenodd" fill="url(#SVGID_3_)" d="M22.91,10.792c0.799-0.8,2.08-0.8,2.879,0
		c0.787,0.786,0.787,2.08,0,2.866c-0.799,0.8-2.08,0.8-2.879,0C22.123,12.872,22.123,11.578,22.91,10.792z"/>
	<radialGradient id="SVGID_4_" cx="24.2168" cy="23.2988" r="9.7673" gradientUnits="userSpaceOnUse">
		<stop  offset="0" style="stop-color:#57C7F0"/>
		<stop  offset="1" style="stop-color:#1266A1"/>
	</radialGradient>
	<path fill-rule="evenodd" clip-rule="evenodd" fill="url(#SVGID_4_)" d="M14.87,14.325c10.613,3.373,17.734,2.84,10.893-7.386
		c10.773,10.907,7.121,21.799-8.866,28.04C27.163,28.684,27.803,21.872,14.87,14.325z"/>
	<radialGradient id="SVGID_5_" cx="24.2168" cy="23.2998" r="9.7652" gradientUnits="userSpaceOnUse">
		<stop  offset="0" style="stop-color:#57C7F0"/>
		<stop  offset="1" style="stop-color:#1266A1"/>
	</radialGradient>
	<path fill-rule="evenodd" clip-rule="evenodd" fill="url(#SVGID_5_)" d="M23.803,26.564c-0.187,0.854-0.573,1.734-1.173,2.6
		c-1.574,0.707-3.201,1.214-4.854,1.547C19.937,29.432,22.096,28.139,23.803,26.564z"/>
	<linearGradient id="SVGID_6_" gradientUnits="userSpaceOnUse" x1="125.4888" y1="7.125" x2="125.4888" y2="35.7911">
		<stop  offset="0" style="stop-color:#125E99"/>
		<stop  offset="1" style="stop-color:#19A1D9"/>
	</linearGradient>
	<path fill-rule="evenodd" clip-rule="evenodd" fill="url(#SVGID_6_)" d="M121.948,31.111c-4.066-4.066-4.066-10.653,0-14.707
		c4.054-4.053,10.641-4.053,14.707,0c2.372,2.373,3.359,5.64,2.946,8.734h-17.8c0.267,1.479,0.974,2.879,2.106,4.013
		c2.974,2.973,7.813,2.973,10.786,0c0.374-0.387,0.707-0.801,1-1.239h3.134c-0.506,1.158-1.227,2.252-2.173,3.199
		C132.588,35.164,126.001,35.164,121.948,31.111z M145.507,31.111c-4.053-4.066-4.053-10.653,0-14.707
		c4.066-4.053,10.653-4.053,14.707,0c2.066,2.066,3.079,4.773,3.04,7.48v9.572h-2.76v-2.626c-0.094,0.094-0.187,0.187-0.28,0.28
		C156.161,35.164,149.574,35.164,145.507,31.111z M50.976,33.457V7.125h2.773v26.332H50.976z M56.523,33.457V22.378
		c0-2.32,0.879-4.626,2.64-6.386c3.52-3.506,9.227-3.506,12.747,0c1.76,1.76,2.626,4.066,2.626,6.386l0,0l0,0v11.079h-2.76V22.378
		c0-1.6-0.613-3.2-1.827-4.426c-2.44-2.427-6.387-2.427-8.827,0c-1.213,1.227-1.826,2.826-1.826,4.426v11.079H56.523z
		 M96.722,33.457V7.125h2.773v11.773h13.865V7.125h2.773v26.332h-2.773V21.685H99.496v11.772H96.722z M166.721,33.457V7.125h2.773
		v26.332H166.721z M181.974,33.457V7.125h2.772v8.733c3.521-3.373,9.134-3.319,12.613,0.134c1.747,1.76,2.627,4.066,2.641,6.386l0,0
		l0,0v11.079h-2.787V22.378c0-1.6-0.6-3.2-1.813-4.426c-2.44-2.427-6.399-2.427-8.826,0c-1.227,1.227-1.827,2.826-1.827,4.426
		v11.079H181.974z M76.616,33.457v-2.773l15.253-13.105v-1.44c0-1.6-0.6-3.2-1.813-4.414c-2.453-2.439-6.4-2.439-8.84,0
		c-1.213,1.213-1.814,2.814-1.814,4.414h-2.772c0-2.307,0.879-4.626,2.626-6.373c3.533-3.52,9.227-3.52,12.76,0
		c1.747,1.747,2.627,4.04,2.627,6.346c0,0.014,0.014,0.027,0.014,0.027c-0.014,1.04,0.066,2.147-0.414,3.053
		c-0.041,0.041-9.36,7.88-13.347,11.492h12.36v2.773H76.616z M173.693,32.045c-0.946-0.947-1.426-2.201-1.426-3.44V7.125h2.773
		v6.933h4.854v2.773h-4.854v11.773c0,0.534,0.199,1.066,0.613,1.466c0.4,0.414,0.934,0.613,1.467,0.613v2.773
		C175.868,33.457,174.641,32.991,173.693,32.045z M177.121,33.457v-2.773h2.773v2.773H177.121z M158.254,29.151
		c2.973-2.974,2.973-7.813,0-10.787c-2.974-2.974-7.8-2.974-10.787,0c-2.973,2.973-2.973,7.813,0,10.787
		C150.455,32.124,155.281,32.124,158.254,29.151z M134.694,18.365c-2.973-2.974-7.813-2.974-10.786,0
		c-1.133,1.133-1.84,2.534-2.106,4.013h14.986C136.521,20.898,135.828,19.498,134.694,18.365z"/>
</g>
</svg>
