<svg xmlns="http://www.w3.org/2000/svg" width="380" height="200"><path clip-rule="evenodd" fill="none" d="M0 0h380v200H0z"/><path fill="#E8EDF5" d="M286.733 86.373C272.026 31.96 213.601 27.88 213.601 27.88c-36.654-1.667-64.401-2.253-92.868 16.346C111.346 50.36 102.52 58.133 97 68.16c-5 9.053-7.013 19.426-7.547 29.546-.414 7.828.067 15.84 3.174 22.667 2.879 6.318 7.813 11.213 13.04 15.506 12.574 10.334 27.214 17.813 42.507 23.413 18.04 6.613 37.36 10.72 57.013 9.054 19.653-1.667 39.707-9.479 54.641-24.08 14.933-14.586 32.198-38.332 26.905-57.893z"/><path fill="#3B3DB0" d="M91.707 31.346c-5.853-.76-11.813 4.08-12.28 9.96-.466 5.88 4.667 11.6 10.561 11.76-1.493 2.174-3.04 4.44-3.427 7.053-.507 3.547 1.293 7.121 3.88 9.601 2.906 2.8 7.027 4.506 11.027 3.92 3.986-.574 7.653-3.72 8.253-7.72 4.36 4.56 10.92 6.88 17.173 6.107 3.12-.4 6.294-1.627 8.2-4.134 1.894-2.506 2.067-6.44-.213-8.6 3.973 1.253 8.52.813 11.986-1.493s5.667-6.533 5.2-10.667c-.466-4.133-3.76-7.893-7.867-8.547 3.627-1.266 5.84-5.453 5.253-9.253-.573-3.813-3.64-7-7.293-8.187-3.667-1.2-7.787-.546-11.16 1.293-1.893-5.374-6.107-10.293-11.693-11.467-5.586-1.173-12.173 2.613-12.667 8.307-3.521-.986-7.48-.213-10.373 2.027-2.88 2.24-4.627 5.88-4.561 9.533v.507z"/><path fill="#FC452E" d="M115.133 56c-.173 0-8.854-4.2-11.92-11.506l-.16-.387c-.733-1.693-1.813-4.253-1.293-7.24.4-2.2 2.973-4.293 5.36-4.347h.094c2.6-.014 5.027 2.48 6.493 5.013a8.38 8.38 0 0 1 1.667-2.879c1.827-2.014 4.734-2.734 6.92-1.693 2.12 1.013 3.773 3.479 3.546 6.586C125.133 48.867 115.253 56 115.133 56z"/><path fill="#FFF" d="M124.574 54.133h-.027a.541.541 0 0 1-.507-.454l-1.626-9.546-2.014 8.2c-.054.24-.267.373-.533.413a.557.557 0 0 1-.521-.44l-1.307-6.773-1.533 3.414a.581.581 0 0 1-.479.32l-3.56.066h-.014a.535.535 0 0 1-.533-.533.52.52 0 0 1 .52-.547l3.227-.066 2.093-4.64a.567.567 0 0 1 .561-.32.554.554 0 0 1 .453.44l1.173 6.013 2.026-8.333a.585.585 0 0 1 .547-.413c.253.013.467.2.52.453l1.667 9.76.84-3.013a.527.527 0 0 1 .506-.387l4.173-.08h.014c.293 0 .533.227.533.533a.536.536 0 0 1-.52.547l-3.773.066-1.387 4.92a.54.54 0 0 1-.519.4z"/><path fill="#F7A63B" d="M105.187 38.987a4.408 4.408 0 0 1-5.654 2.573c-2.266-.867-3.414-3.387-2.56-5.653a4.386 4.386 0 1 1 8.214 3.08z"/><path fill="#FFF" d="M99.227 38.093c.267.36.547.733.813 1.106.187.253.547.28.761.054.827-.88 1.613-1.76 2.387-2.68.399-.48-.32-1.121-.72-.654a65.942 65.942 0 0 1-2.387 2.68c.253.027.506.04.76.066a68.89 68.89 0 0 0-.8-1.106c-.374-.506-1.187.027-.814.534z"/><path fill="#3B3DB0" d="M122.854 79.213c-.333-2.44-3.64-4.507-6.427-1.014-.76.96-.813 2.4-.453 3.574.587 1.906 2.934 3.066 4.8 2.36 1.866-.693 2.333-2.946 2.08-4.92zm14.8 6.974c-.627-1.147-3.8-3-5.4 1.227-.333.893.573 2.626 1.453 2.933 1.106.387 2.333.228 3.174-.6.919-.92 1.386-2.414.773-3.56z"/><path fill="#FC452E" d="M162.467 62.947c-4.987-3.787-3.893-11.533-2.414-15.894 1.48-4.347 6.333-8.84 10.787-7.693 1.107-4.773 7.267-5.04 12.147-5.479 4.88-.44 11.639 1.879 15.573 4.786 9.921 7.36 11.293 16.427 13 30.294.627 5.026 5.44 10.173 10.44 10.946 5.48.867 9.587.92 12.84 3.773 3.293 2.88 5.239 5.041 4.84 9.4-.214 2.293-.88 4.973.72 6.653 1.188 1.241 3.135 1.307 4.721 1.974 3.572 1.493 4.906 6.706 2.48 9.733-1.721 2.16-5.107 4.066-4.081 6.639.974 2.455 5.28 2.387 5.801 4.961.466 2.28-2.414 3.547-4.173 5.039-2.374 2-2.975 5.908-1.054 8.348 1.919 2.426 6.187 2.586 8.066.12-.187 4.626-3.427 8.987-7.801 10.479-4.386 1.508-9.613.053-12.599-3.479-6.068 6.106-16.975 4.32-23.348-1.48-6.373-5.786-9.359-14.333-12.105-22.493-3.374-10.066-22.868-6.627-26.241-16.68-1.293-3.854 3.693-6.96-4.093-13.28-10.093-8.187 4.2-22.28-2.2-30.16l-1.306 3.493z"/><path fill="#C22912" d="M168.586 62.293c3.027 7.227 1.521 15.507-.88 22.96-.867 2.68-1.826 5.613-.76 8.213 1.227 3 4.667 4.346 7.8 5.146 3.134.8 6.587 1.506 8.653 4 2.174 2.626 2.106 6.374 2.387 9.773.36 4.507 1.547 9.026 4 12.84 2.453 3.813 6.267 6.853 10.679 7.827 3.227.72.761 7 3.975 7.72 3.76.84 8.653 5.919 12.547 5.707 8.213-.468 15.746-12.106 8.439-25.106-2-3.561-8.4-8.707-10.267-12.32-2.187-4.214-1.16-9.4-3.2-13.694-2.054-4.333-3.947-5.854-6.84-7.76-3.733-2.454-1.987-7.64-2.334-12.094-.293-3.733-3.387-4.093-5.013-7.467-.867-1.786-2.081-3.813-4.066-3.933-2.574-.16-3.72 0-5.827-1.521-.507-.36-.814-.933-1.094-1.493-1.267-2.387-2.747-4.88-5.187-6.066-2.773-1.373-6.08-.72-9.08.08-3.133.84-6.44 1.959-8.347 4.586l4.415 2.602z"/><path fill="#121769" d="M181.92 97.32c-.947-1.174-3.16-1.641-4.667-1.84-2.173-.307-18.733 14.293-20.613 17.626l.213 1.054c3.093 7 8.12 11.347 8.28 11.427.6.307 9.48-5.867 13.293-8.467 1.08-.733 2.187-1.507 2.92-2.586 1.08-1.601 1.187-3.667 1.267-5.601.08-2.32.16-4.641.253-6.96.054-1.613.068-3.387-.946-4.653zm-14.08 57.16c-1.84 8.106-3.667 16.227-5.506 24.333-.107.479-.214 1.014.026 1.44.187.333.533.52.854.692 11.707 6.147 26.267 6.52 38.252.987.334-.147.667-.308.867-.613.214-.32.214-.747.201-1.134a142.095 142.095 0 0 0-2.308-22.68c-.094-.507-.214-1.054-.601-1.387-.318-.253-.759-.307-1.16-.359a162.596 162.596 0 0 0-31.093-.667l.468-.612z"/><path fill="#3B3BB0" d="M200.547 106.254c-1.239-4.653-2.747-10.134-4.214-10.6-6.333-2.054-16.24-1.921-18.933-.934l-1.12 1.053c-2.493 3.8-3.959 5.52-6.986 9.48-3.04 3.973-5.106 8.746-2.561 13.039.96 1.613 2.587 2.894 2.947 4.72.107.521-4.973 36.094-4.506 37.12.573 1.28 24.959 5.934 36.147 4.175 1.946-19.201 4.186-39.401-.774-58.053z"/><path fill="#3B3DB0" d="M214.359 161.534c-.347-.455-1.946-.574-3.079-.574-11.573-.039-20.947 1.188-31.027 4.681-.626.212 3.453 22.599 4.213 23.159.707.521 1.973.48 2.84.427 7.614-.507 15.2-1.52 22.681-3.013 1.213-.254 5.106-.894 5.853-1.867.626-.8-.866-22-1.481-22.813z"/><path fill="#FAC2BF" d="M197.32 123.56c.827 6.881 2.173 15.453 2.8 22.361.094 1.092-2.854 14.919-6.973 24.732 2.52.334 6.387.293 6.72-.453 2.347-5.08 5.039-8.36 7.387-13.454.853-1.84 1.706-3.692 2.146-5.68.453-1.96.534-4 .521-6.013-.015-9.014-2.16-21.707-2.908-24.201-3.547.188-6.773-.639-9.586 1.507l-.107 1.201zm-38.933-9.213c-5.613 5.36-12.574 11.56-14.84 18.974-.414 1.32-.613 2.987.44 3.894 1.12.986 2.867.412 4.187-.268 6.147-3.106 11.68-8.254 15.893-13.692l-5.68-8.908z"/><path fill="#FAC2BF" d="M143.32 136.293c-.667-15.239 2.667-29.68 6.787-42.56 1.866-.026 3.52.4 5.387.374-1.374 11.013-2.107 17.693-3.48 28.707-.2 1.613-1.04 3.387-1.693 4.894-1.467 3.426-2.561 6.573-5.8 8.426l-1.201.159zm43.213-53.746c-.293-.307-6.707 1-9.187.947l.041.546c.56 5.294.36 12.547.667 12.681.214.106 1.56.934 1.8 1 3.707 1.173 5.52-.533 7.186-2.2.254-.253.228-.52.4-.84.12-.241-.653-11.894-.907-12.134z"/><path fill="#FAC2BF" d="M203.613 75.64c1.601-8.601-4.187-6.8-4.493-7-5.214-3.333-10.88-10.787-16-14.28-5.72-3.907-11.506-3.387-17.653-.2l-1.56.027c-1.573 5.106-2.894 15-3.026 20.346-.147 5.36.2 5.027 3.693 9.094 1.799 2.093 6.213 5.719 8.186 6.386 3.586 1.2 16.707-1.84 21.96-7.093.307-.293.428.014 1.707-.2 6.599-1.093 7.093-6.6 7.186-7.08z"/><path fill="#FC452E" d="M163.28 48.574c-.413 4.493-.093 7.399 2.987 10.186.667.6 2.2 1.894 3.799 1.894 1.333 0 2.587-1.894 2.6-3.614.013-1.333.267-2.653.093-3.973 1.934 4.121 4.787 8.88 7.894 11.48 1.346 1.133 4.133 2.053 5.879 1.893 1.76-.146 1.6-1.693 1.52-4.453 1.787 4.96 6.374 9.76 10.667 8.947.906-.76.854-3.747.947-4.934.853-10.04-.227-17.173-8.334-20.92-7.32-3.387-13.56-4.854-21.066-1.893-1.333.52-6.64 2.879-6.4 4.293l-.586 1.094z"/><path fill="#F5BAB8" d="M197.653 73.84c-.267.92-.506 3.76 0 3.893.426.121 1.453-2.493 1.721-3.413.306-1.107-1.414-1.587-1.721-.48z"/><path fill="#303030" d="M181.16 71.267c.08 1.053-.027 1.986-.24 3.013-.36 1.681-2.173 1.56-2.36.24-.146-1.053-.134-2.106-.2-3.16-.12-1.813 2.693-1.893 2.8-.093zm-12.787-.654a9.619 9.619 0 0 1-.227 2.693c-.32 1.506-1.933 1.387-2.093.213-.146-.934-.133-1.88-.187-2.827-.106-1.599 2.401-1.679 2.507-.079z"/><path fill="#F5BAB8" d="M188.8 76.6c-.041-.507-.267-1.12-1.014-1.24-1.853-.307-4.36-.547-6.093.387-.707.373-1.347 1.093-1.014 1.96.347.88 1.494 1.08 2.307 1.28 1.546.373 3.96.466 5.146-.88.415-.48.775-.88.668-1.507zm-29-.186c-.134-.48.04-1.027.626-1.107 1.48-.213 3.467-.346 4.867.48.573.347 1.106.973.867 1.68-.253.733-1.16.867-1.8 1.013-1.227.28-3.333.427-4.32-.747-.347-.4-.413-.906-.24-1.319z"/><path fill="#C22912" d="M183.36 67.893c-1.627-.733-3.467-1.106-5.413-1.133-.414 0-1.307-1.373-.653-1.307l1 .014c2.173.173 3.693.68 5.546 1.906 1.2.773.24.84-.48.52zm-20.96 0c1.64-.733 3.467-1.106 5.413-1.133.414 0 1.307-1.373.667-1.307l-1.013.014c-2.173.173-3.68.68-5.547 1.906-1.2.773-.227.84.48.52z"/><path fill="#DB9696" d="M173.506 79.227s-1.186.2-2.066.107c-.866-.107-1.693-.414-1.693-.414s1.907 2.627 3.759.307z"/><path fill="#303030" d="M177.627 82.494c-2.854 2.239-6.667 2.173-9.4-.227-.747-.654.094-1.387.84-.72 2.227 1.947 5.28 1.546 7.6-.28.8-.627 1.747.613.96 1.227z"/><path fill="#121769" d="M182.08 167.239s12.427 10.84 17.106 11.975c0 0 2.506-.453 13.801-16.081 0 0-7.867 15.054-13.453 17.907 0 0-9.934-3.08-17.454-13.801z"/><path fill="#FAC2BF" d="M193.707 169.173c-1.04 2.254-1.294 5.921-1.867 8.334-.094.373-.173.76-.147 1.146.041.44.214.854.428 1.24 1.521 2.92 2.227 3.732 4.56 6.053.48.48 1.094-.213 1.601.227.906.801 3.279 0 3.279-1.199 0-.986.588-.947.254-1.88-.439-1.214-1.027-3.134-1.773-4.188-.173-.253-.36-.507-.399-.813-.054-.348.105-.694.239-1.015.84-1.932 1.307-4.105.866-6.158-.159-.707-.438-1.44-1.039-1.867-.468-.347-1.081-.44-1.653-.48a12.284 12.284 0 0 0-4.12.373l-.229.227z"/><path fill="#121769" d="M181.08 167.987c-3.307-12.374-3.133-25.28-1.12-37.854 1.799-11.266 4.786-23.573 14.414-30.839.865-.653.013-2.147-.867-1.48-9.667 7.307-13.067 19.241-15 30.627-2.239 13.267-2.573 26.919.92 40 .28 1.052 1.933.613 1.653-.454zm34.08-5.081c.12-7.026-.507-14-1.44-20.946-.506-3.787-1.106-7.547-1.72-11.319-.534-3.214-.786-6.628-1.773-9.747-.707-2.253-1.773-4.413-2.72-6.573-1.214-2.761-1.773-5.32-2.32-8.267-.906-4.975-3.174-7.84-8.334-8.187-1.106-.066-1.092 1.64 0 1.72 7.48.494 6.135 7.933 8.135 13.16 1.56 4.094 3.626 7.801 4.333 12.175 2.066 12.572 4.347 25.186 4.133 37.985-.027 1.093 1.693 1.093 1.706-.001z"/><path fill="#121769" d="M204.707 102.399c-1-1.933-2.44-3.28-4.188-4.573-1.759-1.307-3.96-2.427-5.866-1.36-1.399.8-2.267 2.333-2.773 3.879-1.027 3.134-.867 6.534-.587 9.827.521 6.293 1.44 12.547 2.36 18.787 0 0 4.066.213 10.561-.586 2.373-.295 5.813-1.227 7.865-2.44-.919-7.827-3.732-16.534-7.372-23.534z"/><path fill="#FAC2BF" d="M152.213 96.813c1.493-.28 5.68-1 6.626-2.186 2.44-3.053 1.107-8.067-2.08-8.561 1.72-3.053 2.973-5.4 2.201-5.867-.654-.387-1.587-.053-2.08.533-3.054 3.627-4.987 5.867-6.854 11.16-.414 1.173-.773 2.547-.093 3.601.546.84 1.6 1.186 2.573 1.467l-.293-.147z"/><path fill="#3B3DB0" d="M255.906 32.733c-3.667-3.173-9.399-3.667-13.547-1.159-4.159 2.493-6.399 7.799-5.293 12.52-4.466.307-8.707 3.106-10.56 7.174-1.854 4.053-1.133 9.213 1.92 12.479 3.054 3.267 8.293 4.307 12.28 2.293.773 3.454 3.28 6.454 6.532 7.841 3.254 1.387 7.16 1.12 10.188-.693 2.426 2.586 2.76 2.973 5.881 4.653 3.119 1.693 6.893 2.44 10.266 1.32 4.32-1.44 9.547-3.987 9.014-8.52 5.08 1.987 11.373.706 15-3.36s4.093-10.747.76-15.066c-2.214-2.867-5.667-4.467-9.014-5.84 5.573-4.693 6.054-14.24.96-19.466-5.093-5.213-14.667-4.987-19.493.48-2.253-2.586-6.066-3.72-9.373-2.787-3.307.947-5.961 3.894-6.521 7.293l1 .838zM253.48 84.12c-.333-2.453-3.641-4.506-6.427-1.013-.761.959-.814 2.399-.453 3.573.586 1.907 2.934 3.067 4.799 2.36 1.868-.694 2.334-2.947 2.081-4.92z"/><path fill="#FFF" d="M278.72 40.88c-8.572-1.067-18.92-.24-19.2.08-.212.239.067 3.333-.013 3.893-.026.173 12.747-.48 19.279-.053l-.066-3.92zm.174 9.413c-8.561-1.067-18.92-.254-19.201.08-.212.24.081 3.333 0 3.894-.025.173 12.734-.48 19.268-.054l-.067-3.92zm.493 9.053c-8.573-1.066-18.934-.253-19.214.067-.213.253.081 3.346 0 3.907-.025.173 12.733-.48 19.268-.053l-.054-3.921z"/><path fill="#FC452E" d="M257.293 44.253a3.585 3.585 0 0 1-4.626 2.106 3.601 3.601 0 0 1-2.094-4.627 3.593 3.593 0 0 1 4.627-2.106c1.854.707 2.8 2.774 2.093 4.627z"/><path fill="#FFF" d="M252.413 43.52c.228.307.454.6.666.906.16.214.44.24.628.041a50.595 50.595 0 0 0 1.946-2.187c.334-.387-.254-.92-.587-.533-.626.747-1.28 1.48-1.946 2.2l.626.04c-.227-.307-.438-.6-.667-.907-.306-.4-.959.027-.666.44z"/><path fill="#F7A63B" d="M257.293 53.346a3.58 3.58 0 0 1-4.626 2.094c-1.854-.693-2.787-2.76-2.094-4.627.693-1.853 2.773-2.786 4.627-2.093s2.8 2.774 2.093 4.626z"/><path fill="#FFF" d="M252.413 52.613c.228.293.454.6.666.893.16.214.44.24.628.054a44.2 44.2 0 0 0 1.946-2.2c.334-.387-.254-.92-.587-.52-.626.747-1.28 1.48-1.946 2.187.213.013.414.04.626.053-.227-.307-.438-.6-.667-.907-.306-.413-.959.027-.666.44z"/><path fill="#80D1E0" d="M257.293 62.52c-.692 1.853-2.759 2.787-4.626 2.093-1.854-.693-2.787-2.773-2.094-4.626a3.586 3.586 0 0 1 4.627-2.094 3.58 3.58 0 0 1 2.093 4.627z"/><path fill="#FFF" d="M252.413 61.773c.228.307.454.613.666.906.16.213.44.24.628.053a60.106 60.106 0 0 0 1.946-2.2c.334-.387-.254-.92-.587-.533a50.94 50.94 0 0 1-1.946 2.2l.626.041c-.227-.293-.438-.6-.667-.894-.306-.412-.959.027-.666.427z"/></svg>