<?xml version="1.0" encoding="utf-8"?>
<!-- Generator: Adobe Illustrator 13.0.0, SVG Export Plug-In . SVG Version: 6.00 Build 14948)  -->
<!DOCTYPE svg PUBLIC "-//W3C//DTD SVG 1.1//EN" "http://www.w3.org/Graphics/SVG/1.1/DTD/svg11.dtd">
<svg version="1.1" xmlns="http://www.w3.org/2000/svg" xmlns:xlink="http://www.w3.org/1999/xlink" x="0px" y="0px" width="300px"
	 height="300px" viewBox="0 0 300 300" enable-background="new 0 0 300 300" xml:space="preserve">
<g id="Layer_1">
</g>
<g id="bg">
	<rect fill-rule="evenodd" clip-rule="evenodd" fill="none" width="300" height="300"/>
</g>
<g id="content">
	<g>
		<polygon fill="#E5EDF0" points="262.2,257.9 247.4,258.6 232.6,259 203,259.6 173.4,259.9 143.9,260.1 114.3,260.1 84.7,260 
			55.1,259.6 40.3,259.3 25.5,258.7 40.3,257.9 55.1,257.5 84.7,257 114.3,256.6 143.9,256.5 173.4,256.4 203,256.6 232.6,256.9 
			247.4,257.2 		"/>
		<polygon fill="#E5EDF0" points="252.4,241.9 238.8,242.6 225.3,243.1 198.1,243.6 171,243.9 143.9,244.1 116.7,244.1 89.6,244 
			62.5,243.7 48.9,243.3 35.3,242.7 48.9,242 62.5,241.6 89.6,241 116.7,240.7 143.9,240.5 171,240.5 198.1,240.6 225.2,241 
			238.8,241.3 		"/>
		<polygon fill="#E5EDF0" points="275.8,232.5 260.1,233.2 244.5,233.7 213.1,234.2 181.7,234.6 150.3,234.7 119,234.8 87.6,234.6 
			56.2,234.3 40.5,233.9 24.9,233.3 40.5,232.6 56.2,232.2 87.6,231.6 119,231.3 150.3,231.1 181.7,231.1 213.1,231.2 244.5,231.6 
			260.1,231.9 		"/>
		<polygon fill="#E5EDF0" points="267.8,222.3 251.8,223 235.8,223.4 203.8,224 171.9,224.3 139.9,224.5 107.9,224.5 75.9,224.4 
			43.9,224 27.9,223.7 11.9,223.1 27.9,222.4 43.9,221.9 75.9,221.4 107.9,221 139.8,220.9 171.8,220.8 203.8,221 235.8,221.3 
			251.8,221.7 		"/>
		<polygon fill="#E5EDF0" points="240.8,206.3 228.7,207 216.5,207.5 192.3,208 168.1,208.3 143.9,208.5 119.6,208.5 95.4,208.4 
			71.2,208.1 59.1,207.7 46.9,207.1 59.1,206.4 71.2,206 95.4,205.4 119.6,205.1 143.9,204.9 168.1,204.9 192.3,205 216.5,205.4 
			228.7,205.7 		"/>
		<polygon fill="#E5EDF0" points="220.6,196.9 208.5,197.7 196.3,198.1 172.1,198.6 147.9,199 123.7,199.1 99.4,199.2 75.2,199 
			51,198.7 38.9,198.3 26.8,197.8 38.9,197 51,196.6 75.2,196 99.4,195.7 123.7,195.5 147.9,195.5 172.1,195.6 196.3,196 
			208.5,196.3 		"/>
	</g>
	<path fill-rule="evenodd" clip-rule="evenodd" fill="#E5EDF0" d="M271,224l-4.6-0.2V138l-224.7-0.1v53.4l-4.6-0.2V76.3
		c0-1.3,1-2.3,2.3-2.3c1.3,0,2.3,1,2.3,2.3v6.2l224.7,0.1v-6.2c0-1.3,1-2.3,2.3-2.3c1.3,0,2.3,1,2.3,2.3L271,224z M228.3,133.4
		v-21.2h17.3v21.2h20.8v-25h-16.9V87.2h-25v21.2l-119.6-0.1V87h-25v21.2H62.5V87H41.7v25h16.9v21.2h25v-21.2h17.3v21.2L228.3,133.4z
		"/>
	<path fill-rule="evenodd" clip-rule="evenodd" fill="#FFE0BD" stroke="#545E80" stroke-width="1.12" stroke-miterlimit="10" d="
		M183.9,227.1c-0.8-1.5-1.6-3-2.4-4.6c-2.6-5-5.1-10-7.5-15.1c-1.9-4-3.7-8-5.3-12.1c-1.1-2.7-2.1-5.4-3-8.1
		c-0.2-0.8-0.5-1.5-0.7-2.3c-0.2-0.5-0.3-1.1-0.4-1.7c-0.6-2.9-0.9-5.4-0.5-8.3c0.2-1.3,0.6-2.5,1-3.8c0.2-0.6,0.4-1.2,0.6-1.8
		c0.8-2.4,1.7-4.7,2.6-7c1.8-4.8,3.7-9.5,5.6-14.2c0.6-1.5,1.2-2.9,1.8-4.4c0.3-0.7,0.6-1.5,0.9-2.2c0.4-0.9,0.7-1.8,1.1-2.7
		c0.2-0.5,0.4-0.9,0.6-1.4c0.2-0.5,0.4-1,0.7-1.5c0,0,0,0,0,0c0-0.1,0.1-0.2,0.1-0.3c0-0.1,0.1-0.1,0.1-0.2c0.1-0.1,0.1-0.3,0.2-0.4
		c0.1-0.1,0.2-0.3,0.2-0.4c0.3-0.5,0.6-1,1-1.5c0.1-0.1,0.2-0.3,0.3-0.4c0.3-0.4,0.7-0.8,1.1-1.1c2.1-1.8,4.8-2.6,7.5-1.8
		c2.1,0.6,3.8,2.1,4.8,4c0.8,1.4,1.3,3.2,1.4,4.8c0,0.3,0,0.6,0,0.9c0,0.2,0,0.4,0,0.6c0,0.2,0,0.4,0,0.6c-0.1,0.6-0.1,1.1-0.3,1.7
		c0,0.1-0.1,0.3-0.1,0.4c0,0.1-0.1,0.2-0.1,0.3c0-0.1,0-0.1,0-0.2c0,0.2-0.1,0.4-0.1,0.6c-0.1,0.5-0.4,1.1-0.6,1.6
		c0,0.1-0.1,0.1-0.1,0.1c-0.1,0.1-0.2,0.4-0.3,0.6c-0.2,0.4-0.3,0.7-0.5,1.1c-0.4,1-0.9,2.1-1.3,3.1c-0.6,1.3-1.1,2.7-1.7,4
		c-0.8,1.9-1.6,3.8-2.3,5.7c-2.1,5.2-4.2,10.4-6.2,15.7c-0.2,0.5-0.3,0.9-0.5,1.4c0,0.1,0.1,0.3,0.1,0.4c0.1,0.4,0.2,0.8,0.3,1.1
		c0.6,2,1.3,3.9,2.1,5.9c0.8,2.2,1.7,4.3,2.6,6.4c1.2,2.8,2.4,5.6,3.7,8.3c2,4.5,4.2,9,6.3,13.4c0.6,1.2,1.2,2.4,1.8,3.5
		c0.2,0.4,0.4,0.9,0.6,1.3c0.1,0.1,0.1,0.3,0.2,0.4c0,0,0,0.1,0.1,0.1l0-0.1c0.1,0.1,0.1,0.3,0.2,0.4c0,0.1,0.1,0.2,0.1,0.3
		c13.6,4.4,14.9,11.5,4.9,10c-3.1-0.2-2.1,2.5,1.7,7.2C217.1,248.6,189.5,255.9,183.9,227.1z M181.7,176.9c0-0.1,0-0.2-0.1-0.3
		c0,0.2,0,0.3,0,0.5C181.6,177,181.7,177,181.7,176.9z M194.4,145.3C194.4,145.3,194.4,145.3,194.4,145.3
		C194.4,145.3,194.4,145.3,194.4,145.3C194.4,145.3,194.4,145.3,194.4,145.3z M179.3,135C179.3,135,179.3,135,179.3,135
		C179.3,135.1,179.3,135.1,179.3,135C179.3,135,179.3,135,179.3,135z M180.5,133.1L180.5,133.1C180.5,133.2,180.5,133.2,180.5,133.1
		C180.5,133.2,180.5,133.1,180.5,133.1z"/>
	<path fill-rule="evenodd" clip-rule="evenodd" fill="#FFE0BD" d="M154.3,267.5c0.5-1.5,0.9-3,1.4-4.5L193,264
		c0.5,9.4,0.9,19.7,0.6,29.6l-44.7-1.1C150.4,283,152.2,274.4,154.3,267.5z"/>
	<path fill="#545E80" d="M147.9,298.4c0.3-3.6,0.7-7.1,1.3-10.7c0.4-2.4,0.8-4.9,1.2-7.3c0.4-2.2,0.9-4.5,1.4-6.7
		c0.2-1,0.5-2,0.7-2.9c0.6-2.2,1.3-4.5,1.9-6.6c0.2-0.5,0.3-1,0.5-1.5c0.1-0.2,0.3-0.4,0.5-0.5c0,0,0,0,0,0c0.1,0,0.2,0,0.3,0
		c0.6-0.1,1.2,0,1.9,0c0.6,0,1.2,0.1,1.9,0c0.6,0,1.2,0,1.9,0c1.2,0,2.5,0,3.7,0.1c0.6,0,1.2,0,1.9,0.1l3.7,0.1
		c3.7,0.1,7.4,0.2,11.2,0.3c1.9,0.1,3.7,0.1,5.6,0.2c0.6,0,1.3-0.1,1.9,0.1l3.7,0.1l0.1,0c0.5,0.1,0.7,0.5,0.7,1
		c0,0.5,0,1.1,0.1,1.6c0,1,0.1,2,0.1,2.9c0.1,2.6,0.2,5.2,0.2,7.8c0,2,0,4.1,0,6.1c0,4.2-0.2,8.3-0.5,12.5c-0.1,0.8-0.1,1.5-0.2,2.3
		c-0.1,0.7-0.2,1.5-0.2,2.2c0-0.7,0-1.3,0-2c0-0.9,0-1.8,0-2.7c0-2.9-0.1-5.7-0.1-8.6c-0.2-7.4-0.5-14.9-1-22.3
		c0,0.2,0.1,0.4,0.3,0.6c0,0,0.1,0.1,0.2,0.1c0,0,0.1,0.1,0.1,0.1c0.1,0,0.1,0,0.2,0c0,0,0.1,0,0.1,0c-12.4-0.2-24.8-0.5-37.2-0.9
		c0.4,0,0.7-0.2,0.8-0.6c-0.5,1.5-1,3-1.4,4.5c-0.8,2.5-1.5,5.1-2.2,7.7c-0.5,1.8-0.9,3.7-1.3,5.6
		C150.3,286.8,149.2,292.6,147.9,298.4z"/>
	<path fill-rule="evenodd" clip-rule="evenodd" fill="#FFE0BD" d="M104.2,261.8l70.8,1.7c-9.3,10.3-19.9,19.6-21.3,28.4
		c0,0.2-0.1,0.5-0.1,0.7l-49-1.2C103.9,280.8,103.8,270.3,104.2,261.8z"/>
	<path fill="#545E80" d="M105,297.4c-0.8-5.1-1.2-10.2-1.5-15.3c-0.3-4.3-0.4-8.6-0.4-12.9c0-2.1,0-4.2,0.1-6.4c0-0.3,0-0.5,0-0.8
		c0-0.1,0-0.2,0-0.3c0-0.1,0.1-0.3,0.1-0.4c0,0,0.1-0.2,0.2-0.2l0.2-0.1c0,0,0,0,0.1,0c0.1,0,0.3,0,0.3-0.1c1.2-0.2,2.4,0.3,3.5,0.1
		c1.2-0.2,2.4,0.2,3.5,0.1c1.2-0.1,2.4,0,3.5,0.1l7.1,0.1c1.2,0,2.4,0.1,3.5,0.1l7.1,0.2c2.4,0.1,4.7,0.1,7.1,0.2
		c2.4,0.1,4.7,0.2,7.1,0.3c5.3,0.2,10.6,0.4,15.9,0.6c1.2,0.1,2.4,0.1,3.5,0.2c1.8,0.1,3.5,0.2,5.3,0.4c0.4,0,3.1,0.2,3.5,0.2
		c-1.8,0-3.5,0.1-5.3,0.1l-3.5,0.1c-1.8,0-3.5,0-5.3,0c-5.9,0-11.8-0.1-17.7-0.2c-1.2,0-2.4,0-3.5,0l-7.1-0.1
		c-9.4-0.2-18.9-0.5-28.3-0.7c0.1,0,0.3,0,0.3-0.1c0,0,0.3-0.2,0.3-0.2c0,0,0.1-0.1,0.1-0.2c0,0,0.1-0.1,0.1-0.1c0,0,0-0.1,0.1-0.2
		l0-0.1c-0.1,0.9-0.1,1.7-0.1,2.6c-0.1,2.1-0.1,4.1-0.2,6.2c-0.1,4.9-0.1,9.9,0.1,14.8C104.8,289.5,105,293.4,105,297.4z"/>
	<path fill-rule="evenodd" clip-rule="evenodd" fill="#E0A1A1" d="M106.9,203.3c-1.1,2.9-3.3,13.4-3.6,25.4
		c-0.3,11.9-0.3,23.6,0.1,28.7c0.4,5.1,1.7,9.2,9.8,9.5c8,0.3,25.4,1.3,31.7,2.9c6.3,1.6,7.3,1.9,7.2,4.4c-0.1,2.5,0.1,6.1,6.6,7.9
		c6.4,1.8,23.1,5.2,29.5-3.6c6.4-8.9,6.6-9.5,4.9-23.7c-1.6-14.1-0.7-23.9-1.5-31.7c-0.8-7.8-2.5-17.9-2.5-17.9
		S122.4,202.4,106.9,203.3z"/>
	<path fill="#545E80" d="M106.9,203.3c-0.1,0.3-0.2,0.6-0.3,0.9c-0.2,0.8-0.4,1.5-0.5,2.3c-0.4,1.7-0.6,3.4-0.9,5.1
		c-0.5,3-0.8,6.1-1.1,9.2c-0.2,2.6-0.3,5.2-0.4,7.8c-0.1,3.8-0.1,7.6-0.1,11.3c0,1.9,0,3.9,0,5.8c0,2.3,0.1,4.5,0.2,6.8
		c0.1,1.6,0.1,3.2,0.3,4.8c0.2,2,0.5,3.8,1.5,5.5c0.3,0.5,0.7,1,1.2,1.4c0.3,0.3,0.7,0.5,1.1,0.7c0.7,0.4,1.4,0.6,2.2,0.8
		c1,0.3,2.2,0.4,3.3,0.4c0.3,0,0.5,0,0.8,0c0.5,0,0.9,0,1.4,0.1c1.3,0.1,2.6,0.1,3.9,0.2c3.3,0.2,6.7,0.4,10,0.6
		c1.8,0.1,3.5,0.3,5.3,0.4c2.1,0.2,4.3,0.4,6.4,0.7c1.4,0.2,2.9,0.4,4.3,0.8c1.5,0.4,3.1,0.7,4.6,1.2c0.9,0.3,1.9,0.7,2.5,1.3
		c0.9,1,0.8,2.2,0.8,3.5c0,0.5,0.1,1,0.2,1.5c0.1,0.4,0.2,0.8,0.4,1.1c1,2,3.4,3.1,5.4,3.6c2,0.6,4.1,1,6.1,1.4
		c1.1,0.2,2.3,0.4,3.5,0.5c1.1,0.1,2.2,0.2,3.2,0.2c2.1,0.1,4.2,0,6.3-0.3c0.6-0.1,1.1-0.2,1.7-0.3c0.7-0.2,1.4-0.4,2.1-0.6
		c0.9-0.3,1.7-0.8,2.5-1.3c0.5-0.3,1-0.7,1.5-1.1c0.6-0.5,1.1-1.1,1.6-1.8c0,0,0,0,0,0c0.9-1.2,1.7-2.3,2.5-3.5
		c0.7-1.1,1.5-2.3,2-3.4c0.2-0.5,0.4-0.9,0.5-1.4c0.1-0.1,0.1-0.3,0.1-0.5c0.2-0.8,0.4-1.7,0.4-2.5c0.1-1.2,0.1-2.4,0-3.6
		c-0.1-0.9-0.1-1.9-0.2-2.8c-0.1-0.7-0.1-1.3-0.2-2c-0.1-1.5-0.3-3-0.5-4.5c-0.3-2.5-0.5-5.1-0.6-7.7c-0.2-3.7-0.3-7.3-0.3-11
		c0-1.4,0-2.7,0-4.1c0-1.4,0-2.7-0.1-4.1c0-0.8-0.1-1.5-0.1-2.3c0-0.5-0.1-0.9-0.1-1.4v0c-0.2-2-0.5-4-0.7-6
		c-0.2-1.9-0.5-3.8-0.8-5.8c-0.3-2.1-0.7-4.2-1-6.3c0.3,0.3,0.5,0.5,0.8,0.8c0,0-0.1,0-0.2,0c-0.2,0-0.4,0-0.5,0
		c-0.5,0-1-0.1-1.5-0.1c-1.5-0.1-3-0.1-4.4-0.2c-5-0.2-10-0.4-15-0.6c-4.8-0.2-9.6-0.4-14.4-0.6c-5.3-0.2-10.6-0.4-15.9-0.6
		c-3.9-0.1-7.8-0.3-11.7-0.4c-2.3-0.1-4.5-0.1-6.7-0.2c-2.1,0-4.2-0.1-6.3-0.1c-1.3,0-2.6,0-3.9,0c-0.4,0-0.8,0-1.1,0
		C107.3,203.3,107.1,203.3,106.9,203.3C106.9,203.3,106.9,203.3,106.9,203.3c0.3,0,0.5,0,0.8-0.1c0.3,0,0.6,0,0.9-0.1
		c1-0.1,2-0.1,3-0.1c1.1,0,2.1-0.1,3.2-0.1c1.7-0.1,3.3,0,5-0.1c1.4,0,2.8,0,4.1,0c2.6,0,5.2,0,7.8,0c2.6,0,5.1,0.1,7.7,0.1
		c4.9,0.1,9.8,0.2,14.6,0.3c8.3,0.2,16.5,0.5,24.7,0.7c2.3,0.1,4.6,0.2,6.9,0.2c1.4,0.1,2.9,0.1,4.3,0.1c0,0.3,0,0.5,0,0.8
		c0,0,0-0.1,0-0.1c0.1,0.2,0.1,0.5,0.1,0.7c0.1,0.5,0.1,0.9,0.2,1.4c0.1,0.8,0.3,1.7,0.4,2.5c0.1,0.6,0.2,1.2,0.3,1.7
		c0.2,1.1,0.3,2.3,0.5,3.4c0.4,2.7,0.8,5.5,1,8.2c0.3,2.8,0.4,5.6,0.4,8.5c0,1.1,0,2.3,0,3.5c0,1.6,0,3.3,0.1,4.9
		c0.1,2.1,0.1,4.2,0.3,6.3c0.1,2.1,0.3,4.3,0.5,6.4c0.2,2.1,0.5,4.3,0.7,6.4c0.2,1.7,0.4,3.5,0.4,5.2c0,1.4,0,2.7-0.2,4.1
		c-0.1,0.6-0.2,1.2-0.4,1.8c-0.5,1.7-1.4,3.4-2.4,4.9c-0.7,1-1.3,2-2,2.9c-0.4,0.5-0.8,1.1-1.2,1.7c-0.4,0.5-0.9,1-1.4,1.5
		c-0.3,0.2-0.5,0.5-0.8,0.7c-1.5,1.2-3.3,2-5.1,2.6c-0.7,0.2-1.5,0.4-2.2,0.6c-0.3,0.1-0.5,0.1-0.8,0.1c-0.6,0.1-1.3,0.2-2,0.3
		c-0.2,0-0.4,0-0.7,0.1c-0.7,0.1-1.5,0.1-2.2,0.1c-3.1,0-6.4-0.3-9.5-0.9c-1.3-0.3-2.6-0.5-3.9-0.9c-0.6-0.1-1.2-0.3-1.8-0.5
		c-3-0.9-6-2.4-6.9-5.6c-0.3-1-0.3-2.1-0.3-3.1v0c0-0.4,0-0.8-0.1-1.1c-0.1-0.4-0.5-0.6-0.8-0.8c-0.5-0.3-1.2-0.5-1.8-0.7
		c-0.3-0.1-0.7-0.2-1-0.3c-0.9-0.2-1.9-0.5-2.8-0.7l0,0c-0.4-0.1-0.8-0.2-1.1-0.3c-0.5-0.1-1.1-0.2-1.6-0.3
		c-1.7-0.3-3.4-0.5-5.1-0.7c-1.7-0.2-3.5-0.4-5.2-0.5c-3.4-0.3-6.7-0.6-10.1-0.8c-1.6-0.1-3.2-0.2-4.8-0.3c-0.7,0-1.3-0.1-2-0.1
		c-1.2-0.1-2.4-0.1-3.6-0.3c-2.3-0.3-4.8-1.2-6.3-3.1c-0.4-0.6-0.7-1.1-1-1.7c-0.7-1.6-0.9-3.4-1.1-5.2c0-0.5-0.1-1.1-0.1-1.7
		c-0.1-1.3-0.1-2.6-0.1-3.8c-0.1-2.3-0.1-4.5,0-6.8c0-5.3,0.1-10.5,0.3-15.7c0.2-5.7,0.7-11.4,1.7-17c0.3-1.6,0.6-3.2,1-4.8
		C106,206.2,106.4,204.8,106.9,203.3z"/>
	<path fill-rule="evenodd" clip-rule="evenodd" fill="#FAC73D" d="M173.2,113.6c0.9-0.7,1.3-1.6,1.3-2.6l16-45.8
		c0-8.8-3.7-17.7-11.2-24.5c-15.2-14-40.3-14.4-56-0.8c-8,6.9-12.1,16.1-12.1,25.4l13,45.8c0,0.8,0.3,1.6,0.9,2.2
		c0.7,0.8,1.8,1.2,2.9,1.2c23.9-7.1,18.8-2.2,42.7,0C171.6,114.4,172.5,114.1,173.2,113.6z"/>
	<path fill-rule="evenodd" clip-rule="evenodd" fill="#DBAD3D" d="M166.7,113.6c0.7-0.7,1.1-1.6,1.1-2.6l16-45.8
		c0-8.8-3.1-17.7-9.3-24.5c-12.7-14-33.5-14.4-46.6-0.8c-6.7,6.9-10,16.1-10,25.4l13,45.8c0,0.8,0.2,1.6,0.7,2.2
		c0.6,0.8,1.5,1.2,2.4,1.2c19.9-7.1,10.7-2.2,30.6,0C165.4,114.4,166.2,114.1,166.7,113.6z"/>
	<path fill-rule="evenodd" clip-rule="evenodd" fill="none" d="M125.6,113.6c-0.9-0.7-1.3-1.6-1.3-2.6l-13-45.8
		c0-8.8,3.7-17.7,11.1-24.5c15.2-14,40.3-14.4,56-0.8c8,6.9,12.1,16.1,12.1,25.4l-16,45.8c0,0.8-0.3,1.6-0.9,2.2
		c-0.7,0.8-1.8,1.2-2.9,1.2c-6.1-1.8-12.2-2.9-18.3-3.3c14.8-10.2,29.5-34,29.5-44.5c0-13.6-9.6-23.5-30.9-23.5
		c-21.4,0-30.9,9.9-30.9,23.5c0,10.9,11.6,36.3,28.3,45.7c-6.8,0.7-13.6,1.6-20.3,2.2C127.2,114.4,126.3,114.1,125.6,113.6z"/>
	<path fill-rule="evenodd" clip-rule="evenodd" fill="#545E80" d="M170.3,114.9c-0.3-0.1-0.5-0.2-0.8-0.2c-1-0.3-2-0.5-3-0.8
		c-1.1-0.3-2.2-0.5-3.3-0.7c-0.7-0.1-1.3-0.3-2-0.4c-1.3-0.2-2.6-0.4-3.9-0.6c-1-0.1-2-0.2-3-0.3c-0.8-0.1-1.7-0.2-2.5-0.2
		c0.5-0.3,1-0.6,1.4-1c2.3,0.2,4.7,0.5,7,0.8c1.5,0.2,2.9,0.5,4.4,0.8c1.4,0.3,2.7,0.6,4.1,0.9c0.7,0.2,1.5,0.4,2.2,0.6
		c0.7,0,1.2-0.2,1.7-0.5c0.1-0.1,0.2-0.1,0.3-0.2c0.1-0.1,0.2-0.2,0.3-0.3c0.1-0.1,0.1-0.1,0.2-0.2c0.2-0.3,0.5-0.8,0.5-1.1
		c0-0.1,0-0.3,0-0.4c-0.1-15.3,15.9-30.5,15.9-45.8c0,0,0,0,0,0c0-1.7-0.1-3.4-0.4-5.1c-0.2-1.3-0.5-2.5-0.9-3.8
		c-0.1-0.5-0.3-1-0.5-1.4c-0.2-0.6-0.4-1.1-0.6-1.7c-0.3-0.8-0.7-1.5-1.1-2.3c-0.4-0.8-0.9-1.7-1.4-2.4c-0.1-0.1-0.2-0.3-0.3-0.5
		c-0.3-0.5-0.7-1.1-1.1-1.6c-0.9-1.2-1.9-2.4-2.9-3.5c-0.4-0.5-0.9-0.9-1.3-1.3c-0.5-0.4-0.9-0.9-1.4-1.3c-0.5-0.4-1-0.8-1.5-1.2
		c-0.4-0.3-0.8-0.6-1.1-0.9c-2.4-1.7-5.1-3.2-7.8-4.4c-9.2-3.9-19.9-4.4-29.4-1.5c-2.1,0.6-4.1,1.4-6.1,2.4c-2.6,1.3-5,2.7-7.3,4.5
		c-0.7,0.6-1.4,1.2-2.1,1.8c-0.9,0.8-1.8,1.7-2.6,2.6c-1.2,1.3-2.2,2.7-3.2,4.1c-2.4,3.7-4.2,8-4.9,12.5c-0.3,1.6-0.4,3.2-0.4,4.9
		c-0.1,15.3,12.8,30.5,12.6,45.8c0,1,0.5,2,1.3,2.6c0,0,0,0,0,0c0.1,0.1,0.2,0.1,0.2,0.2c0.6,0.4,1.5,0.6,2.2,0.6
		c6-0.7,11.9-1.4,17.9-2.1c0.7-0.1,1.3-0.2,2-0.2c0.3,0.2,0.6,0.4,1,0.5c-0.7,0.1-1.3,0.1-2,0.2c-3.4,0.3-6.7,0.7-10.1,1
		c-2.9,0.3-5.8,0.5-8.8,0.7c-0.7,0-1.4-0.2-2-0.5c-0.2-0.1-0.3-0.2-0.5-0.3c0,0,0,0,0,0c-0.6-0.4-1-1-1.2-1.7c0-0.1-0.1-0.2-0.1-0.3
		c0-0.2,0-0.4-0.1-0.6c-0.3-15.3-13.3-30.5-13.4-45.8c0-1.4,0.1-2.7,0.2-4.1c0.1-0.5,0.1-1,0.2-1.5c0.1-0.4,0.1-0.8,0.2-1.3
		c0.1-0.6,0.3-1.2,0.4-1.8c0.1-0.5,0.3-1.1,0.5-1.6c0.2-0.7,0.5-1.4,0.7-2c0.2-0.5,0.4-0.9,0.6-1.4c0.6-1.4,1.4-2.7,2.2-4
		c0.4-0.7,0.9-1.3,1.3-1.9c0.5-0.7,1-1.3,1.5-2c1.4-1.7,3-3.2,4.7-4.6c1.1-0.9,2.3-1.8,3.4-2.6c0.4-0.3,0.9-0.6,1.3-0.8
		c0.5-0.3,1-0.6,1.5-0.9c0.8-0.4,1.6-0.8,2.4-1.2c3-1.4,6.2-2.5,9.5-3.2c1.5-0.3,3.1-0.6,4.7-0.7c0.6-0.1,1.2-0.1,1.8-0.1
		c0.6-0.1,1.1-0.1,1.7-0.1c1.5,0,3.1,0,4.6,0.1c0.6,0,1.1,0.1,1.7,0.2c0.2,0,0.5,0.1,0.7,0.1c0.3,0,0.6,0.1,0.9,0.1
		c0.5,0.1,1.1,0.2,1.6,0.3c0.9,0.2,1.8,0.3,2.6,0.6c1.2,0.3,2.3,0.6,3.4,1c0.9,0.3,1.8,0.6,2.6,1c1,0.4,1.9,0.8,2.9,1.3
		c0.2,0.1,0.4,0.2,0.7,0.3c0.6,0.3,1.1,0.6,1.7,0.9c0.5,0.3,0.9,0.6,1.4,0.9c0.5,0.3,1,0.6,1.5,1c0.5,0.3,0.9,0.7,1.4,1
		c0.7,0.5,1.4,1.1,2,1.7c0.4,0.4,0.9,0.8,1.3,1.1c0.4,0.4,0.8,0.8,1.2,1.2c1.1,1.1,2,2.3,2.9,3.6c1.3,1.8,2.5,3.7,3.4,5.8
		c0.2,0.4,0.4,0.9,0.6,1.3c0.2,0.5,0.4,1,0.5,1.4c0.1,0.2,0.2,0.4,0.2,0.7c0.2,0.7,0.4,1.3,0.6,2c0.2,0.8,0.4,1.6,0.5,2.4
		c0.1,0.8,0.3,1.6,0.4,2.5c0.1,1.2,0.2,2.3,0.2,3.5c0,0.3,0,4.3,0,4.6v4.6c0,2.3-3,4.6-3,6.9c0,5.3,0,10.7,0,16c0,2.3-13,4.6-13,6.9
		c0,0.8,0,1.5,0,2.3c0,1.4,0,3.2,0,4.6c0,0.2,0,0.5-0.1,0.7c-0.2,0.9-0.7,1.7-1.4,2.3c-0.8,0.7-1.9,1-2.9,1c0,0-0.1,0-0.1,0
		C170.5,115,170.4,114.9,170.3,114.9z M170.8,113.8C170.8,113.8,170.7,113.8,170.8,113.8C170.8,113.8,170.8,113.8,170.8,113.8
		C170.9,113.8,170.8,113.8,170.8,113.8z M125.6,113.6 M173.2,112.8C173.2,112.8,173.2,112.8,173.2,112.8L173.2,112.8
		C173.2,112.8,173.2,112.8,173.2,112.8z M173.9,111C173.9,111,173.9,111,173.9,111L173.9,111C173.9,111,173.9,111,173.9,111z
		 M122.8,41.2L122.8,41.2C122.8,41.2,122.8,41.2,122.8,41.2S122.8,41.2,122.8,41.2z M178,40.4C178,40.5,178,40.5,178,40.4L178,40.4
		C178,40.5,178,40.5,178,40.4z"/>
	<path fill-rule="evenodd" clip-rule="evenodd" fill="none" d="M85.6,221.4c0-0.5-2.3-42.6-2.3-43.1c-0.8-11.3,3-23,11.5-32.1
		c3.8-4,8.2-7.3,12.9-9.6"/>
	<path fill-rule="evenodd" clip-rule="evenodd" fill="#FAC73D" d="M118.4,38.1c-8.2,0.6-19.7,6.5-17.6,22.1
		c1.7,13,1.3,16.1-7.6,21.5c-6.1,3.6-11.4,0.5-14.2-5c-4.7,6.1,0.4,23.4,10.7,29c16.9,9.1,39.9-12,40.5-31.3
		C130.9,54.3,146.2,36.1,118.4,38.1z"/>
	<path fill="#545E80" d="M118.4,38.1c-0.8,0.1-1.6,0.2-2.4,0.4c-0.7,0.1-1.4,0.4-2.1,0.6c-0.4,0.1-0.9,0.3-1.3,0.5
		c-1.1,0.5-2.3,1-3.3,1.7c-0.5,0.3-0.9,0.6-1.4,0.9c-0.4,0.3-0.8,0.7-1.2,1c-0.8,0.7-1.6,1.6-2.3,2.4c-3.2,4.3-3.8,9.4-3.1,14.6
		c0,0.4,0.1,0.8,0.2,1.2c0.1,0.9,0.2,1.8,0.4,2.8c0.2,1.9,0.4,3.7,0.4,5.6c0,2.3-0.5,4.8-1.7,6.7c-0.2,0.4-0.5,0.7-0.8,1.1
		c-1.2,1.3-2.5,2.4-3.9,3.4c-1.2,0.8-2.6,1.7-4,2.3c-2.6,1.1-5.2,1.1-7.7-0.1c-2-0.9-3.7-2.7-4.9-4.5c-0.3-0.5-0.7-1-0.9-1.6
		c0.5,0,0.9,0.1,1.4,0.1c-0.1,0.2-0.3,0.4-0.4,0.5c-0.1,0.3-0.3,0.5-0.4,0.8c-0.2,0.4-0.3,0.9-0.5,1.4c-0.5,1.9-0.4,3.9-0.2,5.9
		c0.1,0.7,0.2,1.5,0.4,2.2c0.3,1.4,0.8,2.9,1.3,4.3c2,5,5.3,10,10.2,12.6c0,0,0,0,0,0c1.3,0.7,2.7,1.3,4.2,1.6
		c0.4,0.1,0.8,0.2,1.2,0.3c1,0.2,2,0.2,3,0.2c1.1,0,2.2-0.1,3.3-0.3c0.8-0.1,1.6-0.3,2.5-0.5c0.5-0.1,1-0.3,1.5-0.5
		c0.4-0.1,0.8-0.3,1.1-0.4c1.4-0.5,2.8-1.3,4.1-2c2.6-1.5,4.9-3.4,7.1-5.5c0.9-0.9,1.7-1.8,2.6-2.7c0.4-0.4,0.8-0.9,1.1-1.3
		c0.5-0.7,1-1.3,1.5-2c0.5-0.8,1-1.6,1.5-2.4c0.5-0.7,0.9-1.5,1.3-2.3c0.6-1.1,1.1-2.3,1.5-3.4c0.4-1,0.8-2.1,1-3.2
		c0.4-1.4,0.7-2.9,0.8-4.3c0.1-0.6,0.1-1.1,0.1-1.7c0.2-3.4,0.7-6.7,1.4-10c0.5-2.1,1-4.1,1.5-6.2c0.3-1.3,0.7-2.5,1-3.8
		c0.2-0.9,0.4-1.8,0.6-2.8c0.1-0.7,0.3-1.4,0.4-2.2c0.1-0.5,0.1-1.2,0.2-1.7c0-0.5,0.1-1,0-1.5c-0.1-1.3-0.3-2.6-0.9-3.7
		c-0.1-0.3-0.3-0.5-0.5-0.8c-0.3-0.4-0.6-0.7-1-1c-0.1-0.1-0.2-0.2-0.3-0.3c-0.1-0.1-0.3-0.2-0.4-0.3c-0.5-0.3-1-0.5-1.5-0.7
		c-1.4-0.6-3-0.9-4.5-1.1c-1.1-0.1-2.3-0.2-3.4-0.2c-0.3,0-0.7,0-1,0C120.2,38,119.3,38,118.4,38.1L118.4,38.1c0.3,0,0.6-0.1,1-0.1
		c0.5,0,1-0.1,1.5-0.1c1.9-0.1,3.9-0.1,5.8,0.1c1.3,0.2,2.4,0.4,3.6,0.8c0.9,0.3,1.8,0.8,2.5,1.4c0.4,0.3,0.9,0.8,1.2,1.3
		c0.1,0.1,0.2,0.2,0.2,0.3c0.2,0.3,0.4,0.6,0.5,0.9c0.2,0.5,0.4,1.1,0.5,1.6c0,0.1,0.1,0.3,0.1,0.4c0.1,0.5,0.1,1.1,0.2,1.6
		c0.1,1.9-0.2,3.6-0.5,5.4c-0.1,0.6-0.2,1.3-0.4,1.9c-0.2,1.1-0.5,2.1-0.7,3.2c-0.4,1.5-0.7,3-1.1,4.5c-0.4,1.6-0.7,3.2-1,4.8
		c-0.3,1.8-0.6,3.6-0.8,5.4c-0.1,1.2-0.1,2.4-0.2,3.6c0,0.2,0,0.5-0.1,0.7c0,0.5-0.1,0.9-0.2,1.4c-0.2,1.2-0.4,2.3-0.7,3.5
		c-0.2,0.9-0.5,1.7-0.8,2.5c-0.2,0.6-0.5,1.2-0.7,1.8c-0.2,0.5-0.5,1.1-0.7,1.6c-0.5,1.2-1.2,2.3-1.8,3.5
		c-3.9,6.6-9.7,12.3-16.6,15.7c-4.4,2.2-9.6,3.3-14.5,2.4c-1.6-0.3-2.9-0.7-4.4-1.4c-3.7-1.6-6.7-4.6-8.9-7.9
		c-0.4-0.5-0.7-1.1-1-1.6c-0.5-0.9-1-1.8-1.4-2.7c-0.3-0.7-0.6-1.3-0.8-2c-0.2-0.6-0.4-1.2-0.6-1.8c-0.1-0.4-0.3-0.9-0.4-1.3
		c-0.2-0.6-0.3-1.2-0.4-1.8c-0.1-0.6-0.2-1.2-0.3-1.7c-0.3-2-0.3-4.2,0.1-6.2c0.1-0.5,0.3-1.1,0.5-1.6c0.2-0.5,0.4-1,0.7-1.5
		c0.4-0.6,0.8-1.2,1.2-1.7c0.5,0.9,0.9,1.8,1.5,2.6c1.2,1.8,2.6,3.2,4.6,4.1c0.3,0.1,0.7,0.3,1,0.4c0.4,0.1,0.9,0.2,1.4,0.2
		c0.8,0,1.5,0,2.3-0.2c0.3-0.1,0.6-0.2,0.9-0.3c0.7-0.2,1.5-0.6,2.1-1c0,0,0,0,0,0c2.8-1.6,6.2-3.8,7.3-7c0.1-0.3,0.3-0.7,0.3-1.1
		c0-0.2,0.1-0.3,0.1-0.5c0.1-0.4,0.1-0.8,0.2-1.2c0-0.3,0.1-0.7,0.1-1c0.1-0.7,0.1-1.5,0-2.2c-0.1-1.8-0.3-3.7-0.4-5.5
		c-0.1-1-0.3-2-0.4-3c-0.2-2.5-0.2-4.9,0.4-7.3c0.2-0.7,0.3-1.4,0.6-2.1c0.3-0.7,0.5-1.4,0.9-2.1c0.3-0.6,0.7-1.2,1.1-1.8
		c0.5-0.7,0.9-1.3,1.5-1.9c0.3-0.3,0.6-0.6,0.9-0.9c0.7-0.7,1.5-1.3,2.3-1.8c1.3-0.9,3-1.7,4.5-2.2c1.5-0.5,3.1-0.9,4.7-1.1
		C117.4,38.1,117.9,38.1,118.4,38.1z"/>
	<path fill-rule="evenodd" clip-rule="evenodd" fill="#FFE0BD" stroke="#545E80" stroke-width="1.12" stroke-miterlimit="10" d="
		M130.3,123c-3.3,7.3,5.8,19,18.9,32.1c13.8-10.8,24.5-21.4,20.4-31.1C169.6,123.9,149.4,116.2,130.3,123z"/>
	<path fill-rule="evenodd" clip-rule="evenodd" fill="#E5B282" d="M134.1,126.2L134.1,126.2l-2.9-5.6c18.9-8.6,39.3,0,39.3,0
		l-2.9,5.6h0c-4.6,1.9-10.1,3-16.7,3C144.2,129.2,138.7,128.1,134.1,126.2z"/>
	<path fill-rule="evenodd" clip-rule="evenodd" fill="#FFE0BD" stroke="#545E80" stroke-width="1.12" stroke-miterlimit="10" d="
		M190.2,64.2c0-16.6-12.2-28.8-39.3-28.8c-27.2,0-39.3,12.2-39.3,28.8c0,16.6-2.8,60.5,39.3,60.5C193,124.7,190.2,80.8,190.2,64.2z"
		/>
	<path fill-rule="evenodd" clip-rule="evenodd" fill="#545E80" d="M156.8,116c-1.5,0-2.3-1.1-2.3-0.6c0,0.5,0.4,1.5,2.3,1.5
		s2.3-1,2.3-1.5C159.2,114.9,158.3,116,156.8,116z"/>
	<path fill-rule="evenodd" clip-rule="evenodd" fill="#E5B282" d="M135.1,84.1c1.7-1.6,4.4-1.5,5.9,0.3c1.6,1.7,1.4,2.4-0.3,3.9
		c-1.7,1.6-4.3,1.5-5.9-0.3C133.3,86.3,133.4,85.7,135.1,84.1z"/>
	
		<path fill-rule="evenodd" clip-rule="evenodd" fill="none" stroke="#545E80" stroke-width="1.12" stroke-linecap="round" stroke-linejoin="round" stroke-miterlimit="10" d="
		M161.5,98.5c-2.7,2.4-5.5,2.3-8.4,0"/>
	
		<path fill-rule="evenodd" clip-rule="evenodd" fill="none" stroke="#545E80" stroke-width="1.12" stroke-linecap="round" stroke-linejoin="round" stroke-miterlimit="10" d="
		M171,72.4c5.4-1,10.5-0.1,15.2,2.6"/>
	<path fill-rule="evenodd" clip-rule="evenodd" fill="#E5B282" d="M173.5,84.1c1.7-1.6,4.4-1.5,5.9,0.3c1.6,1.7,1.4,2.4-0.3,3.9
		c-1.7,1.6-4.4,1.5-5.9-0.3C171.7,86.3,171.8,85.7,173.5,84.1z"/>
	<path fill-rule="evenodd" clip-rule="evenodd" fill="none" d="M102,123c-1.1-0.8-1.7-2-1.7-3.1V63.7c0-10.8,4.7-21.7,14.2-30.1
		c19.4-17.1,51.3-17.6,71.3-1c10.2,8.5,15.3,19.8,15.3,31.1v56.1c0,0.9-0.4,1.9-1.1,2.7c-1,0.9-2.3,1.4-3.7,1.4
		c-7.8-2.2-15.5-3.5-23.3-4.1c18.8-12.5,17.1-41.7,17.1-54.6c0-16.6-12.2-28.8-39.3-28.8c-27.2,0-39.4,12.2-39.4,28.8
		c0,13.4-1.8,44.4,19.5,56c-8.6,0.9-17.3,1.9-25.9,2.7C104,124,102.9,123.6,102,123z"/>
	
		<path fill-rule="evenodd" clip-rule="evenodd" fill="none" stroke="#545E80" stroke-width="1.12" stroke-linecap="round" stroke-linejoin="round" stroke-miterlimit="10" d="
		M171,72.4c5.4-1,10.5-0.1,15.2,2.6"/>
	<path fill-rule="evenodd" clip-rule="evenodd" fill="#002E4C" d="M173.5,81.1c1.7-1.6,4.4-1.4,5.9,0.3c1.6,1.7,1.4,4.4-0.3,5.9
		c-1.7,1.6-4.4,1.4-5.9-0.3C171.7,85.3,171.8,82.7,173.5,81.1z"/>
	<path fill-rule="evenodd" clip-rule="evenodd" fill="#FFFFFF" d="M176.8,84.6c0.5-0.4,1.2-0.4,1.6,0.1c0.4,0.5,0.4,1.2-0.1,1.6
		c-0.5,0.4-1.2,0.4-1.6-0.1C176.3,85.7,176.4,85,176.8,84.6z"/>
	
		<path fill-rule="evenodd" clip-rule="evenodd" fill="none" stroke="#545E80" stroke-width="1.12" stroke-linecap="round" stroke-linejoin="round" stroke-miterlimit="10" d="
		M131.5,72.4c5.4-1,10.5-0.1,15.2,2.6"/>
	<path fill-rule="evenodd" clip-rule="evenodd" fill="#002E4C" d="M134,81.1c1.7-1.6,4.4-1.4,5.9,0.3c1.6,1.7,1.5,4.4-0.3,5.9
		c-1.7,1.6-4.4,1.4-5.9-0.3C132.2,85.3,132.3,82.7,134,81.1z"/>
	<path fill-rule="evenodd" clip-rule="evenodd" fill="#FFFFFF" d="M138.3,84.6c0.5-0.4,1.2-0.4,1.6,0.1c0.4,0.5,0.4,1.2-0.1,1.6
		c-0.5,0.4-1.2,0.4-1.6-0.1C137.8,85.7,137.9,85,138.3,84.6z"/>
	<path fill-rule="evenodd" clip-rule="evenodd" fill="none" d="M187.9,223.7c0-0.5,1.1-42.7,1.1-43.1c0.5-11.4-3.7-22.9-12.4-31.8
		c-3.9-3.9-8.4-7-13.2-9.2"/>
	<path fill-rule="evenodd" clip-rule="evenodd" fill="none" d="M188,220.6c0-0.5,1.1-42.7,1.1-43.1c0.5-11.4-3.7-22.9-12.5-31.8
		c-3.9-3.9-8.4-7-13.2-9.2"/>
	
		<path fill-rule="evenodd" clip-rule="evenodd" fill="none" stroke="#545E80" stroke-width="1.12" stroke-linecap="round" stroke-linejoin="round" stroke-miterlimit="10" d="
		M148.1,109.6c4.9,2.5,10,2.4,15.4,0"/>
	
		<path fill-rule="evenodd" clip-rule="evenodd" fill="none" stroke="#545E80" stroke-width="1.12" stroke-linecap="round" stroke-linejoin="round" stroke-miterlimit="10" d="
		M148.7,108c-0.1,1-0.6,1.9-1.7,2.8"/>
	<path fill-rule="evenodd" clip-rule="evenodd" fill="#96CC8A" d="M183.2,127.7c3.1,0.5,3.5,0.8,5.5,5.2c1.4,3,2.1,9.1,3.6,13.5
		c3.4,9.9,1.9,18.2-3.2,23.5c-2.1,2.2-1.6,5.8-1.9,8.1c-0.7,5.5-2,14.7-0.3,19.9c1.7,5.1,4.6,18.4,5.2,21.4c0.6,3-7.2,4.3-18.5,5.6
		c-11.2,1.3-45.7,1.1-54.6-0.4c-9-1.5-17.6-3-16.5-6c1.1-3,4.9-20.8,4.7-26c-0.2-5.2-1.8-15.1-3.2-19.8c-1.5-4.7-2.8-7.2-1.7-9.1
		c1-1.9,4-7.8,7.4-17.7c3.4-9.9,4.2-17.2,2.1-19.5c-2.1-2.3-6.7-2.3-4-3c2.7-0.7,15.5-2.4,18.7-3.4c3.2-1,3.5-0.4,3.4,1.8
		c-0.1,2.2,3,10.2,10.7,15.1c7.7,4.8,11.8,6.6,14.3,5.9c2.4-0.7,12.7-5.5,14.8-10.3c2.1-4.8,0.8-6.7-0.7-8.2
		c-1.5-1.5-1.6-1.5,1.8-0.7C174.4,124.7,179.4,127,183.2,127.7z"/>
	<path fill="#545E80" d="M183.2,127.7c0.9,0.2,1.6,0.2,2.4,0.6c0.5,0.3,1,0.7,1.4,1.2c0.1,0.1,0.2,0.3,0.3,0.4
		c0.1,0.3,0.3,0.5,0.4,0.7c0.1,0.2,0.3,0.5,0.4,0.7c0.3,0.5,0.5,1,0.8,1.5c0.7,1.5,1.1,3.3,1.5,4.9c0.5,2.3,1,4.6,1.7,6.8
		c0.3,1.2,0.8,2.4,1.1,3.6c0.3,0.9,0.5,1.8,0.7,2.7c0.1,0.5,0.2,1,0.3,1.5c0.1,0.5,0.1,1,0.2,1.5c0.1,0.6,0.1,1.1,0.1,1.7
		c0.1,3.8-0.4,7.2-2.1,10.6c-0.5,1.1-1.3,2.2-2,3.1c-0.3,0.3-0.6,0.7-0.9,1c-1.9,2.1-1.4,5.5-1.7,8.1c-0.3,2.4-0.6,4.8-0.8,7.3
		c-0.1,1.2-0.2,2.4-0.2,3.6c0,0.9,0,1.7,0,2.6c0,2,0.2,4.1,0.9,6c0.3,0.8,0.5,1.6,0.7,2.4c0.8,2.9,1.6,5.9,2.3,8.8
		c0.4,1.5,0.7,3.1,1.1,4.6c0.3,1.3,0.6,2.7,0.9,4c0.1,0.4,0.2,0.7,0.2,1.1c0.1,0.3,0.1,0.6,0.2,0.9c0,0.1,0,0.3,0,0.4
		c0,0.1,0,0.2-0.1,0.3c0,0.1-0.1,0.2-0.1,0.3c-0.4,0.8-1.3,1.5-2.1,1.9c-0.3,0.1-0.6,0.3-0.9,0.4c-2,0.7-4.1,1.2-6.2,1.5
		c-2.5,0.4-5,0.8-7.5,1.1c-1.4,0.2-2.9,0.3-4.3,0.5c-1.6,0.1-3.2,0.2-4.8,0.3c-1.8,0.1-3.6,0.2-5.3,0.2c-1.2,0-2.4,0.1-3.5,0.1
		c-3.8,0.1-7.5,0.1-11.3,0.1c-3.9,0-7.9-0.1-11.8-0.2c-4.7-0.1-9.5-0.3-14.2-0.8c-1.5-0.2-2.9-0.4-4.4-0.7c-2-0.3-3.9-0.7-5.9-1.1
		c-1-0.2-1.9-0.5-2.9-0.7c-1.3-0.3-2.5-0.7-3.7-1.3c-0.7-0.3-1.4-0.9-1.9-1.5c-0.2-0.3-0.3-0.6-0.4-0.9c-0.1-0.5,0.1-1,0.2-1.4
		c0.1-0.4,0.3-0.8,0.4-1.2c0.2-0.6,0.3-1.1,0.4-1.7c0.3-1.3,0.6-2.7,0.9-4c0.3-1.6,0.7-3.3,1-4.9c0.2-1.1,0.4-2.2,0.6-3.3
		c0.2-1,0.4-2,0.5-3c0.2-1.4,0.4-2.9,0.6-4.3c0.1-1,0.2-2,0.1-3c0,0,0,0,0,0c-0.1-1.5-0.2-3-0.4-4.5c-0.1-0.9-0.2-1.9-0.4-2.8
		c-0.1-0.8-0.2-1.6-0.3-2.3c-0.2-1.3-0.5-2.7-0.7-4.1c-0.3-1.4-0.6-2.9-0.9-4.2c-0.2-0.6-0.3-1.1-0.5-1.7v0c-0.5-1.4-1-2.9-1.4-4.3
		c-0.4-1.1-0.8-2.5-0.7-3.7c0-0.4,0.1-0.9,0.3-1.3c0.1-0.2,0.2-0.4,0.3-0.7c0.2-0.3,0.3-0.6,0.5-0.9c0.6-1.2,1.2-2.4,1.7-3.6
		c1.9-4.2,3.6-8.5,5.1-12.8c0.9-2.6,1.7-5.2,2.3-7.8c0.4-1.6,0.7-3.2,0.8-4.9c0.1-1.1,0.2-2.1,0.1-3.1c0-0.2,0-0.5-0.1-0.7
		c0-0.1,0-0.2,0-0.2c-0.1-0.4-0.2-1-0.4-1.3c-0.1-0.1-0.1-0.2-0.2-0.3c0-0.1-0.1-0.1-0.2-0.2c0,0,0,0,0.1,0.1
		c-0.1-0.1-0.3-0.3-0.4-0.4c-0.1-0.1-0.2-0.2-0.3-0.3c-0.6-0.4-1.4-0.7-2.1-1c-0.2-0.1-0.4-0.2-0.6-0.2c-0.4-0.1-1-0.3-1.2-0.6
		c-0.3-0.3-0.4-0.7-0.2-1.1c0-0.1,0.1-0.1,0.1-0.2c0.1-0.1,0.1-0.1,0.2-0.2c0.2-0.2,0.6-0.3,0.8-0.3c0.5-0.1,1-0.2,1.5-0.3
		c0.3-0.1,0.6-0.1,0.9-0.2c0.3-0.1,0.7-0.1,1-0.2c2.3-0.4,4.6-0.7,6.9-1.1c0.8-0.1,1.7-0.3,2.5-0.4c1.3-0.2,2.7-0.4,4-0.7
		c0.7-0.1,1.3-0.3,1.9-0.5c0.2-0.1,0.5-0.1,0.7-0.2c0.8-0.2,2.2-0.5,2.9,0.1c0.2,0.1,0.3,0.3,0.4,0.5c0.1,0.2,0.2,0.5,0.2,0.7
		c0,0.2,0,0.4,0.1,0.6c0,0.3,0,0.5,0,0.8c0,0,0,0,0,0c0,0.5,0.2,1.2,0.3,1.7c0.2,0.8,0.5,1.5,0.9,2.2c0.1,0.3,0.2,0.6,0.4,0.8
		c0.2,0.3,0.3,0.6,0.5,0.9c0.4,0.7,0.8,1.4,1.3,2.1c1.3,1.9,3,3.7,4.7,5.1c0.3,0.3,0.7,0.5,1,0.8c0.4,0.3,0.8,0.6,1.3,0.9
		c1.9,1.2,3.8,2.3,5.7,3.4c0.6,0.3,1.2,0.7,1.8,1c0.5,0.3,1.1,0.5,1.7,0.8c1.2,0.5,3.3,1.2,4.6,0.8h0c0.5-0.1,0.9-0.3,1.4-0.5
		c0.8-0.3,1.5-0.7,2.3-1c1.9-0.9,3.8-1.9,5.5-3.1c1.8-1.2,3.7-2.6,4.9-4.4c0.2-0.3,0.3-0.6,0.5-0.9v0c0.8-1.9,1.7-4.3,0.6-6.3
		c-0.2-0.3-0.4-0.7-0.7-1c-0.2-0.2-0.3-0.4-0.5-0.6c-0.2-0.2-0.4-0.5-0.7-0.7c-0.2-0.2-0.6-0.7-0.2-0.9c0.1,0,0.1,0,0.2-0.1
		c0.2,0,0.6,0.1,0.8,0.1c0.5,0.1,0.9,0.2,1.4,0.4c0.2,0.1,0.3,0.1,0.5,0.1c1.4,0.4,2.9,0.9,4.2,1.5c1.3,0.5,2.7,1,4,1.5
		C180.5,127,181.9,127.5,183.2,127.7L183.2,127.7c-0.7-0.1-1.5-0.3-2.3-0.5c-3.4-0.9-6.6-2.3-10-3.2c-0.3-0.1-0.7-0.2-1-0.2
		c-0.2-0.1-0.4-0.1-0.7-0.1c-0.2-0.1-0.7-0.2-1-0.2c0.1,0,0.1-0.1,0.1-0.2c0.2,0.3,0.6,0.7,0.9,1c0.6,0.6,1,1.1,1.4,1.9
		c0.7,1.4,0.6,3.2,0.1,4.7c-0.3,0.9-0.6,1.9-1.1,2.7c-1.3,2.2-3.8,4.1-5.9,5.5c-1.4,0.9-2.8,1.7-4.3,2.5c-1,0.5-2,1-3.1,1.4
		c-0.7,0.3-1.4,0.6-2.2,0.7c-1.5,0.2-3.5-0.5-4.9-1.1c-1.7-0.7-3.3-1.6-4.9-2.5c-0.7-0.4-1.3-0.8-2-1.2c-0.7-0.4-1.5-0.9-2.2-1.3
		c-0.5-0.3-1-0.6-1.4-0.9c-0.4-0.3-0.8-0.6-1.2-0.9c-0.8-0.6-1.5-1.3-2.2-2c-1.4-1.5-2.8-3.2-3.8-5c-0.2-0.3-0.4-0.6-0.5-1
		c-0.5-1-1-1.9-1.3-2.9c-0.3-0.7-0.5-1.5-0.6-2.2c0-0.2,0-0.3,0-0.5c0-0.3,0-0.9-0.1-1.2c0-0.1-0.1-0.2-0.1-0.2c0,0,0,0,0-0.1
		c0,0,0,0,0,0c0,0,0,0,0,0c-0.1,0-0.2,0-0.3,0c-0.6,0-1.4,0.2-1.9,0.4c-0.4,0.1-0.7,0.2-1.1,0.3c-1.4,0.3-2.9,0.6-4.4,0.8
		c-2.4,0.4-4.7,0.8-7.1,1.2c-1.3,0.2-2.6,0.5-3.9,0.7c-0.7,0.1-1.5,0.3-2.2,0.5c0,0,0,0,0,0c-0.1,0-0.3,0.1-0.4,0.1
		c0,0-0.1,0.1-0.1,0.1c0,0,0,0,0.1-0.1c0.2-0.1,0.2-0.5,0.1-0.7c0,0-0.1-0.2-0.2-0.2c0.2,0.1,0.5,0.2,0.7,0.3
		c0.4,0.1,0.8,0.3,1.1,0.4c1.4,0.5,2.9,1.4,3.6,2.8c0.7,1.4,0.8,3.1,0.7,4.6c-0.1,2.2-0.4,4.4-0.9,6.5c-0.1,0.6-0.3,1.2-0.4,1.8
		c-0.2,0.8-0.5,1.7-0.7,2.5c-0.5,1.9-1.2,3.7-1.8,5.5c-1.4,3.9-2.9,7.8-4.6,11.5c-0.5,1-0.9,2-1.4,2.9c-0.2,0.4-0.4,0.7-0.6,1.1
		c-0.1,0.2-0.2,0.4-0.3,0.6v0c0,0.1-0.1,0.1-0.1,0.2c-0.3,0.8-0.1,1.8,0.1,2.6c0.1,0.5,0.3,0.9,0.4,1.4c0.3,0.9,0.6,1.9,1,2.9
		c0.3,0.8,0.6,1.7,0.8,2.5c0.2,0.7,0.4,1.5,0.6,2.2c0.4,1.7,0.7,3.4,1,5.1c0.3,1.9,0.6,3.7,0.8,5.6c0.1,0.9,0.2,1.8,0.3,2.7
		c0,0.4,0.1,0.8,0.1,1.1c0.1,1,0.2,1.9,0.1,2.9c0,1.3-0.2,2.7-0.4,4c-0.2,1.7-0.5,3.4-0.8,5.1c-0.6,3.2-1.2,6.4-1.9,9.6
		c-0.2,1-0.4,2-0.7,3c-0.2,0.6-0.3,1.3-0.5,1.9c-0.1,0.4-0.2,0.7-0.3,1.1c-0.1,0.2-0.1,0.4-0.2,0.6c0,0,0,0,0,0
		c-0.1,0.3,0,0.5,0.2,0.7c0.1,0.1,0.2,0.2,0.4,0.3c0.8,0.6,1.8,0.9,2.8,1.2c2,0.6,4,1.1,6.1,1.5c2.1,0.4,4.2,0.8,6.3,1.1
		c1.3,0.2,2.7,0.4,4.1,0.5c1.9,0.2,3.7,0.3,5.6,0.4c4.9,0.3,9.7,0.4,14.6,0.4c6.1,0.1,12.2,0.1,18.3-0.1c2.1-0.1,4.1-0.1,6.1-0.2
		c1.9-0.1,3.8-0.2,5.7-0.4c1.7-0.2,3.3-0.4,4.9-0.6c1.1-0.1,2.1-0.3,3.2-0.4c0.8-0.1,1.7-0.3,2.5-0.4c1.1-0.2,2.2-0.4,3.2-0.7
		c0.3-0.1,0.6-0.2,0.9-0.3c0.2-0.1,0.5-0.1,0.7-0.2c0.6-0.2,1.5-0.6,2-1c0.1-0.1,0.4-0.4,0.4-0.5c0,0,0-0.1,0-0.1c0-0.1,0-0.3,0-0.4
		c0,0,0,0.1,0,0.1c-0.1-0.4-0.2-0.9-0.3-1.3c-0.2-1-0.4-1.9-0.6-2.9c-0.8-3.5-1.6-7.1-2.4-10.6c-0.4-1.5-0.7-2.9-1.1-4.4
		c-0.2-0.7-0.4-1.5-0.7-2.2c-0.9-2.7-0.9-5.6-0.9-8.4c0-2.2,0.3-4.4,0.5-6.5c0.1-1.1,0.3-2.2,0.4-3.2c0.1-0.7,0.2-1.3,0.3-2
		c0,0,0,0,0,0c0-0.1,0-0.3,0-0.4c0-0.4,0.1-0.7,0.1-1.1c0.1-1.8,0.1-3.9,1-5.5c0.2-0.4,0.5-0.9,0.8-1.2c0.3-0.3,0.5-0.5,0.8-0.8
		c0.1-0.1,0.2-0.3,0.3-0.4c0.3-0.3,0.5-0.6,0.7-0.9c0.2-0.3,0.4-0.7,0.7-1c0.8-1.3,1.5-2.9,1.9-4.3c1.2-4.2,0.9-8.5,0-12.7
		c-0.2-0.7-0.4-1.5-0.6-2.2c-0.2-0.6-0.4-1.2-0.6-1.8c-0.1-0.5-0.3-0.9-0.4-1.4c-0.2-0.7-0.3-1.4-0.5-2.1c-0.3-1.3-0.6-2.7-0.8-4
		c-0.2-1.2-0.5-2.4-0.8-3.5c-0.1-0.3-0.2-0.6-0.3-0.9c-0.1-0.2-0.2-0.5-0.3-0.7c-0.4-0.8-0.7-1.6-1.1-2.4c-0.4-0.7-0.8-1.4-1.4-1.9
		C185.3,128.1,184.1,127.9,183.2,127.7z"/>
	<polygon fill="#545E80" points="153.2,226.1 153.4,232.1 153.4,238 153.3,249.8 152.9,261.7 152.5,267.6 152,273.5 151.8,267.6 
		151.7,261.7 151.9,249.8 152.3,238 152.6,232.1 	"/>
	<path fill="#545E80" d="M96.6,95.3c-1.3-0.1-2.6-0.6-3.8-1.1c-0.8-0.4-1.5-0.8-2.2-1.2c-0.8-0.6-1.6-1.1-2.4-1.8
		c-1.2-1-2.5-2.2-3.5-3.4c-0.5-0.6-1.1-1.3-1.6-1.9c-1-1.2-1.9-2.6-2.8-3.9c-0.4-0.5-0.7-1.1-1.1-1.6c-0.6-0.9-1.1-1.9-1.6-2.8
		c0.6,0.4,1.2,0.9,1.7,1.5c0.6,0.6,1.1,1.1,1.6,1.7c1.9,2.1,3.7,4.4,5.6,6.5c0.9,1,1.9,2,2.9,2.9c0.3,0.3,0.7,0.7,1.1,0.9
		c0.2,0.1,0.3,0.3,0.5,0.4c0.4,0.3,0.8,0.6,1.2,0.9c0.9,0.7,1.9,1.4,2.9,2C95.6,94.6,96.1,94.9,96.6,95.3z"/>
	<path fill-rule="evenodd" clip-rule="evenodd" fill="#FAC73D" d="M111.5,79.7v-15c0-8.5,3.7-16.9,11.1-23.5
		c15.1-13.4,40-13.7,55.6-0.8c8,6.6,12,15.4,12,24.2v14.9v0C168.1,61.7,133.5,61.8,111.5,79.7L111.5,79.7z"/>
	<path fill="#545E80" d="M185.5,76.2c-1-0.5-1.9-1-2.9-1.5c-1.1-0.5-2.2-1-3.2-1.5c-1.3-0.6-2.7-1.1-4-1.7c-1.4-0.5-2.7-1-4.1-1.4
		c-0.9-0.3-1.9-0.6-2.8-0.8c-1.4-0.4-2.9-0.7-4.3-1c-3-0.6-6-1-9.1-1.1c-1.5-0.1-2.9-0.1-4.4-0.1c-2.2,0-4.4,0.1-6.6,0.3
		c-1.1,0.1-2.1,0.3-3.2,0.4c-4.1,0.6-8.2,1.6-12.1,2.9c-2.1,0.7-4.1,1.5-6.1,2.3c-1.2,0.5-2.5,1.1-3.7,1.7c-0.9,0.5-1.9,0.9-2.8,1.4
		c0.4-0.4,0.9-0.7,1.4-1.1c1.1-0.8,2.3-1.5,3.5-2.2c2.8-1.6,5.7-2.9,8.8-4c1-0.3,2-0.7,3-1c1.5-0.4,3-0.8,4.5-1.1
		c0.7-0.1,1.4-0.3,2-0.4c1.5-0.3,2.9-0.5,4.4-0.6c1-0.1,2.1-0.2,3.1-0.3c1.1-0.1,2.2-0.1,3.3-0.1c1,0,1.9,0,2.9,0
		c0.7,0,1.4,0.1,2,0.1c1.2,0.1,2.3,0.2,3.5,0.3c3.4,0.4,6.7,1.1,10,2c1.4,0.4,2.8,0.9,4.1,1.4c1.4,0.5,2.8,1.1,4.1,1.7
		c2.4,1.1,4.7,2.4,6.9,3.9C184.3,75.2,184.9,75.7,185.5,76.2z"/>
	<path fill="#545E80" d="M134.5,48.5c-0.1,0.5-0.2,1-0.3,1.5c-0.2,0.7-0.3,1.5-0.5,2.2c-0.3,1.7-0.5,3.4-0.6,5.1
		c-0.1,2.3,0,4.6,0,6.9c0,1.5,0,3.1-0.4,4.6c-0.3-0.6-0.5-1.5-0.6-2.2c-0.2-1.1-0.4-2.2-0.5-3.3c-0.4-3-0.5-6.3,0.3-9.3
		c0.1-0.6,0.3-1.1,0.5-1.7C132.8,50.9,133.6,49.4,134.5,48.5z"/>
	<path fill="#545E80" d="M167.2,48.5c1.1,1.1,1.7,2.6,2.3,4c0.2,0.6,0.4,1.3,0.5,1.9c0.1,0.7,0.2,1.4,0.3,2.1
		c0.2,2.1,0.1,4.4-0.1,6.5c-0.1,0.9-0.2,1.9-0.4,2.8c-0.2,1-0.4,2-0.7,3c-0.2-0.5-0.2-1-0.3-1.5c-0.1-0.7-0.1-1.4-0.1-2.2
		c0-1.3,0-2.6,0-3.9c0-0.8,0-1.6,0-2.4c0-1-0.1-2.1-0.1-3.1c0-0.4-0.1-0.8-0.1-1.2c-0.1-0.6-0.2-1.2-0.3-1.8c0-0.2-0.1-0.4-0.1-0.6
		c-0.1-0.7-0.3-1.4-0.5-2.1C167.4,49.5,167.3,49,167.2,48.5z"/>
	<path fill-rule="evenodd" clip-rule="evenodd" fill="#F0E6E0" d="M174.8,162.1c0,0-2.9,30.6,2.3,30.7c-14.6-0.4-38.8-1-42.4-1
		c-5.2-0.1-2.3-30.7-2.3-30.7L174.8,162.1z"/>
	<path fill-rule="evenodd" clip-rule="evenodd" fill="#5C5C5C" d="M147.7,179.1l-2.7-0.1c-0.4,0-0.6-0.1-0.8-0.3
		c-0.2-0.2-0.3-0.4-0.3-0.8c0-0.3,0-0.6,0.1-0.8s0.2-0.5,0.3-0.7l2.1-5.4c0.2-0.5,0.3-0.8,0.5-1c0.2-0.2,0.4-0.3,0.7-0.3
		c0.4,0,0.7,0.2,1,0.7c0.3,0.4,0.4,1.1,0.5,2l0.1,4.3c0.1,0,0.1,0,0.1,0c0.1,0,0.1,0,0.1,0c0.3,0,0.5,0.1,0.7,0.3
		c0.2,0.2,0.3,0.5,0.3,0.8c0,0.8-0.3,1.2-1,1.2l-0.2,0l0,1.2c0,0.5,0,0.8-0.2,1.1c-0.1,0.2-0.3,0.4-0.6,0.4c-0.5,0-0.8-0.5-0.8-1.5
		L147.7,179.1 M147.7,176.8l-0.2-4.5l-1.6,4.4L147.7,176.8z"/>
	<path fill-rule="evenodd" clip-rule="evenodd" fill="#5C5C5C" d="M154.3,174.3c0.1,0,0.2,0,0.3-0.1c0.1,0,0.2,0,0.3,0
		c0.3,0,0.6,0.1,0.8,0.3c0.3,0.2,0.5,0.5,0.7,0.8c0.2,0.3,0.4,0.7,0.5,1.2c0.1,0.5,0.2,1,0.2,1.5c0,0.6,0,1.1-0.2,1.6
		c-0.1,0.5-0.3,0.9-0.5,1.3c-0.2,0.4-0.5,0.7-0.9,0.9c-0.3,0.2-0.7,0.3-1.1,0.3c-0.4,0-0.7-0.1-1.1-0.3c-0.3-0.2-0.6-0.5-0.9-0.9
		c-0.3-0.4-0.5-0.8-0.6-1.3c-0.1-0.5-0.2-1.1-0.3-1.7c0-0.8,0.1-1.7,0.3-2.7c0.3-1,0.7-2,1.2-3.1c0.4-0.7,0.7-1.3,0.9-1.6
		c0.3-0.4,0.5-0.6,0.7-0.5c0.1,0,0.2,0,0.3,0.1c0.1,0.1,0.2,0.2,0.3,0.3c0.1,0.1,0.1,0.3,0.2,0.4c0.1,0.1,0.1,0.3,0.1,0.5
		c0,0.2,0,0.4-0.1,0.6c-0.1,0.2-0.2,0.4-0.3,0.7c-0.1,0.3-0.3,0.5-0.5,0.9C154.7,173.5,154.5,173.9,154.3,174.3 M153.5,178
		c0,0.5,0.1,0.8,0.3,1.2c0.2,0.3,0.4,0.5,0.7,0.5c0.3,0,0.5-0.1,0.7-0.4c0.2-0.3,0.3-0.7,0.3-1.1c0-0.5-0.1-0.9-0.3-1.1
		c-0.2-0.3-0.4-0.5-0.7-0.5c-0.3,0-0.5,0.1-0.7,0.4C153.5,177.2,153.5,177.6,153.5,178z"/>
	<path fill-rule="evenodd" clip-rule="evenodd" fill="#5C5C5C" d="M162.3,175.6c0.9,0.7,1.3,1.7,1.4,3c0,0.5,0,1-0.1,1.5
		c-0.1,0.5-0.3,0.9-0.5,1.2c-0.2,0.3-0.5,0.6-0.8,0.8c-0.3,0.2-0.7,0.3-1.1,0.3c-0.6,0-1.2-0.3-1.7-0.9c-0.3-0.4-0.6-0.7-0.7-1.2
		c-0.2-0.4-0.3-0.8-0.3-1.2c0-0.4,0-0.7,0.2-0.9c0.1-0.2,0.3-0.3,0.5-0.3c0.2,0,0.3,0.1,0.4,0.2c0.1,0.1,0.3,0.3,0.4,0.5
		c0.1,0.2,0.2,0.3,0.3,0.5c0.1,0.2,0.2,0.3,0.3,0.4c0.1,0.1,0.2,0.2,0.3,0.3c0.1,0.1,0.2,0.1,0.4,0.1c0.3,0,0.5-0.1,0.6-0.4
		c0.2-0.3,0.2-0.6,0.2-1.1c0-0.5-0.1-0.8-0.3-1c-0.2-0.2-0.5-0.3-0.8-0.4c-0.3-0.1-0.4-0.2-0.6-0.4c-0.1-0.2-0.2-0.5-0.2-0.8
		c0-0.3,0-0.6,0.1-0.8c0.1-0.2,0.3-0.3,0.5-0.4c0.5-0.2,0.8-0.6,0.8-1.2c0-0.3-0.1-0.5-0.2-0.7c-0.1-0.2-0.3-0.3-0.5-0.3
		c-0.2,0-0.3,0.1-0.4,0.2c-0.1,0.1-0.2,0.3-0.3,0.5c-0.2,0.2-0.3,0.4-0.4,0.6c-0.1,0.2-0.3,0.2-0.5,0.2c-0.2,0-0.4-0.1-0.5-0.3
		c-0.2-0.2-0.2-0.5-0.3-0.8c0-0.3,0-0.7,0.2-1c0.1-0.3,0.3-0.6,0.5-0.9c0.2-0.3,0.5-0.5,0.8-0.6c0.3-0.2,0.6-0.2,0.9-0.2
		c0.3,0,0.6,0.1,0.9,0.3c0.3,0.2,0.5,0.4,0.7,0.7c0.2,0.3,0.4,0.6,0.5,1c0.1,0.4,0.2,0.8,0.2,1.2c0,0.5,0,0.9-0.2,1.3
		C162.8,174.9,162.6,175.3,162.3,175.6z"/>
	<g>
		<path fill-rule="evenodd" clip-rule="evenodd" fill="#FFFFFF" d="M204.9,68.6c-5.1,0-9.3-4.1-9.3-9.2c0-5.1,4.2-9.2,9.3-9.2
			c5.1,0,9.2,4.1,9.2,9.2C214.1,64.5,210,68.6,204.9,68.6z"/>
		<path fill="#545E80" d="M204.9,68.6c-0.8,0.1-1.6,0.1-2.4-0.1c-3-0.6-5.7-2.7-6.8-5.6c-0.4-1-0.7-2-0.8-3.1c0-0.5,0-0.9,0-1.4
			c0-0.7,0.2-1.5,0.4-2.2c0.7-2.3,2.1-4.2,4.1-5.5c0.4-0.3,0.9-0.5,1.3-0.7c1.2-0.6,2.8-0.9,4.1-0.9c4.3,0,8.2,2.8,9.5,6.9
			c0.2,0.6,0.3,1.2,0.4,1.8c0,0.5,0.1,0.9,0.1,1.4c0,1-0.2,1.9-0.5,2.8c-0.3,0.9-0.9,2-1.4,2.8c-0.3,0.3-0.5,0.7-0.8,1
			c-0.7,0.7-1.4,1.3-2.3,1.7c-0.2,0.1-0.5,0.2-0.7,0.3c-0.2,0.1-0.5,0.2-0.7,0.3c-0.9,0.3-1.6,0.4-2.5,0.4c-0.2,0-0.4,0-0.6,0
			C205.2,68.6,205,68.6,204.9,68.6C204.9,68.6,204.9,68.6,204.9,68.6c0.2,0,0.5-0.1,0.7-0.1c0.5-0.1,1-0.2,1.5-0.4
			c2.9-1,5.1-3.3,5.9-6.2c0.2-0.9,0.3-1.7,0.3-2.6c0,0,0,0,0,0c-0.1-0.7-0.1-1.4-0.3-2.1c-0.2-0.5-0.3-1.1-0.6-1.5
			c-0.2-0.4-0.4-0.7-0.6-1.1c-0.6-0.9-1.4-1.6-2.3-2.2c-0.5-0.4-1.1-0.6-1.7-0.9c-0.6-0.3-1.4-0.4-2.1-0.5c-0.3,0-0.6,0-0.9-0.1
			c0,0,0,0,0.1,0c-0.3,0-0.7,0-1,0.1c-0.8,0.1-1.6,0.3-2.4,0.6c-0.2,0.1-0.4,0.2-0.6,0.3c-0.3,0.2-0.6,0.4-1,0.6
			c-0.1,0.1-0.3,0.2-0.5,0.4c-0.2,0.1-0.4,0.3-0.5,0.5c-0.3,0.3-0.5,0.5-0.7,0.8c-0.2,0.3-0.4,0.6-0.6,0.9c-0.2,0.3-0.3,0.5-0.4,0.8
			c-0.5,1-0.7,2.3-0.8,3.4c0,0,0,0,0,0c0,1,0.1,1.8,0.4,2.8c0.2,0.7,0.5,1.4,0.9,2c0.3,0.5,0.7,1,1.1,1.4
			C200.4,67.3,202.5,68.3,204.9,68.6z"/>
		<circle fill-rule="evenodd" clip-rule="evenodd" fill="#FFFFFF" cx="206.5" cy="77.2" r="4.2"/>
		<path fill="#545E80" d="M210.7,77.2c0.1,0.3,0.1,0.5,0.1,0.9c0,0.1,0,0.2,0,0.3c0,0.3-0.1,0.8-0.3,1c0,0.1-0.1,0.2-0.1,0.3
			c-0.1,0.2-0.3,0.5-0.4,0.7c-0.9,1.2-2.3,1.8-3.8,1.8c-1.9,0-3.5-1.1-4.3-2.8c-0.1-0.2-0.3-0.5-0.3-0.8c0-0.1-0.1-0.3-0.1-0.4
			c-0.1-0.3-0.1-0.7-0.1-1c0-1.1,0.3-1.9,0.9-2.8c0.1-0.1,0.2-0.2,0.2-0.3c0.1-0.2,0.3-0.4,0.5-0.5c0.2-0.2,0.5-0.4,0.7-0.6
			c0.3-0.1,0.5-0.3,0.8-0.4c0.6-0.3,1.4-0.4,2-0.4c1.4,0.1,2.8,0.8,3.6,2c0.2,0.3,0.4,0.7,0.5,1.1c0.2,0.5,0.2,1.1,0.2,1.5
			C210.8,76.9,210.7,77.1,210.7,77.2L210.7,77.2c-0.4-1.5-1.3-2.7-2.8-3.3c-0.5-0.2-1-0.2-1.5-0.2c0,0,0.1,0,0.1,0
			c-0.1,0-0.3,0-0.4,0c-0.3,0-0.8,0.2-1,0.3c-0.1,0.1-0.2,0.1-0.2,0.1c-0.2,0.1-0.4,0.3-0.6,0.4c-0.1,0.1-0.3,0.3-0.4,0.4
			c-0.5,0.6-0.7,1.4-0.7,2.2c0,0,0-0.1,0-0.1c0,1.4,0.7,2.5,2,3.2c0.4,0.2,0.9,0.3,1.4,0.3c0,0-0.1,0-0.1,0c0.4,0,0.7,0,1.1-0.1
			c1.1-0.3,1.9-0.9,2.5-1.8C210.4,78.3,210.5,77.7,210.7,77.2z"/>
		<path fill-rule="evenodd" clip-rule="evenodd" fill="#FFFFFF" d="M194,47.8l-1-0.1l-0.2,1c-1.7,6.6-7.7,11.2-14.5,11.2
			c-4.9,0-9.6-2.4-12.4-6.5l-0.6-0.9l-0.9,0.5c-3.5,2.1-7.6,3.2-11.7,3.2c-12.7,0-23.1-10.4-23.1-23.1S139.9,10,152.6,10
			c2.3,0,4.7,0.3,6.9,1l0.8,0.2l0.5-0.7c3.3-4.3,8.2-6.8,13.6-6.8c8.1,0,15.1,5.8,16.7,13.7l0.2,1.1l1.1-0.2c1-0.2,2-0.3,3-0.3
			c8.2,0,14.9,6.7,14.9,14.9c0,8.2-6.7,14.9-14.9,14.9C194.9,47.8,194.4,47.8,194,47.8z"/>
		<path fill="#545E80" d="M194,47.8c-0.3,0-0.7,0-1-0.1c0,0,0,0,0,0c-0.1,0.6-0.3,1.1-0.4,1.7c-0.1,0.3-0.2,0.7-0.3,1.1
			c-0.3,0.9-0.7,1.8-1.2,2.5c-2,3.3-5.1,5.6-8.8,6.7c-1.3,0.4-2.6,0.5-4,0.6c-1,0-2-0.1-2.9-0.2c-0.4-0.1-0.9-0.2-1.3-0.3
			c-2.5-0.7-4.8-2-6.7-3.8c-1-0.9-1.8-2-2.5-3.1c0.3,0.1,0.5,0.1,0.8,0.2c-1.4,0.9-2.8,1.7-4.4,2.3c-2.8,1.1-5.5,1.6-8.5,1.7
			c-0.6,0-1.2,0-1.8-0.1c-0.4,0-0.7-0.1-1.1-0.1c-0.6-0.1-1.1-0.2-1.7-0.3c-3.1-0.6-6.1-1.8-8.7-3.5c-0.7-0.5-1.5-1.1-2.2-1.7
			c-0.2-0.1-0.4-0.3-0.5-0.5c-0.9-0.8-1.7-1.6-2.4-2.5c-1.5-1.8-2.6-3.7-3.6-5.8c-0.7-1.6-1.2-3.3-1.5-5.1c-0.1-0.6-0.2-1.1-0.3-1.7
			c-0.1-0.8-0.1-1.7-0.1-2.6c0-0.6,0-1.2,0.1-1.8c0.3-3.8,1.4-7.3,3.4-10.6c0.8-1.3,1.7-2.5,2.7-3.7c0.2-0.2,0.4-0.5,0.6-0.7
			c0.5-0.5,1-1,1.5-1.4c1.1-1,2.4-1.9,3.8-2.7c1.4-0.8,2.7-1.4,4.2-1.9c0.4-0.1,0.8-0.3,1.2-0.4c0.5-0.1,1-0.3,1.6-0.4
			c0.5-0.1,1.1-0.2,1.6-0.3c1.6-0.3,3.4-0.3,5-0.1c0.6,0,1.3,0.1,1.9,0.2c0.2,0,0.4,0.1,0.6,0.1c0.2,0,0.4,0.1,0.7,0.1
			c1,0.2,2,0.5,3,0.8c-0.3,0.1-0.7,0.2-1,0.3c0.6-0.8,1.2-1.5,1.9-2.3c0.9-1,2.1-1.9,3.2-2.6c0.4-0.3,0.8-0.5,1.2-0.7
			c0.8-0.5,1.8-0.9,2.6-1.2c0.2-0.1,0.4-0.2,0.7-0.2c0.3-0.1,0.6-0.2,0.9-0.3c0.6-0.2,1.3-0.3,1.9-0.4c3.3-0.4,6.5,0,9.5,1.4
			c2.6,1.2,4.9,3,6.7,5.2c1.4,1.8,2.5,4,3.1,6.1c0.1,0.5,0.2,1,0.3,1.5c0.1,0.4,0.1,0.8,0.2,1.1c-0.3-0.2-0.6-0.4-0.9-0.6
			c0.4-0.1,0.8-0.2,1.1-0.2c0.8-0.1,1.6-0.3,2.3-0.3c1.9-0.1,3.9,0.2,5.8,0.8c0.4,0.1,0.8,0.3,1.2,0.5c0.6,0.3,1.2,0.6,1.8,1
			c1.7,1,3.2,2.5,4.4,4c3,4.1,3.8,9.4,2.1,14.1c-0.4,1.1-0.9,2.3-1.6,3.3c-0.8,1.2-1.7,2.3-2.9,3.2c-0.3,0.3-0.7,0.5-1,0.8
			c-0.7,0.5-1.4,0.9-2.2,1.3c-0.3,0.2-0.7,0.3-1,0.5c-0.5,0.2-0.9,0.3-1.4,0.5c-0.4,0.1-0.9,0.2-1.3,0.3c-1,0.2-2,0.2-3.1,0.2
			C194.9,47.8,194.4,47.8,194,47.8C194,47.8,194,47.8,194,47.8c0.9,0.1,1.8,0,2.7-0.1c0.8-0.1,1.5-0.3,2.3-0.4
			c0.6-0.2,1.2-0.4,1.8-0.7c3.2-1.3,5.9-3.9,7.4-7c0.8-1.6,1.3-3.3,1.4-5.1c0-0.5,0-1,0.1-1.5c0,0,0,0,0,0c0-0.4,0-0.9-0.1-1.3
			c-0.1-0.7-0.2-1.6-0.4-2.3c-0.1-0.4-0.2-0.7-0.4-1.1c-0.1-0.3-0.3-0.7-0.4-1c-0.3-0.7-0.7-1.3-1.1-1.9c-1.5-2.3-3.6-4.1-6.2-5.3
			c-0.6-0.3-1.2-0.5-1.8-0.7c-0.4-0.1-0.8-0.2-1.2-0.3c-0.9-0.2-1.9-0.2-2.8-0.3c0,0,0,0,0,0c-0.5,0-1,0-1.5,0.1
			c-0.5,0.1-0.9,0.1-1.4,0.2h0c-0.6,0.1-1.2,0.3-1.9,0.4c-0.1-0.6-0.3-1.2-0.4-1.9c0,0,0,0,0,0c-0.1-0.2-0.1-0.5-0.2-0.7
			c-0.2-0.7-0.4-1.5-0.7-2.2c-0.1-0.2-0.2-0.5-0.3-0.7c-0.1-0.2-0.2-0.4-0.3-0.7c-0.2-0.4-0.4-0.8-0.7-1.2c-0.2-0.3-0.4-0.7-0.7-1
			c-0.6-0.8-1.2-1.6-1.9-2.2c-0.5-0.4-0.9-0.8-1.4-1.1c-1.3-1-2.8-1.8-4.3-2.3c-0.6-0.2-1.3-0.4-1.9-0.5c-0.9-0.2-2-0.3-2.9-0.4
			c-0.2,0-0.5,0-0.7,0c0,0,0,0,0,0c-0.8,0-1.6,0.1-2.4,0.2c-3,0.5-6,1.8-8.3,3.9c-0.4,0.3-0.7,0.6-1,1c-0.4,0.5-0.9,1-1.2,1.5l0,0
			c-0.3,0.4-0.6,0.8-0.9,1.1c-0.5-0.1-0.9-0.3-1.4-0.4c0,0,0,0,0,0c-1.4-0.4-2.7-0.7-4.1-0.9c-0.9-0.1-1.7-0.1-2.6-0.1c0,0,0,0,0,0
			c-0.4,0-0.8,0-1.2,0c-0.7,0.1-1.3,0.1-1.9,0.2c-2,0.3-3.9,0.9-5.8,1.7c-0.4,0.2-0.7,0.3-1.1,0.5c-1.1,0.6-2.2,1.3-3.3,2
			c-0.8,0.6-1.7,1.3-2.4,2.1c-0.3,0.3-0.5,0.5-0.7,0.8c-0.1,0.2-0.3,0.3-0.5,0.5c-0.2,0.2-0.4,0.5-0.6,0.7c-0.4,0.5-0.7,1-1.1,1.5
			c-0.2,0.3-0.3,0.5-0.5,0.7c-0.4,0.7-0.9,1.5-1.2,2.3c-1.3,2.9-1.9,5.9-2,9.1v0c0,1.4,0.1,2.8,0.4,4.2c0.1,0.3,0.1,0.6,0.2,0.9
			c0.1,0.5,0.3,1,0.4,1.5c0.3,1,0.7,1.9,1.1,2.8c0.3,0.7,0.8,1.6,1.2,2.3c0.3,0.5,0.7,1.1,1.1,1.6c0.2,0.3,0.5,0.6,0.7,0.9
			c0.1,0.2,0.3,0.3,0.5,0.5c0.2,0.3,0.5,0.5,0.8,0.8c0.4,0.5,0.9,0.9,1.4,1.3c1.8,1.5,3.7,2.8,5.8,3.7c2.1,0.9,4.1,1.4,6.3,1.7
			c0.8,0.1,1.6,0.1,2.4,0.1c0,0,0,0,0,0c0.9,0,1.7,0,2.5-0.1c0.6-0.1,1.3-0.2,1.9-0.3c0.4-0.1,0.8-0.2,1.2-0.3
			c2-0.5,3.9-1.3,5.7-2.3c0,0,0,0,0,0c0.5-0.3,1-0.5,1.4-0.8c0.3,0.4,0.6,0.9,0.9,1.4c0,0,0,0,0,0c0.4,0.6,0.9,1.2,1.4,1.8
			c2.8,3,6.5,4.6,10.5,4.7c0,0,0,0,0,0c1.3,0,2.4-0.1,3.6-0.4c3.2-0.7,6.4-2.8,8.4-5.5c0.6-0.8,1.1-1.7,1.6-2.5
			c0.2-0.3,0.3-0.7,0.5-1.1c0.2-0.4,0.3-0.9,0.4-1.3c0.1-0.3,0.2-0.6,0.3-1C193.3,47.7,193.6,47.7,194,47.8z"/>
		<path fill-rule="evenodd" clip-rule="evenodd" fill="#FFFFFF" d="M196.9,87.9c-1.5,0-2.8-1.3-2.8-2.8c0-1.5,1.3-2.8,2.8-2.8
			c1.5,0,2.8,1.3,2.8,2.8C199.7,86.7,198.4,87.9,196.9,87.9z"/>
		<path fill="#545E80" d="M196.9,87.9c-0.1,0-0.3,0.1-0.4,0.1c-0.7,0.1-1.5-0.1-2-0.6c-0.2-0.2-0.5-0.4-0.6-0.7s-0.2-0.5-0.3-0.7
			c-0.1-0.2-0.1-0.4-0.1-0.6c-0.1-0.6,0-1.2,0.2-1.7c0.3-0.8,0.8-1.4,1.6-1.8c0.2-0.1,0.5-0.2,0.7-0.3c0.1,0,0.2-0.1,0.3-0.1
			c0.2,0,0.5-0.1,0.8-0.1c0.4,0,0.7,0.1,1,0.2c1.4,0.4,2.3,1.7,2.5,3.1c0.1,1.3-0.7,2.8-2.1,3.2c-0.2,0.1-0.3,0.1-0.5,0.1
			c-0.2,0-0.5,0-0.7,0C197.1,88,197,87.9,196.9,87.9L196.9,87.9c0.2-0.1,0.5-0.2,0.7-0.3c0.9-0.5,1.5-1.4,1.4-2.5c0,0,0,0.1,0,0.1
			c0-0.1,0-0.2,0-0.3c0,0,0-0.1,0-0.1c0-0.2-0.2-0.4-0.2-0.5c0-0.1-0.1-0.2-0.2-0.3c-0.4-0.5-0.9-0.7-1.6-0.7c0,0,0.1,0,0.1,0
			c-0.2,0-0.5,0-0.7,0.1c-0.8,0.3-1.3,0.9-1.4,1.8c0,0,0,0,0-0.1c0,0.3,0,0.5,0,0.7C195.2,87,195.9,87.5,196.9,87.9z"/>
		<path fill-rule="evenodd" clip-rule="evenodd" fill="#FFFFFF" d="M196.9,80c-2.8,0-5.1,2.3-5.1,5.1c0,2.8,2.3,5.1,5.1,5.1
			c2.8,0,5.1-2.3,5.1-5.1C202,82.3,199.7,80,196.9,80z"/>
		<path fill="#545E80" d="M196.9,80c-0.5,0.1-0.9,0.3-1.4,0.5c-0.3,0.1-0.5,0.3-0.7,0.4c-0.3,0.1-0.5,0.4-0.7,0.5
			c-0.2,0.2-0.5,0.5-0.6,0.7c-0.5,0.6-0.8,1.6-0.9,2.3c0,0.2,0,0.4,0,0.7c0,0,0,0,0-0.1c0.1,1.7,1,3.1,2.6,3.8
			c0.2,0.1,0.4,0.2,0.6,0.2c0.4,0.1,0.8,0.1,1.2,0.2c0,0,0,0,0,0c0.2,0,0.5,0,0.7-0.1c0.2,0,0.4-0.1,0.5-0.1
			c0.8-0.2,1.5-0.7,2.1-1.3c0.3-0.3,0.5-0.7,0.7-1c0-0.1,0.1-0.2,0.1-0.3c0-0.1,0.1-0.2,0.1-0.3c0.1-0.4,0.2-0.7,0.2-1.1
			c0,0,0,0,0,0.1c0-0.2,0-0.3,0-0.5c0-1-0.5-2-1.1-2.8c-0.1-0.1-0.1-0.1-0.2-0.2c-0.1-0.2-0.4-0.4-0.5-0.5c-0.1-0.1-0.2-0.1-0.3-0.2
			c-0.3-0.2-0.6-0.4-0.9-0.5c-0.1,0-0.2-0.1-0.3-0.1c-0.2-0.1-0.4-0.1-0.6-0.2C197.1,80.1,197,80,196.9,80L196.9,80
			c0.2,0,0.4-0.1,0.6-0.1c0.7,0,1.4,0.1,2,0.4c0.5,0.2,1.1,0.6,1.5,1c0.1,0.1,0.1,0.1,0.2,0.2c0.5,0.5,1,1.3,1.2,1.9
			c0.2,0.7,0.4,1.6,0.3,2.3c-0.1,0.8-0.3,1.5-0.6,2.2c-1.1,2-3.1,3.2-5.4,3.1c-3.1,0-5.7-2.7-5.7-5.8c0-0.4,0.1-0.9,0.2-1.3
			c0.1-0.6,0.4-1.1,0.7-1.6c0.7-1.2,2-2.2,3.4-2.4C195.8,79.9,196.3,79.9,196.9,80z"/>
		<path fill-rule="evenodd" clip-rule="evenodd" fill="#545E80" d="M139.6,33.6v0.1c0,3.6,2.9,6.5,6.5,6.5h39.7
			c3.6,0,6.5-2.9,6.5-6.5v-0.1c0-3.6-2.9-6.5-6.5-6.5h-39.7C142.5,27.1,139.6,30,139.6,33.6z"/>
		<path fill-rule="evenodd" clip-rule="evenodd" fill="#FFFFFF" d="M140.9,33.8v-0.1c0-2.9,2.3-5.2,5.2-5.2h39.7
			c2.9,0,5.2,2.3,5.2,5.2v0.1c0,2.9-2.3,5.2-5.2,5.2h-39.7C143.2,39,140.9,36.7,140.9,33.8z"/>
		<path fill-rule="evenodd" clip-rule="evenodd" fill="#7DB04F" d="M142.2,33.8v-0.1c0-2.1,1.7-3.9,3.9-3.9H185
			c2.1,0,3.9,1.7,3.9,3.9v0.1c0,2.1-1.7,3.9-3.9,3.9h-38.9C143.9,37.7,142.2,35.9,142.2,33.8z"/>
	</g>
	<path fill-rule="evenodd" clip-rule="evenodd" fill="#F0524F" d="M24.8,229.8c0.3-0.8,0.7-1.6,1-2.4c0.6-1.4,1.2-2.7,1.9-4.1
		c1.7-3.6,3.7-7.2,5.8-10.6c4.6-7.4,10-14.2,16.7-19.7c2.7-2.2,5.5-4.1,8.5-5.9c2.3-1.3,4.6-2.4,7-3.5c7.7-3.2,16.1-4.8,24.4-5.3
		c2.2-0.1,4.4-0.2,6.6-0.2c0.9,0,1.8,0,2.6,0c3.2,0.1,6.4,0.3,9.6,0.6c1.5,0.1,3,0.3,4.5,0.5c1.1,0.1,2.1,0.3,3.2,0.4
		c1.4,0.2,2.7,0.4,4.1,0.6c2.5,0.4,5.1,0.9,7.6,1.3c4,0.8,7.9,1.6,11.8,2.6c7.4,1.8,14.8,3.8,22.1,6c10.1,3,20,6.4,29.9,10
		c9.9,3.6,19.7,7.5,29.4,11.6l-0.1,0c0.5,0.2,1.1,0.5,1.6,0.6c0.1,0,0.2,0.1,0.3,0.1c0.2,0.1,0.4,0.1,0.6,0.2l0,0.1l-1,1.2l0.1,0
		c0.1,0,1.4-1.2,1.5-1.3c0.1-0.1,0.4-0.3,0.5-0.4c0.2-0.2,0.4-0.5,0.6-0.7c0.2-0.2,0.4-0.5,0.5-0.8c0.1-0.2,0.2-0.4,0.3-0.6
		c0.1-0.2,0.2-0.3,0.3-0.5c0.4-0.8,0.8-1.6,1.1-2.5c0.1-0.2,0.2-0.5,0.3-0.7c0.3-0.9,0.6-1.7,0.9-2.6c0.6-1.8,1.2-3.7,1.9-5.5
		c0.3-0.8,0.6-1.7,0.9-2.5c0.4-1.2,0.9-2.4,1.4-3.6c0.4-1,0.9-2,1.4-2.9c1.2-2.4,2.6-4.5,4.6-6.3c0.4-0.3,0.8-0.6,1.2-0.9
		c0.7-0.5,1.5-0.9,2.3-1.2c0.6-0.3,1.3-0.4,2-0.5c0.7-0.1,1.5-0.1,2.3-0.1c1.7,0.2,3.3,0.7,4.7,1.6c0.4,0.2,0.8,0.5,1.1,0.8
		c0.2,0.1,0.4,0.3,0.6,0.4c0.1,0.1,0.2,0.1,0.3,0.1c-0.1,0.1-0.2,0.1-0.2,0.2c-0.3-0.1-0.8-0.1-1.1-0.1c-0.9,0-1.9,0-2.8,0.2
		c-1.2,0.2-2.3,0.5-3.4,1.2c-1.4,0.9-2.2,2.5-2.7,4.1c-0.6,1.8-0.9,3.8-1.1,5.7c-0.2,1.3-0.3,2.6-0.4,3.9c-0.1,1.1-0.2,2.3-0.3,3.4
		c-0.1,1-0.2,1.9-0.3,2.9c-0.1,1.3-0.3,2.5-0.4,3.8c-0.2,1.2-0.4,2.5-0.7,3.7c-1.1,5.3-3.4,10.6-8.1,13.7c-1,0.6-1.9,1.1-3,1.5
		c-1.1,0.4-2.3,0.8-3.5,0.9c-2.3,0.3-4.4,0.2-6.6-0.2c-1-0.2-1.9-0.4-2.9-0.7c-0.7-0.2-1.5-0.4-2.2-0.6c-2-0.6-4-1.1-6-1.7
		c-5.8-1.6-11.5-3.3-17.3-4.9c-13.7-3.9-27.5-7.9-41.3-11.6c-5.3-1.4-10.5-2.7-15.9-4c-2.7-0.6-5.3-1.2-8-1.8
		c-2.3-0.5-4.7-1-7.1-1.5c-2.5-0.5-5.1-0.9-7.6-1.4c-2.1-0.3-4.1-0.6-6.2-0.9c-1-0.1-1.9-0.2-2.9-0.3c-2.3-0.3-4.7-0.4-7-0.6
		c-1.8-0.1-3.6-0.1-5.4-0.2c-1.8,0-3.6,0-5.3,0.2c-1.4,0.1-2.9,0.2-4.3,0.4c-1.3,0.2-2.7,0.4-4,0.7c-0.9,0.2-1.7,0.4-2.6,0.6
		c-0.9,0.2-1.8,0.5-2.7,0.8c-0.5,0.1-0.9,0.3-1.4,0.5c-0.5,0.2-1.1,0.4-1.6,0.6c-0.7,0.3-1.4,0.6-2.1,0.9
		c-6.6,2.8-12.5,7.2-17.8,11.9c-5.5,4.9-10.5,10.2-15.7,15.4c-1.5,1.5-2.9,2.9-4.4,4.3c-1.9,1.8-3.8,3.6-5.9,5.2
		C22.3,236.2,23.5,233,24.8,229.8z"/>
	<path fill-rule="evenodd" clip-rule="evenodd" fill="#FFE0BD" stroke="#545E80" stroke-width="1.12" stroke-miterlimit="10" d="
		M108.8,221.5c-0.3-0.6-0.7-1.1-1.1-1.7c-2-3.2-3.9-6.4-5.8-9.7c-1.7-2.9-3.4-5.9-5-8.9c-0.6-1.2-1.3-2.3-1.9-3.5
		c-0.6-1.1-1.1-2.2-1.7-3.3c-0.3-0.6-0.6-1.1-0.9-1.7c-0.7-1.4-1.4-2.9-2.1-4.4c-1.3-2.9-2.6-5.9-3.6-9c-0.3-1-0.6-2.1-0.8-3.2
		c-0.1-0.5-0.2-1-0.3-1.4c-0.1-0.6-0.1-1.1-0.1-1.7c0-0.5,0-0.9,0-1.4c0-0.5,0.1-1,0.1-1.5c0.1-0.9,0.3-1.8,0.6-2.7
		c0.2-0.7,0.4-1.4,0.6-2.2c0.7-2.5,1.5-5.1,2.3-7.6c0.4-1.2,0.8-2.4,1.1-3.6c1.4-4.3,2.8-8.6,4.2-12.9c0.7-2.1,1.4-4.1,2.1-6.2
		c0.5-1.4,0.9-2.8,1.5-4.2v0c0.1-0.3,0.2-0.6,0.3-0.9c0.1-0.2,0.2-0.4,0.3-0.6c0.2-0.3,0.4-0.7,0.6-1c1.1-1.7,2.6-3.1,4.5-3.9
		c0.7-0.3,1.5-0.5,2.3-0.5c0.7-0.1,1.3,0,2,0.1c0.7,0.1,1.5,0.4,2,0.7c0.6,0.3,1.2,0.7,1.7,1.2c2.8,2.6,3.7,6.7,3.2,10.4
		c-0.1,0.7-0.3,1.5-0.6,2.2c-0.1,0.2-0.2,0.5-0.3,0.7c0,0,0-0.1,0-0.1c0,0.1-0.1,0.3-0.1,0.4c-0.1,0.4-0.3,0.9-0.5,1.3
		c-0.4,1.1-0.7,2.1-1.1,3.2c-0.3,0.7-0.5,1.5-0.8,2.2c-0.3,0.9-0.6,1.8-0.9,2.7c-0.6,1.9-1.3,3.8-1.9,5.7c-1.7,5.1-3.4,10.3-5,15.5
		c-0.1,0.5-0.3,1-0.4,1.4c0,0.1,0.1,0.3,0.1,0.4c0.1,0.4,0.3,0.7,0.4,1.1c0.4,1,0.8,2,1.2,3c0.4,0.9,0.8,1.8,1.2,2.7
		c0.7,1.4,1.3,2.9,2.1,4.3c1.7,3.4,3.4,6.7,5.2,10c2.4,4.6,5,9.1,7.6,13.6c0.7,1.1,1.3,2.3,2,3.4c0.2,0.3,0.3,0.5,0.5,0.8
		c0,0,0.2,0.3,0.2,0.3c0,0,0,0,0,0c0.1,0.1,0.1,0.2,0.2,0.4c0.1,0.1,0.1,0.2,0.1,0.3c13.8,3.5,15.6,10.5,5.5,9.7
		c-3.1,0-1.9,2.6,2.2,7.1C143.3,240.9,116.3,249.9,108.8,221.5z M103.5,171.6c0-0.1-0.1-0.2-0.1-0.3c0,0.2,0,0.3,0,0.5
		C103.4,171.7,103.4,171.7,103.5,171.6z"/>
	<polygon fill="#545E80" points="153.2,226.1 153.4,234.5 153.4,242.8 153.3,259.4 152.9,276 152.5,284.3 152,292.6 151.8,284.3 
		151.7,276 151.9,259.4 152.3,242.8 152.6,234.5 	"/>
</g>
</svg>
