<svg xmlns="http://www.w3.org/2000/svg" width="128" height="128"><path fill-rule="evenodd" clip-rule="evenodd" fill="#F7FAFF" d="M11.3 27.7c20-29.1 59.9-36.5 89-16.4 29.1 20 36.5 59.9 16.4 89-20 29.1-59.9 36.4-89 16.4s-36.4-59.9-16.4-89z"/><path fill="#D1D6DB" d="M39.9 61.5l.2.3v.7l-.1 1-.3 1.8-.9 3.5-2.3 6.9-2.5 6.8-1.5 3.3-.9 1.6-.5.8-.3.4-.1.2-.4.1-.1-.3-.1-.2v-.5l.2-1 .3-1.7.9-3.6 2.2-6.9 2.6-6.8 1.5-3.3.9-1.6.4-.8.3-.4.2-.2zm14.1 0l.1.3.1.3v.4l-.1 1-.4 1.8-.9 3.5-2.2 6.9-2.6 6.8-1.5 3.3-.8 1.6-.5.8-.3.4-.2.2-.3.1-.2-.3v-.7l.1-1 .3-1.7.9-3.6 2.2-6.9 2.6-6.8 1.5-3.3.9-1.6.5-.8.3-.4.1-.2z"/><path fill-rule="evenodd" clip-rule="evenodd" fill="#FFF" d="M15.7 80.3C12 63.7 9.2 47.1 9.9 30.6c21.7-4.4 41.8-6.8 55.8-.8l10 48.8-60 1.7z"/><path fill="#3D40B2" d="M15.7 81c-.3-.3-.4-.8-.6-1.2-.3-.7-.5-1.6-.7-2.3-.7-2.6-1.3-5.2-1.8-7.8-1-4.7-1.9-9.5-2.6-14.3-.7-4.5-1.4-9-1.8-13.5-.2-1.8-.3-3.6-.3-5.3 0-1.3 0-2.7.1-4 .1-.9.3-2.2 1-2.9.3-.3.7-.5 1.1-.6 1.2-.4 2.5-.6 3.8-.8 2.1-.3 4.2-.5 6.3-.7 5.5-.4 11.1-.6 16.7-.7 4.2-.1 8.4-.1 12.6 0 3.6.1 7.3.2 10.9.6 1.5.2 3.1.3 4.6.7.5.1 1.2.3 1.6.6.2.2.5.4.6.6.3.5.5 1 .7 1.5.2.6.4 1.2.5 1.9.5 1.9.9 3.8 1.2 5.7.7 4 1.4 7.9 2 11.9l1.8 12c.5 3.7 1.1 7.5 1.7 11.2.1.7.2 1.5.4 2.2.1.3.1.7.2 1 .1.6.3 1.3.2 1.9 0-.1-.1-.1-.1-.2s-.1-.2-.2-.2c0-.1-.1-.2-.1-.3-.1-.3-.2-.5-.3-.8-.3-.7-.5-1.5-.7-2.3-.7-2.7-1.3-5.3-1.9-8-.5-2.2-.9-4.5-1.3-6.7-1.4-6.1-2.5-12.2-3.7-18.2-.5-2.5-1-4.9-1.6-7.3-.2-.7-.4-1.5-.6-2.2-.2-.5-.3-1.1-.6-1.6.1.1.3.2.4.3-.6-.2-1.3-.4-1.9-.5-.6-.1-1.3-.2-1.9-.3-2.6-.3-5.3-.4-7.9-.5-3.3-.1-6.6-.2-9.9-.2-4.5 0-9.1.1-13.6.3-4.3.1-8.7.4-13 .8-1.2.1-2.4.2-3.5.4-.4.1-.8.1-1.2.2-.4.1-.9.2-1.4.4l.3-.3c-.2.3-.3.8-.3 1.1-.1.9-.2 1.8-.2 2.7 0 1.4 0 2.7.1 4.1.1 2.2.3 4.4.5 6.5.3 3.1.7 6.2 1.1 9.3.6 5.1 1.3 10.3 2.1 15.4.3 2.3.7 4.6 1 6.9.1.7.2 1.5.3 2.3-.1.3 0 .8-.1 1.2z"/><path fill="#D1D6DB" d="M88.3 89.1c-.2.1-.3.2-.5.3l-.3.2c-.1.1-.2.1-.3.1l-.9.3c-.8.3-1.5.5-2.3.7l-3.9.9c-2.5.5-4.9.8-7.4 1.1-6.9.8-13.9 1.1-20.9 1.3-8.4.2-16.8.2-25.1.1-5.7 0-11.4-.1-17-.2-1.4 0-2.8-.1-4.2-.1-.5 0-1-.1-1.5-.1-.3 0-.5 0-.7-.1h-.2c-.1 0-.4-.1-.5-.2l.6-.3c.8-.3 1.8-.4 2.7-.5.9-.1 1.9-.2 2.8-.3 1.2-.1 2.5-.2 3.7-.3 7.7-.5 15.5-.6 23.2-.7 12.2-.2 24.4-.3 36.5-.9 3.5-.2 7-.5 10.5-.8 1.1-.1 2.2-.2 3.2-.4.4 0 .7-.1 1.1-.1h.4c.4-.1.7 0 1 0z"/><path fill="#3D40B2" d="M75.7 78.6l-.4.3-.5.1-.9.2-1.9.3-3.7.4-7.5.6-15 .8-15 .4h-7.5l-3.8-.1-1.9-.1-.9-.1-.5-.1-.5-.3.5-.3.5-.1.9-.2 1.9-.2 3.7-.5 7.5-.6 15-.8 15-.4h7.5l3.7.2 1.9.1 1 .1.5.1z"/><path fill-rule="evenodd" clip-rule="evenodd" fill="#3D40B2" d="M17.9 92.9l-2.2-5 54-1 .7 5.6z"/><path fill-rule="evenodd" clip-rule="evenodd" fill="#D1D6DB" d="M29.5 37.9l-.6-3.2 29.2-.3.7 3.1H45.4l-15.3.3zm1.9 11.2l-1.5-8.7h.2l15.3.1 13.9-.4 1.9 8.7H45.4zm1.1 6.8l-.7-4.2 13.6.1 15.4-.4.9-.1.9 4.4-1.9-.1H45.4zm1.1 6l-.6-3.3h12.4l15.4-.4 2.3-.1.8 3.7-3.2-.1-15.3-.1zM35.9 76L34 64.6h11.4l15.4-.3 3.6-.2 2.3 10.7z"/><path fill-rule="evenodd" clip-rule="evenodd" fill="#F2CC42" d="M17 38.9l-.6-3.2 5.3-.1.6 3.1z"/><path fill-rule="evenodd" clip-rule="evenodd" fill="#FC5714" d="M18.2 45.2l-.5-3.2 5.2-.1.7 3.1z"/><path fill-rule="evenodd" clip-rule="evenodd" fill="#00C79C" d="M21.2 56.9l-.6-3.2 5.3-.1.6 3.2z"/><path fill-rule="evenodd" clip-rule="evenodd" fill="#3D40B2" d="M22.9 62.4l-.6-3.2 5.3-.1.7 3.1z"/><path fill-rule="evenodd" clip-rule="evenodd" fill="#669400" d="M25.5 70.1L25 67l5.2-.2.7 3.2z"/><path fill-rule="evenodd" clip-rule="evenodd" fill="#FAA86B" d="M41.5 108.2c-16.3-9.6-21.4-28.9-15.6-23.9l2.6 3.5c1.9 2.5 1.7 1.3 1.1-.9-1.5-5.3-4.7-8.5-9-10.4 0-1.5 1.6-1.7 8.1 2.2 7.1.3 10.7 5.5 11.4 14.6 3.1 3.7 6.3 6.3 9.5 8.4l-8.1 6.5z"/><path fill-rule="evenodd" clip-rule="evenodd" fill="#D4E3FC" d="M50.8 125.1c-2.1-1.7-2.8-4.9-5.2-7.2-6.4-9.8-5.5-5.9-11.7-12.8 2.5-3.3 7.4-6.8 10.5-10.1 3 1.3 16.3 12.6 18.6 15.7 5.6-7.1 13.8-36.8 16.7-42.9 13.2-7.4 28.5 7 35.8 22.4-1.6 3.5-3.4 6.8-5.7 10.1-9.2 13.4-22.7 22.2-37.3 25.8-9.4.4-18.1 1.9-21.7-1z"/><path fill-rule="evenodd" clip-rule="evenodd" fill="#FAA86B" d="M85.1 62.9l-7.6 4.9-.2-5.4c.4-2.2-.3-3.4-5.2-1-2.2-1.3-3.5-3.1-3.9-5.2.2-2.3-1.9-3.7-3.9-5.1 2.5-3.5 3.1-7.3 0-12.9-2.7-15.5 17.5-18.3 23.5-4.5 10.5 15.4 8.1 24.4-2.7 29.2z"/><path fill-rule="evenodd" clip-rule="evenodd" fill="#D68C6B" d="M77.5 67.8l-.2-5.4c.4-1.9-.2-3.1-3.7-1.7l9.2-4.2-.3 8.1-5 3.2z"/><path fill-rule="evenodd" clip-rule="evenodd" fill="#B5C7FC" d="M98.4 67L76.1 78l1.4-4.3z"/><path fill-rule="evenodd" clip-rule="evenodd" fill="#D4E3FC" d="M75 66.2l.2 8.4 16.2-6 .2-8.8z"/><path fill="#141C6B" d="M72 41.4l.6-.4.5-.2 1.2-.4 2.3-.6 2.4-.5 1.2-.2.6-.1.6.1-.5.4-.6.2-1.1.4-2.3.7-2.4.5-1.2.1-.6.1z"/><path fill-rule="evenodd" clip-rule="evenodd" fill="#FC5714" d="M69.1 20.8c-19.8 26 19.5 14.7 22.5 30 23.6-29.9-16.4-40.3-22.5-30z"/><path fill-rule="evenodd" clip-rule="evenodd" fill="#FC5714" d="M103.1 39.9c3.2 2.5 6.1 8.1.9 13.8-4.3 4.8-5 6.1-2.9 10.8 1.4 3.2 4.5 3.4 7.1 1.9.2 3.8-6.7 9.3-12.4 8.7-9.4-1.1-12.7-16-7.6-23.9 5.3-8.3 4.2-19.9 14.9-11.3z"/><path fill-rule="evenodd" clip-rule="evenodd" fill="#B5C7FC" d="M44.5 95l23.1 31.3 6.8-7.6z"/><path fill-rule="evenodd" clip-rule="evenodd" fill="#F7FAFF" d="M63.8 128l16.1-45.5 44.9 1.5c-1.9 5.6-4.5 11.1-8.1 16.2-12.4 18.2-32.5 27.8-52.9 27.8z"/><path fill-rule="evenodd" clip-rule="evenodd" fill="#141C6B" d="M63.3 127.1l3.7-11.3 3.8-11.3 3.8-11.3L78.5 82l.2-.4.3-.3.4-.2.5-.1 13 .3 13 .4 13 .5 6.3.3c-.3 1-.7 2.1-1 3.1l-5.4-.2-13-.4-13-.5-11.9-.5-3.8 10.1-4.1 11.2-4.2 11.1-4.3 11.1c-.1.3-.5.5-.8.4-.3-.1-.5-.4-.4-.8z"/><path fill-rule="evenodd" clip-rule="evenodd" fill="#141C6B" d="M74.3 127.1l12-33.8 34 1.2c-1.1 2-2.3 3.9-3.6 5.8-10.3 15-25.8 24.2-42.4 26.8zm-4.8-86c.6 0 1.1.5 1.1 1.1 0 .6-.5 1.1-1.1 1.1-.6 0-1.1-.5-1.1-1.1 0-.6.5-1.1 1.1-1.1z"/><path clip-rule="evenodd" fill="none" stroke="#141C6B" stroke-width=".75" stroke-linejoin="bevel" stroke-miterlimit="10" d="M67.1 40c1.2-1.3 3.2-1.4 4.5-.2 1.3 1.2 1.4 3.2.2 4.5-1.2 1.3-3.2 1.4-4.5.2-1.3-1.1-1.4-3.2-.2-4.5z"/><path fill-rule="evenodd" clip-rule="evenodd" fill="#D14514" d="M96.4 56.7c5.2-6.6 5.3-13 2.7-19.3 1.1.5 2.4 1.3 3.9 2.5 3.2 2.5 6.1 8.1.9 13.8-4.3 4.8-5 6.1-2.9 10.8 1.4 3.2 4.5 3.4 7.1 1.9-12 9.5-18.3.7-11.7-9.7z"/><path fill="#D14514" d="M98.5 37.1l-.1.4-.2.2-.4.4-.4.4-.4.4-.4.3-.4.3-.4.3-.3.3-.3.3-.2.5-.3.3-.3.3-.3.3-.3.3-.3.3-.3.3-.2.5-.2.3-.4.7-.4.7-.4.7-.4.7-.4.7-.4.7-.2.3-.4.3c0-.1-.2-.2-.2-.2-.1-.2-.1-.9 0-1.1.1-.8.3-1.5.6-2.3 1-2.7 3.1-5.1 5.6-6.6.5-.3 1.1-.6 1.6-.7.1-.1.6-.2.8-.2l.2.1.1-.2z"/></svg>