<svg xmlns="http://www.w3.org/2000/svg" width="380" height="200"><path clip-rule="evenodd" fill="none" d="M0 0h380v200H0z"/><path fill-rule="evenodd" clip-rule="evenodd" fill="#E5EBF5" d="M93.32 119.44c13.373 47.493 64.533 50.506 64.533 50.506 32.08 1.12 56.373 1.387 81.106-15.16 8.146-5.453 15.801-12.346 20.533-21.16 4.293-7.973 5.96-17.066 6.334-25.919.293-6.854-.214-13.854-2.987-19.814-2.573-5.493-6.946-9.733-11.547-13.44-11.092-8.92-23.984-15.333-37.412-20.093-15.84-5.627-32.787-9.026-49.96-7.387-17.187 1.627-34.653 8.654-47.586 21.56-12.92 12.92-27.814 33.854-23.014 50.907z"/><path fill-rule="evenodd" clip-rule="evenodd" fill="#FA452E" d="M288.547 114.773c-1.786-4.96-5.468-9.013-7.761-13.761-6.359-13.079-1.453-28.813-4.373-43.052-1.733-8.507-6.453-16.48-13.426-21.64-6.987-5.16-14.773-6.88-23.188-4.773h-1.413c-21.214-2.414-23.987 9.36-29.694 18.48-5.705 9.133-4.906 16.973-6.946 27.547-1.079 5.573-2.093 11.159-4.026 16.493-1.387 3.8-3.239 7.44-4.786 11.16a77.6 77.6 0 0 0-5.213 19.227c-.64 4.707-.8 9.68 1.16 14.013 1.972 4.32 6.6 7.761 11.292 6.947-1 5.693 3.613 11.2 9.081 13.094 5.466 1.893 11.479.986 17.12-.293 5.639-1.308 11.333-2.947 17.106-2.494 3.692.293 7.266 1.44 10.946 1.934 6.773.947 14.093-.493 19.253-4.974 5.173-4.453 7.641-12.253 4.894-18.52 4.2-.308 7.961-3.267 9.72-7.094 1.761-3.8 1.667-8.334.254-12.294z"/><path fill-rule="evenodd" clip-rule="evenodd" fill="#F5B8B8" d="M199.96 61.586s-9.014 23.014-10.907 26.773c-1.627 3.253 8.013 12.76 10.466 8.347 2.308-4.16 4.534-28.76 4.534-28.76l-4.093-6.36z"/><path fill-rule="evenodd" clip-rule="evenodd" fill="#C22912" d="M216.267 54.854c14.827-19.44 48.773-.28 50.746 18.653.428 4.094-.039 12.2 2.881 23.2 2.572 9.68 12.72 13.306 11.813 26.054-.254 3.547-6.521 7.013-10.015 7.68 2.121 5.239 4.041 11.52.961 16.267-2.094 3.253-7.854 6.746-11.72 6.88-3.867.146-17-4.16-23.308-5.986-5.306-1.547-19.692 8.333-28.025 3.786-3.361-1.827-5.613-9.853-2.881-16.36.174-.4-7.439 6.053-10.453-2.426-1.813-5.041 7.16-27.588 8.64-32.72 4.547-15.762 1.348-31.909 11.361-45.028z"/><path fill-rule="evenodd" clip-rule="evenodd" fill="#121769" d="M216.32 101.133l-26.106 5.854-5.761 14.186s15.96 8.601 27.468 10.4c11.519 1.826 4.399-30.44 4.399-30.44z"/><path fill-rule="evenodd" clip-rule="evenodd" fill="#3B3BB0" d="M215.867 101.28c15.319-5.747 28.692-6.347 44.173-1.013 2.866 1 5.854 2.292 7.52 4.827 1.44 2.187 3 5.733 3.133 8.359 1.107 21.613 1.827 51.507 1.827 51.507-17.173 7.267-38.212 9.106-53.239 9.693-.507.026-1.066.026-1.48-.294-.359-.293-.573-.746-.627-1.227-1.213-10.706.4-27.667-3.84-38.973-3.2-8.547-3-14.761-1.867-18.946 1.439-5.267 3.279-13.521 4.4-13.933z"/><path fill-rule="evenodd" clip-rule="evenodd" fill="#F5B8B8" d="M244.32 95.346c2.479.947 6.399 2.8 5.359 5.054-1.039 2.253-3.692 5.28-6.146 6.28-1.881.773-5.827 1.399-7.881 1.214-2.053-.16-4.666-2.561-5.6-4.227-1.547-2.721-.054-4.934 2.267-7.12 1.613-1.52 3.547-2.867 5.8-3.333 2.267-.467 4.88.107 6.279 1.787l-.078.345z"/><path fill-rule="evenodd" clip-rule="evenodd" fill="#E3ABAB" d="M249.133 98.813s-3.333 4.667-12.266 4.973c-8.934.293-6.521-5.893-6.521-5.893l18.787.92z"/><path fill-rule="evenodd" clip-rule="evenodd" fill="#FAC2BD" d="M212.934 73.107c.066-3.613.52-7.227 1.692-10.64C217.187 55 223.359 48.8 230.894 46.44c7.533-2.36 17.893-.387 23.893 4.747 5.987 5.146 7.68 15.479 7.68 15.479 2.027 8.146-.399 23.066-5.399 27.88-6.04 5.813-17.692 6.866-25.96 5.453-4.387-.76-9.16-2.68-12.32-5.84-4.668-4.665-5.961-14.452-5.854-21.052z"/><path fill-rule="evenodd" clip-rule="evenodd" fill="#F5B8B8" d="M262.72 67.88l.4 3.44s-10 2.213-20.199 1.307l-1.308-8.174-.906 8.174s-12.32 2.733-27.667-2.213c0 0 .4-5.16.494-7.574.106-2.426 9.492-6.066 9.492-6.066l19.801-2.227L262.72 67.88z"/><path fill-rule="evenodd" clip-rule="evenodd" fill="#FA452E" d="M210.813 57.88c3.573-6.894 10.44-12.934 17.693-15.707 7.213-2.747 17.906-3.293 24.414.866 5.666 3.614 16.146 12.667 16.359 19.387l.16 4.854c-5.787 1.12-18.387 3.027-24.547 2.427-1.52-5.307-2.08-8.48-3.28-13.947-1.106 5.307-2.239 13.88-2.626 13.947-9.694 1.413-21.214-.413-30.295-1.826.055-4.121.215-6.334 2.122-10.001z"/><path fill-rule="evenodd" clip-rule="evenodd" fill="#FAC2BD" d="M246.227 121.427c4.12 7.187 8.493 14.64 12.36 21.96.199.387.413.813.334 1.267-.068.347-.308.64-.547.906a39.736 39.736 0 0 1-10.588 8.268c-1.279-8.96-4.106-17.066-4.572-26.094-.041-.667 1.893-2.268 2.267-2.8.372-.547-.333-3.987.013-3.44l.733-.067z"/><path fill-rule="evenodd" clip-rule="evenodd" fill="#0D1757" d="M198.094 106.68s2.12 4.094 1.507 6.066c-.601 1.974-.707 7.48-12.36 9.907l-2.787-1.48 13.64-14.493z"/><path fill-rule="evenodd" clip-rule="evenodd" fill="#121769" d="M179.506 103.066c.214-1.013.8-1.894 1.24-2.826 3.907-8.307 7.747-14.053 7.747-14.053s2.147 1.613 6.613 4.413c4.494 2.8 7.32 3.16 7.32 3.16l-1.36 14.319c-.093 1.694-.239 3.468-1.079 4.947-1.041 1.826-9.761 6.961-12.774 7.986-.893.308-1.92.574-2.76.16-.799-.387-4.053-3.865-4.906-14.84-.067-1.093-.267-2.199-.041-3.266z"/><path fill-rule="evenodd" clip-rule="evenodd" fill="#FAC2BD" d="M268.934 74.667c-.547-2.106-1.84-4.373-3.987-4.6-1.639-.173-4.227.293-5.626 1.16-2.013 1.227-2.214 1.947-3.027 2.92l.12.707a43.923 43.923 0 0 0 .88 10.72c3.521.28 7.547.413 10.04-2.094 2.2-2.213 2.386-5.787 1.6-8.813z"/><path fill-rule="evenodd" clip-rule="evenodd" fill="#F5B8B8" d="M261.84 75.76c-.359 1.293-.692 5.28.013 5.467.601.173 2.054-3.494 2.414-4.8.44-1.56-1.987-2.227-2.427-.667z"/><path fill-rule="evenodd" clip-rule="evenodd" fill="#FAC2BD" d="M208.04 74.667c.547-2.106 1.84-4.373 3.986-4.6 1.641-.173 4.228.293 5.641 1.16 2 1.227 2.213 1.947 3.013 2.92l-.12.707a43.874 43.874 0 0 1-.88 10.72c-3.52.28-7.532.413-10.026-2.094-2.214-2.213-2.387-5.787-1.614-8.813z"/><path fill-rule="evenodd" clip-rule="evenodd" fill="#F5B8B8" d="M215.133 75.76c.36 1.293.694 5.28 0 5.467-.599.173-2.066-3.494-2.426-4.8-.44-1.56 1.985-2.227 2.426-.667z"/><path fill-rule="evenodd" clip-rule="evenodd" fill="#2E2E2E" d="M249.493 81.574c.066 1.227-.04 2.319-.293 3.506-.427 1.959-2.521 1.813-2.747.28-.173-1.227-.146-2.453-.227-3.68-.132-2.094 3.121-2.2 3.267-.106zm-21.786-.401c.079 1.227-.027 2.307-.28 3.506-.427 1.947-2.521 1.8-2.747.267-.173-1.214-.16-2.453-.239-3.68-.133-2.093 3.132-2.2 3.266-.093z"/><path fill-rule="evenodd" clip-rule="evenodd" fill="#F5B8B8" d="M258.227 88.027c-.079-.76-.413-1.64-1.493-1.827-2.733-.453-6.4-.8-8.934.56-1.039.574-1.973 1.613-1.479 2.88.507 1.293 2.187 1.586 3.372 1.88 2.268.546 5.801.693 7.547-1.293.6-.694 1.134-1.293.987-2.2zm-40.868.053c-.187-.707.067-1.506.921-1.627 2.173-.307 5.079-.506 7.146.72.84.493 1.613 1.413 1.253 2.454-.359 1.066-1.692 1.28-2.64 1.493-1.786.4-4.88.613-6.32-1.093-.505-.601-.599-1.334-.36-1.947zm36.348 61.454l-6.015-16.32s-.173.56-2.626 1.106c-1.359.28 2.414 18.267 2.414 18.267l6.227-3.053z"/><path fill-rule="evenodd" clip-rule="evenodd" fill="#121769" d="M245.573 151.32c.387-.16 4.053-.641 5.867-1.628 4.68-2.56 6.427-4.239 9.066-8.119 0 0 6.2 9.36 8.826 13.16 1.854 2.707 3.254 6.72 3.347 9.2.12 3.267-1.227 6.227-2.453 9.253-1.187 2.934-5.013 6.893-5.626 6.974-2.801.374-6.521-.96-8.32-1.946-2.347-1.28-4.733-2.601-6.494-4.601-3.639-4.12-4.826-22.04-4.213-22.293z"/><path fill-rule="evenodd" clip-rule="evenodd" fill="#C22912" d="M252.239 75.747c-2.56-.653-5.279-.72-8.106-.28-.599.107-2.227-1.654-1.28-1.734l1.468-.213c3.173-.307 5.493.054 8.479 1.347 1.933.84.547 1.16-.561.88zm-31.865-1.52c2.613-.28 5.333.053 8.053.92.586.187 2.453-1.307 1.52-1.52l-1.412-.44c-3.094-.761-5.44-.747-8.601.093-2.028.533-.695 1.066.44.947z"/><path fill-rule="evenodd" clip-rule="evenodd" fill="#FAC2BD" d="M202.227 52.667c3.84-3.68 11.239-6.547 12.054-5.253 1.013.84-2.374 4.307-6.094 5.773 2.934.173 7.92-.44 10.387.866.641.347 1.36.787 1.439 1.507.054.627-1.586 1.387-1.56 1.613.066.506 1.094 1.84-.746 2.733-.387.187-.507 2.027-1.934 2.747-2.147 1.079-7 1.893-8.013 1.786-.547 2.04-1.521 3-2.867 3.76-.787.454-2.947 1.107-3.68.587-1.573-1.107-1.707-3.347-1.773-5.267-.094-2.347-.24-3.08.359-5.347.6-2.279 2.428-5.505 2.428-5.505z"/><path fill-rule="evenodd" clip-rule="evenodd" fill="#F5B8B8" d="M206.359 56.613c3.308.187 6.614.227 9.934.093.907-.04.961.747.054.787-3.32.133-6.68.693-9.987.506-.894-.052-.907-1.439-.001-1.386zm.494 3.907c3.32 0 4.227.054 7.534-.267.894-.093.987.693.094.773-3.308.319-4.16.693-7.468.693-.893.001-.16-1.199-.16-1.199z"/><path fill-rule="evenodd" clip-rule="evenodd" fill="#D99494" d="M239.293 87.88s-1.746.307-3.039.146c-1.28-.146-2.493-.601-2.493-.601s2.799 3.868 5.532.455z"/><path fill-rule="evenodd" clip-rule="evenodd" fill="#C7CCCF" d="M220.267 106.68c.881-.759 16.76-2.547 22.507-1.64 1.746 14.334 2.601 26.28 3.106 40.721 0 0-.279 1.599-1.346 1.705-4.801.44-18.361.707-19.561-.227-1.707-1.346-6.094-28.52-6.439-38.013-.027-.653 1.572-2.399 1.733-2.546z"/><path fill-rule="evenodd" clip-rule="evenodd" fill="#E5EBEB" d="M218.52 109c.547-.534 16.574-2.374 22.32-1.466 1.747 14.318 3.267 25.572 3.773 40.025 0 0-19.773 2.16-21.239 1.014-2.081-1.627-5.84-38.627-4.854-39.573z"/><path fill-rule="evenodd" clip-rule="evenodd" fill="#C7CCCF" d="M229.106 114.88c.014.52.347.947.733.92.399-.014.694-.453.68-.973-.026-.534-.359-.947-.746-.934-.386.013-.694.454-.667.987z"/><path fill-rule="evenodd" clip-rule="evenodd" fill="#FAC2BD" d="M229.013 122.187c.268-.64 1.054-.986 1.733-1.174a361.739 361.739 0 0 1 13.468-3.16c.813-.173 1.666-.333 2.453-.106 1.186.333 1.68 3.841 1.506 5.067l.347 11.334c-.013.639-.079 1.306-.413 1.84-.613.946-1.453 1.267-2.572 1.306a21.977 21.977 0 0 1-12.414-3.227c-.787-.479-1.761-3.187-1.52-4.066.106-.359-.814-1.827-.881-2.187-.293-1.693.494-2.653-.572-3.2-1.069-.535-1.507-1.494-1.135-2.427z"/><path fill-rule="evenodd" clip-rule="evenodd" fill="#F5B8B8" d="M242.466 125.239c-3.318.015-6.626.188-9.932.521-.894.092-1-.682-.094-.773 3.306-.334 6.613-1.107 9.934-1.12.893-.014.985 1.372.092 1.372zm.508 5.468a102.277 102.277 0 0 0-9.88-1.04c-.907-.054-.88-.827.026-.787 3.307.199 6.707-.04 9.986.453.881.133.761 1.52-.132 1.374zm-.895 3.786c-2.279-.52-5.158-.587-7.492-.893-.627-.081-.561-.627.066-.547 2.334.306 5.334-.027 7.613.493.613.146.693 1.133.08.987l-.267-.04z"/><path fill-rule="evenodd" clip-rule="evenodd" fill="#2E2E2E" d="M242.333 92.387c-3.173 2.494-7.427 2.426-10.466-.24-.841-.733.093-1.546.933-.813 2.467 2.16 5.88 1.72 8.467-.32.88-.694 1.947.679 1.066 1.373z"/><path fill-rule="evenodd" clip-rule="evenodd" fill="#80CFDE" d="M182.293 163.16c-.026.026-.04.054-.053.066.013.041.027-.012.053-.066zm-1.506-18.761v.054c.173.16.12.094 0-.054z"/><path fill-rule="evenodd" clip-rule="evenodd" fill="#FA452E" d="M123.24 122.493c-.027 0-.053-.013-.053-.027.013.054.04.054.053.027zm-.094-.106h.041c-.041-.067-.054-.067-.041 0zm-9.919-47.12l.293-.08a1.332 1.332 0 0 0-.293.08zm-2.174.307l-.026.093c.093-.067.133-.107.026-.093zM96.387 83.52c-.107.066-.28.173-.48.347.159-.12.32-.227.48-.347zm28.679-7.827l.4-.107c-.546-.119-.346.027-.4.107zm17.267 34.294c-.027.013-.04.039-.066.066.026.013.04-.027.066-.066zm-42.306 6.466c0-.013-.014-.013-.014-.013.027.08.027.067.014.013zm40.52-28.853v.054c.2.226.133.119 0-.054zM90.533 98.013c0 .014.014.014.014.026v-.04l-.014.014z"/><path fill-rule="evenodd" clip-rule="evenodd" fill="#FA452E" d="M90.373 96.987c.24.439.213.68.174 1.013.186-.12.36-.24.546-.346-.239-.214-.48-.441-.72-.667zm1.267-5.094h.014v-.013c0 .013 0 .013-.014.013zm.014-.013c.053-.174.106-.253.053-.347 0 .094-.027.214-.053.347z"/><path fill-rule="evenodd" clip-rule="evenodd" fill="#FA452E" d="M97.947 82.093c10.866-9.56 28.506-9.56 39.374 0 10.867 9.547 10.867 25.067 0 34.614-10.867 9.56-28.507 9.56-39.374 0-10.867-9.547-10.867-25.067 0-34.614z"/><path fill-rule="evenodd" clip-rule="evenodd" fill="#FA452E" d="M95.96 83.96c.04-.014.093 0 .133.013.027-.08 0-.119-.133-.013zM125 75.72l.027.013c.026-.013.04-.026.04-.04l-.067.027zm-28.146 38.573a1.038 1.038 0 0 1-.147-.359c-.053.012-.027.106.147.359zm17.533 8.733c.133.04.253.053.373.08l-.12-.227c-.08.055-.16.108-.253.147zm-2.813-.639c.227.066.426.16.626.214 0-.041.094-.054.2-.041-.4-.08-.826-.24-.826-.173zm1.346.239a2.74 2.74 0 0 0-.52-.066c.2.041.4.093.52.066zm.293.28c.213.054.427.106.626.16l-.173-.079c-.146-.027-.306-.041-.453-.081zm-6.826-1.733l.36.066c-.16-.133-.16-.199-.227-.306l-.133.24zm-1.587-.853c-.107.026-1.041-.32-.227.106.12-.027.787.266.227-.106zm-13.386-15.653c.173.88.333.119.467.92.159.159-.121-.653.04-.48-.267-.481-.294-.76-.507-.44z"/><path fill-rule="evenodd" clip-rule="evenodd" fill="#FA452E" d="M91.92 105.106c.041.066.093.147.16.227-.08-.133-.133-.2-.16-.227zm14.8-28.773h-.48l-.027.08c.107.04.24.013.507-.08zm7.187-1.413h-.134l.28.24zm6.533-.36c-.267-.04-.586-.013-.854-.027.587-.027.894.36.854.027z"/><path fill-rule="evenodd" clip-rule="evenodd" fill="#FFF" d="M118.387 111.573c-.173 0-8.76-4.426-11.667-11.827l-.16-.4c-.68-1.706-1.707-4.293-1.107-7.28.454-2.2 3.094-4.227 5.48-4.227h.093c2.6.053 4.973 2.6 6.373 5.187.427-1.107 1-2.066 1.76-2.854 1.867-1.974 4.8-2.613 6.973-1.52 2.093 1.066 3.693 3.573 3.387 6.692-.945 9.323-11.013 16.229-11.132 16.229z"/><path fill-rule="evenodd" clip-rule="evenodd" fill="#29B273" d="M162.213 107.692c-2.72 6.214-9.96 9.041-16.174 6.32-6.2-2.72-9.026-9.959-6.307-16.173 2.707-6.213 9.947-9.027 16.174-6.307 6.201 2.721 9.028 9.961 6.307 16.16z"/><path fill-rule="evenodd" clip-rule="evenodd" fill="#FFF" d="M145.707 104.293c.693 1.066 1.4 2.134 2.094 3.2.493.733 1.479.906 2.133.28 2.413-2.32 4.76-4.694 7.053-7.134 1.187-1.267-.72-3.187-1.92-1.907a168.499 168.499 0 0 1-7.053 7.12l2.133.28c-.707-1.079-1.4-2.146-2.107-3.212-.947-1.454-3.293-.093-2.333 1.373z"/><path fill-rule="evenodd" clip-rule="evenodd" fill="#121769" d="M106.907 110.573a.585.585 0 0 1-.573-.453l-1.613-5.654-4.333-.092c-.333 0-.6-.28-.586-.601 0-.347.266-.613.613-.601l4.786.094c.267 0 .507.174.574.44l.986 3.507 1.934-11.267a.623.623 0 0 1 .574-.507.611.611 0 0 1 .613.48l2.346 9.627 1.36-6.987a.597.597 0 0 1 .521-.48c.266-.041.52.12.626.346l2.414 5.347 3.707.066c.333 0 .6.28.586.613 0 .333-.28.601-.6.601h-.013l-4.094-.08a.595.595 0 0 1-.533-.36l-1.786-3.946-1.521 7.826a.584.584 0 0 1-.573.48c-.307 0-.547-.188-.614-.454l-2.307-9.493-1.906 11.04c-.027.28-.267.48-.547.493-.014.015-.028.015-.041.015z"/><path fill-rule="evenodd" clip-rule="evenodd" fill="#80CFDE" d="M137.586 49.533c.014.014.014.027.014.053 0-.026.013-.053.013-.053h-.027zm-.146-1.027c.24.44.2.693.173 1.027.16-.12.347-.24.52-.36-.226-.213-.466-.426-.693-.667zm1.04 7.681c.16.893.32.12.454.92.173.16-.107-.654.04-.48-.267-.467-.281-.76-.494-.44z"/><path fill-rule="evenodd" clip-rule="evenodd" fill="#80CFDE" d="M138.973 56.627l.16.24c-.08-.134-.12-.2-.16-.24z"/><path fill-rule="evenodd" clip-rule="evenodd" fill="#80CFDE" d="M142.773 34.453c10.867-9.546 28.506-9.546 39.387 0 10.866 9.56 10.866 25.067 0 34.627-10.88 9.547-28.52 9.547-39.387 0-10.866-9.56-10.866-25.067 0-34.627z"/><path fill-rule="evenodd" clip-rule="evenodd" fill="#80CFDE" d="M170.293 74.027c-.013-.014-.026-.027-.053-.027.027.027.04.053.053.027zm-.08-.134l.027.027c-.04-.093-.04-.066-.027-.027zM160.28 26.8l.294-.094c-.134.041-.228.067-.294.094zm-2.147.293l-.04.106c.094-.066.12-.106.04-.106zm14 .134l.387-.107c-.547-.133-.32.026-.387.107zM189.4 61.494c-.027.026-.054.066-.066.08.012.026.039-.014.066-.08zm-42.32 6.479s0-.013-.014-.013c.041.08.027.067.014.013zM187.6 39.12c0 .027.013.041.013.067.2.213.134.106-.013-.067z"/><path fill-rule="evenodd" clip-rule="evenodd" fill="#80CFDE" d="M172.053 27.24l.04.013c.014-.013.026-.013.04-.027l-.08.014zm-28.146 38.573a1.238 1.238 0 0 1-.147-.36c-.04.014-.027.121.147.36zm17.546 8.747c.121.026.24.04.374.067l-.133-.227-.241.16zm-2.813-.653c.213.066.426.146.627.213 0-.04.093-.04.186-.04-.387-.08-.799-.253-.813-.173zm1.347.239c-.12-.013-.36-.053-.534-.066.214.053.414.08.534.066zm.28.28c.213.067.426.107.653.16l-.187-.066a5.126 5.126 0 0 1-.466-.094zm-6.827-1.733l.36.053c-.16-.12-.146-.173-.214-.28l-.146.227zm-1.573-.853c-.107.053-1.04-.32-.213.121.093-.027.772.266.213-.121zm9.106-45.4h-.133l.267.24zm6.521-.36c-.253-.041-.574 0-.854-.027.6-.026.907.361.854.027z"/><path fill-rule="evenodd" clip-rule="evenodd" fill="#FFF" d="M168.013 41.12v-.026c0-.013.014-.027.014-.04 0 .026-.014.039-.014.066zm-1.507 8.68c-.239-.267-.426-.533-.373-.707.12-.253.307-.347.533-.373-.066.346-.106.706-.16 1.08zm-4.319-.12c-.054-.333-.121-.653-.174-.947.174.041.32.134.427.36.054.147-.067.36-.253.587zm-1.36-8.56c0-.026-.014-.04-.014-.066 0 .013.014.027.014.04v.026zm14.973 9.507s.013 0 .013-.014l-.026-.24-.027.027c-.253-1.48-.68-2.906-1.346-4.12-2.427-4.453-4.587-6.533-6.294-5.426-.066.027-.12.08-.173.12-.04.027-.08.054-.12.093 0 0-.973.387-.467 4.44 0 0-.32 1.094-.6 2.64-.32.107-.693.107-1.053-.213-.787-.707-.707-2.974-.707-2.974v-.067l.027-.013H165l.013-1.107.014-.014-.014.014v-1.12h.014-.014l.014-1.107.013-.014-.013.014.013-1.121.014-2.227h.027-.027v-.093a7.642 7.642 0 0 1-.76.12c-.374.041-.8-.093-1.16-.12l.453 6.786-.053-.013.053.026v.054s.08 2.266-.706 2.973c-.333.307-.693.307-1 .227-.307-1.32-.547-1.987-.547-1.987.506-4.054-.32-5.107-.32-5.107-.04-.04-.08-.066-.12-.093-.053-.04-.106-.093-.173-.12-1.707-1.107-3.854.973-6.294 5.426-.653 1.214-1.08 2.64-1.346 4.12 0-.013-.027-.027-.027-.027l-.026.24c0 .014.013.014.013.014-.693 4.173-.093 8.56.333 9.133.187.227.693.201 1.347.027h.013c1.534-.4 3.8-1.546 4.294-1.813.693-.399 2.146-.16 2.76-.586.627-.426.2-2.066.2-2.066.347-1 .453-2.147.427-3.281.013 0 .04 0 .053-.013v-.265c-.014 0-.041.014-.053.014a38.946 38.946 0 0 0-.107-1.28c.107-.214.2-.374.253-.494.24-.56 1.24-1.4 1.307-1.52.08-.134.413-.347.427-.347.013 0 .347.227.413.347.08.12 1.08.96 1.32 1.52.066.146.227.426.399.76-.026.32-.04.667-.04 1h-.014v.28h.014c0 1.147.12 2.307.467 3.281 0 0-.427 1.64.2 2.066.626.426 2.066.187 2.76.586.494.267 2.761 1.414 4.294 1.813h.013c.654.174 1.174.2 1.347-.027.425-.572 1.026-4.959.332-9.132z"/><path fill-rule="evenodd" clip-rule="evenodd" fill="#80CFDE" d="M138.707 43.414zm0 0c.053-.173.106-.267.067-.36-.014.106-.041.226-.067.36z"/><path fill-rule="evenodd" clip-rule="evenodd" fill="#29B273" d="M149.494 37c-2.72 6.213-9.96 9.04-16.173 6.32-6.201-2.72-9.027-9.96-6.307-16.174 2.72-6.2 9.96-9.027 16.16-6.307 6.213 2.721 9.039 9.961 6.32 16.161z"/><path fill-rule="evenodd" clip-rule="evenodd" fill="#FFF" d="M132.973 33.6a399.675 399.675 0 0 1 2.107 3.2c.48.747 1.48.906 2.133.28a221.312 221.312 0 0 0 7.054-7.12c1.186-1.281-.72-3.187-1.934-1.921a177.737 177.737 0 0 1-7.04 7.121l2.133.28c-.706-1.067-1.413-2.133-2.106-3.213-.96-1.44-3.307-.094-2.347 1.373z"/><path fill-rule="evenodd" clip-rule="evenodd" fill="#80CFDE" d="M143.453 35.053c-.12.066-.28.173-.48.347.16-.12.32-.24.48-.347zm-.44.441a.18.18 0 0 1 .147 0c.027-.08 0-.107-.147 0zm10.76-7.64h-.48l-.014.08c.108.039.241 0 .494-.08zM143 137.692c9.494-8.346 24.907-8.346 34.4 0 9.493 8.348 9.493 21.895 0 30.241s-24.906 8.347-34.4 0-9.494-21.893 0-30.241z"/><path fill-rule="evenodd" clip-rule="evenodd" fill="#80CFDE" d="M157.854 134.04l.253-.066c-.12.026-.2.052-.253.066zm-1.801.253l-.04.081c.08-.054.107-.094.04-.081zm-12.32 6.694c-.106.039-.239.133-.399.279.119-.106.266-.2.399-.279zm24.067-6.588l.319-.092c-.452-.107-.265.026-.319.092zm-28.053 13.588zm0 0c.054-.147.093-.227.054-.295-.001.081-.028.188-.054.295zm3.613-6.654c.054-.013.093 0 .12.026.026-.079 0-.092-.12-.026zm24.373-6.92l.027.014c.027-.014.027-.014.041-.027l-.068.013zm-15.333.533h-.413l-.014.054c.093.026.2 0 .427-.054zm6.014-1.2h-.094l.227.2zm5.493-.306c-.213-.027-.48 0-.707-.014.493-.027.747.294.707.014z"/><path fill-rule="evenodd" clip-rule="evenodd" fill="#FFF" d="M160.947 145.613l2.399-.026c.374 0 .681-.32.681-.72a.69.69 0 0 0-.681-.707h-2.413c-.387 0-.667.333-.667.72.001.413.308.733.681.733z"/><path fill-rule="evenodd" clip-rule="evenodd" fill="#FFF" d="M162.227 162.48c.374 0 .667-.32.667-.72l-.08-18.227c0-.387-.307-.707-.68-.707-.374 0-.667.32-.667.72l.08 18.214c0 .4.307.72.68.72z"/><path fill-rule="evenodd" clip-rule="evenodd" fill="#FFF" d="M162.16 149.239c.373 0 .667-.306.68-.692 0-.387-.293-.72-.667-.72-2.947-.081-5.853-.601-6.32-1.107a.367.367 0 0 1 .08-.16c.307-.333 1.2-.48 1.72-.48.373 0 .667-.318.68-.72 0-.386-.307-.706-.68-.706-.174 0-1.88 0-2.693.906-.32.374-.48.814-.467 1.32.08 1.066 1.307 1.693 4.133 2.094 1.746.213 3.453.266 3.52.266h.014z"/><path fill-rule="evenodd" clip-rule="evenodd" fill="#FFF" d="M162.173 152.173c.374 0 .667-.293.68-.68 0-.414-.293-.732-.667-.732-.014-.015-1.907-.068-3.8-.361-3.28-.493-3.533-1.199-3.533-1.227-.027-.133 0-.16.027-.186.227-.28 1.026-.44 1.533-.44h.013c.374 0 .681-.32.681-.707 0-.399-.307-.72-.681-.72-.293 0-1.853.013-2.573.934-.307.387-.414.853-.333 1.373.187 1.199 1.64 1.933 4.68 2.4 1.974.293 3.88.359 3.96.359h.013v-.013z"/><path fill-rule="evenodd" clip-rule="evenodd" fill="#FFF" d="M162.187 155.173c.373 0 .667-.32.68-.72 0-.387-.293-.72-.653-.733-.026 0-1.987-.04-3.96-.36-3.467-.52-3.68-1.266-3.68-1.28-.014-.133.013-.173.04-.227.253-.306 1.093-.453 1.6-.453h.027c.373 0 .667-.333.667-.72s-.293-.706-.667-.706c-.307 0-1.907.026-2.654.96-.307.387-.426.866-.346 1.387.2 1.227 1.693 1.987 4.84 2.466 2.04.308 4.013.374 4.093.387h.013z"/><path fill-rule="evenodd" clip-rule="evenodd" fill="#FFF" d="M162.213 158.267c.36 0 .653-.307.667-.68.013-.4-.28-.734-.667-.734-.026 0-2.2-.066-4.4-.399-3.986-.613-4.173-1.493-4.173-1.507-.04-.2.014-.239.04-.279.293-.347 1.281-.44 1.854-.428.374.041.68-.266.693-.652.027-.4-.24-.734-.626-.76-.333-.027-2.094-.107-2.92.88-.32.399-.466.919-.373 1.479.213 1.307 1.893 2.16 5.32 2.681 2.28.347 4.453.413 4.56.413-.001-.014.012-.014.025-.014z"/><path fill-rule="evenodd" clip-rule="evenodd" fill="#FFF" d="M156.453 160.44c3.253-.014 5.92-1.694 6.053-1.773.32-.201.414-.641.227-.975-.2-.346-.613-.453-.933-.239-.027.013-3.307 2.054-6.734 1.427-1.52-.267-2.066-.84-2.093-1.267-.013-.413.36-.84.854-.973.36-.081.587-.468.494-.854a.69.69 0 0 0-.814-.547c-1.106.295-1.906 1.32-1.879 2.414.027.613.373 2.133 3.213 2.64a8.487 8.487 0 0 0 1.612.147z"/><path fill-rule="evenodd" clip-rule="evenodd" fill="#FFF" d="M155.267 162.653c3.333-.027 5.319-2.134 5.399-2.24.267-.28.24-.733-.013-1.014a.639.639 0 0 0-.947.014c-.04.027-1.84 1.946-4.8 1.787-1.507-.067-1.987-.533-2.04-.773-.04-.2.173-.574.627-.801a.762.762 0 0 0 .307-.973c-.16-.333-.587-.493-.907-.307-.986.521-1.52 1.467-1.346 2.399.133.653.733 1.773 3.307 1.907l.413.001zm6.893-13.414h.027c.066 0 1.773-.066 3.52-.318 2.813-.401 4.04-1.041 4.094-2.094a1.79 1.79 0 0 0-.467-1.334c-.827-.893-2.521-.88-2.707-.88-.374 0-.667.333-.667.72.013.387.319.693.68.693h.014c.533 0 1.413.146 1.706.467.054.066.08.107.093.187-.466.493-3.36 1.04-6.32 1.134a.707.707 0 0 0-.64.733c.013.387.307.692.667.692z"/><path fill-rule="evenodd" clip-rule="evenodd" fill="#FFF" d="M162.173 152.173h.014c.093 0 2-.079 3.946-.387 3.066-.493 4.494-1.239 4.68-2.439.08-.507-.04-.987-.346-1.359-.734-.908-2.28-.921-2.586-.921-.374 0-.667.333-.667.72.013.387.32.707.68.707.507-.013 1.32.147 1.547.428.027.025.066.066.04.199 0 .013-.253.72-3.52 1.254-1.894.306-3.787.372-3.814.387-.373.013-.653.346-.64.732.013.386.306.679.666.679z"/><path fill-rule="evenodd" clip-rule="evenodd" fill="#FFF" d="M162.187 155.173h.026c.08-.013 2.054-.094 4.093-.427 3.12-.507 4.613-1.28 4.8-2.507a1.788 1.788 0 0 0-.347-1.387c-.76-.919-2.346-.946-2.667-.946-.373 0-.667.333-.667.72.014.4.307.707.681.707h.013c.521 0 1.36.133 1.613.453.041.041.054.094.041.227 0 0-.2.773-3.68 1.32-1.96.32-3.906.387-3.933.387-.374.014-.654.347-.64.746.013.387.307.707.667.707z"/><path fill-rule="evenodd" clip-rule="evenodd" fill="#FFF" d="M162.2 158.267h.027c.094 0 2.28-.094 4.547-.439 3.414-.573 5.093-1.428 5.293-2.733.094-.56-.04-1.094-.387-1.48-.826-.946-2.586-.88-2.933-.84-.374.013-.653.359-.627.761.027.387.347.68.72.652.574-.026 1.56.053 1.84.4.027.026.08.093.053.266 0 .027-.173.894-4.146 1.547-2.2.347-4.387.44-4.413.44-.373.013-.653.36-.64.733.013.386.306.693.666.693z"/><path fill-rule="evenodd" clip-rule="evenodd" fill="#FFF" d="M167.973 160.387c.533 0 1.054-.04 1.627-.147 2.826-.547 3.16-2.066 3.173-2.68.027-1.106-.787-2.106-1.893-2.387-.374-.094-.734.147-.827.534-.066.399.16.759.521.853.466.133.853.547.853.947-.013.453-.56 1.027-2.066 1.333-3.44.626-6.733-1.387-6.76-1.399a.644.644 0 0 0-.92.252c-.2.334-.08.773.24.987.119.066 2.799 1.719 6.052 1.707z"/><path fill-rule="evenodd" clip-rule="evenodd" fill="#FFF" d="M169.187 162.587c.133-.014.28-.014.413-.014 2.56-.146 3.16-1.28 3.28-1.947.173-.893-.374-1.853-1.36-2.359-.347-.188-.747-.027-.907.334a.718.718 0 0 0 .307.934c.467.239.68.599.64.825-.04.241-.521.694-2.027.773-3 .188-4.8-1.72-4.813-1.746a.675.675 0 0 0-.96 0c-.253.28-.266.733 0 1.013.094.093 2.094 2.201 5.427 2.187z"/><path fill-rule="evenodd" clip-rule="evenodd" fill="#29B273" d="M148.533 145.88c-2.28 5.227-8.36 7.573-13.56 5.293-5.213-2.279-7.586-8.359-5.319-13.56 2.307-5.214 8.359-7.587 13.586-5.306 5.213 2.294 7.587 8.36 5.293 13.573z"/><path fill-rule="evenodd" clip-rule="evenodd" fill="#FFF" d="M134.773 142.733c.573.893 1.173 1.813 1.76 2.693.414.613 1.24.746 1.787.227 2.026-1.934 4-3.934 5.92-5.974 1-1.066-.6-2.68-1.6-1.613a156.928 156.928 0 0 1-5.92 5.987c.586.066 1.187.146 1.786.227-.613-.894-1.186-1.8-1.773-2.693-.799-1.2-2.76-.067-1.96 1.146z"/></svg>