<svg xmlns="http://www.w3.org/2000/svg" width="400" height="325"><path clip-rule="evenodd" fill="none" d="M0 0h400v325H0z"/><linearGradient id="a" gradientUnits="userSpaceOnUse" x1="229.372" y1="175.839" x2="190.373" y2="289.655"><stop offset="0" stop-color="#f5fafa"/><stop offset="1" stop-color="#fff"/></linearGradient><path fill-rule="evenodd" clip-rule="evenodd" fill="url(#a)" d="M6.9 323.2c0-1.5-1.2-2.7-2.7-2.7H0v-5.9h38.5V325H6.3c.4-.5.6-1.1.6-1.8zm34.7 1.8V204.7h60.7V325H41.6zm62.6 0V204.7h61.5V325h-61.5zm64.6 0V204.7h60.9V325h-60.9zm62.7 0V204.7H301V325h-69.5zm72.6 0v-11.6h93.6V325h-93.6zm62.1-3c0-1.5-1.2-2.7-2.7-2.7h-28.6c-1.5 0-2.7 1.2-2.7 2.7 0 1.5 1.2 2.7 2.7 2.7h28.6c1.5.1 2.7-1.2 2.7-2.7zM0 312.7v-18.9h4.2c1.5 0 2.7-1.2 2.7-2.7 0-1.5-1.2-2.7-2.7-2.7H0v-11.2h38.5v35.6H0zm304.1-1.2v-35.6h93.6v35.6h-93.6zm62.1-21.6c0-1.5-1.2-2.7-2.7-2.7h-28.6c-1.5 0-2.7 1.2-2.7 2.7 0 1.5 1.2 2.7 2.7 2.7h28.6c1.5.1 2.7-1.2 2.7-2.7zM0 275.3v-21.9h4.2c1.5 0 2.7-1.2 2.7-2.7 0-1.5-1.2-2.7-2.7-2.7H0v-8.3h38.5v35.7H0zm304.1-1.2v-35.7h93.6v35.7h-93.6zm-85.6-12.5V233c0-1.5-1.2-2.7-2.7-2.7-1.5 0-2.7 1.2-2.7 2.7v28.6c0 1.5 1.2 2.7 2.7 2.7 1.5 0 2.7-1.2 2.7-2.7zm29.7 0V233c0-1.5-1.2-2.7-2.7-2.7-1.5 0-2.7 1.2-2.7 2.7v28.6c0 1.5 1.2 2.7 2.7 2.7 1.5 0 2.7-1.2 2.7-2.7zm-157-.6v-28.6c0-1.5-1.2-2.7-2.7-2.7-1.5 0-2.7 1.2-2.7 2.7V261c0 1.5 1.2 2.7 2.7 2.7 1.5.1 2.7-1.2 2.7-2.7zm29.7 0v-28.6c0-1.5-1.2-2.7-2.7-2.7-1.5 0-2.7 1.2-2.7 2.7V261c0 1.5 1.2 2.7 2.7 2.7 1.5.1 2.7-1.2 2.7-2.7zm245.3-11.6c0-1.5-1.2-2.7-2.7-2.7h-28.6c-1.5 0-2.7 1.2-2.7 2.7 0 1.5 1.2 2.7 2.7 2.7h28.6c1.5 0 2.7-1.2 2.7-2.7zM0 237.7v-16.5h4.2c1.5 0 2.7-1.2 2.7-2.7 0-1.5-1.2-2.7-2.7-2.7H0v-11.1h38.5v33H0zm304.1-1.2v-31.8h93.6v31.8h-93.6zm62.1-19.2c0-1.5-1.2-2.7-2.7-2.7h-28.6c-1.5 0-2.7 1.2-2.7 2.7 0 1.5 1.2 2.7 2.7 2.7h28.6c1.5 0 2.7-1.2 2.7-2.7z"/><path fill-rule="evenodd" clip-rule="evenodd" fill="#F5FAFA" d="M248.9 194.9v-56.1c0-1.9 1.6-3.5 3.5-3.5h76.2c1.9 0 3.5 1.6 3.5 3.5v56.1c0 1.9-1.6 3.5-3.5 3.5h-76.2c-1.9 0-3.5-1.6-3.5-3.5zm66-.8c0-.8-.6-1.4-1.4-1.4h-1.4c-.8 0-1.4.6-1.4 1.4 0 .8.6 1.4 1.4 1.4h1.4c.8 0 1.4-.6 1.4-1.4zm5.8 0c0-.8-.6-1.4-1.4-1.4h-1.4c-.8 0-1.4.6-1.4 1.4 0 .8.7 1.4 1.4 1.4h1.4c.7 0 1.4-.6 1.4-1.4zm5.7 0c0-.8-.6-1.4-1.4-1.4h-1.4c-.8 0-1.4.6-1.4 1.4 0 .8.6 1.4 1.4 1.4h1.4c.8 0 1.4-.6 1.4-1.4zm0-4.3V141h-71.8v48.8h71.8z"/><path fill-rule="evenodd" clip-rule="evenodd" fill="#363D4A" d="M254.6 198.4h8.6v4.3h-8.6z"/><path fill-rule="evenodd" clip-rule="evenodd" fill="#EDF5F7" d="M317.8 198.4h8.6v4.3h-8.6z"/><path fill-rule="evenodd" clip-rule="evenodd" fill="#F5FAFA" d="M40.8 131.8V55.3h4c7.9.1 12.5.1 20.5.1 13.6 0 27.3.1 40.9.2h20.5c10.4 0 20.8 0 31.2.1v76c0 3.3-2.7 6-6 6H46.7c-3.2 0-5.9-2.6-5.9-5.9z"/><path fill-rule="evenodd" clip-rule="evenodd" fill="#E0E3E5" d="M151.9 139.7c-.8 0-20.3-.1-21.1 0-3.5.1-7 0-10.5 0-10.5 0-21 0-31.5-.1s-21-.1-31.5-.1c-3.5 0-7 0-10.5-.1-1.5 0-2.9-.4-4.1-1.2-2.2-1.4-3.4-3.8-3.4-6.4 0-2.8.1-5.6.1-8.4.1-8.4.1-16.9.2-25.3 0-2.8 0-5.6.1-8.4.1-4.2.1-8.4.2-12.6 0-.2.1-8.2.1-8.4l.3-12.6v-.6h1.1c0 .9.1 1.8.1 2.7 0 .7 0 1.4.1 2.1l.1 4.2c.1 4.2.1 8.4.2 12.6.3 18.3.4 36.5.6 54.8 0 2.4 2 4.3 4.4 4.3 10.5-.1 21-.1 31.5-.1l21-.1h21c10.5 0 21 0 31.5-.1 2.2 0 4-1.8 4-4 .1-25.3.1-50.7.1-76h3.7v8.6c0 16.9.1 33.7.1 50.6 0 5.6.1 11.2 0 16.9 0 .4 0 .8-.1 1.2-.5 3.6-3.9 6.5-7.8 6.5zm-105.1-3.6zm105.1-.4zm-109.5-4c0 .1 0 .1 0 0 0 .1 0 .1 0 0zm113.5 0s0 .1 0 0c0 .1 0 0 0 0z"/><path fill-rule="evenodd" clip-rule="evenodd" fill="#E0E3E5" d="M148 121.3V58.1h-3.3c-6.5.1-10.4.1-16.9.1-11.3 0-22.5.1-33.8.1H77.1c-8.6 0-17.2 0-25.8.1v62.8c0 2.7 2.2 4.9 4.9 4.9H143c2.8.1 5-2.1 5-4.8z"/><path fill-rule="evenodd" clip-rule="evenodd" fill="#EBF5FA" d="M90.4 110.9l-8.2-21.4-4.5 13.6c-.2.6-.7 1-1.3 1H51.6v-2.9h23.6l5.5-16.4c.2-.6.7-1 1.3-1 .6 0 1.1.3 1.4.9l8.2 21.4 4.5-13.6c.2-.5.7-.9 1.2-1 .6-.1 1.1.2 1.4.7l4.1 6.9 6.8-23.9c.2-.6.7-1 1.4-1 .6 0 1.2.4 1.4 1l7.4 26h27.4v2.9h-28.5c-.6 0-1.2-.4-1.4-1L111 80.8l-6.3 22.3c-.2.5-.6.9-1.2 1-.6.1-1.1-.2-1.4-.7l-4.2-7-4.8 14.4c-.2.6-.7 1-1.3 1-.7 0-1.2-.4-1.4-.9z"/><path fill-rule="evenodd" clip-rule="evenodd" fill="#E0E3E5" d="M142.7 127.8h-17.4c-2.9.1-5.8 0-8.7 0-8.7 0-17.4 0-26.1-.1-8.7 0-17.4-.1-26.1-.1h-8.7c-1.2 0-2.4-.4-3.4-1-1.8-1.2-2.8-3.1-2.8-5.3 0-2.3.1-4.6.1-7 .1-7 .1-13.9.2-20.9 0-2.3 0-4.6.1-7 0-3.5.1-7 .2-10.5 0-.2.1-6.8.1-7 .1-3.5.1-7 .3-10.5v-.5h.9c0 .7.1 1.5.1 2.2v1.7l.1 3.5c.1 3.5.1 7 .2 10.4.3 15.1.3 30.2.5 45.3 0 2 1.6 3.6 3.6 3.6 8.7 0 17.4-.1 26-.1l17.4-.1h17.4c8.7 0 17.4 0 26-.1 1.8 0 3.3-1.5 3.3-3.3 0-20.9.1-41.9.1-62.8h3.1v7.1c0 13.9.1 27.9.1 41.8 0 4.7.1 9.3 0 13.9 0 .3 0 .7-.1 1-.5 3.4-3.3 5.8-6.5 5.8zm-86.9-3zm86.9-.3zm-90.5-3.3zm93.8 0zM99.6 49.7l-19.3-.2-19.3-.2-19.3-.4-9.6-.4-4.8-.3-2.4-.2-1.2-.2-.6-.1-.6-.2.6-.3.6-.1 1.2-.1 2.4-.2 4.8-.3 9.7-.3 19.2-.4 19.3-.1h19.3l19.3.1 19.2.2 19.3.5 9.7.3 4.8.3 2.4.2 1.2.2.6.1.6.2-.6.3-.6.1-1.2.1-2.4.2-4.8.3-9.7.3-19.3.4-19.2.1zm0 7l-19.3-.2-19.3-.2-19.3-.4-9.6-.4-4.8-.3-2.4-.2-1.2-.2-.6-.1-.6-.2.6-.3.6-.1 1.2-.1 2.4-.2 4.8-.3 9.7-.3 19.2-.4 19.3-.1h19.3l19.3.1 19.2.2 19.3.5 9.7.3 4.8.3 2.4.2 1.2.2.6.1.6.2-.6.3-.6.1-1.2.1-2.4.2-4.8.3-9.7.3-19.3.4-19.2.1z"/><path fill-rule="evenodd" clip-rule="evenodd" fill="#FAEBD4" d="M241.8 149.8c.2-.4.5-.8.7-1.1 9.2-15.3 14.2-34 14.2-53.4 0-48.8-31.5-88.5-70.3-88.5s-70.3 39.7-70.3 88.5c0 19.6 5.1 38.5 14.5 53.9.1.2.2.3.3.5l.9 1.5c3.5 4.9 8 3.7 9.3 3.3.1-.1.2-.1.4-.1 4.7-1.8 9.8-3.4 15.4-4.6l9.7-2.1-7.3-7.1c-6-5.8-9.9-13.7-10.9-22.2l-.6-4.3.2-28.4.1-3.8c4.5-1.4 24.3-8.3 38.3-22.8 3.3 4.1 15.6 17.6 38.5 22.9l.1 3.7V114l-.5 4.3c-1.1 8.5-5 16.4-10.9 22.2l-7.3 7.1 9.7 2.1c5.8 1.3 11.2 2.9 16 4.9 1.7.5 6.5 1.3 9.8-4.8z"/><path fill-rule="evenodd" clip-rule="evenodd" fill="#FFF5D4" d="M141.9 151.6l-2-1.5-.7-1.1-.3-.4c-8.2-13.4-12.7-30.1-12.7-47.3 0-43.5 28-77.1 60.2-77.1 32.3 0 60.3 33.5 60.3 77.1 0 17.1-4.4 33.5-12.5 46.9l-.8 1.1c-.8 1.5-1.6 2-2.3 2.2h-1.4l-7-2.5c-2.6-.8-5.3-1.5-8.1-2.1l-.5-.1.6-.6c6.3-6.1 10.3-14.4 11.5-23.2l.5-4v-.6l-.1-26.2-.1-3.5c0-2.1-1.5-4-3.6-4.5-19.7-4.6-30.3-16.2-32.9-19.5-1.8-2.2-5.1-2.3-7-.3C171 77 153.7 83 149.6 84.2c-1.9.6-3.2 2.4-3.3 4.4l-.1 3.5-.1 26.2v.6l.5 4c1.1 8.9 5.2 17.1 11.5 23.2l.6.6-.5.1c-5.3 1.2-10.4 2.7-14.9 4.5l-.3.1c-.1.1-.5.3-1.1.2z"/><path fill-rule="evenodd" clip-rule="evenodd" fill="#E0E3E5" d="M137.3 156.8c-2.3-.3-4.3-1.4-5.8-3-.3-.3-.5-.5-.7-.8-.5-.6-.8-1.2-1.3-1.9l-.3-.6c-.2-.3-.3-.6-.5-.9-.3-.6-.7-1.2-1-1.8-.6-1.1-1.2-2.2-1.8-3.4-1-1.9-1.9-3.8-2.7-5.7-.9-1.9-1.6-3.9-2.4-5.9-.7-2-1.4-4.1-2-6.1-.6-2.1-1.2-4.2-1.6-6.3-.9-4-1.6-8.1-2.1-12.2-.6-5.2-.8-10.5-.7-15.7.1-6.3.8-12.6 2.1-18.8.7-3.4 1.5-6.8 2.5-10.1.7-2.5 1.6-4.9 2.5-7.3.5-1.2.9-2.3 1.4-3.5 1.3-3 2.8-6 4.4-8.9 7.7-13.9 19.3-26.2 33.8-33.1 2.4-1.1 4.9-2.1 7.5-3 11.9-3.8 24.3-3.8 36.2.1 6.2 2 12 5.1 17.2 8.8 9.1 6.5 16.6 15.2 22.3 24.8 11.3 19.3 15.6 42.5 13.2 64.6-.8 7.6-2.5 15.3-4.9 22.5-.9 2.7-2 5.5-3.1 8.1-.4.9-.9 1.9-1.3 2.8-1.2 2.5-2.5 4.8-3.9 7.2-.3.5-.6.9-.9 1.4-.1.2-.3.4-.4.6-.1.1-.2.3-.3.4-.2.2-.3.4-.5.6-.2.8-.8 1.7-1.3 2.3-.6.8-1.3 1.5-2.1 2-1.9 1.3-4.2 1.6-6.5 1.1-.4-.1-.8-.3-1.1-.4-.6-.2-1.2-.5-1.9-.7-2.2-.7-4.4-1.4-6.7-2-2.2-.6-4.3-1.1-6.5-1.5-3.8-.8-7.6-1.5-11.5-2.4 2.9-2.8 5.7-5.6 8.5-8.4 5.8-5.7 9.5-13.5 10.4-21.6l.5-4.2-.3-28.3-.1-2.6-7-2c-8-2.7-15.5-6.8-22.1-12.1-1.9-1.5-3.8-3.2-5.6-5-.8-.8-1.6-1.7-2.4-2.5l-.1-.1-7.8 6.9c-3.3 2.5-6.7 4.7-10.2 6.7-3.8 2.1-7.7 4-11.7 5.7l-6.6 2.5v2.5l-.1 28.2.5 4.2 1.3 5.8c1.7 5.7 4.9 11.1 9.2 15.2 3.3 3.2 6.6 6.5 10 9.7l-13.3 2.9-10.3 2.8c-.7.2-1.4.5-2.2.7-.3.1-.7.3-1.1.4-.5.2-.9.3-1.4.5-.1 0-.4.2-.5.2h-.2l-2.1.5c-1 .2-1.8.2-2.6.1zm101.9-4.1c.5-.4 1-.9 1.4-1.4.4-.5.7-1 1.1-1.4.1-.4.3-.8.6-1.2 1.5-3 3.1-6 4.4-9.1 1.1-2.5 2.1-5 3-7.6.9-2.6 1.7-5.3 2.4-7.9 1.2-4.7 2.1-9.4 2.7-14.2l.8-14.4-.5-9.9c-.3-3.3-.8-6.6-1.4-9.8-2.3-12.1-6.7-23.7-13.2-34.1-1.2-1.9-2.5-3.8-3.9-5.7-3.2-4.3-7-8.4-11-11.9-2.1-1.9-4.4-3.6-6.8-5.2-1.4-.9-2.7-1.8-4.2-2.6-1.8-1-3.7-1.9-5.6-2.8-2.6-1.1-5.2-2.1-7.9-2.8-2.4-.7-4.8-1.1-7.2-1.5l-7.3-.5-7.4.5c-2.5.3-4.9.9-7.3 1.5-2.9.8-5.7 1.8-8.4 3.1-2.8 1.3-5.6 2.8-8.2 4.5-2.4 1.6-4.6 3.3-6.8 5.1-10.1 8.6-17.7 20.1-22.7 32.4-1 2.4-1.8 4.8-2.6 7.3-.6 1.8-1.1 3.7-1.6 5.6-.6 2.5-1.2 4.9-1.6 7.5-.6 3.2-1 6.4-1.3 9.6l-.4 9.6.9 13.8c1.8 13.8 6.2 27.2 13.4 39.1v-.1l.3.5.8 1.3 2.6 2.3c.6.3 1.4.5 2.2.6l2.2-.3.5-.2.2-.1h.1l10.7-3.4c2.2-.6 4.3-1.1 6.5-1.5l4.2-.9-4.7-4.6c-6.3-6.2-10.4-14.5-11.5-23.3-.1-.9-.2-1.7-.3-2.6 0-.3-.1-.6-.1-.9 0-.6-.1-.6-.1-1-.1-1.9 1.1-4.2 0-5.8-1-1.6.1-3.8 0-5.7l.1-11.3c0-3.6.1-7.2.1-10.8 1.5-.5 2.9-.9 4.3-1.4 2.6-.9 5.1-1.9 7.6-3.1 5.3-2.4 10.5-5.2 15.3-8.5 1.1-.8 2.3-1.6 3.4-2.5.9-.6 1.7-1.3 2.5-2 1.5-1.2 3-2.5 4.3-3.9.9-.9 1.8-1.8 2.6-2.7.7.9 1.4 1.7 2.1 2.6 1.4 1.6 2.9 3.2 4.4 4.6 6.3 5.8 13.5 10.3 21.5 13.5 2.5 1 5 1.8 7.5 2.6 1.4.4 2.8.7 4.2 1.1.1 5.4 0 10.8.1 16.2v11.3c.1 1.9.1 3.8 0 5.8 0 .6-.2 1.2-.2 1.8 0 .3 0 .6-.1.9l-.2 1.7c-1 7.3-4 14.2-8.7 19.8-.9 1-1.8 2-2.7 2.9l-6.2 5.9 8 1.9c2.7.7 5.5 1.4 8.1 2.2l7.9 2.9c2.5.8 5.1.3 7.1-1.4z"/><path fill-rule="evenodd" clip-rule="evenodd" fill="#FFF" d="M115.3 279.9v-70.7c-.3-18.6 6.6-37.3 20.8-51.5 27.8-27.8 72.9-27.8 100.6 0 14.2 14.2 21.1 32.9 20.8 51.5v70.7c.4 18.6-142.5 18.6-142.2 0z"/><path fill-rule="evenodd" clip-rule="evenodd" fill="#FFFAF2" d="M160.7 143.6l25.8 49.8 25.8-49.8s-26.8-11.4-51.6 0z"/><path fill-rule="evenodd" clip-rule="evenodd" fill="#FAF0E8" d="M164.5 150.9l-3.8-7.4c24.8-11.3 51.6 0 51.6 0l-3.8 7.4c-6 2.5-13.3 3.9-22 3.9-8.8 0-16-1.4-22-3.9z"/><path fill-rule="evenodd" clip-rule="evenodd" fill="#EDF0F2" d="M224 205.4c-.1-.4 0-1.1 0-1.5v-.3c.1-.3.1-.7.1-1l.6-3.6c.4-2.1.8-4.3 1.2-6.4.7-4.2 1.3-8.6 1.3-12.9 0-5.8-1.2-11.3-3.5-16.6-.6-1.3-1.2-2.6-1.9-3.9-.3-.7-.7-1.4-1.1-2-.2-.4-.4-.7-.5-1.1-.1-.3-.3-.6-.4-1v-.2c0-.1 0-.3.1-.4h.4l.3.1.5.3.8.7.7.7.7.7.7.8.6.8.6.8.5.8.5.8.5.8.5.8.4.8.4.8.4.8.4.8.3.8.3.8.3.8.3.8.2.8.2.8.2.8.2.8.2.8.1.8.1.8.1.8.1.8.1.8v2.4l-.1 1.7-.1 1.7-.2 1.7-.2 1.6-.3 1.7-.3 1.6-.4 1.6-.4 1.6-.5 1.6-.5 1.6-.5 1.6-.6 1.6-.6 1.6-.7 1.5-.7 1.5-.4.7-.3.4-.2.2-.3.1c-.1.6-.2.5-.2.4z"/><path fill-rule="evenodd" clip-rule="evenodd" fill="#F5F7FA" d="M221.2 204.7c-5.9-.6-11.2 3.8-11.7 9.7-.6 5.9 3.8 11.2 9.7 11.7 5.9.6 11.2-3.8 11.7-9.7.5-5.9-3.8-11.1-9.7-11.7z"/><path fill-rule="evenodd" clip-rule="evenodd" fill="#EBEDF0" d="M218.9 228.1c-1.4-.1-2.8-.5-4-1.1-3.7-1.7-6.4-5.1-7.1-9.1-.2-1.2-.2-2.4-.1-3.7.2-1.4.6-2.8 1.2-4 .6-1.2 1.5-2.3 2.4-3.2 2-1.8 4.6-3 7.3-3 .6 0 1.1.1 1.6.2.1 0 .5.1.6.2l.2.2.1.1.6-.3h.9c.8 0 1.4.2 2.2.4 3.1 1 5.7 3.5 6.9 6.5 1.6 4.1 1 8.5-1.6 12-.6.7-1.2 1.4-1.9 2-1.1.9-2.2 1.5-3.5 2.1-1.8.7-3.8.9-5.8.7zm9-8.2c.3-.6.6-1.1.8-1.8l.4-1.9.1-1.3c0-3.2-1.6-6.1-4.2-8-.7-.5-1.5-.9-2.3-1.3-.3-.1-.5-.2-.8-.4-.1 0-.2-.1-.3-.1-.1-.1-.4-.3-.5-.4-.1.1-.2.2-.3.2l-.2.1c-.3.1-.6.1-.9.2-.3.1-.5.1-.8.2l-1.8.6c-3 1.4-5.3 4-5.9 7.1l-.2 1.3.1 1.8c.5 3.5 3 6.5 6.4 7.5l1.7.3h-.1c3.6.5 7-1.2 8.8-4.1z"/><path fill-rule="evenodd" clip-rule="evenodd" fill="#FFF" d="M220.7 210.3c-2.9-.3-5.4 1.8-5.7 4.7-.3 2.8 1.8 5.4 4.7 5.7 2.9.3 5.4-1.8 5.6-4.7.3-2.9-1.8-5.5-4.6-5.7z"/><path fill-rule="evenodd" clip-rule="evenodd" fill="#E0E3E5" d="M115.1 265.5c-.1-.9-.2-1.8-.2-2.7-.1-1.2-.1-2.4-.2-3.6-.1-2.6-.2-5.1-.2-7.7l-.3-13.7c-.1-6.6-.2-13.2-.3-19.7 0-3.7-.1-7.3-.1-11v-4.9l.4-8.4c.3-2.8.8-5.6 1.5-8.3.4-1.5.8-3 1.3-4.4.9-2.5 1.9-5 3.1-7.4 2.3-4.6 5.2-9 8.5-13 4-4.7 8.7-9 13.8-12.5 3.2-2.2 6.6-4.2 10.1-5.8 18.5-8.9 40.4-9.9 59.7-3.3 5.3 1.8 10.5 4.3 15.3 7.2 3 1.9 5.9 4 8.6 6.3 1.6 1.3 3.1 2.7 4.5 4.2.7.7 1.3 1.4 2 2.1 4.3 4.7 8 10.2 10.7 16 .6 1.2 1.1 2.4 1.6 3.7.2.4.3.8.5 1.2.8 2 1.4 4.2 1.9 6.3 1.3 5.2 1.9 10.7 1.7 16.1v4c0 3-.1 5.9-.1 8.9-.1 8.8-.3 17.6-.5 26.3-.1 4.1-.2 8.3-.4 12.4-.1 1-.1 2.1-.2 3.1 0 .2-.1.5-.1.7 0 .1 0 .3-.1.3-.1-.1-.1-.2-.1-.3-.1-.2-.1-.5-.1-.7-.1-.9-.1-1.9-.2-2.8-.1-1.5-.1-3-.2-4.5-.1-2.4-.2-4.7-.2-7.1-.2-9.4-.4-18.8-.5-28.2 0-2.5-.1-5-.1-7.5V202c.1-11.4-3.2-22.4-9.3-32-1.6-2.5-3.3-4.8-5.2-7l-6.1-6.2-5.3-4.3c-4.5-3.3-9.4-6.1-14.6-8.2-20.7-8.6-45.3-7.6-65 3.2-2.4 1.3-4.7 2.7-6.9 4.3l-6.3 5-6.6 6.8c-6.1 7.3-10.4 15.8-12.5 25.2-.7 3.3-1.2 6.7-1.3 10.1-.1 1-.1 2.1-.1 3.2v5.4c0 4-.1 7.9-.1 11.9-.1 9.8-.3 19.7-.5 29.5-.1 4.2-.2 8.5-.4 12.7-.1 1.1-.1 2.2-.2 3.3 0 .3-.1.5-.1.8 0 .1 0 .2-.1.3-.4.2-.5-.4-.5-.5z"/><path fill-rule="evenodd" clip-rule="evenodd" fill="#FFF" d="M220.8 145.1c75.4 49.6 40.7 145.7-26.8 138.7-4-9.9-5.3-18.5-1.8-27.6 61.6-15.4 52.3-48.7 41-80.1l-12.4-31z"/><path fill-rule="evenodd" clip-rule="evenodd" fill="#E0E3E5" d="M150.3 254.4c-2.2-.5-3.5-2.5-4.3-4.5-.8-2.2-1.1-4.7-1.3-7-.2-3.5-.1-7 .1-10.4.1-.8.1-1.5.2-2.3.1-.5.1-1.1.2-1.6.1-.4.1-.9.2-1.3 0-.1.1-.4.1-.5 0-.1.1-.3.2-.5l.1-.3-.3-.3-.1-.2c-.2-.5-.2-1-.3-1.5-.1-.8-.2-1.6-.2-2.4 0-1.3 0-2.6.1-3.9.1-1 .3-2 .5-3l.6-2.4c.2-.7.5-1.5.8-2.2 1.3-3.4 3.5-6.6 6.6-8.5l1-.5-.2-.5c-.3-.6-.5-1.2-.7-1.7-.5-1.3-1-2.7-1.4-4.1-1-3.5-1.6-6.9-1.6-10.5 0-5.9 1.8-11.4 5.6-15.9 1-1.1 2-2.1 3.1-3.1.6-.5 1.2-.9 1.8-1.3.4-.3.8-.5 1.3-.7l.2-.1c.1-.1.6-.2.7-.2h.3v.4c-.2.5-.7 1-.9 1.5-.4.5-.8 1.1-1.2 1.6-.7.9-1.3 1.7-1.9 2.6-2.8 4-4.5 8.2-4.9 13.1-.3 3.5 0 7 .4 10.4.2 1.4.4 2.7.5 4.1.1.5.1 1.1.2 1.6 0 .4.1.7.1 1.1l.1 1.1.8-.3c.8-.2 1.6-.3 2.4-.3 4.5 0 8.3 2.7 11.1 6 .7.8 1.3 1.7 1.9 2.6.4.6.7 1.2 1.1 1.8.6 1 1.1 2 1.5 3 .6 1.4 1.2 2.9 1.6 4.4.2.6.3 1.2.4 1.7.1.4.2.8.2 1.2 0 .2.1.4 0 .6 0 .2-.1.4-.2.6l-.3-.1c.3.5.6.9.9 1.4.2.4.4.7.7 1.1.5.9 1 1.9 1.5 2.8.7 1.4 1.4 2.8 2 4.2.8 1.8 1.6 3.6 2.2 5.5.6 1.9 1.2 4 1.3 6 .1 1.1 0 2.2-.3 3.3-.2.5-.4 1.1-.8 1.5-1.1 1.5-2.7 2-4.5 2.1-.7 0-1.3 0-2-.1-.6-.1-1.1-.2-1.7-.4-.1 0-.3-.1-.4-.1-.2-.1-.5-.3-.7-.4.2-.1.5-.1.8-.1h1.5c1.5 0 3.4-.1 4.7-1 2-1.3 1.7-4.2 1.3-6.2-.1-.5-.2-1-.3-1.4-.5-1.9-1.2-3.9-1.9-5.7-.9-2.4-2-4.8-3-7.2l-1.5-3.6c-.2-.5-.4-.9-.5-1.4l-.1-.3c0-.1-.1-.4-.1-.5v-.3l.3.3.1.1-.5-.8-.9-1.5c-.6-1-1.1-2-1.7-2.9-2.1-3.6-4.7-7.4-8.1-9.9-1.8-1.3-4.1-2.3-6.4-2.1-3.6.4-6.3 3.5-7.9 6.5-.4.7-.7 1.5-1.1 2.2-.4.8-.7 1.7-.9 2.5-.4 1.3-.8 2.6-1.1 3.9l-.6 3c-.1.5-.2 1.1-.3 1.6-.1.4-.2.9-.3 1.3 0 .1-.1.4-.2.5l-.3.3c.1.2.1.3.2.5 0 .1.1.2.1.3v.3c0 .4.1.8.1 1.1.1 1.1.1 2.2.1 3.3.1 2.1.1 4.1.1 6.2.1 2.4.2 4.8.5 7.1.2 1.5.5 3.1 1 4.6.6 1.6 1.4 3.2 3.3 3.5 1.5.3 3.1-.4 4.4-.9.4-.2.8-.4 1.2-.5.1 0 .3-.1.4-.2.1 0 .3-.1.5-.1l.3-.1c-.1.1-.1.1-.2.3-.1.2-.2.4-.4.5l-.4.4c-.5.4-1 .7-1.5 1-.7.4-1.4.7-2.1 1-.6.2-1.1.3-1.7.3-.4 0-.8 0-1.3-.1zm7.1-5.4c-.2 1.1.6 2.1 1.7 2.3-1.1-.2-1.9-1.2-1.7-2.3zm4 .6v.2c-.1-.1-.1-.1 0-.2zm13.3-3c.6.9.3 2.2-.6 2.8.9-.6 1.2-1.9.6-2.8zm-15.4.7c-.2 0-.5.1-.7.1.2 0 .5-.1.7-.1zm.4 0h.2c-.1.1-.1 0-.2 0zm13.3-1.6c.3 0 .6.1.9.2-.2-.1-.6-.2-.9-.2z"/><path fill-rule="evenodd" clip-rule="evenodd" fill="#FFF" d="M184.8 197.9l-28.6-14-.5-16.9-11.8-4.3 16.2-21.9 25 44.9 27.2-44.5 20.3 19.7-11.9 8.4-.9 14z"/><path fill-rule="evenodd" clip-rule="evenodd" fill="#E0E3E5" d="M185 195.8h-.2l-.2-.1-.2-.1-.1-.2.2-.1h.5l.1-.1.1-.1.1-.1.1-.1.1-.1.1-.1.1-.1.1-.1v-.5.1l-.8-8.5v-.3l-.1-.1v.1l-6.5-11.2-6.3-11.3-12.1-22-16.2 21.9 9.4 3h.1l.6.2.6.3.6.3.5.4.5.4.4.5.4.5.4.5.3.6.3.6.2.6.1.6.1.7v1.4l-.1.6v.1l-2 9.8 14.1 5.4 7.1 2.8 3.5 1.5 1.7.8.9.4.8.6h-1l-.9-.2-1.9-.5-3.7-1-7.3-2.2-14.5-4.7-.2-.1-.4-.2-.4-.3-.4-.4-.3-.4-.2-.5-.1-.5v-1l1.7-9.9.1-.4v-.6l-.1-.3-.1-.3-.1-.3-.1-.3-.2-.3-.2-.3-.2-.3-.2-.2-.2-.2-.3-.2-.3-.2-.3-.1-.3-.1-10.1-3.1h-.1l-.3-.1-.4-.2-.3-.2-.3-.3-.3-.3-.2-.3-.2-.3-.1-.3-.1-.4-.1-.4v-.8l.1-.4.1-.4.1-.4.1-.3.1-.2 17-23 .2-.3.3-.3.4-.3.4-.2.4-.2.4-.1.4-.1h.4l.4.1.4.1.4.1.4.2.4.3.3.3.3.4.2.3.1.1 12 22.9 5.9 11.5 5.8 11.6v.1l.1.3.1.3v.7l-.2 8.5v.1l-.1.2-.1.2-.1.2-.1.2-.1.2-.2.1-.2.1-.2.1-.2.1-.2.1h-.2zm-28.8-11.9z"/><path fill-rule="evenodd" clip-rule="evenodd" fill="#E0E3E8" d="M187.6 195.8h-.2l-.2-.1-.2-.1-.2-.1-.2-.1-.2-.2-.1-.2-.1-.2-.1-.2-.1-.2-.1-.2v-.1l-.2-8.5v.1-.7l.1-.3.1-.3v-.1l5.8-11.6 5.9-11.5 12-22.9.1-.1.2-.3.3-.4.3-.3.4-.3.4-.2.4-.1.4-.1.4-.1h.4l.4.1.4.1.4.2.4.2.4.3.3.3.2.3 17 23 .1.2.1.3.2.4.1.4.1.4v.8l-.1.4-.1.4-.2.4-.2.3-.2.3-.3.3-.3.3-.3.2-.4.2-.3.1h-.1l-10.1 3.1h.1l-.4.1-.3.1-.3.2-.3.2-.3.2-.2.2-.2.3-.2.3-.2.3-.1.3-.1.3-.1.3-.1.3v.6l.1.4 1.7 9.9v1l-.1.5-.2.5-.3.4-.3.4-.4.3-.4.2-.2.1-14.5 4.7-7.3 2.2-3.7 1-1.9.5-.9.2h-1l.8-.6.9-.4 1.7-.8 3.5-1.5 7.1-2.8 14.1-5.4-2-9.8v-.1l-.1-.6V172l.1-.7.1-.7.2-.6.3-.6.3-.6.4-.5.4-.5.5-.5.5-.4.5-.4.6-.3.6-.3.6-.2h.1l9.4-3-16.2-21.9-12.1 22-6.3 11.3-6.5 11.2v-.1l-.1.1v.4l-.8 8.5v-.1.5l.1.1.1.1.1.1.1.1.1.1.1.1.1.1.1.1h.5l.2.1-.1.2-.2.1-.2.1h-.3zm29-11.9z"/><path fill-rule="evenodd" clip-rule="evenodd" fill="#E0E3E8" d="M196 285.9c-.5-.1-1.1-.1-1.6-.1l-.6-.1c-.1 0-.2-.1-.3-.1-.2 0-.2-.1-.4-.1-.1-.1-.2-.1-.3-.2l-.1-.1-.2-.2-.1-.2c-.2-.3-.3-.7-.4-1l-.6-1.5c-.4-1-.7-2-1-3-1.9-6.2-2.7-12.5-1.3-18.9.3-1.2.6-2.4 1-3.6l.3-.9.1-.4s0-.1.1-.1c0-.1.2-.4.2-.4l.4-.4.3-.1.2-.1h.2c.4 0 .9.1 1.3.1.4.1.7.1 1.1.1.7.1 1.4.1 2.1.1 4.9.2 9.6-.7 14.1-2.6 8.4-3.5 15.2-10.1 19.8-17.9.9-1.6 1.8-3.2 2.6-4.9l2-4.9-4-11.1-.6-1.8-.6-1.8c-.1-.4-.2-.7-.4-1.1l-.1-.5c-.1-.4-.1-.8-.2-1.2.2.3.5.7.7 1l.3.6c.2.4.4.8.6 1.3.2.4.4.9.6 1.3.4.9.8 1.7 1.1 2.6.5 1.1 1 2.3 1.5 3.4.2.6.5 1.1.7 1.7.2.6.5 1.1.7 1.7.3.6.5 1.1.7 1.7.3.6.6 1.1.7 1.7v.7c0 .1 0 .1-.1.2-.1.3-.1.5-.2.8 0 .1 0 .1-.1.2 0 .1-.1.3-.1.4-.1.3-.2.5-.3.7-.3.9-.6 1.7-1 2.6-1.1 2.6-2.3 5.2-3.8 7.6-5.2 8.6-12.9 15.6-22.5 18.9-2.1.7-4.2 1.2-6.4 1.6-1.8.3-3.6.4-5.3.4l-3.9-.3-.7 2.3c-.3 1.2-.5 2.4-.6 3.7-.5 4.9.4 9.8 1.9 14.5l1.3 3.5 4.1.2c5.2.1 10.5-.5 15.5-1.9 5.3-1.4 10.3-3.6 15-6.4 2.6-1.6 5.1-3.4 7.4-5.4 3.1-2.7 6-5.6 8.5-8.8 2.2-2.8 4.3-5.8 6.1-8.9 10.2-17.8 12.6-39.7 6.5-59.3-1.9-6.3-4.7-12.3-8.2-17.8-4.1-6.5-9.1-12.3-14.8-17.3-1.7-1.5-3.4-2.9-5.1-4.3-1.2-.9-2.4-1.9-3.7-2.8-1.1-.8-2.1-1.5-3.2-2.3-.4-.3-.9-.6-1.3-.9-.2-.1-.3-.2-.5-.3-.1-.1-.3-.3-.5-.4l-.3-.3c.1 0 .3.1.4.1.2.1.4.1.6.2l.6.3 1.8.9c1.2.6 2.3 1.3 3.4 2 1.7 1 3.3 2.1 4.8 3.2 2.7 1.9 5.4 4.1 7.8 6.3 1.7 1.6 3.5 3.3 5.1 5 1.9 2.1 3.6 4.2 5.3 6.4 3 4.1 5.7 8.5 7.8 13.1.9 1.9 1.7 3.9 2.5 5.9 2.3 6.3 3.7 12.8 4.3 19.5 1.5 17.9-3.3 36.3-13.7 51-6.3 8.8-14.5 16.2-24.2 21-1.2.6-2.5 1.2-3.7 1.7-3.9 1.6-7.8 2.7-11.9 3.5-4 .7-8.2 1.1-12.3.9-.8.2-1.8.1-2.9.1z"/><path fill-rule="evenodd" clip-rule="evenodd" fill="#FFFAF2" d="M238.5 70.2c0-21.8-16-37.8-51.7-37.8s-51.7 16-51.7 37.8c0 21.8-3.7 79.4 51.7 79.4 55.4 0 51.7-57.5 51.7-79.4z"/><path fill-rule="evenodd" clip-rule="evenodd" fill="#E0E3E5" d="M167 147.9c-3.2-1-6.4-2.5-9.3-4.2-2.4-1.4-4.6-3.1-6.7-5-11-10.1-15.5-25.2-17.2-39.6-.4-3.1-.6-6.1-.8-9.2-.2-3.2-.2-6.4-.3-9.7 0-3 0-5.9.1-8.9 0-1.4 0-2.8.1-4.2.1-1.6.3-3.2.5-4.7 1.4-8.4 5.6-15.7 12.2-21.1 9-7.3 20.8-10.1 32.1-11 2.1-.2 4.3-.2 6.4-.3 3.7 0 7.4.1 11.1.4 2.4.2 4.7.5 7.1.9 6.3 1.1 12.6 3 18.2 6.1 3 1.7 5.8 3.7 8.2 6.1 4.8 4.7 8 10.7 9.2 17.3.3 1.7.5 3.6.5 5.3v2.2c0 .2-.1.4-.1.6 0 .1-.1.3-.1.4.3 1 .3 2 .4 3.1.1 1.1.1 2.3.2 3.4.2 4.2.3 8.4.2 12.7-.1 2.4-.2 4.7-.3 7.1-.2 2.2-.4 4.5-.7 6.7-.3 2-.6 4.1-1 6.1-2.3 11.5-7 22.7-15.8 30.6-1.5 1.3-3 2.5-4.6 3.6-3.3 2.2-6.9 3.9-10.6 5.1-4.3 1.4-8.8 2.3-13.4 2.6-2 .2-3.9.2-5.9.3-6.9.1-13.4-.7-19.7-2.7zm35.5-2.8c3.4-.9 6.7-2.2 9.7-3.9 2.2-1.2 4.3-2.6 6.2-4.3 10.7-9 15.2-22.8 17.3-36.3 1.1-6.8 1.5-13.6 1.7-20.4.1-1.4.1-2.9.1-4.3 0-.7 0-1.3.1-2 0-.8.1-1.6.1-2.3 0-.4 0-.8.1-1.1 0-.3.1-.7.2-1.1-.3-.9-.3-1.9-.5-2.8-.1-1-.3-2.1-.5-3.1-.6-3.3-1.7-6.7-3.3-9.7-1-1.9-2.2-3.8-3.6-5.5-1-1.2-2-2.3-3.1-3.3-5.7-5.2-13-8.2-20.4-9.9-2.1-.5-4.2-.8-6.3-1.1-2.2-.3-4.5-.5-6.7-.6l-7.3-.2-7.6.3c-1.9.1-3.9.4-5.8.7-10.9 1.5-22.4 5.6-29.5 14.4-.9 1.1-1.7 2.3-2.4 3.5-1 1.7-1.9 3.5-2.5 5.5-1.3 3.8-1.9 7.8-1.9 11.9 0 4.2-.1 8.5 0 12.7 0 2.8.1 5.6.3 8.4.1 2.3.3 4.7.6 7 1.6 14.2 5.8 29.2 16.9 38.9 1.4 1.2 2.9 2.3 4.4 3.3 3.3 2.1 6.9 3.7 10.7 4.8 2.7.8 5.5 1.4 8.3 1.7l8.5.5 8.1-.4c2.9-.1 5.5-.6 8.1-1.3z"/><path fill-rule="evenodd" clip-rule="evenodd" fill="#FAF0E8" d="M138.7 79.4c3.1-1.8 7.8-1.7 7.8 1.6 15.5-4.4 27.7-11.6 39.8-21.9l4 8c-13 11.1-26.2 18.7-43.4 22.9 1.7 23.8 9.8 53.3 47.2 54.4-2.4.3-5 .4-7.7.4-44.5 0-47.6-40.6-47.7-65.4z"/><path fill-rule="evenodd" clip-rule="evenodd" fill="#E0E3E5" d="M186.5 136.1c-1.9 0-3.1-1.4-3.1-.7s.5 2 3.1 2c2.5 0 3.1-1.3 3.1-2s-1.2.7-3.1.7zm.9-4.2h-.9l-.9-.1-.9-.1-.9-.1-.9-.1-.9-.2-1-.3-.9-.3-.9-.3-.9-.3-.9-.4-.9-.4-.9-.5-.8-.5-.8-.6-.4-.4-.2-.2-.1-.1v-.3l.1-.1.1-.1c.1-.1.6-.1.7-.1.7 0 1.4.1 2.1.2 1.2.2 2.3.4 3.5.6 2.2.4 4.3.6 6.5.7 2.1.1 4.2-.1 6.3-.3 1.4-.2 2.8-.5 4.2-.7.9-.2 1.7-.3 2.6-.4.1 0 .6 0 .7.1l.1.1.1.1v.3l-.1.1-.1.2-.3.4-.7.6-.8.5-.8.5-.8.4-.8.4-.9.3-.9.3-.9.3-.9.2-.9.2-.9.2-.9.1-.9.1-.9.1-.4-.1z"/><path fill-rule="evenodd" clip-rule="evenodd" fill="#E0E3E5" d="M171.2 129.2l-.4-.1-.2-.1-.1-.1-.1-.1-.2-.2c-.3-.4-.4-.9-.3-1.4 0-.2 0-.4.1-.6.3-1 .7-1.7 1.5-2.3.5-.4 1-.6 1.6-.6l.3.1.1.1.2.1.2.2.3.4.1.4.1.4v.4l-.1.4-.1.4-.2.4-.2.4-.3.4-.3.3-.4.3-.4.3-.5.2-.7.3zm30.3 0l-.6-.1-.5-.2-.4-.3-.4-.3-.3-.3-.3-.4-.2-.4-.2-.4-.1-.4-.1-.4v-.4l.1-.4.1-.4.3-.4.2-.2.2-.1.1-.1h.1l.2-.1c.5-.1.7.1 1.2.3.1.1.3.2.4.3.9.7 1.5 1.7 1.6 2.8.1.6 0 1-.3 1.5l-.2.2-.1.1-.1.1-.2.1-.5-.1z"/><circle fill-rule="evenodd" clip-rule="evenodd" fill="#F2FAFA" cx="162.6" cy="97.5" r="14"/><path fill-rule="evenodd" clip-rule="evenodd" fill="#D9E0E5" d="M157.9 90.3c2.2-2 5.7-1.9 7.8.3 2.1 2.2 1.9 5.7-.3 7.8-2.2 2.1-5.7 1.9-7.8-.3-2.1-2.2-1.9-5.7.3-7.8z"/><path fill-rule="evenodd" clip-rule="evenodd" fill="#FAF0E8" d="M189.7 94.8c1.9 6 4.8 11.9 3.6 18.2l-4.9.4c1.6-1.7 1.6-9.4 1.3-18.6z"/><path fill-rule="evenodd" clip-rule="evenodd" fill="#E0E3E5" d="M183.5 116.3c-.8-.5-1.6-1.2-1.9-2.1-.1-.3-.2-.7 0-1l.1-.1c.2-.2.4-.3.7-.3.6 0 1.2.1 1.8.2.7.1 1.3.3 2 .3.5.1.9.1 1.4.1 1 0 1.9-.2 2.8-.4.5-.1 1-.2 1.6-.2.3 0 .5.1.7.3l.1.1c.2.4.1.8-.1 1.2-.3.7-1 1.4-1.6 1.9a6.98 6.98 0 0 1-7.6 0zm-34.3-34.8c-.1-.1-.2-.1-.2-.2V81c.1-.5.4-.7.7-1.1.2-.3.5-.5.8-.8.7-.5 1.3-1 2.1-1.4 3.2-1.7 6.9-2.5 10.5-2.2.7.1 1.5.1 2.2.3 1 .2 1.9.5 2.8 1 .1.1.3.1.4.2.1.1.5.4.5.5v.3l-.1.1c-.2.3-.5.4-.9.5-.8.2-1.7.3-2.5.4-.6.1-1.2.1-1.9.2-1.3.1-2.6.3-3.9.5-2 .3-4 .8-6 1.2-1.1.3-2.3.6-3.4.7-.2.2-.8.3-1.1.1zm74.8 1.1c-.4 0-.7-.1-1.1-.1-.7-.1-1.3-.3-2-.4-1.2-.3-2.3-.6-3.5-.8-.9-.2-1.8-.4-2.8-.5-2-.3-4-.5-6-.7-.8-.1-1.6-.1-2.4-.3-.1 0-.3-.1-.4-.1-.2-.1-.5-.2-.7-.3l-.1-.1s0-.1-.1-.1v-.3l.1-.1.1-.2.3-.3.6-.4.7-.3.7-.2.7-.2.7-.2.7-.1.7-.1.7-.1h2.8l.7.1.7.1.7.1.7.1.7.2.7.2.7.2.6.2.6.2.6.3.6.3.6.3.6.3.6.4.6.4 1.1.9.5.6.2.3.1.2v.4l-.1.1c-.5.1-.8 0-1.2 0z"/><path fill-rule="evenodd" clip-rule="evenodd" fill="#FAEBD4" d="M186.1 8.9l.2 50.1c-18.5 15.8-37.3 24.4-67.6 26.5 4.6-42.3 32.9-75.2 67.4-76.6z"/><path fill-rule="evenodd" clip-rule="evenodd" fill="#FFF5D4" d="M194.7 10.3c-3.4-.9-9.3 1.3-9.4 4.8l-.2 43.9c16.3 15.8 32.9 24.4 59.7 26.5-3.6-37.8-24-68.2-50.1-75.2z"/><path fill-rule="evenodd" clip-rule="evenodd" fill="#FFF5D4" d="M185.3 34.4c24.7 20.6 20.1 12.7.2 21.9-15.8 13.5-31.9 20.9-57.9 22.7 3.9-36.2 53.5-91.1 57.7-44.6z"/><circle fill-rule="evenodd" clip-rule="evenodd" fill="#F2FAFA" cx="160.6" cy="93.4" r="1.5"/><path fill-rule="evenodd" clip-rule="evenodd" fill="#F2FAFA" d="M201.2 107.4c-5.5-5.5-5.5-14.3 0-19.8s14.3-5.5 19.8 0 5.5 14.3 0 19.8-14.3 5.5-19.8 0z"/><path fill-rule="evenodd" clip-rule="evenodd" fill="#D9E0E5" d="M208.4 90.3c2.2-2 5.7-1.9 7.8.3 2.1 2.2 1.9 5.7-.3 7.8-2.2 2.1-5.7 1.9-7.8-.3-2.1-2.2-2-5.7.3-7.8z"/><circle fill-rule="evenodd" clip-rule="evenodd" fill="#F2FAFA" cx="211.1" cy="93.4" r="1.5"/><path fill-rule="evenodd" clip-rule="evenodd" fill="#E0E3E5" d="M150.9 109.2c-6.4-6.4-6.4-16.9 0-23.3s16.9-6.4 23.3 0c6.4 6.4 6.4 16.9 0 23.3-6.4 6.4-16.8 6.4-23.3 0zm20.5-2.9c4.9-4.9 4.9-12.8 0-17.7-4.9-4.9-12.8-4.9-17.7 0-4.9 4.9-4.9 12.8 0 17.7 4.9 4.9 12.8 4.9 17.7 0zm27.8 2.9c-6.4-6.4-6.4-16.9 0-23.3 6.4-6.4 16.9-6.4 23.3 0s6.4 16.9 0 23.3c-6.4 6.4-16.9 6.4-23.3 0zm20.5-2.9c4.9-4.9 4.9-12.8 0-17.7-4.9-4.9-12.8-4.9-17.7 0-4.9 4.9-4.9 12.8 0 17.7 4.9 4.9 12.8 4.9 17.7 0z"/><path fill-rule="evenodd" clip-rule="evenodd" fill="#E0E3E5" d="M135.1 98c0-1.1.9-2 2-2h12c1.1 0 2 .9 2 2s-.9 2-2 2h-12c-1.1 0-2-.9-2-2zm87 0c0-1.1.9-2 2-2h12c1.1 0 2 .9 2 2s-.9 2-2 2h-12c-1.1 0-2-.9-2-2zm-49-8c0-1.1.9-2 2-2 8.1-1.9 15.7-2 23 0 1.1 0 2 .9 2 2s-.9 2-2 2c-8.3-1.4-16-1.4-23 0-1.1 0-2-.9-2-2zm64.7-4.8l-1.2-.1-1.2-.1-1.2-.1-1.1-.1-1.2-.2-1.1-.2-1.2-.1-1.1-.2-2.2-.5-2.1-.5-2.1-.5-2.1-.6-2.1-.7-2-.6-1.9-.7-1.9-.8-1.9-.8-1.9-.8-1.8-.9-1.8-.9-1.7-1-1.8-1-1.7-1-1.6-1.1-1.7-1.1-1.6-1.1-1.6-1.2-1.6-1.3-1.5-1.3-1.5-1.3-1.5-1.4-1.5-1.4-1.4-1.5-1.4-1.5-.6-.9-.3-.4-.1-.3v-.3h.6l.5.3.9.5 1.7 1.2 1.6 1.2 1.6 1.1 1.7 1.2 1.6 1.1 1.6 1.1 1.6 1.1 1.6 1 1.6 1 1.7 1 1.6 1 1.7.9 1.7 1 1.6.8 1.8.9 1.7.8 1.8.9 1.8.7 1.8.8 1.9.8 1.9.7 1.9.7 2 .6 2 .7 2 .7 2.1.6 1.1.3 1.1.3 1.1.3 1 .3 1.2.4 1.1.3 1.1.3 1.2.4 1.1.4.6.2.3.2.2.3-.3.2-.3.1-.7.1zm-107.7.1h-1.2l-1.1-.1-.6-.1h-.3l-.3-.3.2-.3.3-.1.5-.3 1.1-.3 1.1-.3 1.1-.3 2.2-.5 2.1-.5 2.1-.6 2-.5 2-.5 1.9-.6 2-.5 1.8-.6 1.9-.6 1.8-.6 1.8-.7 1.8-.6 1.7-.7 1.7-.7 1.7-.8 1.7-.7 1.6-.8 1.7-.8 1.6-.8 1.6-.9 1.6-.9 1.6-.9 1.6-.9 1.6-.9 1.6-1 1.6-1 1.6-1 1.6-1 1.7-.9.9-.5.5-.2.2-.1.3.1v.3l-.1.3-.3.4-.6.7-1.4 1.5-1.4 1.3-1.5 1.2-1.5 1.3-1.5 1.1-1.5 1.2-1.6 1-1.5 1.1-1.6 1-1.7 1-1.6.9-1.7.9-1.7.8-1.7.9-1.8.7-1.8.8-1.8.7-1.9.7-1.8.6-1.9.6-2 .5-2 .5-2 .5-2 .4-2.1.4-2.1.3-2.2.3-2.2.2-2.3.2zm56 175.6l-.2-.3-.1-.3-.2-.5-.2-1.1-.3-2.3-.3-4.5-.4-9-.2-9-.1-9 .1-9 .2-9 .4-9 .4-4.5.2-2.3.2-1.1.2-.5.1-.3.2-.3.3.3.1.3.1.5.2 1.1.3 2.3.3 4.5.5 9 .2 9v18l-.2 9-.5 9-.3 4.5-.3 2.3-.2 1.1-.1.5-.1.3z"/><path fill-rule="evenodd" clip-rule="evenodd" fill="#FFFADE" d="M132.7 148c-.3-.5-.6-.9-.9-1.4-.1-.2-.2-.3-.3-.5-9.3-14.8-14.4-33.1-14.4-51.9 0-47 31.2-85.3 69.5-85.3h1c-37.9.7-68.5 38.7-68.5 85.3 0 18.9 5.1 37.1 14.4 51.9.1.1.2.3.3.5.3.5.6.9.9 1.4 1.8 2.5.6 3.5-2 0z"/><path fill-rule="evenodd" clip-rule="evenodd" fill="#E0E3E5" d="M188.6 271.1l-42-6.7c-.5-.1-.9-.7-.7-1.3l18.7-67.2c.1-.5.7-.9 1.3-.7l53.1 14.7c.5.1.9.7.7 1.3l-8.1 29.2-21.6 30c-.3.5-.9.8-1.4.7z"/><path fill-rule="evenodd" clip-rule="evenodd" fill="#E0E3E5" d="M178.5 205.9l2.5-8.9 7.6 2.1.4-1.5c.7-2.4 3.1-3.8 5.5-3.1 2.4.7 3.8 3.1 3.1 5.5l-.4 1.5 7.7 2.1-2.5 8.9-23.9-6.6zm17-6.5c.3-1.2-.4-2.4-1.6-2.8-1.2-.3-2.4.4-2.8 1.6-.3 1.2.4 2.4 1.6 2.8 1.2.3 2.5-.4 2.8-1.6z"/><path fill-rule="evenodd" clip-rule="evenodd" fill="#FFFAF2" d="M183.8 244.8c13.3-17.4 24.1-15.9 17-4-1.8 3.6 2 3.7 9.5 1.5 21.2-6.4 15.7 31.4-23 22.3.4-6.4 2-12.9-3.5-19.8z"/><path fill-rule="evenodd" clip-rule="evenodd" fill="#E0E3E8" d="M194.7 266.9c-1.9-.2-3.8-.5-5.7-.9-1.3-.3-2.5-.6-3.8-.9.3-4.4 1.4-8.8.8-13.3-.2-1.2-.5-2.5-.9-3.7-.2-.4-.3-.9-.5-1.3-.1-.3-.3-.6-.4-.9-.1-.2-.2-.5-.3-.7-.1-.3-.2-.5-.3-.8 0-.1-.1-.1-.1-.2l-.1-.3c0-.2.1-.4.1-.5 0-.1.1-.2.1-.3.2-.4.5-.8.7-1.2.2-.3.4-.7.7-1l1.5-2.1c2.3-2.9 5.1-5.6 8.2-7.6 1.5-.9 3.3-1.8 5.1-1.8.7 0 1.3.1 1.9.3.4.1.7.3 1.1.6 2 1.6 1.6 4.5.9 6.7-.2.6-.4 1.1-.7 1.7-.3.7-.7 1.5-1.1 2.2 0 0 0-.1.1-.1l-.1.3.9.1c.5 0 .9-.1 1.3-.2 1.7-.3 3.5-.7 5.2-1.3 2.6-.8 5.3-1.2 8-.5.4.1.9.3 1.3.5.6.2 1.2.6 1.7 1 .6.4 1.1.9 1.6 1.5.5.7.9 1.3 1.2 2.1.5 1.2.8 2.6.8 3.9 0 1.3-.2 2.7-.6 4-.7 2.6-2.2 5-4.1 7-1.5 1.6-3.2 2.9-5.1 4-5.5 3.6-12.6 4.4-19.4 3.7zm14.8-5.4c2.3-1 4.4-2.2 6.2-4 2.3-2.1 4.2-5.1 4.4-8.3.1-.9 0-1.9-.3-2.8-.1-.4-.3-.8-.5-1.2-1.1-1.7-2.8-2.3-4.7-2.4-1.4 0-2.8.2-4.1.6-.6.2-1.3.3-1.9.5-.7.2-1.5.4-2.3.5-.6.1-1.1.2-1.7.3-.4.1-.8.1-1.2.1-1.4.1-3 0-4.1-1-.2-.1-.4-.4-.5-.6l-.1-.2c-.2-.3-.3-.7-.3-1-.2-1 .2-2 .6-2.9.2-.3.4-.6.5-.9.6-1.1 1.1-2.1 1.5-3.3.1-.2.1-.4.1-.6.1-.4.2-1.5-.3-1.8-.5-.2-1.2-.1-1.8 0-1.2.3-2.4.8-3.5 1.5-2.9 1.7-5.5 4-8 6.3l-1.4 1.4-.7.7c-.4.3-.7.7-1.1 1l-.3.3-.5.2.4.3c.1.1.2.1.3.2l.2.2c.2.2.4.4.5.6.7.9 1.4 1.8 1.9 2.9 1.3 2.6 1.8 5.5 1.8 8.4 0 1.2 0 2.5-.1 3.7l-.1 2.4 2.6.4c6.1 1 12.8.9 18.5-1.5z"/><path fill-rule="evenodd" clip-rule="evenodd" fill="#F5F7FA" d="M126.8 274.9l-.2-32.6-8-8.7-.3 35.8z"/><path fill-rule="evenodd" clip-rule="evenodd" fill="#F5F7FA" d="M167.4 274.9c-17.6-5.9-31-9.2-48.1-21.7l1.1-42.5 56.9 41.1-9.9 23.1z"/><path fill-rule="evenodd" clip-rule="evenodd" fill="#FFF" d="M144.9 151.8c-70.4 47.6-27 125.5 39.7 114.3 3-8.7 3.6-16-.8-23.3-62.8-8.1-56.7-36.8-48.3-64l9.4-27z"/><path fill-rule="evenodd" clip-rule="evenodd" fill="#F5F7FA" d="M142.4 202.7l4 27.4-9.3-12.3z"/><path fill-rule="evenodd" clip-rule="evenodd" fill="#E0E3E5" d="M133.3 255.8c-4.1-2.8-7.8-6-11.2-9.7-3.9-4.2-7.2-9.2-9.6-14.4-2-4.3-3.5-8.8-4.4-13.5-2.2-11.7-.4-23.8 4.7-34.6 3.6-7.6 8.6-14.4 14.5-20.4 3.4-3.4 7.1-6.5 11-9.3 1.2-.9 2.5-1.8 3.9-2.6l1.5-.9c.1-.1.2-.1.3-.2.2-.1.4-.2.6-.2l.4-.1c-.2.3-.4.5-.7.8-.1.1-.3.3-.5.4-.3.3-.6.5-.9.8-.9.7-1.8 1.5-2.7 2.2-.9.8-1.9 1.6-2.8 2.4-1.7 1.5-3.4 3-5 4.6-10.4 10.2-18.5 22.7-21 37.2-1 5.6-1 11.3-.2 16.9.7 4.5 1.9 8.8 3.7 13 1.6 3.7 3.6 7.2 6 10.5 9 12.5 23 20.7 38 23.5 6.3 1.2 12.6 1.5 19 1l5.2-.6.9-2.9c1.1-4 1.6-8.2.5-12.3-.3-1-.6-1.9-1-2.9l-.8-1.7-4.4.6c-1.9.1-3.9.1-5.8 0-10.7-.8-20.8-5.6-28.2-13.4-2.4-2.5-4.5-5.3-6.3-8.3-.5-.8-.9-1.6-1.3-2.4-.2-.4-.4-.7-.5-1.1v-.2c0-.6.5-1.7.6-1.9l.6-1.5 1.2-3c.5-1.3 1-2.5 1.5-3.7.4-.9.7-1.7 1.1-2.6.2-.4.3-.7.5-1.1.1-.2.2-.4.3-.5l.6-.9c0 .3-.1.7-.1 1l-.1.4c-.1.5-.2.9-.4 1.4-.3 1.2-.7 2.3-1 3.5-.3 1-.6 2.1-.9 3.1l-1.8 5.7 2.1 3.5c5.9 8.6 14.9 15.2 25.1 17.7 4.1 1 8.1 1.3 12.3 1.1 1.1-.1 2.1-.2 3.2-.3.4-.1.7-.1 1.1-.2.4-.1.7-.1 1.1-.2l.4-.1h.5c.1 0 .2.1.3.1.1 0 .1 0 .2.1.1 0 .4.3.5.3.1 0 .1.1.1.2.2.2.3.3.4.5.2.4.4.8.7 1.2l.3.6c.2.4.4.8.5 1.2.2.4.3.8.5 1.2 1 2.7 1.4 5.4 1.4 8.3 0 2.7-.5 5.3-1.1 7.9-.3 1.1-.6 2.2-1 3.3-.1.4-.3.9-.5 1.3l-.1.2c0 .1-.1.2-.2.2l-.1.2-.2.1c-.1 0-.2.1-.3.2l-.2.1c-.3.1-.6.1-.9.2-.4.1-.8.1-1.3.2-.3.1-.7.1-1 .1-.3.1-.6.1-.9.1-.7.1-1.5.2-2.2.2-2.6.3-5.1.3-7.7.3-13.5-.5-26.9-4.4-38-11.9z"/><path fill-rule="evenodd" clip-rule="evenodd" fill="#FFFAF2" d="M197.7 264.6c-13.3-17.4-24.1-15.9-17-4 1.8 3.6-1.9 3.7-9.4 1.5-21.2-6.4-15.7 31.4 23 22.3-.5-6.4-2.1-12.9 3.4-19.8z"/><path fill-rule="evenodd" clip-rule="evenodd" fill="#E0E3E8" d="M162 279.8c-2.5-2.5-4.5-5.8-5.1-9.3-.3-1.5-.3-3.2.1-4.7.2-.9.5-1.7 1-2.5.4-.7.9-1.3 1.5-1.9.5-.5 1.1-.9 1.7-1.3 3.1-1.8 6.9-1.4 10.2-.4 1.7.5 3.5 1 5.3 1.3.4.1.8.1 1.3.1l.9-.1-.1-.3-.8-1.5c-.2-.4-.4-.9-.6-1.3-.1-.3-.3-.7-.4-1-.6-1.8-.9-4 .1-5.7.2-.3.5-.7.8-.9.3-.2.5-.4.8-.5.4-.2.8-.3 1.2-.3.7-.1 1.5 0 2.2.1 1.8.4 3.7 1.5 5.2 2.6 2.6 1.9 4.9 4.3 6.9 6.8.5.6 1 1.3 1.4 1.9.2.3.4.5.5.8.1.1.1.2.2.3.2.3.4.7.6 1.1 0 .1.1.2.1.3.1.2.1.4.1.6-.1.3-.1.6-.2.8l-.3.6c-.2.5-.4.9-.6 1.3l-.6 1.5c-.4 1.1-.7 2.2-.8 3.3-.7 4.5.4 9 .8 13.5-1 .2-2.1.5-3.1.7-1.9.4-3.8.8-5.7 1-8.6.9-18.1-.6-24.6-6.9zm27.5 3.2l2.9-.5-.2-3.1c-.3-4.3 0-8.5 2.2-12.3.4-.7.9-1.3 1.4-2 .2-.2.3-.4.5-.6.1-.1.1-.2.2-.2.1-.1.2-.1.3-.2l.4-.3-.5-.2c-.1 0-.2-.1-.2-.2-.4-.3-.7-.6-1-.9l-.8-.8-1.8-1.8c-1.5-1.4-3-2.8-4.7-4-1.1-.8-2.2-1.6-3.4-2.2-1-.6-2.2-1.1-3.3-1.3-.4-.1-1.2-.1-1.5.1-.5.3-.3 1.3-.3 1.8 0 .1.1.3.1.4 0 .1.1.3.1.4.3 1 .8 2 1.3 2.9.2.3.4.7.6 1 .4.7.7 1.8.7 2.6 0 .3-.1.7-.2 1l-.1.2c-.1.2-.2.3-.3.5-1.2 1.3-3.1 1.4-4.7 1.3-.4 0-.8-.1-1.1-.1-.4-.1-.8-.1-1.2-.2-.7-.1-1.3-.3-2-.4-.8-.2-1.6-.4-2.5-.6-1.1-.3-2.2-.5-3.4-.6-2.1-.1-4.3.4-5.5 2.4-.3.5-.6 1.2-.7 1.8-.2.8-.2 1.7-.1 2.5.4 3.5 2.5 6.4 5.1 8.7 4 3.4 9.3 5 14.5 5.3 1.6.1 3.2.1 4.8.1 1.5-.2 2.9-.3 4.4-.5z"/></svg>