<svg xmlns="http://www.w3.org/2000/svg" width="16" height="16"><path clip-rule="evenodd" fill="none" d="M0 0h16v16H0z"/><g fill-rule="evenodd" clip-rule="evenodd"><path fill="#05A6DE" d="M15 2.7c0-.2-.2-.4-.4-.4-1-.1-2.1-.4-3.1-.7-1-.4-2.1-.8-3.3-1.5-.1-.1-.3-.1-.4 0-1.2.6-2.3 1.1-3.3 1.4-1 .3-2 .6-3.1.7-.2.1-.4.3-.4.5-.1 4 .8 7.3 2.8 9.9 1.1 1.4 2.4 2.5 4 3.4.1.1.3.1.5 0 1.6-.9 2.9-2 4-3.4 1.9-2.6 2.8-5.9 2.7-9.9z"/><path fill="#F0FAFF" d="M8 14.9l-.8-.5c-1-.7-1.9-1.5-2.6-2.5C3 9.9 2.1 7.3 2 4.1v-.9L3.2 3c.5-.1 1.1-.3 1.6-.5s1.1-.4 1.7-.7L8 1.1l1.6.8c.6.3 1.1.5 1.7.7.5.2 1.1.3 1.6.5l1.1.1v.9c-.1 3.2-1 5.8-2.6 7.8-.7 1-1.6 1.8-2.6 2.5l-.8.5z"/><path fill="#05A6DE" d="M7.3 10.7c-.2-.2-.3-.4-.3-.7V7.7c-.2 0-.3-.2-.4-.3-.8-.8-.8-2.1 0-2.8.8-.8 2-.8 2.8 0 .8.8.8 2.1 0 2.8-.1.1-.3.3-.4.3V10c0 .3-.1.5-.3.7-.4.4-1 .4-1.4 0z"/></g></svg>