<?xml version="1.0" encoding="utf-8"?>
<!-- Generator: Adobe Illustrator 13.0.0, SVG Export Plug-In . SVG Version: 6.00 Build 14948)  -->
<!DOCTYPE svg PUBLIC "-//W3C//DTD SVG 1.1//EN" "http://www.w3.org/Graphics/SVG/1.1/DTD/svg11.dtd">
<svg version="1.1" id="Layer_1" xmlns="http://www.w3.org/2000/svg" xmlns:xlink="http://www.w3.org/1999/xlink" x="0px" y="0px"
	 width="16px" height="16px" viewBox="0 0 16 16" enable-background="new 0 0 16 16" xml:space="preserve">
<rect fill-rule="evenodd" clip-rule="evenodd" fill="none" width="16" height="16"/>
<g>
	<path fill-rule="evenodd" clip-rule="evenodd" fill="#05A6DE" d="M15,2.7c0-0.2-0.2-0.4-0.4-0.4c-1-0.1-2.1-0.4-3.1-0.7
		c-1-0.4-2.1-0.8-3.3-1.5C8.1,0,7.9,0,7.8,0.1C6.6,0.7,5.5,1.2,4.5,1.5c-1,0.3-2,0.6-3.1,0.7C1.2,2.3,1,2.5,1,2.7
		c-0.1,4,0.8,7.3,2.8,9.9c1.1,1.4,2.4,2.5,4,3.4c0.1,0.1,0.3,0.1,0.5,0c1.6-0.9,2.9-2,4-3.4C14.2,10,15.1,6.7,15,2.7z"/>
	<path fill-rule="evenodd" clip-rule="evenodd" fill="#F0FAFF" d="M8,14.9l-0.8-0.5c-1-0.7-1.9-1.5-2.6-2.5C3,9.9,2.1,7.3,2,4.1V3.2
		L3.2,3c0.5-0.1,1.1-0.3,1.6-0.5c0.5-0.2,1.1-0.4,1.7-0.7L8,1.1l1.6,0.8c0.6,0.3,1.1,0.5,1.7,0.7c0.5,0.2,1.1,0.3,1.6,0.5L14,3.2
		v0.9c-0.1,3.2-1,5.8-2.6,7.8c-0.7,1-1.6,1.8-2.6,2.5L8,14.9z"/>
	<path fill-rule="evenodd" clip-rule="evenodd" fill="#05A6DE" d="M7.3,10.7C7.1,10.5,7,10.3,7,10V7.7C6.8,7.7,6.7,7.5,6.6,7.4
		c-0.8-0.8-0.8-2.1,0-2.8c0.8-0.8,2-0.8,2.8,0c0.8,0.8,0.8,2.1,0,2.8C9.3,7.5,9.1,7.7,9,7.7V10c0,0.3-0.1,0.5-0.3,0.7
		C8.3,11.1,7.7,11.1,7.3,10.7z"/>
</g>
</svg>
